%TF.GenerationSoftware,KiCad,Pcbnew,(6.0.0-rc1-323-gb9e66d8b98)*%
%TF.CreationDate,2021-12-09T23:12:50+08:00*%
%TF.ProjectId,Xterminal,58746572-6d69-46e6-916c-2e6b69636164,rev?*%
%TF.SameCoordinates,PXb340ac0PY76b1be0*%
%TF.FileFunction,Legend,Top*%
%TF.FilePolarity,Positive*%
%FSLAX46Y46*%
G04 Gerber Fmt 4.6, Leading zero omitted, Abs format (unit mm)*
G04 Created by KiCad (PCBNEW (6.0.0-rc1-323-gb9e66d8b98)) date 2021-12-09 23:12:50*
%MOMM*%
%LPD*%
G01*
G04 APERTURE LIST*
%ADD10C,0.127000*%
%TA.AperFunction,Profile*%
%ADD11C,0.500000*%
%TD*%
%ADD12C,0.120000*%
%ADD13C,0.076200*%
G04 APERTURE END LIST*
D10*
X667657Y3272972D02*
X1248228Y3272972D01*
X957942Y2982686D02*
X957942Y3563258D01*
X3933371Y3272972D02*
X4513942Y3272972D01*
X27814209Y13237029D02*
X27306209Y13237029D01*
X27814209Y13527315D02*
X27523923Y13309600D01*
X27306209Y13527315D02*
X27596495Y13237029D01*
X27548114Y13745029D02*
X27548114Y13914362D01*
X27814209Y13986934D02*
X27814209Y13745029D01*
X27306209Y13745029D01*
X27306209Y13986934D01*
X27572304Y14301410D02*
X27814209Y14301410D01*
X27306209Y14132077D02*
X27572304Y14301410D01*
X27306209Y14470743D01*
X27548114Y14809410D02*
X27572304Y14881981D01*
X27596495Y14906172D01*
X27644876Y14930362D01*
X27717447Y14930362D01*
X27765828Y14906172D01*
X27790019Y14881981D01*
X27814209Y14833600D01*
X27814209Y14640077D01*
X27306209Y14640077D01*
X27306209Y14809410D01*
X27330400Y14857791D01*
X27354590Y14881981D01*
X27402971Y14906172D01*
X27451352Y14906172D01*
X27499733Y14881981D01*
X27523923Y14857791D01*
X27548114Y14809410D01*
X27548114Y14640077D01*
X27814209Y21198115D02*
X27306209Y21198115D01*
X27814209Y21488400D02*
X27523923Y21270686D01*
X27306209Y21488400D02*
X27596495Y21198115D01*
X27548114Y21706115D02*
X27548114Y21875448D01*
X27814209Y21948020D02*
X27814209Y21706115D01*
X27306209Y21706115D01*
X27306209Y21948020D01*
X27572304Y22262496D02*
X27814209Y22262496D01*
X27306209Y22093162D02*
X27572304Y22262496D01*
X27306209Y22431829D01*
X27669066Y22576972D02*
X27669066Y22818877D01*
X27814209Y22528591D02*
X27306209Y22697924D01*
X27814209Y22867258D01*
X3887409Y21368658D02*
X4298647Y21368658D01*
X4347028Y21392848D01*
X4371219Y21417039D01*
X4395409Y21465420D01*
X4395409Y21562181D01*
X4371219Y21610562D01*
X4347028Y21634753D01*
X4298647Y21658943D01*
X3887409Y21658943D01*
X4395409Y21900848D02*
X3887409Y21900848D01*
X3887409Y22094372D01*
X3911600Y22142753D01*
X3935790Y22166943D01*
X3984171Y22191134D01*
X4056742Y22191134D01*
X4105123Y22166943D01*
X4129314Y22142753D01*
X4153504Y22094372D01*
X4153504Y21900848D01*
X4370009Y13400315D02*
X3862009Y13400315D01*
X4224866Y13569648D01*
X3862009Y13738981D01*
X4370009Y13738981D01*
X4370009Y13980886D02*
X3862009Y13980886D01*
X4370009Y14222791D02*
X3862009Y14222791D01*
X3862009Y14343743D01*
X3886200Y14416315D01*
X3934580Y14464696D01*
X3982961Y14488886D01*
X4079723Y14513077D01*
X4152295Y14513077D01*
X4249057Y14488886D01*
X4297438Y14464696D01*
X4345819Y14416315D01*
X4370009Y14343743D01*
X4370009Y14222791D01*
X4293809Y5648477D02*
X3785809Y5648477D01*
X3785809Y5769429D01*
X3810000Y5842000D01*
X3858380Y5890381D01*
X3906761Y5914572D01*
X4003523Y5938762D01*
X4076095Y5938762D01*
X4172857Y5914572D01*
X4221238Y5890381D01*
X4269619Y5842000D01*
X4293809Y5769429D01*
X4293809Y5648477D01*
X3785809Y6253239D02*
X3785809Y6350000D01*
X3810000Y6398381D01*
X3858380Y6446762D01*
X3955142Y6470953D01*
X4124476Y6470953D01*
X4221238Y6446762D01*
X4269619Y6398381D01*
X4293809Y6350000D01*
X4293809Y6253239D01*
X4269619Y6204858D01*
X4221238Y6156477D01*
X4124476Y6132286D01*
X3955142Y6132286D01*
X3858380Y6156477D01*
X3810000Y6204858D01*
X3785809Y6253239D01*
X3785809Y6640286D02*
X4293809Y6761239D01*
X3930952Y6858000D01*
X4293809Y6954762D01*
X3785809Y7075715D01*
X4293809Y7269239D02*
X3785809Y7269239D01*
X4293809Y7559524D01*
X3785809Y7559524D01*
X8108647Y27823886D02*
X8277980Y27823886D01*
X8350552Y27557791D02*
X8108647Y27557791D01*
X8108647Y28065791D01*
X8350552Y28065791D01*
X8568266Y27557791D02*
X8568266Y28065791D01*
X8858552Y27557791D01*
X8858552Y28065791D01*
X2409371Y27722286D02*
X2481942Y27698096D01*
X2506133Y27673905D01*
X2530323Y27625524D01*
X2530323Y27552953D01*
X2506133Y27504572D01*
X2481942Y27480381D01*
X2433561Y27456191D01*
X2240038Y27456191D01*
X2240038Y27964191D01*
X2409371Y27964191D01*
X2457752Y27940000D01*
X2481942Y27915810D01*
X2506133Y27867429D01*
X2506133Y27819048D01*
X2481942Y27770667D01*
X2457752Y27746477D01*
X2409371Y27722286D01*
X2240038Y27722286D01*
X2844800Y27964191D02*
X2941561Y27964191D01*
X2989942Y27940000D01*
X3038323Y27891620D01*
X3062514Y27794858D01*
X3062514Y27625524D01*
X3038323Y27528762D01*
X2989942Y27480381D01*
X2941561Y27456191D01*
X2844800Y27456191D01*
X2796419Y27480381D01*
X2748038Y27528762D01*
X2723847Y27625524D01*
X2723847Y27794858D01*
X2748038Y27891620D01*
X2796419Y27940000D01*
X2844800Y27964191D01*
X3376990Y27964191D02*
X3473752Y27964191D01*
X3522133Y27940000D01*
X3570514Y27891620D01*
X3594704Y27794858D01*
X3594704Y27625524D01*
X3570514Y27528762D01*
X3522133Y27480381D01*
X3473752Y27456191D01*
X3376990Y27456191D01*
X3328609Y27480381D01*
X3280228Y27528762D01*
X3256038Y27625524D01*
X3256038Y27794858D01*
X3280228Y27891620D01*
X3328609Y27940000D01*
X3376990Y27964191D01*
X3739847Y27964191D02*
X4030133Y27964191D01*
X3884990Y27456191D02*
X3884990Y27964191D01*
D11*
X0Y31750000D02*
X31750000Y31750000D01*
X31750000Y31750000D02*
X31750000Y0D01*
X31750000Y0D02*
X0Y0D01*
X0Y0D02*
X0Y31750000D01*
D12*
%TO.C,U1*%
X17359000Y29010000D02*
X17834000Y29010000D01*
X17834000Y29010000D02*
X17834000Y28535000D01*
X11089000Y21790000D02*
X10614000Y21790000D01*
X10614000Y21790000D02*
X10614000Y22265000D01*
X17359000Y21790000D02*
X17834000Y21790000D01*
X17834000Y21790000D02*
X17834000Y22265000D01*
X11089000Y29010000D02*
X10614000Y29010000D01*
D13*
%TO.C,U5*%
X6134000Y2956000D02*
X6134000Y3756000D01*
X6134000Y2956000D02*
X6134000Y2156000D01*
X9254000Y2956000D02*
X9254000Y2156000D01*
X9254000Y2956000D02*
X9254000Y4756000D01*
%TO.C,Q6*%
X6858000Y13172000D02*
X8533000Y13172000D01*
X6858000Y13172000D02*
X6208000Y13172000D01*
X6858000Y16292000D02*
X7508000Y16292000D01*
X6858000Y16292000D02*
X6208000Y16292000D01*
%TO.C,C1*%
X19918000Y29639335D02*
X19918000Y29407665D01*
X19198000Y29639335D02*
X19198000Y29407665D01*
%TO.C,R7*%
X21840879Y9270000D02*
X22176121Y9270000D01*
X21840879Y8510000D02*
X22176121Y8510000D01*
%TO.C,D2*%
X24804000Y16740000D02*
X24804000Y14190000D01*
X26504000Y16740000D02*
X26504000Y14190000D01*
X26504000Y16740000D02*
X24804000Y16740000D01*
%TO.C,D1*%
X21398000Y26673000D02*
X23948000Y26673000D01*
X21398000Y28373000D02*
X21398000Y26673000D01*
X21398000Y28373000D02*
X23948000Y28373000D01*
%TO.C,C2*%
X23916000Y24014165D02*
X23916000Y24245835D01*
X23196000Y24014165D02*
X23196000Y24245835D01*
%TO.C,SW4*%
X-72000Y26010000D02*
X-72000Y25085000D01*
X3628000Y26010000D02*
X3628000Y21310000D01*
X2053000Y21210000D02*
X1503000Y21210000D01*
X-72000Y22235000D02*
X-72000Y21310000D01*
X2053000Y26110000D02*
X1503000Y26110000D01*
%TO.C,C12*%
X5486000Y10397835D02*
X5486000Y10166165D01*
X4766000Y10397835D02*
X4766000Y10166165D01*
%TO.C,R20*%
X7287879Y16638000D02*
X7623121Y16638000D01*
X7287879Y17398000D02*
X7623121Y17398000D01*
%TO.C,Q3*%
X24215500Y4288000D02*
X22540500Y4288000D01*
X24215500Y1168000D02*
X23565500Y1168000D01*
X24215500Y4288000D02*
X24865500Y4288000D01*
X24215500Y1168000D02*
X24865500Y1168000D01*
%TO.C,R8*%
X6478000Y6182379D02*
X6478000Y6517621D01*
X7238000Y6182379D02*
X7238000Y6517621D01*
%TO.C,R18*%
X21840879Y11527332D02*
X22176121Y11527332D01*
X21840879Y10767332D02*
X22176121Y10767332D01*
%TO.C,R10*%
X16384000Y10410879D02*
X16384000Y10746121D01*
X17144000Y10410879D02*
X17144000Y10746121D01*
%TO.C,R16*%
X6771621Y19976000D02*
X6436379Y19976000D01*
X6771621Y19216000D02*
X6436379Y19216000D01*
%TO.C,U6*%
X17350000Y17625000D02*
X17350000Y18100000D01*
X17350000Y14355000D02*
X17350000Y13880000D01*
X13130000Y14355000D02*
X13130000Y13880000D01*
X13130000Y18100000D02*
X13605000Y18100000D01*
X13130000Y17625000D02*
X13130000Y18100000D01*
X17350000Y18100000D02*
X16875000Y18100000D01*
X17350000Y13880000D02*
X16875000Y13880000D01*
%TO.C,Q5*%
X5904000Y20468000D02*
X7304000Y20468000D01*
X7304000Y22788000D02*
X5404000Y22788000D01*
%TO.C,SW1*%
X31734000Y13184000D02*
X31734000Y14109000D01*
X29609000Y13084000D02*
X30159000Y13084000D01*
X31734000Y16959000D02*
X31734000Y17884000D01*
X29609000Y17984000D02*
X30159000Y17984000D01*
X28034000Y13184000D02*
X28034000Y17884000D01*
%TO.C,TP2*%
X5805400Y27381200D02*
G75*
G03*
X5805400Y27381200I-700000J0D01*
G01*
%TO.C,R3*%
X21433879Y19557500D02*
X21769121Y19557500D01*
X21433879Y20317500D02*
X21769121Y20317500D01*
%TO.C,C14*%
X7320954Y18385068D02*
X7552624Y18385068D01*
X7320954Y17665068D02*
X7552624Y17665068D01*
%TO.C,R1*%
X26613121Y27593000D02*
X26277879Y27593000D01*
X26613121Y28353000D02*
X26277879Y28353000D01*
%TO.C,R11*%
X26391500Y5892121D02*
X26391500Y5556879D01*
X25631500Y5892121D02*
X25631500Y5556879D01*
%TO.C,Q4*%
X28115500Y4288000D02*
X26440500Y4288000D01*
X28115500Y1168000D02*
X28765500Y1168000D01*
X28115500Y4288000D02*
X28765500Y4288000D01*
X28115500Y1168000D02*
X27465500Y1168000D01*
%TO.C,U2*%
X26081000Y22184000D02*
X26756000Y22184000D01*
X24211000Y18964000D02*
X23536000Y18964000D01*
X26081000Y18964000D02*
X26756000Y18964000D01*
X24211000Y22184000D02*
X23536000Y22184000D01*
X23536000Y18964000D02*
X23536000Y19139000D01*
X26756000Y22184000D02*
X26756000Y22009000D01*
X26756000Y18964000D02*
X26756000Y19139000D01*
%TO.C,C11*%
X9522000Y10153665D02*
X9522000Y10385335D01*
X8802000Y10153665D02*
X8802000Y10385335D01*
%TO.C,R14*%
X7538000Y10114379D02*
X7538000Y10449621D01*
X6778000Y10114379D02*
X6778000Y10449621D01*
%TO.C,D4*%
X6202000Y6465835D02*
X6202000Y6234165D01*
X5482000Y6465835D02*
X5482000Y6234165D01*
%TO.C,U3*%
X20074000Y-1245000D02*
X10914000Y-1245000D01*
X20074000Y460000D02*
X20074000Y-1245000D01*
X10914000Y4390000D02*
X10914000Y2470000D01*
X20074000Y2470000D02*
X20074000Y4390000D01*
X10914000Y-1245000D02*
X10914000Y460000D01*
%TO.C,C13*%
X17928000Y10492665D02*
X17928000Y10724335D01*
X18648000Y10492665D02*
X18648000Y10724335D01*
%TO.C,D5*%
X28361500Y7724500D02*
X28361500Y5174500D01*
X26661500Y7724500D02*
X26661500Y5174500D01*
X28361500Y7724500D02*
X26661500Y7724500D01*
%TO.C,R19*%
X7452379Y12066000D02*
X7787621Y12066000D01*
X7452379Y12826000D02*
X7787621Y12826000D01*
%TO.C,AE1*%
X7830000Y28612000D02*
X7830000Y31332000D01*
X7830000Y31332000D02*
X1120000Y31332000D01*
X1120000Y28612000D02*
X7830000Y28612000D01*
%TO.C,BZ1*%
X22444000Y30703000D02*
X26444000Y30703000D01*
X26444000Y29103000D02*
X22444000Y29103000D01*
%TO.C,R6*%
X8544000Y6515121D02*
X8544000Y6179879D01*
X9304000Y6515121D02*
X9304000Y6179879D01*
%TO.C,R9*%
X8254000Y6517621D02*
X8254000Y6182379D01*
X7494000Y6517621D02*
X7494000Y6182379D01*
%TO.C,C4*%
X25948000Y24014165D02*
X25948000Y24245835D01*
X25228000Y24014165D02*
X25228000Y24245835D01*
%TO.C,R4*%
X21716000Y23962379D02*
X21716000Y24297621D01*
X20956000Y23962379D02*
X20956000Y24297621D01*
%TO.C,SW5*%
X3628000Y10210000D02*
X3628000Y5510000D01*
X-72000Y10210000D02*
X-72000Y9285000D01*
X-72000Y6435000D02*
X-72000Y5510000D01*
X2053000Y5410000D02*
X1503000Y5410000D01*
X2053000Y10310000D02*
X1503000Y10310000D01*
%TO.C,C3*%
X24212000Y24014165D02*
X24212000Y24245835D01*
X24932000Y24014165D02*
X24932000Y24245835D01*
%TO.C,C8*%
X21872665Y12636000D02*
X22104335Y12636000D01*
X21872665Y11916000D02*
X22104335Y11916000D01*
%TO.C,U4*%
X26706000Y10668000D02*
X26706000Y11468000D01*
X23586000Y10668000D02*
X23586000Y8868000D01*
X23586000Y10668000D02*
X23586000Y11468000D01*
X26706000Y10668000D02*
X26706000Y9868000D01*
%TO.C,SW3*%
X28034000Y21103000D02*
X28034000Y25803000D01*
X31734000Y21103000D02*
X31734000Y22028000D01*
X29609000Y25903000D02*
X30159000Y25903000D01*
X29609000Y21003000D02*
X30159000Y21003000D01*
X31734000Y24878000D02*
X31734000Y25803000D01*
%TO.C,R15*%
X5762000Y10449621D02*
X5762000Y10114379D01*
X6522000Y10449621D02*
X6522000Y10114379D01*
%TO.C,Q1*%
X27838000Y29385500D02*
X27838000Y27710500D01*
X30958000Y29385500D02*
X30958000Y30035500D01*
X27838000Y29385500D02*
X27838000Y30035500D01*
X30958000Y29385500D02*
X30958000Y28735500D01*
%TO.C,C6*%
X6676335Y24514000D02*
X6444665Y24514000D01*
X6676335Y25234000D02*
X6444665Y25234000D01*
%TO.C,C5*%
X26964000Y24014165D02*
X26964000Y24245835D01*
X26244000Y24014165D02*
X26244000Y24245835D01*
%TO.C,C9*%
X21872665Y9658666D02*
X22104335Y9658666D01*
X21872665Y10378666D02*
X22104335Y10378666D01*
%TO.C,R2*%
X21769121Y21333500D02*
X21433879Y21333500D01*
X21769121Y20573500D02*
X21433879Y20573500D01*
%TO.C,J1*%
X4600000Y464000D02*
X4600000Y2584000D01*
X2540000Y464000D02*
X2540000Y2584000D01*
X480000Y464000D02*
X480000Y1524000D01*
X2540000Y2584000D02*
X4600000Y2584000D01*
X1540000Y464000D02*
X480000Y464000D01*
X2540000Y464000D02*
X4600000Y464000D01*
%TO.C,R5*%
X6392879Y25510000D02*
X6728121Y25510000D01*
X6392879Y26270000D02*
X6728121Y26270000D01*
%TO.C,R17*%
X6771621Y23280000D02*
X6436379Y23280000D01*
X6771621Y24040000D02*
X6436379Y24040000D01*
%TO.C,R12*%
X23241500Y5554379D02*
X23241500Y5889621D01*
X22481500Y5554379D02*
X22481500Y5889621D01*
%TO.C,TP1*%
X7913600Y27381200D02*
G75*
G03*
X7913600Y27381200I-700000J0D01*
G01*
%TO.C,D6*%
X30411500Y7722000D02*
X28711500Y7722000D01*
X30411500Y7722000D02*
X30411500Y5172000D01*
X28711500Y7722000D02*
X28711500Y5172000D01*
%TO.C,R13*%
X12828000Y10410879D02*
X12828000Y10746121D01*
X13588000Y10410879D02*
X13588000Y10746121D01*
%TO.C,SW2*%
X3628000Y18098000D02*
X3628000Y13398000D01*
X-72000Y14323000D02*
X-72000Y13398000D01*
X2053000Y18198000D02*
X1503000Y18198000D01*
X-72000Y18098000D02*
X-72000Y17173000D01*
X2053000Y13298000D02*
X1503000Y13298000D01*
%TO.C,C10*%
X7786000Y10153665D02*
X7786000Y10385335D01*
X8506000Y10153665D02*
X8506000Y10385335D01*
%TO.C,Q2*%
X22352000Y13680000D02*
X24027000Y13680000D01*
X22352000Y16800000D02*
X23002000Y16800000D01*
X22352000Y16800000D02*
X21702000Y16800000D01*
X22352000Y13680000D02*
X21702000Y13680000D01*
%TO.C,D3*%
X23577500Y4727500D02*
X23577500Y7277500D01*
X23577500Y4727500D02*
X25277500Y4727500D01*
X25277500Y4727500D02*
X25277500Y7277500D01*
%TO.C,C7*%
X4464000Y6465835D02*
X4464000Y6234165D01*
X5184000Y6465835D02*
X5184000Y6234165D01*
%TD*%
M02*
