%TF.GenerationSoftware,KiCad,Pcbnew,(6.0.0-rc1-323-gb9e66d8b98)*%
%TF.CreationDate,2021-12-09T23:12:50+08:00*%
%TF.ProjectId,Xterminal,58746572-6d69-46e6-916c-2e6b69636164,rev?*%
%TF.SameCoordinates,PXb340ac0PY76b1be0*%
%TF.FileFunction,Paste,Top*%
%TF.FilePolarity,Positive*%
%FSLAX46Y46*%
G04 Gerber Fmt 4.6, Leading zero omitted, Abs format (unit mm)*
G04 Created by KiCad (PCBNEW (6.0.0-rc1-323-gb9e66d8b98)) date 2021-12-09 23:12:50*
%MOMM*%
%LPD*%
G01*
G04 APERTURE LIST*
G04 Aperture macros list*
%AMRoundRect*
0 Rectangle with rounded corners*
0 $1 Rounding radius*
0 $2 $3 $4 $5 $6 $7 $8 $9 X,Y pos of 4 corners*
0 Add a 4 corners polygon primitive as box body*
4,1,4,$2,$3,$4,$5,$6,$7,$8,$9,$2,$3,0*
0 Add four circle primitives for the rounded corners*
1,1,$1+$1,$2,$3*
1,1,$1+$1,$4,$5*
1,1,$1+$1,$6,$7*
1,1,$1+$1,$8,$9*
0 Add four rect primitives between the rounded corners*
20,1,$1+$1,$2,$3,$4,$5,0*
20,1,$1+$1,$4,$5,$6,$7,0*
20,1,$1+$1,$6,$7,$8,$9,0*
20,1,$1+$1,$8,$9,$2,$3,0*%
G04 Aperture macros list end*
%TA.AperFunction,Profile*%
%ADD10C,0.500000*%
%TD*%
%ADD11RoundRect,0.062500X-0.375000X-0.062500X0.375000X-0.062500X0.375000X0.062500X-0.375000X0.062500X0*%
%ADD12RoundRect,0.062500X-0.062500X-0.375000X0.062500X-0.375000X0.062500X0.375000X-0.062500X0.375000X0*%
%ADD13RoundRect,0.250000X-0.270000X-0.270000X0.270000X-0.270000X0.270000X0.270000X-0.270000X0.270000X0*%
%ADD14RoundRect,0.150000X-0.150000X0.512500X-0.150000X-0.512500X0.150000X-0.512500X0.150000X0.512500X0*%
%ADD15RoundRect,0.150000X0.587500X0.150000X-0.587500X0.150000X-0.587500X-0.150000X0.587500X-0.150000X0*%
%ADD16RoundRect,0.155000X-0.155000X0.212500X-0.155000X-0.212500X0.155000X-0.212500X0.155000X0.212500X0*%
%ADD17RoundRect,0.160000X-0.197500X-0.160000X0.197500X-0.160000X0.197500X0.160000X-0.197500X0.160000X0*%
%ADD18R,0.450000X0.600000*%
%ADD19R,0.600000X0.450000*%
%ADD20RoundRect,0.155000X0.155000X-0.212500X0.155000X0.212500X-0.155000X0.212500X-0.155000X-0.212500X0*%
%ADD21R,1.000000X1.550000*%
%ADD22RoundRect,0.150000X-0.587500X-0.150000X0.587500X-0.150000X0.587500X0.150000X-0.587500X0.150000X0*%
%ADD23RoundRect,0.160000X0.160000X-0.197500X0.160000X0.197500X-0.160000X0.197500X-0.160000X-0.197500X0*%
%ADD24RoundRect,0.160000X0.197500X0.160000X-0.197500X0.160000X-0.197500X-0.160000X0.197500X-0.160000X0*%
%ADD25RoundRect,0.217500X0.217500X-0.217500X0.217500X0.217500X-0.217500X0.217500X-0.217500X-0.217500X0*%
%ADD26RoundRect,0.062500X0.062500X-0.375000X0.062500X0.375000X-0.062500X0.375000X-0.062500X-0.375000X0*%
%ADD27RoundRect,0.062500X0.375000X-0.062500X0.375000X0.062500X-0.375000X0.062500X-0.375000X-0.062500X0*%
%ADD28R,0.650000X0.400000*%
%ADD29RoundRect,0.155000X-0.212500X-0.155000X0.212500X-0.155000X0.212500X0.155000X-0.212500X0.155000X0*%
%ADD30RoundRect,0.160000X-0.160000X0.197500X-0.160000X-0.197500X0.160000X-0.197500X0.160000X0.197500X0*%
%ADD31RoundRect,0.087500X-0.187500X-0.087500X0.187500X-0.087500X0.187500X0.087500X-0.187500X0.087500X0*%
%ADD32RoundRect,0.087500X-0.087500X-0.187500X0.087500X-0.187500X0.087500X0.187500X-0.087500X0.187500X0*%
%ADD33R,0.300000X1.150000*%
%ADD34RoundRect,0.250000X0.350000X0.850000X-0.350000X0.850000X-0.350000X-0.850000X0.350000X-0.850000X0*%
%ADD35RoundRect,0.250000X-0.250000X-0.450000X0.250000X-0.450000X0.250000X0.450000X-0.250000X0.450000X0*%
%ADD36RoundRect,0.150000X0.150000X-0.512500X0.150000X0.512500X-0.150000X0.512500X-0.150000X-0.512500X0*%
%ADD37RoundRect,0.150000X0.150000X-0.587500X0.150000X0.587500X-0.150000X0.587500X-0.150000X-0.587500X0*%
%ADD38RoundRect,0.155000X0.212500X0.155000X-0.212500X0.155000X-0.212500X-0.155000X0.212500X-0.155000X0*%
G04 APERTURE END LIST*
D10*
X0Y31750000D02*
X31750000Y31750000D01*
X31750000Y31750000D02*
X31750000Y0D01*
X31750000Y0D02*
X0Y0D01*
X0Y0D02*
X0Y31750000D01*
D11*
%TO.C,U1*%
X10786500Y28150000D03*
X10786500Y27650000D03*
X10786500Y27150000D03*
X10786500Y26650000D03*
X10786500Y26150000D03*
X10786500Y25650000D03*
X10786500Y25150000D03*
X10786500Y24650000D03*
X10786500Y24150000D03*
X10786500Y23650000D03*
X10786500Y23150000D03*
X10786500Y22650000D03*
D12*
X11474000Y21962500D03*
X11974000Y21962500D03*
X12474000Y21962500D03*
X12974000Y21962500D03*
X13474000Y21962500D03*
X13974000Y21962500D03*
X14474000Y21962500D03*
X14974000Y21962500D03*
X15474000Y21962500D03*
X15974000Y21962500D03*
X16474000Y21962500D03*
X16974000Y21962500D03*
D11*
X17661500Y22650000D03*
X17661500Y23150000D03*
X17661500Y23650000D03*
X17661500Y24150000D03*
X17661500Y24650000D03*
X17661500Y25150000D03*
X17661500Y25650000D03*
X17661500Y26150000D03*
X17661500Y26650000D03*
X17661500Y27150000D03*
X17661500Y27650000D03*
X17661500Y28150000D03*
D12*
X16974000Y28837500D03*
X16474000Y28837500D03*
X15974000Y28837500D03*
X15474000Y28837500D03*
X14974000Y28837500D03*
X14474000Y28837500D03*
X13974000Y28837500D03*
X13474000Y28837500D03*
X12974000Y28837500D03*
X12474000Y28837500D03*
X11974000Y28837500D03*
X11474000Y28837500D03*
D13*
X12289000Y27335000D03*
X12289000Y26045000D03*
X12289000Y24755000D03*
X12289000Y23465000D03*
X13579000Y27335000D03*
X13579000Y26045000D03*
X13579000Y24755000D03*
X13579000Y23465000D03*
X14869000Y27335000D03*
X14869000Y26045000D03*
X14869000Y24755000D03*
X14869000Y23465000D03*
X16159000Y27335000D03*
X16159000Y26045000D03*
X16159000Y24755000D03*
X16159000Y23465000D03*
%TD*%
D14*
%TO.C,U5*%
X8644000Y4093500D03*
X7694000Y4093500D03*
X6744000Y4093500D03*
X6744000Y1818500D03*
X8644000Y1818500D03*
%TD*%
D15*
%TO.C,Q6*%
X7795500Y13782000D03*
X7795500Y15682000D03*
X5920500Y14732000D03*
%TD*%
D16*
%TO.C,C1*%
X19558000Y30091000D03*
X19558000Y28956000D03*
%TD*%
D17*
%TO.C,R7*%
X21411000Y8890000D03*
X22606000Y8890000D03*
%TD*%
D18*
%TO.C,D2*%
X25654000Y16290000D03*
X25654000Y14190000D03*
%TD*%
D19*
%TO.C,D1*%
X21848000Y27523000D03*
X23948000Y27523000D03*
%TD*%
D20*
%TO.C,C2*%
X23556000Y23562500D03*
X23556000Y24697500D03*
%TD*%
D21*
%TO.C,SW4*%
X928000Y26285000D03*
X928000Y21035000D03*
X2628000Y26285000D03*
X2628000Y21035000D03*
%TD*%
D16*
%TO.C,C12*%
X5126000Y10849500D03*
X5126000Y9714500D03*
%TD*%
D17*
%TO.C,R20*%
X6858000Y17018000D03*
X8053000Y17018000D03*
%TD*%
D22*
%TO.C,Q3*%
X23278000Y3678000D03*
X23278000Y1778000D03*
X25153000Y2728000D03*
%TD*%
D23*
%TO.C,R8*%
X6858000Y5752500D03*
X6858000Y6947500D03*
%TD*%
D17*
%TO.C,R18*%
X21411000Y11147332D03*
X22606000Y11147332D03*
%TD*%
D23*
%TO.C,R10*%
X16764000Y9981000D03*
X16764000Y11176000D03*
%TD*%
D24*
%TO.C,R16*%
X7201500Y19596000D03*
X6006500Y19596000D03*
%TD*%
D25*
%TO.C,U6*%
X15780000Y16530000D03*
X14700000Y16530000D03*
X14700000Y15450000D03*
X15780000Y15450000D03*
D26*
X13990000Y14052500D03*
X14490000Y14052500D03*
X14990000Y14052500D03*
X15490000Y14052500D03*
X15990000Y14052500D03*
X16490000Y14052500D03*
D27*
X17177500Y14740000D03*
X17177500Y15240000D03*
X17177500Y15740000D03*
X17177500Y16240000D03*
X17177500Y16740000D03*
X17177500Y17240000D03*
D26*
X16490000Y17927500D03*
X15990000Y17927500D03*
X15490000Y17927500D03*
X14990000Y17927500D03*
X14490000Y17927500D03*
X13990000Y17927500D03*
D27*
X13302500Y17240000D03*
X13302500Y16740000D03*
X13302500Y16240000D03*
X13302500Y15740000D03*
X13302500Y15240000D03*
X13302500Y14740000D03*
%TD*%
D28*
%TO.C,Q5*%
X5654000Y22278000D03*
X5654000Y21628000D03*
X5654000Y20978000D03*
X7554000Y20978000D03*
X7554000Y21628000D03*
X7554000Y22278000D03*
%TD*%
D21*
%TO.C,SW1*%
X30734000Y12909000D03*
X30734000Y18159000D03*
X29034000Y12909000D03*
X29034000Y18159000D03*
%TD*%
D17*
%TO.C,R3*%
X21004000Y19937500D03*
X22199000Y19937500D03*
%TD*%
D29*
%TO.C,C14*%
X6869289Y18025068D03*
X8004289Y18025068D03*
%TD*%
D24*
%TO.C,R1*%
X27043000Y27973000D03*
X25848000Y27973000D03*
%TD*%
D30*
%TO.C,R11*%
X26011500Y6322000D03*
X26011500Y5127000D03*
%TD*%
D22*
%TO.C,Q4*%
X27178000Y3678000D03*
X27178000Y1778000D03*
X29053000Y2728000D03*
%TD*%
D31*
%TO.C,U2*%
X23921000Y21574000D03*
X23921000Y21074000D03*
X23921000Y20574000D03*
X23921000Y20074000D03*
X23921000Y19574000D03*
D32*
X24646000Y19349000D03*
X25146000Y19349000D03*
X25646000Y19349000D03*
D31*
X26371000Y19574000D03*
X26371000Y20074000D03*
X26371000Y20574000D03*
X26371000Y21074000D03*
X26371000Y21574000D03*
D32*
X25646000Y21799000D03*
X25146000Y21799000D03*
X24646000Y21799000D03*
%TD*%
D20*
%TO.C,C11*%
X9162000Y9702000D03*
X9162000Y10837000D03*
%TD*%
D23*
%TO.C,R14*%
X7158000Y9684500D03*
X7158000Y10879500D03*
%TD*%
D16*
%TO.C,D4*%
X5842000Y6917500D03*
X5842000Y5782500D03*
%TD*%
D33*
%TO.C,U3*%
X12144000Y6210000D03*
X12944000Y6210000D03*
X14244000Y6210000D03*
X15244000Y6210000D03*
X15744000Y6210000D03*
X16744000Y6210000D03*
X18044000Y6210000D03*
X18844000Y6210000D03*
X18544000Y6210000D03*
X17744000Y6210000D03*
X17244000Y6210000D03*
X16244000Y6210000D03*
X14744000Y6210000D03*
X13744000Y6210000D03*
X13244000Y6210000D03*
X12444000Y6210000D03*
%TD*%
D20*
%TO.C,C13*%
X18288000Y10041000D03*
X18288000Y11176000D03*
%TD*%
D18*
%TO.C,D5*%
X27511500Y7274500D03*
X27511500Y5174500D03*
%TD*%
D17*
%TO.C,R19*%
X7022500Y12446000D03*
X8217500Y12446000D03*
%TD*%
D34*
%TO.C,AE1*%
X6970000Y29972000D03*
X1270000Y29972000D03*
%TD*%
D35*
%TO.C,BZ1*%
X22144000Y29903000D03*
X26744000Y29903000D03*
%TD*%
D30*
%TO.C,R6*%
X8924000Y6945000D03*
X8924000Y5750000D03*
%TD*%
%TO.C,R9*%
X7874000Y6947500D03*
X7874000Y5752500D03*
%TD*%
D20*
%TO.C,C4*%
X25588000Y23562500D03*
X25588000Y24697500D03*
%TD*%
D23*
%TO.C,R4*%
X21336000Y23532500D03*
X21336000Y24727500D03*
%TD*%
D21*
%TO.C,SW5*%
X928000Y10485000D03*
X928000Y5235000D03*
X2628000Y10485000D03*
X2628000Y5235000D03*
%TD*%
D20*
%TO.C,C3*%
X24572000Y23562500D03*
X24572000Y24697500D03*
%TD*%
D29*
%TO.C,C8*%
X21421000Y12276000D03*
X22556000Y12276000D03*
%TD*%
D36*
%TO.C,U4*%
X24196000Y9530500D03*
X25146000Y9530500D03*
X26096000Y9530500D03*
X26096000Y11805500D03*
X24196000Y11805500D03*
%TD*%
D21*
%TO.C,SW3*%
X30734000Y20828000D03*
X30734000Y26078000D03*
X29034000Y20828000D03*
X29034000Y26078000D03*
%TD*%
D30*
%TO.C,R15*%
X6142000Y10879500D03*
X6142000Y9684500D03*
%TD*%
D37*
%TO.C,Q1*%
X28448000Y28448000D03*
X30348000Y28448000D03*
X29398000Y30323000D03*
%TD*%
D38*
%TO.C,C6*%
X7128000Y24874000D03*
X5993000Y24874000D03*
%TD*%
D20*
%TO.C,C5*%
X26604000Y23562500D03*
X26604000Y24697500D03*
%TD*%
D29*
%TO.C,C9*%
X21421000Y10018666D03*
X22556000Y10018666D03*
%TD*%
D24*
%TO.C,R2*%
X22199000Y20953500D03*
X21004000Y20953500D03*
%TD*%
D17*
%TO.C,R5*%
X5963000Y25890000D03*
X7158000Y25890000D03*
%TD*%
D24*
%TO.C,R17*%
X7201500Y23660000D03*
X6006500Y23660000D03*
%TD*%
D23*
%TO.C,R12*%
X22861500Y5124500D03*
X22861500Y6319500D03*
%TD*%
D18*
%TO.C,D6*%
X29561500Y7272000D03*
X29561500Y5172000D03*
%TD*%
D23*
%TO.C,R13*%
X13208000Y9981000D03*
X13208000Y11176000D03*
%TD*%
D21*
%TO.C,SW2*%
X928000Y18373000D03*
X928000Y13123000D03*
X2628000Y18373000D03*
X2628000Y13123000D03*
%TD*%
D20*
%TO.C,C10*%
X8146000Y9702000D03*
X8146000Y10837000D03*
%TD*%
D15*
%TO.C,Q2*%
X23289500Y14290000D03*
X23289500Y16190000D03*
X21414500Y15240000D03*
%TD*%
D18*
%TO.C,D3*%
X24427500Y5177500D03*
X24427500Y7277500D03*
%TD*%
D16*
%TO.C,C7*%
X4824000Y6917500D03*
X4824000Y5782500D03*
%TD*%
M02*
