%TF.GenerationSoftware,KiCad,Pcbnew,(6.0.0-rc1-323-gb9e66d8b98)*%
%TF.CreationDate,2021-12-09T23:12:50+08:00*%
%TF.ProjectId,Xterminal,58746572-6d69-46e6-916c-2e6b69636164,rev?*%
%TF.SameCoordinates,PXb340ac0PY76b1be0*%
%TF.FileFunction,Copper,L3,Inr*%
%TF.FilePolarity,Positive*%
%FSLAX46Y46*%
G04 Gerber Fmt 4.6, Leading zero omitted, Abs format (unit mm)*
G04 Created by KiCad (PCBNEW (6.0.0-rc1-323-gb9e66d8b98)) date 2021-12-09 23:12:50*
%MOMM*%
%LPD*%
G01*
G04 APERTURE LIST*
%TA.AperFunction,Profile*%
%ADD10C,0.500000*%
%TD*%
%TA.AperFunction,ComponentPad*%
%ADD11O,1.000000X2.100000*%
%TD*%
%TA.AperFunction,ComponentPad*%
%ADD12O,1.000000X1.600000*%
%TD*%
%TA.AperFunction,ComponentPad*%
%ADD13R,1.350000X1.350000*%
%TD*%
%TA.AperFunction,ComponentPad*%
%ADD14O,1.350000X1.350000*%
%TD*%
%TA.AperFunction,ViaPad*%
%ADD15C,0.600000*%
%TD*%
%TA.AperFunction,ViaPad*%
%ADD16C,0.800000*%
%TD*%
%TA.AperFunction,Conductor*%
%ADD17C,0.300000*%
%TD*%
%TA.AperFunction,Conductor*%
%ADD18C,0.500000*%
%TD*%
%TA.AperFunction,Conductor*%
%ADD19C,0.150000*%
%TD*%
G04 APERTURE END LIST*
D10*
X0Y31750000D02*
X31750000Y31750000D01*
X31750000Y31750000D02*
X31750000Y0D01*
X31750000Y0D02*
X0Y0D01*
X0Y0D02*
X0Y31750000D01*
D11*
%TO.N,GND*%
%TO.C,U3*%
X19814000Y5645000D03*
X11174000Y5645000D03*
D12*
X19814000Y1465000D03*
X11174000Y1465000D03*
%TD*%
D13*
%TO.N,+BATT*%
%TO.C,J1*%
X1540000Y1524000D03*
D14*
%TO.N,GND*%
X3540000Y1524000D03*
%TD*%
D15*
%TO.N,GND*%
X14528800Y16637000D03*
X3937000Y26568400D03*
X685800Y23291800D03*
X889000Y24257000D03*
X2184400Y3632200D03*
X914400Y4013200D03*
X1092200Y7391400D03*
X1219200Y8509000D03*
X1244600Y15163800D03*
X1244600Y16230600D03*
X4013200Y16687800D03*
X5130800Y13436600D03*
X10033000Y14960600D03*
X8966200Y21894800D03*
X12115800Y27533600D03*
X10414000Y29210000D03*
X22606000Y24638000D03*
X26924000Y26162000D03*
X25146000Y30988000D03*
X28194000Y30988000D03*
X30734000Y30734000D03*
X30226000Y22860000D03*
X30226000Y23876000D03*
X27940000Y20574000D03*
X27940000Y19050000D03*
X30734000Y16256000D03*
X30480000Y14986000D03*
X30734000Y11176000D03*
X29210000Y6096000D03*
X29464000Y3810000D03*
X30988000Y1524000D03*
X30734000Y2794000D03*
X30988000Y4318000D03*
X28194000Y762000D03*
X26670000Y762000D03*
X20828000Y7112000D03*
X10922000Y12192000D03*
X16002000Y15240000D03*
X2844800Y28422600D03*
X29591000Y8483600D03*
X1854200Y28448000D03*
X29997400Y1168400D03*
X17526000Y13792200D03*
X20370800Y20701000D03*
X6324600Y12090400D03*
X10033000Y10820400D03*
X30353000Y10312400D03*
X16916400Y2489200D03*
X14757400Y25781000D03*
X8153400Y30149800D03*
X14808200Y26898600D03*
X15925800Y26924000D03*
X14681200Y2514600D03*
X5969000Y28422600D03*
X3708400Y22428200D03*
X18846800Y10160000D03*
X3886200Y28422600D03*
D16*
X23571200Y6223000D03*
D15*
X863600Y28422600D03*
X22047200Y18516600D03*
X11861800Y14147800D03*
X13233400Y2540000D03*
X18389600Y1346200D03*
X16916400Y1346200D03*
X19888200Y16357600D03*
X6096000Y8839200D03*
X20828000Y16433800D03*
X25425400Y20574000D03*
X8026400Y18465800D03*
X16154400Y24790400D03*
X10160000Y9550400D03*
X13868400Y1524000D03*
X4953000Y28422600D03*
X18592800Y12369800D03*
X18592800Y2463800D03*
X15468600Y1473200D03*
X11277600Y11023600D03*
X14833600Y24765000D03*
X23215600Y10287000D03*
X8178800Y31013400D03*
X16078200Y25857200D03*
D16*
%TO.N,+3V3*%
X24206200Y12573000D03*
D15*
X6019801Y18338801D03*
X3835400Y23926800D03*
X20980400Y19177000D03*
D16*
X24714200Y22733000D03*
X23393400Y29692600D03*
X20853400Y11506200D03*
D15*
X10464800Y8432800D03*
%TO.N,/BAT_DET*%
X9601200Y25400000D03*
X9093200Y18440400D03*
%TO.N,+3.3VA*%
X8813800Y26822400D03*
X21310600Y25273000D03*
X10058400Y30251400D03*
X13974000Y30026800D03*
X20269200Y28727400D03*
X15468600Y20091400D03*
%TO.N,+BATT*%
X5994400Y4394200D03*
X7137400Y8661400D03*
X19354800Y10922000D03*
%TO.N,/VCC_SYS_IN*%
X25908000Y7366000D03*
X26873200Y16179800D03*
%TO.N,/GPIO21*%
X24409400Y6731000D03*
X14579461Y30598100D03*
%TO.N,/KEY1_RAW*%
X28143200Y8610600D03*
X28981400Y10972800D03*
%TO.N,/ESP_BOOT*%
X17246600Y20345400D03*
X4695234Y25634456D03*
X8382000Y20548600D03*
%TO.N,/GPIO12*%
X14554200Y19456400D03*
X8686800Y13893800D03*
%TO.N,/CHG_DET*%
X7721600Y1574800D03*
X8686800Y24942800D03*
%TO.N,/GPIO35*%
X8924393Y23046700D03*
X3505200Y18313400D03*
%TO.N,/GPIO25*%
X11557000Y18288000D03*
X3149600Y11379200D03*
%TO.N,/GPIO34*%
X23622000Y18618200D03*
X8432800Y23672800D03*
%TO.N,/GPIO32*%
X10185400Y21005800D03*
X20701000Y21717000D03*
%TO.N,/GPIO33*%
X10795000Y21742400D03*
X20904200Y22529800D03*
%TO.N,/GPIO2*%
X18669000Y18186400D03*
%TO.N,VBUS*%
X6492278Y2174278D03*
X16535400Y4597400D03*
X20929600Y13919200D03*
X18211800Y14960600D03*
X14173200Y4572000D03*
X20167600Y8712200D03*
X20802600Y8432800D03*
X4826000Y5156200D03*
%TO.N,/USB_PWR_DM*%
X14732000Y11684000D03*
X15514500Y12446000D03*
%TO.N,/GPIO4*%
X18034000Y19608800D03*
%TO.N,/GPIO18*%
X20082500Y27178000D03*
%TO.N,/GPIO23*%
X18288000Y28956000D03*
%TO.N,/CH340_TXD*%
X11781586Y16232869D03*
X15627851Y30840884D03*
%TO.N,/CH340_RXD*%
X11159235Y16974343D03*
X12924999Y30173779D03*
%TO.N,/GPIO22*%
X28397200Y26212800D03*
X16027400Y30124400D03*
%TO.N,/GPIO26*%
X12090400Y19227800D03*
X3352800Y19989800D03*
%TO.N,Net-(C8-Pad1)*%
X25654000Y11176000D03*
X21221917Y12915192D03*
%TO.N,Net-(R20-Pad2)*%
X9464300Y13369300D03*
%TD*%
D17*
%TO.N,+3V3*%
X19050000Y17246600D02*
X20980400Y19177000D01*
X11734800Y17246600D02*
X19050000Y17246600D01*
X9525000Y19456400D02*
X11734800Y17246600D01*
D18*
X23393400Y29692600D02*
X24714200Y28371800D01*
D17*
X3835400Y23149024D02*
X3835400Y23926800D01*
X6019800Y20964624D02*
X3835400Y23149024D01*
D18*
X24714200Y28371800D02*
X24714200Y13081000D01*
X20853400Y11506200D02*
X23139400Y11506200D01*
D17*
X6019800Y19456400D02*
X6019801Y18338801D01*
D18*
X23139400Y11506200D02*
X24206200Y12573000D01*
D17*
X6019800Y19456400D02*
X6019800Y20964624D01*
D18*
X24714200Y13081000D02*
X24206200Y12573000D01*
D17*
X6019800Y19456400D02*
X9525000Y19456400D01*
%TO.N,+3.3VA*%
X8813800Y26822400D02*
X7772400Y25781000D01*
X13974000Y30026800D02*
X13974000Y29917200D01*
X13974000Y30026800D02*
X12987400Y31013400D01*
X7772400Y22006024D02*
X9458424Y20320000D01*
X19380200Y27838400D02*
X20269200Y28727400D01*
X21310600Y27686000D02*
X20269200Y28727400D01*
X13974000Y29917200D02*
X16052800Y27838400D01*
X10820400Y31013400D02*
X10058400Y30251400D01*
X16052800Y27838400D02*
X19380200Y27838400D01*
X15240000Y20320000D02*
X15468600Y20091400D01*
X21310600Y25273000D02*
X21310600Y27686000D01*
X8813800Y26822400D02*
X8813800Y29006800D01*
X12987400Y31013400D02*
X10820400Y31013400D01*
X8813800Y29006800D02*
X10058400Y30251400D01*
X7772400Y25781000D02*
X7772400Y22006024D01*
X9458424Y20320000D02*
X15240000Y20320000D01*
D18*
%TO.N,+BATT*%
X7137400Y8661400D02*
X5588000Y7112000D01*
X5588000Y7112000D02*
X5588000Y4800600D01*
X5588000Y4800600D02*
X5994400Y4394200D01*
D19*
%TO.N,/ESP_BOOT*%
X5469899Y23460701D02*
X4636857Y23460701D01*
X8382000Y20548600D02*
X5469899Y23460701D01*
X17246600Y20345400D02*
X15570200Y18669000D01*
X8483600Y20624800D02*
X8458200Y20624800D01*
X8458200Y20624800D02*
X8382000Y20548600D01*
X4555499Y25494721D02*
X4695234Y25634456D01*
X4555499Y23542059D02*
X4555499Y25494721D01*
X13868400Y18669000D02*
X15570200Y18669000D01*
X9169400Y19939000D02*
X8483600Y20624800D01*
X12598400Y19939000D02*
X13868400Y18669000D01*
X9169400Y19939000D02*
X12598400Y19939000D01*
X4636857Y23460701D02*
X4555499Y23542059D01*
%TO.N,/GPIO34*%
X22733000Y23596600D02*
X8509000Y23596600D01*
X23622000Y22707600D02*
X22733000Y23596600D01*
X8509000Y23596600D02*
X8432800Y23672800D01*
X23622000Y18618200D02*
X23622000Y22707600D01*
%TO.N,/GPIO32*%
X20619642Y21717000D02*
X20701000Y21717000D01*
X19908442Y21005800D02*
X20619642Y21717000D01*
X10185400Y21005800D02*
X19908442Y21005800D01*
%TO.N,/GPIO33*%
X20142200Y22529800D02*
X20904200Y22529800D01*
X19304000Y21691600D02*
X20142200Y22529800D01*
X10845800Y21691600D02*
X19304000Y21691600D01*
X10795000Y21742400D02*
X10845800Y21691600D01*
D18*
%TO.N,VBUS*%
X6492278Y2174278D02*
X4826000Y3840556D01*
X18475899Y8620699D02*
X20360701Y8620699D01*
X18475899Y8620699D02*
X16535400Y6680200D01*
D17*
X19888200Y14960600D02*
X20929600Y13919200D01*
D18*
X12649200Y3048000D02*
X14173200Y4572000D01*
X6492278Y2174278D02*
X7366000Y3048000D01*
X20259101Y8620699D02*
X20167600Y8712200D01*
X20053899Y11175035D02*
X20053899Y13043499D01*
D17*
X18211800Y14960600D02*
X19888200Y14960600D01*
D18*
X4826000Y3840556D02*
X4826000Y5156200D01*
X20053899Y13043499D02*
X20929600Y13919200D01*
X14173200Y4572000D02*
X16510000Y4572000D01*
X16535400Y6680200D02*
X16535400Y4597400D01*
X16510000Y4572000D02*
X16535400Y4597400D01*
X20360701Y10868233D02*
X20053899Y11175035D01*
X7366000Y3048000D02*
X12649200Y3048000D01*
X20360701Y8620699D02*
X20360701Y10868233D01*
%TD*%
%TA.AperFunction,Conductor*%
%TO.N,GND*%
G36*
X31523566Y31532687D02*
G01*
X31548876Y31488850D01*
X31550000Y31476000D01*
X31550000Y274000D01*
X31532687Y226434D01*
X31488850Y201124D01*
X31476000Y200000D01*
X20207448Y200000D01*
X20159882Y217313D01*
X20134572Y261150D01*
X20143362Y311000D01*
X20177350Y341602D01*
X20262927Y379703D01*
X20269622Y383568D01*
X20416396Y490206D01*
X20422127Y495366D01*
X20543534Y630201D01*
X20548064Y636437D01*
X20638781Y793564D01*
X20641917Y800607D01*
X20697983Y973158D01*
X20699588Y980707D01*
X20713798Y1115910D01*
X20714000Y1119776D01*
X20714000Y1201952D01*
X20710362Y1211948D01*
X20705075Y1215000D01*
X18927048Y1215000D01*
X18917052Y1211362D01*
X18914000Y1206075D01*
X18914000Y1119776D01*
X18914202Y1115910D01*
X18928412Y980707D01*
X18930017Y973158D01*
X18986083Y800607D01*
X18989219Y793564D01*
X19079936Y636437D01*
X19084466Y630201D01*
X19205873Y495366D01*
X19211604Y490206D01*
X19358377Y383568D01*
X19365072Y379703D01*
X19450649Y341602D01*
X19487062Y306440D01*
X19492353Y256098D01*
X19464047Y214133D01*
X19420551Y200000D01*
X11567448Y200000D01*
X11519882Y217313D01*
X11494572Y261150D01*
X11503362Y311000D01*
X11537350Y341602D01*
X11622927Y379703D01*
X11629622Y383568D01*
X11776396Y490206D01*
X11782127Y495366D01*
X11903534Y630201D01*
X11908064Y636437D01*
X11998781Y793564D01*
X12001917Y800607D01*
X12057983Y973158D01*
X12059588Y980707D01*
X12073798Y1115910D01*
X12074000Y1119776D01*
X12074000Y1201952D01*
X12070362Y1211948D01*
X12065075Y1215000D01*
X10287048Y1215000D01*
X10277052Y1211362D01*
X10274000Y1206075D01*
X10274000Y1119776D01*
X10274202Y1115910D01*
X10288412Y980707D01*
X10290017Y973158D01*
X10346083Y800607D01*
X10349219Y793564D01*
X10439936Y636437D01*
X10444466Y630201D01*
X10565873Y495366D01*
X10571604Y490206D01*
X10718377Y383568D01*
X10725072Y379703D01*
X10810649Y341602D01*
X10847062Y306440D01*
X10852353Y256098D01*
X10824047Y214133D01*
X10780551Y200000D01*
X274000Y200000D01*
X226434Y217313D01*
X201124Y261150D01*
X200000Y274000D01*
X200000Y829252D01*
X664500Y829252D01*
X676133Y770769D01*
X680184Y764707D01*
X680184Y764706D01*
X684374Y758435D01*
X720448Y704448D01*
X726509Y700398D01*
X752393Y683103D01*
X786769Y660133D01*
X831295Y651276D01*
X841682Y649210D01*
X841683Y649210D01*
X845252Y648500D01*
X2234748Y648500D01*
X2238317Y649210D01*
X2238318Y649210D01*
X2248705Y651276D01*
X2293231Y660133D01*
X2327608Y683103D01*
X2353491Y700398D01*
X2359552Y704448D01*
X2395626Y758435D01*
X2399816Y764706D01*
X2399816Y764707D01*
X2403867Y770769D01*
X2415500Y829252D01*
X2415500Y1058057D01*
X2432813Y1105623D01*
X2476650Y1130933D01*
X2526500Y1122143D01*
X2556703Y1089038D01*
X2603619Y987270D01*
X2606987Y981436D01*
X2717104Y825623D01*
X2721493Y820484D01*
X2858151Y687358D01*
X2863406Y683103D01*
X3022036Y577110D01*
X3027973Y573886D01*
X3203272Y498572D01*
X3209691Y496487D01*
X3277272Y481194D01*
X3287825Y482536D01*
X3289795Y484668D01*
X3290000Y485685D01*
X3290000Y486979D01*
X3790000Y486979D01*
X3793638Y476983D01*
X3796051Y475590D01*
X3975903Y536642D01*
X3982073Y539389D01*
X4148535Y632611D01*
X4154105Y636439D01*
X4300788Y758435D01*
X4305565Y763212D01*
X4427561Y909895D01*
X4431389Y915465D01*
X4524611Y1081927D01*
X4527358Y1088097D01*
X4587393Y1264954D01*
X4586030Y1271502D01*
X4582860Y1274000D01*
X3803048Y1274000D01*
X3793052Y1270362D01*
X3790000Y1265075D01*
X3790000Y486979D01*
X3290000Y486979D01*
X3290000Y1580977D01*
X7215991Y1580977D01*
X7216674Y1575754D01*
X7216674Y1575751D01*
X7217173Y1571938D01*
X7234580Y1438821D01*
X7292320Y1307597D01*
X7295712Y1303562D01*
X7381180Y1201884D01*
X7381183Y1201881D01*
X7384570Y1197852D01*
X7388957Y1194932D01*
X7499524Y1121331D01*
X7499527Y1121330D01*
X7503913Y1118410D01*
X7640757Y1075658D01*
X7646025Y1075561D01*
X7646028Y1075561D01*
X7706333Y1074456D01*
X7784099Y1073030D01*
X7789182Y1074416D01*
X7789184Y1074416D01*
X7917327Y1109352D01*
X7917329Y1109353D01*
X7922417Y1110740D01*
X8044591Y1185755D01*
X8140800Y1292046D01*
X8203310Y1421067D01*
X8227096Y1562446D01*
X8227247Y1574800D01*
X8213254Y1672508D01*
X8207670Y1711503D01*
X8207670Y1711504D01*
X8206923Y1716718D01*
X8179225Y1777638D01*
X8149766Y1842429D01*
X8147584Y1847228D01*
X8054000Y1955837D01*
X8049581Y1958701D01*
X8049579Y1958703D01*
X7993275Y1995197D01*
X7933695Y2033815D01*
X7829768Y2064896D01*
X7801392Y2073382D01*
X7801391Y2073382D01*
X7796339Y2074893D01*
X7722703Y2075343D01*
X7658246Y2075737D01*
X7658245Y2075737D01*
X7652976Y2075769D01*
X7515129Y2036372D01*
X7393880Y1959870D01*
X7298977Y1852412D01*
X7238047Y1722637D01*
X7215991Y1580977D01*
X3290000Y1580977D01*
X3290000Y1787048D01*
X3790000Y1787048D01*
X3793638Y1777052D01*
X3798925Y1774000D01*
X4573459Y1774000D01*
X4583455Y1777638D01*
X4584381Y1779243D01*
X4584241Y1782035D01*
X4548819Y1907631D01*
X4546397Y1913939D01*
X4462013Y2085053D01*
X4458488Y2090807D01*
X4344335Y2243676D01*
X4339809Y2248703D01*
X4199718Y2378201D01*
X4194347Y2382322D01*
X4032999Y2484125D01*
X4026979Y2487192D01*
X3849773Y2557891D01*
X3843297Y2559809D01*
X3802798Y2567864D01*
X3792284Y2566246D01*
X3790026Y2563671D01*
X3790000Y2563532D01*
X3790000Y1787048D01*
X3290000Y1787048D01*
X3290000Y2558826D01*
X3286362Y2568822D01*
X3283122Y2570692D01*
X3263923Y2567393D01*
X3257391Y2565642D01*
X3078398Y2499609D01*
X3072307Y2496704D01*
X2908336Y2399151D01*
X2902877Y2395185D01*
X2759433Y2269388D01*
X2754780Y2264484D01*
X2636671Y2114664D01*
X2632985Y2108988D01*
X2554989Y1960742D01*
X2517520Y1926707D01*
X2466940Y1924720D01*
X2426916Y1955710D01*
X2415500Y1995197D01*
X2415500Y2218748D01*
X2403867Y2277231D01*
X2359552Y2343552D01*
X2293231Y2387867D01*
X2248705Y2396724D01*
X2238318Y2398790D01*
X2238317Y2398790D01*
X2234748Y2399500D01*
X845252Y2399500D01*
X841683Y2398790D01*
X841682Y2398790D01*
X831295Y2396724D01*
X786769Y2387867D01*
X720448Y2343552D01*
X676133Y2277231D01*
X664500Y2218748D01*
X664500Y829252D01*
X200000Y829252D01*
X200000Y11385377D01*
X2643991Y11385377D01*
X2644674Y11380154D01*
X2644674Y11380151D01*
X2648104Y11353920D01*
X2662580Y11243221D01*
X2720320Y11111997D01*
X2723712Y11107962D01*
X2809180Y11006284D01*
X2809183Y11006281D01*
X2812570Y11002252D01*
X2816957Y10999332D01*
X2927524Y10925731D01*
X2927527Y10925730D01*
X2931913Y10922810D01*
X3068757Y10880058D01*
X3074025Y10879961D01*
X3074028Y10879961D01*
X3134333Y10878856D01*
X3212099Y10877430D01*
X3217182Y10878816D01*
X3217184Y10878816D01*
X3345327Y10913752D01*
X3345329Y10913753D01*
X3350417Y10915140D01*
X3428868Y10963309D01*
X3468098Y10987396D01*
X3468099Y10987397D01*
X3472591Y10990155D01*
X3568800Y11096446D01*
X3631310Y11225467D01*
X3655096Y11366846D01*
X3655247Y11379200D01*
X3649186Y11421520D01*
X3635670Y11515903D01*
X3635670Y11515904D01*
X3634923Y11521118D01*
X3615480Y11563882D01*
X3577766Y11646829D01*
X3575584Y11651628D01*
X3542368Y11690177D01*
X14226391Y11690177D01*
X14227074Y11684954D01*
X14227074Y11684951D01*
X14231432Y11651628D01*
X14244980Y11548021D01*
X14302720Y11416797D01*
X14306112Y11412762D01*
X14391580Y11311084D01*
X14391583Y11311081D01*
X14394970Y11307052D01*
X14399357Y11304132D01*
X14509924Y11230531D01*
X14509927Y11230530D01*
X14514313Y11227610D01*
X14651157Y11184858D01*
X14656425Y11184761D01*
X14656428Y11184761D01*
X14716733Y11183656D01*
X14794499Y11182230D01*
X14799582Y11183616D01*
X14799584Y11183616D01*
X14927727Y11218552D01*
X14927729Y11218553D01*
X14932817Y11219940D01*
X15054991Y11294955D01*
X15151200Y11401246D01*
X15213710Y11530267D01*
X15237496Y11671646D01*
X15237647Y11684000D01*
X15217323Y11825918D01*
X15183262Y11900832D01*
X15179335Y11951297D01*
X15208765Y11992481D01*
X15257783Y12005112D01*
X15287532Y11994520D01*
X15287666Y11994801D01*
X15290384Y11993505D01*
X15291627Y11993062D01*
X15296813Y11989610D01*
X15433657Y11946858D01*
X15438925Y11946761D01*
X15438928Y11946761D01*
X15499233Y11945656D01*
X15576999Y11944230D01*
X15582082Y11945616D01*
X15582084Y11945616D01*
X15710227Y11980552D01*
X15710229Y11980553D01*
X15715317Y11981940D01*
X15829079Y12051790D01*
X15832998Y12054196D01*
X15832999Y12054197D01*
X15837491Y12056955D01*
X15933700Y12163246D01*
X15996210Y12292267D01*
X16019996Y12433646D01*
X16020147Y12446000D01*
X16007355Y12535324D01*
X16000570Y12582703D01*
X16000570Y12582704D01*
X15999823Y12587918D01*
X15981358Y12628531D01*
X15942666Y12713629D01*
X15940484Y12718428D01*
X15853813Y12819014D01*
X15850340Y12823045D01*
X15850339Y12823046D01*
X15846900Y12827037D01*
X15842481Y12829901D01*
X15842479Y12829903D01*
X15783986Y12867816D01*
X15726595Y12905015D01*
X15611382Y12939471D01*
X15594292Y12944582D01*
X15594291Y12944582D01*
X15589239Y12946093D01*
X15515603Y12946543D01*
X15451146Y12946937D01*
X15451145Y12946937D01*
X15445876Y12946969D01*
X15308029Y12907572D01*
X15186780Y12831070D01*
X15176133Y12819014D01*
X15109447Y12743506D01*
X15091877Y12723612D01*
X15030947Y12593837D01*
X15008891Y12452177D01*
X15009574Y12446954D01*
X15009574Y12446951D01*
X15013946Y12413519D01*
X15027480Y12310021D01*
X15029603Y12305196D01*
X15063899Y12227252D01*
X15067210Y12176741D01*
X15037278Y12135920D01*
X14988110Y12123889D01*
X14955916Y12135353D01*
X14948519Y12140148D01*
X14948516Y12140149D01*
X14944095Y12143015D01*
X14824448Y12178797D01*
X14811792Y12182582D01*
X14811791Y12182582D01*
X14806739Y12184093D01*
X14733103Y12184543D01*
X14668646Y12184937D01*
X14668645Y12184937D01*
X14663376Y12184969D01*
X14525529Y12145572D01*
X14404280Y12069070D01*
X14372063Y12032591D01*
X14318624Y11972082D01*
X14309377Y11961612D01*
X14248447Y11831837D01*
X14226391Y11690177D01*
X3542368Y11690177D01*
X3482000Y11760237D01*
X3477581Y11763101D01*
X3477579Y11763103D01*
X3437668Y11788972D01*
X3361695Y11838215D01*
X3257768Y11869296D01*
X3229392Y11877782D01*
X3229391Y11877782D01*
X3224339Y11879293D01*
X3150703Y11879743D01*
X3086246Y11880137D01*
X3086245Y11880137D01*
X3080976Y11880169D01*
X2943129Y11840772D01*
X2821880Y11764270D01*
X2814793Y11756245D01*
X2737585Y11668823D01*
X2726977Y11656812D01*
X2666047Y11527037D01*
X2665237Y11521832D01*
X2665236Y11521830D01*
X2655230Y11457563D01*
X2643991Y11385377D01*
X200000Y11385377D01*
X200000Y13899977D01*
X8181191Y13899977D01*
X8181874Y13894754D01*
X8181874Y13894751D01*
X8183614Y13881446D01*
X8199780Y13757821D01*
X8257520Y13626597D01*
X8260912Y13622562D01*
X8346380Y13520884D01*
X8346383Y13520881D01*
X8349770Y13516852D01*
X8354157Y13513932D01*
X8464724Y13440331D01*
X8464727Y13440330D01*
X8469113Y13437410D01*
X8605957Y13394658D01*
X8611225Y13394561D01*
X8611228Y13394561D01*
X8671533Y13393456D01*
X8749299Y13392030D01*
X8754382Y13393416D01*
X8754384Y13393416D01*
X8867553Y13424270D01*
X8917998Y13420079D01*
X8953947Y13384442D01*
X8960392Y13362473D01*
X8977280Y13233321D01*
X9035020Y13102097D01*
X9044104Y13091290D01*
X9123880Y12996384D01*
X9123883Y12996381D01*
X9127270Y12992352D01*
X9131657Y12989432D01*
X9242224Y12915831D01*
X9242227Y12915830D01*
X9246613Y12912910D01*
X9383457Y12870158D01*
X9388725Y12870061D01*
X9388728Y12870061D01*
X9449033Y12868956D01*
X9526799Y12867530D01*
X9531882Y12868916D01*
X9531884Y12868916D01*
X9660027Y12903852D01*
X9660029Y12903853D01*
X9665117Y12905240D01*
X9729192Y12944582D01*
X9782798Y12977496D01*
X9782799Y12977497D01*
X9787291Y12980255D01*
X9883500Y13086546D01*
X9946010Y13215567D01*
X9969796Y13356946D01*
X9969947Y13369300D01*
X9966329Y13394561D01*
X9950370Y13506003D01*
X9950370Y13506004D01*
X9949623Y13511218D01*
X9890284Y13641728D01*
X9796700Y13750337D01*
X9792281Y13753201D01*
X9792279Y13753203D01*
X9752368Y13779072D01*
X9676395Y13828315D01*
X9572468Y13859396D01*
X9544092Y13867882D01*
X9544091Y13867882D01*
X9539039Y13869393D01*
X9465403Y13869843D01*
X9400946Y13870237D01*
X9400945Y13870237D01*
X9395676Y13870269D01*
X9350895Y13857471D01*
X9285238Y13838706D01*
X9234745Y13842281D01*
X9198364Y13877476D01*
X9191650Y13899366D01*
X9172870Y14030504D01*
X9172869Y14030506D01*
X9172123Y14035718D01*
X9169160Y14042236D01*
X9114966Y14161429D01*
X9112784Y14166228D01*
X9019200Y14274837D01*
X9014781Y14277701D01*
X9014779Y14277703D01*
X8974868Y14303572D01*
X8898895Y14352815D01*
X8794968Y14383896D01*
X8766592Y14392382D01*
X8766591Y14392382D01*
X8761539Y14393893D01*
X8687903Y14394343D01*
X8623446Y14394737D01*
X8623445Y14394737D01*
X8618176Y14394769D01*
X8480329Y14355372D01*
X8359080Y14278870D01*
X8351993Y14270845D01*
X8277793Y14186829D01*
X8264177Y14171412D01*
X8203247Y14041637D01*
X8202437Y14036432D01*
X8202436Y14036430D01*
X8195193Y13989910D01*
X8181191Y13899977D01*
X200000Y13899977D01*
X200000Y18319577D01*
X2999591Y18319577D01*
X3000274Y18314354D01*
X3000274Y18314351D01*
X3002383Y18298223D01*
X3018180Y18177421D01*
X3075920Y18046197D01*
X3079312Y18042162D01*
X3164780Y17940484D01*
X3164783Y17940481D01*
X3168170Y17936452D01*
X3172557Y17933532D01*
X3283124Y17859931D01*
X3283127Y17859930D01*
X3287513Y17857010D01*
X3424357Y17814258D01*
X3429625Y17814161D01*
X3429628Y17814161D01*
X3489933Y17813056D01*
X3567699Y17811630D01*
X3572782Y17813016D01*
X3572784Y17813016D01*
X3700927Y17847952D01*
X3700929Y17847953D01*
X3706017Y17849340D01*
X3813219Y17915162D01*
X3823698Y17921596D01*
X3823699Y17921597D01*
X3828191Y17924355D01*
X3924400Y18030646D01*
X3986910Y18159667D01*
X4010696Y18301046D01*
X4010847Y18313400D01*
X4005463Y18350997D01*
X3991270Y18450103D01*
X3991270Y18450104D01*
X3990523Y18455318D01*
X3931184Y18585828D01*
X3852956Y18676616D01*
X3841040Y18690445D01*
X3841039Y18690446D01*
X3837600Y18694437D01*
X3833181Y18697301D01*
X3833179Y18697303D01*
X3784953Y18728561D01*
X3717295Y18772415D01*
X3613368Y18803496D01*
X3584992Y18811982D01*
X3584991Y18811982D01*
X3579939Y18813493D01*
X3506303Y18813943D01*
X3441846Y18814337D01*
X3441845Y18814337D01*
X3436576Y18814369D01*
X3298729Y18774972D01*
X3294269Y18772158D01*
X3292125Y18770805D01*
X3177480Y18698470D01*
X3138405Y18654226D01*
X3096194Y18606430D01*
X3082577Y18591012D01*
X3021647Y18461237D01*
X3020837Y18456032D01*
X3020836Y18456030D01*
X3016925Y18430909D01*
X2999591Y18319577D01*
X200000Y18319577D01*
X200000Y19995977D01*
X2847191Y19995977D01*
X2847874Y19990754D01*
X2847874Y19990751D01*
X2852354Y19956493D01*
X2865780Y19853821D01*
X2923520Y19722597D01*
X2939876Y19703139D01*
X3012380Y19616884D01*
X3012383Y19616881D01*
X3015770Y19612852D01*
X3050510Y19589727D01*
X3130724Y19536331D01*
X3130727Y19536330D01*
X3135113Y19533410D01*
X3271957Y19490658D01*
X3277225Y19490561D01*
X3277228Y19490561D01*
X3337533Y19489456D01*
X3415299Y19488030D01*
X3420382Y19489416D01*
X3420384Y19489416D01*
X3548527Y19524352D01*
X3548529Y19524353D01*
X3553617Y19525740D01*
X3646956Y19583050D01*
X3671298Y19597996D01*
X3671299Y19597997D01*
X3675791Y19600755D01*
X3772000Y19707046D01*
X3834510Y19836067D01*
X3858296Y19977446D01*
X3858447Y19989800D01*
X3846701Y20071821D01*
X3838870Y20126503D01*
X3838870Y20126504D01*
X3838123Y20131718D01*
X3789748Y20238115D01*
X3780966Y20257429D01*
X3778784Y20262228D01*
X3707118Y20345400D01*
X3688640Y20366845D01*
X3688639Y20366846D01*
X3685200Y20370837D01*
X3680781Y20373701D01*
X3680779Y20373703D01*
X3612671Y20417848D01*
X3564895Y20448815D01*
X3453587Y20482103D01*
X3432592Y20488382D01*
X3432591Y20488382D01*
X3427539Y20489893D01*
X3353903Y20490343D01*
X3289446Y20490737D01*
X3289445Y20490737D01*
X3284176Y20490769D01*
X3146329Y20451372D01*
X3025080Y20374870D01*
X2971766Y20314503D01*
X2941011Y20279679D01*
X2930177Y20267412D01*
X2869247Y20137637D01*
X2868437Y20132432D01*
X2868436Y20132430D01*
X2864682Y20108320D01*
X2847191Y19995977D01*
X200000Y19995977D01*
X200000Y23932977D01*
X3329791Y23932977D01*
X3348380Y23790821D01*
X3406120Y23659597D01*
X3425683Y23636324D01*
X3467546Y23586522D01*
X3484900Y23538906D01*
X3484900Y23194311D01*
X3483242Y23178736D01*
X3480449Y23165763D01*
X3481168Y23159688D01*
X3481168Y23159687D01*
X3484387Y23132491D01*
X3484900Y23123793D01*
X3484900Y23119909D01*
X3485402Y23116895D01*
X3485402Y23116891D01*
X3487993Y23101323D01*
X3488484Y23097873D01*
X3493445Y23055959D01*
X3494164Y23049886D01*
X3496811Y23044374D01*
X3497141Y23043237D01*
X3497325Y23042429D01*
X3497510Y23041844D01*
X3497818Y23041092D01*
X3498208Y23039953D01*
X3499212Y23033921D01*
X3502117Y23028538D01*
X3522166Y22991379D01*
X3523748Y22988273D01*
X3542655Y22948899D01*
X3542662Y22948889D01*
X3544674Y22944698D01*
X3547992Y22940750D01*
X3548945Y22939797D01*
X3551868Y22936334D01*
X3554622Y22931230D01*
X3576593Y22910920D01*
X3591777Y22896884D01*
X3593872Y22894870D01*
X5647626Y20841116D01*
X5669018Y20795240D01*
X5669300Y20788790D01*
X5669300Y19475026D01*
X5669024Y19468641D01*
X5665549Y19428520D01*
X5667024Y19422583D01*
X5667117Y19422209D01*
X5669300Y19404368D01*
X5669301Y18726076D01*
X5650767Y18677091D01*
X5597178Y18616413D01*
X5536248Y18486638D01*
X5535438Y18481433D01*
X5535437Y18481431D01*
X5529489Y18443228D01*
X5514192Y18344978D01*
X5514875Y18339755D01*
X5514875Y18339752D01*
X5518812Y18309648D01*
X5532781Y18202822D01*
X5590521Y18071598D01*
X5599605Y18060791D01*
X5679381Y17965885D01*
X5679384Y17965882D01*
X5682771Y17961853D01*
X5687158Y17958933D01*
X5797725Y17885332D01*
X5797728Y17885331D01*
X5802114Y17882411D01*
X5938958Y17839659D01*
X5944226Y17839562D01*
X5944229Y17839562D01*
X6004534Y17838457D01*
X6082300Y17837031D01*
X6087383Y17838417D01*
X6087385Y17838417D01*
X6215528Y17873353D01*
X6215530Y17873354D01*
X6220618Y17874741D01*
X6300883Y17924024D01*
X6338299Y17946997D01*
X6338300Y17946998D01*
X6342792Y17949756D01*
X6439001Y18056047D01*
X6501511Y18185068D01*
X6525297Y18326447D01*
X6525448Y18338801D01*
X6523010Y18355824D01*
X6510014Y18446577D01*
X8587591Y18446577D01*
X8588274Y18441354D01*
X8588274Y18441351D01*
X8588773Y18437538D01*
X8606180Y18304421D01*
X8639298Y18229155D01*
X8658111Y18186400D01*
X8663920Y18173197D01*
X8673004Y18162390D01*
X8752780Y18067484D01*
X8752783Y18067481D01*
X8756170Y18063452D01*
X8767894Y18055648D01*
X8871124Y17986931D01*
X8871127Y17986930D01*
X8875513Y17984010D01*
X9012357Y17941258D01*
X9017625Y17941161D01*
X9017628Y17941161D01*
X9077933Y17940056D01*
X9155699Y17938630D01*
X9160782Y17940016D01*
X9160784Y17940016D01*
X9288927Y17974952D01*
X9288929Y17974953D01*
X9294017Y17976340D01*
X9386201Y18032941D01*
X9411698Y18048596D01*
X9411699Y18048597D01*
X9416191Y18051355D01*
X9512400Y18157646D01*
X9574910Y18286667D01*
X9598696Y18428046D01*
X9598847Y18440400D01*
X9591967Y18488445D01*
X9579270Y18577103D01*
X9579270Y18577104D01*
X9578523Y18582318D01*
X9543508Y18659331D01*
X9521366Y18708029D01*
X9519184Y18712828D01*
X9433747Y18811982D01*
X9429040Y18817445D01*
X9429039Y18817446D01*
X9425600Y18821437D01*
X9421181Y18824301D01*
X9421179Y18824303D01*
X9366751Y18859581D01*
X9305295Y18899415D01*
X9201368Y18930496D01*
X9172992Y18938982D01*
X9172991Y18938982D01*
X9167939Y18940493D01*
X9094303Y18940943D01*
X9029846Y18941337D01*
X9029845Y18941337D01*
X9024576Y18941369D01*
X8886729Y18901972D01*
X8765480Y18825470D01*
X8722162Y18776421D01*
X8677699Y18726076D01*
X8670577Y18718012D01*
X8609647Y18588237D01*
X8608837Y18583032D01*
X8608836Y18583030D01*
X8606124Y18565612D01*
X8587591Y18446577D01*
X6510014Y18446577D01*
X6505871Y18475504D01*
X6505871Y18475505D01*
X6505124Y18480719D01*
X6448233Y18605846D01*
X6447967Y18606430D01*
X6445785Y18611229D01*
X6390638Y18675230D01*
X6388241Y18678012D01*
X6370301Y18726316D01*
X6370301Y18859581D01*
X6370300Y19031900D01*
X6387613Y19079466D01*
X6431450Y19104776D01*
X6444300Y19105900D01*
X9349166Y19105900D01*
X9396732Y19088587D01*
X9401492Y19084226D01*
X10946773Y17538945D01*
X10968165Y17493069D01*
X10955064Y17444174D01*
X10933935Y17424035D01*
X10831515Y17359413D01*
X10736612Y17251955D01*
X10675682Y17122180D01*
X10653626Y16980520D01*
X10654309Y16975297D01*
X10654309Y16975294D01*
X10656415Y16959192D01*
X10672215Y16838364D01*
X10729955Y16707140D01*
X10733347Y16703105D01*
X10818815Y16601427D01*
X10818818Y16601424D01*
X10822205Y16597395D01*
X10826592Y16594475D01*
X10937159Y16520874D01*
X10937162Y16520873D01*
X10941548Y16517953D01*
X11078392Y16475201D01*
X11083660Y16475104D01*
X11083663Y16475104D01*
X11150063Y16473887D01*
X11219053Y16472622D01*
X11219054Y16472622D01*
X11221734Y16472573D01*
X11221724Y16472011D01*
X11267348Y16461565D01*
X11297885Y16421194D01*
X11297922Y16380723D01*
X11298033Y16380706D01*
X11297222Y16375497D01*
X11297221Y16375494D01*
X11288849Y16321718D01*
X11275977Y16239046D01*
X11276660Y16233823D01*
X11276660Y16233820D01*
X11277159Y16230007D01*
X11294566Y16096890D01*
X11352306Y15965666D01*
X11355698Y15961631D01*
X11441166Y15859953D01*
X11441169Y15859950D01*
X11444556Y15855921D01*
X11448943Y15853001D01*
X11559510Y15779400D01*
X11559513Y15779399D01*
X11563899Y15776479D01*
X11700743Y15733727D01*
X11706011Y15733630D01*
X11706014Y15733630D01*
X11766319Y15732525D01*
X11844085Y15731099D01*
X11849168Y15732485D01*
X11849170Y15732485D01*
X11977313Y15767421D01*
X11977315Y15767422D01*
X11982403Y15768809D01*
X12104577Y15843824D01*
X12200786Y15950115D01*
X12263296Y16079136D01*
X12287082Y16220515D01*
X12287233Y16232869D01*
X12266909Y16374787D01*
X12227546Y16461363D01*
X12209752Y16500498D01*
X12207570Y16505297D01*
X12113986Y16613906D01*
X12109567Y16616770D01*
X12109565Y16616772D01*
X12069376Y16642821D01*
X11993681Y16691884D01*
X11889754Y16722965D01*
X11861378Y16731451D01*
X11861377Y16731451D01*
X11856325Y16732962D01*
X11761258Y16733543D01*
X11713308Y16733836D01*
X11665848Y16751439D01*
X11640807Y16795431D01*
X11642561Y16820338D01*
X11640945Y16820610D01*
X11643079Y16833292D01*
X11668041Y16877324D01*
X11713147Y16894955D01*
X11740837Y16896043D01*
X11743742Y16896100D01*
X19004713Y16896100D01*
X19020288Y16894442D01*
X19033261Y16891649D01*
X19039336Y16892368D01*
X19039337Y16892368D01*
X19066533Y16895587D01*
X19075231Y16896100D01*
X19079115Y16896100D01*
X19082129Y16896602D01*
X19082133Y16896602D01*
X19097701Y16899193D01*
X19101151Y16899684D01*
X19143065Y16904645D01*
X19143066Y16904645D01*
X19149138Y16905364D01*
X19154650Y16908011D01*
X19155787Y16908341D01*
X19156595Y16908525D01*
X19157180Y16908710D01*
X19157932Y16909018D01*
X19159071Y16909408D01*
X19165103Y16910412D01*
X19188324Y16922941D01*
X19207645Y16933366D01*
X19210751Y16934948D01*
X19250125Y16953855D01*
X19250135Y16953862D01*
X19254326Y16955874D01*
X19258274Y16959192D01*
X19259226Y16960144D01*
X19262693Y16963070D01*
X19267794Y16965822D01*
X19302153Y17002991D01*
X19304167Y17005085D01*
X20123022Y17823940D01*
X20953307Y18654226D01*
X20999183Y18675618D01*
X21006989Y18675888D01*
X21023188Y18675591D01*
X21042899Y18675230D01*
X21047981Y18676615D01*
X21047985Y18676616D01*
X21176127Y18711552D01*
X21176129Y18711553D01*
X21181217Y18712940D01*
X21243238Y18751021D01*
X21298898Y18785196D01*
X21298899Y18785197D01*
X21303391Y18787955D01*
X21399600Y18894246D01*
X21462110Y19023267D01*
X21485896Y19164646D01*
X21486047Y19177000D01*
X21465723Y19318918D01*
X21406384Y19449428D01*
X21312800Y19558037D01*
X21308381Y19560901D01*
X21308379Y19560903D01*
X21260153Y19592161D01*
X21192495Y19636015D01*
X21087269Y19667484D01*
X21060192Y19675582D01*
X21060191Y19675582D01*
X21055139Y19677093D01*
X20981503Y19677543D01*
X20917046Y19677937D01*
X20917045Y19677937D01*
X20911776Y19677969D01*
X20773929Y19638572D01*
X20769469Y19635758D01*
X20765792Y19633438D01*
X20652680Y19562070D01*
X20620595Y19525740D01*
X20561854Y19459228D01*
X20557777Y19454612D01*
X20496847Y19324837D01*
X20496037Y19319632D01*
X20496036Y19319630D01*
X20475537Y19187968D01*
X20454744Y19147026D01*
X19276056Y17968338D01*
X19230180Y17946946D01*
X19181285Y17960047D01*
X19152251Y18001511D01*
X19150756Y18032941D01*
X19154644Y18056047D01*
X19174496Y18174046D01*
X19174647Y18186400D01*
X19166214Y18245284D01*
X19155070Y18323103D01*
X19155070Y18323104D01*
X19154323Y18328318D01*
X19105948Y18434715D01*
X19097166Y18454029D01*
X19094984Y18458828D01*
X19022477Y18542976D01*
X19004840Y18563445D01*
X19004839Y18563446D01*
X19001400Y18567437D01*
X18996981Y18570301D01*
X18996979Y18570303D01*
X18957068Y18596172D01*
X18881095Y18645415D01*
X18772098Y18678012D01*
X18748792Y18684982D01*
X18748791Y18684982D01*
X18743739Y18686493D01*
X18670103Y18686943D01*
X18605646Y18687337D01*
X18605645Y18687337D01*
X18600376Y18687369D01*
X18462529Y18647972D01*
X18341280Y18571470D01*
X18327290Y18555629D01*
X18262459Y18482221D01*
X18246377Y18464012D01*
X18185447Y18334237D01*
X18184637Y18329032D01*
X18184636Y18329030D01*
X18177802Y18285138D01*
X18163391Y18192577D01*
X18164074Y18187354D01*
X18164074Y18187351D01*
X18168599Y18152752D01*
X18181980Y18050421D01*
X18239720Y17919197D01*
X18256735Y17898955D01*
X18328580Y17813484D01*
X18328583Y17813481D01*
X18331970Y17809452D01*
X18336357Y17806532D01*
X18447272Y17732700D01*
X18477274Y17691931D01*
X18474052Y17641415D01*
X18439112Y17604789D01*
X18406267Y17597100D01*
X11910634Y17597100D01*
X11863068Y17614413D01*
X11858308Y17618774D01*
X11759279Y17717803D01*
X11737887Y17763679D01*
X11750988Y17812574D01*
X11772885Y17833190D01*
X11875494Y17896193D01*
X11875498Y17896196D01*
X11879991Y17898955D01*
X11976200Y18005246D01*
X12038710Y18134267D01*
X12062496Y18275646D01*
X12062647Y18288000D01*
X12059419Y18310538D01*
X12043070Y18424703D01*
X12043070Y18424704D01*
X12042323Y18429918D01*
X12033146Y18450103D01*
X11985166Y18555629D01*
X11982984Y18560428D01*
X11978518Y18565612D01*
X11954914Y18593005D01*
X11941984Y18608011D01*
X11924049Y18655346D01*
X11940737Y18703135D01*
X11984239Y18729016D01*
X12007407Y18729330D01*
X12009557Y18728658D01*
X12014820Y18728562D01*
X12014823Y18728561D01*
X12082595Y18727319D01*
X12152899Y18726030D01*
X12157982Y18727416D01*
X12157984Y18727416D01*
X12286127Y18762352D01*
X12286129Y18762353D01*
X12291217Y18763740D01*
X12372300Y18813525D01*
X12408898Y18835996D01*
X12408899Y18835997D01*
X12413391Y18838755D01*
X12509600Y18945046D01*
X12572110Y19074067D01*
X12595896Y19215446D01*
X12596047Y19227800D01*
X12575723Y19369718D01*
X12573541Y19374518D01*
X12572186Y19379150D01*
X12575451Y19429664D01*
X12610422Y19466260D01*
X12660735Y19471816D01*
X12695537Y19452247D01*
X13649255Y18498529D01*
X13658456Y18487318D01*
X13669776Y18470376D01*
X13675837Y18466326D01*
X13691246Y18456030D01*
X13692777Y18455007D01*
X13692778Y18455006D01*
X13760905Y18409485D01*
X13768050Y18408064D01*
X13768052Y18408063D01*
X13861251Y18389525D01*
X13868400Y18388103D01*
X13888384Y18392078D01*
X13902820Y18393500D01*
X15535780Y18393500D01*
X15550216Y18392078D01*
X15570200Y18388103D01*
X15597332Y18393500D01*
X15597335Y18393500D01*
X15670548Y18408063D01*
X15670550Y18408064D01*
X15677695Y18409485D01*
X15738484Y18450103D01*
X15745361Y18454698D01*
X15745392Y18454719D01*
X15745822Y18455006D01*
X15747156Y18453008D01*
X15747158Y18453009D01*
X15745823Y18455007D01*
X15762763Y18466326D01*
X15768824Y18470376D01*
X15780144Y18487318D01*
X15789345Y18498529D01*
X17115352Y19824536D01*
X17161228Y19845928D01*
X17169033Y19846198D01*
X17309099Y19843630D01*
X17314182Y19845016D01*
X17314184Y19845016D01*
X17442327Y19879952D01*
X17442329Y19879953D01*
X17447417Y19881340D01*
X17463575Y19891261D01*
X17513169Y19901396D01*
X17557675Y19877281D01*
X17576268Y19830201D01*
X17569279Y19796749D01*
X17552687Y19761411D01*
X17552684Y19761402D01*
X17550447Y19756637D01*
X17549637Y19751432D01*
X17549636Y19751430D01*
X17541995Y19702355D01*
X17528391Y19614977D01*
X17529074Y19609754D01*
X17529074Y19609751D01*
X17531524Y19591016D01*
X17546980Y19472821D01*
X17604720Y19341597D01*
X17618808Y19324837D01*
X17693580Y19235884D01*
X17693583Y19235881D01*
X17696970Y19231852D01*
X17707357Y19224938D01*
X17811924Y19155331D01*
X17811927Y19155330D01*
X17816313Y19152410D01*
X17953157Y19109658D01*
X17958425Y19109561D01*
X17958428Y19109561D01*
X18018733Y19108456D01*
X18096499Y19107030D01*
X18101582Y19108416D01*
X18101584Y19108416D01*
X18229727Y19143352D01*
X18229729Y19143353D01*
X18234817Y19144740D01*
X18315084Y19194024D01*
X18352498Y19216996D01*
X18352499Y19216997D01*
X18356991Y19219755D01*
X18453200Y19326046D01*
X18515710Y19455067D01*
X18539496Y19596446D01*
X18539647Y19608800D01*
X18536119Y19633438D01*
X18520070Y19745503D01*
X18520070Y19745504D01*
X18519323Y19750718D01*
X18492633Y19809421D01*
X18462166Y19876429D01*
X18459984Y19881228D01*
X18403925Y19946288D01*
X18369840Y19985845D01*
X18369839Y19985846D01*
X18366400Y19989837D01*
X18361981Y19992701D01*
X18361979Y19992703D01*
X18322068Y20018572D01*
X18246095Y20067815D01*
X18142168Y20098896D01*
X18113792Y20107382D01*
X18113791Y20107382D01*
X18108739Y20108893D01*
X18035103Y20109343D01*
X17970646Y20109737D01*
X17970645Y20109737D01*
X17965376Y20109769D01*
X17827529Y20070372D01*
X17823071Y20067559D01*
X17818958Y20064964D01*
X17769491Y20054225D01*
X17724695Y20077795D01*
X17705529Y20124645D01*
X17712876Y20159812D01*
X17728310Y20191667D01*
X17752096Y20333046D01*
X17752247Y20345400D01*
X17731923Y20487318D01*
X17672584Y20617828D01*
X17672170Y20618309D01*
X17661549Y20665834D01*
X17684845Y20710773D01*
X17734932Y20730300D01*
X19874022Y20730300D01*
X19888458Y20728878D01*
X19908442Y20724903D01*
X19935574Y20730300D01*
X19935577Y20730300D01*
X20008790Y20744863D01*
X20008792Y20744864D01*
X20015937Y20746285D01*
X20074343Y20785311D01*
X20084064Y20791806D01*
X20084065Y20791807D01*
X20107066Y20807176D01*
X20118386Y20824118D01*
X20127587Y20835329D01*
X20504653Y21212395D01*
X20550529Y21233787D01*
X20579045Y21230702D01*
X20620157Y21217858D01*
X20625425Y21217761D01*
X20625428Y21217761D01*
X20685733Y21216656D01*
X20763499Y21215230D01*
X20768582Y21216616D01*
X20768584Y21216616D01*
X20896727Y21251552D01*
X20896729Y21251553D01*
X20901817Y21252940D01*
X20976203Y21298613D01*
X21019498Y21325196D01*
X21019499Y21325197D01*
X21023991Y21327955D01*
X21120200Y21434246D01*
X21182710Y21563267D01*
X21206496Y21704646D01*
X21206647Y21717000D01*
X21186323Y21858918D01*
X21126984Y21989428D01*
X21125452Y21991206D01*
X21114674Y22039421D01*
X21137968Y22084361D01*
X21149338Y22092953D01*
X21222698Y22137996D01*
X21222699Y22137997D01*
X21227191Y22140755D01*
X21323400Y22247046D01*
X21385910Y22376067D01*
X21409696Y22517446D01*
X21409847Y22529800D01*
X21389523Y22671718D01*
X21363741Y22728424D01*
X21332366Y22797429D01*
X21330184Y22802228D01*
X21256088Y22888220D01*
X21240040Y22906845D01*
X21240039Y22906846D01*
X21236600Y22910837D01*
X21232181Y22913701D01*
X21232179Y22913703D01*
X21184359Y22944698D01*
X21116295Y22988815D01*
X21012368Y23019896D01*
X20983992Y23028382D01*
X20983991Y23028382D01*
X20978939Y23029893D01*
X20905303Y23030343D01*
X20840846Y23030737D01*
X20840845Y23030737D01*
X20835576Y23030769D01*
X20697729Y22991372D01*
X20576480Y22914870D01*
X20557136Y22892967D01*
X20501804Y22830315D01*
X20457340Y22806122D01*
X20446338Y22805300D01*
X20176620Y22805300D01*
X20162184Y22806722D01*
X20149349Y22809275D01*
X20142200Y22810697D01*
X20115068Y22805300D01*
X20115065Y22805300D01*
X20041852Y22790737D01*
X20041850Y22790736D01*
X20034705Y22789315D01*
X19996738Y22763946D01*
X19966578Y22743794D01*
X19966577Y22743793D01*
X19943576Y22728424D01*
X19939527Y22722364D01*
X19932258Y22711485D01*
X19923055Y22700271D01*
X19211558Y21988774D01*
X19165682Y21967382D01*
X19159232Y21967100D01*
X11290328Y21967100D01*
X11242762Y21984413D01*
X11226457Y22005877D01*
X11226006Y22005588D01*
X11223166Y22010028D01*
X11220984Y22014828D01*
X11127400Y22123437D01*
X11122981Y22126301D01*
X11122979Y22126303D01*
X11083068Y22152172D01*
X11007095Y22201415D01*
X10888150Y22236987D01*
X10874792Y22240982D01*
X10874791Y22240982D01*
X10869739Y22242493D01*
X10796103Y22242943D01*
X10731646Y22243337D01*
X10731645Y22243337D01*
X10726376Y22243369D01*
X10588529Y22203972D01*
X10467280Y22127470D01*
X10372377Y22020012D01*
X10311447Y21890237D01*
X10310637Y21885032D01*
X10310636Y21885030D01*
X10306571Y21858918D01*
X10289391Y21748577D01*
X10290074Y21743354D01*
X10290074Y21743351D01*
X10306001Y21621554D01*
X10307980Y21606421D01*
X10310105Y21601591D01*
X10310571Y21599923D01*
X10306688Y21549453D01*
X10271272Y21513287D01*
X10238845Y21506023D01*
X10196640Y21506281D01*
X10122046Y21506737D01*
X10122045Y21506737D01*
X10116776Y21506769D01*
X9978929Y21467372D01*
X9857680Y21390870D01*
X9762777Y21283412D01*
X9701847Y21153637D01*
X9701037Y21148432D01*
X9701036Y21148430D01*
X9696962Y21122265D01*
X9679791Y21011977D01*
X9680474Y21006754D01*
X9680474Y21006751D01*
X9682684Y20989855D01*
X9698380Y20869821D01*
X9734035Y20788790D01*
X9740409Y20774303D01*
X9743720Y20723793D01*
X9713788Y20682971D01*
X9672676Y20670500D01*
X9634258Y20670500D01*
X9586692Y20687813D01*
X9581932Y20692174D01*
X8144574Y22129532D01*
X8123182Y22175408D01*
X8122900Y22181858D01*
X8122900Y23144573D01*
X8140213Y23192139D01*
X8184050Y23217449D01*
X8218967Y23215206D01*
X8351957Y23173658D01*
X8357228Y23173561D01*
X8362434Y23172718D01*
X8361996Y23170017D01*
X8399818Y23155426D01*
X8424284Y23111113D01*
X8424295Y23088275D01*
X8418784Y23052877D01*
X8419467Y23047654D01*
X8419467Y23047651D01*
X8421987Y23028382D01*
X8437373Y22910721D01*
X8495113Y22779497D01*
X8498505Y22775462D01*
X8583973Y22673784D01*
X8583976Y22673781D01*
X8587363Y22669752D01*
X8591750Y22666832D01*
X8702317Y22593231D01*
X8702320Y22593230D01*
X8706706Y22590310D01*
X8843550Y22547558D01*
X8848818Y22547461D01*
X8848821Y22547461D01*
X8909126Y22546356D01*
X8986892Y22544930D01*
X8991975Y22546316D01*
X8991977Y22546316D01*
X9120120Y22581252D01*
X9120122Y22581253D01*
X9125210Y22582640D01*
X9247384Y22657655D01*
X9343593Y22763946D01*
X9406103Y22892967D01*
X9429889Y23034346D01*
X9430040Y23046700D01*
X9422463Y23099607D01*
X9410463Y23183403D01*
X9410463Y23183404D01*
X9409716Y23188618D01*
X9402161Y23205235D01*
X9397052Y23216472D01*
X9393125Y23266939D01*
X9422556Y23308122D01*
X9464416Y23321100D01*
X22588232Y23321100D01*
X22635798Y23303787D01*
X22640558Y23299426D01*
X23324826Y22615158D01*
X23346218Y22569282D01*
X23346500Y22562832D01*
X23346500Y19077026D01*
X23329187Y19029460D01*
X23311988Y19014443D01*
X23294280Y19003270D01*
X23261518Y18966174D01*
X23203893Y18900925D01*
X23199377Y18895812D01*
X23138447Y18766037D01*
X23137637Y18760832D01*
X23137636Y18760830D01*
X23129964Y18711552D01*
X23116391Y18624377D01*
X23117074Y18619154D01*
X23117074Y18619151D01*
X23121427Y18585866D01*
X23134980Y18482221D01*
X23192720Y18350997D01*
X23202800Y18339005D01*
X23281580Y18245284D01*
X23281583Y18245281D01*
X23284970Y18241252D01*
X23289357Y18238332D01*
X23399924Y18164731D01*
X23399927Y18164730D01*
X23404313Y18161810D01*
X23541157Y18119058D01*
X23546425Y18118961D01*
X23546428Y18118961D01*
X23606733Y18117856D01*
X23684499Y18116430D01*
X23689582Y18117816D01*
X23689584Y18117816D01*
X23817727Y18152752D01*
X23817729Y18152753D01*
X23822817Y18154140D01*
X23894247Y18197998D01*
X23940498Y18226396D01*
X23940499Y18226397D01*
X23944991Y18229155D01*
X24041200Y18335446D01*
X24103710Y18464467D01*
X24116726Y18541831D01*
X24141690Y18585866D01*
X24189119Y18603552D01*
X24236820Y18586613D01*
X24262473Y18542976D01*
X24263700Y18529554D01*
X24263700Y13298255D01*
X24246387Y13250689D01*
X24242026Y13245929D01*
X24187777Y13191680D01*
X24145111Y13170639D01*
X24111309Y13166189D01*
X24054243Y13158677D01*
X24054240Y13158676D01*
X24049438Y13158044D01*
X23903359Y13097536D01*
X23899515Y13094586D01*
X23899511Y13094584D01*
X23799430Y13017789D01*
X23777918Y13001282D01*
X23774963Y12997431D01*
X23684616Y12879689D01*
X23684614Y12879685D01*
X23681664Y12875841D01*
X23621156Y12729762D01*
X23620524Y12724960D01*
X23620523Y12724957D01*
X23619664Y12718428D01*
X23609860Y12643954D01*
X23608561Y12634090D01*
X23587520Y12591423D01*
X22974471Y11978374D01*
X22928595Y11956982D01*
X22922145Y11956700D01*
X21277846Y11956700D01*
X21232798Y11971992D01*
X21160089Y12027784D01*
X21160086Y12027786D01*
X21156241Y12030736D01*
X21010162Y12091244D01*
X21005360Y12091876D01*
X21005357Y12091877D01*
X20858208Y12111249D01*
X20853400Y12111882D01*
X20848592Y12111249D01*
X20701443Y12091877D01*
X20701440Y12091876D01*
X20696638Y12091244D01*
X20692159Y12089389D01*
X20692160Y12089389D01*
X20606718Y12053998D01*
X20556147Y12051790D01*
X20515988Y12082605D01*
X20504399Y12122365D01*
X20504399Y12826244D01*
X20521712Y12873810D01*
X20526073Y12878570D01*
X20593035Y12945532D01*
X20638911Y12966924D01*
X20687806Y12953823D01*
X20716840Y12912359D01*
X20718736Y12902801D01*
X20734897Y12779213D01*
X20792637Y12647989D01*
X20796029Y12643954D01*
X20881497Y12542276D01*
X20881500Y12542273D01*
X20884887Y12538244D01*
X20889274Y12535324D01*
X20999841Y12461723D01*
X20999844Y12461722D01*
X21004230Y12458802D01*
X21141074Y12416050D01*
X21146342Y12415953D01*
X21146345Y12415953D01*
X21206650Y12414848D01*
X21284416Y12413422D01*
X21289499Y12414808D01*
X21289501Y12414808D01*
X21417644Y12449744D01*
X21417646Y12449745D01*
X21422734Y12451132D01*
X21544908Y12526147D01*
X21641117Y12632438D01*
X21703627Y12761459D01*
X21727413Y12902838D01*
X21727564Y12915192D01*
X21722032Y12953823D01*
X21707987Y13051895D01*
X21707987Y13051896D01*
X21707240Y13057110D01*
X21677516Y13122486D01*
X21650083Y13182821D01*
X21647901Y13187620D01*
X21554317Y13296229D01*
X21549898Y13299093D01*
X21549896Y13299095D01*
X21509985Y13324964D01*
X21434012Y13374207D01*
X21296656Y13415285D01*
X21297032Y13416542D01*
X21257807Y13437837D01*
X21239252Y13484933D01*
X21258364Y13536533D01*
X21348800Y13636446D01*
X21411310Y13765467D01*
X21435096Y13906846D01*
X21435247Y13919200D01*
X21414923Y14061118D01*
X21355584Y14191628D01*
X21262000Y14300237D01*
X21257581Y14303101D01*
X21257579Y14303103D01*
X21217668Y14328972D01*
X21141695Y14378215D01*
X21066633Y14400663D01*
X21009393Y14417782D01*
X21009390Y14417782D01*
X21004339Y14419293D01*
X20955089Y14419594D01*
X20907629Y14437197D01*
X20903215Y14441267D01*
X20168066Y15176416D01*
X20158225Y15188602D01*
X20154345Y15194611D01*
X20154343Y15194613D01*
X20151025Y15199752D01*
X20124714Y15220494D01*
X20118201Y15226281D01*
X20115454Y15229028D01*
X20112976Y15230799D01*
X20112971Y15230803D01*
X20100120Y15239986D01*
X20097357Y15242060D01*
X20059389Y15271992D01*
X20053620Y15274018D01*
X20052583Y15274588D01*
X20051880Y15275030D01*
X20051340Y15275311D01*
X20050583Y15275628D01*
X20049507Y15276155D01*
X20044531Y15279711D01*
X19998223Y15293560D01*
X19994907Y15294637D01*
X19987574Y15297212D01*
X19949294Y15310655D01*
X19944156Y15311100D01*
X19942819Y15311100D01*
X19938288Y15311484D01*
X19932736Y15313144D01*
X19926626Y15312904D01*
X19926625Y15312904D01*
X19882163Y15311157D01*
X19879258Y15311100D01*
X18604431Y15311100D01*
X18556865Y15328413D01*
X18548373Y15336794D01*
X18544200Y15341637D01*
X18533640Y15348482D01*
X18517121Y15359189D01*
X18423895Y15419615D01*
X18319968Y15450696D01*
X18291592Y15459182D01*
X18291591Y15459182D01*
X18286539Y15460693D01*
X18212903Y15461143D01*
X18148446Y15461537D01*
X18148445Y15461537D01*
X18143176Y15461569D01*
X18005329Y15422172D01*
X17884080Y15345670D01*
X17789177Y15238212D01*
X17728247Y15108437D01*
X17706191Y14966777D01*
X17724780Y14824621D01*
X17782520Y14693397D01*
X17785912Y14689362D01*
X17871380Y14587684D01*
X17871383Y14587681D01*
X17874770Y14583652D01*
X17879157Y14580732D01*
X17989724Y14507131D01*
X17989727Y14507130D01*
X17994113Y14504210D01*
X18130957Y14461458D01*
X18136225Y14461361D01*
X18136228Y14461361D01*
X18196533Y14460256D01*
X18274299Y14458830D01*
X18279382Y14460216D01*
X18279384Y14460216D01*
X18407527Y14495152D01*
X18407529Y14495153D01*
X18412617Y14496540D01*
X18534791Y14571555D01*
X18547649Y14585761D01*
X18592405Y14609407D01*
X18602511Y14610100D01*
X19712366Y14610100D01*
X19759932Y14592787D01*
X19764692Y14588426D01*
X20310882Y14042236D01*
X20332274Y13996360D01*
X20319173Y13947465D01*
X20310882Y13937584D01*
X19757373Y13384076D01*
X19750860Y13378289D01*
X19726133Y13358796D01*
X19726131Y13358794D01*
X19721789Y13355371D01*
X19718645Y13350822D01*
X19718644Y13350821D01*
X19687973Y13306443D01*
X19686621Y13304551D01*
X19654551Y13261133D01*
X19654549Y13261129D01*
X19651265Y13256683D01*
X19649487Y13251617D01*
X19649302Y13251314D01*
X19649175Y13251054D01*
X19648125Y13248993D01*
X19647963Y13248688D01*
X19647819Y13248344D01*
X19644768Y13243930D01*
X19632005Y13203575D01*
X19626836Y13187231D01*
X19626101Y13185028D01*
X19615974Y13156189D01*
X19606380Y13128868D01*
X19606170Y13123505D01*
X19605912Y13122486D01*
X19605193Y13118796D01*
X19603919Y13114769D01*
X19603399Y13108162D01*
X19603399Y13054460D01*
X19603342Y13051555D01*
X19601061Y12993505D01*
X19602477Y12988163D01*
X19602952Y12983863D01*
X19603399Y12975745D01*
X19603399Y11469467D01*
X19586086Y11421901D01*
X19542249Y11396591D01*
X19508198Y11398569D01*
X19429539Y11422093D01*
X19355903Y11422543D01*
X19291446Y11422937D01*
X19291445Y11422937D01*
X19286176Y11422969D01*
X19148329Y11383572D01*
X19027080Y11307070D01*
X19013944Y11292196D01*
X18951372Y11221346D01*
X18932177Y11199612D01*
X18871247Y11069837D01*
X18870437Y11064632D01*
X18870436Y11064630D01*
X18863101Y11017520D01*
X18849191Y10928177D01*
X18867780Y10786021D01*
X18925520Y10654797D01*
X18938592Y10639246D01*
X19014380Y10549084D01*
X19014383Y10549081D01*
X19017770Y10545052D01*
X19022157Y10542132D01*
X19132724Y10468531D01*
X19132727Y10468530D01*
X19137113Y10465610D01*
X19273957Y10422858D01*
X19279225Y10422761D01*
X19279228Y10422761D01*
X19339533Y10421656D01*
X19417299Y10420230D01*
X19422382Y10421616D01*
X19422384Y10421616D01*
X19550527Y10456552D01*
X19550529Y10456553D01*
X19555617Y10457940D01*
X19616704Y10495448D01*
X19673298Y10530196D01*
X19673299Y10530197D01*
X19677791Y10532955D01*
X19738898Y10600466D01*
X19770461Y10635336D01*
X19770461Y10635337D01*
X19774000Y10639246D01*
X19775481Y10642303D01*
X19815804Y10671599D01*
X19866300Y10668068D01*
X19902712Y10632905D01*
X19910201Y10600466D01*
X19910201Y9182447D01*
X19892888Y9134881D01*
X19875688Y9119863D01*
X19839880Y9097270D01*
X19836392Y9093320D01*
X19832374Y9089901D01*
X19830784Y9091769D01*
X19794468Y9072019D01*
X19783481Y9071199D01*
X18507050Y9071199D01*
X18498353Y9071712D01*
X18486707Y9073090D01*
X18461589Y9076063D01*
X18456147Y9075069D01*
X18456144Y9075069D01*
X18403099Y9065381D01*
X18400806Y9064999D01*
X18347403Y9056970D01*
X18347402Y9056970D01*
X18341937Y9056148D01*
X18337101Y9053825D01*
X18336763Y9053743D01*
X18336499Y9053652D01*
X18334262Y9052926D01*
X18333953Y9052831D01*
X18333603Y9052687D01*
X18328326Y9051724D01*
X18323417Y9049174D01*
X18275565Y9024317D01*
X18273486Y9023278D01*
X18224807Y8999903D01*
X18224806Y8999902D01*
X18219820Y8997508D01*
X18215876Y8993862D01*
X18214968Y8993320D01*
X18211857Y8991224D01*
X18208111Y8989278D01*
X18203071Y8984974D01*
X18165101Y8947004D01*
X18163006Y8944990D01*
X18149954Y8932925D01*
X18120343Y8905553D01*
X18117565Y8900771D01*
X18114868Y8897404D01*
X18109442Y8891345D01*
X16238874Y7020777D01*
X16232361Y7014990D01*
X16207634Y6995497D01*
X16207632Y6995495D01*
X16203290Y6992072D01*
X16200146Y6987523D01*
X16200145Y6987522D01*
X16169474Y6943144D01*
X16168122Y6941252D01*
X16136052Y6897834D01*
X16136050Y6897830D01*
X16132766Y6893384D01*
X16130988Y6888318D01*
X16130803Y6888015D01*
X16130676Y6887755D01*
X16129626Y6885694D01*
X16129464Y6885389D01*
X16129320Y6885045D01*
X16126269Y6880631D01*
X16121520Y6865616D01*
X16108337Y6823932D01*
X16107602Y6821729D01*
X16089715Y6770792D01*
X16087881Y6765569D01*
X16087671Y6760206D01*
X16087413Y6759187D01*
X16086694Y6755497D01*
X16085420Y6751470D01*
X16084900Y6744863D01*
X16084900Y6691161D01*
X16084843Y6688256D01*
X16082562Y6630206D01*
X16083978Y6624864D01*
X16084453Y6620564D01*
X16084900Y6612446D01*
X16084900Y5096500D01*
X16067587Y5048934D01*
X16023750Y5023624D01*
X16010900Y5022500D01*
X14418211Y5022500D01*
X14388280Y5029081D01*
X14385295Y5031015D01*
X14286053Y5060694D01*
X14252992Y5070582D01*
X14252991Y5070582D01*
X14247939Y5072093D01*
X14174303Y5072543D01*
X14109846Y5072937D01*
X14109845Y5072937D01*
X14104576Y5072969D01*
X13966729Y5033572D01*
X13845480Y4957070D01*
X13750577Y4849612D01*
X13713783Y4771245D01*
X13700206Y4742327D01*
X13685548Y4721451D01*
X12484271Y3520174D01*
X12438395Y3498782D01*
X12431945Y3498500D01*
X7397151Y3498500D01*
X7388454Y3499013D01*
X7369890Y3501210D01*
X7351690Y3503364D01*
X7346253Y3502371D01*
X7346251Y3502371D01*
X7293191Y3492681D01*
X7290900Y3492300D01*
X7237509Y3484272D01*
X7237506Y3484271D01*
X7232038Y3483449D01*
X7227199Y3481126D01*
X7226842Y3481038D01*
X7226560Y3480942D01*
X7224350Y3480224D01*
X7224057Y3480134D01*
X7223706Y3479990D01*
X7218427Y3479026D01*
X7165582Y3451576D01*
X7163620Y3450595D01*
X7109921Y3424809D01*
X7105980Y3421166D01*
X7105068Y3420621D01*
X7101958Y3418526D01*
X7098212Y3416580D01*
X7093172Y3412276D01*
X7055190Y3374294D01*
X7053095Y3372280D01*
X7010444Y3332854D01*
X7007665Y3328070D01*
X7004972Y3324708D01*
X6999546Y3318650D01*
X6544604Y2863707D01*
X6498728Y2842315D01*
X6449833Y2855416D01*
X6439952Y2863707D01*
X5298174Y4005485D01*
X5276782Y4051361D01*
X5276500Y4057811D01*
X5276500Y4296345D01*
X5293813Y4343911D01*
X5337650Y4369221D01*
X5387500Y4360431D01*
X5402826Y4348671D01*
X5508646Y4242851D01*
X5524053Y4220328D01*
X5565120Y4126997D01*
X5568512Y4122962D01*
X5653980Y4021284D01*
X5653983Y4021281D01*
X5657370Y4017252D01*
X5661757Y4014332D01*
X5772324Y3940731D01*
X5772327Y3940730D01*
X5776713Y3937810D01*
X5913557Y3895058D01*
X5918825Y3894961D01*
X5918828Y3894961D01*
X5979133Y3893856D01*
X6056899Y3892430D01*
X6061982Y3893816D01*
X6061984Y3893816D01*
X6190127Y3928752D01*
X6190129Y3928753D01*
X6195217Y3930140D01*
X6317391Y4005155D01*
X6413600Y4111446D01*
X6476110Y4240467D01*
X6499896Y4381846D01*
X6500047Y4394200D01*
X6479723Y4536118D01*
X6420384Y4666628D01*
X6333677Y4767256D01*
X6330240Y4771245D01*
X6330239Y4771246D01*
X6326800Y4775237D01*
X6322381Y4778101D01*
X6322379Y4778103D01*
X6264052Y4815908D01*
X6206495Y4853215D01*
X6201450Y4854724D01*
X6201443Y4854727D01*
X6175885Y4862370D01*
X6144762Y4880941D01*
X6060174Y4965529D01*
X6038782Y5011405D01*
X6038500Y5017855D01*
X6038500Y5049776D01*
X10274000Y5049776D01*
X10274202Y5045910D01*
X10288412Y4910707D01*
X10290017Y4903158D01*
X10346083Y4730607D01*
X10349219Y4723564D01*
X10439936Y4566437D01*
X10444466Y4560201D01*
X10565873Y4425366D01*
X10571604Y4420206D01*
X10718377Y4313568D01*
X10725072Y4309703D01*
X10890807Y4235914D01*
X10898147Y4233529D01*
X10911237Y4230746D01*
X10921770Y4232226D01*
X10923887Y4234578D01*
X10924000Y4235158D01*
X10924000Y4241081D01*
X11424000Y4241081D01*
X11427638Y4231085D01*
X11430377Y4229504D01*
X11430970Y4229515D01*
X11449853Y4233529D01*
X11457193Y4235914D01*
X11622927Y4309703D01*
X11629622Y4313568D01*
X11776396Y4420206D01*
X11782127Y4425366D01*
X11903534Y4560201D01*
X11908064Y4566437D01*
X11998781Y4723564D01*
X12001917Y4730607D01*
X12035108Y4832758D01*
X12066272Y4872646D01*
X12115785Y4883170D01*
X12160479Y4859405D01*
X12164191Y4854941D01*
X12229209Y4770209D01*
X12233056Y4767257D01*
X12233057Y4767256D01*
X12280820Y4730606D01*
X12338982Y4685976D01*
X12343461Y4684121D01*
X12343464Y4684119D01*
X12462336Y4634882D01*
X12466817Y4633026D01*
X12604000Y4614965D01*
X12741183Y4633026D01*
X12745664Y4634882D01*
X12864536Y4684119D01*
X12864539Y4684121D01*
X12869018Y4685976D01*
X12927180Y4730606D01*
X12974943Y4767256D01*
X12974944Y4767257D01*
X12978791Y4770209D01*
X13063024Y4879983D01*
X13105048Y4981440D01*
X13114118Y5003336D01*
X13115974Y5007817D01*
X13134035Y5145000D01*
X13115974Y5282183D01*
X13063024Y5410017D01*
X12978791Y5519791D01*
X12950800Y5541270D01*
X12872865Y5601072D01*
X12869018Y5604024D01*
X12864539Y5605879D01*
X12864536Y5605881D01*
X12745664Y5655118D01*
X12741183Y5656974D01*
X12604000Y5675035D01*
X12466817Y5656974D01*
X12338983Y5604024D01*
X12229209Y5519791D01*
X12151966Y5419126D01*
X12109275Y5391930D01*
X12080593Y5396344D01*
X12080402Y5394157D01*
X12070764Y5395000D01*
X11437048Y5395000D01*
X11427052Y5391362D01*
X11424000Y5386075D01*
X11424000Y4241081D01*
X10924000Y4241081D01*
X10924000Y5381952D01*
X10920362Y5391948D01*
X10915075Y5395000D01*
X10287048Y5395000D01*
X10277052Y5391362D01*
X10274000Y5386075D01*
X10274000Y5049776D01*
X6038500Y5049776D01*
X6038500Y5908048D01*
X10274000Y5908048D01*
X10277638Y5898052D01*
X10282925Y5895000D01*
X10910952Y5895000D01*
X10920948Y5898638D01*
X10924000Y5903925D01*
X10924000Y5908048D01*
X11424000Y5908048D01*
X11427638Y5898052D01*
X11432925Y5895000D01*
X12060952Y5895000D01*
X12070948Y5898638D01*
X12074000Y5903925D01*
X12074000Y6240224D01*
X12073798Y6244090D01*
X12059588Y6379293D01*
X12057983Y6386842D01*
X12001917Y6559393D01*
X11998781Y6566436D01*
X11908064Y6723563D01*
X11903534Y6729799D01*
X11782127Y6864634D01*
X11776396Y6869794D01*
X11629623Y6976432D01*
X11622928Y6980297D01*
X11457193Y7054086D01*
X11449853Y7056471D01*
X11436763Y7059254D01*
X11426230Y7057774D01*
X11424113Y7055422D01*
X11424000Y7054842D01*
X11424000Y5908048D01*
X10924000Y5908048D01*
X10924000Y7048919D01*
X10920362Y7058915D01*
X10917623Y7060496D01*
X10917030Y7060485D01*
X10898147Y7056471D01*
X10890807Y7054086D01*
X10725073Y6980297D01*
X10718378Y6976432D01*
X10571604Y6869794D01*
X10565873Y6864634D01*
X10444466Y6729799D01*
X10439936Y6723563D01*
X10349219Y6566436D01*
X10346083Y6559393D01*
X10290017Y6386842D01*
X10288412Y6379293D01*
X10274202Y6244090D01*
X10274000Y6240224D01*
X10274000Y5908048D01*
X6038500Y5908048D01*
X6038500Y6894745D01*
X6055813Y6942311D01*
X6060174Y6947071D01*
X7286135Y8173032D01*
X7318997Y8192100D01*
X7333127Y8195952D01*
X7333129Y8195953D01*
X7338217Y8197340D01*
X7460391Y8272355D01*
X7556600Y8378646D01*
X7585830Y8438977D01*
X9959191Y8438977D01*
X9959874Y8433754D01*
X9959874Y8433751D01*
X9960373Y8429938D01*
X9977780Y8296821D01*
X10010898Y8221555D01*
X10032249Y8173032D01*
X10035520Y8165597D01*
X10051539Y8146540D01*
X10124380Y8059884D01*
X10124383Y8059881D01*
X10127770Y8055852D01*
X10132157Y8052932D01*
X10242724Y7979331D01*
X10242727Y7979330D01*
X10247113Y7976410D01*
X10383957Y7933658D01*
X10389225Y7933561D01*
X10389228Y7933561D01*
X10449533Y7932456D01*
X10527299Y7931030D01*
X10532382Y7932416D01*
X10532384Y7932416D01*
X10660527Y7967352D01*
X10660529Y7967353D01*
X10665617Y7968740D01*
X10787791Y8043755D01*
X10884000Y8150046D01*
X10946510Y8279067D01*
X10970296Y8420446D01*
X10970447Y8432800D01*
X10950123Y8574718D01*
X10909426Y8664228D01*
X10892966Y8700429D01*
X10890784Y8705228D01*
X10834725Y8770288D01*
X10800640Y8809845D01*
X10800639Y8809846D01*
X10797200Y8813837D01*
X10792781Y8816701D01*
X10792779Y8816703D01*
X10752868Y8842572D01*
X10676895Y8891815D01*
X10572968Y8922896D01*
X10544592Y8931382D01*
X10544591Y8931382D01*
X10539539Y8932893D01*
X10465903Y8933343D01*
X10401446Y8933737D01*
X10401445Y8933737D01*
X10396176Y8933769D01*
X10258329Y8894372D01*
X10137080Y8817870D01*
X10042177Y8710412D01*
X9981247Y8580637D01*
X9959191Y8438977D01*
X7585830Y8438977D01*
X7619110Y8507667D01*
X7642896Y8649046D01*
X7643047Y8661400D01*
X7622723Y8803318D01*
X7615136Y8820006D01*
X7565566Y8929029D01*
X7563384Y8933828D01*
X7469800Y9042437D01*
X7465381Y9045301D01*
X7465379Y9045303D01*
X7418926Y9075412D01*
X7349495Y9120415D01*
X7245568Y9151496D01*
X7217192Y9159982D01*
X7217191Y9159982D01*
X7212139Y9161493D01*
X7138503Y9161943D01*
X7074046Y9162337D01*
X7074045Y9162337D01*
X7068776Y9162369D01*
X6930929Y9122972D01*
X6926469Y9120158D01*
X6922332Y9117548D01*
X6809680Y9046470D01*
X6714777Y8939012D01*
X6693327Y8893325D01*
X6664406Y8831727D01*
X6649748Y8810851D01*
X5291474Y7452577D01*
X5284961Y7446790D01*
X5260234Y7427297D01*
X5260232Y7427295D01*
X5255890Y7423872D01*
X5252746Y7419323D01*
X5252745Y7419322D01*
X5222074Y7374944D01*
X5220722Y7373052D01*
X5188652Y7329634D01*
X5188650Y7329630D01*
X5185366Y7325184D01*
X5183588Y7320118D01*
X5183403Y7319815D01*
X5183276Y7319555D01*
X5182226Y7317494D01*
X5182064Y7317189D01*
X5181920Y7316845D01*
X5178869Y7312431D01*
X5177200Y7307153D01*
X5160937Y7255732D01*
X5160202Y7253529D01*
X5144046Y7207520D01*
X5140481Y7197369D01*
X5140271Y7192006D01*
X5140013Y7190987D01*
X5139294Y7187297D01*
X5138020Y7183270D01*
X5137500Y7176663D01*
X5137500Y7122961D01*
X5137443Y7120056D01*
X5135162Y7062006D01*
X5136578Y7056664D01*
X5137053Y7052364D01*
X5137500Y7044246D01*
X5137500Y5684171D01*
X5120187Y5636605D01*
X5076350Y5611295D01*
X5038396Y5616222D01*
X5038095Y5615215D01*
X4905792Y5654782D01*
X4905791Y5654782D01*
X4900739Y5656293D01*
X4827103Y5656743D01*
X4762646Y5657137D01*
X4762645Y5657137D01*
X4757376Y5657169D01*
X4619529Y5617772D01*
X4615069Y5614958D01*
X4600683Y5605881D01*
X4498280Y5541270D01*
X4403377Y5433812D01*
X4342447Y5304037D01*
X4320391Y5162377D01*
X4321074Y5157154D01*
X4321074Y5157151D01*
X4322663Y5145000D01*
X4338980Y5020221D01*
X4363045Y4965529D01*
X4369233Y4951466D01*
X4375500Y4921663D01*
X4375500Y3871707D01*
X4374987Y3863010D01*
X4370636Y3826246D01*
X4371630Y3820804D01*
X4371630Y3820801D01*
X4381318Y3767756D01*
X4381700Y3765463D01*
X4390551Y3706594D01*
X4392874Y3701758D01*
X4392956Y3701420D01*
X4393047Y3701156D01*
X4393773Y3698919D01*
X4393868Y3698610D01*
X4394012Y3698260D01*
X4394975Y3692983D01*
X4397525Y3688074D01*
X4422382Y3640222D01*
X4423417Y3638151D01*
X4449191Y3584477D01*
X4452837Y3580533D01*
X4453379Y3579625D01*
X4455475Y3576514D01*
X4457421Y3572768D01*
X4461725Y3567728D01*
X4499695Y3529758D01*
X4501709Y3527663D01*
X4541146Y3485000D01*
X4545928Y3482222D01*
X4549295Y3479525D01*
X4555354Y3474099D01*
X6006524Y2022929D01*
X6021931Y2000406D01*
X6054360Y1926707D01*
X6062998Y1907075D01*
X6066390Y1903040D01*
X6151858Y1801362D01*
X6151861Y1801359D01*
X6155248Y1797330D01*
X6184831Y1777638D01*
X6270202Y1720809D01*
X6270205Y1720808D01*
X6274591Y1717888D01*
X6411435Y1675136D01*
X6416703Y1675039D01*
X6416706Y1675039D01*
X6477011Y1673934D01*
X6554777Y1672508D01*
X6559860Y1673894D01*
X6559862Y1673894D01*
X6688005Y1708830D01*
X6688007Y1708831D01*
X6693095Y1710218D01*
X6754182Y1747725D01*
X6810776Y1782474D01*
X6810777Y1782475D01*
X6815269Y1785233D01*
X6911478Y1891524D01*
X6966985Y2006089D01*
X6981253Y2026149D01*
X7530930Y2575826D01*
X7576806Y2597218D01*
X7583256Y2597500D01*
X10560920Y2597500D01*
X10608486Y2580187D01*
X10633796Y2536350D01*
X10625006Y2486500D01*
X10604416Y2463633D01*
X10571603Y2439793D01*
X10565873Y2434634D01*
X10444466Y2299799D01*
X10439936Y2293563D01*
X10349219Y2136436D01*
X10346083Y2129393D01*
X10290017Y1956842D01*
X10288412Y1949293D01*
X10274202Y1814090D01*
X10274000Y1810224D01*
X10274000Y1728048D01*
X10277638Y1718052D01*
X10282925Y1715000D01*
X12060952Y1715000D01*
X12070948Y1718638D01*
X12074000Y1723925D01*
X12074000Y1728048D01*
X18914000Y1728048D01*
X18917638Y1718052D01*
X18922925Y1715000D01*
X19550952Y1715000D01*
X19560948Y1718638D01*
X19564000Y1723925D01*
X19564000Y1728048D01*
X20064000Y1728048D01*
X20067638Y1718052D01*
X20072925Y1715000D01*
X20700952Y1715000D01*
X20710948Y1718638D01*
X20714000Y1723925D01*
X20714000Y1810224D01*
X20713798Y1814090D01*
X20699588Y1949293D01*
X20697983Y1956842D01*
X20641917Y2129393D01*
X20638781Y2136436D01*
X20548064Y2293563D01*
X20543534Y2299799D01*
X20422127Y2434634D01*
X20416396Y2439794D01*
X20269623Y2546432D01*
X20262928Y2550297D01*
X20097193Y2624086D01*
X20089853Y2626471D01*
X20076763Y2629254D01*
X20066230Y2627774D01*
X20064113Y2625422D01*
X20064000Y2624842D01*
X20064000Y1728048D01*
X19564000Y1728048D01*
X19564000Y2618919D01*
X19560362Y2628915D01*
X19557623Y2630496D01*
X19557030Y2630485D01*
X19538147Y2626471D01*
X19530807Y2624086D01*
X19365073Y2550297D01*
X19358378Y2546432D01*
X19211604Y2439794D01*
X19205873Y2434634D01*
X19084466Y2299799D01*
X19079936Y2293563D01*
X18989219Y2136436D01*
X18986083Y2129393D01*
X18930017Y1956842D01*
X18928412Y1949293D01*
X18914202Y1814090D01*
X18914000Y1810224D01*
X18914000Y1728048D01*
X12074000Y1728048D01*
X12074000Y1810224D01*
X12073798Y1814090D01*
X12059588Y1949293D01*
X12057983Y1956842D01*
X12001917Y2129393D01*
X11998781Y2136436D01*
X11908064Y2293563D01*
X11903534Y2299799D01*
X11782127Y2434634D01*
X11776400Y2439790D01*
X11743584Y2463633D01*
X11715279Y2505598D01*
X11720571Y2555940D01*
X11756983Y2591103D01*
X11787081Y2597500D01*
X12618049Y2597500D01*
X12626746Y2596987D01*
X12638392Y2595609D01*
X12663510Y2592636D01*
X12668952Y2593630D01*
X12668955Y2593630D01*
X12722000Y2603318D01*
X12724293Y2603700D01*
X12777696Y2611729D01*
X12777697Y2611729D01*
X12783162Y2612551D01*
X12787998Y2614874D01*
X12788336Y2614956D01*
X12788600Y2615047D01*
X12790837Y2615773D01*
X12791146Y2615868D01*
X12791496Y2616012D01*
X12796773Y2616975D01*
X12849542Y2644386D01*
X12851613Y2645421D01*
X12900292Y2668796D01*
X12900293Y2668797D01*
X12905279Y2671191D01*
X12909223Y2674837D01*
X12910131Y2675379D01*
X12913242Y2677475D01*
X12916988Y2679421D01*
X12922028Y2683725D01*
X12959998Y2721695D01*
X12962093Y2723709D01*
X13000696Y2759393D01*
X13004756Y2763146D01*
X13007534Y2767928D01*
X13010231Y2771295D01*
X13015657Y2777354D01*
X14321935Y4083632D01*
X14354797Y4102700D01*
X14368930Y4106553D01*
X14368931Y4106553D01*
X14374017Y4107940D01*
X14378509Y4110698D01*
X14383348Y4112792D01*
X14383657Y4112078D01*
X14417006Y4121500D01*
X16368872Y4121500D01*
X16390939Y4118133D01*
X16407270Y4113031D01*
X16454557Y4098258D01*
X16459825Y4098161D01*
X16459828Y4098161D01*
X16520133Y4097056D01*
X16597899Y4095630D01*
X16602982Y4097016D01*
X16602984Y4097016D01*
X16731127Y4131952D01*
X16731129Y4131953D01*
X16736217Y4133340D01*
X16858391Y4208355D01*
X16954600Y4314646D01*
X17017110Y4443667D01*
X17040896Y4585046D01*
X17041047Y4597400D01*
X17021971Y4730606D01*
X17021470Y4734103D01*
X17021470Y4734104D01*
X17020723Y4739318D01*
X17018542Y4744115D01*
X16992536Y4801313D01*
X16985900Y4831941D01*
X16985900Y5145000D01*
X17853965Y5145000D01*
X17872026Y5007817D01*
X17873882Y5003336D01*
X17882952Y4981440D01*
X17924976Y4879983D01*
X18009209Y4770209D01*
X18013056Y4767257D01*
X18013057Y4767256D01*
X18060820Y4730606D01*
X18118982Y4685976D01*
X18123461Y4684121D01*
X18123464Y4684119D01*
X18242336Y4634882D01*
X18246817Y4633026D01*
X18384000Y4614965D01*
X18521183Y4633026D01*
X18525664Y4634882D01*
X18644536Y4684119D01*
X18644539Y4684121D01*
X18649018Y4685976D01*
X18707180Y4730606D01*
X18754943Y4767256D01*
X18754944Y4767257D01*
X18758791Y4770209D01*
X18823806Y4854938D01*
X18866498Y4882136D01*
X18916683Y4875529D01*
X18950881Y4838208D01*
X18952892Y4832758D01*
X18986083Y4730607D01*
X18989219Y4723564D01*
X19079936Y4566437D01*
X19084466Y4560201D01*
X19205873Y4425366D01*
X19211604Y4420206D01*
X19358377Y4313568D01*
X19365072Y4309703D01*
X19530807Y4235914D01*
X19538147Y4233529D01*
X19551237Y4230746D01*
X19561770Y4232226D01*
X19563887Y4234578D01*
X19564000Y4235158D01*
X19564000Y4241081D01*
X20064000Y4241081D01*
X20067638Y4231085D01*
X20070377Y4229504D01*
X20070970Y4229515D01*
X20089853Y4233529D01*
X20097193Y4235914D01*
X20262927Y4309703D01*
X20269622Y4313568D01*
X20416396Y4420206D01*
X20422127Y4425366D01*
X20543534Y4560201D01*
X20548064Y4566437D01*
X20638781Y4723564D01*
X20641917Y4730607D01*
X20697983Y4903158D01*
X20699588Y4910707D01*
X20713798Y5045910D01*
X20714000Y5049776D01*
X20714000Y5381952D01*
X20710362Y5391948D01*
X20705075Y5395000D01*
X20077048Y5395000D01*
X20067052Y5391362D01*
X20064000Y5386075D01*
X20064000Y4241081D01*
X19564000Y4241081D01*
X19564000Y5381952D01*
X19560362Y5391948D01*
X19555075Y5395000D01*
X18927050Y5395000D01*
X18921363Y5392930D01*
X18870744Y5392929D01*
X18837344Y5417419D01*
X18758791Y5519791D01*
X18730800Y5541270D01*
X18652865Y5601072D01*
X18649018Y5604024D01*
X18644539Y5605879D01*
X18644536Y5605881D01*
X18525664Y5655118D01*
X18521183Y5656974D01*
X18384000Y5675035D01*
X18246817Y5656974D01*
X18118983Y5604024D01*
X18009209Y5519791D01*
X17924976Y5410017D01*
X17872026Y5282183D01*
X17853965Y5145000D01*
X16985900Y5145000D01*
X16985900Y5908048D01*
X18914000Y5908048D01*
X18917638Y5898052D01*
X18922925Y5895000D01*
X19550952Y5895000D01*
X19560948Y5898638D01*
X19564000Y5903925D01*
X19564000Y5908048D01*
X20064000Y5908048D01*
X20067638Y5898052D01*
X20072925Y5895000D01*
X20700952Y5895000D01*
X20710948Y5898638D01*
X20714000Y5903925D01*
X20714000Y6240224D01*
X20713798Y6244090D01*
X20699588Y6379293D01*
X20697983Y6386842D01*
X20641917Y6559393D01*
X20638781Y6566436D01*
X20548064Y6723563D01*
X20543534Y6729799D01*
X20536891Y6737177D01*
X23903791Y6737177D01*
X23904474Y6731954D01*
X23904474Y6731951D01*
X23910188Y6688255D01*
X23922380Y6595021D01*
X23980120Y6463797D01*
X23983512Y6459762D01*
X24068980Y6358084D01*
X24068983Y6358081D01*
X24072370Y6354052D01*
X24076757Y6351132D01*
X24187324Y6277531D01*
X24187327Y6277530D01*
X24191713Y6274610D01*
X24328557Y6231858D01*
X24333825Y6231761D01*
X24333828Y6231761D01*
X24394133Y6230656D01*
X24471899Y6229230D01*
X24476982Y6230616D01*
X24476984Y6230616D01*
X24605127Y6265552D01*
X24605129Y6265553D01*
X24610217Y6266940D01*
X24732391Y6341955D01*
X24828600Y6448246D01*
X24891110Y6577267D01*
X24914896Y6718646D01*
X24915047Y6731000D01*
X24895953Y6864327D01*
X24895470Y6867703D01*
X24895470Y6867704D01*
X24894723Y6872918D01*
X24847421Y6976955D01*
X24837566Y6998629D01*
X24835384Y7003428D01*
X24756685Y7094762D01*
X24745240Y7108045D01*
X24745239Y7108046D01*
X24741800Y7112037D01*
X24737381Y7114901D01*
X24737379Y7114903D01*
X24697468Y7140772D01*
X24621495Y7190015D01*
X24503854Y7225197D01*
X24489192Y7229582D01*
X24489191Y7229582D01*
X24484139Y7231093D01*
X24410503Y7231543D01*
X24346046Y7231937D01*
X24346045Y7231937D01*
X24340776Y7231969D01*
X24202929Y7192572D01*
X24081680Y7116070D01*
X24066425Y7098797D01*
X23992410Y7014990D01*
X23986777Y7008612D01*
X23925847Y6878837D01*
X23925037Y6873632D01*
X23925036Y6873630D01*
X23917298Y6823932D01*
X23903791Y6737177D01*
X20536891Y6737177D01*
X20422127Y6864634D01*
X20416396Y6869794D01*
X20269623Y6976432D01*
X20262928Y6980297D01*
X20097193Y7054086D01*
X20089853Y7056471D01*
X20076763Y7059254D01*
X20066230Y7057774D01*
X20064113Y7055422D01*
X20064000Y7054842D01*
X20064000Y5908048D01*
X19564000Y5908048D01*
X19564000Y7048919D01*
X19560362Y7058915D01*
X19557623Y7060496D01*
X19557030Y7060485D01*
X19538147Y7056471D01*
X19530807Y7054086D01*
X19365073Y6980297D01*
X19358378Y6976432D01*
X19211604Y6869794D01*
X19205873Y6864634D01*
X19084466Y6729799D01*
X19079936Y6723563D01*
X18989219Y6566436D01*
X18986083Y6559393D01*
X18930017Y6386842D01*
X18928412Y6379293D01*
X18914202Y6244090D01*
X18914000Y6240224D01*
X18914000Y5908048D01*
X16985900Y5908048D01*
X16985900Y6462945D01*
X17003213Y6510511D01*
X17007574Y6515271D01*
X17864480Y7372177D01*
X25402391Y7372177D01*
X25403074Y7366954D01*
X25403074Y7366951D01*
X25403573Y7363138D01*
X25420980Y7230021D01*
X25478720Y7098797D01*
X25482112Y7094762D01*
X25567580Y6993084D01*
X25567583Y6993081D01*
X25570970Y6989052D01*
X25589143Y6976955D01*
X25685924Y6912531D01*
X25685927Y6912530D01*
X25690313Y6909610D01*
X25827157Y6866858D01*
X25832425Y6866761D01*
X25832428Y6866761D01*
X25892733Y6865656D01*
X25970499Y6864230D01*
X25975582Y6865616D01*
X25975584Y6865616D01*
X26103727Y6900552D01*
X26103729Y6900553D01*
X26108817Y6901940D01*
X26230991Y6976955D01*
X26327200Y7083246D01*
X26389710Y7212267D01*
X26413496Y7353646D01*
X26413647Y7366000D01*
X26393323Y7507918D01*
X26333984Y7638428D01*
X26240400Y7747037D01*
X26235981Y7749901D01*
X26235979Y7749903D01*
X26196068Y7775772D01*
X26120095Y7825015D01*
X26016168Y7856096D01*
X25987792Y7864582D01*
X25987791Y7864582D01*
X25982739Y7866093D01*
X25909103Y7866543D01*
X25844646Y7866937D01*
X25844645Y7866937D01*
X25839376Y7866969D01*
X25701529Y7827572D01*
X25580280Y7751070D01*
X25485377Y7643612D01*
X25424447Y7513837D01*
X25402391Y7372177D01*
X17864480Y7372177D01*
X18640828Y8148525D01*
X18686704Y8169917D01*
X18693154Y8170199D01*
X20248140Y8170199D01*
X20251045Y8170142D01*
X20309095Y8167861D01*
X20309571Y8167987D01*
X20315539Y8168081D01*
X20319563Y8167764D01*
X20324956Y8166514D01*
X20332270Y8167032D01*
X20333564Y8166662D01*
X20335990Y8166471D01*
X20335951Y8165980D01*
X20380939Y8153118D01*
X20394137Y8140832D01*
X20462180Y8059884D01*
X20462183Y8059881D01*
X20465570Y8055852D01*
X20469957Y8052932D01*
X20580524Y7979331D01*
X20580527Y7979330D01*
X20584913Y7976410D01*
X20721757Y7933658D01*
X20727025Y7933561D01*
X20727028Y7933561D01*
X20787333Y7932456D01*
X20865099Y7931030D01*
X20870182Y7932416D01*
X20870184Y7932416D01*
X20998327Y7967352D01*
X20998329Y7967353D01*
X21003417Y7968740D01*
X21125591Y8043755D01*
X21221800Y8150046D01*
X21284310Y8279067D01*
X21308096Y8420446D01*
X21308247Y8432800D01*
X21287923Y8574718D01*
X21268800Y8616777D01*
X27637591Y8616777D01*
X27638274Y8611554D01*
X27638274Y8611551D01*
X27642998Y8575430D01*
X27656180Y8474621D01*
X27713920Y8343397D01*
X27717312Y8339362D01*
X27802780Y8237684D01*
X27802783Y8237681D01*
X27806170Y8233652D01*
X27810557Y8230732D01*
X27921124Y8157131D01*
X27921127Y8157130D01*
X27925513Y8154210D01*
X28062357Y8111458D01*
X28067625Y8111361D01*
X28067628Y8111361D01*
X28127933Y8110256D01*
X28205699Y8108830D01*
X28210782Y8110216D01*
X28210784Y8110216D01*
X28338927Y8145152D01*
X28338929Y8145153D01*
X28344017Y8146540D01*
X28418219Y8192100D01*
X28461698Y8218796D01*
X28461699Y8218797D01*
X28466191Y8221555D01*
X28562400Y8327846D01*
X28624910Y8456867D01*
X28648696Y8598246D01*
X28648847Y8610600D01*
X28628523Y8752518D01*
X28569184Y8883028D01*
X28481341Y8984974D01*
X28479040Y8987645D01*
X28479039Y8987646D01*
X28475600Y8991637D01*
X28471181Y8994501D01*
X28471179Y8994503D01*
X28397097Y9042520D01*
X28355295Y9069615D01*
X28251368Y9100696D01*
X28222992Y9109182D01*
X28222991Y9109182D01*
X28217939Y9110693D01*
X28144303Y9111143D01*
X28079846Y9111537D01*
X28079845Y9111537D01*
X28074576Y9111569D01*
X27936729Y9072172D01*
X27815480Y8995670D01*
X27781108Y8956751D01*
X27725093Y8893325D01*
X27720577Y8888212D01*
X27659647Y8758437D01*
X27658837Y8753232D01*
X27658836Y8753230D01*
X27650615Y8700429D01*
X27637591Y8616777D01*
X21268800Y8616777D01*
X21247226Y8664228D01*
X21230766Y8700429D01*
X21228584Y8705228D01*
X21172525Y8770288D01*
X21138440Y8809845D01*
X21138439Y8809846D01*
X21135000Y8813837D01*
X21130581Y8816701D01*
X21130579Y8816703D01*
X21090668Y8842572D01*
X21014695Y8891815D01*
X20910768Y8922896D01*
X20882392Y8931382D01*
X20882391Y8931382D01*
X20877339Y8932893D01*
X20873676Y8932915D01*
X20829778Y8956751D01*
X20811201Y9005784D01*
X20811201Y10830066D01*
X20828514Y10877632D01*
X20875542Y10903433D01*
X21005357Y10920523D01*
X21005360Y10920524D01*
X21010162Y10921156D01*
X21156241Y10981664D01*
X21160086Y10984614D01*
X21160089Y10984616D01*
X21232798Y11040408D01*
X21277846Y11055700D01*
X23108249Y11055700D01*
X23116946Y11055187D01*
X23128592Y11053809D01*
X23153710Y11050836D01*
X23159152Y11051830D01*
X23159155Y11051830D01*
X23212200Y11061518D01*
X23214493Y11061900D01*
X23267896Y11069929D01*
X23267897Y11069929D01*
X23273362Y11070751D01*
X23278198Y11073074D01*
X23278536Y11073156D01*
X23278800Y11073247D01*
X23281037Y11073973D01*
X23281346Y11074068D01*
X23281696Y11074212D01*
X23286973Y11075175D01*
X23339742Y11102586D01*
X23341813Y11103621D01*
X23354063Y11109503D01*
X23364923Y11114718D01*
X23390492Y11126996D01*
X23390493Y11126997D01*
X23395479Y11129391D01*
X23399423Y11133037D01*
X23400331Y11133579D01*
X23403442Y11135675D01*
X23407188Y11137621D01*
X23412228Y11141925D01*
X23450198Y11179895D01*
X23452293Y11181909D01*
X23452583Y11182177D01*
X25148391Y11182177D01*
X25149074Y11176954D01*
X25149074Y11176951D01*
X25155607Y11126996D01*
X25166980Y11040021D01*
X25224720Y10908797D01*
X25228112Y10904762D01*
X25313580Y10803084D01*
X25313583Y10803081D01*
X25316970Y10799052D01*
X25321357Y10796132D01*
X25431924Y10722531D01*
X25431927Y10722530D01*
X25436313Y10719610D01*
X25573157Y10676858D01*
X25578425Y10676761D01*
X25578428Y10676761D01*
X25638733Y10675656D01*
X25716499Y10674230D01*
X25721582Y10675616D01*
X25721584Y10675616D01*
X25849727Y10710552D01*
X25849729Y10710553D01*
X25854817Y10711940D01*
X25932351Y10759546D01*
X25972498Y10784196D01*
X25972499Y10784197D01*
X25976991Y10786955D01*
X26073200Y10893246D01*
X26114736Y10978977D01*
X28475791Y10978977D01*
X28476474Y10973754D01*
X28476474Y10973751D01*
X28476973Y10969938D01*
X28494380Y10836821D01*
X28552120Y10705597D01*
X28555512Y10701562D01*
X28640980Y10599884D01*
X28640983Y10599881D01*
X28644370Y10595852D01*
X28648757Y10592932D01*
X28759324Y10519331D01*
X28759327Y10519330D01*
X28763713Y10516410D01*
X28900557Y10473658D01*
X28905825Y10473561D01*
X28905828Y10473561D01*
X28966133Y10472456D01*
X29043899Y10471030D01*
X29048982Y10472416D01*
X29048984Y10472416D01*
X29177127Y10507352D01*
X29177129Y10507353D01*
X29182217Y10508740D01*
X29304391Y10583755D01*
X29400600Y10690046D01*
X29463110Y10819067D01*
X29486896Y10960446D01*
X29487047Y10972800D01*
X29473137Y11069929D01*
X29467470Y11109503D01*
X29467470Y11109504D01*
X29466723Y11114718D01*
X29458148Y11133579D01*
X29409566Y11240429D01*
X29407384Y11245228D01*
X29344750Y11317918D01*
X29317240Y11349845D01*
X29317239Y11349846D01*
X29313800Y11353837D01*
X29309381Y11356701D01*
X29309379Y11356703D01*
X29257106Y11390584D01*
X29193495Y11431815D01*
X29067595Y11469467D01*
X29061192Y11471382D01*
X29061191Y11471382D01*
X29056139Y11472893D01*
X28982503Y11473343D01*
X28918046Y11473737D01*
X28918045Y11473737D01*
X28912776Y11473769D01*
X28774929Y11434372D01*
X28653680Y11357870D01*
X28558777Y11250412D01*
X28497847Y11120637D01*
X28497037Y11115432D01*
X28497036Y11115430D01*
X28487657Y11055187D01*
X28475791Y10978977D01*
X26114736Y10978977D01*
X26135710Y11022267D01*
X26159496Y11163646D01*
X26159647Y11176000D01*
X26155700Y11203563D01*
X26140070Y11312703D01*
X26140070Y11312704D01*
X26139323Y11317918D01*
X26119880Y11360682D01*
X26082166Y11443629D01*
X26079984Y11448428D01*
X26017350Y11521118D01*
X25989840Y11553045D01*
X25989839Y11553046D01*
X25986400Y11557037D01*
X25981981Y11559901D01*
X25981979Y11559903D01*
X25942068Y11585772D01*
X25866095Y11635015D01*
X25734036Y11674509D01*
X25733792Y11674582D01*
X25733791Y11674582D01*
X25728739Y11676093D01*
X25655103Y11676543D01*
X25590646Y11676937D01*
X25590645Y11676937D01*
X25585376Y11676969D01*
X25447529Y11637572D01*
X25326280Y11561070D01*
X25294884Y11525520D01*
X25245380Y11469467D01*
X25231377Y11453612D01*
X25170447Y11323837D01*
X25169637Y11318632D01*
X25169636Y11318630D01*
X25159630Y11254363D01*
X25148391Y11182177D01*
X23452583Y11182177D01*
X23490896Y11217593D01*
X23494956Y11221346D01*
X23497734Y11226128D01*
X23500431Y11229495D01*
X23505857Y11235554D01*
X24224623Y11954320D01*
X24267289Y11975361D01*
X24306722Y11980552D01*
X24358157Y11987323D01*
X24358160Y11987324D01*
X24362962Y11987956D01*
X24509041Y12048464D01*
X24512885Y12051414D01*
X24512889Y12051416D01*
X24630631Y12141763D01*
X24634482Y12144718D01*
X24664256Y12183520D01*
X24727784Y12266311D01*
X24727786Y12266315D01*
X24730736Y12270159D01*
X24791244Y12416238D01*
X24794786Y12443138D01*
X24803839Y12511910D01*
X24824880Y12554577D01*
X25010726Y12740423D01*
X25017239Y12746210D01*
X25041966Y12765703D01*
X25041968Y12765705D01*
X25046310Y12769128D01*
X25080126Y12818056D01*
X25081478Y12819948D01*
X25113548Y12863366D01*
X25113550Y12863370D01*
X25116834Y12867816D01*
X25118612Y12872882D01*
X25118797Y12873185D01*
X25118924Y12873445D01*
X25119974Y12875506D01*
X25120136Y12875811D01*
X25120280Y12876155D01*
X25123331Y12880569D01*
X25141263Y12937268D01*
X25141998Y12939471D01*
X25159885Y12990408D01*
X25159885Y12990409D01*
X25161719Y12995631D01*
X25161929Y13000994D01*
X25162187Y13002013D01*
X25162906Y13005703D01*
X25164180Y13009730D01*
X25164700Y13016337D01*
X25164700Y13070039D01*
X25164757Y13072945D01*
X25166821Y13125466D01*
X25166821Y13125467D01*
X25167038Y13130994D01*
X25165620Y13136341D01*
X25165147Y13140626D01*
X25164700Y13148747D01*
X25164700Y16185977D01*
X26367591Y16185977D01*
X26368274Y16180754D01*
X26368274Y16180751D01*
X26368773Y16176938D01*
X26386180Y16043821D01*
X26443920Y15912597D01*
X26447312Y15908562D01*
X26532780Y15806884D01*
X26532783Y15806881D01*
X26536170Y15802852D01*
X26540557Y15799932D01*
X26651124Y15726331D01*
X26651127Y15726330D01*
X26655513Y15723410D01*
X26792357Y15680658D01*
X26797625Y15680561D01*
X26797628Y15680561D01*
X26857933Y15679456D01*
X26935699Y15678030D01*
X26940782Y15679416D01*
X26940784Y15679416D01*
X27068927Y15714352D01*
X27068929Y15714353D01*
X27074017Y15715740D01*
X27158188Y15767421D01*
X27191698Y15787996D01*
X27191699Y15787997D01*
X27196191Y15790755D01*
X27292400Y15897046D01*
X27354910Y16026067D01*
X27378696Y16167446D01*
X27378847Y16179800D01*
X27358523Y16321718D01*
X27333027Y16377795D01*
X27301366Y16447429D01*
X27299184Y16452228D01*
X27205600Y16560837D01*
X27201181Y16563701D01*
X27201179Y16563703D01*
X27142977Y16601427D01*
X27085295Y16638815D01*
X26981368Y16669896D01*
X26952992Y16678382D01*
X26952991Y16678382D01*
X26947939Y16679893D01*
X26874303Y16680343D01*
X26809846Y16680737D01*
X26809845Y16680737D01*
X26804576Y16680769D01*
X26666729Y16641372D01*
X26545480Y16564870D01*
X26538393Y16556845D01*
X26454245Y16461565D01*
X26450577Y16457412D01*
X26389647Y16327637D01*
X26367591Y16185977D01*
X25164700Y16185977D01*
X25164700Y22308554D01*
X25179992Y22353602D01*
X25235784Y22426311D01*
X25235786Y22426314D01*
X25238736Y22430159D01*
X25299244Y22576238D01*
X25299905Y22581252D01*
X25319249Y22728192D01*
X25319882Y22733000D01*
X25310364Y22805300D01*
X25299877Y22884957D01*
X25299876Y22884960D01*
X25299244Y22889762D01*
X25238736Y23035841D01*
X25235786Y23039686D01*
X25235784Y23039689D01*
X25179992Y23112398D01*
X25164700Y23157446D01*
X25164700Y26218977D01*
X27891591Y26218977D01*
X27892274Y26213754D01*
X27892274Y26213751D01*
X27892773Y26209938D01*
X27910180Y26076821D01*
X27967920Y25945597D01*
X27971312Y25941562D01*
X28056780Y25839884D01*
X28056783Y25839881D01*
X28060170Y25835852D01*
X28078343Y25823755D01*
X28175124Y25759331D01*
X28175127Y25759330D01*
X28179513Y25756410D01*
X28316357Y25713658D01*
X28321625Y25713561D01*
X28321628Y25713561D01*
X28381933Y25712456D01*
X28459699Y25711030D01*
X28464782Y25712416D01*
X28464784Y25712416D01*
X28592927Y25747352D01*
X28592929Y25747353D01*
X28598017Y25748740D01*
X28720191Y25823755D01*
X28816400Y25930046D01*
X28878910Y26059067D01*
X28902696Y26200446D01*
X28902847Y26212800D01*
X28887349Y26321018D01*
X28883270Y26349503D01*
X28883270Y26349504D01*
X28882523Y26354718D01*
X28823184Y26485228D01*
X28729600Y26593837D01*
X28725181Y26596701D01*
X28725179Y26596703D01*
X28685268Y26622572D01*
X28609295Y26671815D01*
X28505368Y26702896D01*
X28476992Y26711382D01*
X28476991Y26711382D01*
X28471939Y26712893D01*
X28398303Y26713343D01*
X28333846Y26713737D01*
X28333845Y26713737D01*
X28328576Y26713769D01*
X28190729Y26674372D01*
X28069480Y26597870D01*
X27974577Y26490412D01*
X27913647Y26360637D01*
X27891591Y26218977D01*
X25164700Y26218977D01*
X25164700Y28340650D01*
X25165213Y28349347D01*
X25166591Y28360993D01*
X25169564Y28386111D01*
X25158878Y28444620D01*
X25158497Y28446907D01*
X25157396Y28454230D01*
X25149649Y28505762D01*
X25147324Y28510602D01*
X25147240Y28510947D01*
X25147150Y28511210D01*
X25146429Y28513430D01*
X25146331Y28513748D01*
X25146189Y28514096D01*
X25145225Y28519373D01*
X25117811Y28572148D01*
X25116776Y28574220D01*
X25093403Y28622895D01*
X25093401Y28622899D01*
X25091009Y28627879D01*
X25087366Y28631820D01*
X25086825Y28632727D01*
X25084725Y28635844D01*
X25082779Y28639589D01*
X25078475Y28644628D01*
X25040505Y28682598D01*
X25038491Y28684693D01*
X25002807Y28723296D01*
X24999054Y28727356D01*
X24994272Y28730134D01*
X24990905Y28732831D01*
X24984846Y28738257D01*
X24012080Y29711023D01*
X23991039Y29753690D01*
X23990262Y29759597D01*
X23984829Y29800863D01*
X23979077Y29844557D01*
X23979076Y29844560D01*
X23978444Y29849362D01*
X23917936Y29995441D01*
X23914986Y29999285D01*
X23914984Y29999289D01*
X23824637Y30117031D01*
X23821682Y30120882D01*
X23751506Y30174730D01*
X23700089Y30214184D01*
X23700085Y30214186D01*
X23696241Y30217136D01*
X23550162Y30277644D01*
X23545360Y30278276D01*
X23545357Y30278277D01*
X23398208Y30297649D01*
X23393400Y30298282D01*
X23388592Y30297649D01*
X23241443Y30278277D01*
X23241440Y30278276D01*
X23236638Y30277644D01*
X23090559Y30217136D01*
X23086715Y30214186D01*
X23086711Y30214184D01*
X23035294Y30174730D01*
X22965118Y30120882D01*
X22962163Y30117031D01*
X22871816Y29999289D01*
X22871814Y29999285D01*
X22868864Y29995441D01*
X22808356Y29849362D01*
X22807724Y29844560D01*
X22807723Y29844557D01*
X22790775Y29715817D01*
X22787718Y29692600D01*
X22788351Y29687792D01*
X22807205Y29544583D01*
X22808356Y29535838D01*
X22868864Y29389759D01*
X22871814Y29385915D01*
X22871816Y29385911D01*
X22912382Y29333045D01*
X22965118Y29264318D01*
X22968969Y29261363D01*
X23086711Y29171016D01*
X23086715Y29171014D01*
X23090559Y29168064D01*
X23236638Y29107556D01*
X23241440Y29106924D01*
X23241443Y29106923D01*
X23298509Y29099411D01*
X23332311Y29094961D01*
X23374977Y29073920D01*
X24242026Y28206871D01*
X24263418Y28160995D01*
X24263700Y28154545D01*
X24263700Y23157446D01*
X24248408Y23112398D01*
X24192616Y23039689D01*
X24192614Y23039686D01*
X24189664Y23035841D01*
X24129156Y22889762D01*
X24128524Y22884960D01*
X24128523Y22884957D01*
X24118036Y22805300D01*
X24108518Y22733000D01*
X24109151Y22728192D01*
X24128496Y22581252D01*
X24129156Y22576238D01*
X24189664Y22430159D01*
X24192614Y22426314D01*
X24192616Y22426311D01*
X24248408Y22353602D01*
X24263700Y22308554D01*
X24263700Y18706897D01*
X24246387Y18659331D01*
X24202550Y18634021D01*
X24152700Y18642811D01*
X24120163Y18681588D01*
X24116447Y18696407D01*
X24108070Y18754903D01*
X24108070Y18754904D01*
X24107323Y18760118D01*
X24103036Y18769548D01*
X24050166Y18885829D01*
X24047984Y18890628D01*
X23982889Y18966174D01*
X23957840Y18995245D01*
X23957839Y18995246D01*
X23954400Y18999237D01*
X23949982Y19002101D01*
X23949977Y19002105D01*
X23931250Y19014243D01*
X23900752Y19054643D01*
X23897500Y19076339D01*
X23897500Y22673180D01*
X23898922Y22687617D01*
X23901475Y22700451D01*
X23902897Y22707600D01*
X23891689Y22763946D01*
X23884604Y22799567D01*
X23884603Y22799568D01*
X23881515Y22815094D01*
X23881515Y22815095D01*
X23820624Y22906224D01*
X23803682Y22917544D01*
X23792471Y22926745D01*
X22952145Y23767071D01*
X22942942Y23778285D01*
X22935673Y23789164D01*
X22931624Y23795224D01*
X22908623Y23810593D01*
X22908622Y23810594D01*
X22882465Y23828071D01*
X22840495Y23856115D01*
X22795629Y23865039D01*
X22760135Y23872100D01*
X22760132Y23872100D01*
X22733000Y23877497D01*
X22725851Y23876075D01*
X22713017Y23873522D01*
X22698580Y23872100D01*
X8939677Y23872100D01*
X8892111Y23889413D01*
X8872313Y23915472D01*
X8860966Y23940429D01*
X8858784Y23945228D01*
X8765200Y24053837D01*
X8760781Y24056701D01*
X8760779Y24056703D01*
X8720868Y24082572D01*
X8644895Y24131815D01*
X8540968Y24162896D01*
X8512592Y24171382D01*
X8512591Y24171382D01*
X8507539Y24172893D01*
X8433903Y24173343D01*
X8369446Y24173737D01*
X8369445Y24173737D01*
X8364176Y24173769D01*
X8226329Y24134372D01*
X8225393Y24133781D01*
X8176627Y24130286D01*
X8135624Y24159967D01*
X8122900Y24201455D01*
X8122900Y24634366D01*
X8140213Y24681932D01*
X8184050Y24707242D01*
X8233900Y24698452D01*
X8257517Y24675604D01*
X8257520Y24675597D01*
X8260910Y24671564D01*
X8346380Y24569884D01*
X8346383Y24569881D01*
X8349770Y24565852D01*
X8354157Y24562932D01*
X8464724Y24489331D01*
X8464727Y24489330D01*
X8469113Y24486410D01*
X8605957Y24443658D01*
X8611225Y24443561D01*
X8611228Y24443561D01*
X8671533Y24442456D01*
X8749299Y24441030D01*
X8754382Y24442416D01*
X8754384Y24442416D01*
X8882527Y24477352D01*
X8882529Y24477353D01*
X8887617Y24478740D01*
X9009791Y24553755D01*
X9106000Y24660046D01*
X9168510Y24789067D01*
X9192296Y24930446D01*
X9192335Y24933628D01*
X9192367Y24933713D01*
X9192586Y24936152D01*
X9193266Y24936091D01*
X9210230Y24980978D01*
X9254374Y25005748D01*
X9307333Y24994320D01*
X9343578Y24970193D01*
X9379124Y24946531D01*
X9379127Y24946530D01*
X9383513Y24943610D01*
X9520357Y24900858D01*
X9525625Y24900761D01*
X9525628Y24900761D01*
X9585933Y24899656D01*
X9663699Y24898230D01*
X9668782Y24899616D01*
X9668784Y24899616D01*
X9796927Y24934552D01*
X9796929Y24934553D01*
X9802017Y24935940D01*
X9890463Y24990246D01*
X9919698Y25008196D01*
X9919699Y25008197D01*
X9924191Y25010955D01*
X10020400Y25117246D01*
X10082910Y25246267D01*
X10106696Y25387646D01*
X10106847Y25400000D01*
X10086523Y25541918D01*
X10043830Y25635818D01*
X10029366Y25667629D01*
X10027184Y25672428D01*
X9952303Y25759331D01*
X9937040Y25777045D01*
X9937039Y25777046D01*
X9933600Y25781037D01*
X9929181Y25783901D01*
X9929179Y25783903D01*
X9889268Y25809772D01*
X9813295Y25859015D01*
X9706267Y25891023D01*
X9680992Y25898582D01*
X9680991Y25898582D01*
X9675939Y25900093D01*
X9602303Y25900543D01*
X9537846Y25900937D01*
X9537845Y25900937D01*
X9532576Y25900969D01*
X9394729Y25861572D01*
X9273480Y25785070D01*
X9241395Y25748740D01*
X9208091Y25711030D01*
X9178577Y25677612D01*
X9117647Y25547837D01*
X9116837Y25542632D01*
X9116836Y25542630D01*
X9097063Y25415630D01*
X9095591Y25406177D01*
X9095302Y25406222D01*
X9078480Y25361705D01*
X9034336Y25336933D01*
X8982132Y25347863D01*
X8898895Y25401815D01*
X8794968Y25432896D01*
X8766592Y25441382D01*
X8766591Y25441382D01*
X8761539Y25442893D01*
X8687903Y25443343D01*
X8623446Y25443737D01*
X8623445Y25443737D01*
X8618176Y25443769D01*
X8480329Y25404372D01*
X8359080Y25327870D01*
X8320675Y25284384D01*
X8283819Y25242652D01*
X8264177Y25220412D01*
X8261938Y25215643D01*
X8259041Y25211233D01*
X8256777Y25212720D01*
X8228001Y25184093D01*
X8177563Y25179811D01*
X8136173Y25208952D01*
X8122900Y25251240D01*
X8122900Y25605166D01*
X8140213Y25652732D01*
X8144574Y25657492D01*
X8786708Y26299626D01*
X8832584Y26321018D01*
X8840390Y26321288D01*
X8856470Y26320994D01*
X8876299Y26320630D01*
X8881381Y26322015D01*
X8881385Y26322016D01*
X9009527Y26356952D01*
X9009529Y26356953D01*
X9014617Y26358340D01*
X9136791Y26433355D01*
X9233000Y26539646D01*
X9295510Y26668667D01*
X9319296Y26810046D01*
X9319447Y26822400D01*
X9306788Y26910797D01*
X9299870Y26959103D01*
X9299870Y26959104D01*
X9299123Y26964318D01*
X9239784Y27094828D01*
X9202745Y27137814D01*
X9182240Y27161611D01*
X9164300Y27209915D01*
X9164300Y28830966D01*
X9181613Y28878532D01*
X9185974Y28883292D01*
X10031308Y29728626D01*
X10077184Y29750018D01*
X10084990Y29750288D01*
X10101070Y29749994D01*
X10120899Y29749630D01*
X10125981Y29751015D01*
X10125985Y29751016D01*
X10254127Y29785952D01*
X10254129Y29785953D01*
X10259217Y29787340D01*
X10352404Y29844557D01*
X10376898Y29859596D01*
X10376899Y29859597D01*
X10381391Y29862355D01*
X10477600Y29968646D01*
X10540110Y30097667D01*
X10563896Y30239046D01*
X10564608Y30238926D01*
X10584817Y30282135D01*
X10943908Y30641226D01*
X10989784Y30662618D01*
X10996234Y30662900D01*
X12525091Y30662900D01*
X12572657Y30645587D01*
X12597967Y30601750D01*
X12589177Y30551900D01*
X12580557Y30539915D01*
X12552639Y30508303D01*
X12502376Y30451391D01*
X12441446Y30321616D01*
X12440636Y30316411D01*
X12440635Y30316409D01*
X12439861Y30311439D01*
X12419390Y30179956D01*
X12437979Y30037800D01*
X12461829Y29983597D01*
X12488579Y29922804D01*
X12495719Y29906576D01*
X12509189Y29890551D01*
X12584579Y29800863D01*
X12584582Y29800860D01*
X12587969Y29796831D01*
X12600268Y29788644D01*
X12702923Y29720310D01*
X12702926Y29720309D01*
X12707312Y29717389D01*
X12844156Y29674637D01*
X12849424Y29674540D01*
X12849427Y29674540D01*
X12909732Y29673435D01*
X12987498Y29672009D01*
X12992581Y29673395D01*
X12992583Y29673395D01*
X13120726Y29708331D01*
X13120728Y29708332D01*
X13125816Y29709719D01*
X13187270Y29747452D01*
X13243497Y29781975D01*
X13243498Y29781976D01*
X13247990Y29784734D01*
X13344199Y29891025D01*
X13349963Y29902922D01*
X13386283Y29938178D01*
X13436770Y29941840D01*
X13477798Y29912193D01*
X13486694Y29893004D01*
X13486980Y29890821D01*
X13489103Y29885995D01*
X13489104Y29885993D01*
X13533659Y29784734D01*
X13544720Y29759597D01*
X13567417Y29732596D01*
X13633580Y29653884D01*
X13633583Y29653881D01*
X13636970Y29649852D01*
X13641357Y29646932D01*
X13751924Y29573331D01*
X13751927Y29573330D01*
X13756313Y29570410D01*
X13838984Y29544582D01*
X13869242Y29526276D01*
X15772934Y27622584D01*
X15782775Y27610398D01*
X15786655Y27604389D01*
X15786657Y27604387D01*
X15789975Y27599248D01*
X15794780Y27595460D01*
X15816286Y27578506D01*
X15822799Y27572719D01*
X15825546Y27569972D01*
X15828024Y27568201D01*
X15828029Y27568197D01*
X15840880Y27559014D01*
X15843643Y27556940D01*
X15881611Y27527008D01*
X15887380Y27524982D01*
X15888417Y27524412D01*
X15889120Y27523970D01*
X15889660Y27523689D01*
X15890417Y27523372D01*
X15891493Y27522845D01*
X15896469Y27519289D01*
X15902332Y27517536D01*
X15902331Y27517536D01*
X15942779Y27505439D01*
X15946094Y27504362D01*
X15987308Y27489889D01*
X15987311Y27489888D01*
X15991706Y27488345D01*
X15996844Y27487900D01*
X15998180Y27487900D01*
X16002712Y27487516D01*
X16008263Y27485856D01*
X16014373Y27486096D01*
X16058837Y27487843D01*
X16061742Y27487900D01*
X19334913Y27487900D01*
X19350488Y27486242D01*
X19363461Y27483449D01*
X19369536Y27484168D01*
X19369537Y27484168D01*
X19396733Y27487387D01*
X19405431Y27487900D01*
X19409315Y27487900D01*
X19412329Y27488402D01*
X19412333Y27488402D01*
X19427901Y27490993D01*
X19431351Y27491484D01*
X19473265Y27496445D01*
X19473266Y27496445D01*
X19479338Y27497164D01*
X19484850Y27499811D01*
X19485987Y27500141D01*
X19486795Y27500325D01*
X19487380Y27500510D01*
X19488132Y27500818D01*
X19489271Y27501208D01*
X19495303Y27502212D01*
X19523703Y27517536D01*
X19537845Y27525166D01*
X19540947Y27526747D01*
X19550271Y27531225D01*
X19600644Y27536211D01*
X19642437Y27507652D01*
X19656095Y27458911D01*
X19649293Y27433069D01*
X19601185Y27330605D01*
X19601184Y27330601D01*
X19598947Y27325837D01*
X19576891Y27184177D01*
X19577574Y27178954D01*
X19577574Y27178951D01*
X19578073Y27175138D01*
X19595480Y27042021D01*
X19653220Y26910797D01*
X19656612Y26906762D01*
X19742080Y26805084D01*
X19742083Y26805081D01*
X19745470Y26801052D01*
X19749857Y26798132D01*
X19860424Y26724531D01*
X19860427Y26724530D01*
X19864813Y26721610D01*
X20001657Y26678858D01*
X20006925Y26678761D01*
X20006928Y26678761D01*
X20067233Y26677656D01*
X20144999Y26676230D01*
X20150082Y26677616D01*
X20150084Y26677616D01*
X20278227Y26712552D01*
X20278229Y26712553D01*
X20283317Y26713940D01*
X20405491Y26788955D01*
X20501700Y26895246D01*
X20564210Y27024267D01*
X20587996Y27165646D01*
X20588147Y27178000D01*
X20583611Y27209675D01*
X20568570Y27314703D01*
X20568570Y27314704D01*
X20567823Y27319918D01*
X20508484Y27450428D01*
X20439238Y27530792D01*
X20418340Y27555045D01*
X20418339Y27555046D01*
X20414900Y27559037D01*
X20410481Y27561901D01*
X20410479Y27561903D01*
X20352862Y27599248D01*
X20294595Y27637015D01*
X20186771Y27669261D01*
X20162292Y27676582D01*
X20162291Y27676582D01*
X20157239Y27678093D01*
X20083603Y27678543D01*
X20019146Y27678937D01*
X20019145Y27678937D01*
X20013876Y27678969D01*
X19880529Y27640858D01*
X19880527Y27640858D01*
X19876029Y27639572D01*
X19875759Y27640516D01*
X19830281Y27637260D01*
X19789280Y27666945D01*
X19776953Y27716040D01*
X19798233Y27760752D01*
X19984136Y27946655D01*
X20216874Y28179392D01*
X20262751Y28200784D01*
X20311645Y28187683D01*
X20321526Y28179392D01*
X20938426Y27562492D01*
X20959818Y27516616D01*
X20960100Y27510166D01*
X20960100Y25660275D01*
X20941566Y25611290D01*
X20887977Y25550612D01*
X20827047Y25420837D01*
X20826237Y25415632D01*
X20826236Y25415630D01*
X20824979Y25407554D01*
X20804991Y25279177D01*
X20805674Y25273954D01*
X20805674Y25273951D01*
X20806173Y25270138D01*
X20823580Y25137021D01*
X20881320Y25005797D01*
X20905169Y24977426D01*
X20970180Y24900084D01*
X20970183Y24900081D01*
X20973570Y24896052D01*
X20977957Y24893132D01*
X21088524Y24819531D01*
X21088527Y24819530D01*
X21092913Y24816610D01*
X21229757Y24773858D01*
X21235025Y24773761D01*
X21235028Y24773761D01*
X21295333Y24772656D01*
X21373099Y24771230D01*
X21378182Y24772616D01*
X21378184Y24772616D01*
X21506327Y24807552D01*
X21506329Y24807553D01*
X21511417Y24808940D01*
X21633591Y24883955D01*
X21729800Y24990246D01*
X21792310Y25119267D01*
X21816096Y25260646D01*
X21816247Y25273000D01*
X21798210Y25398950D01*
X21796670Y25409703D01*
X21796670Y25409704D01*
X21795923Y25414918D01*
X21736584Y25545428D01*
X21685110Y25605166D01*
X21679040Y25612211D01*
X21661100Y25660515D01*
X21661100Y27640713D01*
X21662758Y27656288D01*
X21664263Y27663278D01*
X21664263Y27663279D01*
X21665551Y27669261D01*
X21664685Y27676582D01*
X21661613Y27702533D01*
X21661100Y27711231D01*
X21661100Y27715115D01*
X21658007Y27733701D01*
X21657516Y27737151D01*
X21652555Y27779065D01*
X21652555Y27779066D01*
X21651836Y27785138D01*
X21649189Y27790650D01*
X21648859Y27791787D01*
X21648675Y27792595D01*
X21648490Y27793180D01*
X21648182Y27793932D01*
X21647792Y27795071D01*
X21646788Y27801103D01*
X21634259Y27824324D01*
X21623834Y27843645D01*
X21622252Y27846751D01*
X21603345Y27886125D01*
X21603338Y27886135D01*
X21601326Y27890326D01*
X21598008Y27894274D01*
X21597055Y27895227D01*
X21594132Y27898690D01*
X21591378Y27903794D01*
X21554223Y27938140D01*
X21552128Y27940154D01*
X20793945Y28698337D01*
X20773018Y28740172D01*
X20755270Y28864104D01*
X20755269Y28864106D01*
X20754523Y28869318D01*
X20713826Y28958828D01*
X20697366Y28995029D01*
X20695184Y28999828D01*
X20616037Y29091682D01*
X20605040Y29104445D01*
X20605039Y29104446D01*
X20601600Y29108437D01*
X20597181Y29111301D01*
X20597179Y29111303D01*
X20557268Y29137172D01*
X20481295Y29186415D01*
X20373274Y29218720D01*
X20348992Y29225982D01*
X20348991Y29225982D01*
X20343939Y29227493D01*
X20270303Y29227943D01*
X20205846Y29228337D01*
X20205845Y29228337D01*
X20200576Y29228369D01*
X20062729Y29188972D01*
X19941480Y29112470D01*
X19846577Y29005012D01*
X19785647Y28875237D01*
X19784837Y28870032D01*
X19784836Y28870030D01*
X19764337Y28738368D01*
X19743544Y28697426D01*
X19256692Y28210574D01*
X19210816Y28189182D01*
X19204366Y28188900D01*
X16228634Y28188900D01*
X16181068Y28206213D01*
X16176308Y28210574D01*
X15424705Y28962177D01*
X17782391Y28962177D01*
X17783074Y28956954D01*
X17783074Y28956951D01*
X17783573Y28953138D01*
X17800980Y28820021D01*
X17858720Y28688797D01*
X17862112Y28684762D01*
X17947580Y28583084D01*
X17947583Y28583081D01*
X17950970Y28579052D01*
X17961354Y28572140D01*
X18065924Y28502531D01*
X18065927Y28502530D01*
X18070313Y28499610D01*
X18207157Y28456858D01*
X18212425Y28456761D01*
X18212428Y28456761D01*
X18272733Y28455656D01*
X18350499Y28454230D01*
X18355582Y28455616D01*
X18355584Y28455616D01*
X18483727Y28490552D01*
X18483729Y28490553D01*
X18488817Y28491940D01*
X18610991Y28566955D01*
X18707200Y28673246D01*
X18769710Y28802267D01*
X18793496Y28943646D01*
X18793647Y28956000D01*
X18773323Y29097918D01*
X18768098Y29109411D01*
X18716166Y29223629D01*
X18713984Y29228428D01*
X18620400Y29337037D01*
X18615981Y29339901D01*
X18615979Y29339903D01*
X18576068Y29365772D01*
X18500095Y29415015D01*
X18396168Y29446096D01*
X18367792Y29454582D01*
X18367791Y29454582D01*
X18362739Y29456093D01*
X18289103Y29456543D01*
X18224646Y29456937D01*
X18224645Y29456937D01*
X18219376Y29456969D01*
X18081529Y29417572D01*
X17960280Y29341070D01*
X17865377Y29233612D01*
X17804447Y29103837D01*
X17803637Y29098632D01*
X17803636Y29098630D01*
X17799789Y29073920D01*
X17782391Y28962177D01*
X15424705Y28962177D01*
X14491056Y29895826D01*
X14469664Y29941702D01*
X14470408Y29960429D01*
X14471791Y29968646D01*
X14479496Y30014446D01*
X14479623Y30024841D01*
X14497515Y30072192D01*
X14541658Y30096964D01*
X14554972Y30097925D01*
X14641960Y30096330D01*
X14647043Y30097716D01*
X14647045Y30097716D01*
X14775188Y30132652D01*
X14775190Y30132653D01*
X14780278Y30134040D01*
X14902452Y30209055D01*
X14998661Y30315346D01*
X15061171Y30444367D01*
X15075643Y30530383D01*
X15100606Y30574417D01*
X15148035Y30592103D01*
X15195736Y30575164D01*
X15205262Y30565721D01*
X15287431Y30467968D01*
X15287434Y30467965D01*
X15290821Y30463936D01*
X15309667Y30451391D01*
X15405775Y30387415D01*
X15405778Y30387414D01*
X15410164Y30384494D01*
X15415196Y30382922D01*
X15494030Y30358293D01*
X15534269Y30327584D01*
X15545355Y30278194D01*
X15544259Y30273115D01*
X15543847Y30272237D01*
X15543270Y30268529D01*
X15543269Y30268526D01*
X15538280Y30236480D01*
X15521791Y30130577D01*
X15522474Y30125354D01*
X15522474Y30125351D01*
X15526269Y30096330D01*
X15540380Y29988421D01*
X15598120Y29857197D01*
X15601512Y29853162D01*
X15686980Y29751484D01*
X15686983Y29751481D01*
X15690370Y29747452D01*
X15694757Y29744532D01*
X15805324Y29670931D01*
X15805327Y29670930D01*
X15809713Y29668010D01*
X15946557Y29625258D01*
X15951825Y29625161D01*
X15951828Y29625161D01*
X16012133Y29624056D01*
X16089899Y29622630D01*
X16094982Y29624016D01*
X16094984Y29624016D01*
X16223127Y29658952D01*
X16223129Y29658953D01*
X16228217Y29660340D01*
X16308639Y29709719D01*
X16345898Y29732596D01*
X16345899Y29732597D01*
X16350391Y29735355D01*
X16446600Y29841646D01*
X16509110Y29970667D01*
X16532896Y30112046D01*
X16533047Y30124400D01*
X16516629Y30239046D01*
X16513470Y30261103D01*
X16513470Y30261104D01*
X16512723Y30266318D01*
X16505532Y30282135D01*
X16455566Y30392029D01*
X16453384Y30396828D01*
X16359800Y30505437D01*
X16355381Y30508301D01*
X16355379Y30508303D01*
X16292796Y30548867D01*
X16239495Y30583415D01*
X16234447Y30584925D01*
X16234444Y30584926D01*
X16161783Y30606656D01*
X16121172Y30636871D01*
X16110012Y30689830D01*
X16132872Y30825707D01*
X16133347Y30828530D01*
X16133498Y30840884D01*
X16128510Y30875712D01*
X16113921Y30977587D01*
X16113921Y30977588D01*
X16113174Y30982802D01*
X16053835Y31113312D01*
X15960251Y31221921D01*
X15955832Y31224785D01*
X15955830Y31224787D01*
X15912993Y31252552D01*
X15839946Y31299899D01*
X15736019Y31330980D01*
X15707643Y31339466D01*
X15707642Y31339466D01*
X15702590Y31340977D01*
X15628954Y31341427D01*
X15564497Y31341821D01*
X15564496Y31341821D01*
X15559227Y31341853D01*
X15421380Y31302456D01*
X15300131Y31225954D01*
X15205228Y31118496D01*
X15144298Y30988721D01*
X15143488Y30983516D01*
X15143487Y30983514D01*
X15132100Y30910377D01*
X15107676Y30866040D01*
X15060466Y30847776D01*
X15012562Y30864130D01*
X15002921Y30873457D01*
X14915301Y30975145D01*
X14915300Y30975146D01*
X14911861Y30979137D01*
X14907442Y30982001D01*
X14907440Y30982003D01*
X14867529Y31007872D01*
X14791556Y31057115D01*
X14687629Y31088196D01*
X14659253Y31096682D01*
X14659252Y31096682D01*
X14654200Y31098193D01*
X14580564Y31098643D01*
X14516107Y31099037D01*
X14516106Y31099037D01*
X14510837Y31099069D01*
X14372990Y31059672D01*
X14251741Y30983170D01*
X14156838Y30875712D01*
X14095908Y30745937D01*
X14073852Y30604277D01*
X14074419Y30599938D01*
X14056657Y30552933D01*
X14012514Y30528162D01*
X14000075Y30527191D01*
X13999460Y30527195D01*
X13952007Y30544816D01*
X13947615Y30548867D01*
X13267266Y31229216D01*
X13257425Y31241402D01*
X13253545Y31247411D01*
X13253543Y31247413D01*
X13250225Y31252552D01*
X13223914Y31273294D01*
X13217401Y31279081D01*
X13214654Y31281828D01*
X13212176Y31283599D01*
X13212171Y31283603D01*
X13199320Y31292786D01*
X13196557Y31294860D01*
X13158589Y31324792D01*
X13152820Y31326818D01*
X13151783Y31327388D01*
X13151080Y31327830D01*
X13150540Y31328111D01*
X13149783Y31328428D01*
X13148707Y31328955D01*
X13143731Y31332511D01*
X13097423Y31346360D01*
X13094107Y31347437D01*
X13082084Y31351659D01*
X13048494Y31363455D01*
X13043356Y31363900D01*
X13042019Y31363900D01*
X13037488Y31364284D01*
X13031936Y31365944D01*
X13025826Y31365704D01*
X13025825Y31365704D01*
X12981363Y31363957D01*
X12978458Y31363900D01*
X10865692Y31363900D01*
X10850118Y31365558D01*
X10837140Y31368352D01*
X10831065Y31367633D01*
X10831064Y31367633D01*
X10803862Y31364413D01*
X10795164Y31363900D01*
X10791285Y31363900D01*
X10788274Y31363399D01*
X10788264Y31363398D01*
X10772707Y31360808D01*
X10769265Y31360318D01*
X10744034Y31357331D01*
X10727335Y31355355D01*
X10727334Y31355355D01*
X10721262Y31354636D01*
X10715750Y31351989D01*
X10714613Y31351659D01*
X10713805Y31351475D01*
X10713220Y31351290D01*
X10712468Y31350982D01*
X10711329Y31350592D01*
X10705297Y31349588D01*
X10689338Y31340977D01*
X10662755Y31326634D01*
X10659649Y31325052D01*
X10620275Y31306145D01*
X10620265Y31306138D01*
X10616074Y31304126D01*
X10612126Y31300808D01*
X10611173Y31299855D01*
X10607710Y31296932D01*
X10602606Y31294178D01*
X10583301Y31273294D01*
X10568260Y31257023D01*
X10566246Y31254928D01*
X10085100Y30773782D01*
X10039224Y30752390D01*
X10032322Y30752109D01*
X9995046Y30752337D01*
X9995045Y30752337D01*
X9989776Y30752369D01*
X9851929Y30712972D01*
X9847469Y30710158D01*
X9825306Y30696174D01*
X9730680Y30636470D01*
X9700017Y30601750D01*
X9649735Y30544816D01*
X9635777Y30529012D01*
X9574847Y30399237D01*
X9574037Y30394032D01*
X9574036Y30394030D01*
X9553537Y30262368D01*
X9532744Y30221426D01*
X8597984Y29286666D01*
X8585798Y29276825D01*
X8579789Y29272945D01*
X8579787Y29272943D01*
X8574648Y29269625D01*
X8570860Y29264820D01*
X8553906Y29243314D01*
X8548119Y29236801D01*
X8545372Y29234054D01*
X8543601Y29231576D01*
X8543597Y29231571D01*
X8534414Y29218720D01*
X8532340Y29215957D01*
X8502408Y29177989D01*
X8500382Y29172220D01*
X8499812Y29171183D01*
X8499370Y29170480D01*
X8499089Y29169940D01*
X8498772Y29169183D01*
X8498245Y29168107D01*
X8494689Y29163131D01*
X8492936Y29157269D01*
X8480840Y29116823D01*
X8479763Y29113507D01*
X8463745Y29067894D01*
X8463300Y29062756D01*
X8463300Y29061419D01*
X8462916Y29056888D01*
X8461256Y29051336D01*
X8461496Y29045226D01*
X8461496Y29045225D01*
X8463243Y29000763D01*
X8463300Y28997858D01*
X8463300Y27209675D01*
X8444766Y27160690D01*
X8391177Y27100012D01*
X8330247Y26970237D01*
X8329437Y26965032D01*
X8329436Y26965030D01*
X8308937Y26833368D01*
X8288144Y26792426D01*
X7556584Y26060866D01*
X7544398Y26051025D01*
X7538389Y26047145D01*
X7538387Y26047143D01*
X7533248Y26043825D01*
X7529460Y26039020D01*
X7512506Y26017514D01*
X7506719Y26011001D01*
X7503972Y26008254D01*
X7502201Y26005776D01*
X7502197Y26005771D01*
X7493014Y25992920D01*
X7490940Y25990157D01*
X7461008Y25952189D01*
X7458982Y25946420D01*
X7458412Y25945383D01*
X7457970Y25944680D01*
X7457689Y25944140D01*
X7457372Y25943383D01*
X7456845Y25942307D01*
X7453289Y25937331D01*
X7451536Y25931469D01*
X7439440Y25891023D01*
X7438363Y25887707D01*
X7422345Y25842094D01*
X7421900Y25836956D01*
X7421900Y25835619D01*
X7421516Y25831088D01*
X7419856Y25825536D01*
X7420096Y25819426D01*
X7420096Y25819425D01*
X7421843Y25774963D01*
X7421900Y25772058D01*
X7421900Y22076968D01*
X7404587Y22029402D01*
X7360750Y22004092D01*
X7310900Y22012882D01*
X7295574Y22024642D01*
X5689044Y23631172D01*
X5679841Y23642386D01*
X5672572Y23653265D01*
X5668523Y23659325D01*
X5645522Y23674694D01*
X5645521Y23674695D01*
X5601522Y23704094D01*
X5577394Y23720216D01*
X5570249Y23721637D01*
X5570247Y23721638D01*
X5497034Y23736201D01*
X5497031Y23736201D01*
X5469899Y23741598D01*
X5462750Y23740176D01*
X5449916Y23737623D01*
X5435479Y23736201D01*
X4904999Y23736201D01*
X4857433Y23753514D01*
X4832123Y23797351D01*
X4830999Y23810201D01*
X4830999Y25096135D01*
X4848312Y25143701D01*
X4885535Y25167529D01*
X4890962Y25169008D01*
X4890966Y25169010D01*
X4896051Y25170396D01*
X4962561Y25211233D01*
X5013732Y25242652D01*
X5013733Y25242653D01*
X5018225Y25245411D01*
X5114434Y25351702D01*
X5176944Y25480723D01*
X5200730Y25622102D01*
X5200881Y25634456D01*
X5189716Y25712416D01*
X5181304Y25771159D01*
X5181304Y25771160D01*
X5180557Y25776374D01*
X5121218Y25906884D01*
X5027634Y26015493D01*
X5023215Y26018357D01*
X5023213Y26018359D01*
X4966224Y26055297D01*
X4907329Y26093471D01*
X4803402Y26124552D01*
X4775026Y26133038D01*
X4775025Y26133038D01*
X4769973Y26134549D01*
X4696337Y26134999D01*
X4631880Y26135393D01*
X4631879Y26135393D01*
X4626610Y26135425D01*
X4488763Y26096028D01*
X4367514Y26019526D01*
X4357559Y26008254D01*
X4288489Y25930046D01*
X4272611Y25912068D01*
X4211681Y25782293D01*
X4210871Y25777088D01*
X4210870Y25777086D01*
X4210314Y25773512D01*
X4189625Y25640633D01*
X4190308Y25635410D01*
X4190308Y25635407D01*
X4193462Y25611290D01*
X4208214Y25498477D01*
X4265954Y25367253D01*
X4268917Y25363727D01*
X4279999Y25324954D01*
X4279999Y24371263D01*
X4262686Y24323697D01*
X4218849Y24298387D01*
X4165750Y24309166D01*
X4051918Y24382948D01*
X4051919Y24382948D01*
X4047495Y24385815D01*
X3943568Y24416896D01*
X3915192Y24425382D01*
X3915191Y24425382D01*
X3910139Y24426893D01*
X3836503Y24427343D01*
X3772046Y24427737D01*
X3772045Y24427737D01*
X3766776Y24427769D01*
X3628929Y24388372D01*
X3507680Y24311870D01*
X3412777Y24204412D01*
X3351847Y24074637D01*
X3351037Y24069432D01*
X3351036Y24069430D01*
X3347987Y24049845D01*
X3329791Y23932977D01*
X200000Y23932977D01*
X200000Y28374000D01*
X217313Y28421566D01*
X261150Y28446876D01*
X274000Y28448000D01*
X8128000Y28448000D01*
X8128000Y31476000D01*
X8145313Y31523566D01*
X8189150Y31548876D01*
X8202000Y31550000D01*
X31476000Y31550000D01*
X31523566Y31532687D01*
G37*
%TD.AperFunction*%
%TD*%
M02*
