M48
; DRILL file {KiCad (6.0.0-rc1-323-gb9e66d8b98)} date Thu Dec  9 23:13:02 2021
; FORMAT={-:-/ absolute / inch / decimal}
; #@! TF.CreationDate,2021-12-09T23:13:02+08:00
; #@! TF.GenerationSoftware,Kicad,Pcbnew,(6.0.0-rc1-323-gb9e66d8b98)
; #@! TF.FileFunction,Plated,1,4,PTH
FMAT,2
INCH
; #@! TA.AperFunction,Plated,PTH,ViaDrill
T1C0.0118
; #@! TA.AperFunction,Plated,PTH,ViaDrill
T2C0.0197
; #@! TA.AperFunction,Plated,PTH,ComponentDrill
T3C0.0236
; #@! TA.AperFunction,Plated,PTH,ComponentDrill
T4C0.0315
%
G90
G05
T1
X0.027Y0.917
X0.034Y1.119
X0.035Y0.955
X0.036Y0.158
X0.043Y0.291
X0.048Y0.335
X0.049Y0.639
X0.049Y0.597
X0.073Y1.12
X0.086Y0.143
X0.112Y1.119
X0.124Y0.448
X0.132Y0.787
X0.138Y0.721
X0.146Y0.883
X0.151Y0.942
X0.153Y1.119
X0.155Y1.046
X0.158Y0.657
X0.1849Y1.0092
X0.19Y0.203
X0.195Y1.119
X0.202Y0.529
X0.235Y1.119
X0.236Y0.173
X0.237Y0.722
X0.24Y0.348
X0.249Y0.476
X0.2556Y0.0856
X0.281Y0.341
X0.304Y0.062
X0.316Y0.727
X0.321Y1.187
X0.322Y1.221
X0.33Y0.809
X0.332Y0.932
X0.342Y0.982
X0.342Y0.547
X0.347Y1.056
X0.3514Y0.9074
X0.353Y0.862
X0.358Y0.726
X0.3726Y0.5264
X0.378Y1.0
X0.395Y0.589
X0.395Y0.426
X0.396Y1.191
X0.4Y0.376
X0.401Y0.827
X0.41Y1.15
X0.412Y0.332
X0.425Y0.856
X0.43Y0.48
X0.4393Y0.6683
X0.444Y0.434
X0.455Y0.72
X0.4638Y0.6391
X0.467Y0.557
X0.476Y0.757
X0.477Y1.084
X0.5089Y1.1879
X0.521Y0.1
X0.546Y0.06
X0.5502Y1.1822
X0.558Y0.18
X0.572Y0.655
X0.573Y0.766
X0.574Y1.2046
X0.578Y0.099
X0.58Y0.46
X0.581Y1.015
X0.583Y1.059
X0.584Y0.975
X0.609Y0.791
X0.609Y0.058
X0.6108Y0.49
X0.6153Y1.2142
X0.627Y1.06
X0.63Y0.6
X0.631Y1.186
X0.633Y1.018
X0.636Y0.976
X0.651Y0.181
X0.666Y0.098
X0.666Y0.053
X0.679Y0.801
X0.69Y0.543
X0.71Y0.772
X0.717Y0.589
X0.72Y1.14
X0.724Y0.053
X0.732Y0.487
X0.732Y0.097
X0.735Y0.716
X0.742Y0.4
X0.762Y0.43
X0.783Y0.644
X0.7906Y1.07
X0.794Y0.343
X0.798Y1.131
X0.802Y0.815
X0.815Y0.855
X0.819Y0.332
X0.82Y0.647
X0.82Y0.28
X0.823Y0.887
X0.824Y0.548
X0.826Y0.755
X0.8355Y0.5085
X0.839Y0.995
X0.868Y0.729
X0.89Y0.97
X0.914Y0.405
X0.93Y0.733
X0.961Y0.265
X0.99Y1.22
X1.001Y0.81
X1.01Y0.44
X1.02Y0.29
X1.05Y0.03
X1.058Y0.637
X1.06Y1.03
X1.1Y0.81
X1.1Y0.75
X1.108Y0.339
X1.11Y1.22
X1.11Y0.03
X1.118Y1.032
X1.141Y0.432
X1.15Y0.24
X1.16Y0.15
X1.165Y0.334
X1.181Y0.046
X1.19Y0.94
X1.19Y0.9
X1.195Y0.406
X1.2Y0.59
X1.21Y1.21
X1.21Y0.64
X1.21Y0.44
X1.21Y0.11
X1.22Y0.17
X1.22Y0.06
T2
X0.821Y0.453
X0.921Y1.169
X0.928Y0.245
X0.953Y0.495
X0.973Y0.895
T4
X0.0606Y0.06
X0.1394Y0.06
T3
G00X0.4399Y0.2439
M15
G01X0.4399Y0.2006
M16
G05
G00X0.4399Y0.0695
M15
G01X0.4399Y0.0459
M16
G05
G00X0.7801Y0.2439
M15
G01X0.7801Y0.2006
M16
G05
G00X0.7801Y0.0695
M15
G01X0.7801Y0.0459
M16
G05
T0
M30
