%TF.GenerationSoftware,KiCad,Pcbnew,(6.0.0-rc1-323-gb9e66d8b98)*%
%TF.CreationDate,2021-12-09T23:12:50+08:00*%
%TF.ProjectId,Xterminal,58746572-6d69-46e6-916c-2e6b69636164,rev?*%
%TF.SameCoordinates,PXb340ac0PY76b1be0*%
%TF.FileFunction,Copper,L4,Bot*%
%TF.FilePolarity,Positive*%
%FSLAX46Y46*%
G04 Gerber Fmt 4.6, Leading zero omitted, Abs format (unit mm)*
G04 Created by KiCad (PCBNEW (6.0.0-rc1-323-gb9e66d8b98)) date 2021-12-09 23:12:50*
%MOMM*%
%LPD*%
G01*
G04 APERTURE LIST*
G04 Aperture macros list*
%AMRoundRect*
0 Rectangle with rounded corners*
0 $1 Rounding radius*
0 $2 $3 $4 $5 $6 $7 $8 $9 X,Y pos of 4 corners*
0 Add a 4 corners polygon primitive as box body*
4,1,4,$2,$3,$4,$5,$6,$7,$8,$9,$2,$3,0*
0 Add four circle primitives for the rounded corners*
1,1,$1+$1,$2,$3*
1,1,$1+$1,$4,$5*
1,1,$1+$1,$6,$7*
1,1,$1+$1,$8,$9*
0 Add four rect primitives between the rounded corners*
20,1,$1+$1,$2,$3,$4,$5,0*
20,1,$1+$1,$4,$5,$6,$7,0*
20,1,$1+$1,$6,$7,$8,$9,0*
20,1,$1+$1,$8,$9,$2,$3,0*%
G04 Aperture macros list end*
%TA.AperFunction,Profile*%
%ADD10C,0.500000*%
%TD*%
%TA.AperFunction,ComponentPad*%
%ADD11O,1.000000X2.100000*%
%TD*%
%TA.AperFunction,ComponentPad*%
%ADD12O,1.000000X1.600000*%
%TD*%
%TA.AperFunction,ComponentPad*%
%ADD13R,1.350000X1.350000*%
%TD*%
%TA.AperFunction,ComponentPad*%
%ADD14O,1.350000X1.350000*%
%TD*%
%TA.AperFunction,SMDPad,CuDef*%
%ADD15RoundRect,0.050000X0.125000X0.950000X-0.125000X0.950000X-0.125000X-0.950000X0.125000X-0.950000X0*%
%TD*%
%TA.AperFunction,ViaPad*%
%ADD16C,0.600000*%
%TD*%
%TA.AperFunction,ViaPad*%
%ADD17C,0.800000*%
%TD*%
%TA.AperFunction,Conductor*%
%ADD18C,0.150000*%
%TD*%
%TA.AperFunction,Conductor*%
%ADD19C,0.300000*%
%TD*%
%TA.AperFunction,Conductor*%
%ADD20C,0.500000*%
%TD*%
G04 APERTURE END LIST*
D10*
X0Y31750000D02*
X31750000Y31750000D01*
X31750000Y31750000D02*
X31750000Y0D01*
X31750000Y0D02*
X0Y0D01*
X0Y0D02*
X0Y31750000D01*
D11*
%TO.P,U3,S1,SHIELD*%
%TO.N,GND*%
X19814000Y5645000D03*
X11174000Y5645000D03*
D12*
X19814000Y1465000D03*
X11174000Y1465000D03*
%TD*%
D13*
%TO.P,J1,1,Pin_1*%
%TO.N,+BATT*%
X1540000Y1524000D03*
D14*
%TO.P,J1,2,Pin_2*%
%TO.N,GND*%
X3540000Y1524000D03*
%TD*%
D15*
%TO.P,U7,1,GND*%
%TO.N,GND*%
X19372000Y8636000D03*
%TO.P,U7,2,LEDK*%
%TO.N,Net-(R20-Pad2)*%
X18672000Y8636000D03*
%TO.P,U7,3,LEDA*%
%TO.N,+3V3*%
X17972000Y8636000D03*
%TO.P,U7,4,VDD*%
X17272000Y8636000D03*
%TO.P,U7,5,GND*%
%TO.N,GND*%
X16572000Y8636000D03*
%TO.P,U7,6,GND*%
X15872000Y8636000D03*
%TO.P,U7,7,D/C*%
%TO.N,/GPIO2*%
X15172000Y8636000D03*
%TO.P,U7,8,CS*%
%TO.N,GND*%
X14472000Y8636000D03*
%TO.P,U7,9,SCL*%
%TO.N,/GPIO18*%
X13772000Y8636000D03*
%TO.P,U7,10,SDA*%
%TO.N,/GPIO23*%
X13072000Y8636000D03*
%TO.P,U7,11,RESET*%
%TO.N,/GPIO4*%
X12372000Y8636000D03*
%TO.P,U7,12,GND*%
%TO.N,GND*%
X11672000Y8636000D03*
%TD*%
D16*
%TO.N,GND*%
X14528800Y16637000D03*
X3937000Y26568400D03*
X685800Y23291800D03*
X889000Y24257000D03*
X2184400Y3632200D03*
X914400Y4013200D03*
X1092200Y7391400D03*
X1219200Y8509000D03*
X1244600Y15163800D03*
X1244600Y16230600D03*
X4013200Y16687800D03*
X5130800Y13436600D03*
X10033000Y14960600D03*
X8966200Y21894800D03*
X12115800Y27533600D03*
X10414000Y29210000D03*
X22606000Y24638000D03*
X26924000Y26162000D03*
X25146000Y30988000D03*
X28194000Y30988000D03*
X30734000Y30734000D03*
X30226000Y22860000D03*
X30226000Y23876000D03*
X27940000Y20574000D03*
X27940000Y19050000D03*
X30734000Y16256000D03*
X30480000Y14986000D03*
X30734000Y11176000D03*
X29210000Y6096000D03*
X29464000Y3810000D03*
X30988000Y1524000D03*
X30734000Y2794000D03*
X30988000Y4318000D03*
X28194000Y762000D03*
X26670000Y762000D03*
X20828000Y7112000D03*
X10922000Y12192000D03*
X16002000Y15240000D03*
X2844800Y28422600D03*
X29591000Y8483600D03*
X1854200Y28448000D03*
X29997400Y1168400D03*
X17526000Y13792200D03*
X20370800Y20701000D03*
X6324600Y12090400D03*
X10033000Y10820400D03*
X30353000Y10312400D03*
X16916400Y2489200D03*
X14757400Y25781000D03*
X8153400Y30149800D03*
X14808200Y26898600D03*
X15925800Y26924000D03*
X14681200Y2514600D03*
X5969000Y28422600D03*
X3708400Y22428200D03*
X18846800Y10160000D03*
X3886200Y28422600D03*
D17*
X23571200Y6223000D03*
D16*
X863600Y28422600D03*
X22047200Y18516600D03*
X11861800Y14147800D03*
X13233400Y2540000D03*
X18389600Y1346200D03*
X16916400Y1346200D03*
X19888200Y16357600D03*
X6096000Y8839200D03*
X20828000Y16433800D03*
X25425400Y20574000D03*
X8026400Y18465800D03*
X16154400Y24790400D03*
X10160000Y9550400D03*
X13868400Y1524000D03*
X4953000Y28422600D03*
X18592800Y12369800D03*
X18592800Y2463800D03*
X15468600Y1473200D03*
X11277600Y11023600D03*
X14833600Y24765000D03*
X23215600Y10287000D03*
X8178800Y31013400D03*
X16078200Y25857200D03*
D17*
%TO.N,+3V3*%
X24206200Y12573000D03*
D16*
X6019801Y18338801D03*
X3835400Y23926800D03*
X20980400Y19177000D03*
D17*
X24714200Y22733000D03*
X23393400Y29692600D03*
X20853400Y11506200D03*
D16*
X10464800Y8432800D03*
%TO.N,/BAT_DET*%
X9601200Y25400000D03*
X9093200Y18440400D03*
%TO.N,+3.3VA*%
X8813800Y26822400D03*
X21310600Y25273000D03*
X10058400Y30251400D03*
X13974000Y30026800D03*
X20269200Y28727400D03*
X15468600Y20091400D03*
%TO.N,+BATT*%
X5994400Y4394200D03*
X7137400Y8661400D03*
X19354800Y10922000D03*
%TO.N,/VCC_SYS_IN*%
X25908000Y7366000D03*
X26873200Y16179800D03*
%TO.N,/GPIO21*%
X24409400Y6731000D03*
X14579461Y30598100D03*
%TO.N,/KEY1_RAW*%
X28143200Y8610600D03*
X28981400Y10972800D03*
%TO.N,/ESP_BOOT*%
X17246600Y20345400D03*
X4695234Y25634456D03*
X8382000Y20548600D03*
%TO.N,/GPIO12*%
X14554200Y19456400D03*
X8686800Y13893800D03*
%TO.N,/CHG_DET*%
X7721600Y1574800D03*
X8686800Y24942800D03*
%TO.N,/GPIO35*%
X8924393Y23046700D03*
X3505200Y18313400D03*
%TO.N,/GPIO25*%
X11557000Y18288000D03*
X3149600Y11379200D03*
%TO.N,/GPIO34*%
X23622000Y18618200D03*
X8432800Y23672800D03*
%TO.N,/GPIO32*%
X10185400Y21005800D03*
X20701000Y21717000D03*
%TO.N,/GPIO33*%
X10795000Y21742400D03*
X20904200Y22529800D03*
%TO.N,/GPIO2*%
X18669000Y18186400D03*
%TO.N,VBUS*%
X6492278Y2174278D03*
X16535400Y4597400D03*
X20929600Y13919200D03*
X18211800Y14960600D03*
X14173200Y4572000D03*
X20167600Y8712200D03*
X20802600Y8432800D03*
X4826000Y5156200D03*
%TO.N,/USB_PWR_DM*%
X14732000Y11684000D03*
X15514500Y12446000D03*
%TO.N,/GPIO4*%
X18034000Y19608800D03*
%TO.N,/GPIO18*%
X20082500Y27178000D03*
%TO.N,/GPIO23*%
X18288000Y28956000D03*
%TO.N,/CH340_TXD*%
X11781586Y16232869D03*
X15627851Y30840884D03*
%TO.N,/CH340_RXD*%
X11159235Y16974343D03*
X12924999Y30173779D03*
%TO.N,/GPIO22*%
X28397200Y26212800D03*
X16027400Y30124400D03*
%TO.N,/GPIO26*%
X12090400Y19227800D03*
X3352800Y19989800D03*
%TO.N,Net-(C8-Pad1)*%
X25654000Y11176000D03*
X21221917Y12915192D03*
%TO.N,Net-(R20-Pad2)*%
X9464300Y13369300D03*
%TD*%
D18*
%TO.N,/CH340_RXD*%
X11159235Y16974343D02*
X13081000Y18896108D01*
X13081000Y30017778D02*
X12924999Y30173779D01*
X13081000Y18896108D02*
X13081000Y30017778D01*
D19*
%TO.N,+3V3*%
X10464800Y8255000D02*
X10464800Y8432800D01*
X17272000Y7289800D02*
X17018000Y7035800D01*
X18542000Y11582400D02*
X20816300Y11582400D01*
X17983200Y11023600D02*
X18542000Y11582400D01*
X17983200Y10033000D02*
X17983200Y8647200D01*
X17983200Y8647200D02*
X17972000Y8636000D01*
X17983200Y10033000D02*
X17983200Y11023600D01*
X11684000Y7035800D02*
X10464800Y8255000D01*
X17272000Y8636000D02*
X17272000Y10033000D01*
X17272000Y8636000D02*
X17272000Y7289800D01*
X17272000Y10033000D02*
X17983200Y10033000D01*
X17018000Y7035800D02*
X11684000Y7035800D01*
D18*
%TO.N,/BAT_DET*%
X9093200Y18440400D02*
X9601200Y18948400D01*
X9601200Y18948400D02*
X9601200Y25400000D01*
D20*
%TO.N,+BATT*%
X22174200Y8102600D02*
X19354800Y10922000D01*
X20116800Y3352800D02*
X22174200Y5410200D01*
X22174200Y5410200D02*
X22174200Y8102600D01*
X5994400Y4394200D02*
X7035800Y3352800D01*
X7035800Y3352800D02*
X20116800Y3352800D01*
D19*
%TO.N,/VCC_SYS_IN*%
X25908000Y7366000D02*
X27178000Y8636000D01*
X27178000Y15875000D02*
X26873200Y16179800D01*
X27178000Y8636000D02*
X27178000Y15875000D01*
D18*
%TO.N,/GPIO21*%
X15577672Y29599889D02*
X20177133Y29599889D01*
X26178511Y8500111D02*
X24409400Y6731000D01*
X26178511Y23598511D02*
X26178511Y8500111D01*
X14579461Y30598100D02*
X15577672Y29599889D01*
X20177133Y29599889D02*
X26178511Y23598511D01*
%TO.N,/KEY1_RAW*%
X28981400Y10972800D02*
X28143200Y10134600D01*
X28143200Y10134600D02*
X28143200Y8610600D01*
%TO.N,/GPIO12*%
X14554200Y18084800D02*
X14554200Y19456400D01*
X8686800Y13893800D02*
X10363200Y13893800D01*
X10363200Y13893800D02*
X14554200Y18084800D01*
%TO.N,/CHG_DET*%
X3759200Y24942800D02*
X1803400Y22987000D01*
X1803400Y22987000D02*
X1803400Y6121400D01*
X6350000Y1574800D02*
X7721600Y1574800D01*
X8686800Y24942800D02*
X3759200Y24942800D01*
X1803400Y6121400D02*
X6350000Y1574800D01*
%TO.N,/GPIO35*%
X8924393Y22995993D02*
X8924393Y23046700D01*
X3505200Y18313400D02*
X4241800Y18313400D01*
X4241800Y18313400D02*
X8924393Y22995993D01*
%TO.N,/GPIO25*%
X3149600Y11379200D02*
X4648200Y11379200D01*
X4648200Y11379200D02*
X11557000Y18288000D01*
%TO.N,/GPIO2*%
X18736301Y18119099D02*
X18669000Y18186400D01*
X18736301Y13792301D02*
X18736301Y18119099D01*
X15172000Y8636000D02*
X15172000Y10228000D01*
X15172000Y10228000D02*
X18736301Y13792301D01*
%TO.N,/USB_PWR_DM*%
X14752500Y11684000D02*
X15514500Y12446000D01*
X14732000Y11684000D02*
X14752500Y11684000D01*
%TO.N,/GPIO4*%
X18034000Y19146442D02*
X18034000Y19608800D01*
X12372000Y8636000D02*
X12372000Y13484442D01*
X12372000Y13484442D02*
X18034000Y19146442D01*
%TO.N,/GPIO18*%
X20082500Y27178000D02*
X19846299Y26941799D01*
X19846299Y20111597D02*
X13772000Y14037298D01*
X13772000Y14037298D02*
X13772000Y8636000D01*
X19846299Y26941799D02*
X19846299Y20111597D01*
%TO.N,/GPIO23*%
X18558501Y19247371D02*
X18558501Y28685499D01*
X18558501Y28685499D02*
X18288000Y28956000D01*
X13072000Y8636000D02*
X13072000Y13760870D01*
X13072000Y13760870D02*
X18558501Y19247371D01*
%TO.N,/CH340_TXD*%
X13690600Y30911800D02*
X13690600Y30485158D01*
X13449499Y30244057D02*
X13449499Y29809543D01*
X13449499Y29809543D02*
X13690600Y29568442D01*
X13690600Y30485158D02*
X13449499Y30244057D01*
X13690600Y29568442D02*
X13690600Y18141883D01*
X15627851Y30840884D02*
X15277535Y31191200D01*
X15277535Y31191200D02*
X13970000Y31191200D01*
X13970000Y31191200D02*
X13690600Y30911800D01*
X13690600Y18141883D02*
X11781586Y16232869D01*
%TO.N,/GPIO22*%
X28397200Y26212800D02*
X24292899Y30317101D01*
X24292899Y30317101D02*
X16220101Y30317101D01*
X16220101Y30317101D02*
X16027400Y30124400D01*
%TO.N,/GPIO26*%
X3352800Y19989800D02*
X2336800Y18973800D01*
X10998200Y19227800D02*
X12090400Y19227800D01*
X9194800Y17424400D02*
X10998200Y19227800D01*
X2336800Y17424400D02*
X9194800Y17424400D01*
X2336800Y18973800D02*
X2336800Y17424400D01*
%TO.N,Net-(C8-Pad1)*%
X22961109Y11176000D02*
X21221917Y12915192D01*
X25654000Y11176000D02*
X22961109Y11176000D01*
%TO.N,Net-(R20-Pad2)*%
X18672000Y8636000D02*
X18672000Y7064200D01*
X13335000Y4470400D02*
X12877800Y4013200D01*
X17500600Y5892800D02*
X14351000Y5892800D01*
X9169400Y5232400D02*
X9169400Y13074400D01*
X18672000Y7064200D02*
X17500600Y5892800D01*
X14351000Y5892800D02*
X13335000Y4876800D01*
X9169400Y13074400D02*
X9464300Y13369300D01*
X13335000Y4876800D02*
X13335000Y4470400D01*
X10388600Y4013200D02*
X9169400Y5232400D01*
X12877800Y4013200D02*
X10388600Y4013200D01*
%TD*%
%TA.AperFunction,Conductor*%
%TO.N,GND*%
G36*
X13814716Y31532687D02*
G01*
X13840026Y31488850D01*
X13831236Y31439000D01*
X13808262Y31414471D01*
X13794378Y31405194D01*
X13794377Y31405193D01*
X13771376Y31389824D01*
X13767327Y31383764D01*
X13760058Y31372885D01*
X13750855Y31361671D01*
X13520129Y31130945D01*
X13508918Y31121744D01*
X13491976Y31110424D01*
X13476607Y31087423D01*
X13476606Y31087422D01*
X13459201Y31061373D01*
X13435135Y31025357D01*
X13435134Y31025355D01*
X13431085Y31019295D01*
X13418268Y30954858D01*
X13409703Y30911800D01*
X13411125Y30904651D01*
X13413678Y30891817D01*
X13415100Y30877380D01*
X13415100Y30629926D01*
X13397787Y30582360D01*
X13393426Y30577600D01*
X13366171Y30550345D01*
X13320295Y30528953D01*
X13271400Y30542054D01*
X13265135Y30547726D01*
X13264813Y30547357D01*
X13260838Y30550825D01*
X13257399Y30554816D01*
X13252980Y30557680D01*
X13252978Y30557682D01*
X13190779Y30597997D01*
X13137094Y30632794D01*
X13033167Y30663875D01*
X13004791Y30672361D01*
X13004790Y30672361D01*
X12999738Y30673872D01*
X12926102Y30674322D01*
X12861645Y30674716D01*
X12861644Y30674716D01*
X12856375Y30674748D01*
X12718528Y30635351D01*
X12597279Y30558849D01*
X12502376Y30451391D01*
X12441446Y30321616D01*
X12419390Y30179956D01*
X12420073Y30174733D01*
X12420073Y30174730D01*
X12422707Y30154587D01*
X12437979Y30037800D01*
X12495719Y29906576D01*
X12499111Y29902541D01*
X12584579Y29800863D01*
X12584582Y29800860D01*
X12587969Y29796831D01*
X12602227Y29787340D01*
X12702923Y29720310D01*
X12702926Y29720309D01*
X12707312Y29717389D01*
X12712344Y29715817D01*
X12753567Y29702938D01*
X12793807Y29672229D01*
X12805500Y29632305D01*
X12805500Y19040876D01*
X12788187Y18993310D01*
X12783826Y18988550D01*
X12169838Y18374562D01*
X12123962Y18353170D01*
X12075067Y18366271D01*
X12046033Y18407735D01*
X12044259Y18416399D01*
X12043070Y18424702D01*
X12042323Y18429918D01*
X12029179Y18458828D01*
X11985166Y18555629D01*
X11982984Y18560428D01*
X11978518Y18565612D01*
X11954914Y18593005D01*
X11941984Y18608011D01*
X11924049Y18655346D01*
X11940737Y18703135D01*
X11984239Y18729016D01*
X12007407Y18729330D01*
X12009557Y18728658D01*
X12014820Y18728562D01*
X12014823Y18728561D01*
X12082595Y18727319D01*
X12152899Y18726030D01*
X12157982Y18727416D01*
X12157984Y18727416D01*
X12286127Y18762352D01*
X12286129Y18762353D01*
X12291217Y18763740D01*
X12372300Y18813525D01*
X12408898Y18835996D01*
X12408899Y18835997D01*
X12413391Y18838755D01*
X12509600Y18945046D01*
X12572110Y19074067D01*
X12595896Y19215446D01*
X12596047Y19227800D01*
X12575723Y19369718D01*
X12549941Y19426424D01*
X12518566Y19495429D01*
X12516384Y19500228D01*
X12437169Y19592161D01*
X12426240Y19604845D01*
X12426239Y19604846D01*
X12422800Y19608837D01*
X12418381Y19611701D01*
X12418379Y19611703D01*
X12374689Y19640021D01*
X12302495Y19686815D01*
X12187185Y19721300D01*
X12170192Y19726382D01*
X12170191Y19726382D01*
X12165139Y19727893D01*
X12091503Y19728343D01*
X12027046Y19728737D01*
X12027045Y19728737D01*
X12021776Y19728769D01*
X11883929Y19689372D01*
X11879469Y19686558D01*
X11865856Y19677969D01*
X11762680Y19612870D01*
X11710728Y19554045D01*
X11688004Y19528315D01*
X11643540Y19504122D01*
X11632538Y19503300D01*
X11032620Y19503300D01*
X11018184Y19504722D01*
X11005349Y19507275D01*
X10998200Y19508697D01*
X10971068Y19503300D01*
X10971065Y19503300D01*
X10941838Y19497486D01*
X10890705Y19487315D01*
X10884643Y19483264D01*
X10884642Y19483264D01*
X10863199Y19468936D01*
X10848735Y19459271D01*
X10822578Y19441794D01*
X10822577Y19441793D01*
X10799576Y19426424D01*
X10795527Y19420364D01*
X10788258Y19409485D01*
X10779055Y19398271D01*
X9719904Y18339120D01*
X9674028Y18317728D01*
X9625133Y18330829D01*
X9596099Y18372293D01*
X9594604Y18403723D01*
X9598221Y18425223D01*
X9598696Y18428046D01*
X9598847Y18440400D01*
X9589559Y18505255D01*
X9599954Y18554793D01*
X9610486Y18568070D01*
X9771671Y18729255D01*
X9782882Y18738456D01*
X9799824Y18749776D01*
X9825775Y18788613D01*
X9860715Y18840905D01*
X9864451Y18859684D01*
X9876700Y18921267D01*
X9876700Y18921271D01*
X9880674Y18941251D01*
X9882096Y18948400D01*
X9878122Y18968380D01*
X9876700Y18982816D01*
X9876700Y20477198D01*
X9894013Y20524764D01*
X9937850Y20550074D01*
X9972767Y20547831D01*
X9992264Y20541740D01*
X10104557Y20506658D01*
X10109825Y20506561D01*
X10109828Y20506561D01*
X10170133Y20505456D01*
X10247899Y20504030D01*
X10252982Y20505416D01*
X10252984Y20505416D01*
X10381127Y20540352D01*
X10381129Y20540353D01*
X10386217Y20541740D01*
X10467300Y20591525D01*
X10503898Y20613996D01*
X10503899Y20613997D01*
X10508391Y20616755D01*
X10604600Y20723046D01*
X10667110Y20852067D01*
X10690896Y20993446D01*
X10691047Y21005800D01*
X10670723Y21147718D01*
X10669957Y21149402D01*
X10673133Y21198500D01*
X10708106Y21235095D01*
X10742248Y21242743D01*
X10857499Y21240630D01*
X10862582Y21242016D01*
X10862584Y21242016D01*
X10990727Y21276952D01*
X10990729Y21276953D01*
X10995817Y21278340D01*
X11082991Y21331865D01*
X11113498Y21350596D01*
X11113499Y21350597D01*
X11117991Y21353355D01*
X11214200Y21459646D01*
X11276710Y21588667D01*
X11300496Y21730046D01*
X11300647Y21742400D01*
X11280323Y21884318D01*
X11220984Y22014828D01*
X11127400Y22123437D01*
X11122981Y22126301D01*
X11122979Y22126303D01*
X11042337Y22178572D01*
X11007095Y22201415D01*
X10903168Y22232496D01*
X10874792Y22240982D01*
X10874791Y22240982D01*
X10869739Y22242493D01*
X10796103Y22242943D01*
X10731646Y22243337D01*
X10731645Y22243337D01*
X10726376Y22243369D01*
X10588529Y22203972D01*
X10467280Y22127470D01*
X10372377Y22020012D01*
X10311447Y21890237D01*
X10310637Y21885032D01*
X10310636Y21885030D01*
X10306571Y21858918D01*
X10289391Y21748577D01*
X10290074Y21743354D01*
X10290074Y21743351D01*
X10295505Y21701823D01*
X10307980Y21606421D01*
X10310105Y21601591D01*
X10310571Y21599923D01*
X10306688Y21549453D01*
X10271272Y21513287D01*
X10238845Y21506023D01*
X10196640Y21506281D01*
X10122046Y21506737D01*
X10122045Y21506737D01*
X10116776Y21506769D01*
X9978929Y21467372D01*
X9978800Y21467290D01*
X9930426Y21463823D01*
X9889423Y21493506D01*
X9876700Y21534992D01*
X9876700Y24940396D01*
X9894013Y24987962D01*
X9911974Y25003454D01*
X9924191Y25010955D01*
X10020400Y25117246D01*
X10082910Y25246267D01*
X10106696Y25387646D01*
X10106847Y25400000D01*
X10086523Y25541918D01*
X10027184Y25672428D01*
X9952303Y25759331D01*
X9937040Y25777045D01*
X9937039Y25777046D01*
X9933600Y25781037D01*
X9929181Y25783901D01*
X9929179Y25783903D01*
X9861662Y25827665D01*
X9813295Y25859015D01*
X9709368Y25890096D01*
X9680992Y25898582D01*
X9680991Y25898582D01*
X9675939Y25900093D01*
X9602303Y25900543D01*
X9537846Y25900937D01*
X9537845Y25900937D01*
X9532576Y25900969D01*
X9394729Y25861572D01*
X9273480Y25785070D01*
X9241395Y25748740D01*
X9208091Y25711030D01*
X9178577Y25677612D01*
X9117647Y25547837D01*
X9116837Y25542632D01*
X9116836Y25542630D01*
X9097063Y25415630D01*
X9095591Y25406177D01*
X9095302Y25406222D01*
X9078480Y25361705D01*
X9034336Y25336933D01*
X8982132Y25347863D01*
X8898895Y25401815D01*
X8794968Y25432896D01*
X8766592Y25441382D01*
X8766591Y25441382D01*
X8761539Y25442893D01*
X8687903Y25443343D01*
X8623446Y25443737D01*
X8623445Y25443737D01*
X8618176Y25443769D01*
X8480329Y25404372D01*
X8359080Y25327870D01*
X8311461Y25273951D01*
X8284404Y25243315D01*
X8239940Y25219122D01*
X8228938Y25218300D01*
X5160478Y25218300D01*
X5112912Y25235613D01*
X5087602Y25279450D01*
X5096392Y25329300D01*
X5105611Y25341954D01*
X5114434Y25351702D01*
X5176944Y25480723D01*
X5200730Y25622102D01*
X5200881Y25634456D01*
X5189716Y25712416D01*
X5181304Y25771159D01*
X5181304Y25771160D01*
X5180557Y25776374D01*
X5121218Y25906884D01*
X5027634Y26015493D01*
X5023215Y26018357D01*
X5023213Y26018359D01*
X4967731Y26054320D01*
X4907329Y26093471D01*
X4803402Y26124552D01*
X4775026Y26133038D01*
X4775025Y26133038D01*
X4769973Y26134549D01*
X4696337Y26134999D01*
X4631880Y26135393D01*
X4631879Y26135393D01*
X4626610Y26135425D01*
X4488763Y26096028D01*
X4367514Y26019526D01*
X4360427Y26011501D01*
X4288489Y25930046D01*
X4272611Y25912068D01*
X4211681Y25782293D01*
X4210871Y25777088D01*
X4210870Y25777086D01*
X4204251Y25734572D01*
X4189625Y25640633D01*
X4190308Y25635410D01*
X4190308Y25635407D01*
X4190807Y25631594D01*
X4208214Y25498477D01*
X4265954Y25367253D01*
X4269346Y25363218D01*
X4288933Y25339916D01*
X4306287Y25292364D01*
X4289016Y25244783D01*
X4245200Y25219435D01*
X4232287Y25218300D01*
X3793620Y25218300D01*
X3779183Y25219722D01*
X3766349Y25222275D01*
X3759200Y25223697D01*
X3732068Y25218300D01*
X3732065Y25218300D01*
X3696571Y25211239D01*
X3651705Y25202315D01*
X3617577Y25179511D01*
X3583578Y25156794D01*
X3583577Y25156793D01*
X3560576Y25141424D01*
X3556527Y25135364D01*
X3549258Y25124485D01*
X3540055Y25113271D01*
X1632929Y23206145D01*
X1621718Y23196944D01*
X1604776Y23185624D01*
X1589407Y23162623D01*
X1589406Y23162622D01*
X1571929Y23136465D01*
X1543885Y23094495D01*
X1543885Y23094494D01*
X1541458Y23082294D01*
X1532218Y23035841D01*
X1522503Y22987000D01*
X1523925Y22979851D01*
X1526478Y22967017D01*
X1527900Y22952580D01*
X1527900Y6155820D01*
X1526478Y6141384D01*
X1522503Y6121400D01*
X1523925Y6114251D01*
X1527900Y6094268D01*
X1527900Y6094267D01*
X1528466Y6091424D01*
X1543885Y6013905D01*
X1604776Y5922776D01*
X1621718Y5911456D01*
X1632929Y5902255D01*
X6130855Y1404329D01*
X6140056Y1393118D01*
X6151376Y1376176D01*
X6174377Y1360807D01*
X6174378Y1360806D01*
X6242505Y1315285D01*
X6249650Y1313864D01*
X6249652Y1313863D01*
X6322860Y1299301D01*
X6322865Y1299300D01*
X6322868Y1299300D01*
X6322876Y1299299D01*
X6350000Y1293904D01*
X6357149Y1295326D01*
X6369980Y1297878D01*
X6384416Y1299300D01*
X7264826Y1299300D01*
X7312392Y1281987D01*
X7321472Y1272916D01*
X7381180Y1201884D01*
X7381183Y1201881D01*
X7384570Y1197852D01*
X7388957Y1194932D01*
X7499524Y1121331D01*
X7499527Y1121330D01*
X7503913Y1118410D01*
X7640757Y1075658D01*
X7646025Y1075561D01*
X7646028Y1075561D01*
X7706333Y1074456D01*
X7784099Y1073030D01*
X7789182Y1074416D01*
X7789184Y1074416D01*
X7917327Y1109352D01*
X7917329Y1109353D01*
X7922417Y1110740D01*
X8044591Y1185755D01*
X8140800Y1292046D01*
X8203310Y1421067D01*
X8227096Y1562446D01*
X8227247Y1574800D01*
X8206923Y1716718D01*
X8201772Y1728048D01*
X10274000Y1728048D01*
X10277638Y1718052D01*
X10282925Y1715000D01*
X10910952Y1715000D01*
X10920948Y1718638D01*
X10924000Y1723925D01*
X10924000Y1728048D01*
X11424000Y1728048D01*
X11427638Y1718052D01*
X11432925Y1715000D01*
X12060952Y1715000D01*
X12070948Y1718638D01*
X12074000Y1723925D01*
X12074000Y1728048D01*
X18914000Y1728048D01*
X18917638Y1718052D01*
X18922925Y1715000D01*
X19550952Y1715000D01*
X19560948Y1718638D01*
X19564000Y1723925D01*
X19564000Y1728048D01*
X20064000Y1728048D01*
X20067638Y1718052D01*
X20072925Y1715000D01*
X20700952Y1715000D01*
X20710948Y1718638D01*
X20714000Y1723925D01*
X20714000Y1810224D01*
X20713798Y1814090D01*
X20699588Y1949293D01*
X20697983Y1956842D01*
X20641917Y2129393D01*
X20638781Y2136436D01*
X20548064Y2293563D01*
X20543534Y2299799D01*
X20422127Y2434634D01*
X20416396Y2439794D01*
X20269623Y2546432D01*
X20262928Y2550297D01*
X20097193Y2624086D01*
X20089853Y2626471D01*
X20076763Y2629254D01*
X20066230Y2627774D01*
X20064113Y2625422D01*
X20064000Y2624842D01*
X20064000Y1728048D01*
X19564000Y1728048D01*
X19564000Y2618919D01*
X19560362Y2628915D01*
X19557623Y2630496D01*
X19557030Y2630485D01*
X19538147Y2626471D01*
X19530807Y2624086D01*
X19365073Y2550297D01*
X19358378Y2546432D01*
X19211604Y2439794D01*
X19205873Y2434634D01*
X19084466Y2299799D01*
X19079936Y2293563D01*
X18989219Y2136436D01*
X18986083Y2129393D01*
X18930017Y1956842D01*
X18928412Y1949293D01*
X18914202Y1814090D01*
X18914000Y1810224D01*
X18914000Y1728048D01*
X12074000Y1728048D01*
X12074000Y1810224D01*
X12073798Y1814090D01*
X12059588Y1949293D01*
X12057983Y1956842D01*
X12001917Y2129393D01*
X11998781Y2136436D01*
X11908064Y2293563D01*
X11903534Y2299799D01*
X11782127Y2434634D01*
X11776396Y2439794D01*
X11629623Y2546432D01*
X11622928Y2550297D01*
X11457193Y2624086D01*
X11449853Y2626471D01*
X11436763Y2629254D01*
X11426230Y2627774D01*
X11424113Y2625422D01*
X11424000Y2624842D01*
X11424000Y1728048D01*
X10924000Y1728048D01*
X10924000Y2618919D01*
X10920362Y2628915D01*
X10917623Y2630496D01*
X10917030Y2630485D01*
X10898147Y2626471D01*
X10890807Y2624086D01*
X10725073Y2550297D01*
X10718378Y2546432D01*
X10571604Y2439794D01*
X10565873Y2434634D01*
X10444466Y2299799D01*
X10439936Y2293563D01*
X10349219Y2136436D01*
X10346083Y2129393D01*
X10290017Y1956842D01*
X10288412Y1949293D01*
X10274202Y1814090D01*
X10274000Y1810224D01*
X10274000Y1728048D01*
X8201772Y1728048D01*
X8179225Y1777638D01*
X8149766Y1842429D01*
X8147584Y1847228D01*
X8054000Y1955837D01*
X8049581Y1958701D01*
X8049579Y1958703D01*
X7993275Y1995197D01*
X7933695Y2033815D01*
X7829768Y2064896D01*
X7801392Y2073382D01*
X7801391Y2073382D01*
X7796339Y2074893D01*
X7722703Y2075343D01*
X7658246Y2075737D01*
X7658245Y2075737D01*
X7652976Y2075769D01*
X7515129Y2036372D01*
X7393880Y1959870D01*
X7333519Y1891524D01*
X7319204Y1875315D01*
X7274740Y1851122D01*
X7263738Y1850300D01*
X7009585Y1850300D01*
X6962019Y1867613D01*
X6936709Y1911450D01*
X6942990Y1956565D01*
X6971688Y2015798D01*
X6973988Y2020545D01*
X6997774Y2161924D01*
X6997925Y2174278D01*
X6992078Y2215108D01*
X6978348Y2310981D01*
X6978348Y2310982D01*
X6977601Y2316196D01*
X6947536Y2382322D01*
X6920444Y2441907D01*
X6918262Y2446706D01*
X6824678Y2555315D01*
X6820259Y2558179D01*
X6820257Y2558181D01*
X6780346Y2584050D01*
X6704373Y2633293D01*
X6600446Y2664374D01*
X6572070Y2672860D01*
X6572069Y2672860D01*
X6567017Y2674371D01*
X6493381Y2674821D01*
X6428924Y2675215D01*
X6428923Y2675215D01*
X6423654Y2675247D01*
X6285807Y2635850D01*
X6164558Y2559348D01*
X6069655Y2451890D01*
X6067416Y2447121D01*
X6067412Y2447115D01*
X6048266Y2406336D01*
X6012380Y2370637D01*
X5961942Y2366358D01*
X5928956Y2385460D01*
X3152039Y5162377D01*
X4320391Y5162377D01*
X4321074Y5157154D01*
X4321074Y5157151D01*
X4326083Y5118847D01*
X4338980Y5020221D01*
X4396720Y4888997D01*
X4412484Y4870243D01*
X4485580Y4783284D01*
X4485583Y4783281D01*
X4488970Y4779252D01*
X4500999Y4771245D01*
X4603924Y4702731D01*
X4603927Y4702730D01*
X4608313Y4699810D01*
X4745157Y4657058D01*
X4750425Y4656961D01*
X4750428Y4656961D01*
X4810733Y4655856D01*
X4888499Y4654430D01*
X4893582Y4655816D01*
X4893584Y4655816D01*
X5021727Y4690752D01*
X5021729Y4690753D01*
X5026817Y4692140D01*
X5089467Y4730607D01*
X5144498Y4764396D01*
X5144499Y4764397D01*
X5148991Y4767155D01*
X5245200Y4873446D01*
X5307710Y5002467D01*
X5331496Y5143846D01*
X5331647Y5156200D01*
X5321758Y5225251D01*
X5312070Y5292903D01*
X5312070Y5292904D01*
X5311323Y5298118D01*
X5268670Y5391930D01*
X5254166Y5423829D01*
X5251984Y5428628D01*
X5158400Y5537237D01*
X5153981Y5540101D01*
X5153979Y5540103D01*
X5092596Y5579889D01*
X5038095Y5615215D01*
X4934168Y5646296D01*
X4905792Y5654782D01*
X4905791Y5654782D01*
X4900739Y5656293D01*
X4827103Y5656743D01*
X4762646Y5657137D01*
X4762645Y5657137D01*
X4757376Y5657169D01*
X4619529Y5617772D01*
X4498280Y5541270D01*
X4444966Y5480903D01*
X4426677Y5460194D01*
X4403377Y5433812D01*
X4342447Y5304037D01*
X4341637Y5298832D01*
X4341636Y5298830D01*
X4335518Y5259532D01*
X4320391Y5162377D01*
X3152039Y5162377D01*
X2100574Y6213842D01*
X2079182Y6259718D01*
X2078900Y6266168D01*
X2078900Y8667577D01*
X6631791Y8667577D01*
X6632474Y8662354D01*
X6632474Y8662351D01*
X6632973Y8658538D01*
X6650380Y8525421D01*
X6686125Y8444184D01*
X6704284Y8402916D01*
X6708120Y8394197D01*
X6728582Y8369855D01*
X6796980Y8288484D01*
X6796983Y8288481D01*
X6800370Y8284452D01*
X6804757Y8281532D01*
X6915324Y8207931D01*
X6915327Y8207930D01*
X6919713Y8205010D01*
X7056557Y8162258D01*
X7061825Y8162161D01*
X7061828Y8162161D01*
X7122133Y8161056D01*
X7199899Y8159630D01*
X7204982Y8161016D01*
X7204984Y8161016D01*
X7333127Y8195952D01*
X7333129Y8195953D01*
X7338217Y8197340D01*
X7412699Y8243072D01*
X7455898Y8269596D01*
X7455899Y8269597D01*
X7460391Y8272355D01*
X7556600Y8378646D01*
X7619110Y8507667D01*
X7642896Y8649046D01*
X7643047Y8661400D01*
X7628315Y8764268D01*
X7623470Y8798103D01*
X7623470Y8798104D01*
X7622723Y8803318D01*
X7581324Y8894372D01*
X7565566Y8929029D01*
X7563384Y8933828D01*
X7500471Y9006842D01*
X7473240Y9038445D01*
X7473239Y9038446D01*
X7469800Y9042437D01*
X7465381Y9045301D01*
X7465379Y9045303D01*
X7385203Y9097270D01*
X7349495Y9120415D01*
X7245568Y9151496D01*
X7217192Y9159982D01*
X7217191Y9159982D01*
X7212139Y9161493D01*
X7138503Y9161943D01*
X7074046Y9162337D01*
X7074045Y9162337D01*
X7068776Y9162369D01*
X6930929Y9122972D01*
X6809680Y9046470D01*
X6714777Y8939012D01*
X6653847Y8809237D01*
X6631791Y8667577D01*
X2078900Y8667577D01*
X2078900Y17126938D01*
X2096213Y17174504D01*
X2140050Y17199814D01*
X2194013Y17188467D01*
X2229305Y17164885D01*
X2236450Y17163464D01*
X2236452Y17163463D01*
X2329651Y17144925D01*
X2336800Y17143503D01*
X2356784Y17147478D01*
X2371220Y17148900D01*
X9160380Y17148900D01*
X9174816Y17147478D01*
X9194800Y17143503D01*
X9221932Y17148900D01*
X9221935Y17148900D01*
X9257429Y17155961D01*
X9302295Y17164885D01*
X9344265Y17192929D01*
X9370422Y17210406D01*
X9370423Y17210407D01*
X9393424Y17225776D01*
X9404744Y17242718D01*
X9413945Y17253929D01*
X11090642Y18930626D01*
X11136518Y18952018D01*
X11142968Y18952300D01*
X11633626Y18952300D01*
X11681192Y18934987D01*
X11690271Y18925916D01*
X11706060Y18907133D01*
X11723415Y18859582D01*
X11706144Y18812001D01*
X11662329Y18786653D01*
X11638474Y18786330D01*
X11636795Y18786581D01*
X11631739Y18788093D01*
X11557168Y18788549D01*
X11493646Y18788937D01*
X11493645Y18788937D01*
X11488376Y18788969D01*
X11350529Y18749572D01*
X11229280Y18673070D01*
X11213627Y18655346D01*
X11152598Y18586243D01*
X11134377Y18565612D01*
X11073447Y18435837D01*
X11072637Y18430632D01*
X11072636Y18430630D01*
X11068447Y18403723D01*
X11051391Y18294177D01*
X11052074Y18288954D01*
X11052074Y18288950D01*
X11060792Y18222279D01*
X11049793Y18172870D01*
X11039743Y18160359D01*
X4555758Y11676374D01*
X4509882Y11654982D01*
X4503432Y11654700D01*
X3606856Y11654700D01*
X3559290Y11672013D01*
X3550796Y11680396D01*
X3485440Y11756245D01*
X3485439Y11756246D01*
X3482000Y11760237D01*
X3477581Y11763101D01*
X3477579Y11763103D01*
X3413615Y11804562D01*
X3361695Y11838215D01*
X3244957Y11873127D01*
X3229392Y11877782D01*
X3229391Y11877782D01*
X3224339Y11879293D01*
X3150703Y11879743D01*
X3086246Y11880137D01*
X3086245Y11880137D01*
X3080976Y11880169D01*
X2943129Y11840772D01*
X2821880Y11764270D01*
X2785735Y11723343D01*
X2737585Y11668823D01*
X2726977Y11656812D01*
X2666047Y11527037D01*
X2643991Y11385377D01*
X2644674Y11380154D01*
X2644674Y11380151D01*
X2649276Y11344960D01*
X2662580Y11243221D01*
X2720320Y11111997D01*
X2744169Y11083626D01*
X2809180Y11006284D01*
X2809183Y11006281D01*
X2812570Y11002252D01*
X2824869Y10994065D01*
X2927524Y10925731D01*
X2927527Y10925730D01*
X2931913Y10922810D01*
X3068757Y10880058D01*
X3074025Y10879961D01*
X3074028Y10879961D01*
X3134333Y10878856D01*
X3212099Y10877430D01*
X3217182Y10878816D01*
X3217184Y10878816D01*
X3345327Y10913752D01*
X3345329Y10913753D01*
X3350417Y10915140D01*
X3426746Y10962006D01*
X3468098Y10987396D01*
X3468099Y10987397D01*
X3472591Y10990155D01*
X3547140Y11072516D01*
X3553334Y11079359D01*
X3598090Y11103007D01*
X3608197Y11103700D01*
X4613780Y11103700D01*
X4628216Y11102278D01*
X4648200Y11098303D01*
X4675332Y11103700D01*
X4675335Y11103700D01*
X4710829Y11110761D01*
X4755695Y11119685D01*
X4764256Y11125405D01*
X4797665Y11147729D01*
X4797666Y11147730D01*
X4823822Y11165206D01*
X4823823Y11165207D01*
X4846824Y11180576D01*
X4858144Y11197518D01*
X4867345Y11208729D01*
X10545727Y16887111D01*
X10591603Y16908503D01*
X10640498Y16895402D01*
X10669532Y16853938D01*
X10671427Y16844387D01*
X10672215Y16838364D01*
X10729955Y16707140D01*
X10733347Y16703105D01*
X10818815Y16601427D01*
X10818818Y16601424D01*
X10822205Y16597395D01*
X10826592Y16594475D01*
X10937159Y16520874D01*
X10937162Y16520873D01*
X10941548Y16517953D01*
X11078392Y16475201D01*
X11083660Y16475104D01*
X11083663Y16475104D01*
X11150063Y16473887D01*
X11219053Y16472622D01*
X11219054Y16472622D01*
X11221734Y16472573D01*
X11221724Y16472011D01*
X11267348Y16461565D01*
X11297885Y16421194D01*
X11297922Y16380723D01*
X11298033Y16380706D01*
X11297222Y16375497D01*
X11297221Y16375494D01*
X11288849Y16321718D01*
X11275977Y16239046D01*
X11276660Y16233823D01*
X11276660Y16233820D01*
X11278400Y16220515D01*
X11294566Y16096890D01*
X11352306Y15965666D01*
X11355698Y15961631D01*
X11441166Y15859953D01*
X11441169Y15859950D01*
X11444556Y15855921D01*
X11448943Y15853001D01*
X11559510Y15779400D01*
X11559513Y15779399D01*
X11563899Y15776479D01*
X11594388Y15766954D01*
X11669922Y15743356D01*
X11710161Y15712647D01*
X11721247Y15663257D01*
X11700181Y15620397D01*
X10270758Y14190974D01*
X10224882Y14169582D01*
X10218432Y14169300D01*
X9144056Y14169300D01*
X9096490Y14186613D01*
X9087996Y14194996D01*
X9022640Y14270845D01*
X9022639Y14270846D01*
X9019200Y14274837D01*
X9014781Y14277701D01*
X9014779Y14277703D01*
X8969452Y14307082D01*
X8898895Y14352815D01*
X8794968Y14383896D01*
X8766592Y14392382D01*
X8766591Y14392382D01*
X8761539Y14393893D01*
X8687903Y14394343D01*
X8623446Y14394737D01*
X8623445Y14394737D01*
X8618176Y14394769D01*
X8480329Y14355372D01*
X8359080Y14278870D01*
X8351993Y14270845D01*
X8277793Y14186829D01*
X8264177Y14171412D01*
X8203247Y14041637D01*
X8181191Y13899977D01*
X8181874Y13894754D01*
X8181874Y13894751D01*
X8183183Y13884743D01*
X8199780Y13757821D01*
X8257520Y13626597D01*
X8265690Y13616878D01*
X8346380Y13520884D01*
X8346383Y13520881D01*
X8349770Y13516852D01*
X8354157Y13513932D01*
X8464724Y13440331D01*
X8464727Y13440330D01*
X8469113Y13437410D01*
X8605957Y13394658D01*
X8611225Y13394561D01*
X8611228Y13394561D01*
X8671533Y13393456D01*
X8749299Y13392030D01*
X8754382Y13393416D01*
X8754384Y13393416D01*
X8852181Y13420079D01*
X8867553Y13424270D01*
X8917998Y13420079D01*
X8953947Y13384442D01*
X8960392Y13362473D01*
X8962189Y13348725D01*
X8968267Y13302247D01*
X8956420Y13251539D01*
X8913935Y13187957D01*
X8913934Y13187955D01*
X8909885Y13181895D01*
X8908463Y13174744D01*
X8899401Y13129187D01*
X8891863Y13091290D01*
X8888503Y13074400D01*
X8889925Y13067251D01*
X8892478Y13054417D01*
X8893900Y13039980D01*
X8893900Y5266820D01*
X8892478Y5252384D01*
X8888503Y5232400D01*
X8889925Y5225251D01*
X8893900Y5205268D01*
X8893900Y5205267D01*
X8905436Y5147273D01*
X8909885Y5124905D01*
X8970776Y5033776D01*
X8987718Y5022456D01*
X8998929Y5013255D01*
X10082558Y3929626D01*
X10103950Y3883750D01*
X10090849Y3834855D01*
X10049385Y3805821D01*
X10030232Y3803300D01*
X7253055Y3803300D01*
X7205489Y3820613D01*
X7200729Y3824974D01*
X6480987Y4544716D01*
X6465949Y4566413D01*
X6422566Y4661830D01*
X6422564Y4661833D01*
X6420384Y4666628D01*
X6415918Y4671812D01*
X6330240Y4771245D01*
X6330239Y4771246D01*
X6326800Y4775237D01*
X6322381Y4778101D01*
X6322379Y4778103D01*
X6282468Y4803972D01*
X6206495Y4853215D01*
X6086848Y4888997D01*
X6074192Y4892782D01*
X6074191Y4892782D01*
X6069139Y4894293D01*
X5995503Y4894743D01*
X5931046Y4895137D01*
X5931045Y4895137D01*
X5925776Y4895169D01*
X5787929Y4855772D01*
X5666680Y4779270D01*
X5614191Y4719837D01*
X5589377Y4691740D01*
X5571777Y4671812D01*
X5510847Y4542037D01*
X5510037Y4536832D01*
X5510036Y4536830D01*
X5503917Y4497529D01*
X5488791Y4400377D01*
X5507380Y4258221D01*
X5565120Y4126997D01*
X5574692Y4115610D01*
X5653980Y4021284D01*
X5653983Y4021281D01*
X5657370Y4017252D01*
X5661757Y4014332D01*
X5772324Y3940731D01*
X5772327Y3940730D01*
X5776713Y3937810D01*
X5813105Y3926441D01*
X5843363Y3908134D01*
X6695223Y3056274D01*
X6701010Y3049761D01*
X6719352Y3026495D01*
X6723928Y3020690D01*
X6728477Y3017546D01*
X6728478Y3017545D01*
X6772856Y2986874D01*
X6774748Y2985522D01*
X6818166Y2953452D01*
X6818170Y2953450D01*
X6822616Y2950166D01*
X6827682Y2948388D01*
X6827985Y2948203D01*
X6828245Y2948076D01*
X6830306Y2947026D01*
X6830611Y2946864D01*
X6830955Y2946720D01*
X6835369Y2943669D01*
X6875724Y2930906D01*
X6892068Y2925737D01*
X6894271Y2925002D01*
X6941751Y2908329D01*
X6950431Y2905281D01*
X6955794Y2905071D01*
X6956813Y2904813D01*
X6960503Y2904094D01*
X6964530Y2902820D01*
X6971137Y2902300D01*
X7024839Y2902300D01*
X7027745Y2902243D01*
X7080270Y2900179D01*
X7085794Y2899962D01*
X7091136Y2901378D01*
X7095436Y2901853D01*
X7103554Y2902300D01*
X20085649Y2902300D01*
X20094346Y2901787D01*
X20105992Y2900409D01*
X20131110Y2897436D01*
X20136552Y2898430D01*
X20136555Y2898430D01*
X20189600Y2908118D01*
X20191893Y2908500D01*
X20245296Y2916529D01*
X20245297Y2916529D01*
X20250762Y2917351D01*
X20255598Y2919674D01*
X20255936Y2919756D01*
X20256200Y2919847D01*
X20258437Y2920573D01*
X20258746Y2920668D01*
X20259096Y2920812D01*
X20264373Y2921775D01*
X20317142Y2949186D01*
X20319213Y2950221D01*
X20367892Y2973596D01*
X20367893Y2973597D01*
X20372879Y2975991D01*
X20376823Y2979637D01*
X20377731Y2980179D01*
X20380842Y2982275D01*
X20384588Y2984221D01*
X20389628Y2988525D01*
X20427598Y3026495D01*
X20429693Y3028509D01*
X20468296Y3064193D01*
X20472356Y3067946D01*
X20475134Y3072728D01*
X20477831Y3076095D01*
X20483257Y3082154D01*
X22470726Y5069623D01*
X22477239Y5075410D01*
X22501965Y5094903D01*
X22506310Y5098328D01*
X22540153Y5147294D01*
X22541453Y5149113D01*
X22576834Y5197017D01*
X22578612Y5202081D01*
X22578801Y5202391D01*
X22578932Y5202659D01*
X22579975Y5204704D01*
X22580130Y5204997D01*
X22580279Y5205354D01*
X22583331Y5209769D01*
X22584999Y5215042D01*
X22585002Y5215049D01*
X22601274Y5266500D01*
X22602009Y5268705D01*
X22619886Y5319611D01*
X22619886Y5319612D01*
X22621719Y5324831D01*
X22621929Y5330194D01*
X22622187Y5331213D01*
X22622906Y5334903D01*
X22624180Y5338930D01*
X22624700Y5345537D01*
X22624700Y5399239D01*
X22624757Y5402145D01*
X22626821Y5454670D01*
X22627038Y5460194D01*
X22625622Y5465536D01*
X22625147Y5469836D01*
X22624700Y5477954D01*
X22624700Y8071449D01*
X22625213Y8080146D01*
X22628914Y8111419D01*
X22629564Y8116910D01*
X22628571Y8122349D01*
X22618881Y8175409D01*
X22618500Y8177700D01*
X22610472Y8231091D01*
X22610471Y8231094D01*
X22609649Y8236562D01*
X22607326Y8241401D01*
X22607238Y8241758D01*
X22607142Y8242040D01*
X22606424Y8244250D01*
X22606334Y8244543D01*
X22606190Y8244894D01*
X22605226Y8250173D01*
X22577776Y8303018D01*
X22576795Y8304980D01*
X22551009Y8358679D01*
X22547365Y8362620D01*
X22546826Y8363523D01*
X22544728Y8366637D01*
X22542780Y8370388D01*
X22540041Y8373595D01*
X22540038Y8373599D01*
X22539410Y8374333D01*
X22538475Y8375428D01*
X22500505Y8413398D01*
X22498491Y8415493D01*
X22462807Y8454096D01*
X22459054Y8458156D01*
X22454272Y8460934D01*
X22450905Y8463631D01*
X22444846Y8469057D01*
X19841387Y11072516D01*
X19826349Y11094213D01*
X19822682Y11102278D01*
X19811318Y11127272D01*
X19807390Y11177737D01*
X19836821Y11218921D01*
X19878682Y11231900D01*
X20270471Y11231900D01*
X20318037Y11214587D01*
X20329179Y11202948D01*
X20406426Y11102278D01*
X20425118Y11077918D01*
X20428969Y11074963D01*
X20546711Y10984616D01*
X20546715Y10984614D01*
X20550559Y10981664D01*
X20696638Y10921156D01*
X20701440Y10920524D01*
X20701443Y10920523D01*
X20848592Y10901151D01*
X20853400Y10900518D01*
X20858208Y10901151D01*
X21005357Y10920523D01*
X21005360Y10920524D01*
X21010162Y10921156D01*
X21156241Y10981664D01*
X21160085Y10984614D01*
X21160089Y10984616D01*
X21277831Y11074963D01*
X21281682Y11077918D01*
X21300374Y11102278D01*
X21374984Y11199511D01*
X21374986Y11199515D01*
X21377936Y11203359D01*
X21438444Y11349438D01*
X21439401Y11356703D01*
X21458449Y11501392D01*
X21459082Y11506200D01*
X21457024Y11521830D01*
X21439077Y11658157D01*
X21439076Y11658160D01*
X21438444Y11662962D01*
X21377936Y11809041D01*
X21374986Y11812885D01*
X21374984Y11812889D01*
X21284637Y11930631D01*
X21281682Y11934482D01*
X21265983Y11946528D01*
X21160089Y12027784D01*
X21160085Y12027786D01*
X21156241Y12030736D01*
X21010162Y12091244D01*
X21005360Y12091876D01*
X21005357Y12091877D01*
X20858208Y12111249D01*
X20853400Y12111882D01*
X20848592Y12111249D01*
X20701443Y12091877D01*
X20701440Y12091876D01*
X20696638Y12091244D01*
X20550559Y12030736D01*
X20546715Y12027786D01*
X20546711Y12027784D01*
X20442985Y11948192D01*
X20397937Y11932900D01*
X18587292Y11932900D01*
X18571718Y11934558D01*
X18558740Y11937352D01*
X18552665Y11936633D01*
X18552664Y11936633D01*
X18525459Y11933413D01*
X18516761Y11932900D01*
X18512885Y11932900D01*
X18499254Y11930631D01*
X18494315Y11929809D01*
X18490866Y11929318D01*
X18442862Y11923637D01*
X18437348Y11920989D01*
X18436206Y11920657D01*
X18435408Y11920475D01*
X18434810Y11920286D01*
X18434048Y11919974D01*
X18432933Y11919592D01*
X18426897Y11918588D01*
X18421515Y11915684D01*
X18384356Y11895634D01*
X18381261Y11894057D01*
X18337674Y11873127D01*
X18333726Y11869808D01*
X18332781Y11868863D01*
X18329307Y11865930D01*
X18324206Y11863178D01*
X18303494Y11840772D01*
X18289860Y11826023D01*
X18287846Y11823928D01*
X17767384Y11303466D01*
X17755198Y11293625D01*
X17749189Y11289745D01*
X17749187Y11289743D01*
X17744048Y11286425D01*
X17740260Y11281620D01*
X17723306Y11260114D01*
X17717519Y11253601D01*
X17714772Y11250854D01*
X17713001Y11248376D01*
X17712997Y11248371D01*
X17703814Y11235520D01*
X17701740Y11232757D01*
X17671808Y11194789D01*
X17669782Y11189020D01*
X17669212Y11187983D01*
X17668770Y11187280D01*
X17668489Y11186740D01*
X17668172Y11185983D01*
X17667645Y11184907D01*
X17664089Y11179931D01*
X17662336Y11174069D01*
X17650240Y11133623D01*
X17649163Y11130307D01*
X17633145Y11084694D01*
X17632700Y11079556D01*
X17632700Y11078219D01*
X17632316Y11073688D01*
X17630656Y11068136D01*
X17630896Y11062026D01*
X17630896Y11062025D01*
X17632643Y11017563D01*
X17632700Y11014658D01*
X17632700Y10457500D01*
X17615387Y10409934D01*
X17571550Y10384624D01*
X17558700Y10383500D01*
X17290626Y10383500D01*
X17284240Y10383776D01*
X17261150Y10385776D01*
X17244120Y10387251D01*
X17203676Y10377204D01*
X17198014Y10376031D01*
X17178183Y10372731D01*
X17162933Y10370193D01*
X17162931Y10370192D01*
X17156897Y10369188D01*
X17151512Y10366282D01*
X17147254Y10364824D01*
X17140952Y10362386D01*
X17136813Y10360595D01*
X17130875Y10359120D01*
X17095872Y10336519D01*
X17090877Y10333565D01*
X17059589Y10316683D01*
X17059587Y10316682D01*
X17054206Y10313778D01*
X17050053Y10309285D01*
X17046515Y10306541D01*
X17041296Y10302155D01*
X17037986Y10299143D01*
X17032848Y10295825D01*
X17007049Y10263100D01*
X17003284Y10258692D01*
X16974999Y10228093D01*
X16972525Y10222497D01*
X16970052Y10218732D01*
X16966561Y10212933D01*
X16964395Y10208992D01*
X16960608Y10204189D01*
X16958581Y10198417D01*
X16958580Y10198415D01*
X16946803Y10164878D01*
X16944671Y10159493D01*
X16927818Y10121371D01*
X16927290Y10115279D01*
X16926181Y10110958D01*
X16923508Y10098546D01*
X16923490Y10098494D01*
X16921945Y10094094D01*
X16921500Y10088956D01*
X16921500Y10087353D01*
X16921431Y10085760D01*
X16920754Y10085789D01*
X16920563Y10084902D01*
X16920202Y10084980D01*
X16904187Y10040981D01*
X16860350Y10015671D01*
X16822981Y10018727D01*
X16786525Y10031529D01*
X16777790Y10033446D01*
X16758136Y10035304D01*
X16750052Y10032362D01*
X16747000Y10027075D01*
X16747000Y8535000D01*
X16729687Y8487434D01*
X16685850Y8462124D01*
X16673000Y8461000D01*
X15771000Y8461000D01*
X15723434Y8478313D01*
X15698124Y8522150D01*
X15697000Y8535000D01*
X15697000Y8824048D01*
X16047000Y8824048D01*
X16050638Y8814052D01*
X16055925Y8811000D01*
X16383952Y8811000D01*
X16393948Y8814638D01*
X16397000Y8819925D01*
X16397000Y10022951D01*
X16393362Y10032947D01*
X16388800Y10035580D01*
X16366216Y10033446D01*
X16357470Y10031527D01*
X16246519Y9992565D01*
X16197481Y9992565D01*
X16086525Y10031529D01*
X16077790Y10033446D01*
X16058136Y10035304D01*
X16050052Y10032362D01*
X16047000Y10027075D01*
X16047000Y8824048D01*
X15697000Y8824048D01*
X15697000Y10022951D01*
X15693362Y10032947D01*
X15688800Y10035580D01*
X15666216Y10033446D01*
X15657470Y10031528D01*
X15546019Y9992389D01*
X15495403Y9992963D01*
X15456998Y10025939D01*
X15447500Y10062209D01*
X15447500Y10083232D01*
X15464813Y10130798D01*
X15469174Y10135558D01*
X18906772Y13573156D01*
X18917983Y13582357D01*
X18934925Y13593677D01*
X18958405Y13628816D01*
X18972691Y13650197D01*
X18995816Y13684806D01*
X18997722Y13694384D01*
X19011801Y13765168D01*
X19011801Y13765169D01*
X19015776Y13785152D01*
X19017198Y13792301D01*
X19013223Y13812285D01*
X19011801Y13826721D01*
X19011801Y17790724D01*
X19030938Y17840383D01*
X19051532Y17863136D01*
X19088200Y17903646D01*
X19150710Y18032667D01*
X19174496Y18174046D01*
X19174647Y18186400D01*
X19154323Y18328318D01*
X19118215Y18407735D01*
X19097166Y18454029D01*
X19094984Y18458828D01*
X19012295Y18554793D01*
X19004840Y18563445D01*
X19004839Y18563446D01*
X19001400Y18567437D01*
X18996981Y18570301D01*
X18996979Y18570303D01*
X18913553Y18624377D01*
X23116391Y18624377D01*
X23117074Y18619154D01*
X23117074Y18619151D01*
X23121798Y18583030D01*
X23134980Y18482221D01*
X23192720Y18350997D01*
X23202704Y18339120D01*
X23281580Y18245284D01*
X23281583Y18245281D01*
X23284970Y18241252D01*
X23322896Y18216006D01*
X23399924Y18164731D01*
X23399927Y18164730D01*
X23404313Y18161810D01*
X23541157Y18119058D01*
X23546425Y18118961D01*
X23546428Y18118961D01*
X23606733Y18117856D01*
X23684499Y18116430D01*
X23689582Y18117816D01*
X23689584Y18117816D01*
X23817727Y18152752D01*
X23817729Y18152753D01*
X23822817Y18154140D01*
X23895742Y18198916D01*
X23940498Y18226396D01*
X23940499Y18226397D01*
X23944991Y18229155D01*
X24041200Y18335446D01*
X24103710Y18464467D01*
X24127496Y18605846D01*
X24127647Y18618200D01*
X24115484Y18703135D01*
X24108070Y18754903D01*
X24108070Y18754904D01*
X24107323Y18760118D01*
X24103036Y18769548D01*
X24050166Y18885829D01*
X24047984Y18890628D01*
X23954400Y18999237D01*
X23949981Y19002101D01*
X23949979Y19002103D01*
X23893834Y19038494D01*
X23834095Y19077215D01*
X23730168Y19108296D01*
X23701792Y19116782D01*
X23701791Y19116782D01*
X23696739Y19118293D01*
X23623103Y19118743D01*
X23558646Y19119137D01*
X23558645Y19119137D01*
X23553376Y19119169D01*
X23415529Y19079772D01*
X23294280Y19003270D01*
X23199377Y18895812D01*
X23138447Y18766037D01*
X23137637Y18760832D01*
X23137636Y18760830D01*
X23130227Y18713243D01*
X23116391Y18624377D01*
X18913553Y18624377D01*
X18890280Y18639462D01*
X18859781Y18679862D01*
X18862387Y18730414D01*
X18878203Y18753885D01*
X19307495Y19183177D01*
X20474791Y19183177D01*
X20475474Y19177954D01*
X20475474Y19177951D01*
X20475973Y19174138D01*
X20493380Y19041021D01*
X20551120Y18909797D01*
X20560063Y18899158D01*
X20639980Y18804084D01*
X20639983Y18804081D01*
X20643370Y18800052D01*
X20663499Y18786653D01*
X20758324Y18723531D01*
X20758327Y18723530D01*
X20762713Y18720610D01*
X20899557Y18677858D01*
X20904825Y18677761D01*
X20904828Y18677761D01*
X20965133Y18676656D01*
X21042899Y18675230D01*
X21047982Y18676616D01*
X21047984Y18676616D01*
X21176127Y18711552D01*
X21176129Y18711553D01*
X21181217Y18712940D01*
X21247903Y18753885D01*
X21298898Y18785196D01*
X21298899Y18785197D01*
X21303391Y18787955D01*
X21399600Y18894246D01*
X21462110Y19023267D01*
X21485896Y19164646D01*
X21486047Y19177000D01*
X21480070Y19218734D01*
X21466470Y19313703D01*
X21466470Y19313704D01*
X21465723Y19318918D01*
X21406384Y19449428D01*
X21312800Y19558037D01*
X21308381Y19560901D01*
X21308379Y19560903D01*
X21260153Y19592161D01*
X21192495Y19636015D01*
X21075479Y19671010D01*
X21060192Y19675582D01*
X21060191Y19675582D01*
X21055139Y19677093D01*
X20981503Y19677543D01*
X20917046Y19677937D01*
X20917045Y19677937D01*
X20911776Y19677969D01*
X20773929Y19638572D01*
X20769469Y19635758D01*
X20765792Y19633438D01*
X20652680Y19562070D01*
X20622869Y19528315D01*
X20561854Y19459228D01*
X20557777Y19454612D01*
X20496847Y19324837D01*
X20474791Y19183177D01*
X19307495Y19183177D01*
X20016770Y19892452D01*
X20027981Y19901653D01*
X20044923Y19912973D01*
X20061424Y19937667D01*
X20083216Y19970282D01*
X20105814Y20004102D01*
X20114333Y20046927D01*
X20121799Y20084464D01*
X20121799Y20084465D01*
X20125774Y20104448D01*
X20127196Y20111597D01*
X20123221Y20131581D01*
X20121799Y20146017D01*
X20121799Y21438603D01*
X20139112Y21486169D01*
X20182949Y21511479D01*
X20232799Y21502689D01*
X20263532Y21468406D01*
X20271720Y21449797D01*
X20275112Y21445762D01*
X20360580Y21344084D01*
X20360583Y21344081D01*
X20363970Y21340052D01*
X20368357Y21337132D01*
X20478924Y21263531D01*
X20478927Y21263530D01*
X20483313Y21260610D01*
X20620157Y21217858D01*
X20625425Y21217761D01*
X20625428Y21217761D01*
X20685733Y21216656D01*
X20763499Y21215230D01*
X20768582Y21216616D01*
X20768584Y21216616D01*
X20896727Y21251552D01*
X20896729Y21251553D01*
X20901817Y21252940D01*
X21023991Y21327955D01*
X21120200Y21434246D01*
X21182710Y21563267D01*
X21206496Y21704646D01*
X21206647Y21717000D01*
X21203419Y21739538D01*
X21187070Y21853703D01*
X21187070Y21853704D01*
X21186323Y21858918D01*
X21126984Y21989428D01*
X21125452Y21991206D01*
X21114674Y22039421D01*
X21137968Y22084361D01*
X21149338Y22092953D01*
X21222698Y22137996D01*
X21222699Y22137997D01*
X21227191Y22140755D01*
X21323400Y22247046D01*
X21385910Y22376067D01*
X21409696Y22517446D01*
X21409847Y22529800D01*
X21389523Y22671718D01*
X21361660Y22733000D01*
X24108518Y22733000D01*
X24109151Y22728192D01*
X24128496Y22581252D01*
X24129156Y22576238D01*
X24189664Y22430159D01*
X24192614Y22426315D01*
X24192616Y22426311D01*
X24282963Y22308569D01*
X24285918Y22304718D01*
X24289769Y22301763D01*
X24407511Y22211416D01*
X24407515Y22211414D01*
X24411359Y22208464D01*
X24557438Y22147956D01*
X24562240Y22147324D01*
X24562243Y22147323D01*
X24709392Y22127951D01*
X24714200Y22127318D01*
X24719008Y22127951D01*
X24866157Y22147323D01*
X24866160Y22147324D01*
X24870962Y22147956D01*
X25017041Y22208464D01*
X25020885Y22211414D01*
X25020889Y22211416D01*
X25138631Y22301763D01*
X25142482Y22304718D01*
X25145437Y22308569D01*
X25235784Y22426311D01*
X25235786Y22426315D01*
X25238736Y22430159D01*
X25299244Y22576238D01*
X25299905Y22581252D01*
X25319249Y22728192D01*
X25319882Y22733000D01*
X25310768Y22802228D01*
X25299877Y22884957D01*
X25299876Y22884960D01*
X25299244Y22889762D01*
X25238736Y23035841D01*
X25235786Y23039685D01*
X25235784Y23039689D01*
X25145437Y23157431D01*
X25142482Y23161282D01*
X25096009Y23196942D01*
X25020889Y23254584D01*
X25020885Y23254586D01*
X25017041Y23257536D01*
X24870962Y23318044D01*
X24866160Y23318676D01*
X24866157Y23318677D01*
X24719008Y23338049D01*
X24714200Y23338682D01*
X24709392Y23338049D01*
X24562243Y23318677D01*
X24562240Y23318676D01*
X24557438Y23318044D01*
X24411359Y23257536D01*
X24407515Y23254586D01*
X24407511Y23254584D01*
X24332391Y23196942D01*
X24285918Y23161282D01*
X24282963Y23157431D01*
X24192616Y23039689D01*
X24192614Y23039685D01*
X24189664Y23035841D01*
X24129156Y22889762D01*
X24128524Y22884960D01*
X24128523Y22884957D01*
X24117632Y22802228D01*
X24108518Y22733000D01*
X21361660Y22733000D01*
X21330184Y22802228D01*
X21257375Y22886727D01*
X21240040Y22906845D01*
X21240039Y22906846D01*
X21236600Y22910837D01*
X21232181Y22913701D01*
X21232179Y22913703D01*
X21192268Y22939572D01*
X21116295Y22988815D01*
X21012368Y23019896D01*
X20983992Y23028382D01*
X20983991Y23028382D01*
X20978939Y23029893D01*
X20905303Y23030343D01*
X20840846Y23030737D01*
X20840845Y23030737D01*
X20835576Y23030769D01*
X20697729Y22991372D01*
X20576480Y22914870D01*
X20481577Y22807412D01*
X20420647Y22677637D01*
X20398591Y22535977D01*
X20399274Y22530754D01*
X20399274Y22530751D01*
X20399773Y22526938D01*
X20417180Y22393821D01*
X20474920Y22262597D01*
X20478312Y22258561D01*
X20479769Y22256221D01*
X20490206Y22206690D01*
X20466362Y22162038D01*
X20456432Y22154535D01*
X20373280Y22102070D01*
X20357640Y22084361D01*
X20291993Y22010029D01*
X20278377Y21994612D01*
X20276138Y21989843D01*
X20276136Y21989840D01*
X20262784Y21961401D01*
X20226897Y21925702D01*
X20176459Y21921422D01*
X20135071Y21950564D01*
X20121799Y21992850D01*
X20121799Y25279177D01*
X20804991Y25279177D01*
X20805674Y25273954D01*
X20805674Y25273951D01*
X20809680Y25243315D01*
X20823580Y25137021D01*
X20881320Y25005797D01*
X20884712Y25001762D01*
X20970180Y24900084D01*
X20970183Y24900081D01*
X20973570Y24896052D01*
X20977957Y24893132D01*
X21088524Y24819531D01*
X21088527Y24819530D01*
X21092913Y24816610D01*
X21229757Y24773858D01*
X21235025Y24773761D01*
X21235028Y24773761D01*
X21295333Y24772656D01*
X21373099Y24771230D01*
X21378182Y24772616D01*
X21378184Y24772616D01*
X21506327Y24807552D01*
X21506329Y24807553D01*
X21511417Y24808940D01*
X21633591Y24883955D01*
X21729800Y24990246D01*
X21792310Y25119267D01*
X21816096Y25260646D01*
X21816247Y25273000D01*
X21798210Y25398950D01*
X21796670Y25409703D01*
X21796670Y25409704D01*
X21795923Y25414918D01*
X21736584Y25545428D01*
X21659053Y25635407D01*
X21646440Y25650045D01*
X21646439Y25650046D01*
X21643000Y25654037D01*
X21638581Y25656901D01*
X21638579Y25656903D01*
X21598668Y25682772D01*
X21522695Y25732015D01*
X21391806Y25771159D01*
X21390392Y25771582D01*
X21390391Y25771582D01*
X21385339Y25773093D01*
X21311703Y25773543D01*
X21247246Y25773937D01*
X21247245Y25773937D01*
X21241976Y25773969D01*
X21104129Y25734572D01*
X20982880Y25658070D01*
X20887977Y25550612D01*
X20827047Y25420837D01*
X20826237Y25415632D01*
X20826236Y25415630D01*
X20824979Y25407554D01*
X20804991Y25279177D01*
X20121799Y25279177D01*
X20121799Y26613379D01*
X20139112Y26660945D01*
X20176334Y26684773D01*
X20201551Y26691648D01*
X20283317Y26713940D01*
X20405491Y26788955D01*
X20501700Y26895246D01*
X20564210Y27024267D01*
X20587996Y27165646D01*
X20588147Y27178000D01*
X20567823Y27319918D01*
X20508484Y27450428D01*
X20414900Y27559037D01*
X20410481Y27561901D01*
X20410479Y27561903D01*
X20370568Y27587772D01*
X20294595Y27637015D01*
X20190668Y27668096D01*
X20162292Y27676582D01*
X20162291Y27676582D01*
X20157239Y27678093D01*
X20083603Y27678543D01*
X20019146Y27678937D01*
X20019145Y27678937D01*
X20013876Y27678969D01*
X19876029Y27639572D01*
X19754780Y27563070D01*
X19659877Y27455612D01*
X19598947Y27325837D01*
X19576891Y27184177D01*
X19577574Y27178954D01*
X19577574Y27178951D01*
X19590473Y27080308D01*
X19586388Y27049373D01*
X19586784Y27049294D01*
X19585362Y27042144D01*
X19581806Y27024267D01*
X19570836Y26969115D01*
X19565402Y26941799D01*
X19566824Y26934650D01*
X19569377Y26921816D01*
X19570799Y26907379D01*
X19570799Y20256365D01*
X19553486Y20208799D01*
X19549125Y20204039D01*
X18960327Y19615241D01*
X18914451Y19593849D01*
X18865556Y19606950D01*
X18836522Y19648414D01*
X18834001Y19667567D01*
X18834001Y28651079D01*
X18835423Y28665516D01*
X18837976Y28678350D01*
X18839398Y28685499D01*
X18818016Y28792994D01*
X18813967Y28799054D01*
X18813966Y28799056D01*
X18794499Y28828191D01*
X18783054Y28881580D01*
X18793021Y28940822D01*
X18793021Y28940824D01*
X18793496Y28943646D01*
X18793647Y28956000D01*
X18773323Y29097918D01*
X18768464Y29108605D01*
X18717925Y29219761D01*
X18713998Y29270227D01*
X18743428Y29311411D01*
X18785289Y29324389D01*
X20021392Y29324389D01*
X20068958Y29307076D01*
X20094268Y29263239D01*
X20085478Y29213389D01*
X20060879Y29187805D01*
X19986894Y29141124D01*
X19941480Y29112470D01*
X19846577Y29005012D01*
X19785647Y28875237D01*
X19763591Y28733577D01*
X19782180Y28591421D01*
X19839920Y28460197D01*
X19852992Y28444646D01*
X19928780Y28354484D01*
X19928783Y28354481D01*
X19932170Y28350452D01*
X19936557Y28347532D01*
X20047124Y28273931D01*
X20047127Y28273930D01*
X20051513Y28271010D01*
X20188357Y28228258D01*
X20193625Y28228161D01*
X20193628Y28228161D01*
X20253933Y28227056D01*
X20331699Y28225630D01*
X20336782Y28227016D01*
X20336784Y28227016D01*
X20464927Y28261952D01*
X20464929Y28261953D01*
X20470017Y28263340D01*
X20592191Y28338355D01*
X20688400Y28444646D01*
X20726056Y28522368D01*
X20762376Y28557626D01*
X20812862Y28561290D01*
X20844977Y28542429D01*
X25881337Y23506069D01*
X25902729Y23460193D01*
X25903011Y23453743D01*
X25903011Y11723343D01*
X25885698Y11675777D01*
X25841861Y11650467D01*
X25807810Y11652446D01*
X25734036Y11674509D01*
X25733792Y11674582D01*
X25733791Y11674582D01*
X25728739Y11676093D01*
X25655103Y11676543D01*
X25590646Y11676937D01*
X25590645Y11676937D01*
X25585376Y11676969D01*
X25447529Y11637572D01*
X25326280Y11561070D01*
X25294884Y11525520D01*
X25251604Y11476515D01*
X25207140Y11452322D01*
X25196138Y11451500D01*
X23105877Y11451500D01*
X23058311Y11468813D01*
X23053551Y11473174D01*
X21953725Y12573000D01*
X23600518Y12573000D01*
X23601151Y12568192D01*
X23619236Y12430823D01*
X23621156Y12416238D01*
X23681664Y12270159D01*
X23684614Y12266315D01*
X23684616Y12266311D01*
X23757639Y12171146D01*
X23777918Y12144718D01*
X23781769Y12141763D01*
X23899511Y12051416D01*
X23899515Y12051414D01*
X23903359Y12048464D01*
X24049438Y11987956D01*
X24054240Y11987324D01*
X24054243Y11987323D01*
X24201392Y11967951D01*
X24206200Y11967318D01*
X24211008Y11967951D01*
X24358157Y11987323D01*
X24358160Y11987324D01*
X24362962Y11987956D01*
X24509041Y12048464D01*
X24512885Y12051414D01*
X24512889Y12051416D01*
X24630631Y12141763D01*
X24634482Y12144718D01*
X24654761Y12171146D01*
X24727784Y12266311D01*
X24727786Y12266315D01*
X24730736Y12270159D01*
X24791244Y12416238D01*
X24793165Y12430823D01*
X24811249Y12568192D01*
X24811882Y12573000D01*
X24809824Y12588630D01*
X24791877Y12724957D01*
X24791876Y12724960D01*
X24791244Y12729762D01*
X24730736Y12875841D01*
X24727786Y12879685D01*
X24727784Y12879689D01*
X24637437Y12997431D01*
X24634482Y13001282D01*
X24565235Y13054417D01*
X24512889Y13094584D01*
X24512885Y13094586D01*
X24509041Y13097536D01*
X24362962Y13158044D01*
X24358160Y13158676D01*
X24358157Y13158677D01*
X24211008Y13178049D01*
X24206200Y13178682D01*
X24201392Y13178049D01*
X24054243Y13158677D01*
X24054240Y13158676D01*
X24049438Y13158044D01*
X23903359Y13097536D01*
X23899515Y13094586D01*
X23899511Y13094584D01*
X23847165Y13054417D01*
X23777918Y13001282D01*
X23774963Y12997431D01*
X23684616Y12879689D01*
X23684614Y12879685D01*
X23681664Y12875841D01*
X23621156Y12729762D01*
X23620524Y12724960D01*
X23620523Y12724957D01*
X23602576Y12588630D01*
X23600518Y12573000D01*
X21953725Y12573000D01*
X21739482Y12787243D01*
X21718090Y12833119D01*
X21718834Y12851846D01*
X21726938Y12900015D01*
X21727413Y12902838D01*
X21727564Y12915192D01*
X21723013Y12946969D01*
X21707987Y13051895D01*
X21707987Y13051896D01*
X21707240Y13057110D01*
X21647901Y13187620D01*
X21554317Y13296229D01*
X21549898Y13299093D01*
X21549896Y13299095D01*
X21509985Y13324964D01*
X21434012Y13374207D01*
X21296656Y13415285D01*
X21297032Y13416542D01*
X21257807Y13437837D01*
X21239252Y13484933D01*
X21258364Y13536533D01*
X21348800Y13636446D01*
X21411310Y13765467D01*
X21435096Y13906846D01*
X21435247Y13919200D01*
X21432688Y13937069D01*
X21415670Y14055903D01*
X21415670Y14055904D01*
X21414923Y14061118D01*
X21355584Y14191628D01*
X21262000Y14300237D01*
X21257581Y14303101D01*
X21257579Y14303103D01*
X21217668Y14328972D01*
X21141695Y14378215D01*
X21026047Y14412801D01*
X21009392Y14417782D01*
X21009391Y14417782D01*
X21004339Y14419293D01*
X20930703Y14419743D01*
X20866246Y14420137D01*
X20866245Y14420137D01*
X20860976Y14420169D01*
X20723129Y14380772D01*
X20601880Y14304270D01*
X20506977Y14196812D01*
X20446047Y14067037D01*
X20445237Y14061832D01*
X20445236Y14061830D01*
X20435019Y13996207D01*
X20423991Y13925377D01*
X20424674Y13920154D01*
X20424674Y13920151D01*
X20426783Y13904023D01*
X20442580Y13783221D01*
X20500320Y13651997D01*
X20516404Y13632863D01*
X20589180Y13546284D01*
X20589183Y13546281D01*
X20592570Y13542252D01*
X20610743Y13530155D01*
X20707524Y13465731D01*
X20707527Y13465730D01*
X20711913Y13462810D01*
X20716945Y13461238D01*
X20791849Y13437837D01*
X20848757Y13420058D01*
X20850479Y13420026D01*
X20893382Y13396046D01*
X20911354Y13348725D01*
X20892827Y13298711D01*
X20823992Y13220769D01*
X20799294Y13192804D01*
X20738364Y13063029D01*
X20716308Y12921369D01*
X20716991Y12916146D01*
X20716991Y12916143D01*
X20718731Y12902838D01*
X20734897Y12779213D01*
X20792637Y12647989D01*
X20796029Y12643954D01*
X20881497Y12542276D01*
X20881500Y12542273D01*
X20884887Y12538244D01*
X20889274Y12535324D01*
X20999841Y12461723D01*
X20999844Y12461722D01*
X21004230Y12458802D01*
X21141074Y12416050D01*
X21146342Y12415953D01*
X21146345Y12415953D01*
X21205297Y12414873D01*
X21284416Y12413422D01*
X21289500Y12414808D01*
X21292005Y12415120D01*
X21341347Y12403821D01*
X21353479Y12394014D01*
X22741964Y11005529D01*
X22751165Y10994318D01*
X22762485Y10977376D01*
X22768546Y10973326D01*
X22783537Y10963309D01*
X22785486Y10962007D01*
X22785487Y10962006D01*
X22787822Y10960446D01*
X22853614Y10916485D01*
X22860759Y10915064D01*
X22860761Y10915063D01*
X22933974Y10900500D01*
X22933977Y10900500D01*
X22961109Y10895103D01*
X22981093Y10899078D01*
X22995529Y10900500D01*
X25197226Y10900500D01*
X25244792Y10883187D01*
X25253872Y10874116D01*
X25313580Y10803084D01*
X25313583Y10803081D01*
X25316970Y10799052D01*
X25321357Y10796132D01*
X25431924Y10722531D01*
X25431927Y10722530D01*
X25436313Y10719610D01*
X25573157Y10676858D01*
X25578425Y10676761D01*
X25578428Y10676761D01*
X25638733Y10675656D01*
X25716499Y10674230D01*
X25721582Y10675616D01*
X25721584Y10675616D01*
X25809547Y10699598D01*
X25859992Y10695407D01*
X25895941Y10659770D01*
X25903011Y10628204D01*
X25903011Y8644879D01*
X25885698Y8597313D01*
X25881337Y8592553D01*
X24540948Y7252164D01*
X24495072Y7230772D01*
X24484139Y7231105D01*
X24484139Y7231093D01*
X24346046Y7231937D01*
X24346045Y7231937D01*
X24340776Y7231969D01*
X24202929Y7192572D01*
X24081680Y7116070D01*
X24031502Y7059254D01*
X23996636Y7019775D01*
X23986777Y7008612D01*
X23925847Y6878837D01*
X23925037Y6873632D01*
X23925036Y6873630D01*
X23923152Y6861527D01*
X23903791Y6737177D01*
X23904474Y6731954D01*
X23904474Y6731951D01*
X23905827Y6721607D01*
X23922380Y6595021D01*
X23980120Y6463797D01*
X23983512Y6459762D01*
X24068980Y6358084D01*
X24068983Y6358081D01*
X24072370Y6354052D01*
X24076757Y6351132D01*
X24187324Y6277531D01*
X24187327Y6277530D01*
X24191713Y6274610D01*
X24328557Y6231858D01*
X24333825Y6231761D01*
X24333828Y6231761D01*
X24394133Y6230656D01*
X24471899Y6229230D01*
X24476982Y6230616D01*
X24476984Y6230616D01*
X24605127Y6265552D01*
X24605129Y6265553D01*
X24610217Y6266940D01*
X24732391Y6341955D01*
X24828600Y6448246D01*
X24891110Y6577267D01*
X24914896Y6718646D01*
X24915047Y6731000D01*
X24905759Y6795855D01*
X24916154Y6845393D01*
X24926686Y6858670D01*
X25306922Y7238906D01*
X25352798Y7260298D01*
X25401693Y7247197D01*
X25426981Y7216383D01*
X25478720Y7098797D01*
X25495076Y7079339D01*
X25567580Y6993084D01*
X25567583Y6993081D01*
X25570970Y6989052D01*
X25589143Y6976955D01*
X25685924Y6912531D01*
X25685927Y6912530D01*
X25690313Y6909610D01*
X25827157Y6866858D01*
X25832425Y6866761D01*
X25832428Y6866761D01*
X25892733Y6865656D01*
X25970499Y6864230D01*
X25975582Y6865616D01*
X25975584Y6865616D01*
X26103727Y6900552D01*
X26103729Y6900553D01*
X26108817Y6901940D01*
X26230991Y6976955D01*
X26327200Y7083246D01*
X26389710Y7212267D01*
X26413496Y7353646D01*
X26414208Y7353526D01*
X26434417Y7396735D01*
X27393816Y8356134D01*
X27406002Y8365975D01*
X27412011Y8369855D01*
X27412013Y8369857D01*
X27417152Y8373175D01*
X27437894Y8399486D01*
X27443681Y8405999D01*
X27446428Y8408746D01*
X27448199Y8411224D01*
X27448203Y8411229D01*
X27457386Y8424080D01*
X27459460Y8426843D01*
X27489392Y8464811D01*
X27491418Y8470580D01*
X27491988Y8471617D01*
X27492429Y8472318D01*
X27492713Y8472865D01*
X27493028Y8473616D01*
X27493557Y8474695D01*
X27497111Y8479669D01*
X27508003Y8516089D01*
X27538217Y8556700D01*
X27587468Y8568388D01*
X27632710Y8545684D01*
X27652275Y8504482D01*
X27656180Y8474621D01*
X27713920Y8343397D01*
X27717312Y8339362D01*
X27802780Y8237684D01*
X27802783Y8237681D01*
X27806170Y8233652D01*
X27840910Y8210527D01*
X27921124Y8157131D01*
X27921127Y8157130D01*
X27925513Y8154210D01*
X28062357Y8111458D01*
X28067625Y8111361D01*
X28067628Y8111361D01*
X28127933Y8110256D01*
X28205699Y8108830D01*
X28210782Y8110216D01*
X28210784Y8110216D01*
X28338927Y8145152D01*
X28338929Y8145153D01*
X28344017Y8146540D01*
X28405104Y8184048D01*
X28461698Y8218796D01*
X28461699Y8218797D01*
X28466191Y8221555D01*
X28562400Y8327846D01*
X28624910Y8456867D01*
X28648696Y8598246D01*
X28648847Y8610600D01*
X28628523Y8752518D01*
X28621232Y8768555D01*
X28571366Y8878229D01*
X28569184Y8883028D01*
X28513125Y8948088D01*
X28479040Y8987645D01*
X28479039Y8987646D01*
X28475600Y8991637D01*
X28471182Y8994501D01*
X28471177Y8994505D01*
X28452450Y9006643D01*
X28421952Y9047043D01*
X28418700Y9068739D01*
X28418700Y9989832D01*
X28436013Y10037398D01*
X28440374Y10042158D01*
X28850152Y10451936D01*
X28896028Y10473328D01*
X28903833Y10473598D01*
X29043899Y10471030D01*
X29048982Y10472416D01*
X29048984Y10472416D01*
X29177127Y10507352D01*
X29177129Y10507353D01*
X29182217Y10508740D01*
X29304391Y10583755D01*
X29400600Y10690046D01*
X29463110Y10819067D01*
X29486896Y10960446D01*
X29487047Y10972800D01*
X29466723Y11114718D01*
X29458128Y11133623D01*
X29409566Y11240429D01*
X29407384Y11245228D01*
X29321449Y11344960D01*
X29317240Y11349845D01*
X29317239Y11349846D01*
X29313800Y11353837D01*
X29309381Y11356701D01*
X29309379Y11356703D01*
X29257106Y11390584D01*
X29193495Y11431815D01*
X29069782Y11468813D01*
X29061192Y11471382D01*
X29061191Y11471382D01*
X29056139Y11472893D01*
X28982503Y11473343D01*
X28918046Y11473737D01*
X28918045Y11473737D01*
X28912776Y11473769D01*
X28774929Y11434372D01*
X28653680Y11357870D01*
X28558777Y11250412D01*
X28497847Y11120637D01*
X28497037Y11115432D01*
X28497036Y11115430D01*
X28493733Y11094213D01*
X28475791Y10978977D01*
X28476474Y10973754D01*
X28476474Y10973750D01*
X28485192Y10907079D01*
X28474193Y10857670D01*
X28464143Y10845159D01*
X27972729Y10353745D01*
X27961518Y10344544D01*
X27944576Y10333224D01*
X27929207Y10310223D01*
X27929206Y10310222D01*
X27911730Y10284066D01*
X27911729Y10284065D01*
X27896200Y10260824D01*
X27883685Y10242095D01*
X27876145Y10204189D01*
X27862303Y10134600D01*
X27863725Y10127451D01*
X27866278Y10114617D01*
X27867700Y10100180D01*
X27867700Y9069426D01*
X27850387Y9021860D01*
X27833188Y9006843D01*
X27815480Y8995670D01*
X27768931Y8942963D01*
X27725093Y8893325D01*
X27720577Y8888212D01*
X27718338Y8883443D01*
X27669485Y8779391D01*
X27633598Y8743692D01*
X27583160Y8739413D01*
X27541772Y8768555D01*
X27528500Y8810841D01*
X27528500Y15829713D01*
X27530158Y15845288D01*
X27531663Y15852278D01*
X27531663Y15852279D01*
X27532951Y15858261D01*
X27529013Y15891533D01*
X27528500Y15900231D01*
X27528500Y15904115D01*
X27525403Y15922720D01*
X27524915Y15926155D01*
X27519955Y15968066D01*
X27519955Y15968067D01*
X27519236Y15974139D01*
X27516589Y15979651D01*
X27516259Y15980788D01*
X27516076Y15981593D01*
X27515889Y15982183D01*
X27515582Y15982933D01*
X27515192Y15984072D01*
X27514188Y15990103D01*
X27491234Y16032642D01*
X27489651Y16035749D01*
X27470741Y16075130D01*
X27470740Y16075131D01*
X27468726Y16079326D01*
X27465408Y16083274D01*
X27464455Y16084227D01*
X27461532Y16087690D01*
X27458778Y16092794D01*
X27421623Y16127140D01*
X27419528Y16129154D01*
X27397945Y16150737D01*
X27377018Y16192572D01*
X27359270Y16316504D01*
X27359269Y16316506D01*
X27358523Y16321718D01*
X27333027Y16377795D01*
X27301366Y16447429D01*
X27299184Y16452228D01*
X27205600Y16560837D01*
X27201181Y16563701D01*
X27201179Y16563703D01*
X27161268Y16589572D01*
X27085295Y16638815D01*
X26981368Y16669896D01*
X26952992Y16678382D01*
X26952991Y16678382D01*
X26947939Y16679893D01*
X26874303Y16680343D01*
X26809846Y16680737D01*
X26809845Y16680737D01*
X26804576Y16680769D01*
X26666729Y16641372D01*
X26587831Y16591591D01*
X26567498Y16578762D01*
X26518032Y16568022D01*
X26473235Y16591591D01*
X26454011Y16641346D01*
X26454011Y23564091D01*
X26455433Y23578528D01*
X26457986Y23591362D01*
X26459408Y23598511D01*
X26454011Y23625644D01*
X26438026Y23706006D01*
X26377135Y23797135D01*
X26360193Y23808455D01*
X26348982Y23817656D01*
X20396278Y29770360D01*
X20387075Y29781574D01*
X20383223Y29787340D01*
X20375757Y29798513D01*
X20352756Y29813882D01*
X20352755Y29813883D01*
X20299691Y29849339D01*
X20284628Y29859404D01*
X20277483Y29860825D01*
X20277481Y29860826D01*
X20204268Y29875389D01*
X20204265Y29875389D01*
X20177133Y29880786D01*
X20169984Y29879364D01*
X20157150Y29876811D01*
X20142713Y29875389D01*
X16579211Y29875389D01*
X16531645Y29892702D01*
X16506335Y29936539D01*
X16508556Y29969523D01*
X16509110Y29970667D01*
X16510660Y29979881D01*
X16535626Y30023915D01*
X16583634Y30041601D01*
X22777235Y30041601D01*
X22824801Y30024288D01*
X22850111Y29980451D01*
X22845602Y29939282D01*
X22808356Y29849362D01*
X22807724Y29844560D01*
X22807723Y29844557D01*
X22790775Y29715817D01*
X22787718Y29692600D01*
X22808356Y29535838D01*
X22868864Y29389759D01*
X22871814Y29385915D01*
X22871816Y29385911D01*
X22960584Y29270227D01*
X22965118Y29264318D01*
X22968969Y29261363D01*
X23086711Y29171016D01*
X23086715Y29171014D01*
X23090559Y29168064D01*
X23236638Y29107556D01*
X23241440Y29106924D01*
X23241443Y29106923D01*
X23388592Y29087551D01*
X23393400Y29086918D01*
X23398208Y29087551D01*
X23545357Y29106923D01*
X23545360Y29106924D01*
X23550162Y29107556D01*
X23696241Y29168064D01*
X23700085Y29171014D01*
X23700089Y29171016D01*
X23817831Y29261363D01*
X23821682Y29264318D01*
X23826216Y29270227D01*
X23914984Y29385911D01*
X23914986Y29385915D01*
X23917936Y29389759D01*
X23978444Y29535838D01*
X23999082Y29692600D01*
X23996025Y29715817D01*
X23979077Y29844557D01*
X23979076Y29844560D01*
X23978444Y29849362D01*
X23941198Y29939282D01*
X23938990Y29989853D01*
X23969805Y30030012D01*
X24009565Y30041601D01*
X24148131Y30041601D01*
X24195697Y30024288D01*
X24200457Y30019927D01*
X27879811Y26340573D01*
X27901203Y26294697D01*
X27900604Y26276863D01*
X27891591Y26218977D01*
X27892274Y26213754D01*
X27892274Y26213751D01*
X27892773Y26209938D01*
X27910180Y26076821D01*
X27967920Y25945597D01*
X27971312Y25941562D01*
X28056780Y25839884D01*
X28056783Y25839881D01*
X28060170Y25835852D01*
X28064557Y25832932D01*
X28175124Y25759331D01*
X28175127Y25759330D01*
X28179513Y25756410D01*
X28316357Y25713658D01*
X28321625Y25713561D01*
X28321628Y25713561D01*
X28381933Y25712456D01*
X28459699Y25711030D01*
X28464782Y25712416D01*
X28464784Y25712416D01*
X28592927Y25747352D01*
X28592929Y25747353D01*
X28598017Y25748740D01*
X28720191Y25823755D01*
X28816400Y25930046D01*
X28878910Y26059067D01*
X28902696Y26200446D01*
X28902847Y26212800D01*
X28891119Y26294697D01*
X28883270Y26349503D01*
X28883270Y26349504D01*
X28882523Y26354718D01*
X28823184Y26485228D01*
X28729600Y26593837D01*
X28725181Y26596701D01*
X28725179Y26596703D01*
X28685268Y26622572D01*
X28609295Y26671815D01*
X28500769Y26704271D01*
X28476992Y26711382D01*
X28476991Y26711382D01*
X28471939Y26712893D01*
X28402103Y26713320D01*
X28333850Y26713737D01*
X28333848Y26713737D01*
X28328576Y26713769D01*
X28326707Y26713235D01*
X28278581Y26723637D01*
X28265684Y26733932D01*
X24512044Y30487572D01*
X24502841Y30498786D01*
X24495572Y30509665D01*
X24491523Y30515725D01*
X24468522Y30531094D01*
X24468521Y30531095D01*
X24441878Y30548897D01*
X24400394Y30576616D01*
X24393249Y30578037D01*
X24393247Y30578038D01*
X24320034Y30592601D01*
X24320031Y30592601D01*
X24292899Y30597998D01*
X24275259Y30594489D01*
X24272916Y30594023D01*
X24258479Y30592601D01*
X16254517Y30592601D01*
X16240081Y30594023D01*
X16227250Y30596575D01*
X16220101Y30597997D01*
X16212952Y30596575D01*
X16206317Y30596575D01*
X16185115Y30599678D01*
X16161782Y30606656D01*
X16121171Y30636873D01*
X16110012Y30689830D01*
X16132872Y30825707D01*
X16133347Y30828530D01*
X16133498Y30840884D01*
X16113174Y30982802D01*
X16053835Y31113312D01*
X15960251Y31221921D01*
X15955832Y31224785D01*
X15955830Y31224787D01*
X15915919Y31250656D01*
X15839946Y31299899D01*
X15731420Y31332355D01*
X15707643Y31339466D01*
X15707642Y31339466D01*
X15702590Y31340977D01*
X15626881Y31341440D01*
X15564495Y31341821D01*
X15564494Y31341821D01*
X15559227Y31341853D01*
X15557432Y31341340D01*
X15509334Y31351738D01*
X15487238Y31373243D01*
X15480208Y31383764D01*
X15476159Y31389824D01*
X15453158Y31405193D01*
X15453157Y31405194D01*
X15439271Y31414472D01*
X15409340Y31455293D01*
X15412651Y31505803D01*
X15447655Y31542369D01*
X15480384Y31550000D01*
X31476000Y31550000D01*
X31523566Y31532687D01*
X31548876Y31488850D01*
X31550000Y31476000D01*
X31550000Y274000D01*
X31532687Y226434D01*
X31488850Y201124D01*
X31476000Y200000D01*
X20207448Y200000D01*
X20159882Y217313D01*
X20134572Y261150D01*
X20143362Y311000D01*
X20177350Y341602D01*
X20262927Y379703D01*
X20269622Y383568D01*
X20416396Y490206D01*
X20422127Y495366D01*
X20543534Y630201D01*
X20548064Y636437D01*
X20638781Y793564D01*
X20641917Y800607D01*
X20697983Y973158D01*
X20699588Y980707D01*
X20713798Y1115910D01*
X20714000Y1119776D01*
X20714000Y1201952D01*
X20710362Y1211948D01*
X20705075Y1215000D01*
X18927048Y1215000D01*
X18917052Y1211362D01*
X18914000Y1206075D01*
X18914000Y1119776D01*
X18914202Y1115910D01*
X18928412Y980707D01*
X18930017Y973158D01*
X18986083Y800607D01*
X18989219Y793564D01*
X19079936Y636437D01*
X19084466Y630201D01*
X19205873Y495366D01*
X19211604Y490206D01*
X19358377Y383568D01*
X19365072Y379703D01*
X19450649Y341602D01*
X19487062Y306440D01*
X19492353Y256098D01*
X19464047Y214133D01*
X19420551Y200000D01*
X11567448Y200000D01*
X11519882Y217313D01*
X11494572Y261150D01*
X11503362Y311000D01*
X11537350Y341602D01*
X11622927Y379703D01*
X11629622Y383568D01*
X11776396Y490206D01*
X11782127Y495366D01*
X11903534Y630201D01*
X11908064Y636437D01*
X11998781Y793564D01*
X12001917Y800607D01*
X12057983Y973158D01*
X12059588Y980707D01*
X12073798Y1115910D01*
X12074000Y1119776D01*
X12074000Y1201952D01*
X12070362Y1211948D01*
X12065075Y1215000D01*
X10287048Y1215000D01*
X10277052Y1211362D01*
X10274000Y1206075D01*
X10274000Y1119776D01*
X10274202Y1115910D01*
X10288412Y980707D01*
X10290017Y973158D01*
X10346083Y800607D01*
X10349219Y793564D01*
X10439936Y636437D01*
X10444466Y630201D01*
X10565873Y495366D01*
X10571604Y490206D01*
X10718377Y383568D01*
X10725072Y379703D01*
X10810649Y341602D01*
X10847062Y306440D01*
X10852353Y256098D01*
X10824047Y214133D01*
X10780551Y200000D01*
X274000Y200000D01*
X226434Y217313D01*
X201124Y261150D01*
X200000Y274000D01*
X200000Y829252D01*
X664500Y829252D01*
X676133Y770769D01*
X680184Y764707D01*
X680184Y764706D01*
X684374Y758435D01*
X720448Y704448D01*
X726509Y700398D01*
X752393Y683103D01*
X786769Y660133D01*
X831295Y651276D01*
X841682Y649210D01*
X841683Y649210D01*
X845252Y648500D01*
X2234748Y648500D01*
X2238317Y649210D01*
X2238318Y649210D01*
X2248705Y651276D01*
X2293231Y660133D01*
X2327608Y683103D01*
X2353491Y700398D01*
X2359552Y704448D01*
X2395626Y758435D01*
X2399816Y764706D01*
X2399816Y764707D01*
X2403867Y770769D01*
X2415500Y829252D01*
X2415500Y1058057D01*
X2432813Y1105623D01*
X2476650Y1130933D01*
X2526500Y1122143D01*
X2556703Y1089038D01*
X2603619Y987270D01*
X2606987Y981436D01*
X2717104Y825623D01*
X2721493Y820484D01*
X2858151Y687358D01*
X2863406Y683103D01*
X3022036Y577110D01*
X3027973Y573886D01*
X3203272Y498572D01*
X3209691Y496487D01*
X3277272Y481194D01*
X3287825Y482536D01*
X3289795Y484668D01*
X3290000Y485685D01*
X3290000Y486979D01*
X3790000Y486979D01*
X3793638Y476983D01*
X3796051Y475590D01*
X3975903Y536642D01*
X3982073Y539389D01*
X4148535Y632611D01*
X4154105Y636439D01*
X4300788Y758435D01*
X4305565Y763212D01*
X4427561Y909895D01*
X4431389Y915465D01*
X4524611Y1081927D01*
X4527358Y1088097D01*
X4587393Y1264954D01*
X4586030Y1271502D01*
X4582860Y1274000D01*
X3803048Y1274000D01*
X3793052Y1270362D01*
X3790000Y1265075D01*
X3790000Y486979D01*
X3290000Y486979D01*
X3290000Y1787048D01*
X3790000Y1787048D01*
X3793638Y1777052D01*
X3798925Y1774000D01*
X4573459Y1774000D01*
X4583455Y1777638D01*
X4584381Y1779243D01*
X4584241Y1782035D01*
X4548819Y1907631D01*
X4546397Y1913939D01*
X4462013Y2085053D01*
X4458488Y2090807D01*
X4344335Y2243676D01*
X4339809Y2248703D01*
X4199718Y2378201D01*
X4194347Y2382322D01*
X4032999Y2484125D01*
X4026979Y2487192D01*
X3849773Y2557891D01*
X3843297Y2559809D01*
X3802798Y2567864D01*
X3792284Y2566246D01*
X3790026Y2563671D01*
X3790000Y2563532D01*
X3790000Y1787048D01*
X3290000Y1787048D01*
X3290000Y2558826D01*
X3286362Y2568822D01*
X3283122Y2570692D01*
X3263923Y2567393D01*
X3257391Y2565642D01*
X3078398Y2499609D01*
X3072307Y2496704D01*
X2908336Y2399151D01*
X2902877Y2395185D01*
X2759433Y2269388D01*
X2754780Y2264484D01*
X2636671Y2114664D01*
X2632985Y2108988D01*
X2554989Y1960742D01*
X2517520Y1926707D01*
X2466940Y1924720D01*
X2426916Y1955710D01*
X2415500Y1995197D01*
X2415500Y2218748D01*
X2403867Y2277231D01*
X2359552Y2343552D01*
X2293231Y2387867D01*
X2248705Y2396724D01*
X2238318Y2398790D01*
X2238317Y2398790D01*
X2234748Y2399500D01*
X845252Y2399500D01*
X841683Y2398790D01*
X841682Y2398790D01*
X831295Y2396724D01*
X786769Y2387867D01*
X720448Y2343552D01*
X676133Y2277231D01*
X664500Y2218748D01*
X664500Y829252D01*
X200000Y829252D01*
X200000Y26828577D01*
X8308191Y26828577D01*
X8308874Y26823354D01*
X8308874Y26823351D01*
X8309373Y26819538D01*
X8326780Y26686421D01*
X8384520Y26555197D01*
X8387912Y26551162D01*
X8473380Y26449484D01*
X8473383Y26449481D01*
X8476770Y26445452D01*
X8481157Y26442532D01*
X8591724Y26368931D01*
X8591727Y26368930D01*
X8596113Y26366010D01*
X8732957Y26323258D01*
X8738225Y26323161D01*
X8738228Y26323161D01*
X8798533Y26322056D01*
X8876299Y26320630D01*
X8881382Y26322016D01*
X8881384Y26322016D01*
X9009527Y26356952D01*
X9009529Y26356953D01*
X9014617Y26358340D01*
X9136791Y26433355D01*
X9233000Y26539646D01*
X9295510Y26668667D01*
X9319296Y26810046D01*
X9319447Y26822400D01*
X9307277Y26907379D01*
X9299870Y26959103D01*
X9299870Y26959104D01*
X9299123Y26964318D01*
X9239784Y27094828D01*
X9146200Y27203437D01*
X9141781Y27206301D01*
X9141779Y27206303D01*
X9101868Y27232172D01*
X9025895Y27281415D01*
X8914587Y27314703D01*
X8893592Y27320982D01*
X8893591Y27320982D01*
X8888539Y27322493D01*
X8814903Y27322943D01*
X8750446Y27323337D01*
X8750445Y27323337D01*
X8745176Y27323369D01*
X8607329Y27283972D01*
X8486080Y27207470D01*
X8391177Y27100012D01*
X8330247Y26970237D01*
X8308191Y26828577D01*
X200000Y26828577D01*
X200000Y28374000D01*
X217313Y28421566D01*
X261150Y28446876D01*
X274000Y28448000D01*
X8128000Y28448000D01*
X8128000Y30257577D01*
X9552791Y30257577D01*
X9553474Y30252354D01*
X9553474Y30252351D01*
X9553973Y30248538D01*
X9571380Y30115421D01*
X9581281Y30092920D01*
X9624173Y29995441D01*
X9629120Y29984197D01*
X9632512Y29980162D01*
X9717980Y29878484D01*
X9717983Y29878481D01*
X9721370Y29874452D01*
X9725757Y29871532D01*
X9836324Y29797931D01*
X9836327Y29797930D01*
X9840713Y29795010D01*
X9977557Y29752258D01*
X9982825Y29752161D01*
X9982828Y29752161D01*
X10043133Y29751056D01*
X10120899Y29749630D01*
X10125982Y29751016D01*
X10125984Y29751016D01*
X10254127Y29785952D01*
X10254129Y29785953D01*
X10259217Y29787340D01*
X10352404Y29844557D01*
X10376898Y29859596D01*
X10376899Y29859597D01*
X10381391Y29862355D01*
X10477600Y29968646D01*
X10540110Y30097667D01*
X10563896Y30239046D01*
X10564047Y30251400D01*
X10560210Y30278194D01*
X10544470Y30388103D01*
X10544470Y30388104D01*
X10543723Y30393318D01*
X10538137Y30405605D01*
X10486566Y30519029D01*
X10484384Y30523828D01*
X10415064Y30604277D01*
X10394240Y30628445D01*
X10394239Y30628446D01*
X10390800Y30632437D01*
X10386381Y30635301D01*
X10386379Y30635303D01*
X10327758Y30673299D01*
X10270495Y30710415D01*
X10151717Y30745937D01*
X10138192Y30749982D01*
X10138191Y30749982D01*
X10133139Y30751493D01*
X10059503Y30751943D01*
X9995046Y30752337D01*
X9995045Y30752337D01*
X9989776Y30752369D01*
X9851929Y30712972D01*
X9847469Y30710158D01*
X9825306Y30696174D01*
X9730680Y30636470D01*
X9685882Y30585746D01*
X9651979Y30547357D01*
X9635777Y30529012D01*
X9574847Y30399237D01*
X9574037Y30394032D01*
X9574036Y30394030D01*
X9572307Y30382922D01*
X9552791Y30257577D01*
X8128000Y30257577D01*
X8128000Y31476000D01*
X8145313Y31523566D01*
X8189150Y31548876D01*
X8202000Y31550000D01*
X13767150Y31550000D01*
X13814716Y31532687D01*
G37*
%TD.AperFunction*%
%TA.AperFunction,Conductor*%
G36*
X18878408Y11214587D02*
G01*
X18903718Y11170750D01*
X18897827Y11126451D01*
X18873486Y11074608D01*
X18873484Y11074602D01*
X18871247Y11069837D01*
X18870437Y11064632D01*
X18870436Y11064630D01*
X18863108Y11017563D01*
X18849191Y10928177D01*
X18867780Y10786021D01*
X18925520Y10654797D01*
X18928912Y10650762D01*
X19014380Y10549084D01*
X19014383Y10549081D01*
X19017770Y10545052D01*
X19022157Y10542132D01*
X19132724Y10468531D01*
X19132727Y10468530D01*
X19137113Y10465610D01*
X19173505Y10454241D01*
X19203763Y10435934D01*
X19530868Y10108829D01*
X19552260Y10062953D01*
X19547708Y10042414D01*
X19547843Y10042402D01*
X19547000Y10032764D01*
X19547000Y7249049D01*
X19550638Y7239053D01*
X19555200Y7236420D01*
X19577784Y7238554D01*
X19586530Y7240472D01*
X19704729Y7281981D01*
X19714395Y7287098D01*
X19814343Y7360922D01*
X19822078Y7368657D01*
X19895902Y7468605D01*
X19901019Y7478271D01*
X19942529Y7596475D01*
X19944446Y7605210D01*
X19946837Y7630501D01*
X19947000Y7633969D01*
X19947000Y8156074D01*
X19964313Y8203640D01*
X20008150Y8228950D01*
X20043066Y8226707D01*
X20081721Y8214631D01*
X20081723Y8214631D01*
X20086757Y8213058D01*
X20092025Y8212961D01*
X20092028Y8212961D01*
X20152333Y8211856D01*
X20230099Y8210430D01*
X20278849Y8223721D01*
X20329292Y8219530D01*
X20366045Y8182130D01*
X20369003Y8175409D01*
X20373320Y8165597D01*
X20376710Y8161564D01*
X20462180Y8059884D01*
X20462183Y8059881D01*
X20465570Y8055852D01*
X20469957Y8052932D01*
X20580524Y7979331D01*
X20580527Y7979330D01*
X20584913Y7976410D01*
X20721757Y7933658D01*
X20727025Y7933561D01*
X20727028Y7933561D01*
X20787333Y7932456D01*
X20865099Y7931030D01*
X20870182Y7932416D01*
X20870184Y7932416D01*
X20998327Y7967352D01*
X20998329Y7967353D01*
X21003417Y7968740D01*
X21125591Y8043755D01*
X21221800Y8150046D01*
X21263859Y8236856D01*
X21300179Y8272114D01*
X21350665Y8275778D01*
X21382780Y8256917D01*
X21702026Y7937671D01*
X21723418Y7891795D01*
X21723700Y7885345D01*
X21723700Y5627455D01*
X21706387Y5579889D01*
X21702026Y5575129D01*
X20747076Y4620179D01*
X20701200Y4598787D01*
X20652305Y4611888D01*
X20623271Y4653352D01*
X20627683Y4703779D01*
X20630664Y4709505D01*
X20638781Y4723564D01*
X20641917Y4730607D01*
X20697983Y4903158D01*
X20699588Y4910707D01*
X20713798Y5045910D01*
X20714000Y5049776D01*
X20714000Y5381952D01*
X20710362Y5391948D01*
X20705075Y5395000D01*
X20077048Y5395000D01*
X20067052Y5391362D01*
X20064000Y5386075D01*
X20064000Y4241081D01*
X20067638Y4231085D01*
X20070377Y4229504D01*
X20070970Y4229515D01*
X20089853Y4233529D01*
X20097193Y4235914D01*
X20211232Y4286687D01*
X20261727Y4290218D01*
X20302679Y4260465D01*
X20314925Y4211350D01*
X20293656Y4166759D01*
X19951871Y3824974D01*
X19905995Y3803582D01*
X19899545Y3803300D01*
X13236168Y3803300D01*
X13188602Y3820613D01*
X13163292Y3864450D01*
X13172082Y3914300D01*
X13183842Y3929626D01*
X13505471Y4251255D01*
X13516682Y4260456D01*
X13533624Y4271776D01*
X13594245Y4362501D01*
X13635066Y4392432D01*
X13685576Y4389121D01*
X13723506Y4351191D01*
X13743920Y4304797D01*
X13747312Y4300762D01*
X13832780Y4199084D01*
X13832783Y4199081D01*
X13836170Y4195052D01*
X13840557Y4192132D01*
X13951124Y4118531D01*
X13951127Y4118530D01*
X13955513Y4115610D01*
X14092357Y4072858D01*
X14097625Y4072761D01*
X14097628Y4072761D01*
X14157933Y4071656D01*
X14235699Y4070230D01*
X14240782Y4071616D01*
X14240784Y4071616D01*
X14368927Y4106552D01*
X14368929Y4106553D01*
X14374017Y4107940D01*
X14496191Y4182955D01*
X14592400Y4289246D01*
X14654910Y4418267D01*
X14678696Y4559646D01*
X14678847Y4572000D01*
X14675619Y4594538D01*
X14674325Y4603577D01*
X16029791Y4603577D01*
X16030474Y4598354D01*
X16030474Y4598351D01*
X16037215Y4546805D01*
X16048380Y4461421D01*
X16106120Y4330197D01*
X16109512Y4326162D01*
X16194980Y4224484D01*
X16194983Y4224481D01*
X16198370Y4220452D01*
X16202757Y4217532D01*
X16313324Y4143931D01*
X16313327Y4143930D01*
X16317713Y4141010D01*
X16454557Y4098258D01*
X16459825Y4098161D01*
X16459828Y4098161D01*
X16520133Y4097056D01*
X16597899Y4095630D01*
X16602982Y4097016D01*
X16602984Y4097016D01*
X16731127Y4131952D01*
X16731129Y4131953D01*
X16736217Y4133340D01*
X16823391Y4186865D01*
X16853898Y4205596D01*
X16853899Y4205597D01*
X16858391Y4208355D01*
X16954600Y4314646D01*
X17017110Y4443667D01*
X17040896Y4585046D01*
X17041047Y4597400D01*
X17031133Y4666628D01*
X17021470Y4734103D01*
X17021470Y4734104D01*
X17020723Y4739318D01*
X17001280Y4782082D01*
X16963566Y4865029D01*
X16961384Y4869828D01*
X16867800Y4978437D01*
X16863381Y4981301D01*
X16863379Y4981303D01*
X16822472Y5007817D01*
X16747495Y5056415D01*
X16643568Y5087496D01*
X16615192Y5095982D01*
X16615191Y5095982D01*
X16610139Y5097493D01*
X16536503Y5097943D01*
X16472046Y5098337D01*
X16472045Y5098337D01*
X16466776Y5098369D01*
X16328929Y5058972D01*
X16207680Y4982470D01*
X16200593Y4974445D01*
X16119069Y4882136D01*
X16112777Y4875012D01*
X16051847Y4745237D01*
X16051037Y4740032D01*
X16051036Y4740030D01*
X16043580Y4692140D01*
X16029791Y4603577D01*
X14674325Y4603577D01*
X14659270Y4708703D01*
X14659270Y4708704D01*
X14658523Y4713918D01*
X14649346Y4734103D01*
X14601366Y4839629D01*
X14599184Y4844428D01*
X14505600Y4953037D01*
X14501181Y4955901D01*
X14501179Y4955903D01*
X14455852Y4985282D01*
X14385295Y5031015D01*
X14281368Y5062096D01*
X14252992Y5070582D01*
X14252991Y5070582D01*
X14247939Y5072093D01*
X14177193Y5072525D01*
X14109849Y5072937D01*
X14109847Y5072937D01*
X14107743Y5072950D01*
X14107741Y5072950D01*
X14104576Y5072969D01*
X14104580Y5073633D01*
X14059118Y5083460D01*
X14028092Y5123455D01*
X14028918Y5145000D01*
X17853965Y5145000D01*
X17872026Y5007817D01*
X17924976Y4879983D01*
X18009209Y4770209D01*
X18013056Y4767257D01*
X18013057Y4767256D01*
X18069997Y4723564D01*
X18118982Y4685976D01*
X18123461Y4684121D01*
X18123464Y4684119D01*
X18242336Y4634882D01*
X18246817Y4633026D01*
X18384000Y4614965D01*
X18521183Y4633026D01*
X18525664Y4634882D01*
X18644536Y4684119D01*
X18644539Y4684121D01*
X18649018Y4685976D01*
X18698003Y4723564D01*
X18754943Y4767256D01*
X18754944Y4767257D01*
X18758791Y4770209D01*
X18823806Y4854938D01*
X18866498Y4882136D01*
X18916683Y4875529D01*
X18950881Y4838208D01*
X18952892Y4832758D01*
X18986083Y4730607D01*
X18989219Y4723564D01*
X19079936Y4566437D01*
X19084466Y4560201D01*
X19205873Y4425366D01*
X19211604Y4420206D01*
X19358377Y4313568D01*
X19365072Y4309703D01*
X19530807Y4235914D01*
X19538147Y4233529D01*
X19551237Y4230746D01*
X19561770Y4232226D01*
X19563887Y4234578D01*
X19564000Y4235158D01*
X19564000Y5381952D01*
X19560362Y5391948D01*
X19555075Y5395000D01*
X18927050Y5395000D01*
X18921363Y5392930D01*
X18870744Y5392929D01*
X18837344Y5417419D01*
X18758791Y5519791D01*
X18736056Y5537237D01*
X18652865Y5601072D01*
X18649018Y5604024D01*
X18644539Y5605879D01*
X18644536Y5605881D01*
X18525664Y5655118D01*
X18521183Y5656974D01*
X18384000Y5675035D01*
X18246817Y5656974D01*
X18118983Y5604024D01*
X18009209Y5519791D01*
X17924976Y5410017D01*
X17872026Y5282183D01*
X17853965Y5145000D01*
X14028918Y5145000D01*
X14030032Y5174037D01*
X14046222Y5198406D01*
X14443442Y5595626D01*
X14489318Y5617018D01*
X14495768Y5617300D01*
X17466180Y5617300D01*
X17480616Y5615878D01*
X17500600Y5611903D01*
X17527732Y5617300D01*
X17527735Y5617300D01*
X17600948Y5631863D01*
X17600950Y5631864D01*
X17608095Y5633285D01*
X17670578Y5675035D01*
X17676222Y5678806D01*
X17676223Y5678807D01*
X17699224Y5694176D01*
X17710544Y5711117D01*
X17719746Y5722330D01*
X17905464Y5908048D01*
X18914000Y5908048D01*
X18917638Y5898052D01*
X18922925Y5895000D01*
X19550952Y5895000D01*
X19560948Y5898638D01*
X19564000Y5903925D01*
X19564000Y5908048D01*
X20064000Y5908048D01*
X20067638Y5898052D01*
X20072925Y5895000D01*
X20700952Y5895000D01*
X20710948Y5898638D01*
X20714000Y5903925D01*
X20714000Y6240224D01*
X20713798Y6244090D01*
X20699588Y6379293D01*
X20697983Y6386842D01*
X20641917Y6559393D01*
X20638781Y6566436D01*
X20548064Y6723563D01*
X20543534Y6729799D01*
X20422127Y6864634D01*
X20416396Y6869794D01*
X20269623Y6976432D01*
X20262928Y6980297D01*
X20097193Y7054086D01*
X20089853Y7056471D01*
X20076763Y7059254D01*
X20066230Y7057774D01*
X20064113Y7055422D01*
X20064000Y7054842D01*
X20064000Y5908048D01*
X19564000Y5908048D01*
X19564000Y7048919D01*
X19560362Y7058915D01*
X19557623Y7060496D01*
X19557030Y7060485D01*
X19538147Y7056471D01*
X19530807Y7054086D01*
X19365073Y6980297D01*
X19358378Y6976432D01*
X19211604Y6869794D01*
X19205873Y6864634D01*
X19084466Y6729799D01*
X19079936Y6723563D01*
X18989219Y6566436D01*
X18986083Y6559393D01*
X18930017Y6386842D01*
X18928412Y6379293D01*
X18914202Y6244090D01*
X18914000Y6240224D01*
X18914000Y5908048D01*
X17905464Y5908048D01*
X18842471Y6845055D01*
X18853682Y6854256D01*
X18870624Y6865576D01*
X18931515Y6956705D01*
X18937369Y6986132D01*
X18947500Y7037067D01*
X18947500Y7037068D01*
X18951475Y7057051D01*
X18952897Y7064200D01*
X18948922Y7084184D01*
X18947500Y7098620D01*
X18947500Y7209791D01*
X18964813Y7257357D01*
X19008650Y7282667D01*
X19046019Y7279611D01*
X19157475Y7240471D01*
X19166210Y7238554D01*
X19185864Y7236696D01*
X19193948Y7239638D01*
X19197000Y7244925D01*
X19197000Y10022951D01*
X19193362Y10032947D01*
X19188800Y10035580D01*
X19166216Y10033446D01*
X19157470Y10031528D01*
X19039271Y9990019D01*
X19029605Y9984902D01*
X18929657Y9911078D01*
X18921922Y9903343D01*
X18893817Y9865292D01*
X18851631Y9837317D01*
X18827039Y9835613D01*
X18825245Y9835790D01*
X18821674Y9836500D01*
X18522326Y9836500D01*
X18518757Y9835790D01*
X18518756Y9835790D01*
X18456407Y9823388D01*
X18456405Y9823387D01*
X18449260Y9821966D01*
X18443202Y9817918D01*
X18436466Y9815128D01*
X18435145Y9818316D01*
X18399605Y9809640D01*
X18354218Y9832052D01*
X18333700Y9883196D01*
X18333700Y10014374D01*
X18333976Y10020760D01*
X18336923Y10054784D01*
X18337451Y10060880D01*
X18335883Y10067193D01*
X18333700Y10085032D01*
X18333700Y10847766D01*
X18351013Y10895332D01*
X18355374Y10900092D01*
X18665508Y11210226D01*
X18711384Y11231618D01*
X18717834Y11231900D01*
X18830842Y11231900D01*
X18878408Y11214587D01*
G37*
%TD.AperFunction*%
%TA.AperFunction,Conductor*%
G36*
X14698891Y30086729D02*
G01*
X14711023Y30076922D01*
X15358526Y29429419D01*
X15367728Y29418206D01*
X15379048Y29401265D01*
X15402049Y29385896D01*
X15402050Y29385895D01*
X15470178Y29340373D01*
X15577672Y29318992D01*
X15584821Y29320414D01*
X15597657Y29322967D01*
X15612093Y29324389D01*
X17791503Y29324389D01*
X17839069Y29307076D01*
X17864379Y29263239D01*
X17858488Y29218939D01*
X17806685Y29108605D01*
X17806684Y29108601D01*
X17804447Y29103837D01*
X17782391Y28962177D01*
X17783074Y28956954D01*
X17783074Y28956951D01*
X17783573Y28953138D01*
X17800980Y28820021D01*
X17858720Y28688797D01*
X17862112Y28684762D01*
X17947580Y28583084D01*
X17947583Y28583081D01*
X17950970Y28579052D01*
X17955357Y28576132D01*
X18065924Y28502531D01*
X18065927Y28502530D01*
X18070313Y28499610D01*
X18207157Y28456858D01*
X18212429Y28456761D01*
X18217634Y28455918D01*
X18217341Y28454112D01*
X18257604Y28438612D01*
X18282101Y28394316D01*
X18283001Y28382811D01*
X18283001Y20156146D01*
X18265688Y20108580D01*
X18221851Y20083270D01*
X18187800Y20085249D01*
X18123602Y20104448D01*
X18113792Y20107382D01*
X18113791Y20107382D01*
X18108739Y20108893D01*
X18035103Y20109343D01*
X17970646Y20109737D01*
X17970645Y20109737D01*
X17965376Y20109769D01*
X17827529Y20070372D01*
X17823071Y20067559D01*
X17818958Y20064964D01*
X17769491Y20054225D01*
X17724695Y20077795D01*
X17705529Y20124645D01*
X17712876Y20159812D01*
X17728310Y20191667D01*
X17752096Y20333046D01*
X17752247Y20345400D01*
X17731923Y20487318D01*
X17724281Y20504127D01*
X17674766Y20613029D01*
X17672584Y20617828D01*
X17609950Y20690518D01*
X17582440Y20722445D01*
X17582439Y20722446D01*
X17579000Y20726437D01*
X17574581Y20729301D01*
X17574579Y20729303D01*
X17534668Y20755172D01*
X17458695Y20804415D01*
X17354768Y20835496D01*
X17326392Y20843982D01*
X17326391Y20843982D01*
X17321339Y20845493D01*
X17247703Y20845943D01*
X17183246Y20846337D01*
X17183245Y20846337D01*
X17177976Y20846369D01*
X17040129Y20806972D01*
X16918880Y20730470D01*
X16823977Y20623012D01*
X16763047Y20493237D01*
X16762237Y20488032D01*
X16762236Y20488030D01*
X16759187Y20468445D01*
X16740991Y20351577D01*
X16741674Y20346354D01*
X16741674Y20346351D01*
X16742173Y20342538D01*
X16759580Y20209421D01*
X16793457Y20132430D01*
X16811511Y20091400D01*
X16817320Y20078197D01*
X16830392Y20062646D01*
X16906180Y19972484D01*
X16906183Y19972481D01*
X16909570Y19968452D01*
X16947496Y19943206D01*
X17024524Y19891931D01*
X17024527Y19891930D01*
X17028913Y19889010D01*
X17165757Y19846258D01*
X17171025Y19846161D01*
X17171028Y19846161D01*
X17231333Y19845056D01*
X17309099Y19843630D01*
X17314182Y19845016D01*
X17314184Y19845016D01*
X17442327Y19879952D01*
X17442329Y19879953D01*
X17447417Y19881340D01*
X17463575Y19891261D01*
X17513169Y19901396D01*
X17557675Y19877281D01*
X17576268Y19830201D01*
X17569279Y19796749D01*
X17552687Y19761411D01*
X17552684Y19761402D01*
X17550447Y19756637D01*
X17549637Y19751432D01*
X17549636Y19751430D01*
X17541995Y19702355D01*
X17528391Y19614977D01*
X17529074Y19609754D01*
X17529074Y19609751D01*
X17531524Y19591016D01*
X17546980Y19472821D01*
X17604720Y19341597D01*
X17608112Y19337561D01*
X17608115Y19337557D01*
X17668290Y19265971D01*
X17685645Y19218420D01*
X17668374Y19170839D01*
X17663971Y19166029D01*
X12201529Y13703587D01*
X12190318Y13694386D01*
X12173376Y13683066D01*
X12158007Y13660065D01*
X12158006Y13660064D01*
X12142225Y13636446D01*
X12112485Y13591937D01*
X12112485Y13591936D01*
X12110059Y13579738D01*
X12110058Y13579737D01*
X12100196Y13530155D01*
X12091103Y13484442D01*
X12092525Y13477293D01*
X12095078Y13464459D01*
X12096500Y13450022D01*
X12096500Y10062209D01*
X12079187Y10014643D01*
X12035350Y9989333D01*
X11997981Y9992389D01*
X11886525Y10031529D01*
X11877790Y10033446D01*
X11858136Y10035304D01*
X11850052Y10032362D01*
X11847000Y10027075D01*
X11847000Y8535000D01*
X11829687Y8487434D01*
X11785850Y8462124D01*
X11773000Y8461000D01*
X11110049Y8461000D01*
X11099425Y8457133D01*
X11061612Y8425405D01*
X11010993Y8425405D01*
X10972217Y8457942D01*
X10963050Y8484451D01*
X10950870Y8569504D01*
X10950869Y8569506D01*
X10950123Y8574718D01*
X10909426Y8664228D01*
X10892966Y8700429D01*
X10890784Y8705228D01*
X10826881Y8779391D01*
X10800640Y8809845D01*
X10800639Y8809846D01*
X10797200Y8813837D01*
X10792781Y8816701D01*
X10792779Y8816703D01*
X10781447Y8824048D01*
X11097000Y8824048D01*
X11100638Y8814052D01*
X11105925Y8811000D01*
X11483952Y8811000D01*
X11493948Y8814638D01*
X11497000Y8819925D01*
X11497000Y10022951D01*
X11493362Y10032947D01*
X11488800Y10035580D01*
X11466216Y10033446D01*
X11457470Y10031528D01*
X11339271Y9990019D01*
X11329605Y9984902D01*
X11229657Y9911078D01*
X11221922Y9903343D01*
X11148098Y9803395D01*
X11142981Y9793729D01*
X11101471Y9675525D01*
X11099554Y9666790D01*
X11097163Y9641499D01*
X11097000Y9638031D01*
X11097000Y8824048D01*
X10781447Y8824048D01*
X10725922Y8860037D01*
X10676895Y8891815D01*
X10557455Y8927535D01*
X10544592Y8931382D01*
X10544591Y8931382D01*
X10539539Y8932893D01*
X10465903Y8933343D01*
X10401446Y8933737D01*
X10401445Y8933737D01*
X10396176Y8933769D01*
X10258329Y8894372D01*
X10137080Y8817870D01*
X10103097Y8779391D01*
X10067790Y8739413D01*
X10042177Y8710412D01*
X9981247Y8580637D01*
X9980437Y8575432D01*
X9980436Y8575430D01*
X9977520Y8556700D01*
X9959191Y8438977D01*
X9959874Y8433754D01*
X9959874Y8433751D01*
X9964355Y8399486D01*
X9977780Y8296821D01*
X10035520Y8165597D01*
X10043525Y8156074D01*
X10124380Y8059884D01*
X10124383Y8059881D01*
X10127770Y8055852D01*
X10132157Y8052932D01*
X10242770Y7979301D01*
X10254091Y7970027D01*
X11024031Y7200087D01*
X11045423Y7154211D01*
X11032322Y7105316D01*
X10987091Y7075378D01*
X10898147Y7056471D01*
X10890807Y7054086D01*
X10725073Y6980297D01*
X10718378Y6976432D01*
X10571604Y6869794D01*
X10565873Y6864634D01*
X10444466Y6729799D01*
X10439936Y6723563D01*
X10349219Y6566436D01*
X10346083Y6559393D01*
X10290017Y6386842D01*
X10288412Y6379293D01*
X10274202Y6244090D01*
X10274000Y6240224D01*
X10274000Y5908048D01*
X10277638Y5898052D01*
X10282925Y5895000D01*
X12060952Y5895000D01*
X12070948Y5898638D01*
X12074000Y5903925D01*
X12074000Y6240224D01*
X12073798Y6244090D01*
X12059588Y6379293D01*
X12057983Y6386842D01*
X12001917Y6559393D01*
X11998780Y6566438D01*
X11994240Y6574302D01*
X11985452Y6624152D01*
X12010762Y6667989D01*
X12058327Y6685300D01*
X16972713Y6685300D01*
X16988288Y6683642D01*
X17001261Y6680849D01*
X17007336Y6681568D01*
X17007337Y6681568D01*
X17034533Y6684787D01*
X17043231Y6685300D01*
X17047115Y6685300D01*
X17050129Y6685802D01*
X17050133Y6685802D01*
X17065701Y6688393D01*
X17069151Y6688884D01*
X17111065Y6693845D01*
X17111066Y6693845D01*
X17117138Y6694564D01*
X17122650Y6697211D01*
X17123787Y6697541D01*
X17124595Y6697725D01*
X17125180Y6697910D01*
X17125932Y6698218D01*
X17127071Y6698608D01*
X17133103Y6699612D01*
X17163147Y6715823D01*
X17175645Y6722566D01*
X17178751Y6724148D01*
X17218125Y6743055D01*
X17218135Y6743062D01*
X17222326Y6745074D01*
X17226274Y6748392D01*
X17227227Y6749345D01*
X17230690Y6752268D01*
X17235794Y6755022D01*
X17270140Y6792177D01*
X17272154Y6794272D01*
X17487816Y7009934D01*
X17500002Y7019775D01*
X17506011Y7023655D01*
X17506013Y7023657D01*
X17511152Y7026975D01*
X17531894Y7053286D01*
X17537681Y7059799D01*
X17540428Y7062546D01*
X17542199Y7065024D01*
X17542203Y7065029D01*
X17551386Y7077880D01*
X17553460Y7080643D01*
X17583392Y7118611D01*
X17585418Y7124380D01*
X17585988Y7125417D01*
X17586429Y7126118D01*
X17586713Y7126665D01*
X17587028Y7127416D01*
X17587557Y7128495D01*
X17591111Y7133469D01*
X17592863Y7139329D01*
X17592865Y7139332D01*
X17604963Y7179785D01*
X17606040Y7183101D01*
X17614615Y7207520D01*
X17622055Y7228706D01*
X17622500Y7233844D01*
X17622500Y7235184D01*
X17622883Y7239711D01*
X17624543Y7245263D01*
X17623953Y7260298D01*
X17622557Y7295822D01*
X17622500Y7298727D01*
X17622500Y7396288D01*
X17639813Y7443854D01*
X17683650Y7469164D01*
X17737612Y7457817D01*
X17749260Y7450034D01*
X17756405Y7448613D01*
X17756407Y7448612D01*
X17818756Y7436210D01*
X17818757Y7436210D01*
X17822326Y7435500D01*
X18121674Y7435500D01*
X18125243Y7436210D01*
X18125244Y7436210D01*
X18187593Y7448612D01*
X18187595Y7448613D01*
X18194740Y7450034D01*
X18200797Y7454081D01*
X18200799Y7454082D01*
X18277601Y7505399D01*
X18278732Y7503707D01*
X18315550Y7520875D01*
X18364445Y7507774D01*
X18365281Y7507073D01*
X18366399Y7505399D01*
X18370702Y7502524D01*
X18374326Y7499483D01*
X18374826Y7498983D01*
X18396218Y7453107D01*
X18396500Y7446657D01*
X18396500Y7208968D01*
X18379187Y7161402D01*
X18374826Y7156642D01*
X17408158Y6189974D01*
X17362282Y6168582D01*
X17355832Y6168300D01*
X14385420Y6168300D01*
X14370983Y6169722D01*
X14358149Y6172275D01*
X14351000Y6173697D01*
X14323868Y6168300D01*
X14323865Y6168300D01*
X14288371Y6161239D01*
X14243505Y6152315D01*
X14201535Y6124271D01*
X14175378Y6106794D01*
X14175377Y6106793D01*
X14152376Y6091424D01*
X14148327Y6085364D01*
X14141058Y6074485D01*
X14131855Y6063271D01*
X13249396Y5180812D01*
X13203520Y5159420D01*
X13154625Y5172521D01*
X13125591Y5213985D01*
X13123703Y5223478D01*
X13116607Y5277376D01*
X13116607Y5277377D01*
X13115974Y5282183D01*
X13063024Y5410017D01*
X12978791Y5519791D01*
X12956056Y5537237D01*
X12872865Y5601072D01*
X12869018Y5604024D01*
X12864539Y5605879D01*
X12864536Y5605881D01*
X12745664Y5655118D01*
X12741183Y5656974D01*
X12604000Y5675035D01*
X12466817Y5656974D01*
X12338983Y5604024D01*
X12229209Y5519791D01*
X12151966Y5419126D01*
X12109275Y5391930D01*
X12080593Y5396344D01*
X12080402Y5394157D01*
X12070764Y5395000D01*
X10287048Y5395000D01*
X10277052Y5391362D01*
X10274000Y5386075D01*
X10274000Y5049776D01*
X10274202Y5045910D01*
X10288412Y4910707D01*
X10290017Y4903158D01*
X10346083Y4730607D01*
X10349219Y4723564D01*
X10439936Y4566437D01*
X10444466Y4560201D01*
X10481446Y4519131D01*
X10500408Y4472198D01*
X10484766Y4424056D01*
X10441839Y4397232D01*
X10391712Y4404277D01*
X10374127Y4417289D01*
X9466574Y5324842D01*
X9445182Y5370718D01*
X9444900Y5377168D01*
X9444900Y12793662D01*
X9462213Y12841228D01*
X9506050Y12866538D01*
X9520257Y12867650D01*
X9526799Y12867530D01*
X9531881Y12868915D01*
X9531885Y12868916D01*
X9660027Y12903852D01*
X9660029Y12903853D01*
X9665117Y12905240D01*
X9729192Y12944582D01*
X9782798Y12977496D01*
X9782799Y12977497D01*
X9787291Y12980255D01*
X9883500Y13086546D01*
X9946010Y13215567D01*
X9969796Y13356946D01*
X9969947Y13369300D01*
X9966329Y13394561D01*
X9950370Y13506003D01*
X9950370Y13506004D01*
X9949623Y13511218D01*
X9947442Y13516014D01*
X9945962Y13521076D01*
X9947889Y13521639D01*
X9944578Y13564132D01*
X9974005Y13605319D01*
X10015871Y13618300D01*
X10328780Y13618300D01*
X10343216Y13616878D01*
X10363200Y13612903D01*
X10390332Y13618300D01*
X10390335Y13618300D01*
X10463548Y13632863D01*
X10463550Y13632864D01*
X10470695Y13634285D01*
X10509283Y13660069D01*
X10529100Y13673310D01*
X10529101Y13673311D01*
X10538822Y13679806D01*
X10538826Y13679809D01*
X10549760Y13687115D01*
X10561824Y13695176D01*
X10573144Y13712118D01*
X10582345Y13723329D01*
X14724671Y17865655D01*
X14735882Y17874856D01*
X14752824Y17886176D01*
X14813715Y17977305D01*
X14820927Y18013559D01*
X14829700Y18057667D01*
X14829700Y18057668D01*
X14833675Y18077651D01*
X14835097Y18084800D01*
X14831122Y18104784D01*
X14829700Y18119220D01*
X14829700Y18996796D01*
X14847013Y19044362D01*
X14864974Y19059854D01*
X14877191Y19067355D01*
X14973400Y19173646D01*
X15035910Y19302667D01*
X15059696Y19444046D01*
X15059847Y19456400D01*
X15053570Y19500228D01*
X15040270Y19593103D01*
X15040270Y19593104D01*
X15039523Y19598318D01*
X15031020Y19617020D01*
X15027092Y19667484D01*
X15056523Y19708669D01*
X15105540Y19721300D01*
X15139389Y19709247D01*
X15246524Y19637931D01*
X15246527Y19637930D01*
X15250913Y19635010D01*
X15387757Y19592258D01*
X15393025Y19592161D01*
X15393028Y19592161D01*
X15453333Y19591056D01*
X15531099Y19589630D01*
X15536182Y19591016D01*
X15536184Y19591016D01*
X15664327Y19625952D01*
X15664329Y19625953D01*
X15669417Y19627340D01*
X15750500Y19677125D01*
X15787098Y19699596D01*
X15787099Y19699597D01*
X15791591Y19702355D01*
X15887800Y19808646D01*
X15950310Y19937667D01*
X15974096Y20079046D01*
X15974247Y20091400D01*
X15953923Y20233318D01*
X15940779Y20262228D01*
X15896766Y20359029D01*
X15894584Y20363828D01*
X15801000Y20472437D01*
X15796581Y20475301D01*
X15796579Y20475303D01*
X15748353Y20506561D01*
X15680695Y20550415D01*
X15576768Y20581496D01*
X15548392Y20589982D01*
X15548391Y20589982D01*
X15543339Y20591493D01*
X15469703Y20591943D01*
X15405246Y20592337D01*
X15405245Y20592337D01*
X15399976Y20592369D01*
X15262129Y20552972D01*
X15257669Y20550158D01*
X15255200Y20548600D01*
X15140880Y20476470D01*
X15117790Y20450325D01*
X15051151Y20374870D01*
X15045977Y20369012D01*
X14985047Y20239237D01*
X14984237Y20234032D01*
X14984236Y20234030D01*
X14976902Y20186923D01*
X14962991Y20097577D01*
X14963674Y20092354D01*
X14963674Y20092351D01*
X14969283Y20049458D01*
X14981580Y19955421D01*
X14992449Y19930719D01*
X14995760Y19880210D01*
X14965829Y19839389D01*
X14916661Y19827357D01*
X14884467Y19838820D01*
X14770718Y19912548D01*
X14770719Y19912548D01*
X14766295Y19915415D01*
X14648644Y19950600D01*
X14633992Y19954982D01*
X14633991Y19954982D01*
X14628939Y19956493D01*
X14555303Y19956943D01*
X14490846Y19957337D01*
X14490845Y19957337D01*
X14485576Y19957369D01*
X14347729Y19917972D01*
X14226480Y19841470D01*
X14217516Y19831320D01*
X14151559Y19756637D01*
X14131577Y19734012D01*
X14129338Y19729243D01*
X14129336Y19729240D01*
X14107085Y19681847D01*
X14071198Y19646148D01*
X14020760Y19641868D01*
X13979372Y19671010D01*
X13966100Y19713296D01*
X13966100Y29451660D01*
X13983413Y29499226D01*
X14030953Y29525092D01*
X14031231Y29525127D01*
X14036499Y29525030D01*
X14041582Y29526416D01*
X14041584Y29526416D01*
X14169727Y29561352D01*
X14169729Y29561353D01*
X14174817Y29562740D01*
X14296991Y29637755D01*
X14393200Y29744046D01*
X14455710Y29873067D01*
X14479496Y30014446D01*
X14479623Y30024841D01*
X14497515Y30072192D01*
X14541658Y30096964D01*
X14554972Y30097925D01*
X14641960Y30096330D01*
X14647044Y30097716D01*
X14649549Y30098028D01*
X14698891Y30086729D01*
G37*
%TD.AperFunction*%
%TA.AperFunction,Conductor*%
G36*
X18198047Y17987249D02*
G01*
X18223335Y17956435D01*
X18239720Y17919197D01*
X18243112Y17915162D01*
X18328580Y17813484D01*
X18328583Y17813481D01*
X18331970Y17809452D01*
X18360105Y17790724D01*
X18427806Y17745658D01*
X18457808Y17704889D01*
X18460801Y17684058D01*
X18460801Y15507946D01*
X18443488Y15460380D01*
X18399651Y15435070D01*
X18365600Y15437049D01*
X18311673Y15453176D01*
X18291592Y15459182D01*
X18291591Y15459182D01*
X18286539Y15460693D01*
X18212903Y15461143D01*
X18148446Y15461537D01*
X18148445Y15461537D01*
X18143176Y15461569D01*
X18005329Y15422172D01*
X17884080Y15345670D01*
X17789177Y15238212D01*
X17728247Y15108437D01*
X17706191Y14966777D01*
X17724780Y14824621D01*
X17782520Y14693397D01*
X17785912Y14689362D01*
X17871380Y14587684D01*
X17871383Y14587681D01*
X17874770Y14583652D01*
X17879157Y14580732D01*
X17989724Y14507131D01*
X17989727Y14507130D01*
X17994113Y14504210D01*
X18130957Y14461458D01*
X18136225Y14461361D01*
X18136228Y14461361D01*
X18196533Y14460256D01*
X18274299Y14458830D01*
X18279382Y14460216D01*
X18279384Y14460216D01*
X18367337Y14484195D01*
X18417782Y14480004D01*
X18453731Y14444367D01*
X18460801Y14412801D01*
X18460801Y13937069D01*
X18443488Y13889503D01*
X18439127Y13884743D01*
X15001529Y10447145D01*
X14990318Y10437944D01*
X14973376Y10426624D01*
X14958007Y10403623D01*
X14958006Y10403622D01*
X14944561Y10383500D01*
X14912485Y10335495D01*
X14912485Y10335494D01*
X14910059Y10323296D01*
X14910058Y10323295D01*
X14897632Y10260824D01*
X14891103Y10228000D01*
X14892525Y10220851D01*
X14895078Y10208017D01*
X14896500Y10193580D01*
X14896500Y10062209D01*
X14879187Y10014643D01*
X14835350Y9989333D01*
X14797981Y9992389D01*
X14686525Y10031529D01*
X14677790Y10033446D01*
X14658136Y10035304D01*
X14650052Y10032362D01*
X14647000Y10027075D01*
X14647000Y8535000D01*
X14629687Y8487434D01*
X14585850Y8462124D01*
X14573000Y8461000D01*
X14371000Y8461000D01*
X14323434Y8478313D01*
X14298124Y8522150D01*
X14297000Y8535000D01*
X14297000Y10022951D01*
X14293362Y10032947D01*
X14288800Y10035580D01*
X14266216Y10033446D01*
X14257470Y10031528D01*
X14146019Y9992389D01*
X14095403Y9992963D01*
X14056998Y10025939D01*
X14047500Y10062209D01*
X14047500Y11690177D01*
X14226391Y11690177D01*
X14227074Y11684954D01*
X14227074Y11684951D01*
X14231584Y11650467D01*
X14244980Y11548021D01*
X14302720Y11416797D01*
X14306112Y11412762D01*
X14391580Y11311084D01*
X14391583Y11311081D01*
X14394970Y11307052D01*
X14413143Y11294955D01*
X14509924Y11230531D01*
X14509927Y11230530D01*
X14514313Y11227610D01*
X14651157Y11184858D01*
X14656425Y11184761D01*
X14656428Y11184761D01*
X14716733Y11183656D01*
X14794499Y11182230D01*
X14799582Y11183616D01*
X14799584Y11183616D01*
X14927727Y11218552D01*
X14927729Y11218553D01*
X14932817Y11219940D01*
X15054991Y11294955D01*
X15151200Y11401246D01*
X15213710Y11530267D01*
X15237496Y11671646D01*
X15237647Y11684000D01*
X15230927Y11730923D01*
X15241322Y11780461D01*
X15251854Y11793738D01*
X15383252Y11925136D01*
X15429128Y11946528D01*
X15436933Y11946798D01*
X15576999Y11944230D01*
X15582082Y11945616D01*
X15582084Y11945616D01*
X15710227Y11980552D01*
X15710229Y11980553D01*
X15715317Y11981940D01*
X15837491Y12056955D01*
X15933700Y12163246D01*
X15996210Y12292267D01*
X16019996Y12433646D01*
X16020147Y12446000D01*
X16002648Y12568192D01*
X16000570Y12582703D01*
X16000570Y12582704D01*
X15999823Y12587918D01*
X15940484Y12718428D01*
X15846900Y12827037D01*
X15842481Y12829901D01*
X15842479Y12829903D01*
X15802568Y12855772D01*
X15726595Y12905015D01*
X15622668Y12936096D01*
X15594292Y12944582D01*
X15594291Y12944582D01*
X15589239Y12946093D01*
X15515603Y12946543D01*
X15451146Y12946937D01*
X15451145Y12946937D01*
X15445876Y12946969D01*
X15308029Y12907572D01*
X15186780Y12831070D01*
X15091877Y12723612D01*
X15030947Y12593837D01*
X15008891Y12452177D01*
X15009574Y12446954D01*
X15009574Y12446950D01*
X15018292Y12380279D01*
X15007293Y12330870D01*
X14997243Y12318359D01*
X14881253Y12202369D01*
X14835377Y12180977D01*
X14817157Y12182839D01*
X14817002Y12181803D01*
X14811792Y12182582D01*
X14806739Y12184093D01*
X14733103Y12184543D01*
X14668646Y12184937D01*
X14668645Y12184937D01*
X14663376Y12184969D01*
X14525529Y12145572D01*
X14404280Y12069070D01*
X14372063Y12032591D01*
X14329767Y11984699D01*
X14309377Y11961612D01*
X14248447Y11831837D01*
X14247637Y11826632D01*
X14247636Y11826630D01*
X14245497Y11812889D01*
X14226391Y11690177D01*
X14047500Y11690177D01*
X14047500Y13892530D01*
X14064813Y13940096D01*
X14069174Y13944856D01*
X18103276Y17978958D01*
X18149152Y18000350D01*
X18198047Y17987249D01*
G37*
%TD.AperFunction*%
%TA.AperFunction,Conductor*%
G36*
X9298820Y24894571D02*
G01*
X9324473Y24850934D01*
X9325700Y24837512D01*
X9325700Y23519223D01*
X9308387Y23471657D01*
X9264550Y23446347D01*
X9211451Y23457126D01*
X9206720Y23460193D01*
X9136488Y23505715D01*
X8999132Y23546793D01*
X8995097Y23546818D01*
X8951064Y23570729D01*
X8932515Y23617827D01*
X8933516Y23632032D01*
X8938296Y23660446D01*
X8938447Y23672800D01*
X8918123Y23814718D01*
X8858784Y23945228D01*
X8802725Y24010288D01*
X8768640Y24049845D01*
X8768639Y24049846D01*
X8765200Y24053837D01*
X8760781Y24056701D01*
X8760779Y24056703D01*
X8720868Y24082572D01*
X8644895Y24131815D01*
X8540968Y24162896D01*
X8512592Y24171382D01*
X8512591Y24171382D01*
X8507539Y24172893D01*
X8433903Y24173343D01*
X8369446Y24173737D01*
X8369445Y24173737D01*
X8364176Y24173769D01*
X8226329Y24134372D01*
X8105080Y24057870D01*
X8010177Y23950412D01*
X7949247Y23820637D01*
X7948437Y23815432D01*
X7948436Y23815430D01*
X7941101Y23768320D01*
X7927191Y23678977D01*
X7927874Y23673754D01*
X7927874Y23673751D01*
X7933329Y23632038D01*
X7945780Y23536821D01*
X8003520Y23405597D01*
X8006912Y23401562D01*
X8092380Y23299884D01*
X8092383Y23299881D01*
X8095770Y23295852D01*
X8100157Y23292932D01*
X8210724Y23219331D01*
X8210727Y23219330D01*
X8215113Y23216410D01*
X8351957Y23173658D01*
X8357228Y23173561D01*
X8362434Y23172718D01*
X8361996Y23170017D01*
X8399818Y23155426D01*
X8424284Y23111113D01*
X8424295Y23088275D01*
X8418784Y23052877D01*
X8419467Y23047654D01*
X8419467Y23047651D01*
X8434049Y22936137D01*
X8423050Y22886727D01*
X8413000Y22874216D01*
X4149358Y18610574D01*
X4103482Y18589182D01*
X4097032Y18588900D01*
X3962456Y18588900D01*
X3914890Y18606213D01*
X3906396Y18614596D01*
X3841040Y18690445D01*
X3841039Y18690446D01*
X3837600Y18694437D01*
X3833181Y18697301D01*
X3833179Y18697303D01*
X3784953Y18728561D01*
X3717295Y18772415D01*
X3611401Y18804084D01*
X3584992Y18811982D01*
X3584991Y18811982D01*
X3579939Y18813493D01*
X3506303Y18813943D01*
X3441846Y18814337D01*
X3441845Y18814337D01*
X3436576Y18814369D01*
X3298729Y18774972D01*
X3294269Y18772158D01*
X3292125Y18770805D01*
X3177480Y18698470D01*
X3130624Y18645415D01*
X3093185Y18603023D01*
X3082577Y18591012D01*
X3021647Y18461237D01*
X3020837Y18456032D01*
X3020836Y18456030D01*
X3014666Y18416399D01*
X2999591Y18319577D01*
X3000274Y18314354D01*
X3000274Y18314351D01*
X3005336Y18275646D01*
X3018180Y18177421D01*
X3075920Y18046197D01*
X3086236Y18033925D01*
X3164780Y17940484D01*
X3164783Y17940481D01*
X3168170Y17936452D01*
X3186343Y17924355D01*
X3283124Y17859931D01*
X3283127Y17859930D01*
X3287513Y17857010D01*
X3292545Y17855438D01*
X3327450Y17844533D01*
X3367689Y17813824D01*
X3378775Y17764434D01*
X3355520Y17719473D01*
X3305383Y17699900D01*
X2686300Y17699900D01*
X2638734Y17717213D01*
X2613424Y17761050D01*
X2612300Y17773900D01*
X2612300Y18829032D01*
X2629613Y18876598D01*
X2633974Y18881358D01*
X3221552Y19468936D01*
X3267428Y19490328D01*
X3275233Y19490598D01*
X3415299Y19488030D01*
X3420382Y19489416D01*
X3420384Y19489416D01*
X3548527Y19524352D01*
X3548529Y19524353D01*
X3553617Y19525740D01*
X3617366Y19564882D01*
X3671298Y19597996D01*
X3671299Y19597997D01*
X3675791Y19600755D01*
X3772000Y19707046D01*
X3834510Y19836067D01*
X3858296Y19977446D01*
X3858447Y19989800D01*
X3846366Y20074162D01*
X3838870Y20126503D01*
X3838870Y20126504D01*
X3838123Y20131718D01*
X3789748Y20238115D01*
X3780966Y20257429D01*
X3778784Y20262228D01*
X3697309Y20356784D01*
X3688640Y20366845D01*
X3688639Y20366846D01*
X3685200Y20370837D01*
X3680781Y20373701D01*
X3680779Y20373703D01*
X3612671Y20417848D01*
X3564895Y20448815D01*
X3453587Y20482103D01*
X3432592Y20488382D01*
X3432591Y20488382D01*
X3427539Y20489893D01*
X3353903Y20490343D01*
X3289446Y20490737D01*
X3289445Y20490737D01*
X3284176Y20490769D01*
X3146329Y20451372D01*
X3025080Y20374870D01*
X2930177Y20267412D01*
X2869247Y20137637D01*
X2868437Y20132432D01*
X2868436Y20132430D01*
X2861090Y20085249D01*
X2847191Y19995977D01*
X2847874Y19990754D01*
X2847874Y19990750D01*
X2856592Y19924079D01*
X2845593Y19874670D01*
X2835543Y19862159D01*
X2205226Y19231842D01*
X2159350Y19210450D01*
X2110455Y19223551D01*
X2081421Y19265015D01*
X2078900Y19284168D01*
X2078900Y22842232D01*
X2096213Y22889798D01*
X2100574Y22894558D01*
X3204649Y23998633D01*
X3250525Y24020025D01*
X3299420Y24006924D01*
X3328454Y23965460D01*
X3329635Y23943471D01*
X3330666Y23943458D01*
X3330602Y23938183D01*
X3329791Y23932977D01*
X3330474Y23927754D01*
X3330474Y23927751D01*
X3330973Y23923938D01*
X3348380Y23790821D01*
X3350503Y23785997D01*
X3400311Y23672800D01*
X3406120Y23659597D01*
X3409512Y23655562D01*
X3494980Y23553884D01*
X3494983Y23553881D01*
X3498370Y23549852D01*
X3503296Y23546573D01*
X3613324Y23473331D01*
X3613327Y23473330D01*
X3617713Y23470410D01*
X3754557Y23427658D01*
X3759825Y23427561D01*
X3759828Y23427561D01*
X3820133Y23426456D01*
X3897899Y23425030D01*
X3902982Y23426416D01*
X3902984Y23426416D01*
X4031127Y23461352D01*
X4031129Y23461353D01*
X4036217Y23462740D01*
X4128209Y23519223D01*
X4153898Y23534996D01*
X4153899Y23534997D01*
X4158391Y23537755D01*
X4254600Y23644046D01*
X4317110Y23773067D01*
X4340896Y23914446D01*
X4341047Y23926800D01*
X4330760Y23998633D01*
X4321470Y24063503D01*
X4321470Y24063504D01*
X4320723Y24068718D01*
X4261384Y24199228D01*
X4167800Y24307837D01*
X4163381Y24310701D01*
X4163379Y24310703D01*
X4123468Y24336572D01*
X4047495Y24385815D01*
X3943568Y24416896D01*
X3915192Y24425382D01*
X3915191Y24425382D01*
X3910139Y24426893D01*
X3811708Y24427494D01*
X3764249Y24445097D01*
X3739208Y24489088D01*
X3748302Y24538884D01*
X3759835Y24553819D01*
X3851642Y24645626D01*
X3897518Y24667018D01*
X3903968Y24667300D01*
X8230026Y24667300D01*
X8277592Y24649987D01*
X8286672Y24640916D01*
X8346380Y24569884D01*
X8346383Y24569881D01*
X8349770Y24565852D01*
X8354157Y24562932D01*
X8464724Y24489331D01*
X8464727Y24489330D01*
X8469113Y24486410D01*
X8605957Y24443658D01*
X8611225Y24443561D01*
X8611228Y24443561D01*
X8671533Y24442456D01*
X8749299Y24441030D01*
X8754382Y24442416D01*
X8754384Y24442416D01*
X8882527Y24477352D01*
X8882529Y24477353D01*
X8887617Y24478740D01*
X9009791Y24553755D01*
X9106000Y24660046D01*
X9168510Y24789067D01*
X9178726Y24849789D01*
X9203690Y24893824D01*
X9251119Y24911510D01*
X9298820Y24894571D01*
G37*
%TD.AperFunction*%
%TA.AperFunction,Conductor*%
G36*
X9307080Y22622551D02*
G01*
X9325700Y22573469D01*
X9325700Y19093168D01*
X9308387Y19045602D01*
X9304026Y19040842D01*
X9224748Y18961564D01*
X9178872Y18940172D01*
X9167939Y18940505D01*
X9167939Y18940493D01*
X9029846Y18941337D01*
X9029845Y18941337D01*
X9024576Y18941369D01*
X8886729Y18901972D01*
X8765480Y18825470D01*
X8722162Y18776421D01*
X8674721Y18722704D01*
X8670577Y18718012D01*
X8609647Y18588237D01*
X8608837Y18583032D01*
X8608836Y18583030D01*
X8606124Y18565612D01*
X8587591Y18446577D01*
X8588274Y18441354D01*
X8588274Y18441351D01*
X8588773Y18437538D01*
X8606180Y18304421D01*
X8639116Y18229568D01*
X8658111Y18186400D01*
X8663920Y18173197D01*
X8674813Y18160238D01*
X8752780Y18067484D01*
X8752783Y18067481D01*
X8756170Y18063452D01*
X8773164Y18052140D01*
X8871124Y17986931D01*
X8871127Y17986930D01*
X8875513Y17984010D01*
X9012357Y17941258D01*
X9017625Y17941161D01*
X9017628Y17941161D01*
X9142375Y17938874D01*
X9189616Y17920692D01*
X9214117Y17876398D01*
X9204415Y17826717D01*
X9193344Y17812560D01*
X9102358Y17721574D01*
X9056482Y17700182D01*
X9050032Y17699900D01*
X6132072Y17699900D01*
X6084506Y17717213D01*
X6059196Y17761050D01*
X6067986Y17810900D01*
X6106763Y17843437D01*
X6112608Y17845294D01*
X6215529Y17873353D01*
X6215533Y17873355D01*
X6220618Y17874741D01*
X6300883Y17924024D01*
X6338299Y17946997D01*
X6338300Y17946998D01*
X6342792Y17949756D01*
X6439001Y18056047D01*
X6501511Y18185068D01*
X6525297Y18326447D01*
X6525448Y18338801D01*
X6510493Y18443226D01*
X6505871Y18475504D01*
X6505871Y18475505D01*
X6505124Y18480719D01*
X6448233Y18605846D01*
X6447967Y18606430D01*
X6445785Y18611229D01*
X6377528Y18690445D01*
X6355641Y18715846D01*
X6355640Y18715847D01*
X6352201Y18719838D01*
X6347782Y18722702D01*
X6347780Y18722704D01*
X6296661Y18755837D01*
X6231896Y18797816D01*
X6127516Y18829032D01*
X6099593Y18837383D01*
X6099592Y18837383D01*
X6094540Y18838894D01*
X6020904Y18839344D01*
X5956447Y18839738D01*
X5956446Y18839738D01*
X5951177Y18839770D01*
X5813330Y18800373D01*
X5692081Y18723871D01*
X5655204Y18682115D01*
X5601254Y18621028D01*
X5597178Y18616413D01*
X5536248Y18486638D01*
X5535438Y18481433D01*
X5535437Y18481431D01*
X5529489Y18443226D01*
X5514192Y18344978D01*
X5514875Y18339755D01*
X5514875Y18339752D01*
X5517755Y18317728D01*
X5532781Y18202822D01*
X5590521Y18071598D01*
X5599605Y18060791D01*
X5679381Y17965885D01*
X5679384Y17965882D01*
X5682771Y17961853D01*
X5695070Y17953666D01*
X5797725Y17885332D01*
X5797728Y17885331D01*
X5802114Y17882411D01*
X5807146Y17880839D01*
X5923357Y17844533D01*
X5963596Y17813824D01*
X5974682Y17764434D01*
X5951427Y17719473D01*
X5901290Y17699900D01*
X3710641Y17699900D01*
X3663075Y17717213D01*
X3637765Y17761050D01*
X3646555Y17810900D01*
X3685332Y17843437D01*
X3691173Y17845293D01*
X3706017Y17849340D01*
X3794463Y17903646D01*
X3823698Y17921596D01*
X3823699Y17921597D01*
X3828191Y17924355D01*
X3882588Y17984452D01*
X3908934Y18013559D01*
X3953690Y18037207D01*
X3963797Y18037900D01*
X4207380Y18037900D01*
X4221817Y18036478D01*
X4232324Y18034388D01*
X4241800Y18032503D01*
X4268932Y18037900D01*
X4268935Y18037900D01*
X4342148Y18052463D01*
X4342150Y18052464D01*
X4349295Y18053885D01*
X4395562Y18084800D01*
X4407700Y18092910D01*
X4407701Y18092911D01*
X4417422Y18099406D01*
X4417426Y18099409D01*
X4417565Y18099502D01*
X4440424Y18114776D01*
X4451744Y18131718D01*
X4460945Y18142929D01*
X6872793Y20554777D01*
X7876391Y20554777D01*
X7877074Y20549554D01*
X7877074Y20549551D01*
X7882683Y20506658D01*
X7894980Y20412621D01*
X7952720Y20281397D01*
X7961804Y20270590D01*
X8041580Y20175684D01*
X8041583Y20175681D01*
X8044970Y20171652D01*
X8063143Y20159555D01*
X8159924Y20095131D01*
X8159927Y20095130D01*
X8164313Y20092210D01*
X8301157Y20049458D01*
X8306425Y20049361D01*
X8306428Y20049361D01*
X8366733Y20048256D01*
X8444499Y20046830D01*
X8449582Y20048216D01*
X8449584Y20048216D01*
X8577727Y20083152D01*
X8577729Y20083153D01*
X8582817Y20084540D01*
X8648134Y20124645D01*
X8700498Y20156796D01*
X8700499Y20156797D01*
X8704991Y20159555D01*
X8801200Y20265846D01*
X8863710Y20394867D01*
X8887496Y20536246D01*
X8887647Y20548600D01*
X8877733Y20617828D01*
X8868070Y20685303D01*
X8868070Y20685304D01*
X8867323Y20690518D01*
X8852534Y20723046D01*
X8810166Y20816229D01*
X8807984Y20821028D01*
X8714400Y20929637D01*
X8709981Y20932501D01*
X8709979Y20932503D01*
X8620310Y20990623D01*
X8594095Y21007615D01*
X8490168Y21038696D01*
X8461792Y21047182D01*
X8461791Y21047182D01*
X8456739Y21048693D01*
X8383103Y21049143D01*
X8318646Y21049537D01*
X8318645Y21049537D01*
X8313376Y21049569D01*
X8175529Y21010172D01*
X8054280Y20933670D01*
X8047193Y20925645D01*
X7976434Y20845525D01*
X7959377Y20826212D01*
X7898447Y20696437D01*
X7876391Y20554777D01*
X6872793Y20554777D01*
X8842939Y22524923D01*
X8888815Y22546315D01*
X8896614Y22546585D01*
X8986892Y22544930D01*
X8991975Y22546316D01*
X8991977Y22546316D01*
X9120120Y22581252D01*
X9120122Y22581253D01*
X9125210Y22582640D01*
X9212980Y22636531D01*
X9262574Y22646666D01*
X9307080Y22622551D01*
G37*
%TD.AperFunction*%
%TD*%
M02*
