%TF.GenerationSoftware,KiCad,Pcbnew,(6.0.0-rc1-323-gb9e66d8b98)*%
%TF.CreationDate,2021-12-29T00:01:45+08:00*%
%TF.ProjectId,AudioExtendBoard,41756469-6f45-4787-9465-6e64426f6172,rev?*%
%TF.SameCoordinates,Original*%
%TF.FileFunction,Paste,Top*%
%TF.FilePolarity,Positive*%
%FSLAX46Y46*%
G04 Gerber Fmt 4.6, Leading zero omitted, Abs format (unit mm)*
G04 Created by KiCad (PCBNEW (6.0.0-rc1-323-gb9e66d8b98)) date 2021-12-29 00:01:45*
%MOMM*%
%LPD*%
G01*
G04 APERTURE LIST*
G04 Aperture macros list*
%AMRoundRect*
0 Rectangle with rounded corners*
0 $1 Rounding radius*
0 $2 $3 $4 $5 $6 $7 $8 $9 X,Y pos of 4 corners*
0 Add a 4 corners polygon primitive as box body*
4,1,4,$2,$3,$4,$5,$6,$7,$8,$9,$2,$3,0*
0 Add four circle primitives for the rounded corners*
1,1,$1+$1,$2,$3*
1,1,$1+$1,$4,$5*
1,1,$1+$1,$6,$7*
1,1,$1+$1,$8,$9*
0 Add four rect primitives between the rounded corners*
20,1,$1+$1,$2,$3,$4,$5,0*
20,1,$1+$1,$4,$5,$6,$7,0*
20,1,$1+$1,$6,$7,$8,$9,0*
20,1,$1+$1,$8,$9,$2,$3,0*%
G04 Aperture macros list end*
%ADD10RoundRect,0.150000X0.150000X0.700000X-0.150000X0.700000X-0.150000X-0.700000X0.150000X-0.700000X0*%
%ADD11RoundRect,0.250000X0.250000X1.150000X-0.250000X1.150000X-0.250000X-1.150000X0.250000X-1.150000X0*%
%ADD12RoundRect,0.100000X0.100000X-0.637500X0.100000X0.637500X-0.100000X0.637500X-0.100000X-0.637500X0*%
%ADD13RoundRect,0.155000X-0.155000X0.212500X-0.155000X-0.212500X0.155000X-0.212500X0.155000X0.212500X0*%
%ADD14R,3.000000X1.500000*%
%ADD15RoundRect,0.155000X-0.212500X-0.155000X0.212500X-0.155000X0.212500X0.155000X-0.212500X0.155000X0*%
%ADD16RoundRect,0.155000X0.155000X-0.212500X0.155000X0.212500X-0.155000X0.212500X-0.155000X-0.212500X0*%
%ADD17RoundRect,0.160000X0.197500X0.160000X-0.197500X0.160000X-0.197500X-0.160000X0.197500X-0.160000X0*%
%ADD18RoundRect,0.160000X-0.197500X-0.160000X0.197500X-0.160000X0.197500X0.160000X-0.197500X0.160000X0*%
%ADD19RoundRect,0.160000X-0.160000X0.197500X-0.160000X-0.197500X0.160000X-0.197500X0.160000X0.197500X0*%
%ADD20R,2.000000X0.700000*%
%ADD21R,1.397000X1.270000*%
%ADD22R,2.286000X1.270000*%
%ADD23R,1.397000X1.778000*%
%ADD24RoundRect,0.155000X0.212500X0.155000X-0.212500X0.155000X-0.212500X-0.155000X0.212500X-0.155000X0*%
G04 APERTURE END LIST*
D10*
%TO.C,J5*%
X176190000Y-81110000D03*
X174940000Y-81110000D03*
X173690000Y-81110000D03*
D11*
X171840000Y-84460000D03*
X178040000Y-84460000D03*
%TD*%
D12*
%TO.C,U1*%
X170685000Y-117192500D03*
X171335000Y-117192500D03*
X171985000Y-117192500D03*
X172635000Y-117192500D03*
X173285000Y-117192500D03*
X173935000Y-117192500D03*
X174585000Y-117192500D03*
X175235000Y-117192500D03*
X175885000Y-117192500D03*
X176535000Y-117192500D03*
X176535000Y-111467500D03*
X175885000Y-111467500D03*
X175235000Y-111467500D03*
X174585000Y-111467500D03*
X173935000Y-111467500D03*
X173285000Y-111467500D03*
X172635000Y-111467500D03*
X171985000Y-111467500D03*
X171335000Y-111467500D03*
X170685000Y-111467500D03*
%TD*%
D13*
%TO.C,C1*%
X171135000Y-107865000D03*
X171135000Y-109000000D03*
%TD*%
D14*
%TO.C,PHONE1*%
X192128500Y-114447500D03*
X192128500Y-121347500D03*
X185128500Y-122247500D03*
X185128500Y-118647500D03*
X185128500Y-112847500D03*
%TD*%
D13*
%TO.C,C6*%
X169330000Y-114592500D03*
X169330000Y-115727500D03*
%TD*%
D15*
%TO.C,C12*%
X178245000Y-121240000D03*
X179380000Y-121240000D03*
%TD*%
D13*
%TO.C,C3*%
X169897500Y-107865000D03*
X169897500Y-109000000D03*
%TD*%
D16*
%TO.C,C5*%
X176000000Y-120717500D03*
X176000000Y-119582500D03*
%TD*%
%TO.C,C2*%
X171350000Y-120800000D03*
X171350000Y-119665000D03*
%TD*%
D17*
%TO.C,R8*%
X179390000Y-122373333D03*
X178195000Y-122373333D03*
%TD*%
D16*
%TO.C,C8*%
X177040000Y-120717500D03*
X177040000Y-119582500D03*
%TD*%
%TO.C,C7*%
X172450000Y-120800000D03*
X172450000Y-119665000D03*
%TD*%
%TO.C,C4*%
X170400000Y-120800000D03*
X170400000Y-119665000D03*
%TD*%
D18*
%TO.C,R1*%
X175442500Y-98410000D03*
X176637500Y-98410000D03*
%TD*%
D19*
%TO.C,R6*%
X174857500Y-107855000D03*
X174857500Y-109050000D03*
%TD*%
D18*
%TO.C,R4*%
X175463500Y-102975000D03*
X176658500Y-102975000D03*
%TD*%
D17*
%TO.C,R7*%
X179390000Y-123516666D03*
X178195000Y-123516666D03*
%TD*%
D13*
%TO.C,C10*%
X173610000Y-107865000D03*
X173610000Y-109000000D03*
%TD*%
D18*
%TO.C,R5*%
X175463500Y-104260000D03*
X176658500Y-104260000D03*
%TD*%
D10*
%TO.C,J4*%
X189530000Y-81080000D03*
X188280000Y-81080000D03*
X187030000Y-81080000D03*
X185780000Y-81080000D03*
X184530000Y-81080000D03*
X183280000Y-81080000D03*
X182030000Y-81080000D03*
D11*
X180180000Y-84430000D03*
X191380000Y-84430000D03*
%TD*%
D18*
%TO.C,R3*%
X175463500Y-101690000D03*
X176658500Y-101690000D03*
%TD*%
%TO.C,R2*%
X175432500Y-99880000D03*
X176627500Y-99880000D03*
%TD*%
D20*
%TO.C,J1*%
X179935000Y-98588000D03*
X179937000Y-99688000D03*
X179935000Y-100784000D03*
X179935000Y-101884000D03*
X179935000Y-102983000D03*
X179935000Y-104081000D03*
X179935000Y-105177000D03*
X179935000Y-106275000D03*
X179935000Y-107379000D03*
D21*
X180573000Y-108627000D03*
D22*
X190225000Y-108627000D03*
D23*
X180573000Y-93895000D03*
D22*
X190225000Y-93133000D03*
%TD*%
D24*
%TO.C,C11*%
X179380000Y-124650000D03*
X178245000Y-124650000D03*
%TD*%
D13*
%TO.C,C9*%
X172372500Y-107865000D03*
X172372500Y-109000000D03*
%TD*%
M02*
