%TF.GenerationSoftware,KiCad,Pcbnew,(6.0.0-rc1-323-gb9e66d8b98)*%
%TF.CreationDate,2021-12-29T00:01:45+08:00*%
%TF.ProjectId,AudioExtendBoard,41756469-6f45-4787-9465-6e64426f6172,rev?*%
%TF.SameCoordinates,Original*%
%TF.FileFunction,Legend,Top*%
%TF.FilePolarity,Positive*%
%FSLAX46Y46*%
G04 Gerber Fmt 4.6, Leading zero omitted, Abs format (unit mm)*
G04 Created by KiCad (PCBNEW (6.0.0-rc1-323-gb9e66d8b98)) date 2021-12-29 00:01:45*
%MOMM*%
%LPD*%
G01*
G04 APERTURE LIST*
%ADD10C,0.127000*%
%ADD11C,0.150000*%
%ADD12C,0.120000*%
%ADD13C,0.254000*%
%ADD14C,0.102000*%
%ADD15C,0.100000*%
G04 APERTURE END LIST*
D10*
X170697978Y-88420484D02*
X170697978Y-87658484D01*
X170951978Y-88202770D01*
X171205978Y-87658484D01*
X171205978Y-88420484D01*
X171568835Y-88420484D02*
X171568835Y-87658484D01*
X171895407Y-88384198D02*
X172004264Y-88420484D01*
X172185692Y-88420484D01*
X172258264Y-88384198D01*
X172294550Y-88347912D01*
X172330835Y-88275341D01*
X172330835Y-88202770D01*
X172294550Y-88130198D01*
X172258264Y-88093912D01*
X172185692Y-88057627D01*
X172040550Y-88021341D01*
X171967978Y-87985055D01*
X171931692Y-87948770D01*
X171895407Y-87876198D01*
X171895407Y-87803627D01*
X171931692Y-87731055D01*
X171967978Y-87694770D01*
X172040550Y-87658484D01*
X172221978Y-87658484D01*
X172330835Y-87694770D01*
X172802550Y-87658484D02*
X172947692Y-87658484D01*
X173020264Y-87694770D01*
X173092835Y-87767341D01*
X173129121Y-87912484D01*
X173129121Y-88166484D01*
X173092835Y-88311627D01*
X173020264Y-88384198D01*
X172947692Y-88420484D01*
X172802550Y-88420484D01*
X172729978Y-88384198D01*
X172657407Y-88311627D01*
X172621121Y-88166484D01*
X172621121Y-87912484D01*
X172657407Y-87767341D01*
X172729978Y-87694770D01*
X172802550Y-87658484D01*
X174036264Y-88420484D02*
X174036264Y-87658484D01*
X174217692Y-87658484D01*
X174326550Y-87694770D01*
X174399121Y-87767341D01*
X174435407Y-87839912D01*
X174471692Y-87985055D01*
X174471692Y-88093912D01*
X174435407Y-88239055D01*
X174399121Y-88311627D01*
X174326550Y-88384198D01*
X174217692Y-88420484D01*
X174036264Y-88420484D01*
X174798264Y-88021341D02*
X175052264Y-88021341D01*
X175161121Y-88420484D02*
X174798264Y-88420484D01*
X174798264Y-87658484D01*
X175161121Y-87658484D01*
X175378835Y-87658484D02*
X175814264Y-87658484D01*
X175596550Y-88420484D02*
X175596550Y-87658484D01*
X171133407Y-89574732D02*
X171097121Y-89611018D01*
X170988264Y-89647304D01*
X170915692Y-89647304D01*
X170806835Y-89611018D01*
X170734264Y-89538447D01*
X170697978Y-89465875D01*
X170661692Y-89320732D01*
X170661692Y-89211875D01*
X170697978Y-89066732D01*
X170734264Y-88994161D01*
X170806835Y-88921590D01*
X170915692Y-88885304D01*
X170988264Y-88885304D01*
X171097121Y-88921590D01*
X171133407Y-88957875D01*
X171822835Y-89647304D02*
X171459978Y-89647304D01*
X171459978Y-88885304D01*
X172076835Y-89647304D02*
X172076835Y-88885304D01*
X172512264Y-89647304D02*
X172185692Y-89211875D01*
X172512264Y-88885304D02*
X172076835Y-89320732D01*
X173419407Y-89647304D02*
X173419407Y-88885304D01*
X173673407Y-89429590D01*
X173927407Y-88885304D01*
X173927407Y-89647304D01*
X174435407Y-88885304D02*
X174580550Y-88885304D01*
X174653121Y-88921590D01*
X174725692Y-88994161D01*
X174761978Y-89139304D01*
X174761978Y-89393304D01*
X174725692Y-89538447D01*
X174653121Y-89611018D01*
X174580550Y-89647304D01*
X174435407Y-89647304D01*
X174362835Y-89611018D01*
X174290264Y-89538447D01*
X174253978Y-89393304D01*
X174253978Y-89139304D01*
X174290264Y-88994161D01*
X174362835Y-88921590D01*
X174435407Y-88885304D01*
X175052264Y-89611018D02*
X175161121Y-89647304D01*
X175342550Y-89647304D01*
X175415121Y-89611018D01*
X175451407Y-89574732D01*
X175487692Y-89502161D01*
X175487692Y-89429590D01*
X175451407Y-89357018D01*
X175415121Y-89320732D01*
X175342550Y-89284447D01*
X175197407Y-89248161D01*
X175124835Y-89211875D01*
X175088550Y-89175590D01*
X175052264Y-89103018D01*
X175052264Y-89030447D01*
X175088550Y-88957875D01*
X175124835Y-88921590D01*
X175197407Y-88885304D01*
X175378835Y-88885304D01*
X175487692Y-88921590D01*
X175814264Y-89647304D02*
X175814264Y-88885304D01*
X170625407Y-90112124D02*
X171097121Y-90112124D01*
X170843121Y-90402410D01*
X170951978Y-90402410D01*
X171024550Y-90438695D01*
X171060835Y-90474981D01*
X171097121Y-90547552D01*
X171097121Y-90728981D01*
X171060835Y-90801552D01*
X171024550Y-90837838D01*
X170951978Y-90874124D01*
X170734264Y-90874124D01*
X170661692Y-90837838D01*
X170625407Y-90801552D01*
X171314835Y-90112124D02*
X171568835Y-90874124D01*
X171822835Y-90112124D01*
X172004264Y-90112124D02*
X172475978Y-90112124D01*
X172221978Y-90402410D01*
X172330835Y-90402410D01*
X172403407Y-90438695D01*
X172439692Y-90474981D01*
X172475978Y-90547552D01*
X172475978Y-90728981D01*
X172439692Y-90801552D01*
X172403407Y-90837838D01*
X172330835Y-90874124D01*
X172113121Y-90874124D01*
X172040550Y-90837838D01*
X172004264Y-90801552D01*
X173818550Y-90801552D02*
X173782264Y-90837838D01*
X173673407Y-90874124D01*
X173600835Y-90874124D01*
X173491978Y-90837838D01*
X173419407Y-90765267D01*
X173383121Y-90692695D01*
X173346835Y-90547552D01*
X173346835Y-90438695D01*
X173383121Y-90293552D01*
X173419407Y-90220981D01*
X173491978Y-90148410D01*
X173600835Y-90112124D01*
X173673407Y-90112124D01*
X173782264Y-90148410D01*
X173818550Y-90184695D01*
X174108835Y-90837838D02*
X174217692Y-90874124D01*
X174399121Y-90874124D01*
X174471692Y-90837838D01*
X174507978Y-90801552D01*
X174544264Y-90728981D01*
X174544264Y-90656410D01*
X174507978Y-90583838D01*
X174471692Y-90547552D01*
X174399121Y-90511267D01*
X174253978Y-90474981D01*
X174181407Y-90438695D01*
X174145121Y-90402410D01*
X174108835Y-90329838D01*
X174108835Y-90257267D01*
X174145121Y-90184695D01*
X174181407Y-90148410D01*
X174253978Y-90112124D01*
X174435407Y-90112124D01*
X174544264Y-90148410D01*
X170697978Y-92100944D02*
X170697978Y-91338944D01*
X171133407Y-92100944D01*
X171133407Y-91338944D01*
X171931692Y-92028372D02*
X171895407Y-92064658D01*
X171786550Y-92100944D01*
X171713978Y-92100944D01*
X171605121Y-92064658D01*
X171532550Y-91992087D01*
X171496264Y-91919515D01*
X171459978Y-91774372D01*
X171459978Y-91665515D01*
X171496264Y-91520372D01*
X171532550Y-91447801D01*
X171605121Y-91375230D01*
X171713978Y-91338944D01*
X171786550Y-91338944D01*
X171895407Y-91375230D01*
X171931692Y-91411515D01*
X173237978Y-91375230D02*
X173165407Y-91338944D01*
X173056550Y-91338944D01*
X172947692Y-91375230D01*
X172875121Y-91447801D01*
X172838835Y-91520372D01*
X172802550Y-91665515D01*
X172802550Y-91774372D01*
X172838835Y-91919515D01*
X172875121Y-91992087D01*
X172947692Y-92064658D01*
X173056550Y-92100944D01*
X173129121Y-92100944D01*
X173237978Y-92064658D01*
X173274264Y-92028372D01*
X173274264Y-91774372D01*
X173129121Y-91774372D01*
X173600835Y-92100944D02*
X173600835Y-91338944D01*
X174036264Y-92100944D01*
X174036264Y-91338944D01*
X174399121Y-92100944D02*
X174399121Y-91338944D01*
X174580550Y-91338944D01*
X174689407Y-91375230D01*
X174761978Y-91447801D01*
X174798264Y-91520372D01*
X174834550Y-91665515D01*
X174834550Y-91774372D01*
X174798264Y-91919515D01*
X174761978Y-91992087D01*
X174689407Y-92064658D01*
X174580550Y-92100944D01*
X174399121Y-92100944D01*
D11*
X167187619Y-113276476D02*
X167235238Y-113181238D01*
X167330476Y-113133619D01*
X168187619Y-113133619D01*
X167187619Y-113657428D02*
X167854285Y-113657428D01*
X168187619Y-113657428D02*
X168140000Y-113609809D01*
X168092380Y-113657428D01*
X168140000Y-113705047D01*
X168187619Y-113657428D01*
X168092380Y-113657428D01*
X167854285Y-113990761D02*
X167854285Y-114371714D01*
X168187619Y-114133619D02*
X167330476Y-114133619D01*
X167235238Y-114181238D01*
X167187619Y-114276476D01*
X167187619Y-114371714D01*
X167187619Y-114705047D02*
X168187619Y-114705047D01*
X167187619Y-115133619D02*
X167711428Y-115133619D01*
X167806666Y-115086000D01*
X167854285Y-114990761D01*
X167854285Y-114847904D01*
X167806666Y-114752666D01*
X167759047Y-114705047D01*
X167187619Y-115609809D02*
X167854285Y-115609809D01*
X168187619Y-115609809D02*
X168140000Y-115562190D01*
X168092380Y-115609809D01*
X168140000Y-115657428D01*
X168187619Y-115609809D01*
X168092380Y-115609809D01*
X167854285Y-116514571D02*
X167187619Y-116514571D01*
X167854285Y-116086000D02*
X167330476Y-116086000D01*
X167235238Y-116133619D01*
X167187619Y-116228857D01*
X167187619Y-116371714D01*
X167235238Y-116466952D01*
X167282857Y-116514571D01*
X167187619Y-116990761D02*
X167854285Y-116990761D01*
X167759047Y-116990761D02*
X167806666Y-117038380D01*
X167854285Y-117133619D01*
X167854285Y-117276476D01*
X167806666Y-117371714D01*
X167711428Y-117419333D01*
X167187619Y-117419333D01*
X167711428Y-117419333D02*
X167806666Y-117466952D01*
X167854285Y-117562190D01*
X167854285Y-117705047D01*
X167806666Y-117800285D01*
X167711428Y-117847904D01*
X167187619Y-117847904D01*
X167187619Y-118324095D02*
X167854285Y-118324095D01*
X168187619Y-118324095D02*
X168140000Y-118276476D01*
X168092380Y-118324095D01*
X168140000Y-118371714D01*
X168187619Y-118324095D01*
X168092380Y-118324095D01*
X167235238Y-119228857D02*
X167187619Y-119133619D01*
X167187619Y-118943142D01*
X167235238Y-118847904D01*
X167282857Y-118800285D01*
X167378095Y-118752666D01*
X167663809Y-118752666D01*
X167759047Y-118800285D01*
X167806666Y-118847904D01*
X167854285Y-118943142D01*
X167854285Y-119133619D01*
X167806666Y-119228857D01*
X167235238Y-120038380D02*
X167187619Y-119943142D01*
X167187619Y-119752666D01*
X167235238Y-119657428D01*
X167330476Y-119609809D01*
X167711428Y-119609809D01*
X167806666Y-119657428D01*
X167854285Y-119752666D01*
X167854285Y-119943142D01*
X167806666Y-120038380D01*
X167711428Y-120086000D01*
X167616190Y-120086000D01*
X167520952Y-119609809D01*
D10*
X169319121Y-95060770D02*
X169246550Y-95024484D01*
X169137692Y-95024484D01*
X169028835Y-95060770D01*
X168956264Y-95133341D01*
X168919978Y-95205912D01*
X168883692Y-95351055D01*
X168883692Y-95459912D01*
X168919978Y-95605055D01*
X168956264Y-95677627D01*
X169028835Y-95750198D01*
X169137692Y-95786484D01*
X169210264Y-95786484D01*
X169319121Y-95750198D01*
X169355407Y-95713912D01*
X169355407Y-95459912D01*
X169210264Y-95459912D01*
X169681978Y-95786484D02*
X169681978Y-95024484D01*
X170117407Y-95786484D01*
X170117407Y-95024484D01*
X170480264Y-95786484D02*
X170480264Y-95024484D01*
X170661692Y-95024484D01*
X170770550Y-95060770D01*
X170843121Y-95133341D01*
X170879407Y-95205912D01*
X170915692Y-95351055D01*
X170915692Y-95459912D01*
X170879407Y-95605055D01*
X170843121Y-95677627D01*
X170770550Y-95750198D01*
X170661692Y-95786484D01*
X170480264Y-95786484D01*
X169173978Y-96614161D02*
X169282835Y-96650447D01*
X169319121Y-96686732D01*
X169355407Y-96759304D01*
X169355407Y-96868161D01*
X169319121Y-96940732D01*
X169282835Y-96977018D01*
X169210264Y-97013304D01*
X168919978Y-97013304D01*
X168919978Y-96251304D01*
X169173978Y-96251304D01*
X169246550Y-96287590D01*
X169282835Y-96323875D01*
X169319121Y-96396447D01*
X169319121Y-96469018D01*
X169282835Y-96541590D01*
X169246550Y-96577875D01*
X169173978Y-96614161D01*
X168919978Y-96614161D01*
X170117407Y-96940732D02*
X170081121Y-96977018D01*
X169972264Y-97013304D01*
X169899692Y-97013304D01*
X169790835Y-96977018D01*
X169718264Y-96904447D01*
X169681978Y-96831875D01*
X169645692Y-96686732D01*
X169645692Y-96577875D01*
X169681978Y-96432732D01*
X169718264Y-96360161D01*
X169790835Y-96287590D01*
X169899692Y-96251304D01*
X169972264Y-96251304D01*
X170081121Y-96287590D01*
X170117407Y-96323875D01*
X170443978Y-97013304D02*
X170443978Y-96251304D01*
X170879407Y-97013304D02*
X170552835Y-96577875D01*
X170879407Y-96251304D02*
X170443978Y-96686732D01*
X168919978Y-98240124D02*
X168919978Y-97478124D01*
X169101407Y-97478124D01*
X169210264Y-97514410D01*
X169282835Y-97586981D01*
X169319121Y-97659552D01*
X169355407Y-97804695D01*
X169355407Y-97913552D01*
X169319121Y-98058695D01*
X169282835Y-98131267D01*
X169210264Y-98203838D01*
X169101407Y-98240124D01*
X168919978Y-98240124D01*
X169681978Y-98240124D02*
X169681978Y-97478124D01*
X170044835Y-98240124D02*
X170044835Y-97478124D01*
X170480264Y-98240124D01*
X170480264Y-97478124D01*
X169282835Y-99466944D02*
X168919978Y-99466944D01*
X168919978Y-98704944D01*
X169972264Y-99394372D02*
X169935978Y-99430658D01*
X169827121Y-99466944D01*
X169754550Y-99466944D01*
X169645692Y-99430658D01*
X169573121Y-99358087D01*
X169536835Y-99285515D01*
X169500550Y-99140372D01*
X169500550Y-99031515D01*
X169536835Y-98886372D01*
X169573121Y-98813801D01*
X169645692Y-98741230D01*
X169754550Y-98704944D01*
X169827121Y-98704944D01*
X169935978Y-98741230D01*
X169972264Y-98777515D01*
X170298835Y-99466944D02*
X170298835Y-98704944D01*
X170734264Y-99466944D02*
X170407692Y-99031515D01*
X170734264Y-98704944D02*
X170298835Y-99140372D01*
D12*
%TO.C,J5*%
X178600000Y-82800000D02*
X178600000Y-81000000D01*
X178600000Y-81000000D02*
X176750000Y-81000000D01*
X178600000Y-86120000D02*
X178600000Y-86670000D01*
X178600000Y-86670000D02*
X171280000Y-86670000D01*
X171280000Y-81000000D02*
X173130000Y-81000000D01*
X176750000Y-81000000D02*
X176750000Y-80260000D01*
X171280000Y-86670000D02*
X171280000Y-86120000D01*
X171280000Y-82800000D02*
X171280000Y-81000000D01*
%TO.C,U1*%
X176995000Y-114330000D02*
X176995000Y-116530000D01*
X176995000Y-114330000D02*
X176995000Y-112130000D01*
X170225000Y-114330000D02*
X170225000Y-117930000D01*
X170225000Y-114330000D02*
X170225000Y-112130000D01*
%TO.C,C1*%
X170775000Y-108316665D02*
X170775000Y-108548335D01*
X171495000Y-108316665D02*
X171495000Y-108548335D01*
D13*
%TO.C,PHONE1*%
X191728500Y-123947500D02*
X185528500Y-123947500D01*
X191728500Y-111847500D02*
X191728500Y-123947500D01*
X186088500Y-125947500D02*
X186088500Y-123947500D01*
X191088500Y-123947500D02*
X191088500Y-125947500D01*
X185528500Y-123947500D02*
X185528500Y-111847500D01*
X185528500Y-111847500D02*
X191728500Y-111847500D01*
X191088500Y-125947500D02*
X186088500Y-125947500D01*
D12*
%TO.C,C6*%
X168970000Y-115044165D02*
X168970000Y-115275835D01*
X169690000Y-115044165D02*
X169690000Y-115275835D01*
%TO.C,C12*%
X178696665Y-121600000D02*
X178928335Y-121600000D01*
X178696665Y-120880000D02*
X178928335Y-120880000D01*
%TO.C,TP1*%
X179810000Y-115810000D02*
G75*
G03*
X179810000Y-115810000I-700000J0D01*
G01*
%TO.C,C3*%
X169537500Y-108316665D02*
X169537500Y-108548335D01*
X170257500Y-108316665D02*
X170257500Y-108548335D01*
%TO.C,C5*%
X176360000Y-120265835D02*
X176360000Y-120034165D01*
X175640000Y-120265835D02*
X175640000Y-120034165D01*
%TO.C,TP6*%
X185104000Y-110744000D02*
G75*
G03*
X185104000Y-110744000I-700000J0D01*
G01*
%TO.C,C2*%
X171710000Y-120348335D02*
X171710000Y-120116665D01*
X170990000Y-120348335D02*
X170990000Y-120116665D01*
%TO.C,TP5*%
X182310000Y-110744000D02*
G75*
G03*
X182310000Y-110744000I-700000J0D01*
G01*
%TO.C,R8*%
X178960121Y-122753333D02*
X178624879Y-122753333D01*
X178960121Y-121993333D02*
X178624879Y-121993333D01*
%TO.C,C8*%
X177400000Y-120265835D02*
X177400000Y-120034165D01*
X176680000Y-120265835D02*
X176680000Y-120034165D01*
%TO.C,C7*%
X172090000Y-120348335D02*
X172090000Y-120116665D01*
X172810000Y-120348335D02*
X172810000Y-120116665D01*
%TO.C,C4*%
X170040000Y-120348335D02*
X170040000Y-120116665D01*
X170760000Y-120348335D02*
X170760000Y-120116665D01*
%TO.C,R1*%
X175872379Y-98030000D02*
X176207621Y-98030000D01*
X175872379Y-98790000D02*
X176207621Y-98790000D01*
%TO.C,R6*%
X174477500Y-108284879D02*
X174477500Y-108620121D01*
X175237500Y-108284879D02*
X175237500Y-108620121D01*
%TO.C,R4*%
X175893379Y-103355000D02*
X176228621Y-103355000D01*
X175893379Y-102595000D02*
X176228621Y-102595000D01*
%TO.C,J2*%
X165680000Y-86520000D02*
X165680000Y-92580000D01*
X165680000Y-84460000D02*
X166740000Y-84460000D01*
X169800000Y-84460000D02*
X169800000Y-92580000D01*
X167740000Y-84460000D02*
X169800000Y-84460000D01*
X165680000Y-92580000D02*
X169800000Y-92580000D01*
X165680000Y-85520000D02*
X165680000Y-84460000D01*
X165680000Y-86520000D02*
X167740000Y-86520000D01*
X167740000Y-86520000D02*
X167740000Y-84460000D01*
%TO.C,R7*%
X178960121Y-123136666D02*
X178624879Y-123136666D01*
X178960121Y-123896666D02*
X178624879Y-123896666D01*
%TO.C,TP3*%
X184900000Y-124250000D02*
G75*
G03*
X184900000Y-124250000I-700000J0D01*
G01*
%TO.C,C10*%
X173970000Y-108316665D02*
X173970000Y-108548335D01*
X173250000Y-108316665D02*
X173250000Y-108548335D01*
%TO.C,TP4*%
X188152000Y-110744000D02*
G75*
G03*
X188152000Y-110744000I-700000J0D01*
G01*
%TO.C,R5*%
X175893379Y-103880000D02*
X176228621Y-103880000D01*
X175893379Y-104640000D02*
X176228621Y-104640000D01*
%TO.C,J3*%
X165950000Y-100380000D02*
X165950000Y-94320000D01*
X168070000Y-100380000D02*
X168070000Y-94320000D01*
X168070000Y-100380000D02*
X165950000Y-100380000D01*
X168070000Y-94320000D02*
X165950000Y-94320000D01*
X168070000Y-102440000D02*
X167010000Y-102440000D01*
X168070000Y-101380000D02*
X168070000Y-102440000D01*
%TO.C,J4*%
X179620000Y-86640000D02*
X179620000Y-86090000D01*
X179620000Y-82770000D02*
X179620000Y-80970000D01*
X179620000Y-80970000D02*
X181470000Y-80970000D01*
X191940000Y-86640000D02*
X179620000Y-86640000D01*
X190090000Y-80970000D02*
X190090000Y-80230000D01*
X191940000Y-86090000D02*
X191940000Y-86640000D01*
X191940000Y-82770000D02*
X191940000Y-80970000D01*
X191940000Y-80970000D02*
X190090000Y-80970000D01*
%TO.C,TP2*%
X179830000Y-113230000D02*
G75*
G03*
X179830000Y-113230000I-700000J0D01*
G01*
%TO.C,R3*%
X175893379Y-102070000D02*
X176228621Y-102070000D01*
X175893379Y-101310000D02*
X176228621Y-101310000D01*
%TO.C,R2*%
X175862379Y-99500000D02*
X176197621Y-99500000D01*
X175862379Y-100260000D02*
X176197621Y-100260000D01*
D14*
%TO.C,J1*%
X195137000Y-108194000D02*
X195138000Y-96181000D01*
X180940000Y-100280000D02*
X180940000Y-100193000D01*
X191523000Y-93394000D02*
X195637000Y-93394000D01*
X180940000Y-104673000D02*
X180940000Y-104586000D01*
X195635000Y-96181000D02*
X195637000Y-93394000D01*
X180940000Y-99183000D02*
X180940000Y-99093000D01*
X180940000Y-105771000D02*
X180940000Y-105682000D01*
X181427000Y-108194000D02*
X188927000Y-108194000D01*
X191523000Y-108194000D02*
X195136000Y-108194000D01*
X180940000Y-102478000D02*
X180940000Y-102389000D01*
X181427000Y-93394000D02*
X188927000Y-93394000D01*
D15*
X195138000Y-96181000D02*
X195635000Y-96181000D01*
D14*
X180940000Y-103576000D02*
X180940000Y-103488000D01*
X180940000Y-106874000D02*
X180940000Y-106780000D01*
X180940000Y-98084000D02*
X180940000Y-94939000D01*
X180940000Y-101379000D02*
X180940000Y-101289000D01*
D12*
%TO.C,C11*%
X178928335Y-124290000D02*
X178696665Y-124290000D01*
X178928335Y-125010000D02*
X178696665Y-125010000D01*
%TO.C,C9*%
X172732500Y-108316665D02*
X172732500Y-108548335D01*
X172012500Y-108316665D02*
X172012500Y-108548335D01*
%TD*%
M02*
