%TF.GenerationSoftware,KiCad,Pcbnew,(6.0.0-rc1-323-gb9e66d8b98)*%
%TF.CreationDate,2021-12-29T00:01:45+08:00*%
%TF.ProjectId,AudioExtendBoard,41756469-6f45-4787-9465-6e64426f6172,rev?*%
%TF.SameCoordinates,Original*%
%TF.FileFunction,Copper,L2,Bot*%
%TF.FilePolarity,Positive*%
%FSLAX46Y46*%
G04 Gerber Fmt 4.6, Leading zero omitted, Abs format (unit mm)*
G04 Created by KiCad (PCBNEW (6.0.0-rc1-323-gb9e66d8b98)) date 2021-12-29 00:01:45*
%MOMM*%
%LPD*%
G01*
G04 APERTURE LIST*
%TA.AperFunction,WasherPad*%
%ADD10C,1.200000*%
%TD*%
%TA.AperFunction,ComponentPad*%
%ADD11R,1.350000X1.350000*%
%TD*%
%TA.AperFunction,ComponentPad*%
%ADD12O,1.350000X1.350000*%
%TD*%
%TA.AperFunction,ViaPad*%
%ADD13C,0.800000*%
%TD*%
%TA.AperFunction,ViaPad*%
%ADD14C,0.609600*%
%TD*%
%TA.AperFunction,Conductor*%
%ADD15C,0.250000*%
%TD*%
G04 APERTURE END LIST*
D10*
%TO.P,PHONE1,*%
%TO.N,*%
X188628500Y-114947500D03*
X188628500Y-120947500D03*
%TD*%
D11*
%TO.P,J2,1,Pin_1*%
%TO.N,/SD_MISO*%
X166740000Y-85520000D03*
D12*
%TO.P,J2,2,Pin_2*%
%TO.N,/SD_DET*%
X168740000Y-85520000D03*
%TO.P,J2,3,Pin_3*%
%TO.N,/SD_CLK*%
X166740000Y-87520000D03*
%TO.P,J2,4,Pin_4*%
%TO.N,/SD_MOSI*%
X168740000Y-87520000D03*
%TO.P,J2,5,Pin_5*%
%TO.N,+3.3VA*%
X166740000Y-89520000D03*
%TO.P,J2,6,Pin_6*%
%TO.N,/SD_CS*%
X168740000Y-89520000D03*
%TO.P,J2,7,Pin_7*%
%TO.N,unconnected-(J2-Pad7)*%
X166740000Y-91520000D03*
%TO.P,J2,8,Pin_8*%
%TO.N,GND*%
X168740000Y-91520000D03*
%TD*%
D11*
%TO.P,J3,1,Pin_1*%
%TO.N,/I2S_LCK*%
X167010000Y-101380000D03*
D12*
%TO.P,J3,2,Pin_2*%
%TO.N,/I2S_DIN*%
X167010000Y-99380000D03*
%TO.P,J3,3,Pin_3*%
%TO.N,/I2S_BCK*%
X167010000Y-97380000D03*
%TO.P,J3,4,Pin_4*%
%TO.N,GND*%
X167010000Y-95380000D03*
%TD*%
D13*
%TO.N,GND*%
X193370000Y-91080000D03*
D14*
X191262000Y-119380000D03*
X169164000Y-109982000D03*
D13*
X171701456Y-113084945D03*
D14*
X166370000Y-109728000D03*
X172974000Y-100330000D03*
X186944000Y-104902000D03*
D13*
X191370000Y-91080000D03*
D14*
X178308000Y-110236000D03*
D13*
X178940000Y-93940000D03*
X171200000Y-125100000D03*
D14*
X193802000Y-84836000D03*
X178308000Y-111506000D03*
X175490000Y-121390000D03*
D13*
X169040000Y-107850000D03*
D14*
X179578000Y-111506000D03*
X178054000Y-117602000D03*
D13*
X191980000Y-99940000D03*
X177690000Y-91770000D03*
X173200000Y-125100000D03*
D14*
X169164000Y-111506000D03*
X169418000Y-117602000D03*
X166370000Y-105664000D03*
X187198000Y-123698000D03*
X176210000Y-121740000D03*
D13*
X193980000Y-97940000D03*
X191980000Y-103940000D03*
X179690000Y-89770000D03*
D14*
X189738000Y-123698000D03*
X176784000Y-107188000D03*
X173290000Y-121340000D03*
X166370000Y-107696000D03*
D13*
X190280000Y-88990000D03*
X171890000Y-115680000D03*
X191980000Y-101940000D03*
X191980000Y-97940000D03*
X177690000Y-89770000D03*
X179690000Y-91770000D03*
X166360000Y-115990000D03*
D14*
X170180000Y-82296000D03*
D13*
X181820000Y-104060000D03*
D14*
X186944000Y-108458000D03*
D13*
X194280000Y-88990000D03*
D14*
X175990000Y-124180000D03*
X177080000Y-124240000D03*
D13*
X193980000Y-101940000D03*
X193980000Y-103940000D03*
X169200000Y-125100000D03*
D14*
X188468000Y-123698000D03*
X176530000Y-114554000D03*
D13*
X192280000Y-88990000D03*
D14*
X169164000Y-113030000D03*
D13*
X181690000Y-91770000D03*
D14*
X172974000Y-101854000D03*
X179578000Y-110236000D03*
D13*
X166360000Y-113990000D03*
D14*
X193802000Y-119380000D03*
X174930000Y-123800000D03*
X173250000Y-120380000D03*
D13*
X181690000Y-89770000D03*
X166360000Y-117990000D03*
D14*
X193802000Y-86360000D03*
X173530000Y-122350000D03*
D13*
X193980000Y-99940000D03*
D14*
X177220000Y-121800000D03*
X172974000Y-98552000D03*
X175300000Y-120440000D03*
X186944000Y-106680000D03*
X170180000Y-80772000D03*
X192532000Y-119380000D03*
X174130000Y-123230000D03*
D13*
X182020000Y-82490000D03*
%TO.N,/SD_MOSI*%
X181990111Y-87600490D03*
X185840000Y-87720000D03*
%TO.N,/SD_CLK*%
X186880000Y-88600000D03*
X181950000Y-88600000D03*
%TO.N,/SD_MISO*%
X189480000Y-85720000D03*
X187760000Y-85670000D03*
X182050000Y-85630000D03*
%TO.N,/SD_DET*%
X188520000Y-86650000D03*
X182185511Y-86620274D03*
%TO.N,/I2S_LCK*%
X170590000Y-99270000D03*
X173980831Y-112762381D03*
X176080000Y-82900000D03*
%TO.N,/I2S_DIN*%
X169770000Y-98240000D03*
X174800000Y-82910000D03*
X174850000Y-113800000D03*
%TO.N,/I2S_BCK*%
X175500000Y-113000000D03*
X173640000Y-82550000D03*
%TD*%
D15*
%TO.N,/I2S_BCK*%
X175500000Y-105870000D02*
X175500000Y-113000000D01*
X167010000Y-97380000D02*
X175500000Y-105870000D01*
%TO.N,/I2S_DIN*%
X174705332Y-113655332D02*
X174850000Y-113800000D01*
X167010000Y-99380000D02*
X174705332Y-107075332D01*
X174705332Y-107075332D02*
X174705332Y-113655332D01*
%TO.N,/I2S_LCK*%
X167935000Y-101380000D02*
X173980831Y-107425831D01*
X173980831Y-107425831D02*
X173980831Y-112762381D01*
X167010000Y-101380000D02*
X167935000Y-101380000D01*
%TO.N,/SD_MOSI*%
X185720490Y-87600490D02*
X185840000Y-87720000D01*
X181990111Y-87600490D02*
X185720490Y-87600490D01*
%TO.N,/SD_CLK*%
X181950000Y-88600000D02*
X186880000Y-88600000D01*
%TO.N,/SD_MISO*%
X182050000Y-85630000D02*
X187720000Y-85630000D01*
X187760000Y-85670000D02*
X189430000Y-85670000D01*
X187720000Y-85630000D02*
X187760000Y-85670000D01*
X189430000Y-85670000D02*
X189480000Y-85720000D01*
%TO.N,/SD_DET*%
X182225785Y-86580000D02*
X188450000Y-86580000D01*
X188590000Y-86580000D02*
X188520000Y-86650000D01*
X188450000Y-86580000D02*
X188520000Y-86650000D01*
X182185511Y-86620274D02*
X182225785Y-86580000D01*
%TO.N,/I2S_LCK*%
X176080000Y-93780000D02*
X170590000Y-99270000D01*
X176080000Y-82900000D02*
X176080000Y-93780000D01*
%TO.N,/I2S_DIN*%
X174800000Y-82910000D02*
X174800000Y-93370000D01*
X169930000Y-98240000D02*
X169770000Y-98240000D01*
X174800000Y-93370000D02*
X169930000Y-98240000D01*
%TO.N,/I2S_BCK*%
X173640000Y-90750000D02*
X167010000Y-97380000D01*
X173640000Y-82550000D02*
X173640000Y-90750000D01*
%TD*%
%TA.AperFunction,Conductor*%
%TO.N,GND*%
G36*
X182339360Y-79600316D02*
G01*
X193174900Y-79602745D01*
X193199446Y-79605165D01*
X193212335Y-79607729D01*
X193224507Y-79605308D01*
X193236915Y-79605308D01*
X193236915Y-79605640D01*
X193247751Y-79604904D01*
X193377012Y-79612755D01*
X193471336Y-79618484D01*
X193486501Y-79620333D01*
X193734172Y-79665911D01*
X193748995Y-79669580D01*
X193989324Y-79744796D01*
X194003596Y-79750232D01*
X194212527Y-79844700D01*
X194233064Y-79853986D01*
X194246576Y-79861112D01*
X194297405Y-79891994D01*
X194461793Y-79991872D01*
X194474345Y-80000582D01*
X194672155Y-80156428D01*
X194683560Y-80166593D01*
X194861054Y-80345235D01*
X194871143Y-80356704D01*
X195024052Y-80553378D01*
X195025710Y-80555511D01*
X195034336Y-80568114D01*
X195152684Y-80765764D01*
X195163705Y-80784170D01*
X195170745Y-80797729D01*
X195267618Y-81015708D01*
X195273018Y-81027860D01*
X195278362Y-81042165D01*
X195346022Y-81263340D01*
X195352028Y-81282973D01*
X195355603Y-81297823D01*
X195398634Y-81540433D01*
X195399584Y-81545788D01*
X195401335Y-81560963D01*
X195412507Y-81766805D01*
X195413474Y-81784631D01*
X195412668Y-81795461D01*
X195413000Y-81795463D01*
X195412920Y-81807873D01*
X195410420Y-81820028D01*
X195413118Y-81834062D01*
X195415382Y-81857873D01*
X195411231Y-97580592D01*
X195404316Y-123771363D01*
X195401896Y-123795904D01*
X195399331Y-123808802D01*
X195401752Y-123820974D01*
X195401752Y-123833382D01*
X195401420Y-123833382D01*
X195402156Y-123844218D01*
X195388576Y-124067803D01*
X195386727Y-124082968D01*
X195345756Y-124305609D01*
X195341150Y-124330636D01*
X195337480Y-124345462D01*
X195262519Y-124584975D01*
X195262265Y-124585788D01*
X195256828Y-124600063D01*
X195153466Y-124828665D01*
X195153074Y-124829531D01*
X195145948Y-124843043D01*
X195122583Y-124881499D01*
X195015188Y-125058260D01*
X195006478Y-125070812D01*
X194850632Y-125268622D01*
X194840467Y-125280027D01*
X194661825Y-125457521D01*
X194650356Y-125467610D01*
X194451544Y-125622180D01*
X194438946Y-125630803D01*
X194288576Y-125720841D01*
X194222890Y-125760172D01*
X194209331Y-125767212D01*
X193979194Y-125869487D01*
X193964895Y-125874829D01*
X193724084Y-125948496D01*
X193709237Y-125952070D01*
X193461270Y-125996051D01*
X193446097Y-125997802D01*
X193222427Y-126009941D01*
X193211599Y-126009135D01*
X193211597Y-126009467D01*
X193199187Y-126009387D01*
X193187032Y-126006887D01*
X193174849Y-126009229D01*
X193174846Y-126009229D01*
X193172964Y-126009591D01*
X193149170Y-126011856D01*
X179160651Y-126010896D01*
X167338634Y-126010085D01*
X167314064Y-126007664D01*
X167301204Y-126005106D01*
X167289032Y-126007527D01*
X167276624Y-126007527D01*
X167276624Y-126007195D01*
X167265788Y-126007931D01*
X167042203Y-125994351D01*
X167027038Y-125992502D01*
X167001459Y-125987795D01*
X166779367Y-125946924D01*
X166764544Y-125943255D01*
X166524215Y-125868039D01*
X166509941Y-125862602D01*
X166280475Y-125758849D01*
X166266961Y-125751722D01*
X166051746Y-125620963D01*
X166039194Y-125612253D01*
X165841384Y-125456407D01*
X165829979Y-125446242D01*
X165659472Y-125274632D01*
X165652484Y-125267599D01*
X165642394Y-125256129D01*
X165498316Y-125070812D01*
X165487826Y-125057319D01*
X165479200Y-125044716D01*
X165437969Y-124975856D01*
X165349834Y-124828665D01*
X165342794Y-124815106D01*
X165304275Y-124728432D01*
X165240519Y-124584969D01*
X165235175Y-124570664D01*
X165213365Y-124499366D01*
X165161510Y-124329859D01*
X165157935Y-124315008D01*
X165123162Y-124118953D01*
X165113955Y-124067045D01*
X165112204Y-124051870D01*
X165100065Y-123828202D01*
X165100871Y-123817374D01*
X165100539Y-123817372D01*
X165100619Y-123804962D01*
X165103119Y-123792807D01*
X165100412Y-123778723D01*
X165098148Y-123754948D01*
X165098143Y-123585609D01*
X166039942Y-123585609D01*
X166040239Y-123590761D01*
X166040239Y-123590765D01*
X166041663Y-123615450D01*
X166041856Y-123618804D01*
X166052758Y-123807890D01*
X166053895Y-123812936D01*
X166053896Y-123812942D01*
X166075964Y-123910864D01*
X166101707Y-124025093D01*
X166103649Y-124029875D01*
X166103650Y-124029879D01*
X166141704Y-124123595D01*
X166185473Y-124231384D01*
X166301807Y-124421224D01*
X166447585Y-124589515D01*
X166451560Y-124592815D01*
X166451563Y-124592818D01*
X166508320Y-124639938D01*
X166618892Y-124731737D01*
X166811127Y-124844070D01*
X166815947Y-124845910D01*
X166815952Y-124845913D01*
X166918991Y-124885259D01*
X167019128Y-124923497D01*
X167024196Y-124924528D01*
X167024199Y-124924529D01*
X167131049Y-124946268D01*
X167237308Y-124967887D01*
X167242481Y-124968077D01*
X167242484Y-124968077D01*
X167454644Y-124975856D01*
X167454648Y-124975856D01*
X167459808Y-124976045D01*
X167464928Y-124975389D01*
X167464930Y-124975389D01*
X167562342Y-124962910D01*
X167680653Y-124947754D01*
X167685602Y-124946269D01*
X167685608Y-124946268D01*
X167810808Y-124908706D01*
X167893912Y-124883774D01*
X168093858Y-124785821D01*
X168098062Y-124782823D01*
X168098066Y-124782820D01*
X168187831Y-124718791D01*
X168275121Y-124656528D01*
X168432832Y-124499366D01*
X168562758Y-124318555D01*
X168661408Y-124118953D01*
X168726132Y-123905918D01*
X168755194Y-123685173D01*
X168755429Y-123675545D01*
X168756734Y-123622169D01*
X168756734Y-123622165D01*
X168756816Y-123618804D01*
X168753023Y-123572663D01*
X191842968Y-123572663D01*
X191844882Y-123605858D01*
X191855784Y-123794944D01*
X191856921Y-123799990D01*
X191856922Y-123799996D01*
X191878990Y-123897918D01*
X191904733Y-124012147D01*
X191906675Y-124016929D01*
X191906676Y-124016933D01*
X191948102Y-124118953D01*
X191988499Y-124218438D01*
X192104833Y-124408278D01*
X192250611Y-124576569D01*
X192254586Y-124579869D01*
X192254589Y-124579872D01*
X192270183Y-124592818D01*
X192421918Y-124718791D01*
X192614153Y-124831124D01*
X192618973Y-124832964D01*
X192618978Y-124832967D01*
X192752031Y-124883774D01*
X192822154Y-124910551D01*
X192827222Y-124911582D01*
X192827225Y-124911583D01*
X192934075Y-124933322D01*
X193040334Y-124954941D01*
X193045507Y-124955131D01*
X193045510Y-124955131D01*
X193257670Y-124962910D01*
X193257674Y-124962910D01*
X193262834Y-124963099D01*
X193267954Y-124962443D01*
X193267956Y-124962443D01*
X193377491Y-124948411D01*
X193483679Y-124934808D01*
X193488628Y-124933323D01*
X193488634Y-124933322D01*
X193661369Y-124881499D01*
X193696938Y-124870828D01*
X193896884Y-124772875D01*
X193901088Y-124769877D01*
X193901092Y-124769874D01*
X193986190Y-124709174D01*
X194078147Y-124643582D01*
X194235858Y-124486420D01*
X194365784Y-124305609D01*
X194418371Y-124199208D01*
X194462140Y-124110649D01*
X194462141Y-124110647D01*
X194464434Y-124106007D01*
X194529158Y-123892972D01*
X194558220Y-123672227D01*
X194558302Y-123668877D01*
X194559760Y-123609223D01*
X194559760Y-123609219D01*
X194559842Y-123605858D01*
X194543086Y-123402054D01*
X194542022Y-123389108D01*
X194542021Y-123389102D01*
X194541598Y-123383957D01*
X194487358Y-123168015D01*
X194398576Y-122963832D01*
X194277638Y-122776890D01*
X194265713Y-122763784D01*
X194131270Y-122616034D01*
X194131268Y-122616033D01*
X194127792Y-122612212D01*
X194123741Y-122609013D01*
X194123737Y-122609009D01*
X193957120Y-122477423D01*
X193953062Y-122474218D01*
X193758140Y-122366615D01*
X193644485Y-122326368D01*
X193553136Y-122294019D01*
X193553132Y-122294018D01*
X193548261Y-122292293D01*
X193543168Y-122291386D01*
X193543165Y-122291385D01*
X193334150Y-122254154D01*
X193334144Y-122254153D01*
X193329061Y-122253248D01*
X193255174Y-122252345D01*
X193111598Y-122250591D01*
X193111596Y-122250591D01*
X193106428Y-122250528D01*
X192886340Y-122284206D01*
X192674708Y-122353378D01*
X192670120Y-122355766D01*
X192670116Y-122355768D01*
X192481804Y-122453797D01*
X192477215Y-122456186D01*
X192473082Y-122459289D01*
X192473079Y-122459291D01*
X192303300Y-122586765D01*
X192299165Y-122589870D01*
X192145340Y-122750838D01*
X192142426Y-122755110D01*
X192142425Y-122755111D01*
X192022790Y-122930489D01*
X192022787Y-122930494D01*
X192019871Y-122934769D01*
X191926128Y-123136722D01*
X191866627Y-123351274D01*
X191866078Y-123356408D01*
X191866078Y-123356410D01*
X191864695Y-123369356D01*
X191842968Y-123572663D01*
X168753023Y-123572663D01*
X168742355Y-123442911D01*
X168738996Y-123402054D01*
X168738995Y-123402048D01*
X168738572Y-123396903D01*
X168684332Y-123180961D01*
X168595550Y-122976778D01*
X168474612Y-122789836D01*
X168450907Y-122763784D01*
X168328244Y-122628980D01*
X168328242Y-122628979D01*
X168324766Y-122625158D01*
X168320715Y-122621959D01*
X168320711Y-122621955D01*
X168154094Y-122490369D01*
X168150036Y-122487164D01*
X167955114Y-122379561D01*
X167841459Y-122339314D01*
X167750110Y-122306965D01*
X167750106Y-122306964D01*
X167745235Y-122305239D01*
X167740142Y-122304332D01*
X167740139Y-122304331D01*
X167531124Y-122267100D01*
X167531118Y-122267099D01*
X167526035Y-122266194D01*
X167452148Y-122265291D01*
X167308572Y-122263537D01*
X167308570Y-122263537D01*
X167303402Y-122263474D01*
X167083314Y-122297152D01*
X166871682Y-122366324D01*
X166867094Y-122368712D01*
X166867090Y-122368714D01*
X166703647Y-122453797D01*
X166674189Y-122469132D01*
X166670056Y-122472235D01*
X166670053Y-122472237D01*
X166500274Y-122599711D01*
X166496139Y-122602816D01*
X166471136Y-122628980D01*
X166354686Y-122750838D01*
X166342314Y-122763784D01*
X166339400Y-122768056D01*
X166339399Y-122768057D01*
X166219764Y-122943435D01*
X166219761Y-122943440D01*
X166216845Y-122947715D01*
X166203179Y-122977157D01*
X166131291Y-123132027D01*
X166123102Y-123149668D01*
X166063601Y-123364220D01*
X166039942Y-123585609D01*
X165098143Y-123585609D01*
X165098065Y-120947500D01*
X187769293Y-120947500D01*
X187788069Y-121126139D01*
X187843575Y-121296971D01*
X187933387Y-121452529D01*
X188053578Y-121586015D01*
X188198896Y-121691595D01*
X188204924Y-121694279D01*
X188204926Y-121694280D01*
X188356959Y-121761969D01*
X188362990Y-121764654D01*
X188450839Y-121783327D01*
X188532231Y-121800628D01*
X188532236Y-121800628D01*
X188538688Y-121802000D01*
X188718312Y-121802000D01*
X188724764Y-121800628D01*
X188724769Y-121800628D01*
X188806161Y-121783327D01*
X188894010Y-121764654D01*
X188900041Y-121761969D01*
X189052074Y-121694280D01*
X189052076Y-121694279D01*
X189058104Y-121691595D01*
X189203422Y-121586015D01*
X189323613Y-121452529D01*
X189413425Y-121296971D01*
X189468931Y-121126139D01*
X189487707Y-120947500D01*
X189468931Y-120768861D01*
X189413425Y-120598029D01*
X189323613Y-120442471D01*
X189203422Y-120308985D01*
X189058104Y-120203405D01*
X189052076Y-120200721D01*
X189052074Y-120200720D01*
X188900041Y-120133031D01*
X188900040Y-120133031D01*
X188894010Y-120130346D01*
X188806161Y-120111673D01*
X188724769Y-120094372D01*
X188724764Y-120094372D01*
X188718312Y-120093000D01*
X188538688Y-120093000D01*
X188532236Y-120094372D01*
X188532231Y-120094372D01*
X188450839Y-120111673D01*
X188362990Y-120130346D01*
X188356960Y-120133031D01*
X188356959Y-120133031D01*
X188204927Y-120200720D01*
X188204925Y-120200721D01*
X188198897Y-120203405D01*
X188193556Y-120207285D01*
X188193555Y-120207286D01*
X188058922Y-120305102D01*
X188058920Y-120305104D01*
X188053578Y-120308985D01*
X187933387Y-120442471D01*
X187843575Y-120598029D01*
X187788069Y-120768861D01*
X187769293Y-120947500D01*
X165098065Y-120947500D01*
X165097886Y-114947500D01*
X187769293Y-114947500D01*
X187788069Y-115126139D01*
X187843575Y-115296971D01*
X187933387Y-115452529D01*
X188053578Y-115586015D01*
X188198896Y-115691595D01*
X188204924Y-115694279D01*
X188204926Y-115694280D01*
X188356959Y-115761969D01*
X188362990Y-115764654D01*
X188450839Y-115783327D01*
X188532231Y-115800628D01*
X188532236Y-115800628D01*
X188538688Y-115802000D01*
X188718312Y-115802000D01*
X188724764Y-115800628D01*
X188724769Y-115800628D01*
X188806161Y-115783327D01*
X188894010Y-115764654D01*
X188900041Y-115761969D01*
X189052074Y-115694280D01*
X189052076Y-115694279D01*
X189058104Y-115691595D01*
X189203422Y-115586015D01*
X189323613Y-115452529D01*
X189413425Y-115296971D01*
X189468931Y-115126139D01*
X189487707Y-114947500D01*
X189468931Y-114768861D01*
X189413425Y-114598029D01*
X189323613Y-114442471D01*
X189305203Y-114422024D01*
X189207844Y-114313896D01*
X189207843Y-114313895D01*
X189203422Y-114308985D01*
X189123894Y-114251204D01*
X189063446Y-114207286D01*
X189063445Y-114207285D01*
X189058104Y-114203405D01*
X189052076Y-114200721D01*
X189052074Y-114200720D01*
X188900041Y-114133031D01*
X188900040Y-114133031D01*
X188894010Y-114130346D01*
X188800977Y-114110571D01*
X188724769Y-114094372D01*
X188724764Y-114094372D01*
X188718312Y-114093000D01*
X188538688Y-114093000D01*
X188532236Y-114094372D01*
X188532231Y-114094372D01*
X188456023Y-114110571D01*
X188362990Y-114130346D01*
X188356960Y-114133031D01*
X188356959Y-114133031D01*
X188204927Y-114200720D01*
X188204925Y-114200721D01*
X188198897Y-114203405D01*
X188193556Y-114207285D01*
X188193555Y-114207286D01*
X188058922Y-114305102D01*
X188058920Y-114305104D01*
X188053578Y-114308985D01*
X188049157Y-114313895D01*
X188049156Y-114313896D01*
X187951798Y-114422024D01*
X187933387Y-114442471D01*
X187843575Y-114598029D01*
X187788069Y-114768861D01*
X187769293Y-114947500D01*
X165097886Y-114947500D01*
X165097534Y-103155062D01*
X165097310Y-95646962D01*
X165857158Y-95646962D01*
X165888656Y-95770985D01*
X165892497Y-95781832D01*
X165978685Y-95968789D01*
X165984436Y-95978750D01*
X166103254Y-96146873D01*
X166110720Y-96155615D01*
X166258191Y-96299275D01*
X166267124Y-96306509D01*
X166438299Y-96420884D01*
X166440474Y-96422065D01*
X166441307Y-96422894D01*
X166443103Y-96424094D01*
X166442867Y-96424447D01*
X166490796Y-96472148D01*
X166506052Y-96541486D01*
X166481399Y-96608065D01*
X166454413Y-96634732D01*
X166384617Y-96685442D01*
X166253877Y-96830644D01*
X166250576Y-96836362D01*
X166160243Y-96992823D01*
X166156182Y-96999856D01*
X166095804Y-97185682D01*
X166095114Y-97192245D01*
X166095114Y-97192246D01*
X166081473Y-97322033D01*
X166075380Y-97380000D01*
X166095804Y-97574318D01*
X166097843Y-97580592D01*
X166097844Y-97580597D01*
X166110735Y-97620271D01*
X166156182Y-97760144D01*
X166159485Y-97765866D01*
X166159486Y-97765867D01*
X166189123Y-97817200D01*
X166253877Y-97929356D01*
X166384617Y-98074558D01*
X166389959Y-98078439D01*
X166389961Y-98078441D01*
X166486988Y-98148935D01*
X166542690Y-98189405D01*
X166548719Y-98192089D01*
X166548722Y-98192091D01*
X166712241Y-98264893D01*
X166766337Y-98310873D01*
X166786987Y-98378800D01*
X166767635Y-98447108D01*
X166712241Y-98495107D01*
X166548722Y-98567909D01*
X166548719Y-98567911D01*
X166542690Y-98570595D01*
X166537349Y-98574475D01*
X166537348Y-98574476D01*
X166430587Y-98652043D01*
X166384617Y-98685442D01*
X166253877Y-98830644D01*
X166156182Y-98999856D01*
X166095804Y-99185682D01*
X166095114Y-99192245D01*
X166095114Y-99192246D01*
X166088459Y-99255565D01*
X166075380Y-99380000D01*
X166095804Y-99574318D01*
X166156182Y-99760144D01*
X166159485Y-99765866D01*
X166159486Y-99765867D01*
X166183476Y-99807419D01*
X166253877Y-99929356D01*
X166258295Y-99934263D01*
X166258296Y-99934264D01*
X166380195Y-100069647D01*
X166384617Y-100074558D01*
X166542690Y-100189405D01*
X166587587Y-100209394D01*
X166641683Y-100255374D01*
X166662332Y-100323302D01*
X166642980Y-100391610D01*
X166589769Y-100438611D01*
X166536339Y-100450501D01*
X166309934Y-100450501D01*
X166274182Y-100457612D01*
X166247874Y-100462844D01*
X166247872Y-100462845D01*
X166235699Y-100465266D01*
X166225379Y-100472161D01*
X166225378Y-100472162D01*
X166164985Y-100512516D01*
X166151516Y-100521516D01*
X166095266Y-100605699D01*
X166080500Y-100679933D01*
X166080501Y-102080066D01*
X166095266Y-102154301D01*
X166151516Y-102238484D01*
X166235699Y-102294734D01*
X166309933Y-102309500D01*
X167009886Y-102309500D01*
X167710066Y-102309499D01*
X167745818Y-102302388D01*
X167772126Y-102297156D01*
X167772128Y-102297155D01*
X167784301Y-102294734D01*
X167794621Y-102287839D01*
X167794622Y-102287838D01*
X167858168Y-102245377D01*
X167868484Y-102238484D01*
X167924734Y-102154301D01*
X167925966Y-102148107D01*
X167967867Y-102096111D01*
X168035231Y-102073691D01*
X168104022Y-102091250D01*
X168128822Y-102110516D01*
X173564426Y-107546120D01*
X173598452Y-107608432D01*
X173601331Y-107635215D01*
X173601331Y-112167568D01*
X173581329Y-112235689D01*
X173558161Y-112262516D01*
X173490870Y-112321219D01*
X173399781Y-112450825D01*
X173342237Y-112598418D01*
X173341245Y-112605951D01*
X173341245Y-112605952D01*
X173328647Y-112701649D01*
X173321560Y-112755477D01*
X173338944Y-112912934D01*
X173393384Y-113061700D01*
X173481739Y-113193186D01*
X173598907Y-113299800D01*
X173738124Y-113375389D01*
X173891353Y-113415588D01*
X173975308Y-113416907D01*
X174042150Y-113417957D01*
X174042153Y-113417957D01*
X174049747Y-113418076D01*
X174088602Y-113409177D01*
X174159468Y-113413466D01*
X174216766Y-113455388D01*
X174242304Y-113521632D01*
X174234124Y-113577766D01*
X174214167Y-113628954D01*
X174214166Y-113628958D01*
X174211406Y-113636037D01*
X174210414Y-113643570D01*
X174210414Y-113643571D01*
X174191729Y-113785503D01*
X174190729Y-113793096D01*
X174208113Y-113950553D01*
X174262553Y-114099319D01*
X174266789Y-114105622D01*
X174266789Y-114105623D01*
X174285207Y-114133031D01*
X174350908Y-114230805D01*
X174356527Y-114235918D01*
X174356528Y-114235919D01*
X174367903Y-114246269D01*
X174468076Y-114337419D01*
X174607293Y-114413008D01*
X174760522Y-114453207D01*
X174844477Y-114454526D01*
X174911319Y-114455576D01*
X174911322Y-114455576D01*
X174918916Y-114455695D01*
X175073332Y-114420329D01*
X175143742Y-114384917D01*
X175208072Y-114352563D01*
X175208075Y-114352561D01*
X175214855Y-114349151D01*
X175220626Y-114344222D01*
X175220629Y-114344220D01*
X175329536Y-114251204D01*
X175329536Y-114251203D01*
X175335314Y-114246269D01*
X175427755Y-114117624D01*
X175486842Y-113970641D01*
X175509162Y-113813807D01*
X175509307Y-113800000D01*
X175507552Y-113785500D01*
X175519224Y-113715472D01*
X175566904Y-113662869D01*
X175604510Y-113647543D01*
X175715927Y-113622025D01*
X175723332Y-113620329D01*
X175807960Y-113577766D01*
X175858072Y-113552563D01*
X175858075Y-113552561D01*
X175864855Y-113549151D01*
X175870626Y-113544222D01*
X175870629Y-113544220D01*
X175979536Y-113451204D01*
X175979536Y-113451203D01*
X175985314Y-113446269D01*
X176077755Y-113317624D01*
X176136842Y-113170641D01*
X176159162Y-113013807D01*
X176159307Y-113000000D01*
X176140276Y-112842733D01*
X176084280Y-112694546D01*
X176023391Y-112605952D01*
X175998855Y-112570251D01*
X175998854Y-112570249D01*
X175994553Y-112563992D01*
X175921681Y-112499065D01*
X175884126Y-112438816D01*
X175879500Y-112404989D01*
X175879500Y-105923920D01*
X175882049Y-105899972D01*
X175882128Y-105898307D01*
X175884320Y-105888124D01*
X175880373Y-105854777D01*
X175880023Y-105848846D01*
X175879928Y-105848854D01*
X175879500Y-105843676D01*
X175879500Y-105838476D01*
X175878646Y-105833344D01*
X175876331Y-105819435D01*
X175875494Y-105813557D01*
X175872043Y-105784399D01*
X189877800Y-105784399D01*
X189894318Y-105952862D01*
X189947748Y-106113479D01*
X190035435Y-106258267D01*
X190040326Y-106263332D01*
X190040327Y-106263333D01*
X190064062Y-106287911D01*
X190153021Y-106380031D01*
X190294660Y-106472717D01*
X190453315Y-106531720D01*
X190460296Y-106532651D01*
X190460298Y-106532652D01*
X190614118Y-106553176D01*
X190614122Y-106553176D01*
X190621099Y-106554107D01*
X190628110Y-106553469D01*
X190628114Y-106553469D01*
X190782652Y-106539405D01*
X190789673Y-106538766D01*
X190950659Y-106486458D01*
X191096056Y-106399784D01*
X191218638Y-106283052D01*
X191222539Y-106277181D01*
X191308410Y-106147935D01*
X191308411Y-106147933D01*
X191312311Y-106142063D01*
X191372420Y-105983824D01*
X191387323Y-105877783D01*
X191395427Y-105820123D01*
X191395427Y-105820118D01*
X191395978Y-105816200D01*
X191396274Y-105795000D01*
X191379392Y-105644492D01*
X191378191Y-105633780D01*
X191378190Y-105633777D01*
X191377406Y-105626784D01*
X191321738Y-105466929D01*
X191232038Y-105323379D01*
X191112764Y-105203269D01*
X190969844Y-105112569D01*
X190942442Y-105102812D01*
X190817016Y-105058149D01*
X190817011Y-105058148D01*
X190810381Y-105055787D01*
X190803395Y-105054954D01*
X190803391Y-105054953D01*
X190684287Y-105040751D01*
X190642301Y-105035745D01*
X190635298Y-105036481D01*
X190635297Y-105036481D01*
X190480965Y-105052701D01*
X190480961Y-105052702D01*
X190473957Y-105053438D01*
X190467286Y-105055709D01*
X190320387Y-105105717D01*
X190320384Y-105105718D01*
X190313717Y-105107988D01*
X190307719Y-105111678D01*
X190307717Y-105111679D01*
X190175543Y-105192993D01*
X190175541Y-105192995D01*
X190169544Y-105196684D01*
X190048605Y-105315117D01*
X189956909Y-105457400D01*
X189954498Y-105464025D01*
X189901425Y-105609840D01*
X189901424Y-105609845D01*
X189899015Y-105616463D01*
X189877800Y-105784399D01*
X175872043Y-105784399D01*
X175870694Y-105772999D01*
X175870694Y-105772998D01*
X175869470Y-105762659D01*
X175865507Y-105754407D01*
X175864004Y-105745374D01*
X175839665Y-105700266D01*
X175836969Y-105694975D01*
X175818215Y-105655918D01*
X175818212Y-105655914D01*
X175814781Y-105648768D01*
X175811186Y-105644492D01*
X175809263Y-105642569D01*
X175807491Y-105640637D01*
X175807448Y-105640558D01*
X175807572Y-105640445D01*
X175807096Y-105639905D01*
X175804010Y-105634186D01*
X175764413Y-105597583D01*
X175760848Y-105594154D01*
X170272925Y-100106231D01*
X170238899Y-100043919D01*
X170243964Y-99973104D01*
X170286511Y-99916268D01*
X170353031Y-99891457D01*
X170393993Y-99895260D01*
X170493171Y-99921279D01*
X170493175Y-99921280D01*
X170500522Y-99923207D01*
X170584477Y-99924526D01*
X170651319Y-99925576D01*
X170651322Y-99925576D01*
X170658916Y-99925695D01*
X170813332Y-99890329D01*
X170883742Y-99854917D01*
X170948072Y-99822563D01*
X170948075Y-99822561D01*
X170954855Y-99819151D01*
X170960626Y-99814222D01*
X170960629Y-99814220D01*
X171069536Y-99721204D01*
X171069536Y-99721203D01*
X171075314Y-99716269D01*
X171167755Y-99587624D01*
X171226842Y-99440641D01*
X171235472Y-99380000D01*
X171248581Y-99287891D01*
X171248581Y-99287888D01*
X171249162Y-99283807D01*
X171249307Y-99270000D01*
X171243437Y-99221496D01*
X171255109Y-99151468D01*
X171279429Y-99117265D01*
X172611296Y-97785399D01*
X189874800Y-97785399D01*
X189891318Y-97953862D01*
X189944748Y-98114479D01*
X189948397Y-98120504D01*
X190021158Y-98240646D01*
X190032435Y-98259267D01*
X190037326Y-98264332D01*
X190037327Y-98264333D01*
X190061062Y-98288911D01*
X190150021Y-98381031D01*
X190291660Y-98473717D01*
X190450315Y-98532720D01*
X190457296Y-98533651D01*
X190457298Y-98533652D01*
X190611118Y-98554176D01*
X190611122Y-98554176D01*
X190618099Y-98555107D01*
X190625110Y-98554469D01*
X190625114Y-98554469D01*
X190779652Y-98540405D01*
X190786673Y-98539766D01*
X190947659Y-98487458D01*
X191093056Y-98400784D01*
X191215638Y-98284052D01*
X191225721Y-98268876D01*
X191305410Y-98148935D01*
X191305411Y-98148933D01*
X191309311Y-98143063D01*
X191369420Y-97984824D01*
X191392978Y-97817200D01*
X191393274Y-97796000D01*
X191374406Y-97627784D01*
X191318738Y-97467929D01*
X191229038Y-97324379D01*
X191109764Y-97204269D01*
X191070590Y-97179408D01*
X191055245Y-97169670D01*
X190966844Y-97113569D01*
X190939442Y-97103812D01*
X190814016Y-97059149D01*
X190814011Y-97059148D01*
X190807381Y-97056787D01*
X190800395Y-97055954D01*
X190800391Y-97055953D01*
X190681287Y-97041751D01*
X190639301Y-97036745D01*
X190632298Y-97037481D01*
X190632297Y-97037481D01*
X190477965Y-97053701D01*
X190477961Y-97053702D01*
X190470957Y-97054438D01*
X190464286Y-97056709D01*
X190317387Y-97106717D01*
X190317384Y-97106718D01*
X190310717Y-97108988D01*
X190304719Y-97112678D01*
X190304717Y-97112679D01*
X190172543Y-97193993D01*
X190172541Y-97193995D01*
X190166544Y-97197684D01*
X190045605Y-97316117D01*
X189953909Y-97458400D01*
X189951498Y-97465025D01*
X189898425Y-97610840D01*
X189898424Y-97610845D01*
X189896015Y-97617463D01*
X189874800Y-97785399D01*
X172611296Y-97785399D01*
X173788630Y-96608065D01*
X176310219Y-94086476D01*
X176328961Y-94071339D01*
X176330190Y-94070221D01*
X176338940Y-94064571D01*
X176359729Y-94038200D01*
X176363676Y-94033759D01*
X176363603Y-94033697D01*
X176366963Y-94029732D01*
X176370638Y-94026057D01*
X176373655Y-94021835D01*
X176373660Y-94021829D01*
X176381862Y-94010350D01*
X176385428Y-94005600D01*
X176410711Y-93973528D01*
X176417156Y-93965353D01*
X176420189Y-93956716D01*
X176425513Y-93949266D01*
X176440202Y-93900151D01*
X176442034Y-93894514D01*
X176456390Y-93853633D01*
X176456390Y-93853632D01*
X176459018Y-93846149D01*
X176459500Y-93840584D01*
X176459500Y-93837876D01*
X176459614Y-93835242D01*
X176459643Y-93835144D01*
X176459807Y-93835151D01*
X176459851Y-93834447D01*
X176461713Y-93828222D01*
X176459597Y-93774365D01*
X176459500Y-93769418D01*
X176459500Y-88593096D01*
X181290729Y-88593096D01*
X181308113Y-88750553D01*
X181362553Y-88899319D01*
X181450908Y-89030805D01*
X181456525Y-89035916D01*
X181456528Y-89035919D01*
X181467903Y-89046269D01*
X181568076Y-89137419D01*
X181707293Y-89213008D01*
X181860522Y-89253207D01*
X181944477Y-89254526D01*
X182011319Y-89255576D01*
X182011322Y-89255576D01*
X182018916Y-89255695D01*
X182173332Y-89220329D01*
X182243742Y-89184917D01*
X182308072Y-89152563D01*
X182308075Y-89152561D01*
X182314855Y-89149151D01*
X182320626Y-89144222D01*
X182320629Y-89144220D01*
X182429542Y-89051199D01*
X182429543Y-89051198D01*
X182435314Y-89046269D01*
X182445586Y-89031974D01*
X182501581Y-88988326D01*
X182547909Y-88979500D01*
X186280141Y-88979500D01*
X186348262Y-88999502D01*
X186375522Y-89023169D01*
X186376671Y-89024500D01*
X186380908Y-89030805D01*
X186498076Y-89137419D01*
X186637293Y-89213008D01*
X186790522Y-89253207D01*
X186874477Y-89254526D01*
X186941319Y-89255576D01*
X186941322Y-89255576D01*
X186948916Y-89255695D01*
X187103332Y-89220329D01*
X187173742Y-89184917D01*
X187238072Y-89152563D01*
X187238075Y-89152561D01*
X187244855Y-89149151D01*
X187250626Y-89144222D01*
X187250629Y-89144220D01*
X187359536Y-89051204D01*
X187359536Y-89051203D01*
X187365314Y-89046269D01*
X187457755Y-88917624D01*
X187516842Y-88770641D01*
X187539162Y-88613807D01*
X187539307Y-88600000D01*
X187520276Y-88442733D01*
X187464280Y-88294546D01*
X187374553Y-88163992D01*
X187256275Y-88058611D01*
X187248889Y-88054700D01*
X187122988Y-87988039D01*
X187122989Y-87988039D01*
X187116274Y-87984484D01*
X186962633Y-87945892D01*
X186955034Y-87945852D01*
X186955033Y-87945852D01*
X186889181Y-87945507D01*
X186804221Y-87945062D01*
X186796841Y-87946834D01*
X186796839Y-87946834D01*
X186657568Y-87980270D01*
X186657566Y-87980271D01*
X186650184Y-87982043D01*
X186649080Y-87982613D01*
X186580962Y-87987423D01*
X186518681Y-87953342D01*
X186484712Y-87890999D01*
X186483114Y-87846575D01*
X186498581Y-87737894D01*
X186498582Y-87737884D01*
X186499162Y-87733807D01*
X186499307Y-87720000D01*
X186498620Y-87714318D01*
X186484923Y-87601136D01*
X186480276Y-87562733D01*
X186424280Y-87414546D01*
X186358890Y-87319403D01*
X186338855Y-87290251D01*
X186338854Y-87290249D01*
X186334553Y-87283992D01*
X186306935Y-87259385D01*
X186281663Y-87236870D01*
X186217359Y-87179577D01*
X186179804Y-87119327D01*
X186180783Y-87048337D01*
X186219987Y-86989146D01*
X186284969Y-86960547D01*
X186301178Y-86959500D01*
X187872258Y-86959500D01*
X187940379Y-86979502D01*
X187976839Y-87015224D01*
X188020908Y-87080805D01*
X188138076Y-87187419D01*
X188277293Y-87263008D01*
X188430522Y-87303207D01*
X188514477Y-87304526D01*
X188581319Y-87305576D01*
X188581322Y-87305576D01*
X188588916Y-87305695D01*
X188743332Y-87270329D01*
X188841433Y-87220990D01*
X188878072Y-87202563D01*
X188878075Y-87202561D01*
X188884855Y-87199151D01*
X188890626Y-87194222D01*
X188890629Y-87194220D01*
X188999536Y-87101204D01*
X188999536Y-87101203D01*
X189005314Y-87096269D01*
X189097755Y-86967624D01*
X189156842Y-86820641D01*
X189172885Y-86707911D01*
X189178581Y-86667891D01*
X189178581Y-86667888D01*
X189179162Y-86663807D01*
X189179307Y-86650000D01*
X189160276Y-86492733D01*
X189163154Y-86492385D01*
X189165720Y-86434911D01*
X189206729Y-86376956D01*
X189272561Y-86350372D01*
X189316886Y-86353889D01*
X189390522Y-86373207D01*
X189474477Y-86374526D01*
X189541319Y-86375576D01*
X189541322Y-86375576D01*
X189548916Y-86375695D01*
X189703332Y-86340329D01*
X189778545Y-86302501D01*
X189838072Y-86272563D01*
X189838075Y-86272561D01*
X189844855Y-86269151D01*
X189850626Y-86264222D01*
X189850629Y-86264220D01*
X189959536Y-86171204D01*
X189959536Y-86171203D01*
X189965314Y-86166269D01*
X190057755Y-86037624D01*
X190116842Y-85890641D01*
X190139162Y-85733807D01*
X190139307Y-85720000D01*
X190138620Y-85714318D01*
X190128494Y-85630646D01*
X190120276Y-85562733D01*
X190064280Y-85414546D01*
X189974553Y-85283992D01*
X189856275Y-85178611D01*
X189848889Y-85174700D01*
X189722988Y-85108039D01*
X189722989Y-85108039D01*
X189716274Y-85104484D01*
X189562633Y-85065892D01*
X189555034Y-85065852D01*
X189555033Y-85065852D01*
X189489181Y-85065507D01*
X189404221Y-85065062D01*
X189396841Y-85066834D01*
X189396839Y-85066834D01*
X189257563Y-85100271D01*
X189257560Y-85100272D01*
X189250184Y-85102043D01*
X189109414Y-85174700D01*
X189103695Y-85179689D01*
X189012265Y-85259449D01*
X188947783Y-85289157D01*
X188929435Y-85290500D01*
X188359682Y-85290500D01*
X188291561Y-85270498D01*
X188265114Y-85244860D01*
X188263878Y-85245949D01*
X188258855Y-85240251D01*
X188254553Y-85233992D01*
X188136275Y-85128611D01*
X188128889Y-85124700D01*
X188002988Y-85058039D01*
X188002989Y-85058039D01*
X187996274Y-85054484D01*
X187842633Y-85015892D01*
X187835034Y-85015852D01*
X187835033Y-85015852D01*
X187769181Y-85015507D01*
X187684221Y-85015062D01*
X187676841Y-85016834D01*
X187676839Y-85016834D01*
X187537563Y-85050271D01*
X187537560Y-85050272D01*
X187530184Y-85052043D01*
X187389414Y-85124700D01*
X187297526Y-85204860D01*
X187280802Y-85219449D01*
X187216320Y-85249157D01*
X187197972Y-85250500D01*
X182649682Y-85250500D01*
X182581561Y-85230498D01*
X182555114Y-85204860D01*
X182553878Y-85205949D01*
X182548855Y-85200251D01*
X182544553Y-85193992D01*
X182426275Y-85088611D01*
X182418889Y-85084700D01*
X182361821Y-85054484D01*
X182286274Y-85014484D01*
X182132633Y-84975892D01*
X182125034Y-84975852D01*
X182125033Y-84975852D01*
X182059181Y-84975507D01*
X181974221Y-84975062D01*
X181966841Y-84976834D01*
X181966839Y-84976834D01*
X181827563Y-85010271D01*
X181827560Y-85010272D01*
X181820184Y-85012043D01*
X181679414Y-85084700D01*
X181560039Y-85188838D01*
X181468950Y-85318444D01*
X181411406Y-85466037D01*
X181410414Y-85473570D01*
X181410414Y-85473571D01*
X181404302Y-85520000D01*
X181390729Y-85623096D01*
X181391563Y-85630646D01*
X181402497Y-85729682D01*
X181408113Y-85780553D01*
X181410723Y-85787684D01*
X181410723Y-85787686D01*
X181451877Y-85900144D01*
X181462553Y-85929319D01*
X181466789Y-85935622D01*
X181466789Y-85935623D01*
X181530592Y-86030571D01*
X181550908Y-86060805D01*
X181556527Y-86065918D01*
X181556528Y-86065919D01*
X181607684Y-86112467D01*
X181644607Y-86173108D01*
X181642884Y-86244083D01*
X181625972Y-86278112D01*
X181604461Y-86308718D01*
X181580070Y-86371279D01*
X181550044Y-86448291D01*
X181546917Y-86456311D01*
X181545925Y-86463844D01*
X181545925Y-86463845D01*
X181528865Y-86593432D01*
X181526240Y-86613370D01*
X181534767Y-86690606D01*
X181537403Y-86714476D01*
X181543624Y-86770827D01*
X181598064Y-86919593D01*
X181602304Y-86925903D01*
X181605749Y-86932664D01*
X181604249Y-86933429D01*
X181622875Y-86992383D01*
X181604268Y-87060898D01*
X181579730Y-87089905D01*
X181505876Y-87154332D01*
X181505872Y-87154336D01*
X181500150Y-87159328D01*
X181409061Y-87288934D01*
X181380289Y-87362731D01*
X181357318Y-87421649D01*
X181351517Y-87436527D01*
X181350525Y-87444060D01*
X181350525Y-87444061D01*
X181334902Y-87562733D01*
X181330840Y-87593586D01*
X181331674Y-87601136D01*
X181346211Y-87732806D01*
X181348224Y-87751043D01*
X181402664Y-87899809D01*
X181406899Y-87906112D01*
X181406903Y-87906119D01*
X181472575Y-88003848D01*
X181493968Y-88071545D01*
X181475364Y-88140061D01*
X181463745Y-88155605D01*
X181460039Y-88158838D01*
X181368950Y-88288444D01*
X181366190Y-88295524D01*
X181321996Y-88408876D01*
X181311406Y-88436037D01*
X181310414Y-88443570D01*
X181310414Y-88443571D01*
X181309634Y-88449500D01*
X181290729Y-88593096D01*
X176459500Y-88593096D01*
X176459500Y-83494730D01*
X176479502Y-83426609D01*
X176503669Y-83398919D01*
X176559536Y-83351204D01*
X176565314Y-83346269D01*
X176657755Y-83217624D01*
X176716842Y-83070641D01*
X176730432Y-82975149D01*
X176738581Y-82917891D01*
X176738581Y-82917888D01*
X176739162Y-82913807D01*
X176739307Y-82900000D01*
X176720276Y-82742733D01*
X176664280Y-82594546D01*
X176650712Y-82574805D01*
X176578855Y-82470251D01*
X176578854Y-82470249D01*
X176574553Y-82463992D01*
X176456275Y-82358611D01*
X176448889Y-82354700D01*
X176336509Y-82295198D01*
X176316274Y-82284484D01*
X176162633Y-82245892D01*
X176155034Y-82245852D01*
X176155033Y-82245852D01*
X176089181Y-82245507D01*
X176004221Y-82245062D01*
X175996841Y-82246834D01*
X175996839Y-82246834D01*
X175857563Y-82280271D01*
X175857560Y-82280272D01*
X175850184Y-82282043D01*
X175709414Y-82354700D01*
X175590039Y-82458838D01*
X175585672Y-82465051D01*
X175585667Y-82465057D01*
X175539621Y-82530573D01*
X175484087Y-82574805D01*
X175413454Y-82581990D01*
X175350150Y-82549848D01*
X175332695Y-82529489D01*
X175298855Y-82480251D01*
X175298854Y-82480249D01*
X175294553Y-82473992D01*
X175284525Y-82465057D01*
X175220252Y-82407793D01*
X175176275Y-82368611D01*
X175168889Y-82364700D01*
X175042988Y-82298039D01*
X175042989Y-82298039D01*
X175036274Y-82294484D01*
X174882633Y-82255892D01*
X174875034Y-82255852D01*
X174875033Y-82255852D01*
X174809181Y-82255507D01*
X174724221Y-82255062D01*
X174716841Y-82256834D01*
X174716839Y-82256834D01*
X174577563Y-82290271D01*
X174577560Y-82290272D01*
X174570184Y-82292043D01*
X174563439Y-82295524D01*
X174563440Y-82295524D01*
X174436161Y-82361217D01*
X174436157Y-82361220D01*
X174429414Y-82364700D01*
X174429042Y-82363980D01*
X174367257Y-82383858D01*
X174298645Y-82365612D01*
X174250790Y-82313168D01*
X174246156Y-82302439D01*
X174224280Y-82244546D01*
X174134553Y-82113992D01*
X174110961Y-82092972D01*
X174021946Y-82013664D01*
X174016275Y-82008611D01*
X174008889Y-82004700D01*
X173882988Y-81938039D01*
X173882989Y-81938039D01*
X173876274Y-81934484D01*
X173722633Y-81895892D01*
X173715034Y-81895852D01*
X173715033Y-81895852D01*
X173649181Y-81895507D01*
X173564221Y-81895062D01*
X173556841Y-81896834D01*
X173556839Y-81896834D01*
X173417563Y-81930271D01*
X173417560Y-81930272D01*
X173410184Y-81932043D01*
X173269414Y-82004700D01*
X173150039Y-82108838D01*
X173058950Y-82238444D01*
X173030178Y-82312240D01*
X173009587Y-82365055D01*
X173001406Y-82386037D01*
X173000414Y-82393570D01*
X173000414Y-82393571D01*
X172982378Y-82530573D01*
X172980729Y-82543096D01*
X172985736Y-82588444D01*
X172996553Y-82686420D01*
X172998113Y-82700553D01*
X173000723Y-82707684D01*
X173000723Y-82707686D01*
X173025931Y-82776569D01*
X173052553Y-82849319D01*
X173056789Y-82855622D01*
X173056789Y-82855623D01*
X173133563Y-82969874D01*
X173140908Y-82980805D01*
X173146527Y-82985918D01*
X173146528Y-82985919D01*
X173219299Y-83052135D01*
X173256222Y-83112775D01*
X173260500Y-83145329D01*
X173260500Y-90540616D01*
X173240498Y-90608737D01*
X173223595Y-90629711D01*
X168256211Y-95597095D01*
X168193899Y-95631121D01*
X168167116Y-95634000D01*
X165871981Y-95634000D01*
X165858450Y-95637973D01*
X165857158Y-95646962D01*
X165097310Y-95646962D01*
X165097294Y-95122799D01*
X165855218Y-95122799D01*
X165861950Y-95126000D01*
X166737885Y-95126000D01*
X166753124Y-95121525D01*
X166754329Y-95120135D01*
X166756000Y-95112452D01*
X166756000Y-95107885D01*
X167264000Y-95107885D01*
X167268475Y-95123124D01*
X167269865Y-95124329D01*
X167277548Y-95126000D01*
X168149485Y-95126000D01*
X168163016Y-95122027D01*
X168164185Y-95113892D01*
X168120725Y-94959794D01*
X168116603Y-94949055D01*
X168025549Y-94764417D01*
X168019538Y-94754608D01*
X167896360Y-94589651D01*
X167888671Y-94581111D01*
X167737490Y-94441361D01*
X167728365Y-94434360D01*
X167554255Y-94324505D01*
X167544008Y-94319284D01*
X167352793Y-94242997D01*
X167341767Y-94239730D01*
X167281770Y-94227797D01*
X167268894Y-94228949D01*
X167264000Y-94244102D01*
X167264000Y-95107885D01*
X166756000Y-95107885D01*
X166756000Y-94241337D01*
X166752194Y-94228375D01*
X166737278Y-94226439D01*
X166708202Y-94231435D01*
X166697082Y-94234415D01*
X166503940Y-94305669D01*
X166493562Y-94310619D01*
X166316639Y-94415877D01*
X166307327Y-94422643D01*
X166152547Y-94558381D01*
X166144630Y-94566724D01*
X166017180Y-94728394D01*
X166010909Y-94738050D01*
X165915060Y-94920229D01*
X165910655Y-94930863D01*
X165855436Y-95108700D01*
X165855218Y-95122799D01*
X165097294Y-95122799D01*
X165097187Y-91520000D01*
X165805380Y-91520000D01*
X165825804Y-91714318D01*
X165886182Y-91900144D01*
X165983877Y-92069356D01*
X166114617Y-92214558D01*
X166272690Y-92329405D01*
X166278719Y-92332089D01*
X166278722Y-92332091D01*
X166445151Y-92406189D01*
X166445154Y-92406190D01*
X166451187Y-92408876D01*
X166530727Y-92425783D01*
X166635849Y-92448128D01*
X166635854Y-92448128D01*
X166642306Y-92449500D01*
X166837694Y-92449500D01*
X166844146Y-92448128D01*
X166844151Y-92448128D01*
X166949273Y-92425783D01*
X167028813Y-92408876D01*
X167034846Y-92406190D01*
X167034849Y-92406189D01*
X167201278Y-92332091D01*
X167201281Y-92332089D01*
X167207310Y-92329405D01*
X167365383Y-92214558D01*
X167496123Y-92069356D01*
X167498241Y-92071263D01*
X167544519Y-92035541D01*
X167615252Y-92029430D01*
X167678060Y-92062531D01*
X167704717Y-92100181D01*
X167708687Y-92108792D01*
X167714436Y-92118750D01*
X167833254Y-92286873D01*
X167840720Y-92295615D01*
X167988191Y-92439275D01*
X167997124Y-92446509D01*
X168168299Y-92560884D01*
X168178409Y-92566374D01*
X168367566Y-92647642D01*
X168378499Y-92651194D01*
X168468332Y-92671521D01*
X168482405Y-92670632D01*
X168486000Y-92661233D01*
X168486000Y-92660512D01*
X168994000Y-92660512D01*
X168997966Y-92674018D01*
X169011883Y-92676011D01*
X169022817Y-92673386D01*
X169217763Y-92607210D01*
X169228272Y-92602531D01*
X169407882Y-92501944D01*
X169417375Y-92495420D01*
X169575653Y-92363782D01*
X169583782Y-92355653D01*
X169715420Y-92197375D01*
X169721944Y-92187882D01*
X169822531Y-92008272D01*
X169827210Y-91997763D01*
X169893386Y-91802817D01*
X169896017Y-91791857D01*
X169894040Y-91777992D01*
X169880474Y-91774000D01*
X169012115Y-91774000D01*
X168996876Y-91778475D01*
X168995671Y-91779865D01*
X168994000Y-91787548D01*
X168994000Y-92660512D01*
X168486000Y-92660512D01*
X168486000Y-91392000D01*
X168506002Y-91323879D01*
X168559658Y-91277386D01*
X168612000Y-91266000D01*
X169879485Y-91266000D01*
X169893016Y-91262027D01*
X169894185Y-91253892D01*
X169850725Y-91099794D01*
X169846603Y-91089055D01*
X169755549Y-90904417D01*
X169749538Y-90894608D01*
X169626360Y-90729651D01*
X169618671Y-90721111D01*
X169467490Y-90581361D01*
X169458365Y-90574360D01*
X169300795Y-90474941D01*
X169253856Y-90421674D01*
X169243167Y-90351487D01*
X169272121Y-90286663D01*
X169293967Y-90266445D01*
X169365383Y-90214558D01*
X169496123Y-90069356D01*
X169593818Y-89900144D01*
X169654196Y-89714318D01*
X169674620Y-89520000D01*
X169654196Y-89325682D01*
X169593818Y-89139856D01*
X169496123Y-88970644D01*
X169425479Y-88892185D01*
X169369805Y-88830353D01*
X169369804Y-88830352D01*
X169365383Y-88825442D01*
X169279598Y-88763115D01*
X169212652Y-88714476D01*
X169212651Y-88714475D01*
X169207310Y-88710595D01*
X169201281Y-88707911D01*
X169201278Y-88707909D01*
X169037759Y-88635107D01*
X168983663Y-88589127D01*
X168963013Y-88521200D01*
X168982365Y-88452892D01*
X169037759Y-88404893D01*
X169201278Y-88332091D01*
X169201281Y-88332089D01*
X169207310Y-88329405D01*
X169253943Y-88295524D01*
X169360039Y-88218441D01*
X169360041Y-88218439D01*
X169365383Y-88214558D01*
X169405277Y-88170251D01*
X169491704Y-88074264D01*
X169491705Y-88074263D01*
X169496123Y-88069356D01*
X169567861Y-87945102D01*
X169590514Y-87905867D01*
X169590515Y-87905866D01*
X169593818Y-87900144D01*
X169639946Y-87758176D01*
X169652156Y-87720597D01*
X169652156Y-87720596D01*
X169654196Y-87714318D01*
X169674620Y-87520000D01*
X169666638Y-87444061D01*
X169654886Y-87332246D01*
X169654886Y-87332245D01*
X169654196Y-87325682D01*
X169646894Y-87303207D01*
X169595860Y-87146141D01*
X169595860Y-87146140D01*
X169593818Y-87139856D01*
X169496123Y-86970644D01*
X169443732Y-86912457D01*
X169369805Y-86830353D01*
X169369804Y-86830352D01*
X169365383Y-86825442D01*
X169348417Y-86813115D01*
X169212652Y-86714476D01*
X169212651Y-86714475D01*
X169207310Y-86710595D01*
X169201281Y-86707911D01*
X169201278Y-86707909D01*
X169037759Y-86635107D01*
X168983663Y-86589127D01*
X168963013Y-86521200D01*
X168982365Y-86452892D01*
X169037759Y-86404893D01*
X169201278Y-86332091D01*
X169201281Y-86332089D01*
X169207310Y-86329405D01*
X169212652Y-86325524D01*
X169360039Y-86218441D01*
X169360041Y-86218439D01*
X169365383Y-86214558D01*
X169407827Y-86167419D01*
X169491704Y-86074264D01*
X169491705Y-86074263D01*
X169496123Y-86069356D01*
X169573334Y-85935623D01*
X169590514Y-85905867D01*
X169590515Y-85905866D01*
X169593818Y-85900144D01*
X169618442Y-85824357D01*
X169652156Y-85720597D01*
X169652156Y-85720596D01*
X169654196Y-85714318D01*
X169674620Y-85520000D01*
X169654196Y-85325682D01*
X169642329Y-85289157D01*
X169595860Y-85146141D01*
X169593818Y-85139856D01*
X169570964Y-85100271D01*
X169539009Y-85044924D01*
X169496123Y-84970644D01*
X169365383Y-84825442D01*
X169255627Y-84745699D01*
X169212652Y-84714476D01*
X169212651Y-84714475D01*
X169207310Y-84710595D01*
X169201281Y-84707911D01*
X169201278Y-84707909D01*
X169034849Y-84633811D01*
X169034846Y-84633810D01*
X169028813Y-84631124D01*
X168939600Y-84612161D01*
X168844151Y-84591872D01*
X168844146Y-84591872D01*
X168837694Y-84590500D01*
X168642306Y-84590500D01*
X168635854Y-84591872D01*
X168635849Y-84591872D01*
X168540400Y-84612161D01*
X168451187Y-84631124D01*
X168445154Y-84633810D01*
X168445151Y-84633811D01*
X168278722Y-84707909D01*
X168278719Y-84707911D01*
X168272690Y-84710595D01*
X168267349Y-84714475D01*
X168267348Y-84714476D01*
X168224374Y-84745699D01*
X168114617Y-84825442D01*
X167983877Y-84970644D01*
X167927817Y-85067743D01*
X167904618Y-85107924D01*
X167853235Y-85156917D01*
X167783522Y-85170353D01*
X167717611Y-85143967D01*
X167676429Y-85086134D01*
X167669499Y-85044924D01*
X167669499Y-84819934D01*
X167654734Y-84745699D01*
X167598484Y-84661516D01*
X167514301Y-84605266D01*
X167440067Y-84590500D01*
X166740114Y-84590500D01*
X166039934Y-84590501D01*
X166004182Y-84597612D01*
X165977874Y-84602844D01*
X165977872Y-84602845D01*
X165965699Y-84605266D01*
X165955379Y-84612161D01*
X165955378Y-84612162D01*
X165929055Y-84629751D01*
X165881516Y-84661516D01*
X165825266Y-84745699D01*
X165810500Y-84819933D01*
X165810501Y-86220066D01*
X165825266Y-86294301D01*
X165832161Y-86304620D01*
X165832162Y-86304622D01*
X165853741Y-86336916D01*
X165881516Y-86378484D01*
X165965699Y-86434734D01*
X166039933Y-86449500D01*
X166266337Y-86449500D01*
X166334458Y-86469502D01*
X166380951Y-86523158D01*
X166391055Y-86593432D01*
X166361561Y-86658012D01*
X166317586Y-86690606D01*
X166272690Y-86710595D01*
X166267349Y-86714475D01*
X166267348Y-86714476D01*
X166131584Y-86813115D01*
X166114617Y-86825442D01*
X166110196Y-86830352D01*
X166110195Y-86830353D01*
X166036269Y-86912457D01*
X165983877Y-86970644D01*
X165886182Y-87139856D01*
X165884140Y-87146140D01*
X165884140Y-87146141D01*
X165833107Y-87303207D01*
X165825804Y-87325682D01*
X165825114Y-87332245D01*
X165825114Y-87332246D01*
X165813362Y-87444061D01*
X165805380Y-87520000D01*
X165825804Y-87714318D01*
X165827844Y-87720596D01*
X165827844Y-87720597D01*
X165840054Y-87758176D01*
X165886182Y-87900144D01*
X165889485Y-87905866D01*
X165889486Y-87905867D01*
X165912139Y-87945102D01*
X165983877Y-88069356D01*
X165988295Y-88074263D01*
X165988296Y-88074264D01*
X166074723Y-88170251D01*
X166114617Y-88214558D01*
X166119959Y-88218439D01*
X166119961Y-88218441D01*
X166226057Y-88295524D01*
X166272690Y-88329405D01*
X166278719Y-88332089D01*
X166278722Y-88332091D01*
X166442241Y-88404893D01*
X166496337Y-88450873D01*
X166516987Y-88518800D01*
X166497635Y-88587108D01*
X166442241Y-88635107D01*
X166278722Y-88707909D01*
X166278719Y-88707911D01*
X166272690Y-88710595D01*
X166267349Y-88714475D01*
X166267348Y-88714476D01*
X166200403Y-88763115D01*
X166114617Y-88825442D01*
X166110196Y-88830352D01*
X166110195Y-88830353D01*
X166054522Y-88892185D01*
X165983877Y-88970644D01*
X165886182Y-89139856D01*
X165825804Y-89325682D01*
X165805380Y-89520000D01*
X165825804Y-89714318D01*
X165886182Y-89900144D01*
X165983877Y-90069356D01*
X166114617Y-90214558D01*
X166119959Y-90218439D01*
X166119961Y-90218441D01*
X166264942Y-90323776D01*
X166272690Y-90329405D01*
X166278719Y-90332089D01*
X166278722Y-90332091D01*
X166442241Y-90404893D01*
X166496337Y-90450873D01*
X166516987Y-90518800D01*
X166497635Y-90587108D01*
X166442241Y-90635107D01*
X166278722Y-90707909D01*
X166278719Y-90707911D01*
X166272690Y-90710595D01*
X166267349Y-90714475D01*
X166267348Y-90714476D01*
X166127408Y-90816149D01*
X166114617Y-90825442D01*
X166110196Y-90830352D01*
X166110195Y-90830353D01*
X166027545Y-90922146D01*
X165983877Y-90970644D01*
X165886182Y-91139856D01*
X165825804Y-91325682D01*
X165805380Y-91520000D01*
X165097187Y-91520000D01*
X165096898Y-81837429D01*
X165099320Y-81812842D01*
X165099453Y-81812174D01*
X165101874Y-81800004D01*
X165099453Y-81787833D01*
X165099453Y-81775422D01*
X165099786Y-81775422D01*
X165099200Y-81766805D01*
X165941766Y-81766805D01*
X165942063Y-81771957D01*
X165942063Y-81771961D01*
X165943680Y-81800000D01*
X165949316Y-81897743D01*
X165954582Y-81989086D01*
X165955719Y-81994132D01*
X165955720Y-81994138D01*
X165976838Y-82087845D01*
X166003531Y-82206289D01*
X166005473Y-82211071D01*
X166005474Y-82211075D01*
X166067855Y-82364700D01*
X166087297Y-82412580D01*
X166141464Y-82500973D01*
X166195067Y-82588444D01*
X166203631Y-82602420D01*
X166349409Y-82770711D01*
X166520716Y-82912933D01*
X166712951Y-83025266D01*
X166717771Y-83027106D01*
X166717776Y-83027109D01*
X166832267Y-83070828D01*
X166920952Y-83104693D01*
X166926020Y-83105724D01*
X166926023Y-83105725D01*
X167032873Y-83127464D01*
X167139132Y-83149083D01*
X167144305Y-83149273D01*
X167144308Y-83149273D01*
X167356468Y-83157052D01*
X167356472Y-83157052D01*
X167361632Y-83157241D01*
X167366752Y-83156585D01*
X167366754Y-83156585D01*
X167454619Y-83145329D01*
X167582477Y-83128950D01*
X167587426Y-83127465D01*
X167587432Y-83127464D01*
X167743501Y-83080641D01*
X167795736Y-83064970D01*
X167870146Y-83028517D01*
X167885358Y-83021064D01*
X167995682Y-82967017D01*
X167999886Y-82964019D01*
X167999890Y-82964016D01*
X168160689Y-82849319D01*
X168176945Y-82837724D01*
X168334656Y-82680562D01*
X168464582Y-82499751D01*
X168536271Y-82354700D01*
X168560938Y-82304791D01*
X168560939Y-82304789D01*
X168563232Y-82300149D01*
X168627956Y-82087114D01*
X168657018Y-81866369D01*
X168657226Y-81857875D01*
X168658558Y-81803365D01*
X168658558Y-81803361D01*
X168658640Y-81800000D01*
X168656392Y-81772663D01*
X191854103Y-81772663D01*
X191854400Y-81777815D01*
X191854400Y-81777819D01*
X191855418Y-81795463D01*
X191856017Y-81805858D01*
X191866919Y-81994944D01*
X191868056Y-81999990D01*
X191868057Y-81999996D01*
X191890125Y-82097918D01*
X191915868Y-82212147D01*
X191917810Y-82216929D01*
X191917811Y-82216933D01*
X191997255Y-82412580D01*
X191999634Y-82418438D01*
X192115968Y-82608278D01*
X192261746Y-82776569D01*
X192433053Y-82918791D01*
X192625288Y-83031124D01*
X192630108Y-83032964D01*
X192630113Y-83032967D01*
X192766688Y-83085119D01*
X192833289Y-83110551D01*
X192838357Y-83111582D01*
X192838360Y-83111583D01*
X192945210Y-83133322D01*
X193051469Y-83154941D01*
X193056642Y-83155131D01*
X193056645Y-83155131D01*
X193268805Y-83162910D01*
X193268809Y-83162910D01*
X193273969Y-83163099D01*
X193279089Y-83162443D01*
X193279091Y-83162443D01*
X193381897Y-83149273D01*
X193494814Y-83134808D01*
X193499763Y-83133323D01*
X193499769Y-83133322D01*
X193648385Y-83088735D01*
X193708073Y-83070828D01*
X193717000Y-83066455D01*
X193903377Y-82975149D01*
X193908019Y-82972875D01*
X193912223Y-82969877D01*
X193912227Y-82969874D01*
X194010186Y-82900000D01*
X194089282Y-82843582D01*
X194246993Y-82686420D01*
X194376919Y-82505609D01*
X194432706Y-82392733D01*
X194473275Y-82310649D01*
X194473276Y-82310647D01*
X194475569Y-82306007D01*
X194540293Y-82092972D01*
X194569355Y-81872227D01*
X194569958Y-81847572D01*
X194570895Y-81809223D01*
X194570895Y-81809219D01*
X194570977Y-81805858D01*
X194556034Y-81624107D01*
X194553157Y-81589108D01*
X194553156Y-81589102D01*
X194552733Y-81583957D01*
X194498493Y-81368015D01*
X194409711Y-81163832D01*
X194288773Y-80976890D01*
X194279962Y-80967206D01*
X194142405Y-80816034D01*
X194142403Y-80816033D01*
X194138927Y-80812212D01*
X194134876Y-80809013D01*
X194134872Y-80809009D01*
X193968255Y-80677423D01*
X193964197Y-80674218D01*
X193769275Y-80566615D01*
X193655620Y-80526368D01*
X193564271Y-80494019D01*
X193564267Y-80494018D01*
X193559396Y-80492293D01*
X193554303Y-80491386D01*
X193554300Y-80491385D01*
X193345285Y-80454154D01*
X193345279Y-80454153D01*
X193340196Y-80453248D01*
X193266309Y-80452345D01*
X193122733Y-80450591D01*
X193122731Y-80450591D01*
X193117563Y-80450528D01*
X192897475Y-80484206D01*
X192685843Y-80553378D01*
X192681255Y-80555766D01*
X192681251Y-80555768D01*
X192521408Y-80638977D01*
X192488350Y-80656186D01*
X192484217Y-80659289D01*
X192484214Y-80659291D01*
X192314435Y-80786765D01*
X192310300Y-80789870D01*
X192156475Y-80950838D01*
X192153561Y-80955110D01*
X192153560Y-80955111D01*
X192033925Y-81130489D01*
X192033922Y-81130494D01*
X192031006Y-81134769D01*
X192011330Y-81177157D01*
X191942162Y-81326169D01*
X191937263Y-81336722D01*
X191877762Y-81551274D01*
X191854103Y-81772663D01*
X168656392Y-81772663D01*
X168652607Y-81726623D01*
X168640820Y-81583250D01*
X168640819Y-81583244D01*
X168640396Y-81578099D01*
X168586156Y-81362157D01*
X168497374Y-81157974D01*
X168376436Y-80971032D01*
X168354661Y-80947101D01*
X168230068Y-80810176D01*
X168230066Y-80810175D01*
X168226590Y-80806354D01*
X168222539Y-80803155D01*
X168222535Y-80803151D01*
X168055918Y-80671565D01*
X168051860Y-80668360D01*
X167856938Y-80560757D01*
X167668476Y-80494019D01*
X167651934Y-80488161D01*
X167651930Y-80488160D01*
X167647059Y-80486435D01*
X167641966Y-80485528D01*
X167641963Y-80485527D01*
X167432948Y-80448296D01*
X167432942Y-80448295D01*
X167427859Y-80447390D01*
X167353972Y-80446487D01*
X167210396Y-80444733D01*
X167210394Y-80444733D01*
X167205226Y-80444670D01*
X166985138Y-80478348D01*
X166773506Y-80547520D01*
X166768918Y-80549908D01*
X166768914Y-80549910D01*
X166597818Y-80638977D01*
X166576013Y-80650328D01*
X166571880Y-80653431D01*
X166571877Y-80653433D01*
X166422267Y-80765764D01*
X166397963Y-80784012D01*
X166244138Y-80944980D01*
X166241224Y-80949252D01*
X166241223Y-80949253D01*
X166121588Y-81124631D01*
X166121585Y-81124636D01*
X166118669Y-81128911D01*
X166098993Y-81171299D01*
X166049386Y-81278170D01*
X166024926Y-81330864D01*
X165965425Y-81545416D01*
X165941766Y-81766805D01*
X165099200Y-81766805D01*
X165099049Y-81764587D01*
X165107582Y-81624107D01*
X165112629Y-81541002D01*
X165114478Y-81525838D01*
X165160055Y-81278166D01*
X165163725Y-81263340D01*
X165178458Y-81216266D01*
X165238942Y-81023008D01*
X165244379Y-81008736D01*
X165250407Y-80995406D01*
X165348132Y-80779274D01*
X165355256Y-80765764D01*
X165412489Y-80671565D01*
X165486016Y-80550546D01*
X165494726Y-80537994D01*
X165650573Y-80340184D01*
X165660738Y-80328779D01*
X165839379Y-80151285D01*
X165850850Y-80141194D01*
X165902375Y-80101135D01*
X166049661Y-79986626D01*
X166062259Y-79978003D01*
X166278314Y-79848634D01*
X166291873Y-79841594D01*
X166522006Y-79739321D01*
X166536318Y-79733975D01*
X166777115Y-79660313D01*
X166791968Y-79656737D01*
X166953454Y-79628094D01*
X167039935Y-79612755D01*
X167055107Y-79611004D01*
X167278777Y-79598866D01*
X167289605Y-79599672D01*
X167289607Y-79599340D01*
X167302017Y-79599420D01*
X167314172Y-79601920D01*
X167326356Y-79599578D01*
X167326362Y-79599578D01*
X167328213Y-79599222D01*
X167352022Y-79596957D01*
X182339360Y-79600316D01*
G37*
%TD.AperFunction*%
%TD*%
M02*
