%TF.GenerationSoftware,KiCad,Pcbnew,(6.0.0-rc1-323-gb9e66d8b98)*%
%TF.CreationDate,2021-12-20T00:28:19+08:00*%
%TF.ProjectId,XSense,5853656e-7365-42e6-9b69-6361645f7063,rev?*%
%TF.SameCoordinates,PXb340ac0PY76b1be0*%
%TF.FileFunction,Legend,Bot*%
%TF.FilePolarity,Positive*%
%FSLAX46Y46*%
G04 Gerber Fmt 4.6, Leading zero omitted, Abs format (unit mm)*
G04 Created by KiCad (PCBNEW (6.0.0-rc1-323-gb9e66d8b98)) date 2021-12-20 00:28:19*
%MOMM*%
%LPD*%
G01*
G04 APERTURE LIST*
%ADD10C,0.076200*%
%TA.AperFunction,Profile*%
%ADD11C,0.500000*%
%TD*%
%TA.AperFunction,Profile*%
%ADD12C,0.100000*%
%TD*%
%ADD13C,0.150000*%
%ADD14C,0.300000*%
G04 APERTURE END LIST*
D10*
X21080000Y11180000D02*
X10158000Y11180000D01*
X340000Y4860000D02*
X340000Y6460000D01*
X340000Y42660000D02*
X340000Y41060000D01*
X31440000Y4860000D02*
X29840000Y4860000D01*
X31440000Y42660000D02*
X31440000Y41060000D01*
X31440000Y4860000D02*
X31440000Y6460000D01*
X31440000Y42660000D02*
X29840000Y42660000D01*
X340000Y42660000D02*
X1940000Y42660000D01*
X340000Y4860000D02*
X1940000Y4860000D01*
D11*
X582946Y2477666D02*
G75*
G03*
X3040002Y4722I2457054J-15839D01*
G01*
X3054640Y46925855D02*
X28951133Y46920051D01*
X31408189Y44447107D02*
X31397105Y2460002D01*
D12*
X4236974Y2650000D02*
G75*
G03*
X4236974Y2650000I-1100000J0D01*
G01*
D11*
X28924161Y2946D02*
G75*
G03*
X31397105Y2460002I15839J2457054D01*
G01*
X3054640Y46925855D02*
G75*
G03*
X581696Y44468799I-15842J-2457051D01*
G01*
D12*
X30051135Y44462946D02*
G75*
G03*
X30051135Y44462946I-1100000J0D01*
G01*
X30040000Y2662946D02*
G75*
G03*
X30040000Y2662946I-1100000J0D01*
G01*
X4138798Y44468804D02*
G75*
G03*
X4138798Y44468804I-1100000J0D01*
G01*
D11*
X582946Y2490000D02*
X581696Y44468799D01*
X31408189Y44447107D02*
G75*
G03*
X28951133Y46920051I-2457054J15839D01*
G01*
X28924161Y2946D02*
X3030000Y4722D01*
D13*
X19337996Y10270210D02*
X19379663Y10317829D01*
X19468948Y10365448D01*
X19564186Y10365448D01*
X19665377Y10317829D01*
X19718948Y10270210D01*
X19778472Y10174972D01*
X19790377Y10079734D01*
X19754663Y9984496D01*
X19712996Y9936877D01*
X19623710Y9889258D01*
X19528472Y9889258D01*
X19427282Y9936877D01*
X19373710Y9984496D01*
X19326091Y10365448D02*
X19373710Y9984496D01*
X19332044Y9936877D01*
X19284425Y9936877D01*
X19183234Y9984496D01*
X19123710Y10079734D01*
X19093948Y10317829D01*
X19171329Y10460686D01*
X19302282Y10555924D01*
X19486805Y10603543D01*
X19683234Y10555924D01*
X19837996Y10460686D01*
X19951091Y10317829D01*
X20022520Y10127353D01*
X19998710Y9936877D01*
X19921329Y9794020D01*
X19790377Y9698781D01*
X19605853Y9651162D01*
X19409425Y9698781D01*
X19254663Y9794020D01*
X18254663Y9794020D02*
X18730853Y9794020D01*
X18605853Y10794020D01*
X17921329Y9794020D02*
X17837996Y10460686D01*
X17796329Y10794020D02*
X17849901Y10746400D01*
X17808234Y10698781D01*
X17754663Y10746400D01*
X17796329Y10794020D01*
X17808234Y10698781D01*
X17504663Y10460686D02*
X17123710Y10460686D01*
X17320139Y10794020D02*
X17427282Y9936877D01*
X17391567Y9841639D01*
X17302282Y9794020D01*
X17207044Y9794020D01*
X16873710Y9794020D02*
X16748710Y10794020D01*
X16445139Y9794020D02*
X16379663Y10317829D01*
X16415377Y10413067D01*
X16504663Y10460686D01*
X16647520Y10460686D01*
X16748710Y10413067D01*
X16802282Y10365448D01*
X15968948Y9794020D02*
X15885615Y10460686D01*
X15843948Y10794020D02*
X15897520Y10746400D01*
X15855853Y10698781D01*
X15802282Y10746400D01*
X15843948Y10794020D01*
X15855853Y10698781D01*
X14980853Y10460686D02*
X15064186Y9794020D01*
X15409425Y10460686D02*
X15474901Y9936877D01*
X15439186Y9841639D01*
X15349901Y9794020D01*
X15207044Y9794020D01*
X15105853Y9841639D01*
X15052282Y9889258D01*
X14587996Y9794020D02*
X14504663Y10460686D01*
X14516567Y10365448D02*
X14462996Y10413067D01*
X14361805Y10460686D01*
X14218948Y10460686D01*
X14129663Y10413067D01*
X14093948Y10317829D01*
X14159425Y9794020D01*
X14093948Y10317829D02*
X14034425Y10413067D01*
X13933234Y10460686D01*
X13790377Y10460686D01*
X13701091Y10413067D01*
X13665377Y10317829D01*
X13730853Y9794020D01*
X13254663Y9794020D02*
X13171329Y10460686D01*
X13129663Y10794020D02*
X13183234Y10746400D01*
X13141567Y10698781D01*
X13087996Y10746400D01*
X13129663Y10794020D01*
X13141567Y10698781D01*
X12343948Y9841639D02*
X12445139Y9794020D01*
X12635615Y9794020D01*
X12724901Y9841639D01*
X12766567Y9889258D01*
X12802282Y9984496D01*
X12766567Y10270210D01*
X12707044Y10365448D01*
X12653472Y10413067D01*
X12552282Y10460686D01*
X12361805Y10460686D01*
X12272520Y10413067D01*
X11534425Y9841639D02*
X11635615Y9794020D01*
X11826091Y9794020D01*
X11915377Y9841639D01*
X11951091Y9936877D01*
X11903472Y10317829D01*
X11843948Y10413067D01*
X11742758Y10460686D01*
X11552282Y10460686D01*
X11462996Y10413067D01*
X11427282Y10317829D01*
X11439186Y10222591D01*
X11927282Y10127353D01*
D14*
X20654028Y13147829D02*
X19841528Y11647829D01*
X19654028Y13147829D02*
X20841528Y11647829D01*
X19296885Y13147829D02*
X18439742Y13147829D01*
X19055813Y11647829D02*
X18868313Y13147829D01*
X17546885Y11719258D02*
X17698671Y11647829D01*
X17984385Y11647829D01*
X18118313Y11719258D01*
X18171885Y11862115D01*
X18100456Y12433543D01*
X18011171Y12576400D01*
X17859385Y12647829D01*
X17573671Y12647829D01*
X17439742Y12576400D01*
X17386171Y12433543D01*
X17404028Y12290686D01*
X18136171Y12147829D01*
X16841528Y11647829D02*
X16716528Y12647829D01*
X16752242Y12362115D02*
X16662956Y12504972D01*
X16582599Y12576400D01*
X16430813Y12647829D01*
X16287956Y12647829D01*
X15912956Y11647829D02*
X15787956Y12647829D01*
X15805813Y12504972D02*
X15725456Y12576400D01*
X15573671Y12647829D01*
X15359385Y12647829D01*
X15225456Y12576400D01*
X15171885Y12433543D01*
X15270099Y11647829D01*
X15171885Y12433543D02*
X15082599Y12576400D01*
X14930813Y12647829D01*
X14716528Y12647829D01*
X14582599Y12576400D01*
X14529028Y12433543D01*
X14627242Y11647829D01*
X13912956Y11647829D02*
X13787956Y12647829D01*
X13725456Y13147829D02*
X13805813Y13076400D01*
X13743313Y13004972D01*
X13662956Y13076400D01*
X13725456Y13147829D01*
X13743313Y13004972D01*
X13073671Y12647829D02*
X13198671Y11647829D01*
X13091528Y12504972D02*
X13011171Y12576400D01*
X12859385Y12647829D01*
X12645099Y12647829D01*
X12511171Y12576400D01*
X12457599Y12433543D01*
X12555813Y11647829D01*
X11198671Y11647829D02*
X11100456Y12433543D01*
X11154028Y12576400D01*
X11287956Y12647829D01*
X11573671Y12647829D01*
X11725456Y12576400D01*
X11189742Y11719258D02*
X11341528Y11647829D01*
X11698671Y11647829D01*
X11832599Y11719258D01*
X11886171Y11862115D01*
X11868313Y12004972D01*
X11779028Y12147829D01*
X11627242Y12219258D01*
X11270099Y12219258D01*
X11118313Y12290686D01*
X10270099Y11647829D02*
X10404028Y11719258D01*
X10457599Y11862115D01*
X10296885Y13147829D01*
%TO.C,G\u002A\u002A\u002A*%
X17869256Y23646350D02*
X18014399Y23718922D01*
X18232113Y23718922D01*
X18449827Y23646350D01*
X18594970Y23501208D01*
X18667542Y23356065D01*
X18740113Y23065779D01*
X18740113Y22848065D01*
X18667542Y22557779D01*
X18594970Y22412636D01*
X18449827Y22267493D01*
X18232113Y22194922D01*
X18086970Y22194922D01*
X17869256Y22267493D01*
X17796685Y22340065D01*
X17796685Y22848065D01*
X18086970Y22848065D01*
X16925827Y23718922D02*
X16925827Y23356065D01*
X17288685Y23501208D02*
X16925827Y23356065D01*
X16562970Y23501208D01*
X17143542Y23065779D02*
X16925827Y23356065D01*
X16708113Y23065779D01*
X15764685Y23718922D02*
X15764685Y23356065D01*
X16127542Y23501208D02*
X15764685Y23356065D01*
X15401827Y23501208D01*
X15982399Y23065779D02*
X15764685Y23356065D01*
X15546970Y23065779D01*
X14603542Y23718922D02*
X14603542Y23356065D01*
X14966399Y23501208D02*
X14603542Y23356065D01*
X14240685Y23501208D01*
X14821256Y23065779D02*
X14603542Y23356065D01*
X14385827Y23065779D01*
G36*
X16624560Y30270093D02*
G01*
X16625081Y30269997D01*
X16630409Y30268367D01*
X16640543Y30264966D01*
X16654552Y30260115D01*
X16671505Y30254136D01*
X16690472Y30247349D01*
X16693861Y30246127D01*
X16845053Y30188498D01*
X16852047Y30185832D01*
X16858123Y30183516D01*
X16860216Y30182632D01*
X16867792Y30179432D01*
X16878606Y30174864D01*
X16882941Y30173033D01*
X16900574Y30165585D01*
X16905669Y30163433D01*
X16913245Y30160233D01*
X16946094Y30146358D01*
X16951123Y30144234D01*
X16958697Y30141035D01*
X16967535Y30137302D01*
X16982687Y30130902D01*
X17020041Y30115124D01*
X17179879Y30040830D01*
X17337898Y29960513D01*
X17494361Y29874050D01*
X17596100Y29813909D01*
X17745666Y29719428D01*
X17892540Y29619360D01*
X18036494Y29513933D01*
X18177300Y29403376D01*
X18314731Y29287915D01*
X18448558Y29167779D01*
X18578555Y29043195D01*
X18704494Y28914391D01*
X18826146Y28781596D01*
X18943284Y28645036D01*
X19055681Y28504940D01*
X19163109Y28361536D01*
X19265340Y28215050D01*
X19362147Y28065712D01*
X19453302Y27913749D01*
X19492536Y27844403D01*
X19577621Y27684685D01*
X19656986Y27522148D01*
X19730607Y27356878D01*
X19798458Y27188960D01*
X19860513Y27018481D01*
X19916747Y26845527D01*
X19967136Y26670184D01*
X20011652Y26492539D01*
X20050271Y26312677D01*
X20082967Y26130685D01*
X20109714Y25946649D01*
X20130488Y25760655D01*
X20145263Y25572789D01*
X20145500Y25568964D01*
X20147349Y25536976D01*
X20149146Y25502460D01*
X20150845Y25466530D01*
X20152405Y25430300D01*
X20153780Y25394885D01*
X20154928Y25361399D01*
X20155805Y25330957D01*
X20156368Y25304672D01*
X20156572Y25283660D01*
X20156594Y25245716D01*
X20164244Y25247636D01*
X20165440Y25247947D01*
X20173612Y25250232D01*
X20187374Y25254206D01*
X20206307Y25259743D01*
X20229989Y25266717D01*
X20257998Y25275001D01*
X20289913Y25284469D01*
X20325313Y25294995D01*
X20363777Y25306453D01*
X20404883Y25318716D01*
X20448210Y25331657D01*
X20493338Y25345152D01*
X20539844Y25359072D01*
X20587307Y25373293D01*
X20635307Y25387687D01*
X20683422Y25402128D01*
X20731230Y25416491D01*
X20778311Y25430648D01*
X20824244Y25444474D01*
X20868606Y25457842D01*
X20910977Y25470625D01*
X20950936Y25482699D01*
X20988061Y25493935D01*
X21021931Y25504208D01*
X21052125Y25513392D01*
X21078222Y25521360D01*
X21099800Y25527987D01*
X21116438Y25533145D01*
X21193137Y25557460D01*
X21357243Y25611792D01*
X21522865Y25669657D01*
X21688034Y25730340D01*
X21850780Y25793125D01*
X22009131Y25857297D01*
X22015110Y25859777D01*
X22033233Y25867232D01*
X22049086Y25873661D01*
X22061763Y25878702D01*
X22070354Y25881992D01*
X22073952Y25883170D01*
X22074288Y25882800D01*
X22073138Y25878242D01*
X22069217Y25868955D01*
X22062841Y25855532D01*
X22054329Y25838565D01*
X22043997Y25818647D01*
X22032161Y25796371D01*
X22019139Y25772330D01*
X22005248Y25747115D01*
X21990805Y25721321D01*
X21976127Y25695539D01*
X21961530Y25670363D01*
X21947331Y25646384D01*
X21947241Y25646235D01*
X21870316Y25524083D01*
X21788328Y25405773D01*
X21701431Y25291442D01*
X21609781Y25181227D01*
X21513532Y25075265D01*
X21412839Y24973693D01*
X21307858Y24876648D01*
X21198744Y24784267D01*
X21085650Y24696687D01*
X20968733Y24614046D01*
X20848147Y24536481D01*
X20724047Y24464128D01*
X20596588Y24397125D01*
X20465925Y24335608D01*
X20434999Y24322109D01*
X20388855Y24302712D01*
X20340845Y24283310D01*
X20292234Y24264381D01*
X20244285Y24246408D01*
X20198262Y24229869D01*
X20155428Y24215245D01*
X20117047Y24203017D01*
X20115546Y24202559D01*
X20099596Y24197383D01*
X20088917Y24193153D01*
X20082605Y24189451D01*
X20079755Y24185862D01*
X20079752Y24185854D01*
X20078709Y24180990D01*
X20077066Y24170673D01*
X20074948Y24155805D01*
X20072478Y24137287D01*
X20069781Y24116022D01*
X20066980Y24092911D01*
X20065268Y24078633D01*
X20061720Y24049871D01*
X20057926Y24020016D01*
X20054128Y23990930D01*
X20050567Y23964477D01*
X20047485Y23942520D01*
X20046940Y23938742D01*
X20044172Y23919346D01*
X20041776Y23902170D01*
X20039891Y23888242D01*
X20038656Y23878590D01*
X20038211Y23874242D01*
X20038310Y23873306D01*
X20041107Y23871366D01*
X20048600Y23872253D01*
X20051409Y23872906D01*
X20062345Y23875718D01*
X20078802Y23880175D01*
X20100348Y23886151D01*
X20126549Y23893520D01*
X20156972Y23902156D01*
X20191184Y23911933D01*
X20228751Y23922725D01*
X20269241Y23934406D01*
X20312220Y23946850D01*
X20357255Y23959931D01*
X20403912Y23973524D01*
X20451758Y23987501D01*
X20500361Y24001738D01*
X20549286Y24016108D01*
X20598101Y24030486D01*
X20646371Y24044745D01*
X20693665Y24058759D01*
X20739549Y24072403D01*
X20783588Y24085550D01*
X20825351Y24098075D01*
X20905810Y24122413D01*
X20999051Y24151044D01*
X21086706Y24178483D01*
X21169132Y24204874D01*
X21246684Y24230357D01*
X21319720Y24255073D01*
X21388596Y24279162D01*
X21453669Y24302767D01*
X21515296Y24326028D01*
X21573833Y24349087D01*
X21629637Y24372083D01*
X21683064Y24395159D01*
X21734472Y24418455D01*
X21784216Y24442113D01*
X21832655Y24466274D01*
X21880143Y24491078D01*
X21927038Y24516666D01*
X21973697Y24543181D01*
X22020476Y24570762D01*
X22078087Y24606045D01*
X22205699Y24689580D01*
X22330358Y24778729D01*
X22451954Y24873395D01*
X22570377Y24973478D01*
X22685519Y25078881D01*
X22797270Y25189504D01*
X22905520Y25305251D01*
X23010161Y25426021D01*
X23111082Y25551717D01*
X23123740Y25568066D01*
X23137161Y25585332D01*
X23149102Y25600624D01*
X23158955Y25613167D01*
X23166117Y25622188D01*
X23169979Y25626912D01*
X23171229Y25628137D01*
X23172361Y25627851D01*
X23171996Y25624008D01*
X23170003Y25616114D01*
X23166249Y25603675D01*
X23160603Y25586198D01*
X23152933Y25563190D01*
X23137499Y25517856D01*
X23067660Y25324745D01*
X22991726Y25133128D01*
X22909880Y24943401D01*
X22822305Y24755957D01*
X22729184Y24571192D01*
X22630699Y24389500D01*
X22527032Y24211275D01*
X22514998Y24191367D01*
X22412816Y24028269D01*
X22306195Y23868332D01*
X22195356Y23711805D01*
X22080521Y23558938D01*
X21961911Y23409979D01*
X21839749Y23265177D01*
X21714256Y23124781D01*
X21585652Y22989039D01*
X21454161Y22858200D01*
X21320003Y22732513D01*
X21183400Y22612226D01*
X21044574Y22497590D01*
X20903746Y22388851D01*
X20872399Y22365639D01*
X20743921Y22273963D01*
X20616460Y22188605D01*
X20490013Y22109564D01*
X20364583Y22036840D01*
X20240169Y21970433D01*
X20116771Y21910344D01*
X19994389Y21856572D01*
X19873025Y21809118D01*
X19752677Y21767982D01*
X19633347Y21733164D01*
X19515034Y21704664D01*
X19514403Y21704528D01*
X19495231Y21700429D01*
X19471720Y21695439D01*
X19444578Y21689706D01*
X19414511Y21683377D01*
X19382226Y21676599D01*
X19348429Y21669520D01*
X19313828Y21662288D01*
X19279129Y21655048D01*
X19245039Y21647949D01*
X19212264Y21641139D01*
X19181511Y21634763D01*
X19153487Y21628970D01*
X19128898Y21623907D01*
X19108451Y21619721D01*
X19092853Y21616560D01*
X19082811Y21614570D01*
X19063361Y21610822D01*
X19015624Y21546334D01*
X19001831Y21527799D01*
X18896486Y21392286D01*
X18786164Y21260713D01*
X18671064Y21133295D01*
X18551388Y21010248D01*
X18427337Y20891786D01*
X18355085Y20827741D01*
X18299111Y20778125D01*
X18298017Y20777192D01*
X18176295Y20677192D01*
X18049048Y20580113D01*
X17916512Y20486090D01*
X17778920Y20395256D01*
X17636509Y20307746D01*
X17489512Y20223694D01*
X17338165Y20143235D01*
X17182702Y20066503D01*
X17023359Y19993633D01*
X16860370Y19924757D01*
X16693970Y19860012D01*
X16640949Y19840528D01*
X16490109Y19788218D01*
X16339426Y19740664D01*
X16188104Y19697674D01*
X16035345Y19659055D01*
X15880354Y19624613D01*
X15722333Y19594154D01*
X15560486Y19567485D01*
X15394016Y19544413D01*
X15382716Y19543002D01*
X15316284Y19535240D01*
X15245131Y19527751D01*
X15170481Y19520628D01*
X15093560Y19513962D01*
X15015593Y19507846D01*
X14937805Y19502371D01*
X14861420Y19497630D01*
X14787665Y19493715D01*
X14717763Y19490717D01*
X14652940Y19488730D01*
X14645518Y19488582D01*
X14622671Y19488338D01*
X14594927Y19488272D01*
X14563364Y19488368D01*
X14529059Y19488613D01*
X14493088Y19488992D01*
X14456527Y19489493D01*
X14420453Y19490100D01*
X14385943Y19490799D01*
X14354074Y19491577D01*
X14325921Y19492419D01*
X14302562Y19493311D01*
X14260544Y19495322D01*
X14066937Y19508450D01*
X13873685Y19527920D01*
X13680709Y19553743D01*
X13487928Y19585929D01*
X13295265Y19624492D01*
X13102638Y19669443D01*
X13098892Y19670381D01*
X12993882Y19698041D01*
X12886344Y19728993D01*
X12775880Y19763370D01*
X12662088Y19801304D01*
X12544571Y19842928D01*
X12422930Y19888375D01*
X12296765Y19937778D01*
X12276398Y19945983D01*
X12171828Y19989995D01*
X12071781Y20035331D01*
X11976568Y20081829D01*
X11886500Y20129324D01*
X11801889Y20177655D01*
X11723045Y20226657D01*
X11650281Y20276170D01*
X11634952Y20287251D01*
X11568445Y20338895D01*
X11507156Y20392784D01*
X11450207Y20449785D01*
X11396721Y20510765D01*
X11345820Y20576588D01*
X11335865Y20590345D01*
X11322721Y20608996D01*
X11312129Y20624943D01*
X11303236Y20639624D01*
X11295191Y20654474D01*
X11287139Y20670930D01*
X11278229Y20690426D01*
X11275493Y20696604D01*
X11252713Y20753814D01*
X11233542Y20812845D01*
X11228185Y20833888D01*
X12677065Y20833888D01*
X12677084Y20825136D01*
X12677343Y20810376D01*
X12678091Y20799652D01*
X12679565Y20791353D01*
X12682003Y20783870D01*
X12685640Y20775593D01*
X12690222Y20767086D01*
X12699238Y20753473D01*
X12708762Y20741746D01*
X12714323Y20735942D01*
X12720833Y20729805D01*
X12727640Y20724518D01*
X12735411Y20719851D01*
X12744809Y20715575D01*
X12756501Y20711461D01*
X12771151Y20707281D01*
X12789424Y20702804D01*
X12811986Y20697803D01*
X12839501Y20692047D01*
X12872635Y20685309D01*
X12900007Y20679706D01*
X12926261Y20674194D01*
X12950434Y20668983D01*
X12971686Y20664261D01*
X12989178Y20660214D01*
X13002070Y20657028D01*
X13009523Y20654891D01*
X13031488Y20645824D01*
X13063201Y20627715D01*
X13092508Y20604995D01*
X13117891Y20578730D01*
X13123645Y20571558D01*
X13130379Y20562325D01*
X13136645Y20552454D01*
X13142692Y20541333D01*
X13148768Y20528350D01*
X13155121Y20512892D01*
X13162001Y20494346D01*
X13169656Y20472100D01*
X13178334Y20445542D01*
X13188284Y20414059D01*
X13199755Y20377038D01*
X13205569Y20358262D01*
X13214261Y20330583D01*
X13222466Y20304916D01*
X13229955Y20281944D01*
X13236503Y20262355D01*
X13241881Y20246833D01*
X13245863Y20236066D01*
X13248220Y20230740D01*
X13253743Y20223045D01*
X13267738Y20208742D01*
X13284435Y20196303D01*
X13301475Y20187635D01*
X13307895Y20185508D01*
X13327647Y20182014D01*
X13350484Y20182270D01*
X13377471Y20186258D01*
X13389422Y20189156D01*
X13403377Y20194896D01*
X13417311Y20204072D01*
X13435712Y20218638D01*
X13453724Y20235121D01*
X13467387Y20250933D01*
X13477551Y20267084D01*
X13485066Y20284585D01*
X13485533Y20286017D01*
X13488022Y20295514D01*
X13491209Y20309801D01*
X13494840Y20327644D01*
X13498661Y20347812D01*
X13502421Y20369072D01*
X13503141Y20373270D01*
X13507025Y20394931D01*
X13510993Y20415645D01*
X13514772Y20434067D01*
X13518089Y20448855D01*
X13520669Y20458666D01*
X13526311Y20475064D01*
X13543885Y20512310D01*
X13567128Y20546697D01*
X13595888Y20577984D01*
X13605603Y20586915D01*
X13621711Y20600463D01*
X13637800Y20612032D01*
X13654778Y20622029D01*
X13673555Y20630862D01*
X13695038Y20638938D01*
X13720136Y20646663D01*
X13749757Y20654447D01*
X13784810Y20662695D01*
X13799620Y20666049D01*
X13822941Y20671337D01*
X13845032Y20676354D01*
X13864638Y20680814D01*
X13880508Y20684434D01*
X13891388Y20686928D01*
X13913466Y20693142D01*
X13943796Y20706265D01*
X13969459Y20723587D01*
X13990321Y20745012D01*
X14006250Y20770443D01*
X14012493Y20784601D01*
X14019025Y20807390D01*
X14019867Y20827741D01*
X14015013Y20845980D01*
X14004456Y20862432D01*
X14001477Y20865796D01*
X13994134Y20872853D01*
X13985849Y20878610D01*
X13975548Y20883529D01*
X13962155Y20888071D01*
X13944592Y20892697D01*
X13921786Y20897869D01*
X13886522Y20906214D01*
X13835465Y20921290D01*
X13789100Y20939121D01*
X13746589Y20960142D01*
X13707092Y20984786D01*
X13669772Y21013486D01*
X13633789Y21046674D01*
X13599194Y21084390D01*
X13566683Y21127736D01*
X13539429Y21173849D01*
X13516893Y21223542D01*
X13514729Y21229326D01*
X13509508Y21244673D01*
X13503355Y21264142D01*
X13496690Y21286352D01*
X13489931Y21309923D01*
X13483499Y21333472D01*
X13477712Y21354989D01*
X13470718Y21379841D01*
X13464563Y21399898D01*
X13458916Y21416001D01*
X13453448Y21428989D01*
X13447832Y21439703D01*
X13441736Y21448980D01*
X13434834Y21457663D01*
X13431664Y21461185D01*
X13414671Y21476142D01*
X13394284Y21489265D01*
X13372256Y21499691D01*
X13350339Y21506562D01*
X13330286Y21509014D01*
X13314532Y21506633D01*
X13296068Y21498966D01*
X13277664Y21486895D01*
X13260321Y21471330D01*
X13245038Y21453184D01*
X13232816Y21433366D01*
X13224656Y21412789D01*
X13224469Y21412097D01*
X13222634Y21404186D01*
X13219832Y21390910D01*
X13216221Y21373074D01*
X13211962Y21351486D01*
X13207213Y21326950D01*
X13202134Y21300273D01*
X13196883Y21272260D01*
X13195970Y21267359D01*
X13190754Y21239691D01*
X13185738Y21213623D01*
X13181080Y21189936D01*
X13176938Y21169415D01*
X13173469Y21152841D01*
X13170831Y21140998D01*
X13169181Y21134669D01*
X13161333Y21115131D01*
X13144489Y21086100D01*
X13122867Y21059674D01*
X13097398Y21036775D01*
X13069012Y21018328D01*
X13038641Y21005256D01*
X13036890Y21004761D01*
X13028128Y21002820D01*
X13014094Y21000103D01*
X12995558Y20996745D01*
X12973292Y20992880D01*
X12948064Y20988643D01*
X12920645Y20984169D01*
X12891807Y20979592D01*
X12866151Y20975563D01*
X12837728Y20971034D01*
X12814471Y20967216D01*
X12795723Y20963978D01*
X12780824Y20961186D01*
X12769117Y20958709D01*
X12759941Y20956415D01*
X12752640Y20954170D01*
X12746554Y20951843D01*
X12741025Y20949302D01*
X12740741Y20949161D01*
X12718499Y20934653D01*
X12699791Y20915283D01*
X12685577Y20892044D01*
X12683775Y20888112D01*
X12680732Y20880423D01*
X12678775Y20872763D01*
X12677668Y20863525D01*
X12677176Y20851102D01*
X12677065Y20833888D01*
X11228185Y20833888D01*
X11218519Y20871858D01*
X11208184Y20929017D01*
X11202662Y20983640D01*
X11201009Y21048693D01*
X11204119Y21117798D01*
X11211970Y21190858D01*
X11224541Y21267780D01*
X11241814Y21348467D01*
X11263765Y21432825D01*
X11290376Y21520758D01*
X11321625Y21612172D01*
X11357492Y21706971D01*
X11397956Y21805060D01*
X11410773Y21834706D01*
X11443051Y21907397D01*
X11476271Y21979566D01*
X11510035Y22050413D01*
X11543943Y22119136D01*
X11577595Y22184936D01*
X11610594Y22247012D01*
X11642540Y22304563D01*
X11673033Y22356789D01*
X11697630Y22396881D01*
X11755195Y22484858D01*
X11816989Y22571553D01*
X11883245Y22657220D01*
X11954194Y22742113D01*
X12030070Y22826485D01*
X12111104Y22910590D01*
X12197529Y22994681D01*
X12289578Y23079011D01*
X12387483Y23163835D01*
X12491476Y23249405D01*
X12497178Y23253979D01*
X12559265Y23303122D01*
X12622441Y23351888D01*
X12686983Y23400458D01*
X12753170Y23449010D01*
X12821280Y23497724D01*
X12891590Y23546779D01*
X12964379Y23596354D01*
X13039925Y23646629D01*
X13118506Y23697782D01*
X13200400Y23749993D01*
X13285885Y23803442D01*
X13375238Y23858307D01*
X13468739Y23914769D01*
X13566665Y23973005D01*
X13669294Y24033196D01*
X13776905Y24095520D01*
X13889774Y24160157D01*
X14008181Y24227287D01*
X14017150Y24232349D01*
X14040971Y24245798D01*
X14062778Y24258115D01*
X14081976Y24268967D01*
X14097973Y24278016D01*
X14110175Y24284927D01*
X14117990Y24289365D01*
X14120823Y24290995D01*
X14121171Y24293037D01*
X14122045Y24300521D01*
X14123300Y24312504D01*
X14124829Y24327940D01*
X14126522Y24345783D01*
X14138505Y24456919D01*
X14156744Y24585812D01*
X14179833Y24715188D01*
X14181396Y24723099D01*
X14193290Y24780428D01*
X14205563Y24834112D01*
X14218604Y24885472D01*
X14232802Y24935827D01*
X14248546Y24986499D01*
X14266225Y25038807D01*
X14286228Y25094072D01*
X14308942Y25153615D01*
X14322761Y25189106D01*
X14345464Y25247522D01*
X14366290Y25301298D01*
X14385484Y25351103D01*
X14403289Y25397606D01*
X14419949Y25441478D01*
X14435707Y25483388D01*
X14450807Y25524004D01*
X14465492Y25563998D01*
X14480007Y25604037D01*
X14494595Y25644793D01*
X14509498Y25686933D01*
X14524962Y25731129D01*
X14541230Y25778049D01*
X14558544Y25828362D01*
X14577149Y25882739D01*
X14597289Y25941849D01*
X14619206Y26006362D01*
X14646608Y26087528D01*
X14673982Y26169677D01*
X14699178Y26246596D01*
X14722286Y26318661D01*
X14743392Y26386248D01*
X14762586Y26449732D01*
X14779955Y26509490D01*
X14795587Y26565896D01*
X14809571Y26619328D01*
X14821994Y26670160D01*
X14832944Y26718768D01*
X14842510Y26765528D01*
X14850780Y26810816D01*
X14857841Y26855008D01*
X14863782Y26898478D01*
X14868690Y26941604D01*
X14872654Y26984760D01*
X14875762Y27028323D01*
X14878102Y27072668D01*
X14879762Y27118171D01*
X14880666Y27237141D01*
X14875714Y27367124D01*
X14864520Y27496776D01*
X14847059Y27626285D01*
X14823304Y27755840D01*
X14793230Y27885627D01*
X14756812Y28015835D01*
X14752275Y28030776D01*
X14745644Y28052649D01*
X14740649Y28069313D01*
X14737164Y28081354D01*
X14735059Y28089361D01*
X14734209Y28093920D01*
X14734483Y28095619D01*
X14735755Y28095046D01*
X14737896Y28092787D01*
X14740779Y28089431D01*
X14741800Y28088219D01*
X14748136Y28080112D01*
X14757435Y28067631D01*
X14769176Y28051510D01*
X14782841Y28032487D01*
X14797910Y28011296D01*
X14813864Y27988674D01*
X14830183Y27965356D01*
X14846348Y27942079D01*
X14861840Y27919577D01*
X14876139Y27898586D01*
X14888725Y27879844D01*
X14950414Y27784668D01*
X15039738Y27637389D01*
X15123688Y27487069D01*
X15202152Y27333972D01*
X15275022Y27178360D01*
X15342188Y27020495D01*
X15403539Y26860641D01*
X15458966Y26699059D01*
X15508358Y26536013D01*
X15551607Y26371766D01*
X15588601Y26206579D01*
X15604750Y26124222D01*
X15624563Y26010777D01*
X15640821Y25900339D01*
X15653650Y25791637D01*
X15663175Y25683400D01*
X15669520Y25574357D01*
X15672813Y25463238D01*
X15673176Y25348770D01*
X15671936Y25212190D01*
X15692805Y25225580D01*
X15721760Y25244203D01*
X15843685Y25323647D01*
X15959917Y25401108D01*
X16070711Y25476770D01*
X16176323Y25550817D01*
X16277007Y25623432D01*
X16373019Y25694799D01*
X16464613Y25765100D01*
X16552046Y25834520D01*
X16635571Y25903241D01*
X16686074Y25945566D01*
X16708202Y25993563D01*
X16743985Y26074156D01*
X16796517Y26205238D01*
X16843110Y26338600D01*
X16883717Y26474067D01*
X16918293Y26611466D01*
X16946790Y26750621D01*
X16969161Y26891356D01*
X16985361Y27033497D01*
X16990275Y27093970D01*
X16996770Y27225850D01*
X16997758Y27359517D01*
X16993294Y27494067D01*
X16983438Y27628597D01*
X16968246Y27762204D01*
X16947777Y27893984D01*
X16922088Y28023035D01*
X16921038Y28027817D01*
X16918721Y28038869D01*
X16917269Y28046553D01*
X16916962Y28049433D01*
X16917282Y28049121D01*
X16920359Y28044863D01*
X16926268Y28036174D01*
X16934545Y28023767D01*
X16944726Y28008354D01*
X16956346Y27990645D01*
X16968942Y27971355D01*
X16982049Y27951193D01*
X16995202Y27930873D01*
X17007939Y27911107D01*
X17019795Y27892605D01*
X17030305Y27876080D01*
X17039005Y27862245D01*
X17119685Y27729069D01*
X17208540Y27573074D01*
X17293294Y27414057D01*
X17373401Y27253082D01*
X17448318Y27091210D01*
X17517498Y26929504D01*
X17519337Y26925019D01*
X17527193Y26905862D01*
X17534392Y26888311D01*
X17540492Y26873444D01*
X17545049Y26862340D01*
X17547620Y26856079D01*
X17552157Y26845050D01*
X17575487Y26880077D01*
X17626604Y26960941D01*
X17676548Y27049558D01*
X17721750Y27140766D01*
X17762384Y27235006D01*
X17798626Y27332715D01*
X17830652Y27434334D01*
X17858635Y27540302D01*
X17882752Y27651058D01*
X17888120Y27679261D01*
X17905093Y27784673D01*
X17917010Y27889770D01*
X17924023Y27996142D01*
X17926285Y28105375D01*
X17926260Y28117139D01*
X17925603Y28171035D01*
X17923962Y28220766D01*
X17921214Y28268141D01*
X17917234Y28314967D01*
X17911899Y28363054D01*
X17905084Y28414210D01*
X17899172Y28453027D01*
X17878079Y28563575D01*
X17851064Y28671800D01*
X17818199Y28777594D01*
X17779554Y28880845D01*
X17735202Y28981442D01*
X17685215Y29079276D01*
X17629664Y29174234D01*
X17568621Y29266208D01*
X17502159Y29355086D01*
X17430349Y29440758D01*
X17353262Y29523112D01*
X17270972Y29602040D01*
X17183549Y29677429D01*
X17091065Y29749169D01*
X16993593Y29817151D01*
X16916990Y29865747D01*
X16830999Y29916062D01*
X16742425Y29963822D01*
X16653160Y30008010D01*
X16565092Y30047608D01*
X16536565Y30059751D01*
X16494696Y30057600D01*
X16374752Y30049595D01*
X16219221Y30033833D01*
X16063306Y30012059D01*
X15907617Y29984395D01*
X15752762Y29950965D01*
X15599352Y29911890D01*
X15447994Y29867292D01*
X15299300Y29817296D01*
X15248588Y29798775D01*
X15099862Y29740095D01*
X14952860Y29675596D01*
X14808101Y29605547D01*
X14666103Y29530218D01*
X14527382Y29449881D01*
X14392457Y29364805D01*
X14261844Y29275260D01*
X14253531Y29269348D01*
X14240429Y29260157D01*
X14229716Y29252804D01*
X14222325Y29247925D01*
X14219189Y29246158D01*
X14219063Y29246281D01*
X14220287Y29250048D01*
X14224261Y29258596D01*
X14230642Y29271280D01*
X14239087Y29287455D01*
X14249250Y29306477D01*
X14260790Y29327702D01*
X14273362Y29350485D01*
X14286622Y29374182D01*
X14300228Y29398148D01*
X14306377Y29408863D01*
X14376546Y29526245D01*
X14449565Y29639457D01*
X14526136Y29749474D01*
X14606961Y29857271D01*
X14692742Y29963824D01*
X14784181Y30070106D01*
X14798581Y30085936D01*
X14816928Y30105482D01*
X14838508Y30128026D01*
X14841299Y30130902D01*
X16352033Y30130902D01*
X16353633Y30129302D01*
X16355233Y30130902D01*
X16353633Y30132502D01*
X16352033Y30130902D01*
X14841299Y30130902D01*
X14844405Y30134102D01*
X16342434Y30134102D01*
X16344034Y30132502D01*
X16345634Y30134102D01*
X16344034Y30135702D01*
X16342434Y30134102D01*
X14844405Y30134102D01*
X14847511Y30137302D01*
X16332834Y30137302D01*
X16334434Y30135702D01*
X16336034Y30137302D01*
X16334434Y30138901D01*
X16332834Y30137302D01*
X14847511Y30137302D01*
X14850200Y30140072D01*
X16323801Y30140072D01*
X16326435Y30138901D01*
X16328129Y30139132D01*
X16328568Y30141035D01*
X16328099Y30141418D01*
X16324302Y30141035D01*
X16323801Y30140072D01*
X14850200Y30140072D01*
X14853306Y30143272D01*
X16314202Y30143272D01*
X16316835Y30142101D01*
X16318529Y30142332D01*
X16318969Y30144234D01*
X16318500Y30144617D01*
X16314702Y30144234D01*
X16314202Y30143272D01*
X14853306Y30143272D01*
X14862626Y30152874D01*
X14866717Y30157043D01*
X16274723Y30157043D01*
X16278540Y30154899D01*
X16286437Y30151701D01*
X16292551Y30149565D01*
X16301631Y30146856D01*
X16307236Y30145797D01*
X16307752Y30146358D01*
X16303934Y30148502D01*
X16296037Y30151701D01*
X16289923Y30153836D01*
X16280844Y30156545D01*
X16275238Y30157604D01*
X16274723Y30157043D01*
X14866717Y30157043D01*
X14868904Y30159271D01*
X16263005Y30159271D01*
X16265639Y30158100D01*
X16267333Y30158331D01*
X16267772Y30160233D01*
X16267303Y30160616D01*
X16263505Y30160233D01*
X16263005Y30159271D01*
X14868904Y30159271D01*
X14872044Y30162471D01*
X16253405Y30162471D01*
X16256039Y30161300D01*
X16257733Y30161531D01*
X16258172Y30163433D01*
X16257703Y30163816D01*
X16253906Y30163433D01*
X16253405Y30162471D01*
X14872044Y30162471D01*
X14879251Y30169815D01*
X16231751Y30169815D01*
X16235241Y30167700D01*
X16239592Y30166177D01*
X16246440Y30164950D01*
X16248330Y30165585D01*
X16244840Y30167700D01*
X16240489Y30169222D01*
X16233641Y30170450D01*
X16231751Y30169815D01*
X14879251Y30169815D01*
X14881464Y30172070D01*
X16221407Y30172070D01*
X16224041Y30170899D01*
X16225735Y30171130D01*
X16226174Y30173033D01*
X16225705Y30173416D01*
X16221908Y30173033D01*
X16221407Y30172070D01*
X14881464Y30172070D01*
X14885352Y30176032D01*
X16208909Y30176032D01*
X16208958Y30174940D01*
X16213109Y30174352D01*
X16216254Y30174864D01*
X16215042Y30176285D01*
X16213191Y30176796D01*
X16208909Y30176032D01*
X14885352Y30176032D01*
X14887745Y30178470D01*
X16199009Y30178470D01*
X16201643Y30177299D01*
X16203337Y30177530D01*
X16203776Y30179432D01*
X16203307Y30179815D01*
X16199509Y30179432D01*
X16199009Y30178470D01*
X14887745Y30178470D01*
X14888589Y30179330D01*
X14890907Y30181670D01*
X16189410Y30181670D01*
X16192043Y30180499D01*
X16193737Y30180730D01*
X16194176Y30182632D01*
X16193708Y30183015D01*
X16189910Y30182632D01*
X16189410Y30181670D01*
X14890907Y30181670D01*
X14894076Y30184869D01*
X16176610Y30184869D01*
X16179244Y30183699D01*
X16180938Y30183930D01*
X16181377Y30185832D01*
X16180908Y30186215D01*
X16177111Y30185832D01*
X16176610Y30184869D01*
X14894076Y30184869D01*
X14897671Y30188498D01*
X16166445Y30188498D01*
X16168045Y30186898D01*
X16169645Y30188498D01*
X16168045Y30190098D01*
X16166445Y30188498D01*
X14897671Y30188498D01*
X14915701Y30206699D01*
X14943270Y30234288D01*
X14970600Y30261401D01*
X14984328Y30274893D01*
X16611217Y30274893D01*
X16612817Y30273293D01*
X16614417Y30274893D01*
X16612817Y30276493D01*
X16611217Y30274893D01*
X14984328Y30274893D01*
X14996997Y30287344D01*
X15021768Y30311422D01*
X15044217Y30332941D01*
X15063652Y30351205D01*
X15079377Y30365520D01*
X15079378Y30365520D01*
X15093078Y30377937D01*
X15104593Y30388869D01*
X15113257Y30397640D01*
X15118406Y30403579D01*
X15119375Y30406011D01*
X15119103Y30406088D01*
X15113882Y30407047D01*
X15103226Y30408731D01*
X15087920Y30411030D01*
X15068749Y30413832D01*
X15046500Y30417026D01*
X15021957Y30420503D01*
X14995906Y30424151D01*
X14969133Y30427860D01*
X14942423Y30431519D01*
X14916562Y30435016D01*
X14892334Y30438243D01*
X14870527Y30441087D01*
X14853418Y30443263D01*
X14799947Y30449801D01*
X14743071Y30456399D01*
X14684179Y30462915D01*
X14624661Y30469203D01*
X14565909Y30475118D01*
X14509314Y30480516D01*
X14456266Y30485252D01*
X14408156Y30489182D01*
X14406770Y30489288D01*
X14379670Y30491413D01*
X14358565Y30493183D01*
X14343082Y30494680D01*
X14332848Y30495986D01*
X14327489Y30497182D01*
X14326634Y30498351D01*
X14329909Y30499573D01*
X14336942Y30500931D01*
X14347359Y30502507D01*
X14361671Y30504454D01*
X14391582Y30508097D01*
X14426371Y30511897D01*
X14465066Y30515769D01*
X14506697Y30519628D01*
X14550294Y30523388D01*
X14594887Y30526964D01*
X14639505Y30530270D01*
X14683178Y30533221D01*
X14687568Y30533485D01*
X15275558Y30533485D01*
X15280101Y30532982D01*
X15284502Y30533428D01*
X15284100Y30534596D01*
X15282652Y30535018D01*
X15276101Y30534596D01*
X15275558Y30533485D01*
X14687568Y30533485D01*
X14724936Y30535732D01*
X14733520Y30536185D01*
X14764065Y30537487D01*
X14799495Y30538615D01*
X14838683Y30539559D01*
X14880500Y30540309D01*
X14923820Y30540857D01*
X14967513Y30541192D01*
X15010452Y30541305D01*
X15051510Y30541186D01*
X15089557Y30540827D01*
X15123466Y30540216D01*
X15152109Y30539346D01*
X15164897Y30538866D01*
X15191358Y30538037D01*
X15212476Y30537634D01*
X15227991Y30537658D01*
X15237643Y30538109D01*
X15241170Y30538988D01*
X15242910Y30540181D01*
X15249556Y30541545D01*
X15259251Y30542076D01*
X15276321Y30542902D01*
X15303003Y30546396D01*
X15332695Y30552272D01*
X15363901Y30560142D01*
X15395123Y30569619D01*
X15424867Y30580317D01*
X15451636Y30591847D01*
X15484892Y30609614D01*
X15524985Y30636470D01*
X15561899Y30667409D01*
X15594854Y30701686D01*
X15623067Y30738552D01*
X15645756Y30777261D01*
X15652311Y30792069D01*
X15659637Y30811631D01*
X15666720Y30833158D01*
X15672833Y30854437D01*
X15677251Y30873255D01*
X15679146Y30885378D01*
X15681088Y30908121D01*
X15681876Y30934271D01*
X15681543Y30962083D01*
X15680122Y30989812D01*
X15677646Y31015714D01*
X15674148Y31038045D01*
X15664072Y31081186D01*
X15646873Y31135070D01*
X15624941Y31185940D01*
X15597945Y31234378D01*
X15565550Y31280964D01*
X15527423Y31326281D01*
X15483231Y31370909D01*
X15475574Y31378018D01*
X15418320Y31426210D01*
X15356918Y31469564D01*
X15291449Y31508040D01*
X15221993Y31541597D01*
X15148633Y31570198D01*
X15071448Y31593802D01*
X14990519Y31612368D01*
X14948922Y31620427D01*
X15014517Y31618878D01*
X15023790Y31618635D01*
X15130605Y31612375D01*
X15236641Y31599783D01*
X15341784Y31580888D01*
X15445923Y31555722D01*
X15548945Y31524314D01*
X15650737Y31486695D01*
X15751187Y31442896D01*
X15850183Y31392946D01*
X15905029Y31362111D01*
X15983113Y31313365D01*
X16056186Y31261479D01*
X16124811Y31205989D01*
X16189548Y31146430D01*
X16250960Y31082337D01*
X16309608Y31013247D01*
X16309911Y31012868D01*
X16325758Y30992266D01*
X16343731Y30967602D01*
X16362827Y30940355D01*
X16382045Y30912003D01*
X16400381Y30884025D01*
X16416834Y30857898D01*
X16430401Y30835100D01*
X16468581Y30763644D01*
X16508068Y30678088D01*
X16542729Y30589413D01*
X16560910Y30533428D01*
X16572248Y30498516D01*
X16596308Y30406295D01*
X16614591Y30313648D01*
X16615454Y30308538D01*
X16618249Y30293431D01*
X16620873Y30281227D01*
X16622574Y30274893D01*
X16623064Y30273067D01*
X16624560Y30270093D01*
G37*
%TD*%
M02*
