%TF.GenerationSoftware,KiCad,Pcbnew,(6.0.0-rc1-323-gb9e66d8b98)*%
%TF.CreationDate,2021-12-20T00:28:19+08:00*%
%TF.ProjectId,XSense,5853656e-7365-42e6-9b69-6361645f7063,rev?*%
%TF.SameCoordinates,PXb340ac0PY76b1be0*%
%TF.FileFunction,Copper,L4,Bot*%
%TF.FilePolarity,Positive*%
%FSLAX46Y46*%
G04 Gerber Fmt 4.6, Leading zero omitted, Abs format (unit mm)*
G04 Created by KiCad (PCBNEW (6.0.0-rc1-323-gb9e66d8b98)) date 2021-12-20 00:28:19*
%MOMM*%
%LPD*%
G01*
G04 APERTURE LIST*
G04 Aperture macros list*
%AMRoundRect*
0 Rectangle with rounded corners*
0 $1 Rounding radius*
0 $2 $3 $4 $5 $6 $7 $8 $9 X,Y pos of 4 corners*
0 Add a 4 corners polygon primitive as box body*
4,1,4,$2,$3,$4,$5,$6,$7,$8,$9,$2,$3,0*
0 Add four circle primitives for the rounded corners*
1,1,$1+$1,$2,$3*
1,1,$1+$1,$4,$5*
1,1,$1+$1,$6,$7*
1,1,$1+$1,$8,$9*
0 Add four rect primitives between the rounded corners*
20,1,$1+$1,$2,$3,$4,$5,0*
20,1,$1+$1,$4,$5,$6,$7,0*
20,1,$1+$1,$6,$7,$8,$9,0*
20,1,$1+$1,$8,$9,$2,$3,0*%
G04 Aperture macros list end*
%TA.AperFunction,Profile*%
%ADD10C,0.500000*%
%TD*%
%TA.AperFunction,Profile*%
%ADD11C,0.100000*%
%TD*%
%TA.AperFunction,ComponentPad*%
%ADD12R,1.350000X1.350000*%
%TD*%
%TA.AperFunction,ComponentPad*%
%ADD13O,1.350000X1.350000*%
%TD*%
%TA.AperFunction,ComponentPad*%
%ADD14O,1.000000X2.100000*%
%TD*%
%TA.AperFunction,ComponentPad*%
%ADD15O,1.000000X1.600000*%
%TD*%
%TA.AperFunction,SMDPad,CuDef*%
%ADD16R,1.500000X1.000000*%
%TD*%
%TA.AperFunction,SMDPad,CuDef*%
%ADD17RoundRect,0.050000X-0.125000X-0.950000X0.125000X-0.950000X0.125000X0.950000X-0.125000X0.950000X0*%
%TD*%
%TA.AperFunction,ViaPad*%
%ADD18C,0.508000*%
%TD*%
%TA.AperFunction,ViaPad*%
%ADD19C,0.609600*%
%TD*%
%TA.AperFunction,Conductor*%
%ADD20C,0.101600*%
%TD*%
%TA.AperFunction,Conductor*%
%ADD21C,0.254000*%
%TD*%
%TA.AperFunction,Conductor*%
%ADD22C,0.381000*%
%TD*%
%TA.AperFunction,Conductor*%
%ADD23C,0.508000*%
%TD*%
G04 APERTURE END LIST*
D10*
X582946Y2477666D02*
G75*
G03*
X3040002Y4722I2457054J-15839D01*
G01*
X3054640Y46925855D02*
X28951133Y46920051D01*
X31408189Y44447107D02*
X31397105Y2460002D01*
D11*
X4236974Y2650000D02*
G75*
G03*
X4236974Y2650000I-1100000J0D01*
G01*
D10*
X28924161Y2946D02*
G75*
G03*
X31397105Y2460002I15839J2457054D01*
G01*
X3054640Y46925855D02*
G75*
G03*
X581696Y44468799I-15842J-2457051D01*
G01*
D11*
X30051135Y44462946D02*
G75*
G03*
X30051135Y44462946I-1100000J0D01*
G01*
X30040000Y2662946D02*
G75*
G03*
X30040000Y2662946I-1100000J0D01*
G01*
X4138798Y44468804D02*
G75*
G03*
X4138798Y44468804I-1100000J0D01*
G01*
D10*
X582946Y2490000D02*
X581696Y44468799D01*
X31408189Y44447107D02*
G75*
G03*
X28951133Y46920051I-2457054J15839D01*
G01*
X28924161Y2946D02*
X3030000Y4722D01*
D12*
%TO.P,J2,1,Pin_1*%
%TO.N,/GPIO22*%
X28150000Y41080000D03*
D13*
%TO.P,J2,2,Pin_2*%
%TO.N,/GPIO26*%
X30150000Y41080000D03*
%TO.P,J2,3,Pin_3*%
%TO.N,/GPIO13*%
X28150000Y39080000D03*
%TO.P,J2,4,Pin_4*%
%TO.N,/GPIO14*%
X30150000Y39080000D03*
%TO.P,J2,5,Pin_5*%
%TO.N,/GPIO15*%
X28150000Y37080000D03*
%TO.P,J2,6,Pin_6*%
%TO.N,+3V3*%
X30150000Y37080000D03*
%TO.P,J2,7,Pin_7*%
%TO.N,GND*%
X28150000Y35080000D03*
%TO.P,J2,8*%
%TO.N,N/C*%
X30150000Y35080000D03*
%TD*%
D14*
%TO.P,U3,S1,SHIELD*%
%TO.N,GND*%
X19814000Y5645000D03*
X11174000Y5645000D03*
D15*
X19814000Y1465000D03*
X11174000Y1465000D03*
%TD*%
D16*
%TO.P,D7,1,VDD*%
%TO.N,+3V3*%
X17940000Y3960000D03*
%TO.P,D7,2,DOUT*%
%TO.N,unconnected-(D7-Pad2)*%
X17940000Y760000D03*
%TO.P,D7,3,VSS*%
%TO.N,GND*%
X13040000Y760000D03*
%TO.P,D7,4,DIN*%
%TO.N,/GPIO36*%
X13040000Y3960000D03*
%TD*%
D17*
%TO.P,U7,1,GND*%
%TO.N,GND*%
X11690000Y15920000D03*
%TO.P,U7,2,LEDK*%
%TO.N,Net-(R20-Pad2)*%
X12390000Y15920000D03*
%TO.P,U7,3,LEDA*%
%TO.N,+3V3*%
X13090000Y15920000D03*
%TO.P,U7,4,VDD*%
X13790000Y15920000D03*
%TO.P,U7,5,GND*%
%TO.N,GND*%
X14490000Y15920000D03*
%TO.P,U7,6,GND*%
X15190000Y15920000D03*
%TO.P,U7,7,D/C*%
%TO.N,/GPIO2*%
X15890000Y15920000D03*
%TO.P,U7,8,CS*%
%TO.N,GND*%
X16590000Y15920000D03*
%TO.P,U7,9,SCL*%
%TO.N,/GPIO18*%
X17290000Y15920000D03*
%TO.P,U7,10,SDA*%
%TO.N,/GPIO23*%
X17990000Y15920000D03*
%TO.P,U7,11,RESET*%
%TO.N,/GPIO4*%
X18690000Y15920000D03*
%TO.P,U7,12,GND*%
%TO.N,GND*%
X19390000Y15920000D03*
%TD*%
D18*
%TO.N,GND*%
X8730000Y4960000D03*
X20000000Y7610000D03*
X24780000Y17030000D03*
X27370000Y22740000D03*
X27370000Y21190000D03*
X27660000Y33130000D03*
X22060000Y32120000D03*
X25690000Y31380000D03*
X26110000Y34440000D03*
X26120000Y36230000D03*
X22100000Y37290000D03*
X20440000Y37740000D03*
X17490000Y44880000D03*
X18250000Y21010000D03*
X10130000Y41610000D03*
X9150000Y41550000D03*
X13090000Y42950000D03*
X12310000Y42970000D03*
X11600000Y42980000D03*
X10900000Y42970000D03*
X9200000Y40840000D03*
X10180000Y40890000D03*
X30020000Y9280000D03*
X27300000Y19410000D03*
X8370000Y25450000D03*
X24180000Y670000D03*
X880000Y23910000D03*
X27110000Y46120000D03*
X16510000Y30720000D03*
X22030000Y31340000D03*
X11000000Y34210000D03*
X8430000Y42950000D03*
D19*
X14710000Y11400000D03*
D18*
X16600000Y18950000D03*
X10370000Y39170000D03*
X11010000Y39970000D03*
X14700000Y2670000D03*
X13620000Y46280000D03*
X7880000Y990000D03*
X27510000Y8400000D03*
X22060000Y26880000D03*
X9160000Y42240000D03*
X16070000Y1740000D03*
X30450000Y1370000D03*
X2470000Y15520000D03*
X4150000Y34780000D03*
X28490000Y46120000D03*
X24720000Y31430000D03*
X15510000Y840000D03*
X30760000Y4060000D03*
X6210000Y42910000D03*
X28090000Y810000D03*
X14870000Y17870000D03*
X3760000Y30040000D03*
X28900000Y8370000D03*
X2950000Y4900000D03*
X19110000Y32750000D03*
X30510000Y28850000D03*
X26420000Y23460000D03*
X14200000Y38080000D03*
X4720000Y42910000D03*
X6760000Y17710000D03*
X29020000Y33180000D03*
X19030000Y17700000D03*
X5490000Y42930000D03*
X6790000Y25930000D03*
X24970000Y19870000D03*
X13630000Y43530000D03*
X6440000Y2480000D03*
X6320000Y1100000D03*
X10480000Y40320000D03*
X15180000Y13820000D03*
X7630000Y31710000D03*
X1110000Y29550000D03*
X16050000Y37130000D03*
X11010000Y38950000D03*
X15950000Y13820000D03*
X13640000Y44180000D03*
X11150000Y12010000D03*
X8080000Y32980000D03*
X3440000Y40690000D03*
X4040000Y42930000D03*
X20278000Y22760000D03*
X11640000Y14140000D03*
X19240000Y18990000D03*
X8750000Y31710000D03*
X10180000Y42310000D03*
X26250000Y26160000D03*
X24160000Y27420000D03*
X6730000Y21910000D03*
X6760000Y19140000D03*
X5950000Y4640000D03*
X890000Y2780000D03*
X13760000Y31570000D03*
X2320000Y37900000D03*
X9130000Y42940000D03*
X11520000Y29010000D03*
X27970000Y4140000D03*
X900000Y18660000D03*
X3190000Y36270000D03*
X2090000Y40620000D03*
X30060000Y42770000D03*
X30430000Y27730000D03*
X7880000Y2410000D03*
X8370000Y24490000D03*
X16700000Y13820000D03*
X1160000Y32560000D03*
X2570000Y9390000D03*
X13640000Y44880000D03*
X8310000Y23430000D03*
X8300000Y22360000D03*
X4820000Y40630000D03*
X16070000Y2660000D03*
X6760000Y23400000D03*
X23650000Y31400000D03*
X27110000Y45250000D03*
X31020000Y10790000D03*
X14200000Y37130000D03*
X5300000Y1120000D03*
X9380000Y40210000D03*
X8910000Y28670000D03*
X6920000Y42880000D03*
X26210000Y27360000D03*
X30990000Y7930000D03*
X30490000Y18850000D03*
D19*
X14820000Y27240000D03*
D18*
X13630000Y45630000D03*
X9090000Y960000D03*
X11640000Y18320000D03*
X6760000Y16310000D03*
X30550000Y23430000D03*
X4000000Y17430000D03*
X29160000Y14070000D03*
X940000Y15430000D03*
X1140000Y4730000D03*
X26270000Y24850000D03*
X3710000Y32600000D03*
X6860000Y28480000D03*
X8280000Y12590000D03*
X6670000Y20570000D03*
X31050000Y9230000D03*
X6770000Y24620000D03*
X30600000Y33180000D03*
X9310000Y16630000D03*
X16560000Y7710000D03*
X13100000Y22200000D03*
D19*
X20480000Y25240000D03*
D18*
X14720000Y1760000D03*
X4790000Y36300000D03*
X9790000Y39610000D03*
X30580000Y17940000D03*
X16070000Y38050000D03*
X4380000Y4800000D03*
X9250000Y2290000D03*
X7920000Y39660000D03*
X26090000Y14310000D03*
X14190000Y36200000D03*
X7750000Y42930000D03*
X30790000Y14040000D03*
X10154766Y8021813D03*
X6830000Y27340000D03*
X16670000Y17690000D03*
X5300000Y2480000D03*
D19*
%TO.N,+3V3*%
X18440000Y7760000D03*
X15384271Y25993300D03*
X13273917Y21009670D03*
X8540000Y15460000D03*
X24340000Y46260000D03*
X14640000Y44460000D03*
X15140000Y23960000D03*
X23240000Y41560000D03*
X2704000Y34624000D03*
X20760100Y9929142D03*
X23340009Y33160005D03*
X10720000Y15290000D03*
X14240000Y27760000D03*
X21140000Y24060000D03*
D18*
%TO.N,/BAT_DET*%
X1449143Y11669143D03*
X8159090Y37453120D03*
%TO.N,/ESP_EN*%
X10240000Y35860000D03*
X13540000Y29560000D03*
D19*
%TO.N,+3.3VA*%
X15740000Y32160000D03*
X15140000Y39660000D03*
X18390000Y41310000D03*
%TO.N,+BATT*%
X4040000Y11660000D03*
X25740000Y10570000D03*
X8240000Y10760000D03*
%TO.N,/VCC_SYS_IN*%
X26940000Y1467500D03*
X22530000Y3310000D03*
X22070000Y15350000D03*
D18*
%TO.N,/GPIO21*%
X20278000Y11917311D03*
X15766657Y42465900D03*
%TO.N,/KEY1_RAW*%
X10550000Y22450000D03*
X23494211Y9660000D03*
%TO.N,/GPIO27*%
X23940000Y11160000D03*
X14240000Y32760000D03*
X22940000Y25960000D03*
%TO.N,/CH340_DTR*%
X16540000Y27560000D03*
X12985920Y20005921D03*
%TO.N,/CH340_RTS*%
X14080000Y18670000D03*
X19034100Y29960000D03*
D19*
%TO.N,/VCC_SYS*%
X21670000Y18750000D03*
X22340000Y1560000D03*
D18*
%TO.N,/BUZZ*%
X20540000Y38760000D03*
X6340000Y39560000D03*
%TO.N,/GPIO12*%
X8240000Y6660000D03*
X14940000Y30860000D03*
X11140000Y30660000D03*
%TO.N,/GPIO13*%
X16130898Y34560138D03*
X25040000Y38360000D03*
%TO.N,/CHG_DET*%
X9150000Y36880000D03*
X6240000Y12260000D03*
%TO.N,/GPIO35*%
X9840000Y22460000D03*
X9840000Y34860000D03*
%TO.N,/GPIO36*%
X9140000Y37860000D03*
X12040000Y3960000D03*
%TO.N,/GPIO14*%
X14640000Y34560000D03*
X24240000Y37760000D03*
%TO.N,/GPIO15*%
X24640000Y35560000D03*
X16740000Y34560000D03*
%TO.N,/GPIO2*%
X16534100Y31860000D03*
D19*
%TO.N,VBUS*%
X19070000Y13390000D03*
X12140000Y9860000D03*
D18*
%TO.N,/USB_PWR_DP*%
X16260000Y5200000D03*
X15250000Y5190000D03*
%TO.N,/GPIO4*%
X18220000Y32260000D03*
%TO.N,/AHT_SCL*%
X21240000Y36960000D03*
X19040000Y43660000D03*
X22808558Y45727100D03*
%TO.N,/AHT_SDA*%
X21740000Y38160000D03*
X21777730Y44565900D03*
%TO.N,/GPIO18*%
X17334100Y39497015D03*
%TO.N,/GPIO23*%
X18840000Y40260000D03*
%TO.N,/GPIO19*%
X20520000Y43170000D03*
X25360000Y34850000D03*
%TO.N,/CH340_TXD*%
X16640000Y41460000D03*
X13172260Y19245551D03*
%TO.N,/CH340_RXD*%
X13340000Y18660000D03*
X16240000Y42060000D03*
%TO.N,/GPIO22*%
X17240000Y41960000D03*
%TO.N,/GPIO26*%
X13640000Y34560000D03*
X24640000Y40460000D03*
%TO.N,Net-(D5-Pad2)*%
X23350000Y5620000D03*
X25810000Y5770000D03*
%TO.N,Net-(R20-Pad2)*%
X1460000Y10340000D03*
%TO.N,/GPIO25*%
X13140000Y32660000D03*
X24540000Y34060000D03*
%TD*%
D20*
%TO.N,/GPIO4*%
X17700000Y31740000D02*
X18220000Y32260000D01*
X17700000Y18370000D02*
X17700000Y31740000D01*
X18670000Y15940000D02*
X18670000Y17400000D01*
X18690000Y15920000D02*
X18670000Y15940000D01*
X18670000Y17400000D02*
X17700000Y18370000D01*
%TO.N,/GPIO23*%
X17497289Y18092711D02*
X17497289Y38917289D01*
X17990000Y17600000D02*
X17497289Y18092711D01*
X17990000Y15920000D02*
X17990000Y17600000D01*
X17497289Y38917289D02*
X18840000Y40260000D01*
%TO.N,/GPIO18*%
X17290000Y39452915D02*
X17334100Y39497015D01*
X17290000Y15920000D02*
X17290000Y39452915D01*
%TO.N,/BUZZ*%
X20540000Y41460000D02*
X20540000Y38760000D01*
X15387399Y42922601D02*
X19077399Y42922601D01*
X14894798Y42430000D02*
X15387399Y42922601D01*
X14894798Y40804798D02*
X14894798Y42430000D01*
X19077399Y42922601D02*
X20540000Y41460000D01*
X6340000Y39460000D02*
X7440000Y38360000D01*
X7440000Y38360000D02*
X12450000Y38360000D01*
X12450000Y38360000D02*
X14894798Y40804798D01*
X6340000Y39560000D02*
X6340000Y39460000D01*
D21*
%TO.N,+3V3*%
X23240000Y41860000D02*
X23240000Y41560000D01*
X24340000Y46260000D02*
X24340000Y44460000D01*
X14240000Y27760000D02*
X14303701Y27823701D01*
X14303701Y27823701D02*
X15061778Y27823701D01*
X13140000Y17760000D02*
X13740000Y17760000D01*
X2740000Y17060000D02*
X2740000Y34588000D01*
X15040000Y46260000D02*
X14640000Y45860000D01*
X15140000Y23960000D02*
X15140000Y21160000D01*
X17930000Y7760000D02*
X17490000Y7320000D01*
X30150000Y37080000D02*
X29170000Y38060000D01*
X15403701Y27481778D02*
X15403701Y26012730D01*
X21140000Y24060000D02*
X20760100Y23680100D01*
X15140000Y21160000D02*
X14989670Y21009670D01*
D22*
X15140000Y23960000D02*
X15140000Y25749029D01*
D21*
X10720000Y15290000D02*
X10970000Y15540000D01*
X29170000Y38060000D02*
X29140000Y38060000D01*
X26340000Y38760000D02*
X26340000Y41760000D01*
X18440000Y7760000D02*
X17930000Y7760000D01*
X8640000Y17760000D02*
X10970000Y17760000D01*
X20760100Y23680100D02*
X20760100Y9929142D01*
X17490000Y7320000D02*
X17490000Y4410000D01*
X2740000Y34588000D02*
X2704000Y34624000D01*
X15403701Y26012730D02*
X15384271Y25993300D01*
X26140000Y41960000D02*
X23340000Y41960000D01*
X24340000Y46260000D02*
X15040000Y46260000D01*
X10970000Y17760000D02*
X13140000Y17760000D01*
X14989670Y21009670D02*
X13273917Y21009670D01*
X14640000Y45860000D02*
X14640000Y44460000D01*
D23*
X21140000Y24060000D02*
X21140000Y32360000D01*
D21*
X26340000Y38760000D02*
X27040000Y38060000D01*
D22*
X15140000Y25749029D02*
X15384271Y25993300D01*
D21*
X17490000Y4410000D02*
X17940000Y3960000D01*
D23*
X21140000Y32360000D02*
X21940000Y33160000D01*
D21*
X23140000Y41660000D02*
X23240000Y41560000D01*
X24340000Y44460000D02*
X23140000Y43260000D01*
X13790000Y17710000D02*
X13790000Y15920000D01*
X23340000Y41960000D02*
X23240000Y41860000D01*
D23*
X21940000Y33160000D02*
X23340000Y33160000D01*
D21*
X26340000Y41760000D02*
X26140000Y41960000D01*
X13090000Y17710000D02*
X13140000Y17760000D01*
X10970000Y15540000D02*
X10970000Y17760000D01*
X8540000Y15460000D02*
X8540000Y19160000D01*
X8540000Y15460000D02*
X4340000Y15460000D01*
X13090000Y15920000D02*
X13090000Y17710000D01*
X8540000Y19160000D02*
X10389670Y21009670D01*
X13740000Y17760000D02*
X13790000Y17710000D01*
X10389670Y21009670D02*
X13273917Y21009670D01*
X4340000Y15460000D02*
X2740000Y17060000D01*
X29140000Y38060000D02*
X27040000Y38060000D01*
X15061778Y27823701D02*
X15403701Y27481778D01*
X23140000Y43260000D02*
X23140000Y41660000D01*
D20*
%TO.N,/ESP_EN*%
X10240000Y35860000D02*
X10240000Y35034032D01*
X10345901Y30354099D02*
X11140000Y29560000D01*
X10345901Y34928131D02*
X10345901Y30354099D01*
X10240000Y35034032D02*
X10345901Y34928131D01*
X11140000Y29560000D02*
X13540000Y29560000D01*
D21*
%TO.N,+3.3VA*%
X15172901Y32727099D02*
X15740000Y32160000D01*
X15172901Y39627099D02*
X15172901Y32727099D01*
X16740000Y39660000D02*
X18390000Y41310000D01*
X15140000Y39660000D02*
X15172901Y39627099D01*
X15140000Y39660000D02*
X16740000Y39660000D01*
D23*
%TO.N,+BATT*%
X4940000Y10760000D02*
X4040000Y11660000D01*
X8240000Y10760000D02*
X4940000Y10760000D01*
D21*
%TO.N,/VCC_SYS_IN*%
X22530000Y14890000D02*
X22070000Y15350000D01*
X22530000Y3310000D02*
X22530000Y14890000D01*
X26940000Y1467500D02*
X24372500Y1467500D01*
X24372500Y1467500D02*
X22530000Y3310000D01*
D20*
%TO.N,/GPIO21*%
X19872099Y40827901D02*
X19872099Y12323212D01*
X18234100Y42465900D02*
X19872099Y40827901D01*
X15766657Y42465900D02*
X18234100Y42465900D01*
X19872099Y12323212D02*
X20278000Y11917311D01*
%TO.N,/GPIO27*%
X22940000Y25860000D02*
X22940000Y25960000D01*
X23940000Y24860000D02*
X22940000Y25860000D01*
X23940000Y11160000D02*
X23940000Y24860000D01*
D23*
%TO.N,/VCC_SYS*%
X21430099Y2469901D02*
X21430099Y15056659D01*
X21430099Y15056659D02*
X21410099Y15076659D01*
X21410099Y18490099D02*
X21670000Y18750000D01*
X22340000Y1560000D02*
X21430099Y2469901D01*
X21410099Y15076659D02*
X21410099Y18490099D01*
D20*
%TO.N,/GPIO12*%
X11140000Y30660000D02*
X14740000Y30660000D01*
X14740000Y30660000D02*
X14940000Y30860000D01*
%TO.N,/GPIO35*%
X9840000Y34860000D02*
X9840000Y22460000D01*
%TO.N,/GPIO36*%
X13040000Y3960000D02*
X12040000Y3960000D01*
%TO.N,/GPIO2*%
X15890000Y31215900D02*
X16534100Y31860000D01*
X15890000Y15920000D02*
X15890000Y31215900D01*
%TO.N,/USB_PWR_DP*%
X15260000Y5200000D02*
X15250000Y5190000D01*
X16260000Y5200000D02*
X15260000Y5200000D01*
%TO.N,/AHT_SCL*%
X19040000Y43660000D02*
X19040000Y45460000D01*
X19040000Y43660000D02*
X20840000Y43660000D01*
X21240000Y43260000D02*
X21240000Y36960000D01*
X19040000Y45460000D02*
X19240000Y45660000D01*
X22741458Y45660000D02*
X22808558Y45727100D01*
X20840000Y43660000D02*
X21240000Y43260000D01*
X19240000Y45660000D02*
X22741458Y45660000D01*
%TO.N,/AHT_SDA*%
X21740000Y44528170D02*
X21777730Y44565900D01*
X21740000Y38160000D02*
X21740000Y44528170D01*
D23*
%TO.N,Net-(D5-Pad2)*%
X23350000Y5620000D02*
X25660000Y5620000D01*
X25660000Y5620000D02*
X25810000Y5770000D01*
D20*
%TO.N,Net-(R20-Pad2)*%
X12390000Y11870000D02*
X10772499Y10252499D01*
X12390000Y15920000D02*
X12390000Y11870000D01*
X10772499Y10252499D02*
X1547501Y10252499D01*
X1547501Y10252499D02*
X1460000Y10340000D01*
%TD*%
%TA.AperFunction,Conductor*%
%TO.N,GND*%
G36*
X3328006Y46725794D02*
G01*
X3846018Y46725678D01*
X3893579Y46708355D01*
X3918879Y46664512D01*
X3920000Y46651678D01*
X3920000Y45580940D01*
X3902687Y45533374D01*
X3858850Y45508064D01*
X3809000Y45516854D01*
X3803555Y45520323D01*
X3693929Y45597084D01*
X3693928Y45597085D01*
X3691281Y45598938D01*
X3485123Y45695071D01*
X3312591Y45741301D01*
X3268531Y45753107D01*
X3268529Y45753107D01*
X3265403Y45753945D01*
X3038798Y45773770D01*
X2812193Y45753945D01*
X2809067Y45753107D01*
X2809065Y45753107D01*
X2765005Y45741301D01*
X2592473Y45695071D01*
X2386315Y45598938D01*
X2199982Y45468466D01*
X2039136Y45307620D01*
X1908664Y45121287D01*
X1812531Y44915129D01*
X1811693Y44912001D01*
X1759491Y44717180D01*
X1753657Y44695409D01*
X1733832Y44468804D01*
X1753657Y44242199D01*
X1812531Y44022479D01*
X1908664Y43816321D01*
X1910517Y43813674D01*
X1910518Y43813673D01*
X1912766Y43810463D01*
X2039136Y43629988D01*
X2199982Y43469142D01*
X2386315Y43338670D01*
X2592473Y43242537D01*
X2617463Y43235841D01*
X2809065Y43184501D01*
X2809067Y43184501D01*
X2812193Y43183663D01*
X3038798Y43163838D01*
X3265403Y43183663D01*
X3268529Y43184501D01*
X3268531Y43184501D01*
X3460133Y43235841D01*
X3485123Y43242537D01*
X3691281Y43338670D01*
X3726195Y43363117D01*
X3803555Y43417285D01*
X3852450Y43430386D01*
X3898326Y43408994D01*
X3919718Y43363117D01*
X3920000Y43356668D01*
X3920000Y42990000D01*
X7103512Y42986715D01*
X13596953Y42980013D01*
X13596954Y42980013D01*
X13610000Y42980000D01*
X13607836Y43082797D01*
X13595819Y43653487D01*
X13595818Y43653559D01*
X13535662Y46648003D01*
X13552016Y46695907D01*
X13595336Y46722092D01*
X13609664Y46723489D01*
X14935090Y46723192D01*
X14982652Y46705869D01*
X15007952Y46662026D01*
X14999151Y46612178D01*
X14960367Y46579649D01*
X14947923Y46576316D01*
X14943680Y46575568D01*
X14932634Y46573621D01*
X14932632Y46573620D01*
X14926261Y46572497D01*
X14920656Y46569261D01*
X14916224Y46567648D01*
X14909994Y46565068D01*
X14905709Y46563069D01*
X14899457Y46561394D01*
X14867528Y46539037D01*
X14866517Y46538329D01*
X14861072Y46534860D01*
X14831844Y46517986D01*
X14831842Y46517984D01*
X14826240Y46514750D01*
X14822082Y46509794D01*
X14822079Y46509792D01*
X14800395Y46483949D01*
X14796034Y46479189D01*
X14420823Y46103977D01*
X14416063Y46099616D01*
X14390213Y46077925D01*
X14390211Y46077923D01*
X14385250Y46073760D01*
X14382011Y46068150D01*
X14365139Y46038927D01*
X14361670Y46033481D01*
X14342320Y46005848D01*
X14342319Y46005845D01*
X14338606Y46000543D01*
X14336930Y45994288D01*
X14334928Y45989995D01*
X14332363Y45983804D01*
X14330741Y45979348D01*
X14327503Y45973739D01*
X14320520Y45934137D01*
X14319122Y45927834D01*
X14310389Y45895243D01*
X14310388Y45895237D01*
X14308713Y45888984D01*
X14311601Y45855975D01*
X14312218Y45848926D01*
X14312500Y45842476D01*
X14312500Y44880569D01*
X14293966Y44831584D01*
X14218731Y44746396D01*
X14213324Y44740274D01*
X14151810Y44609255D01*
X14150999Y44604048D01*
X14150999Y44604047D01*
X14150067Y44598063D01*
X14129542Y44466237D01*
X14130225Y44461014D01*
X14130225Y44461011D01*
X14134084Y44431500D01*
X14148309Y44322718D01*
X14150432Y44317893D01*
X14196757Y44212612D01*
X14206603Y44190234D01*
X14299738Y44079437D01*
X14420226Y43999234D01*
X14425258Y43997662D01*
X14425260Y43997661D01*
X14449455Y43990102D01*
X14558381Y43956071D01*
X14563648Y43955974D01*
X14563651Y43955974D01*
X14627465Y43954805D01*
X14703098Y43953419D01*
X14708181Y43954805D01*
X14708183Y43954805D01*
X14837653Y43990102D01*
X14837657Y43990104D01*
X14842742Y43991490D01*
X14966088Y44067225D01*
X14992934Y44096883D01*
X15059680Y44170623D01*
X15063220Y44174534D01*
X15126330Y44304792D01*
X15150344Y44447527D01*
X15150496Y44460000D01*
X15149134Y44469515D01*
X15130724Y44598063D01*
X15129977Y44603279D01*
X15075530Y44723029D01*
X15072251Y44730241D01*
X15070069Y44735040D01*
X14985440Y44833256D01*
X14967500Y44881560D01*
X14967500Y45693694D01*
X14984813Y45741260D01*
X14989174Y45746020D01*
X15153981Y45910826D01*
X15199858Y45932218D01*
X15206307Y45932500D01*
X18978456Y45932500D01*
X19026022Y45915187D01*
X19051332Y45871350D01*
X19042542Y45821500D01*
X19030782Y45806174D01*
X18884958Y45660350D01*
X18873748Y45651150D01*
X18858823Y45641177D01*
X18844804Y45620196D01*
X18803281Y45558052D01*
X18801860Y45550907D01*
X18801859Y45550905D01*
X18791502Y45498835D01*
X18783777Y45460000D01*
X18785199Y45452851D01*
X18787278Y45442400D01*
X18788700Y45427963D01*
X18788700Y44079700D01*
X18771387Y44032134D01*
X18754187Y44017116D01*
X18742400Y44009679D01*
X18656219Y43912097D01*
X18600890Y43794249D01*
X18580860Y43665610D01*
X18581543Y43660387D01*
X18581543Y43660384D01*
X18596587Y43545344D01*
X18597741Y43536519D01*
X18650174Y43417355D01*
X18658032Y43408007D01*
X18730556Y43321729D01*
X18730559Y43321726D01*
X18733946Y43317697D01*
X18738333Y43314777D01*
X18738335Y43314775D01*
X18746259Y43309500D01*
X18776261Y43268731D01*
X18773037Y43218214D01*
X18738097Y43181589D01*
X18705253Y43173901D01*
X15419436Y43173901D01*
X15404999Y43175323D01*
X15394548Y43177402D01*
X15387399Y43178824D01*
X15380250Y43177402D01*
X15312060Y43163838D01*
X15296494Y43160742D01*
X15296492Y43160741D01*
X15289347Y43159320D01*
X15206222Y43103778D01*
X15196249Y43088853D01*
X15187049Y43077643D01*
X14739756Y42630350D01*
X14728546Y42621150D01*
X14713621Y42611177D01*
X14699602Y42590196D01*
X14658079Y42528052D01*
X14638575Y42430000D01*
X14639997Y42422851D01*
X14642076Y42412400D01*
X14643498Y42397963D01*
X14643498Y40939542D01*
X14626185Y40891976D01*
X14621824Y40887216D01*
X12367582Y38632974D01*
X12321706Y38611582D01*
X12315256Y38611300D01*
X7574744Y38611300D01*
X7527178Y38628613D01*
X7522418Y38632974D01*
X6798303Y39357089D01*
X6776911Y39402965D01*
X6777655Y39421693D01*
X6779788Y39434369D01*
X6799037Y39548781D01*
X6799174Y39560000D01*
X6780718Y39688875D01*
X6726832Y39807390D01*
X6722777Y39812097D01*
X6645290Y39902025D01*
X6645289Y39902026D01*
X6641850Y39906017D01*
X6637431Y39908881D01*
X6637429Y39908883D01*
X6537024Y39973961D01*
X6537025Y39973961D01*
X6532601Y39976828D01*
X6432604Y40006733D01*
X6412923Y40012619D01*
X6412922Y40012619D01*
X6407870Y40014130D01*
X6340340Y40014543D01*
X6282952Y40014894D01*
X6282950Y40014894D01*
X6277683Y40014926D01*
X6152505Y39979150D01*
X6042400Y39909679D01*
X5956219Y39812097D01*
X5900890Y39694249D01*
X5880860Y39565610D01*
X5881543Y39560387D01*
X5881543Y39560384D01*
X5887100Y39517893D01*
X5897741Y39436519D01*
X5899864Y39431694D01*
X5940229Y39339958D01*
X5950174Y39317355D01*
X5960448Y39305133D01*
X6030556Y39221729D01*
X6030559Y39221726D01*
X6033946Y39217697D01*
X6038333Y39214777D01*
X6137931Y39148477D01*
X6137934Y39148475D01*
X6142320Y39145556D01*
X6266587Y39106733D01*
X6271855Y39106636D01*
X6271858Y39106636D01*
X6309351Y39105949D01*
X6360321Y39084287D01*
X7239650Y38204958D01*
X7248850Y38193748D01*
X7258823Y38178823D01*
X7279804Y38164804D01*
X7341948Y38123281D01*
X7349093Y38121860D01*
X7349095Y38121859D01*
X7432851Y38105199D01*
X7440000Y38103777D01*
X7457601Y38107278D01*
X7472037Y38108700D01*
X8638131Y38108700D01*
X8685697Y38091387D01*
X8711007Y38047550D01*
X8705117Y38003253D01*
X8700890Y37994249D01*
X8680860Y37865610D01*
X8681543Y37860387D01*
X8681543Y37860384D01*
X8696507Y37745959D01*
X8697741Y37736519D01*
X8699864Y37731694D01*
X8710107Y37708416D01*
X8750174Y37617355D01*
X8753566Y37613320D01*
X8830556Y37521729D01*
X8830559Y37521726D01*
X8833946Y37517697D01*
X8854593Y37503953D01*
X8937931Y37448477D01*
X8937934Y37448475D01*
X8942320Y37445556D01*
X8947352Y37443984D01*
X8947354Y37443983D01*
X8961307Y37439624D01*
X9001547Y37408915D01*
X9012633Y37359525D01*
X8989378Y37314564D01*
X8969458Y37301441D01*
X8967577Y37300600D01*
X8962505Y37299150D01*
X8958045Y37296336D01*
X8958043Y37296335D01*
X8911094Y37266712D01*
X8852400Y37229679D01*
X8766219Y37132097D01*
X8710890Y37014249D01*
X8690860Y36885610D01*
X8691543Y36880387D01*
X8691543Y36880384D01*
X8699388Y36820396D01*
X8707741Y36756519D01*
X8709864Y36751694D01*
X8722850Y36722182D01*
X8760174Y36637355D01*
X8763566Y36633320D01*
X8840556Y36541729D01*
X8840559Y36541726D01*
X8843946Y36537697D01*
X8864593Y36523953D01*
X8947931Y36468477D01*
X8947934Y36468475D01*
X8952320Y36465556D01*
X9076587Y36426733D01*
X9081855Y36426636D01*
X9081858Y36426636D01*
X9136432Y36425636D01*
X9206755Y36424347D01*
X9211838Y36425733D01*
X9211840Y36425733D01*
X9327270Y36457203D01*
X9327272Y36457204D01*
X9332360Y36458591D01*
X9407039Y36504444D01*
X9438813Y36523953D01*
X9438814Y36523954D01*
X9443306Y36526712D01*
X9530672Y36623233D01*
X9587437Y36740396D01*
X9609037Y36868781D01*
X9609174Y36880000D01*
X9590718Y37008875D01*
X9556717Y37083656D01*
X9539014Y37122592D01*
X9539012Y37122594D01*
X9536832Y37127390D01*
X9532777Y37132097D01*
X9455290Y37222025D01*
X9455289Y37222026D01*
X9451850Y37226017D01*
X9447431Y37228881D01*
X9447429Y37228883D01*
X9347024Y37293961D01*
X9347025Y37293961D01*
X9342601Y37296828D01*
X9337553Y37298338D01*
X9337550Y37298339D01*
X9330326Y37300499D01*
X9289715Y37330714D01*
X9278027Y37379965D01*
X9300731Y37425207D01*
X9320124Y37437981D01*
X9322360Y37438591D01*
X9331142Y37443983D01*
X9428813Y37503953D01*
X9428814Y37503954D01*
X9433306Y37506712D01*
X9520672Y37603233D01*
X9577437Y37720396D01*
X9578837Y37728714D01*
X9597960Y37842381D01*
X9599037Y37848781D01*
X9599174Y37860000D01*
X9580718Y37988875D01*
X9578536Y37993673D01*
X9578535Y37993678D01*
X9573809Y38004072D01*
X9569882Y38054539D01*
X9599313Y38095722D01*
X9641173Y38108700D01*
X12417963Y38108700D01*
X12432399Y38107278D01*
X12450000Y38103777D01*
X12474749Y38108700D01*
X12479671Y38109679D01*
X12540905Y38121859D01*
X12540907Y38121860D01*
X12548052Y38123281D01*
X12631177Y38178823D01*
X12641150Y38193748D01*
X12650350Y38204958D01*
X15049840Y40604448D01*
X15061050Y40613648D01*
X15075975Y40623621D01*
X15131517Y40706746D01*
X15132993Y40714162D01*
X15146098Y40780049D01*
X15149599Y40797649D01*
X15149599Y40797650D01*
X15151021Y40804798D01*
X15147848Y40820752D01*
X15147520Y40822399D01*
X15146098Y40836836D01*
X15146098Y42295256D01*
X15163411Y42342822D01*
X15167772Y42347582D01*
X15200147Y42379957D01*
X15246023Y42401349D01*
X15294918Y42388248D01*
X15323726Y42347560D01*
X15324398Y42342419D01*
X15376831Y42223255D01*
X15386210Y42212097D01*
X15457213Y42127629D01*
X15457216Y42127626D01*
X15460603Y42123597D01*
X15464990Y42120677D01*
X15564588Y42054377D01*
X15564591Y42054375D01*
X15568977Y42051456D01*
X15693244Y42012633D01*
X15698512Y42012536D01*
X15698515Y42012536D01*
X15724265Y42012064D01*
X15771506Y41993881D01*
X15796283Y41947672D01*
X15797741Y41936519D01*
X15850174Y41817355D01*
X15853566Y41813320D01*
X15930556Y41721729D01*
X15930559Y41721726D01*
X15933946Y41717697D01*
X15946628Y41709255D01*
X16037931Y41648477D01*
X16037934Y41648475D01*
X16042320Y41645556D01*
X16140291Y41614948D01*
X16180529Y41584240D01*
X16191342Y41532931D01*
X16180860Y41465610D01*
X16181543Y41460387D01*
X16181543Y41460384D01*
X16195206Y41355908D01*
X16197741Y41336519D01*
X16199864Y41331694D01*
X16221908Y41281596D01*
X16250174Y41217355D01*
X16253566Y41213320D01*
X16330556Y41121729D01*
X16330559Y41121726D01*
X16333946Y41117697D01*
X16354593Y41103953D01*
X16437931Y41048477D01*
X16437934Y41048475D01*
X16442320Y41045556D01*
X16566587Y41006733D01*
X16571855Y41006636D01*
X16571858Y41006636D01*
X16626432Y41005636D01*
X16696755Y41004347D01*
X16701838Y41005733D01*
X16701840Y41005733D01*
X16817270Y41037203D01*
X16817272Y41037204D01*
X16822360Y41038591D01*
X16889801Y41080000D01*
X16928813Y41103953D01*
X16928814Y41103954D01*
X16933306Y41106712D01*
X17020672Y41203233D01*
X17077437Y41320396D01*
X17078444Y41326377D01*
X17098386Y41444911D01*
X17123350Y41488945D01*
X17172715Y41506621D01*
X17296755Y41504347D01*
X17301838Y41505733D01*
X17301840Y41505733D01*
X17417270Y41537203D01*
X17417272Y41537204D01*
X17422360Y41538591D01*
X17533306Y41606712D01*
X17620672Y41703233D01*
X17677437Y41820396D01*
X17678394Y41826080D01*
X17693207Y41914130D01*
X17699037Y41948781D01*
X17699174Y41960000D01*
X17680718Y42088875D01*
X17671126Y42109971D01*
X17667198Y42160437D01*
X17696629Y42201622D01*
X17738490Y42214600D01*
X18099356Y42214600D01*
X18146922Y42197287D01*
X18151682Y42192926D01*
X18402688Y41941920D01*
X18424080Y41896044D01*
X18410979Y41847149D01*
X18369515Y41818115D01*
X18349911Y41815595D01*
X18325988Y41815741D01*
X18325987Y41815741D01*
X18320718Y41815773D01*
X18181549Y41775998D01*
X18059137Y41698762D01*
X18025213Y41660350D01*
X17966835Y41594249D01*
X17963324Y41590274D01*
X17901810Y41459255D01*
X17900999Y41454048D01*
X17900999Y41454047D01*
X17900813Y41452851D01*
X17879542Y41316237D01*
X17880225Y41311013D01*
X17880225Y41311011D01*
X17881007Y41305033D01*
X17870008Y41255624D01*
X17859958Y41243113D01*
X16626020Y40009174D01*
X16580144Y39987782D01*
X16573694Y39987500D01*
X15558785Y39987500D01*
X15511219Y40004813D01*
X15502725Y40013196D01*
X15479027Y40040699D01*
X15479026Y40040700D01*
X15475587Y40044691D01*
X15384158Y40103953D01*
X15358551Y40120551D01*
X15358550Y40120552D01*
X15354129Y40123417D01*
X15349081Y40124927D01*
X15349078Y40124928D01*
X15220509Y40163378D01*
X15220508Y40163378D01*
X15215456Y40164889D01*
X15142008Y40165338D01*
X15075988Y40165741D01*
X15075987Y40165741D01*
X15070718Y40165773D01*
X14931549Y40125998D01*
X14809137Y40048762D01*
X14771933Y40006636D01*
X14750580Y39982458D01*
X14713324Y39940274D01*
X14651810Y39809255D01*
X14650999Y39804048D01*
X14650999Y39804047D01*
X14648023Y39784935D01*
X14629542Y39666237D01*
X14630225Y39661014D01*
X14630225Y39661011D01*
X14632833Y39641071D01*
X14648309Y39522718D01*
X14706603Y39390234D01*
X14709995Y39386199D01*
X14796348Y39283469D01*
X14796351Y39283466D01*
X14799738Y39279437D01*
X14804125Y39276517D01*
X14804127Y39276515D01*
X14812407Y39271003D01*
X14842409Y39230234D01*
X14845401Y39209404D01*
X14845401Y35072368D01*
X14828088Y35024802D01*
X14784251Y34999492D01*
X14750200Y35001471D01*
X14707870Y35014130D01*
X14640340Y35014543D01*
X14582952Y35014894D01*
X14582950Y35014894D01*
X14577683Y35014926D01*
X14452505Y34979150D01*
X14448045Y34976336D01*
X14437710Y34969815D01*
X14342400Y34909679D01*
X14256219Y34812097D01*
X14243467Y34784935D01*
X14206661Y34706542D01*
X14170774Y34670843D01*
X14120336Y34666563D01*
X14078948Y34695705D01*
X14072312Y34707362D01*
X14068567Y34715600D01*
X14042888Y34772077D01*
X14029014Y34802592D01*
X14029012Y34802594D01*
X14026832Y34807390D01*
X14022777Y34812097D01*
X13945290Y34902025D01*
X13945289Y34902026D01*
X13941850Y34906017D01*
X13937431Y34908881D01*
X13937429Y34908883D01*
X13837024Y34973961D01*
X13837025Y34973961D01*
X13832601Y34976828D01*
X13726057Y35008691D01*
X13712923Y35012619D01*
X13712922Y35012619D01*
X13707870Y35014130D01*
X13640340Y35014543D01*
X13582952Y35014894D01*
X13582950Y35014894D01*
X13577683Y35014926D01*
X13452505Y34979150D01*
X13448045Y34976336D01*
X13437710Y34969815D01*
X13342400Y34909679D01*
X13256219Y34812097D01*
X13200890Y34694249D01*
X13180860Y34565610D01*
X13181543Y34560387D01*
X13181543Y34560384D01*
X13196066Y34449330D01*
X13197741Y34436519D01*
X13199864Y34431694D01*
X13202461Y34425793D01*
X13250174Y34317355D01*
X13253566Y34313320D01*
X13330556Y34221729D01*
X13330559Y34221726D01*
X13333946Y34217697D01*
X13352559Y34205307D01*
X13437931Y34148477D01*
X13437934Y34148475D01*
X13442320Y34145556D01*
X13566587Y34106733D01*
X13571855Y34106636D01*
X13571858Y34106636D01*
X13626432Y34105636D01*
X13696755Y34104347D01*
X13701838Y34105733D01*
X13701840Y34105733D01*
X13817270Y34137203D01*
X13817272Y34137204D01*
X13822360Y34138591D01*
X13906746Y34190404D01*
X13928813Y34203953D01*
X13928814Y34203954D01*
X13933306Y34206712D01*
X14020672Y34303233D01*
X14074373Y34414072D01*
X14110693Y34449330D01*
X14161179Y34452994D01*
X14202208Y34423348D01*
X14208701Y34411610D01*
X14214555Y34398306D01*
X14250174Y34317355D01*
X14253566Y34313320D01*
X14330556Y34221729D01*
X14330559Y34221726D01*
X14333946Y34217697D01*
X14352559Y34205307D01*
X14437931Y34148477D01*
X14437934Y34148475D01*
X14442320Y34145556D01*
X14566587Y34106733D01*
X14571855Y34106636D01*
X14571858Y34106636D01*
X14626432Y34105636D01*
X14696755Y34104347D01*
X14701837Y34105732D01*
X14701841Y34105733D01*
X14751937Y34119391D01*
X14802382Y34115199D01*
X14838331Y34079563D01*
X14845401Y34047997D01*
X14845401Y32777654D01*
X14834203Y32746889D01*
X14842033Y32733570D01*
X14842978Y32713701D01*
X14841614Y32698115D01*
X14843289Y32691862D01*
X14843290Y32691856D01*
X14852023Y32659265D01*
X14853420Y32652966D01*
X14860404Y32613360D01*
X14863642Y32607751D01*
X14865264Y32603295D01*
X14867829Y32597104D01*
X14869831Y32592811D01*
X14871507Y32586556D01*
X14875220Y32581254D01*
X14875221Y32581251D01*
X14894571Y32553618D01*
X14898040Y32548172D01*
X14914077Y32520396D01*
X14918151Y32513339D01*
X14923112Y32509176D01*
X14923114Y32509174D01*
X14948964Y32487483D01*
X14953724Y32483122D01*
X15208727Y32228119D01*
X15230119Y32182243D01*
X15230395Y32174889D01*
X15230353Y32171444D01*
X15229542Y32166237D01*
X15230225Y32161014D01*
X15230225Y32161011D01*
X15235536Y32120396D01*
X15248309Y32022718D01*
X15250432Y32017893D01*
X15300567Y31903953D01*
X15306603Y31890234D01*
X15399738Y31779437D01*
X15520226Y31699234D01*
X15525258Y31697662D01*
X15525260Y31697661D01*
X15564993Y31685248D01*
X15658381Y31656071D01*
X15663648Y31655974D01*
X15663651Y31655974D01*
X15727147Y31654811D01*
X15794993Y31653568D01*
X15842233Y31635386D01*
X15866735Y31591093D01*
X15857033Y31541412D01*
X15845962Y31527254D01*
X15734958Y31416250D01*
X15723748Y31407050D01*
X15708823Y31397077D01*
X15694804Y31376096D01*
X15653281Y31313952D01*
X15651860Y31306807D01*
X15651859Y31306805D01*
X15645326Y31273961D01*
X15633777Y31215900D01*
X15635199Y31208751D01*
X15637278Y31198300D01*
X15638700Y31183863D01*
X15638700Y27888586D01*
X15621387Y27841020D01*
X15577550Y27815710D01*
X15527700Y27824500D01*
X15512374Y27836260D01*
X15305755Y28042878D01*
X15301394Y28047638D01*
X15279703Y28073488D01*
X15279701Y28073490D01*
X15275538Y28078451D01*
X15269928Y28081690D01*
X15240705Y28098562D01*
X15235259Y28102031D01*
X15207626Y28121381D01*
X15207623Y28121382D01*
X15202321Y28125095D01*
X15196066Y28126771D01*
X15191773Y28128773D01*
X15185582Y28131338D01*
X15181126Y28132960D01*
X15175517Y28136198D01*
X15135911Y28143182D01*
X15129612Y28144579D01*
X15097021Y28153312D01*
X15097015Y28153313D01*
X15090762Y28154988D01*
X15051744Y28151574D01*
X15050704Y28151483D01*
X15044254Y28151201D01*
X14587429Y28151201D01*
X14547179Y28163105D01*
X14458558Y28220547D01*
X14458554Y28220549D01*
X14454129Y28223417D01*
X14384792Y28244153D01*
X14320509Y28263378D01*
X14320508Y28263378D01*
X14315456Y28264889D01*
X14242008Y28265338D01*
X14175988Y28265741D01*
X14175987Y28265741D01*
X14170718Y28265773D01*
X14031549Y28225998D01*
X13909137Y28148762D01*
X13888235Y28125095D01*
X13817644Y28045165D01*
X13813324Y28040274D01*
X13751810Y27909255D01*
X13729542Y27766237D01*
X13730225Y27761014D01*
X13730225Y27761011D01*
X13735135Y27723464D01*
X13748309Y27622718D01*
X13806603Y27490234D01*
X13899738Y27379437D01*
X14020226Y27299234D01*
X14025258Y27297662D01*
X14025260Y27297661D01*
X14045739Y27291263D01*
X14158381Y27256071D01*
X14163648Y27255974D01*
X14163651Y27255974D01*
X14227465Y27254805D01*
X14303098Y27253419D01*
X14308181Y27254805D01*
X14308183Y27254805D01*
X14437653Y27290102D01*
X14437657Y27290104D01*
X14442742Y27291490D01*
X14566088Y27367225D01*
X14577142Y27379437D01*
X14660801Y27471861D01*
X14705558Y27495508D01*
X14715664Y27496201D01*
X14895472Y27496201D01*
X14943038Y27478888D01*
X14947798Y27474527D01*
X15054527Y27367797D01*
X15075919Y27321920D01*
X15076201Y27315471D01*
X15076201Y26434672D01*
X15058888Y26387106D01*
X15054671Y26382859D01*
X15053408Y26382062D01*
X15049921Y26378114D01*
X15049919Y26378112D01*
X14985993Y26305729D01*
X14957595Y26273574D01*
X14896081Y26142555D01*
X14885744Y26076163D01*
X14884216Y26066351D01*
X14863423Y26025410D01*
X14819731Y25981718D01*
X14817088Y25976530D01*
X14817086Y25976528D01*
X14808232Y25959151D01*
X14802166Y25949251D01*
X14798519Y25944231D01*
X14792471Y25935906D01*
X14787273Y25928752D01*
X14785475Y25923218D01*
X14785474Y25923216D01*
X14779445Y25904658D01*
X14775003Y25893933D01*
X14763501Y25871361D01*
X14762590Y25865609D01*
X14759538Y25846338D01*
X14756827Y25835047D01*
X14749000Y25810957D01*
X14749000Y24308669D01*
X14730466Y24259684D01*
X14713324Y24240274D01*
X14651810Y24109255D01*
X14650999Y24104048D01*
X14650999Y24104047D01*
X14646706Y24076474D01*
X14629542Y23966237D01*
X14630225Y23961014D01*
X14630225Y23961011D01*
X14637577Y23904792D01*
X14648309Y23822718D01*
X14650432Y23817893D01*
X14681215Y23747934D01*
X14706603Y23690234D01*
X14790773Y23590102D01*
X14795146Y23584900D01*
X14812500Y23537284D01*
X14812500Y21411170D01*
X14795187Y21363604D01*
X14751350Y21338294D01*
X14738500Y21337170D01*
X13692702Y21337170D01*
X13645136Y21354483D01*
X13636642Y21362866D01*
X13612944Y21390369D01*
X13612943Y21390370D01*
X13609504Y21394361D01*
X13488046Y21473087D01*
X13482998Y21474597D01*
X13482995Y21474598D01*
X13354426Y21513048D01*
X13354425Y21513048D01*
X13349373Y21514559D01*
X13275925Y21515008D01*
X13209905Y21515411D01*
X13209904Y21515411D01*
X13204635Y21515443D01*
X13065466Y21475668D01*
X12943054Y21398432D01*
X12912295Y21363604D01*
X12911042Y21362185D01*
X12866578Y21337992D01*
X12855576Y21337170D01*
X10407186Y21337170D01*
X10400736Y21337452D01*
X10367134Y21340392D01*
X10367133Y21340392D01*
X10360685Y21340956D01*
X10321848Y21330549D01*
X10315546Y21329152D01*
X10305813Y21327436D01*
X10282304Y21323291D01*
X10282302Y21323290D01*
X10275931Y21322167D01*
X10270326Y21318931D01*
X10265894Y21317318D01*
X10259664Y21314738D01*
X10255379Y21312739D01*
X10249127Y21311064D01*
X10216187Y21287999D01*
X10210742Y21284530D01*
X10181514Y21267656D01*
X10181512Y21267654D01*
X10175910Y21264420D01*
X10150055Y21233606D01*
X10145705Y21228860D01*
X9811731Y20894885D01*
X9555686Y20638840D01*
X9509810Y20617448D01*
X9460915Y20630549D01*
X9431882Y20672013D01*
X9431302Y20702149D01*
X9430358Y20702268D01*
X9454691Y20894885D01*
X9454691Y20894889D01*
X9454949Y20896929D01*
X9455341Y20925000D01*
X9453667Y20942079D01*
X9436547Y21116669D01*
X9436194Y21120272D01*
X9379484Y21308106D01*
X9287370Y21481347D01*
X9163361Y21633398D01*
X9012180Y21758465D01*
X8997814Y21766233D01*
X8842768Y21850066D01*
X8839585Y21851787D01*
X8836135Y21852855D01*
X8836130Y21852857D01*
X8717841Y21889473D01*
X8652152Y21909807D01*
X8457019Y21930317D01*
X8261618Y21912534D01*
X8258145Y21911512D01*
X8258146Y21911512D01*
X8076864Y21858158D01*
X8076860Y21858156D01*
X8073393Y21857136D01*
X7982115Y21809417D01*
X7902719Y21767910D01*
X7902716Y21767908D01*
X7899512Y21766233D01*
X7896694Y21763967D01*
X7896692Y21763966D01*
X7749419Y21645556D01*
X7749416Y21645553D01*
X7746600Y21643289D01*
X7620480Y21492984D01*
X7525956Y21321046D01*
X7524864Y21317603D01*
X7524863Y21317601D01*
X7478382Y21171074D01*
X7466628Y21134022D01*
X7466225Y21130426D01*
X7466224Y21130423D01*
X7461933Y21092163D01*
X7444757Y20939037D01*
X7445060Y20935428D01*
X7445060Y20935426D01*
X7448293Y20896929D01*
X7461175Y20743517D01*
X7479690Y20678948D01*
X7503379Y20596337D01*
X7515258Y20554909D01*
X7535208Y20516091D01*
X7603288Y20383620D01*
X7603291Y20383615D01*
X7604944Y20380399D01*
X7726818Y20226631D01*
X7876238Y20099465D01*
X7917932Y20076163D01*
X8044354Y20005508D01*
X8044358Y20005506D01*
X8047513Y20003743D01*
X8050949Y20002626D01*
X8050955Y20002624D01*
X8169467Y19964118D01*
X8234118Y19943111D01*
X8294541Y19935906D01*
X8425346Y19920308D01*
X8425349Y19920308D01*
X8428946Y19919879D01*
X8493365Y19924836D01*
X8620965Y19934654D01*
X8620966Y19934654D01*
X8624576Y19934932D01*
X8668106Y19947086D01*
X8718575Y19943203D01*
X8754741Y19907787D01*
X8759681Y19857409D01*
X8740332Y19823486D01*
X8320823Y19403977D01*
X8316063Y19399616D01*
X8290213Y19377925D01*
X8290211Y19377923D01*
X8285250Y19373760D01*
X8282011Y19368150D01*
X8265139Y19338927D01*
X8261670Y19333481D01*
X8242320Y19305848D01*
X8242319Y19305845D01*
X8238606Y19300543D01*
X8236930Y19294288D01*
X8234928Y19289995D01*
X8232363Y19283804D01*
X8230741Y19279348D01*
X8227503Y19273739D01*
X8222028Y19242689D01*
X8220520Y19234137D01*
X8219122Y19227834D01*
X8210389Y19195243D01*
X8210388Y19195237D01*
X8208713Y19188984D01*
X8209278Y19182532D01*
X8212218Y19148926D01*
X8212500Y19142476D01*
X8212500Y15880569D01*
X8193966Y15831584D01*
X8177922Y15813417D01*
X8177125Y15812515D01*
X8132661Y15788322D01*
X8121659Y15787500D01*
X4506307Y15787500D01*
X4458741Y15804813D01*
X4453981Y15809174D01*
X3089174Y17173980D01*
X3067782Y17219856D01*
X3067500Y17226306D01*
X3067500Y26939037D01*
X7444757Y26939037D01*
X7445060Y26935428D01*
X7445060Y26935426D01*
X7448293Y26896929D01*
X7461175Y26743517D01*
X7515258Y26554909D01*
X7516911Y26551693D01*
X7603288Y26383620D01*
X7603291Y26383615D01*
X7604944Y26380399D01*
X7726818Y26226631D01*
X7876238Y26099465D01*
X7879400Y26097698D01*
X8044354Y26005508D01*
X8044358Y26005506D01*
X8047513Y26003743D01*
X8050949Y26002626D01*
X8050955Y26002624D01*
X8148851Y25970816D01*
X8234118Y25943111D01*
X8294541Y25935906D01*
X8425346Y25920308D01*
X8425349Y25920308D01*
X8428946Y25919879D01*
X8493365Y25924836D01*
X8620965Y25934654D01*
X8620966Y25934654D01*
X8624576Y25934932D01*
X8813556Y25987697D01*
X8816783Y25989327D01*
X8985455Y26074529D01*
X8985458Y26074531D01*
X8988689Y26076163D01*
X9143303Y26196960D01*
X9271509Y26345489D01*
X9273292Y26348628D01*
X9273295Y26348632D01*
X9322172Y26434672D01*
X9368425Y26516091D01*
X9380269Y26551693D01*
X9429215Y26698832D01*
X9430358Y26702268D01*
X9435130Y26740038D01*
X9441283Y26788749D01*
X9464421Y26833771D01*
X9511085Y26853387D01*
X9559440Y26838418D01*
X9586861Y26795870D01*
X9588700Y26779475D01*
X9588700Y22879700D01*
X9571387Y22832134D01*
X9554187Y22817116D01*
X9542400Y22809679D01*
X9456219Y22712097D01*
X9400890Y22594249D01*
X9380860Y22465610D01*
X9381543Y22460387D01*
X9381543Y22460384D01*
X9383276Y22447138D01*
X9397741Y22336519D01*
X9399864Y22331694D01*
X9406946Y22315600D01*
X9450174Y22217355D01*
X9453566Y22213320D01*
X9530556Y22121729D01*
X9530559Y22121726D01*
X9533946Y22117697D01*
X9553360Y22104774D01*
X9637931Y22048477D01*
X9637934Y22048475D01*
X9642320Y22045556D01*
X9766587Y22006733D01*
X9771855Y22006636D01*
X9771858Y22006636D01*
X9826432Y22005636D01*
X9896755Y22004347D01*
X9901838Y22005733D01*
X9901840Y22005733D01*
X10017270Y22037203D01*
X10017272Y22037204D01*
X10022360Y22038591D01*
X10112526Y22093953D01*
X10128813Y22103953D01*
X10128814Y22103954D01*
X10133306Y22106712D01*
X10136845Y22110622D01*
X10140898Y22113987D01*
X10142406Y22112170D01*
X10179192Y22131605D01*
X10228676Y22120949D01*
X10238622Y22113461D01*
X10240550Y22111737D01*
X10243946Y22107697D01*
X10248337Y22104774D01*
X10347931Y22038477D01*
X10347934Y22038475D01*
X10352320Y22035556D01*
X10476587Y21996733D01*
X10481855Y21996636D01*
X10481858Y21996636D01*
X10536432Y21995636D01*
X10606755Y21994347D01*
X10611838Y21995733D01*
X10611840Y21995733D01*
X10727270Y22027203D01*
X10727272Y22027204D01*
X10732360Y22028591D01*
X10843306Y22096712D01*
X10930672Y22193233D01*
X10987437Y22310396D01*
X10991021Y22331694D01*
X11008562Y22435959D01*
X11009037Y22438781D01*
X11009174Y22450000D01*
X10990718Y22578875D01*
X10936832Y22697390D01*
X10928274Y22707323D01*
X10855290Y22792025D01*
X10855289Y22792026D01*
X10851850Y22796017D01*
X10847431Y22798881D01*
X10847429Y22798883D01*
X10747024Y22863961D01*
X10747025Y22863961D01*
X10742601Y22866828D01*
X10617870Y22904130D01*
X10550340Y22904543D01*
X10492952Y22904894D01*
X10492950Y22904894D01*
X10487683Y22904926D01*
X10362505Y22869150D01*
X10358045Y22866336D01*
X10256861Y22802494D01*
X10256860Y22802493D01*
X10252400Y22799679D01*
X10248910Y22795728D01*
X10248268Y22795181D01*
X10200823Y22777539D01*
X10153137Y22794521D01*
X10147032Y22800505D01*
X10145290Y22802025D01*
X10141850Y22806017D01*
X10137432Y22808881D01*
X10137427Y22808885D01*
X10125050Y22816907D01*
X10094552Y22857307D01*
X10091300Y22879003D01*
X10091300Y30074656D01*
X10108613Y30122222D01*
X10152450Y30147532D01*
X10202300Y30138742D01*
X10217626Y30126982D01*
X10939648Y29404961D01*
X10948851Y29393747D01*
X10958823Y29378823D01*
X11027126Y29333185D01*
X11041948Y29323281D01*
X11140000Y29303777D01*
X11157601Y29307278D01*
X11172037Y29308700D01*
X13122982Y29308700D01*
X13170548Y29291387D01*
X13179627Y29282316D01*
X13230551Y29221735D01*
X13230554Y29221733D01*
X13233946Y29217697D01*
X13238337Y29214774D01*
X13337931Y29148477D01*
X13337934Y29148475D01*
X13342320Y29145556D01*
X13466587Y29106733D01*
X13471855Y29106636D01*
X13471858Y29106636D01*
X13526432Y29105636D01*
X13596755Y29104347D01*
X13601838Y29105733D01*
X13601840Y29105733D01*
X13717270Y29137203D01*
X13717272Y29137204D01*
X13722360Y29138591D01*
X13833306Y29206712D01*
X13920672Y29303233D01*
X13977437Y29420396D01*
X13999037Y29548781D01*
X13999174Y29560000D01*
X13980718Y29688875D01*
X13972033Y29707977D01*
X13929014Y29802592D01*
X13929012Y29802594D01*
X13926832Y29807390D01*
X13922777Y29812097D01*
X13845290Y29902025D01*
X13845289Y29902026D01*
X13841850Y29906017D01*
X13837431Y29908881D01*
X13837429Y29908883D01*
X13737024Y29973961D01*
X13737025Y29973961D01*
X13732601Y29976828D01*
X13607870Y30014130D01*
X13540340Y30014543D01*
X13482952Y30014894D01*
X13482950Y30014894D01*
X13477683Y30014926D01*
X13352505Y29979150D01*
X13242400Y29909679D01*
X13238913Y29905731D01*
X13238911Y29905729D01*
X13177606Y29836314D01*
X13133143Y29812122D01*
X13122141Y29811300D01*
X11274743Y29811300D01*
X11227177Y29828613D01*
X11222417Y29832974D01*
X10962268Y30093123D01*
X10940876Y30138999D01*
X10953977Y30187894D01*
X10995441Y30216928D01*
X11036660Y30216082D01*
X11061551Y30208306D01*
X11061553Y30208306D01*
X11066587Y30206733D01*
X11071855Y30206636D01*
X11071858Y30206636D01*
X11126432Y30205636D01*
X11196755Y30204347D01*
X11201838Y30205733D01*
X11201840Y30205733D01*
X11317270Y30237203D01*
X11317272Y30237204D01*
X11322360Y30238591D01*
X11377833Y30272651D01*
X11428813Y30303953D01*
X11428814Y30303954D01*
X11433306Y30306712D01*
X11503588Y30384359D01*
X11548344Y30408007D01*
X11558451Y30408700D01*
X14707963Y30408700D01*
X14722399Y30407278D01*
X14740000Y30403777D01*
X14754861Y30406733D01*
X14764749Y30408700D01*
X14784450Y30412619D01*
X14804624Y30416632D01*
X14841128Y30414687D01*
X14866587Y30406733D01*
X14871854Y30406636D01*
X14871857Y30406636D01*
X14927826Y30405610D01*
X14996755Y30404347D01*
X15001838Y30405733D01*
X15001840Y30405733D01*
X15117270Y30437203D01*
X15117272Y30437204D01*
X15122360Y30438591D01*
X15233306Y30506712D01*
X15320672Y30603233D01*
X15377437Y30720396D01*
X15399037Y30848781D01*
X15399174Y30860000D01*
X15380718Y30988875D01*
X15369980Y31012491D01*
X15329014Y31102592D01*
X15329012Y31102594D01*
X15326832Y31107390D01*
X15323026Y31111808D01*
X15245290Y31202025D01*
X15245289Y31202026D01*
X15241850Y31206017D01*
X15237431Y31208881D01*
X15237429Y31208883D01*
X15137024Y31273961D01*
X15137025Y31273961D01*
X15132601Y31276828D01*
X15037236Y31305348D01*
X15012923Y31312619D01*
X15012922Y31312619D01*
X15007870Y31314130D01*
X14940340Y31314543D01*
X14882952Y31314894D01*
X14882950Y31314894D01*
X14877683Y31314926D01*
X14752505Y31279150D01*
X14642400Y31209679D01*
X14556219Y31112097D01*
X14500890Y30994249D01*
X14500079Y30989039D01*
X14497724Y30973915D01*
X14473300Y30929579D01*
X14424605Y30911300D01*
X11557382Y30911300D01*
X11509816Y30928613D01*
X11501322Y30936996D01*
X11445290Y31002025D01*
X11445289Y31002026D01*
X11441850Y31006017D01*
X11437431Y31008881D01*
X11437429Y31008883D01*
X11337024Y31073961D01*
X11337025Y31073961D01*
X11332601Y31076828D01*
X11230407Y31107390D01*
X11212923Y31112619D01*
X11212922Y31112619D01*
X11207870Y31114130D01*
X11140340Y31114543D01*
X11082952Y31114894D01*
X11082950Y31114894D01*
X11077683Y31114926D01*
X10952505Y31079150D01*
X10842400Y31009679D01*
X10756219Y30912097D01*
X10743415Y30884825D01*
X10738186Y30873688D01*
X10702299Y30837989D01*
X10651861Y30833709D01*
X10610473Y30862851D01*
X10597201Y30905137D01*
X10597201Y32665610D01*
X12680860Y32665610D01*
X12681543Y32660387D01*
X12681543Y32660384D01*
X12696590Y32545324D01*
X12697741Y32536519D01*
X12699864Y32531694D01*
X12740636Y32439033D01*
X12750174Y32417355D01*
X12761440Y32403953D01*
X12830556Y32321729D01*
X12830559Y32321726D01*
X12833946Y32317697D01*
X12869675Y32293914D01*
X12937931Y32248477D01*
X12937934Y32248475D01*
X12942320Y32245556D01*
X13066587Y32206733D01*
X13071855Y32206636D01*
X13071858Y32206636D01*
X13126432Y32205636D01*
X13196755Y32204347D01*
X13201838Y32205733D01*
X13201840Y32205733D01*
X13317270Y32237203D01*
X13317272Y32237204D01*
X13322360Y32238591D01*
X13433306Y32306712D01*
X13520672Y32403233D01*
X13577437Y32520396D01*
X13579941Y32535275D01*
X13593462Y32615646D01*
X13599037Y32648781D01*
X13599174Y32660000D01*
X13584050Y32765610D01*
X13780860Y32765610D01*
X13781543Y32760387D01*
X13781543Y32760384D01*
X13796507Y32645959D01*
X13797741Y32636519D01*
X13799864Y32631694D01*
X13827801Y32568203D01*
X13850174Y32517355D01*
X13853566Y32513320D01*
X13930556Y32421729D01*
X13930559Y32421726D01*
X13933946Y32417697D01*
X13954593Y32403953D01*
X14037931Y32348477D01*
X14037934Y32348475D01*
X14042320Y32345556D01*
X14166587Y32306733D01*
X14171855Y32306636D01*
X14171858Y32306636D01*
X14226432Y32305636D01*
X14296755Y32304347D01*
X14301838Y32305733D01*
X14301840Y32305733D01*
X14417270Y32337203D01*
X14417272Y32337204D01*
X14422360Y32338591D01*
X14533306Y32406712D01*
X14620672Y32503233D01*
X14677437Y32620396D01*
X14683705Y32657649D01*
X14696286Y32732427D01*
X14705274Y32748281D01*
X14701864Y32752345D01*
X14698148Y32767164D01*
X14695015Y32789039D01*
X14680718Y32888875D01*
X14670484Y32911384D01*
X14629014Y33002592D01*
X14629012Y33002594D01*
X14626832Y33007390D01*
X14622777Y33012097D01*
X14545290Y33102025D01*
X14545289Y33102026D01*
X14541850Y33106017D01*
X14537431Y33108881D01*
X14537429Y33108883D01*
X14437024Y33173961D01*
X14437025Y33173961D01*
X14432601Y33176828D01*
X14307870Y33214130D01*
X14240340Y33214543D01*
X14182952Y33214894D01*
X14182950Y33214894D01*
X14177683Y33214926D01*
X14052505Y33179150D01*
X13942400Y33109679D01*
X13856219Y33012097D01*
X13800890Y32894249D01*
X13780860Y32765610D01*
X13584050Y32765610D01*
X13580718Y32788875D01*
X13556982Y32841079D01*
X13529014Y32902592D01*
X13529012Y32902594D01*
X13526832Y32907390D01*
X13522777Y32912097D01*
X13445290Y33002025D01*
X13445289Y33002026D01*
X13441850Y33006017D01*
X13437431Y33008881D01*
X13437429Y33008883D01*
X13337024Y33073961D01*
X13337025Y33073961D01*
X13332601Y33076828D01*
X13225415Y33108883D01*
X13212923Y33112619D01*
X13212922Y33112619D01*
X13207870Y33114130D01*
X13140340Y33114543D01*
X13082952Y33114894D01*
X13082950Y33114894D01*
X13077683Y33114926D01*
X12952505Y33079150D01*
X12842400Y33009679D01*
X12756219Y32912097D01*
X12700890Y32794249D01*
X12680860Y32665610D01*
X10597201Y32665610D01*
X10597201Y34896094D01*
X10598623Y34910530D01*
X10600702Y34920982D01*
X10602124Y34928131D01*
X10582620Y35026183D01*
X10572601Y35041177D01*
X10527078Y35109308D01*
X10521016Y35113358D01*
X10515864Y35118510D01*
X10517591Y35120237D01*
X10494258Y35152053D01*
X10491300Y35172767D01*
X10491300Y35439521D01*
X10508613Y35487087D01*
X10526577Y35502581D01*
X10533306Y35506712D01*
X10620672Y35603233D01*
X10677437Y35720396D01*
X10679277Y35731327D01*
X10697960Y35842381D01*
X10699037Y35848781D01*
X10699174Y35860000D01*
X10680718Y35988875D01*
X10657416Y36040125D01*
X10629014Y36102592D01*
X10629012Y36102594D01*
X10626832Y36107390D01*
X10622777Y36112097D01*
X10545290Y36202025D01*
X10545289Y36202026D01*
X10541850Y36206017D01*
X10537431Y36208881D01*
X10537429Y36208883D01*
X10437024Y36273961D01*
X10437025Y36273961D01*
X10432601Y36276828D01*
X10307870Y36314130D01*
X10240340Y36314543D01*
X10182952Y36314894D01*
X10182950Y36314894D01*
X10177683Y36314926D01*
X10052505Y36279150D01*
X9942400Y36209679D01*
X9928952Y36194452D01*
X9867811Y36125222D01*
X9856219Y36112097D01*
X9800890Y35994249D01*
X9780860Y35865610D01*
X9781543Y35860387D01*
X9781543Y35860384D01*
X9789101Y35802592D01*
X9797741Y35736519D01*
X9799864Y35731694D01*
X9818633Y35689039D01*
X9850174Y35617355D01*
X9853566Y35613320D01*
X9930556Y35521729D01*
X9930559Y35521726D01*
X9933946Y35517697D01*
X9954590Y35503955D01*
X9955705Y35503213D01*
X9985707Y35462444D01*
X9988700Y35441613D01*
X9988700Y35387176D01*
X9971387Y35339610D01*
X9927550Y35314300D01*
X9908152Y35314046D01*
X9907870Y35314130D01*
X9840340Y35314543D01*
X9782952Y35314894D01*
X9782950Y35314894D01*
X9777683Y35314926D01*
X9652505Y35279150D01*
X9542400Y35209679D01*
X9456219Y35112097D01*
X9400890Y34994249D01*
X9380860Y34865610D01*
X9381543Y34860387D01*
X9381543Y34860384D01*
X9394401Y34762063D01*
X9397741Y34736519D01*
X9399864Y34731694D01*
X9418633Y34689039D01*
X9450174Y34617355D01*
X9458580Y34607355D01*
X9530556Y34521729D01*
X9530559Y34521726D01*
X9533946Y34517697D01*
X9553355Y34504777D01*
X9555705Y34503213D01*
X9585707Y34462444D01*
X9588700Y34441613D01*
X9588700Y27077938D01*
X9571387Y27030372D01*
X9527550Y27005062D01*
X9477700Y27013852D01*
X9445163Y27052629D01*
X9441053Y27070717D01*
X9437746Y27104444D01*
X9436194Y27120272D01*
X9427679Y27148477D01*
X9415511Y27188779D01*
X9379484Y27308106D01*
X9287370Y27481347D01*
X9223223Y27560000D01*
X9165648Y27630594D01*
X9165647Y27630595D01*
X9163361Y27633398D01*
X9012180Y27758465D01*
X9007472Y27761011D01*
X8842768Y27850066D01*
X8839585Y27851787D01*
X8836135Y27852855D01*
X8836130Y27852857D01*
X8717841Y27889473D01*
X8652152Y27909807D01*
X8457019Y27930317D01*
X8261618Y27912534D01*
X8232782Y27904047D01*
X8076864Y27858158D01*
X8076860Y27858156D01*
X8073393Y27857136D01*
X7994153Y27815710D01*
X7902719Y27767910D01*
X7902716Y27767908D01*
X7899512Y27766233D01*
X7896694Y27763967D01*
X7896692Y27763966D01*
X7749419Y27645556D01*
X7749416Y27645553D01*
X7746600Y27643289D01*
X7620480Y27492984D01*
X7618738Y27489816D01*
X7618737Y27489814D01*
X7612326Y27478152D01*
X7525956Y27321046D01*
X7524864Y27317603D01*
X7524863Y27317601D01*
X7468953Y27141350D01*
X7466628Y27134022D01*
X7466225Y27130426D01*
X7466224Y27130423D01*
X7463743Y27108306D01*
X7444757Y26939037D01*
X3067500Y26939037D01*
X3067500Y34244039D01*
X3086637Y34293699D01*
X3123680Y34334623D01*
X3127220Y34338534D01*
X3190330Y34468792D01*
X3214344Y34611527D01*
X3214496Y34624000D01*
X3212858Y34635443D01*
X3194724Y34762063D01*
X3193977Y34767279D01*
X3134069Y34899040D01*
X3069775Y34973656D01*
X3043027Y35004699D01*
X3043026Y35004700D01*
X3039587Y35008691D01*
X2978858Y35048054D01*
X2922551Y35084551D01*
X2922550Y35084552D01*
X2918129Y35087417D01*
X2913081Y35088927D01*
X2913078Y35088928D01*
X2784509Y35127378D01*
X2784508Y35127378D01*
X2779456Y35128889D01*
X2706008Y35129338D01*
X2639988Y35129741D01*
X2639987Y35129741D01*
X2634718Y35129773D01*
X2495549Y35089998D01*
X2373137Y35012762D01*
X2341089Y34976474D01*
X2281395Y34908883D01*
X2277324Y34904274D01*
X2272165Y34893285D01*
X2231837Y34807390D01*
X2215810Y34773255D01*
X2214999Y34768048D01*
X2214999Y34768047D01*
X2214067Y34762063D01*
X2193542Y34630237D01*
X2194225Y34625014D01*
X2194225Y34625011D01*
X2196358Y34608700D01*
X2212309Y34486718D01*
X2270603Y34354234D01*
X2283800Y34338534D01*
X2360348Y34247469D01*
X2360351Y34247466D01*
X2363738Y34243437D01*
X2368125Y34240517D01*
X2368126Y34240516D01*
X2379505Y34232941D01*
X2409508Y34192172D01*
X2412500Y34171341D01*
X2412500Y17077524D01*
X2412218Y17071074D01*
X2408713Y17031016D01*
X2410388Y17024763D01*
X2410389Y17024757D01*
X2419122Y16992166D01*
X2420519Y16985867D01*
X2427503Y16946261D01*
X2430741Y16940652D01*
X2432363Y16936196D01*
X2434928Y16930005D01*
X2436930Y16925712D01*
X2438606Y16919457D01*
X2442319Y16914155D01*
X2442320Y16914152D01*
X2461670Y16886519D01*
X2465139Y16881073D01*
X2485250Y16846240D01*
X2490211Y16842077D01*
X2490213Y16842075D01*
X2516063Y16820384D01*
X2520823Y16816023D01*
X4096035Y15240810D01*
X4100385Y15236064D01*
X4126240Y15205250D01*
X4131842Y15202016D01*
X4131844Y15202014D01*
X4144916Y15194468D01*
X4161082Y15185134D01*
X4166496Y15181684D01*
X4199457Y15158605D01*
X4205713Y15156929D01*
X4210015Y15154923D01*
X4216192Y15152364D01*
X4220657Y15150739D01*
X4226261Y15147503D01*
X4232635Y15146379D01*
X4265862Y15140520D01*
X4272163Y15139123D01*
X4288328Y15134792D01*
X4311016Y15128713D01*
X4351074Y15132218D01*
X4357524Y15132500D01*
X8120666Y15132500D01*
X8168232Y15115187D01*
X8177312Y15106116D01*
X8199738Y15079437D01*
X8320226Y14999234D01*
X8325258Y14997662D01*
X8325260Y14997661D01*
X8349455Y14990102D01*
X8458381Y14956071D01*
X8463648Y14955974D01*
X8463651Y14955974D01*
X8527465Y14954805D01*
X8603098Y14953419D01*
X8608181Y14954805D01*
X8608183Y14954805D01*
X8737653Y14990102D01*
X8737657Y14990104D01*
X8742742Y14991490D01*
X8866088Y15067225D01*
X8902925Y15107921D01*
X8959680Y15170623D01*
X8963220Y15174534D01*
X9026330Y15304792D01*
X9050344Y15447527D01*
X9050496Y15460000D01*
X9049200Y15469054D01*
X9030724Y15598063D01*
X9029977Y15603279D01*
X8970069Y15735040D01*
X8885440Y15833256D01*
X8867500Y15881560D01*
X8867500Y17358500D01*
X8884813Y17406066D01*
X8928650Y17431376D01*
X8941500Y17432500D01*
X10568500Y17432500D01*
X10616066Y17415187D01*
X10641376Y17371350D01*
X10642500Y17358500D01*
X10642500Y15849237D01*
X10625187Y15801671D01*
X10588836Y15778087D01*
X10511549Y15755998D01*
X10389137Y15678762D01*
X10293324Y15570274D01*
X10291085Y15565505D01*
X10237037Y15450387D01*
X10231810Y15439255D01*
X10209542Y15296237D01*
X10210225Y15291014D01*
X10210225Y15291011D01*
X10216790Y15240810D01*
X10228309Y15152718D01*
X10286603Y15020234D01*
X10379738Y14909437D01*
X10500226Y14829234D01*
X10505258Y14827662D01*
X10505260Y14827661D01*
X10529455Y14820102D01*
X10638381Y14786071D01*
X10643648Y14785974D01*
X10643651Y14785974D01*
X10707465Y14784805D01*
X10783098Y14783419D01*
X10788181Y14784805D01*
X10788183Y14784805D01*
X10917653Y14820102D01*
X10917657Y14820104D01*
X10922742Y14821490D01*
X10927233Y14824248D01*
X10927241Y14824251D01*
X11023462Y14883332D01*
X11073056Y14893468D01*
X11117562Y14869354D01*
X11132002Y14844790D01*
X11160981Y14762271D01*
X11166098Y14752605D01*
X11239922Y14652657D01*
X11247657Y14644922D01*
X11347605Y14571098D01*
X11357271Y14565981D01*
X11475475Y14524471D01*
X11484210Y14522554D01*
X11503864Y14520696D01*
X11511948Y14523638D01*
X11515000Y14528925D01*
X11515000Y16021000D01*
X11532313Y16068566D01*
X11576150Y16093876D01*
X11589000Y16095000D01*
X11791000Y16095000D01*
X11838566Y16077687D01*
X11863876Y16033850D01*
X11865000Y16021000D01*
X11865000Y14533049D01*
X11868638Y14523053D01*
X11873200Y14520420D01*
X11895784Y14522554D01*
X11904530Y14524472D01*
X12022731Y14565981D01*
X12030076Y14569870D01*
X12080214Y14576825D01*
X12123094Y14549925D01*
X12138700Y14504470D01*
X12138700Y12004744D01*
X12121387Y11957178D01*
X12117026Y11952418D01*
X10690081Y10525473D01*
X10644205Y10504081D01*
X10637755Y10503799D01*
X8794608Y10503799D01*
X8747042Y10521112D01*
X8721732Y10564949D01*
X8724103Y10600196D01*
X8726330Y10604792D01*
X8750344Y10747527D01*
X8750496Y10760000D01*
X8748996Y10770478D01*
X8730724Y10898063D01*
X8729977Y10903279D01*
X8670069Y11035040D01*
X8575587Y11144691D01*
X8493862Y11197663D01*
X8458551Y11220551D01*
X8458550Y11220552D01*
X8454129Y11223417D01*
X8449081Y11224927D01*
X8449078Y11224928D01*
X8320509Y11263378D01*
X8320508Y11263378D01*
X8315456Y11264889D01*
X8242008Y11265338D01*
X8175988Y11265741D01*
X8175987Y11265741D01*
X8170718Y11265773D01*
X8031549Y11225998D01*
X8027094Y11223187D01*
X8022276Y11221032D01*
X8021389Y11223015D01*
X7991931Y11214500D01*
X5158912Y11214500D01*
X5111346Y11231813D01*
X5106586Y11236174D01*
X4531538Y11811222D01*
X4516500Y11832920D01*
X4510894Y11845251D01*
X4470069Y11935040D01*
X4407222Y12007977D01*
X4379027Y12040699D01*
X4379026Y12040700D01*
X4375587Y12044691D01*
X4254129Y12123417D01*
X4249081Y12124927D01*
X4249078Y12124928D01*
X4120509Y12163378D01*
X4120508Y12163378D01*
X4115456Y12164889D01*
X4042008Y12165338D01*
X3975988Y12165741D01*
X3975987Y12165741D01*
X3970718Y12165773D01*
X3831549Y12125998D01*
X3709137Y12048762D01*
X3613324Y11940274D01*
X3551810Y11809255D01*
X3550999Y11804048D01*
X3550999Y11804047D01*
X3550222Y11799057D01*
X3529542Y11666237D01*
X3530225Y11661014D01*
X3530225Y11661011D01*
X3530629Y11657924D01*
X3548309Y11522718D01*
X3550432Y11517893D01*
X3590647Y11426498D01*
X3606603Y11390234D01*
X3699738Y11279437D01*
X3820226Y11199234D01*
X3837924Y11193705D01*
X3857792Y11187497D01*
X3888050Y11169190D01*
X4427115Y10630125D01*
X4448507Y10584249D01*
X4435406Y10535354D01*
X4393942Y10506320D01*
X4374789Y10503799D01*
X1932483Y10503799D01*
X1884917Y10521112D01*
X1865119Y10547170D01*
X1849014Y10582592D01*
X1849012Y10582594D01*
X1846832Y10587390D01*
X1842777Y10592097D01*
X1765290Y10682025D01*
X1765289Y10682026D01*
X1761850Y10686017D01*
X1757431Y10688881D01*
X1757429Y10688883D01*
X1682879Y10737203D01*
X1652601Y10756828D01*
X1527870Y10794130D01*
X1460340Y10794543D01*
X1402952Y10794894D01*
X1402950Y10794894D01*
X1397683Y10794926D01*
X1272505Y10759150D01*
X1162400Y10689679D01*
X1109804Y10630125D01*
X1079911Y10596277D01*
X1076219Y10592097D01*
X1020890Y10474249D01*
X1000860Y10345610D01*
X1001543Y10340387D01*
X1001543Y10340384D01*
X1013525Y10248762D01*
X1017741Y10216519D01*
X1070174Y10097355D01*
X1073566Y10093320D01*
X1150556Y10001729D01*
X1150559Y10001726D01*
X1153946Y9997697D01*
X1174318Y9984136D01*
X1257931Y9928477D01*
X1257934Y9928475D01*
X1262320Y9925556D01*
X1386587Y9886733D01*
X1391855Y9886636D01*
X1391858Y9886636D01*
X1446432Y9885636D01*
X1516755Y9884347D01*
X1521838Y9885733D01*
X1521840Y9885733D01*
X1637270Y9917203D01*
X1637272Y9917204D01*
X1642360Y9918591D01*
X1678181Y9940585D01*
X1748817Y9983955D01*
X1748820Y9983958D01*
X1753306Y9986712D01*
X1753826Y9985866D01*
X1796301Y10001199D01*
X10740462Y10001199D01*
X10754898Y9999777D01*
X10772499Y9996276D01*
X10797248Y10001199D01*
X10839880Y10009679D01*
X10863404Y10014358D01*
X10863406Y10014359D01*
X10870551Y10015780D01*
X10932695Y10057303D01*
X10953676Y10071322D01*
X10963649Y10086247D01*
X10972849Y10097457D01*
X12545042Y11669650D01*
X12556252Y11678850D01*
X12571177Y11688823D01*
X12626719Y11771948D01*
X12631938Y11798182D01*
X12641300Y11845251D01*
X12644801Y11862851D01*
X12646223Y11870000D01*
X12642722Y11887601D01*
X12641300Y11902037D01*
X12641300Y14713563D01*
X12658613Y14761129D01*
X12674186Y14775090D01*
X12695601Y14789399D01*
X12695602Y14789400D01*
X12696733Y14787707D01*
X12733550Y14804875D01*
X12782445Y14791774D01*
X12783281Y14791073D01*
X12784399Y14789399D01*
X12788702Y14786524D01*
X12861201Y14738082D01*
X12861203Y14738081D01*
X12867260Y14734034D01*
X12874405Y14732613D01*
X12874407Y14732612D01*
X12936756Y14720210D01*
X12936757Y14720210D01*
X12940326Y14719500D01*
X13239674Y14719500D01*
X13243243Y14720210D01*
X13243244Y14720210D01*
X13305593Y14732612D01*
X13305595Y14732613D01*
X13312740Y14734034D01*
X13318797Y14738081D01*
X13318799Y14738082D01*
X13395601Y14789399D01*
X13396732Y14787707D01*
X13433550Y14804875D01*
X13482445Y14791774D01*
X13483281Y14791073D01*
X13484399Y14789399D01*
X13488702Y14786524D01*
X13561201Y14738082D01*
X13561203Y14738081D01*
X13567260Y14734034D01*
X13574405Y14732613D01*
X13574407Y14732612D01*
X13636756Y14720210D01*
X13636757Y14720210D01*
X13640326Y14719500D01*
X13939674Y14719500D01*
X13943245Y14720210D01*
X13945039Y14720387D01*
X13994073Y14707820D01*
X14011817Y14690708D01*
X14039922Y14652657D01*
X14047657Y14644922D01*
X14147605Y14571098D01*
X14157271Y14565981D01*
X14275475Y14524471D01*
X14284210Y14522554D01*
X14303864Y14520696D01*
X14311948Y14523638D01*
X14315000Y14528925D01*
X14315000Y14533049D01*
X14665000Y14533049D01*
X14668638Y14523053D01*
X14673200Y14520420D01*
X14695784Y14522554D01*
X14704530Y14524473D01*
X14815481Y14563435D01*
X14864519Y14563435D01*
X14975475Y14524471D01*
X14984210Y14522554D01*
X15003864Y14520696D01*
X15011948Y14523638D01*
X15015000Y14528925D01*
X15015000Y15731952D01*
X15011362Y15741948D01*
X15006075Y15745000D01*
X14678048Y15745000D01*
X14668052Y15741362D01*
X14665000Y15736075D01*
X14665000Y14533049D01*
X14315000Y14533049D01*
X14315000Y16108048D01*
X14665000Y16108048D01*
X14668638Y16098052D01*
X14673925Y16095000D01*
X15001952Y16095000D01*
X15011948Y16098638D01*
X15015000Y16103925D01*
X15015000Y17306951D01*
X15011362Y17316947D01*
X15006800Y17319580D01*
X14984216Y17317446D01*
X14975470Y17315527D01*
X14864519Y17276565D01*
X14815481Y17276565D01*
X14704525Y17315529D01*
X14695790Y17317446D01*
X14676136Y17319304D01*
X14668052Y17316362D01*
X14665000Y17311075D01*
X14665000Y16108048D01*
X14315000Y16108048D01*
X14315000Y17306951D01*
X14311362Y17316947D01*
X14306800Y17319580D01*
X14284216Y17317446D01*
X14275470Y17315528D01*
X14216019Y17294650D01*
X14165403Y17295224D01*
X14126998Y17328200D01*
X14117500Y17364470D01*
X14117500Y17692476D01*
X14117782Y17698926D01*
X14120722Y17732531D01*
X14121287Y17738984D01*
X14110877Y17777837D01*
X14109480Y17784138D01*
X14103621Y17817365D01*
X14102497Y17823739D01*
X14099261Y17829343D01*
X14097636Y17833808D01*
X14095077Y17839985D01*
X14093071Y17844287D01*
X14091395Y17850543D01*
X14068316Y17883504D01*
X14064866Y17888918D01*
X14044750Y17923760D01*
X14039794Y17927919D01*
X14039792Y17927921D01*
X14013948Y17949606D01*
X14009188Y17953967D01*
X13983974Y17979181D01*
X13979613Y17983940D01*
X13957922Y18009790D01*
X13953760Y18014750D01*
X13948150Y18017989D01*
X13918927Y18034861D01*
X13913481Y18038330D01*
X13885848Y18057680D01*
X13885845Y18057681D01*
X13880543Y18061394D01*
X13874288Y18063070D01*
X13869995Y18065072D01*
X13863804Y18067637D01*
X13859348Y18069259D01*
X13853739Y18072497D01*
X13814133Y18079481D01*
X13807834Y18080878D01*
X13775243Y18089611D01*
X13775237Y18089612D01*
X13768984Y18091287D01*
X13728926Y18087782D01*
X13722476Y18087500D01*
X13520928Y18087500D01*
X13473362Y18104813D01*
X13448052Y18148650D01*
X13456842Y18198500D01*
X13495619Y18231037D01*
X13501459Y18232893D01*
X13522360Y18238591D01*
X13633306Y18306712D01*
X13658448Y18334488D01*
X13703202Y18358135D01*
X13752687Y18347482D01*
X13769955Y18332445D01*
X13773946Y18327697D01*
X13778337Y18324774D01*
X13877931Y18258477D01*
X13877934Y18258475D01*
X13882320Y18255556D01*
X14006587Y18216733D01*
X14011855Y18216636D01*
X14011858Y18216636D01*
X14066432Y18215636D01*
X14136755Y18214347D01*
X14141838Y18215733D01*
X14141840Y18215733D01*
X14257270Y18247203D01*
X14257272Y18247204D01*
X14262360Y18248591D01*
X14317840Y18282656D01*
X14368813Y18313953D01*
X14368814Y18313954D01*
X14373306Y18316712D01*
X14460672Y18413233D01*
X14517437Y18530396D01*
X14518468Y18536519D01*
X14538562Y18655959D01*
X14539037Y18658781D01*
X14539174Y18670000D01*
X14520718Y18798875D01*
X14495532Y18854268D01*
X14469014Y18912592D01*
X14469012Y18912594D01*
X14466832Y18917390D01*
X14431063Y18958903D01*
X14385290Y19012025D01*
X14385289Y19012026D01*
X14381850Y19016017D01*
X14377431Y19018881D01*
X14377429Y19018883D01*
X14277024Y19083961D01*
X14277025Y19083961D01*
X14272601Y19086828D01*
X14170892Y19117245D01*
X14152923Y19122619D01*
X14152922Y19122619D01*
X14147870Y19124130D01*
X14080340Y19124543D01*
X14022952Y19124894D01*
X14022950Y19124894D01*
X14017683Y19124926D01*
X13892505Y19089150D01*
X13782400Y19019679D01*
X13761453Y18995961D01*
X13716992Y18971769D01*
X13667380Y18981816D01*
X13649928Y18996642D01*
X13645290Y19002025D01*
X13645289Y19002026D01*
X13641850Y19006017D01*
X13637432Y19008881D01*
X13637428Y19008884D01*
X13635374Y19010215D01*
X13634357Y19011562D01*
X13633453Y19012351D01*
X13633619Y19012541D01*
X13604879Y19050617D01*
X13608321Y19095372D01*
X13605795Y19096178D01*
X13607398Y19101203D01*
X13609697Y19105947D01*
X13631297Y19234332D01*
X13631434Y19245551D01*
X13612978Y19374426D01*
X13559092Y19492941D01*
X13555037Y19497648D01*
X13477550Y19587576D01*
X13477549Y19587577D01*
X13474110Y19591568D01*
X13469691Y19594432D01*
X13469689Y19594434D01*
X13425846Y19622851D01*
X13387957Y19647409D01*
X13357460Y19687807D01*
X13360064Y19738359D01*
X13364912Y19747298D01*
X13366592Y19749154D01*
X13423357Y19866317D01*
X13432369Y19919879D01*
X13444482Y19991880D01*
X13444957Y19994702D01*
X13445094Y20005921D01*
X13426638Y20134796D01*
X13372752Y20253311D01*
X13368697Y20258018D01*
X13291210Y20347946D01*
X13291209Y20347947D01*
X13287770Y20351938D01*
X13263627Y20367587D01*
X13233129Y20407984D01*
X13235733Y20458536D01*
X13270222Y20495587D01*
X13305231Y20503671D01*
X13331747Y20503185D01*
X13331751Y20503185D01*
X13337015Y20503089D01*
X13342098Y20504475D01*
X13342100Y20504475D01*
X13471570Y20539772D01*
X13471574Y20539774D01*
X13476659Y20541160D01*
X13600005Y20616895D01*
X13637058Y20657831D01*
X13681813Y20681477D01*
X13691920Y20682170D01*
X14972146Y20682170D01*
X14978596Y20681888D01*
X15018654Y20678383D01*
X15024907Y20680058D01*
X15024913Y20680059D01*
X15057504Y20688792D01*
X15063803Y20690189D01*
X15103409Y20697173D01*
X15109018Y20700411D01*
X15113474Y20702033D01*
X15119665Y20704598D01*
X15123958Y20706600D01*
X15130213Y20708276D01*
X15135515Y20711989D01*
X15135518Y20711990D01*
X15163151Y20731340D01*
X15168597Y20734809D01*
X15197820Y20751681D01*
X15203430Y20754920D01*
X15229285Y20785733D01*
X15233646Y20790492D01*
X15359189Y20916034D01*
X15363949Y20920395D01*
X15389792Y20942079D01*
X15389794Y20942082D01*
X15394750Y20946240D01*
X15414866Y20981082D01*
X15418316Y20986496D01*
X15441395Y21019457D01*
X15443071Y21025713D01*
X15445077Y21030015D01*
X15447636Y21036192D01*
X15449261Y21040657D01*
X15452497Y21046261D01*
X15459480Y21085862D01*
X15460877Y21092163D01*
X15469611Y21124761D01*
X15471287Y21131016D01*
X15467782Y21171074D01*
X15467500Y21177524D01*
X15467500Y23540267D01*
X15486637Y23589926D01*
X15509837Y23615557D01*
X15554593Y23639205D01*
X15604078Y23628551D01*
X15635138Y23588581D01*
X15638700Y23565898D01*
X15638700Y17335530D01*
X15621387Y17287964D01*
X15577550Y17262654D01*
X15530076Y17270130D01*
X15522731Y17274019D01*
X15404525Y17315529D01*
X15395790Y17317446D01*
X15376136Y17319304D01*
X15368052Y17316362D01*
X15365000Y17311075D01*
X15365000Y14533049D01*
X15368638Y14523053D01*
X15373200Y14520420D01*
X15395784Y14522554D01*
X15404530Y14524472D01*
X15522729Y14565981D01*
X15532395Y14571098D01*
X15632343Y14644922D01*
X15640078Y14652657D01*
X15668183Y14690708D01*
X15710369Y14718683D01*
X15734961Y14720387D01*
X15736755Y14720210D01*
X15740326Y14719500D01*
X16039674Y14719500D01*
X16043245Y14720210D01*
X16045039Y14720387D01*
X16094073Y14707820D01*
X16111817Y14690708D01*
X16139922Y14652657D01*
X16147657Y14644922D01*
X16247605Y14571098D01*
X16257271Y14565981D01*
X16375475Y14524471D01*
X16384210Y14522554D01*
X16403864Y14520696D01*
X16411948Y14523638D01*
X16415000Y14528925D01*
X16415000Y17306951D01*
X16411362Y17316947D01*
X16406800Y17319580D01*
X16384216Y17317446D01*
X16375470Y17315528D01*
X16257269Y17274019D01*
X16249924Y17270130D01*
X16199786Y17263175D01*
X16156906Y17290075D01*
X16141300Y17335530D01*
X16141300Y27141213D01*
X16158613Y27188779D01*
X16202450Y27214089D01*
X16256305Y27202813D01*
X16337931Y27148477D01*
X16337934Y27148475D01*
X16342320Y27145556D01*
X16466587Y27106733D01*
X16471855Y27106636D01*
X16471858Y27106636D01*
X16526432Y27105636D01*
X16596755Y27104347D01*
X16601838Y27105733D01*
X16601840Y27105733D01*
X16717270Y27137203D01*
X16717272Y27137204D01*
X16722360Y27138591D01*
X16833306Y27206712D01*
X16909838Y27291263D01*
X16954593Y27314910D01*
X17004078Y27304257D01*
X17035138Y27264287D01*
X17038700Y27241604D01*
X17038700Y17335530D01*
X17021387Y17287964D01*
X16977550Y17262654D01*
X16930076Y17270130D01*
X16922731Y17274019D01*
X16804525Y17315529D01*
X16795790Y17317446D01*
X16776136Y17319304D01*
X16768052Y17316362D01*
X16765000Y17311075D01*
X16765000Y14533049D01*
X16768638Y14523053D01*
X16773200Y14520420D01*
X16795784Y14522554D01*
X16804530Y14524472D01*
X16922729Y14565981D01*
X16932395Y14571098D01*
X17032343Y14644922D01*
X17040078Y14652657D01*
X17068183Y14690708D01*
X17110369Y14718683D01*
X17134961Y14720387D01*
X17136755Y14720210D01*
X17140326Y14719500D01*
X17439674Y14719500D01*
X17443243Y14720210D01*
X17443244Y14720210D01*
X17505593Y14732612D01*
X17505595Y14732613D01*
X17512740Y14734034D01*
X17518797Y14738081D01*
X17518799Y14738082D01*
X17595601Y14789399D01*
X17596732Y14787707D01*
X17633550Y14804875D01*
X17682445Y14791774D01*
X17683281Y14791073D01*
X17684399Y14789399D01*
X17688702Y14786524D01*
X17761201Y14738082D01*
X17761203Y14738081D01*
X17767260Y14734034D01*
X17774405Y14732613D01*
X17774407Y14732612D01*
X17836756Y14720210D01*
X17836757Y14720210D01*
X17840326Y14719500D01*
X18139674Y14719500D01*
X18143243Y14720210D01*
X18143244Y14720210D01*
X18205593Y14732612D01*
X18205595Y14732613D01*
X18212740Y14734034D01*
X18218797Y14738081D01*
X18218799Y14738082D01*
X18295601Y14789399D01*
X18296732Y14787707D01*
X18333550Y14804875D01*
X18382445Y14791774D01*
X18383281Y14791073D01*
X18384399Y14789399D01*
X18388702Y14786524D01*
X18461201Y14738082D01*
X18461203Y14738081D01*
X18467260Y14734034D01*
X18474405Y14732613D01*
X18474407Y14732612D01*
X18536756Y14720210D01*
X18536757Y14720210D01*
X18540326Y14719500D01*
X18839674Y14719500D01*
X18843245Y14720210D01*
X18845039Y14720387D01*
X18894073Y14707820D01*
X18911817Y14690708D01*
X18939922Y14652657D01*
X18947657Y14644922D01*
X19047605Y14571098D01*
X19057271Y14565981D01*
X19175475Y14524471D01*
X19184210Y14522554D01*
X19203864Y14520696D01*
X19211948Y14523638D01*
X19215000Y14528925D01*
X19215000Y17306951D01*
X19211362Y17316947D01*
X19206800Y17319580D01*
X19184216Y17317446D01*
X19175470Y17315528D01*
X19057271Y17274019D01*
X19047605Y17268902D01*
X19039264Y17262741D01*
X18990717Y17248408D01*
X18944314Y17268634D01*
X18921768Y17313954D01*
X18921300Y17322266D01*
X18921300Y17367963D01*
X18922722Y17382400D01*
X18924801Y17392851D01*
X18926223Y17400000D01*
X18919758Y17432500D01*
X18908141Y17490905D01*
X18908140Y17490907D01*
X18906719Y17498052D01*
X18865196Y17560196D01*
X18851177Y17581177D01*
X18836252Y17591150D01*
X18825042Y17600350D01*
X17972974Y18452418D01*
X17951582Y18498294D01*
X17951300Y18504744D01*
X17951300Y31605256D01*
X17968613Y31652822D01*
X17972974Y31657582D01*
X18100327Y31784935D01*
X18146203Y31806327D01*
X18154008Y31806597D01*
X18276755Y31804347D01*
X18281838Y31805733D01*
X18281840Y31805733D01*
X18397270Y31837203D01*
X18397272Y31837204D01*
X18402360Y31838591D01*
X18486469Y31890234D01*
X18508813Y31903953D01*
X18508814Y31903954D01*
X18513306Y31906712D01*
X18600672Y32003233D01*
X18657437Y32120396D01*
X18660919Y32141088D01*
X18677089Y32237203D01*
X18679037Y32248781D01*
X18679174Y32260000D01*
X18660718Y32388875D01*
X18650830Y32410622D01*
X18609014Y32502592D01*
X18609012Y32502594D01*
X18606832Y32507390D01*
X18602777Y32512097D01*
X18525290Y32602025D01*
X18525289Y32602026D01*
X18521850Y32606017D01*
X18517431Y32608881D01*
X18517429Y32608883D01*
X18437971Y32660384D01*
X18412601Y32676828D01*
X18287870Y32714130D01*
X18220340Y32714543D01*
X18162952Y32714894D01*
X18162950Y32714894D01*
X18157683Y32714926D01*
X18032505Y32679150D01*
X17922400Y32609679D01*
X17918913Y32605731D01*
X17918911Y32605729D01*
X17878054Y32559467D01*
X17833591Y32535275D01*
X17783979Y32545324D01*
X17752434Y32584911D01*
X17748589Y32608453D01*
X17748589Y38782545D01*
X17765902Y38830111D01*
X17770263Y38834871D01*
X18720327Y39784935D01*
X18766203Y39806327D01*
X18774008Y39806597D01*
X18896755Y39804347D01*
X18901838Y39805733D01*
X18901840Y39805733D01*
X19017270Y39837203D01*
X19017272Y39837204D01*
X19022360Y39838591D01*
X19108542Y39891507D01*
X19128813Y39903953D01*
X19128814Y39903954D01*
X19133306Y39906712D01*
X19220672Y40003233D01*
X19277437Y40120396D01*
X19278624Y40127447D01*
X19297889Y40241957D01*
X19299037Y40248781D01*
X19299174Y40260000D01*
X19280718Y40388875D01*
X19252179Y40451643D01*
X19229014Y40502592D01*
X19229012Y40502594D01*
X19226832Y40507390D01*
X19222777Y40512097D01*
X19145290Y40602025D01*
X19145289Y40602026D01*
X19141850Y40606017D01*
X19137431Y40608881D01*
X19137429Y40608883D01*
X19037024Y40673961D01*
X19037025Y40673961D01*
X19032601Y40676828D01*
X18930407Y40707390D01*
X18912923Y40712619D01*
X18912922Y40712619D01*
X18907870Y40714130D01*
X18840340Y40714543D01*
X18782952Y40714894D01*
X18782950Y40714894D01*
X18777683Y40714926D01*
X18652505Y40679150D01*
X18542400Y40609679D01*
X18456219Y40512097D01*
X18400890Y40394249D01*
X18380860Y40265610D01*
X18381543Y40260387D01*
X18381543Y40260384D01*
X18388780Y40205044D01*
X18377781Y40155634D01*
X18367731Y40143123D01*
X17873970Y39649362D01*
X17828094Y39627970D01*
X17779199Y39641071D01*
X17754280Y39671060D01*
X17723115Y39739605D01*
X17723113Y39739608D01*
X17720932Y39744405D01*
X17686010Y39784935D01*
X17639390Y39839040D01*
X17639389Y39839041D01*
X17635950Y39843032D01*
X17631531Y39845896D01*
X17631529Y39845898D01*
X17591076Y39872118D01*
X17561160Y39891508D01*
X17530663Y39931906D01*
X17533267Y39982458D01*
X17549084Y40005930D01*
X17924837Y40381682D01*
X18326253Y40783098D01*
X18372130Y40804490D01*
X18379931Y40804760D01*
X18453098Y40803419D01*
X18458181Y40804805D01*
X18458183Y40804805D01*
X18587653Y40840102D01*
X18587657Y40840104D01*
X18592742Y40841490D01*
X18716088Y40917225D01*
X18736289Y40939542D01*
X18809680Y41020623D01*
X18813220Y41024534D01*
X18876330Y41154792D01*
X18881155Y41183472D01*
X18897664Y41281596D01*
X18922628Y41325630D01*
X18970057Y41343316D01*
X19017758Y41326377D01*
X19022964Y41321644D01*
X19599125Y40745483D01*
X19620517Y40699607D01*
X19620799Y40693157D01*
X19620799Y30103715D01*
X19603486Y30056149D01*
X19559649Y30030839D01*
X19509799Y30039629D01*
X19475773Y30082946D01*
X19475565Y30083656D01*
X19474818Y30088875D01*
X19436604Y30172922D01*
X19423114Y30202592D01*
X19423112Y30202594D01*
X19420932Y30207390D01*
X19416877Y30212097D01*
X19339390Y30302025D01*
X19339389Y30302026D01*
X19335950Y30306017D01*
X19331531Y30308881D01*
X19331529Y30308883D01*
X19231124Y30373961D01*
X19231125Y30373961D01*
X19226701Y30376828D01*
X19101970Y30414130D01*
X19034440Y30414543D01*
X18977052Y30414894D01*
X18977050Y30414894D01*
X18971783Y30414926D01*
X18846605Y30379150D01*
X18736500Y30309679D01*
X18689134Y30256047D01*
X18654586Y30216928D01*
X18650319Y30212097D01*
X18594990Y30094249D01*
X18574960Y29965610D01*
X18575643Y29960387D01*
X18575643Y29960384D01*
X18586413Y29878029D01*
X18591841Y29836519D01*
X18593964Y29831694D01*
X18602938Y29811300D01*
X18644274Y29717355D01*
X18647666Y29713320D01*
X18724656Y29621729D01*
X18724659Y29621726D01*
X18728046Y29617697D01*
X18748693Y29603953D01*
X18832031Y29548477D01*
X18832034Y29548475D01*
X18836420Y29545556D01*
X18960687Y29506733D01*
X18965955Y29506636D01*
X18965958Y29506636D01*
X19020532Y29505636D01*
X19090855Y29504347D01*
X19095938Y29505733D01*
X19095940Y29505733D01*
X19211370Y29537203D01*
X19211372Y29537204D01*
X19216460Y29538591D01*
X19327406Y29606712D01*
X19414772Y29703233D01*
X19471537Y29820396D01*
X19472920Y29828613D01*
X19473825Y29833995D01*
X19498789Y29878029D01*
X19546218Y29895715D01*
X19593919Y29878776D01*
X19619572Y29835138D01*
X19620799Y29821717D01*
X19620799Y17387375D01*
X19603486Y17339809D01*
X19572109Y17317838D01*
X19568052Y17316361D01*
X19565000Y17311075D01*
X19565000Y14533049D01*
X19568638Y14523053D01*
X19583800Y14514299D01*
X19616337Y14475522D01*
X19620799Y14450214D01*
X19620799Y13724172D01*
X19603486Y13676606D01*
X19559649Y13651296D01*
X19509799Y13660086D01*
X19490739Y13675868D01*
X19409027Y13770699D01*
X19409026Y13770700D01*
X19405587Y13774691D01*
X19284129Y13853417D01*
X19279081Y13854927D01*
X19279078Y13854928D01*
X19150509Y13893378D01*
X19150508Y13893378D01*
X19145456Y13894889D01*
X19072008Y13895338D01*
X19005988Y13895741D01*
X19005987Y13895741D01*
X19000718Y13895773D01*
X18861549Y13855998D01*
X18739137Y13778762D01*
X18643324Y13670274D01*
X18581810Y13539255D01*
X18580999Y13534048D01*
X18580999Y13534047D01*
X18576706Y13506474D01*
X18559542Y13396237D01*
X18560225Y13391014D01*
X18560225Y13391011D01*
X18567614Y13334507D01*
X18578309Y13252718D01*
X18636603Y13120234D01*
X18729738Y13009437D01*
X18850226Y12929234D01*
X18855258Y12927662D01*
X18855260Y12927661D01*
X18879455Y12920102D01*
X18988381Y12886071D01*
X18993648Y12885974D01*
X18993651Y12885974D01*
X19057465Y12884805D01*
X19133098Y12883419D01*
X19138181Y12884805D01*
X19138183Y12884805D01*
X19267653Y12920102D01*
X19267657Y12920104D01*
X19272742Y12921490D01*
X19396088Y12997225D01*
X19407142Y13009437D01*
X19491936Y13103115D01*
X19536692Y13126762D01*
X19586178Y13116107D01*
X19617237Y13076138D01*
X19620799Y13053455D01*
X19620799Y12355249D01*
X19619377Y12340813D01*
X19615876Y12323212D01*
X19617298Y12316063D01*
X19620799Y12298463D01*
X19631243Y12245959D01*
X19635380Y12225160D01*
X19690922Y12142035D01*
X19705847Y12132062D01*
X19717057Y12122862D01*
X19805507Y12034412D01*
X19826899Y11988536D01*
X19826300Y11970704D01*
X19818860Y11922921D01*
X19819543Y11917698D01*
X19819543Y11917697D01*
X19834566Y11802817D01*
X19835741Y11793830D01*
X19837864Y11789005D01*
X19842225Y11779095D01*
X19888174Y11674666D01*
X19902247Y11657924D01*
X19968556Y11579040D01*
X19968559Y11579037D01*
X19971946Y11575008D01*
X19976333Y11572088D01*
X20075931Y11505788D01*
X20075934Y11505786D01*
X20080320Y11502867D01*
X20204587Y11464044D01*
X20209855Y11463947D01*
X20209858Y11463947D01*
X20264432Y11462947D01*
X20334755Y11461658D01*
X20339841Y11463045D01*
X20345071Y11463696D01*
X20345239Y11462346D01*
X20389583Y11458660D01*
X20425531Y11423022D01*
X20432600Y11391458D01*
X20432600Y10349711D01*
X20414066Y10300726D01*
X20364578Y10244691D01*
X20333424Y10209416D01*
X20331185Y10204647D01*
X20287760Y10112155D01*
X20271910Y10078397D01*
X20249642Y9935379D01*
X20250325Y9930156D01*
X20250325Y9930153D01*
X20253929Y9902592D01*
X20268409Y9791860D01*
X20326703Y9659376D01*
X20419838Y9548579D01*
X20540326Y9468376D01*
X20545358Y9466804D01*
X20545360Y9466803D01*
X20585093Y9454390D01*
X20678481Y9425213D01*
X20683748Y9425116D01*
X20683751Y9425116D01*
X20747565Y9423947D01*
X20823198Y9422561D01*
X20828281Y9423947D01*
X20828283Y9423947D01*
X20882135Y9438629D01*
X20932580Y9434438D01*
X20968529Y9398801D01*
X20975599Y9367235D01*
X20975599Y2501286D01*
X20975086Y2492590D01*
X20970692Y2455463D01*
X20971685Y2450026D01*
X20971685Y2450024D01*
X20981473Y2396428D01*
X20981854Y2394137D01*
X20989960Y2340223D01*
X20989962Y2340216D01*
X20990784Y2334750D01*
X20993126Y2329873D01*
X20993231Y2329440D01*
X20993314Y2329199D01*
X20994029Y2326997D01*
X20994103Y2326755D01*
X20994274Y2326338D01*
X20995246Y2321018D01*
X20997794Y2316113D01*
X21022918Y2267747D01*
X21023953Y2265676D01*
X21049945Y2211548D01*
X21053614Y2207579D01*
X21054190Y2206613D01*
X21056303Y2203478D01*
X21058247Y2199735D01*
X21062593Y2194647D01*
X21100918Y2156322D01*
X21102932Y2154227D01*
X21142716Y2111189D01*
X21147499Y2108411D01*
X21151011Y2105597D01*
X21157068Y2100172D01*
X21849326Y1407914D01*
X21864733Y1385391D01*
X21882816Y1344294D01*
X21906603Y1290234D01*
X21999738Y1179437D01*
X22120226Y1099234D01*
X22125258Y1097662D01*
X22125260Y1097661D01*
X22149455Y1090102D01*
X22258381Y1056071D01*
X22263648Y1055974D01*
X22263651Y1055974D01*
X22327465Y1054805D01*
X22403098Y1053419D01*
X22408181Y1054805D01*
X22408183Y1054805D01*
X22537653Y1090102D01*
X22537657Y1090104D01*
X22542742Y1091490D01*
X22666088Y1167225D01*
X22675953Y1178123D01*
X22759680Y1270623D01*
X22763220Y1274534D01*
X22826330Y1404792D01*
X22850344Y1547527D01*
X22850496Y1560000D01*
X22847128Y1583522D01*
X22830724Y1698063D01*
X22829977Y1703279D01*
X22770069Y1835040D01*
X22683983Y1934947D01*
X22679027Y1940699D01*
X22679026Y1940700D01*
X22675587Y1944691D01*
X22614858Y1984054D01*
X22558551Y2020551D01*
X22558550Y2020552D01*
X22554129Y2023417D01*
X22522406Y2032904D01*
X22491286Y2051474D01*
X21906273Y2636487D01*
X21884881Y2682363D01*
X21884599Y2688813D01*
X21884599Y3211569D01*
X21901912Y3259135D01*
X21945749Y3284445D01*
X21995599Y3275655D01*
X22028136Y3236878D01*
X22031974Y3221164D01*
X22038309Y3172718D01*
X22040432Y3167893D01*
X22071923Y3096325D01*
X22096603Y3040234D01*
X22189738Y2929437D01*
X22310226Y2849234D01*
X22315258Y2847662D01*
X22315260Y2847661D01*
X22348997Y2837121D01*
X22448381Y2806071D01*
X22453649Y2805974D01*
X22453652Y2805974D01*
X22543205Y2804333D01*
X22594175Y2782671D01*
X23363454Y2013391D01*
X24128535Y1248310D01*
X24132885Y1243564D01*
X24158740Y1212750D01*
X24164342Y1209516D01*
X24164344Y1209514D01*
X24193572Y1192640D01*
X24199015Y1189173D01*
X24231957Y1166106D01*
X24238209Y1164431D01*
X24242494Y1162432D01*
X24248724Y1159852D01*
X24253156Y1158239D01*
X24258761Y1155003D01*
X24265132Y1153880D01*
X24265134Y1153879D01*
X24288643Y1149734D01*
X24298376Y1148018D01*
X24304675Y1146622D01*
X24343515Y1136214D01*
X24349963Y1136778D01*
X24349964Y1136778D01*
X24383566Y1139718D01*
X24390016Y1140000D01*
X26520666Y1140000D01*
X26568232Y1122687D01*
X26577312Y1113616D01*
X26599738Y1086937D01*
X26720226Y1006734D01*
X26725258Y1005162D01*
X26725260Y1005161D01*
X26749455Y997602D01*
X26858381Y963571D01*
X26863648Y963474D01*
X26863651Y963474D01*
X26927465Y962305D01*
X27003098Y960919D01*
X27008181Y962305D01*
X27008183Y962305D01*
X27137653Y997602D01*
X27137657Y997604D01*
X27142742Y998990D01*
X27266088Y1074725D01*
X27283761Y1094249D01*
X27359680Y1178123D01*
X27363220Y1182034D01*
X27426330Y1312292D01*
X27450344Y1455027D01*
X27450496Y1467500D01*
X27433881Y1583522D01*
X27430724Y1605563D01*
X27429977Y1610779D01*
X27370069Y1742540D01*
X27297483Y1826780D01*
X27279027Y1848199D01*
X27279026Y1848200D01*
X27275587Y1852191D01*
X27181188Y1913378D01*
X27158551Y1928051D01*
X27158550Y1928052D01*
X27154129Y1930917D01*
X27149081Y1932427D01*
X27149078Y1932428D01*
X27020509Y1970878D01*
X27020508Y1970878D01*
X27015456Y1972389D01*
X26942008Y1972838D01*
X26875988Y1973241D01*
X26875987Y1973241D01*
X26870718Y1973273D01*
X26731549Y1933498D01*
X26609137Y1856262D01*
X26580759Y1824130D01*
X26577125Y1820015D01*
X26532661Y1795822D01*
X26521659Y1795000D01*
X24538807Y1795000D01*
X24491241Y1812313D01*
X24486481Y1816674D01*
X23640208Y2662946D01*
X27635034Y2662946D01*
X27654859Y2436341D01*
X27655697Y2433215D01*
X27655697Y2433213D01*
X27680614Y2340223D01*
X27713733Y2216621D01*
X27809866Y2010463D01*
X27940338Y1824130D01*
X28101184Y1663284D01*
X28287517Y1532812D01*
X28493675Y1436679D01*
X28563479Y1417975D01*
X28710267Y1378643D01*
X28710269Y1378643D01*
X28713395Y1377805D01*
X28940000Y1357980D01*
X29166605Y1377805D01*
X29169731Y1378643D01*
X29169733Y1378643D01*
X29316521Y1417975D01*
X29386325Y1436679D01*
X29592483Y1532812D01*
X29778816Y1663284D01*
X29939662Y1824130D01*
X30070134Y2010463D01*
X30166267Y2216621D01*
X30199386Y2340223D01*
X30224303Y2433213D01*
X30224303Y2433215D01*
X30225141Y2436341D01*
X30244966Y2662946D01*
X30225141Y2889551D01*
X30166267Y3109271D01*
X30070134Y3315429D01*
X29939662Y3501762D01*
X29778816Y3662608D01*
X29592483Y3793080D01*
X29386325Y3889213D01*
X29276465Y3918650D01*
X29169733Y3947249D01*
X29169731Y3947249D01*
X29166605Y3948087D01*
X28940000Y3967912D01*
X28713395Y3948087D01*
X28710269Y3947249D01*
X28710267Y3947249D01*
X28603535Y3918650D01*
X28493675Y3889213D01*
X28287517Y3793080D01*
X28101184Y3662608D01*
X27940338Y3501762D01*
X27809866Y3315429D01*
X27713733Y3109271D01*
X27654859Y2889551D01*
X27635034Y2662946D01*
X23640208Y2662946D01*
X23061753Y3241401D01*
X23040361Y3287277D01*
X23040372Y3297527D01*
X23040344Y3297527D01*
X23040375Y3300045D01*
X23040375Y3300071D01*
X23040496Y3310000D01*
X23039340Y3318077D01*
X23020724Y3448063D01*
X23019977Y3453279D01*
X22960069Y3585040D01*
X22875440Y3683256D01*
X22857500Y3731560D01*
X22857500Y5296462D01*
X22874813Y5344028D01*
X22918650Y5369338D01*
X22968500Y5360548D01*
X22988146Y5344078D01*
X22996941Y5333615D01*
X22998388Y5331837D01*
X23035359Y5284941D01*
X23039909Y5281796D01*
X23040726Y5281029D01*
X23041966Y5280052D01*
X23043946Y5277697D01*
X23088336Y5248148D01*
X23094823Y5243830D01*
X23095850Y5243133D01*
X23147789Y5207236D01*
X23151613Y5206027D01*
X23152320Y5205556D01*
X23216611Y5185470D01*
X23278097Y5166025D01*
X23282295Y5165695D01*
X23282298Y5165694D01*
X23283074Y5165633D01*
X23284768Y5165500D01*
X23343152Y5165500D01*
X23344507Y5165488D01*
X23406755Y5164347D01*
X23409930Y5165213D01*
X23414557Y5165500D01*
X25628615Y5165500D01*
X25637311Y5164987D01*
X25674438Y5160593D01*
X25679875Y5161586D01*
X25679877Y5161586D01*
X25733473Y5171374D01*
X25735764Y5171755D01*
X25789678Y5179861D01*
X25789685Y5179863D01*
X25795151Y5180685D01*
X25800028Y5183027D01*
X25800461Y5183132D01*
X25800702Y5183215D01*
X25802904Y5183930D01*
X25803146Y5184004D01*
X25803563Y5184175D01*
X25808883Y5185147D01*
X25862162Y5212823D01*
X25864233Y5213858D01*
X25918353Y5239846D01*
X25922322Y5243515D01*
X25923288Y5244091D01*
X25926423Y5246204D01*
X25930166Y5248148D01*
X25935254Y5252494D01*
X25973579Y5290819D01*
X25975674Y5292833D01*
X26014650Y5328862D01*
X26018712Y5332617D01*
X26021490Y5337400D01*
X26024304Y5340912D01*
X26029729Y5346969D01*
X26087205Y5404445D01*
X26094849Y5410477D01*
X26094758Y5410587D01*
X26098812Y5413952D01*
X26103306Y5416712D01*
X26138654Y5455764D01*
X26141190Y5458430D01*
X26155527Y5472767D01*
X26157172Y5474994D01*
X26157176Y5474999D01*
X26159917Y5478710D01*
X26164572Y5484399D01*
X26190672Y5513233D01*
X26197704Y5527748D01*
X26204768Y5539434D01*
X26216209Y5554924D01*
X26228878Y5591000D01*
X26232101Y5598743D01*
X26245138Y5625651D01*
X26247437Y5630396D01*
X26250729Y5649962D01*
X26253883Y5662204D01*
X26259661Y5678657D01*
X26261493Y5683874D01*
X26262849Y5718387D01*
X26263818Y5727759D01*
X26268562Y5755957D01*
X26268562Y5755959D01*
X26269037Y5758781D01*
X26269174Y5770000D01*
X26266756Y5786887D01*
X26266066Y5800279D01*
X26266641Y5814912D01*
X26266858Y5820437D01*
X26257296Y5856503D01*
X26255574Y5864967D01*
X26251465Y5893662D01*
X26251464Y5893665D01*
X26250718Y5898875D01*
X26248538Y5903670D01*
X26248537Y5903673D01*
X26242120Y5917787D01*
X26237956Y5929449D01*
X26233252Y5947189D01*
X26233250Y5947193D01*
X26231832Y5952542D01*
X26214040Y5981071D01*
X26209475Y5989583D01*
X26196832Y6017390D01*
X26180843Y6035946D01*
X26174112Y6045092D01*
X26173261Y6046457D01*
X26159508Y6068509D01*
X26136914Y6088116D01*
X26129356Y6095701D01*
X26115293Y6112021D01*
X26111850Y6116017D01*
X26088176Y6131362D01*
X26079932Y6137564D01*
X26060464Y6154456D01*
X26060463Y6154457D01*
X26056285Y6158082D01*
X26032316Y6168679D01*
X26021992Y6174261D01*
X26007025Y6183961D01*
X26007023Y6183962D01*
X26002601Y6186828D01*
X25972019Y6195974D01*
X25963298Y6199191D01*
X25936345Y6211107D01*
X25931285Y6213344D01*
X25911233Y6215717D01*
X25908937Y6215989D01*
X25896439Y6218577D01*
X25877870Y6224130D01*
X25858598Y6224248D01*
X25842227Y6224348D01*
X25833983Y6224860D01*
X25816430Y6226937D01*
X25795562Y6229407D01*
X25777085Y6226033D01*
X25763344Y6224830D01*
X25756700Y6224871D01*
X25752952Y6224894D01*
X25752951Y6224894D01*
X25747683Y6224926D01*
X25709839Y6214110D01*
X25702806Y6212467D01*
X25661117Y6204853D01*
X25656206Y6202302D01*
X25647748Y6197909D01*
X25633976Y6192429D01*
X25627574Y6190599D01*
X25627572Y6190598D01*
X25622505Y6189150D01*
X25618048Y6186338D01*
X25618046Y6186337D01*
X25586075Y6166165D01*
X25580700Y6163080D01*
X25539834Y6141852D01*
X25534746Y6137506D01*
X25530490Y6133250D01*
X25517653Y6122993D01*
X25512400Y6119679D01*
X25508914Y6115731D01*
X25508912Y6115730D01*
X25494592Y6099515D01*
X25450128Y6075322D01*
X25439126Y6074500D01*
X23357644Y6074500D01*
X23357192Y6074501D01*
X23292952Y6074894D01*
X23292950Y6074894D01*
X23287683Y6074926D01*
X23257875Y6066407D01*
X23248546Y6064381D01*
X23220320Y6060138D01*
X23220317Y6060137D01*
X23214849Y6059315D01*
X23193726Y6049171D01*
X23182046Y6044735D01*
X23162505Y6039150D01*
X23158048Y6036338D01*
X23158046Y6036337D01*
X23133145Y6020625D01*
X23125689Y6016501D01*
X23096635Y6002550D01*
X23096631Y6002547D01*
X23091647Y6000154D01*
X23077169Y5986771D01*
X23066432Y5978533D01*
X23056860Y5972494D01*
X23056856Y5972490D01*
X23052400Y5969679D01*
X23048913Y5965730D01*
X23048910Y5965728D01*
X23026961Y5940874D01*
X23021729Y5935522D01*
X22991288Y5907383D01*
X22988936Y5903334D01*
X22946000Y5877228D01*
X22895963Y5884885D01*
X22862555Y5922914D01*
X22857500Y5949794D01*
X22857500Y7616862D01*
X29199758Y7616862D01*
X29205849Y7561690D01*
X29215903Y7470623D01*
X29217035Y7460367D01*
X29218568Y7456178D01*
X29260157Y7342532D01*
X29271143Y7312510D01*
X29273628Y7308812D01*
X29273630Y7308808D01*
X29345900Y7201260D01*
X29358958Y7181828D01*
X29475410Y7075865D01*
X29479333Y7073735D01*
X29609852Y7002868D01*
X29609856Y7002866D01*
X29613776Y7000738D01*
X29766069Y6960785D01*
X29844782Y6959549D01*
X29919038Y6958382D01*
X29923495Y6958312D01*
X29927837Y6959306D01*
X29927842Y6959307D01*
X30072621Y6992466D01*
X30072624Y6992467D01*
X30076968Y6993462D01*
X30217625Y7064205D01*
X30235124Y7079150D01*
X30333955Y7163560D01*
X30337348Y7166458D01*
X30401672Y7255974D01*
X30426620Y7290693D01*
X30426620Y7290694D01*
X30429224Y7294317D01*
X30485272Y7433739D01*
X30486287Y7436265D01*
X30486287Y7436266D01*
X30487950Y7440402D01*
X30510134Y7596277D01*
X30510278Y7610000D01*
X30493978Y7744700D01*
X30491899Y7761877D01*
X30491363Y7766306D01*
X30455847Y7860297D01*
X30437286Y7909418D01*
X30437285Y7909420D01*
X30435710Y7913588D01*
X30351252Y8036474D01*
X30349062Y8039661D01*
X30349060Y8039663D01*
X30346531Y8043343D01*
X30292720Y8091287D01*
X30232310Y8145111D01*
X30232307Y8145113D01*
X30228976Y8148081D01*
X30089831Y8221755D01*
X29937128Y8260111D01*
X29855583Y8260538D01*
X29784142Y8260912D01*
X29784139Y8260912D01*
X29779684Y8260935D01*
X29775349Y8259894D01*
X29775347Y8259894D01*
X29695936Y8240829D01*
X29626588Y8224180D01*
X29486679Y8151968D01*
X29483321Y8149039D01*
X29483320Y8149038D01*
X29387194Y8065181D01*
X29368034Y8048467D01*
X29365466Y8044813D01*
X29365465Y8044812D01*
X29340853Y8009792D01*
X29277501Y7919652D01*
X29220309Y7772961D01*
X29219727Y7768537D01*
X29219726Y7768535D01*
X29216961Y7747527D01*
X29199758Y7616862D01*
X22857500Y7616862D01*
X22857500Y9665610D01*
X23035071Y9665610D01*
X23035754Y9660387D01*
X23035754Y9660384D01*
X23050757Y9545659D01*
X23051952Y9536519D01*
X23054075Y9531694D01*
X23083655Y9464469D01*
X23104385Y9417355D01*
X23107777Y9413320D01*
X23184767Y9321729D01*
X23184770Y9321726D01*
X23188157Y9317697D01*
X23208804Y9303953D01*
X23292142Y9248477D01*
X23292145Y9248475D01*
X23296531Y9245556D01*
X23420798Y9206733D01*
X23426066Y9206636D01*
X23426069Y9206636D01*
X23480643Y9205636D01*
X23550966Y9204347D01*
X23556049Y9205733D01*
X23556051Y9205733D01*
X23671481Y9237203D01*
X23671483Y9237204D01*
X23676571Y9238591D01*
X23787517Y9306712D01*
X23874883Y9403233D01*
X23931648Y9520396D01*
X23935899Y9545659D01*
X23952773Y9645959D01*
X23953248Y9648781D01*
X23953385Y9660000D01*
X23934929Y9788875D01*
X23909547Y9844700D01*
X23883225Y9902592D01*
X23883223Y9902594D01*
X23881043Y9907390D01*
X23876988Y9912097D01*
X23799501Y10002025D01*
X23799500Y10002026D01*
X23796061Y10006017D01*
X23791642Y10008881D01*
X23791640Y10008883D01*
X23691235Y10073961D01*
X23691236Y10073961D01*
X23686812Y10076828D01*
X23583712Y10107661D01*
X23567134Y10112619D01*
X23567133Y10112619D01*
X23562081Y10114130D01*
X23494551Y10114543D01*
X23437163Y10114894D01*
X23437161Y10114894D01*
X23431894Y10114926D01*
X23306716Y10079150D01*
X23196611Y10009679D01*
X23135590Y9940585D01*
X23122317Y9925556D01*
X23110430Y9912097D01*
X23055101Y9794249D01*
X23035071Y9665610D01*
X22857500Y9665610D01*
X22857500Y10576237D01*
X25229542Y10576237D01*
X25230225Y10571014D01*
X25230225Y10571011D01*
X25232358Y10554700D01*
X25248309Y10432718D01*
X25250432Y10427893D01*
X25284347Y10350816D01*
X25306603Y10300234D01*
X25399738Y10189437D01*
X25520226Y10109234D01*
X25525258Y10107662D01*
X25525260Y10107661D01*
X25558248Y10097355D01*
X25658381Y10066071D01*
X25663648Y10065974D01*
X25663651Y10065974D01*
X25727465Y10064805D01*
X25803098Y10063419D01*
X25808181Y10064805D01*
X25808183Y10064805D01*
X25937653Y10100102D01*
X25937657Y10100104D01*
X25942742Y10101490D01*
X26066088Y10177225D01*
X26070255Y10181828D01*
X26159680Y10280623D01*
X26163220Y10284534D01*
X26226330Y10414792D01*
X26250344Y10557527D01*
X26250496Y10570000D01*
X26248858Y10581443D01*
X26243785Y10616862D01*
X29199758Y10616862D01*
X29203668Y10581443D01*
X29216078Y10469039D01*
X29217035Y10460367D01*
X29218568Y10456178D01*
X29268393Y10320026D01*
X29271143Y10312510D01*
X29273628Y10308812D01*
X29273630Y10308808D01*
X29353845Y10189437D01*
X29358958Y10181828D01*
X29475410Y10075865D01*
X29479333Y10073735D01*
X29609852Y10002868D01*
X29609856Y10002866D01*
X29613776Y10000738D01*
X29766069Y9960785D01*
X29844782Y9959549D01*
X29919038Y9958382D01*
X29923495Y9958312D01*
X29927837Y9959306D01*
X29927842Y9959307D01*
X30072621Y9992466D01*
X30072624Y9992467D01*
X30076968Y9993462D01*
X30217625Y10064205D01*
X30235124Y10079150D01*
X30333955Y10163560D01*
X30337348Y10166458D01*
X30422194Y10284534D01*
X30426620Y10290693D01*
X30426620Y10290694D01*
X30429224Y10294317D01*
X30431801Y10300726D01*
X30486287Y10436265D01*
X30486287Y10436266D01*
X30487950Y10440402D01*
X30510134Y10596277D01*
X30510278Y10610000D01*
X30493874Y10745556D01*
X30491899Y10761877D01*
X30491363Y10766306D01*
X30455847Y10860297D01*
X30437286Y10909418D01*
X30437285Y10909420D01*
X30435710Y10913588D01*
X30355323Y11030551D01*
X30349062Y11039661D01*
X30349060Y11039663D01*
X30346531Y11043343D01*
X30303431Y11081744D01*
X30232310Y11145111D01*
X30232307Y11145113D01*
X30228976Y11148081D01*
X30135333Y11197663D01*
X30093771Y11219669D01*
X30093770Y11219669D01*
X30089831Y11221755D01*
X29937128Y11260111D01*
X29855583Y11260538D01*
X29784142Y11260912D01*
X29784139Y11260912D01*
X29779684Y11260935D01*
X29775349Y11259894D01*
X29775347Y11259894D01*
X29718916Y11246346D01*
X29626588Y11224180D01*
X29486679Y11151968D01*
X29483321Y11149039D01*
X29483320Y11149038D01*
X29398359Y11074921D01*
X29368034Y11048467D01*
X29365466Y11044813D01*
X29365465Y11044812D01*
X29355225Y11030241D01*
X29277501Y10919652D01*
X29275879Y10915493D01*
X29275879Y10915492D01*
X29228873Y10794926D01*
X29220309Y10772961D01*
X29219727Y10768537D01*
X29219726Y10768535D01*
X29208825Y10685729D01*
X29199758Y10616862D01*
X26243785Y10616862D01*
X26230724Y10708063D01*
X26229977Y10713279D01*
X26170069Y10845040D01*
X26075587Y10954691D01*
X25954129Y11033417D01*
X25949081Y11034927D01*
X25949078Y11034928D01*
X25820509Y11073378D01*
X25820508Y11073378D01*
X25815456Y11074889D01*
X25742008Y11075338D01*
X25675988Y11075741D01*
X25675987Y11075741D01*
X25670718Y11075773D01*
X25531549Y11035998D01*
X25527089Y11033184D01*
X25522916Y11030551D01*
X25409137Y10958762D01*
X25313324Y10850274D01*
X25299922Y10821729D01*
X25263757Y10744700D01*
X25251810Y10719255D01*
X25250999Y10714048D01*
X25250999Y10714047D01*
X25250105Y10708306D01*
X25229542Y10576237D01*
X22857500Y10576237D01*
X22857500Y14872483D01*
X22857782Y14878933D01*
X22858167Y14883332D01*
X22861286Y14918984D01*
X22852034Y14953516D01*
X22850879Y14957827D01*
X22849482Y14964127D01*
X22848533Y14969508D01*
X22842497Y15003739D01*
X22839258Y15009349D01*
X22837631Y15013819D01*
X22835079Y15019980D01*
X22833069Y15024290D01*
X22831394Y15030543D01*
X22808327Y15063485D01*
X22804860Y15068928D01*
X22787986Y15098156D01*
X22787984Y15098158D01*
X22784750Y15103760D01*
X22779794Y15107918D01*
X22779792Y15107921D01*
X22753949Y15129605D01*
X22749189Y15133966D01*
X22677905Y15205250D01*
X22601753Y15281401D01*
X22580361Y15327277D01*
X22580372Y15337527D01*
X22580344Y15337527D01*
X22580375Y15340045D01*
X22580375Y15340071D01*
X22580496Y15350000D01*
X22559977Y15493279D01*
X22500069Y15625040D01*
X22443303Y15690919D01*
X22409027Y15730699D01*
X22409026Y15730700D01*
X22405587Y15734691D01*
X22324114Y15787500D01*
X22288551Y15810551D01*
X22288550Y15810552D01*
X22284129Y15813417D01*
X22279081Y15814927D01*
X22279078Y15814928D01*
X22150509Y15853378D01*
X22150508Y15853378D01*
X22145456Y15854889D01*
X22072008Y15855338D01*
X22005988Y15855741D01*
X22005987Y15855741D01*
X22000718Y15855773D01*
X21958934Y15843831D01*
X21908442Y15847406D01*
X21872060Y15882600D01*
X21864599Y15914982D01*
X21864599Y18235090D01*
X21881912Y18282656D01*
X21899879Y18298151D01*
X21991594Y18354465D01*
X21991597Y18354468D01*
X21996088Y18357225D01*
X22046785Y18413233D01*
X22089680Y18460623D01*
X22093220Y18464534D01*
X22156330Y18594792D01*
X22180344Y18737527D01*
X22180496Y18750000D01*
X22172810Y18803674D01*
X22160724Y18888063D01*
X22159977Y18893279D01*
X22102868Y19018883D01*
X22102251Y19020241D01*
X22100069Y19025040D01*
X22014687Y19124130D01*
X22009027Y19130699D01*
X22009026Y19130700D01*
X22005587Y19134691D01*
X21884129Y19213417D01*
X21879081Y19214927D01*
X21879078Y19214928D01*
X21750509Y19253378D01*
X21750508Y19253378D01*
X21745456Y19254889D01*
X21672008Y19255338D01*
X21605988Y19255741D01*
X21605987Y19255741D01*
X21600718Y19255773D01*
X21461549Y19215998D01*
X21339137Y19138762D01*
X21243324Y19030274D01*
X21241085Y19025505D01*
X21241083Y19025502D01*
X21228585Y18998882D01*
X21192698Y18963183D01*
X21142260Y18958903D01*
X21100872Y18988045D01*
X21087600Y19030331D01*
X21087600Y23480167D01*
X21104913Y23527733D01*
X21148750Y23553043D01*
X21162953Y23554155D01*
X21203098Y23553419D01*
X21208181Y23554805D01*
X21208183Y23554805D01*
X21337653Y23590102D01*
X21337657Y23590104D01*
X21342742Y23591490D01*
X21466088Y23667225D01*
X21563220Y23774534D01*
X21626330Y23904792D01*
X21650344Y24047527D01*
X21650496Y24060000D01*
X21648858Y24071443D01*
X21630724Y24198063D01*
X21629977Y24203279D01*
X21601136Y24266712D01*
X21594500Y24297340D01*
X21594500Y25965610D01*
X22480860Y25965610D01*
X22481543Y25960387D01*
X22481543Y25960384D01*
X22493937Y25865609D01*
X22497741Y25836519D01*
X22550174Y25717355D01*
X22553566Y25713320D01*
X22630556Y25621729D01*
X22630559Y25621726D01*
X22633946Y25617697D01*
X22638333Y25614777D01*
X22737931Y25548477D01*
X22737934Y25548475D01*
X22742320Y25545556D01*
X22866587Y25506733D01*
X22871855Y25506636D01*
X22871858Y25506636D01*
X22909351Y25505949D01*
X22960321Y25484287D01*
X23667026Y24777583D01*
X23688418Y24731707D01*
X23688700Y24725257D01*
X23688700Y11579700D01*
X23671387Y11532134D01*
X23654187Y11517116D01*
X23642400Y11509679D01*
X23600597Y11462346D01*
X23565868Y11423022D01*
X23556219Y11412097D01*
X23500890Y11294249D01*
X23480860Y11165610D01*
X23481543Y11160387D01*
X23481543Y11160384D01*
X23496849Y11043343D01*
X23497741Y11036519D01*
X23550174Y10917355D01*
X23553566Y10913320D01*
X23630556Y10821729D01*
X23630559Y10821726D01*
X23633946Y10817697D01*
X23654593Y10803953D01*
X23737931Y10748477D01*
X23737934Y10748475D01*
X23742320Y10745556D01*
X23866587Y10706733D01*
X23871855Y10706636D01*
X23871858Y10706636D01*
X23926432Y10705636D01*
X23996755Y10704347D01*
X24001838Y10705733D01*
X24001840Y10705733D01*
X24117270Y10737203D01*
X24117272Y10737204D01*
X24122360Y10738591D01*
X24185114Y10777122D01*
X24228813Y10803953D01*
X24228814Y10803954D01*
X24233306Y10806712D01*
X24320672Y10903233D01*
X24377437Y11020396D01*
X24379094Y11030241D01*
X24398349Y11144691D01*
X24399037Y11148781D01*
X24399174Y11160000D01*
X24380718Y11288875D01*
X24336467Y11386199D01*
X24329014Y11402592D01*
X24329012Y11402594D01*
X24326832Y11407390D01*
X24322777Y11412097D01*
X24245290Y11502025D01*
X24245289Y11502026D01*
X24241850Y11506017D01*
X24237432Y11508881D01*
X24237427Y11508885D01*
X24225050Y11516907D01*
X24194552Y11557307D01*
X24191300Y11579003D01*
X24191300Y24827963D01*
X24192722Y24842399D01*
X24194801Y24852851D01*
X24196223Y24860000D01*
X24176719Y24958052D01*
X24121177Y25041177D01*
X24106253Y25051149D01*
X24095039Y25060352D01*
X23398303Y25757088D01*
X23376911Y25802964D01*
X23377655Y25821692D01*
X23385044Y25865609D01*
X23399037Y25948781D01*
X23399174Y25960000D01*
X23380718Y26088875D01*
X23332588Y26194731D01*
X23329014Y26202592D01*
X23329012Y26202594D01*
X23326832Y26207390D01*
X23322777Y26212097D01*
X23245290Y26302025D01*
X23245289Y26302026D01*
X23241850Y26306017D01*
X23237431Y26308881D01*
X23237429Y26308883D01*
X23137024Y26373961D01*
X23137025Y26373961D01*
X23132601Y26376828D01*
X23007870Y26414130D01*
X22940340Y26414543D01*
X22882952Y26414894D01*
X22882950Y26414894D01*
X22877683Y26414926D01*
X22752505Y26379150D01*
X22642400Y26309679D01*
X22556219Y26212097D01*
X22500890Y26094249D01*
X22480860Y25965610D01*
X21594500Y25965610D01*
X21594500Y32141088D01*
X21611813Y32188654D01*
X21616174Y32193414D01*
X22106586Y32683826D01*
X22152462Y32705218D01*
X22158912Y32705500D01*
X23092100Y32705500D01*
X23120205Y32699142D01*
X23120235Y32699239D01*
X23125267Y32697667D01*
X23125269Y32697666D01*
X23149464Y32690107D01*
X23258390Y32656076D01*
X23263657Y32655979D01*
X23263660Y32655979D01*
X23327474Y32654810D01*
X23403107Y32653424D01*
X23408190Y32654810D01*
X23408192Y32654810D01*
X23537662Y32690107D01*
X23537666Y32690109D01*
X23542751Y32691495D01*
X23666097Y32767230D01*
X23675533Y32777654D01*
X23759689Y32870628D01*
X23763229Y32874539D01*
X23826339Y33004797D01*
X23850353Y33147532D01*
X23850505Y33160005D01*
X23848507Y33173961D01*
X23830733Y33298068D01*
X23829986Y33303284D01*
X23770078Y33435045D01*
X23683770Y33535210D01*
X23679036Y33540704D01*
X23679035Y33540705D01*
X23675596Y33544696D01*
X23596195Y33596162D01*
X23558560Y33620556D01*
X23558559Y33620557D01*
X23554138Y33623422D01*
X23549090Y33624932D01*
X23549087Y33624933D01*
X23420518Y33663383D01*
X23420517Y33663383D01*
X23415465Y33664894D01*
X23342017Y33665343D01*
X23275997Y33665746D01*
X23275996Y33665746D01*
X23270727Y33665778D01*
X23131558Y33626003D01*
X23127103Y33623192D01*
X23122285Y33621037D01*
X23121401Y33623014D01*
X23091932Y33614500D01*
X21971385Y33614500D01*
X21962688Y33615013D01*
X21925562Y33619407D01*
X21920125Y33618414D01*
X21920123Y33618414D01*
X21866527Y33608626D01*
X21864236Y33608245D01*
X21810322Y33600139D01*
X21810315Y33600137D01*
X21804849Y33599315D01*
X21799972Y33596973D01*
X21799539Y33596868D01*
X21799298Y33596785D01*
X21797096Y33596070D01*
X21796854Y33595996D01*
X21796437Y33595825D01*
X21791117Y33594853D01*
X21786212Y33592305D01*
X21737846Y33567181D01*
X21735775Y33566146D01*
X21681647Y33540154D01*
X21677678Y33536485D01*
X21676712Y33535909D01*
X21673577Y33533796D01*
X21669834Y33531852D01*
X21664746Y33527506D01*
X21626421Y33489181D01*
X21624326Y33487167D01*
X21581288Y33447383D01*
X21578510Y33442600D01*
X21575696Y33439088D01*
X21570271Y33433031D01*
X20840813Y32703573D01*
X20834300Y32697786D01*
X20809285Y32678066D01*
X20809283Y32678064D01*
X20804941Y32674641D01*
X20770792Y32625231D01*
X20769456Y32623363D01*
X20737078Y32579527D01*
X20737077Y32579524D01*
X20733791Y32575076D01*
X20731999Y32569974D01*
X20731764Y32569587D01*
X20731658Y32569370D01*
X20730609Y32567310D01*
X20730487Y32567079D01*
X20730313Y32566663D01*
X20727236Y32562211D01*
X20725568Y32556938D01*
X20725568Y32556937D01*
X20709135Y32504975D01*
X20708399Y32502770D01*
X20701499Y32483122D01*
X20688507Y32446126D01*
X20688295Y32440723D01*
X20688017Y32439624D01*
X20687295Y32435919D01*
X20686025Y32431903D01*
X20685500Y32425232D01*
X20685500Y32371039D01*
X20685443Y32368134D01*
X20683462Y32317697D01*
X20683142Y32309563D01*
X20684560Y32304215D01*
X20685053Y32299751D01*
X20685500Y32291629D01*
X20685500Y24297520D01*
X20678485Y24266071D01*
X20651810Y24209255D01*
X20629542Y24066237D01*
X20630225Y24061014D01*
X20630225Y24061010D01*
X20631007Y24055033D01*
X20620008Y24005624D01*
X20609958Y23993112D01*
X20540923Y23924077D01*
X20536163Y23919716D01*
X20510313Y23898025D01*
X20510311Y23898023D01*
X20505350Y23893860D01*
X20502111Y23888250D01*
X20485239Y23859027D01*
X20481770Y23853581D01*
X20462420Y23825948D01*
X20462419Y23825945D01*
X20458706Y23820643D01*
X20457030Y23814388D01*
X20455028Y23810095D01*
X20452463Y23803904D01*
X20450841Y23799448D01*
X20447603Y23793839D01*
X20440620Y23754237D01*
X20439222Y23747934D01*
X20430489Y23715343D01*
X20430488Y23715337D01*
X20428813Y23709084D01*
X20431836Y23674534D01*
X20432318Y23669026D01*
X20432600Y23662576D01*
X20432600Y12443605D01*
X20415287Y12396039D01*
X20371450Y12370729D01*
X20349223Y12370438D01*
X20345870Y12371441D01*
X20280776Y12371839D01*
X20220951Y12372205D01*
X20220950Y12372205D01*
X20219360Y12372215D01*
X20219358Y12372215D01*
X20215683Y12372237D01*
X20215688Y12373008D01*
X20170528Y12382775D01*
X20157638Y12393065D01*
X20145073Y12405630D01*
X20123681Y12451506D01*
X20123399Y12457956D01*
X20123399Y34065610D01*
X24080860Y34065610D01*
X24081543Y34060387D01*
X24081543Y34060384D01*
X24085309Y34031590D01*
X24097741Y33936519D01*
X24150174Y33817355D01*
X24153566Y33813320D01*
X24230556Y33721729D01*
X24230559Y33721726D01*
X24233946Y33717697D01*
X24254593Y33703953D01*
X24337931Y33648477D01*
X24337934Y33648475D01*
X24342320Y33645556D01*
X24466587Y33606733D01*
X24471855Y33606636D01*
X24471858Y33606636D01*
X24526432Y33605636D01*
X24596755Y33604347D01*
X24601838Y33605733D01*
X24601840Y33605733D01*
X24717270Y33637203D01*
X24717272Y33637204D01*
X24722360Y33638591D01*
X24833306Y33706712D01*
X24920672Y33803233D01*
X24977437Y33920396D01*
X24999037Y34048781D01*
X24999174Y34060000D01*
X24980718Y34188875D01*
X24926832Y34307390D01*
X24922777Y34312097D01*
X24845290Y34402025D01*
X24845289Y34402026D01*
X24841850Y34406017D01*
X24837431Y34408881D01*
X24837429Y34408883D01*
X24737024Y34473961D01*
X24737025Y34473961D01*
X24732601Y34476828D01*
X24607870Y34514130D01*
X24540340Y34514543D01*
X24482952Y34514894D01*
X24482950Y34514894D01*
X24477683Y34514926D01*
X24352505Y34479150D01*
X24242400Y34409679D01*
X24197696Y34359061D01*
X24160985Y34317493D01*
X24156219Y34312097D01*
X24100890Y34194249D01*
X24080860Y34065610D01*
X20123399Y34065610D01*
X20123399Y35565610D01*
X24180860Y35565610D01*
X24181543Y35560387D01*
X24181543Y35560384D01*
X24194351Y35462444D01*
X24197741Y35436519D01*
X24250174Y35317355D01*
X24253566Y35313320D01*
X24330556Y35221729D01*
X24330559Y35221726D01*
X24333946Y35217697D01*
X24351925Y35205729D01*
X24437931Y35148477D01*
X24437934Y35148475D01*
X24442320Y35145556D01*
X24566587Y35106733D01*
X24571855Y35106636D01*
X24571858Y35106636D01*
X24626432Y35105636D01*
X24696755Y35104347D01*
X24701838Y35105733D01*
X24701840Y35105733D01*
X24817270Y35137203D01*
X24817272Y35137204D01*
X24822360Y35138591D01*
X24828976Y35142653D01*
X24851748Y35156634D01*
X24901342Y35166769D01*
X24945848Y35142653D01*
X24964440Y35095572D01*
X24957452Y35062125D01*
X24920890Y34984249D01*
X24900860Y34855610D01*
X24901543Y34850387D01*
X24901543Y34850384D01*
X24915750Y34741746D01*
X24917741Y34726519D01*
X24970174Y34607355D01*
X24973566Y34603320D01*
X25050556Y34511729D01*
X25050559Y34511726D01*
X25053946Y34507697D01*
X25085462Y34486718D01*
X25157931Y34438477D01*
X25157934Y34438475D01*
X25162320Y34435556D01*
X25286587Y34396733D01*
X25291855Y34396636D01*
X25291858Y34396636D01*
X25346432Y34395636D01*
X25416755Y34394347D01*
X25421838Y34395733D01*
X25421840Y34395733D01*
X25537270Y34427203D01*
X25537272Y34427204D01*
X25542360Y34428591D01*
X25612187Y34471465D01*
X25648813Y34493953D01*
X25648814Y34493954D01*
X25653306Y34496712D01*
X25740672Y34593233D01*
X25797437Y34710396D01*
X25798815Y34718583D01*
X25814428Y34811384D01*
X25816601Y34824302D01*
X27106150Y34824302D01*
X27106222Y34822383D01*
X27131484Y34722911D01*
X27133740Y34716540D01*
X27213619Y34543270D01*
X27216987Y34537436D01*
X27327104Y34381623D01*
X27331493Y34376484D01*
X27468151Y34243358D01*
X27473406Y34239103D01*
X27632036Y34133110D01*
X27637973Y34129886D01*
X27813272Y34054572D01*
X27819691Y34052487D01*
X27887272Y34037194D01*
X27897825Y34038536D01*
X27899795Y34040668D01*
X27900000Y34041685D01*
X27900000Y34816952D01*
X27896362Y34826948D01*
X27891075Y34830000D01*
X27117335Y34830000D01*
X27107339Y34826362D01*
X27106150Y34824302D01*
X25816601Y34824302D01*
X25819037Y34838781D01*
X25819174Y34850000D01*
X25800718Y34978875D01*
X25790444Y35001471D01*
X25749014Y35092592D01*
X25749012Y35092594D01*
X25746832Y35097390D01*
X25742777Y35102097D01*
X25665290Y35192025D01*
X25665289Y35192026D01*
X25661850Y35196017D01*
X25657431Y35198881D01*
X25657429Y35198883D01*
X25569307Y35256000D01*
X25552601Y35266828D01*
X25427870Y35304130D01*
X25360340Y35304543D01*
X25302952Y35304894D01*
X25302950Y35304894D01*
X25297683Y35304926D01*
X25172505Y35269150D01*
X25149013Y35254328D01*
X25099549Y35243588D01*
X25054751Y35267156D01*
X25035584Y35314006D01*
X25042930Y35349175D01*
X25077437Y35420396D01*
X25084512Y35462444D01*
X25098562Y35545959D01*
X25099037Y35548781D01*
X25099174Y35560000D01*
X25080718Y35688875D01*
X25059070Y35736487D01*
X25029014Y35802592D01*
X25029012Y35802594D01*
X25026832Y35807390D01*
X25022777Y35812097D01*
X24945290Y35902025D01*
X24945289Y35902026D01*
X24941850Y35906017D01*
X24937431Y35908881D01*
X24937429Y35908883D01*
X24837024Y35973961D01*
X24837025Y35973961D01*
X24832601Y35976828D01*
X24707870Y36014130D01*
X24640340Y36014543D01*
X24582952Y36014894D01*
X24582950Y36014894D01*
X24577683Y36014926D01*
X24452505Y35979150D01*
X24342400Y35909679D01*
X24256219Y35812097D01*
X24200890Y35694249D01*
X24180860Y35565610D01*
X20123399Y35565610D01*
X20123399Y38353129D01*
X20140712Y38400695D01*
X20184549Y38426005D01*
X20238404Y38414729D01*
X20337931Y38348477D01*
X20337934Y38348475D01*
X20342320Y38345556D01*
X20466587Y38306733D01*
X20471855Y38306636D01*
X20471858Y38306636D01*
X20526432Y38305636D01*
X20596755Y38304347D01*
X20601838Y38305733D01*
X20601840Y38305733D01*
X20717270Y38337203D01*
X20717272Y38337204D01*
X20722360Y38338591D01*
X20802016Y38387500D01*
X20828813Y38403953D01*
X20828814Y38403954D01*
X20833306Y38406712D01*
X20859837Y38436023D01*
X20904593Y38459671D01*
X20954078Y38449017D01*
X20985138Y38409047D01*
X20988700Y38386364D01*
X20988700Y37379700D01*
X20971387Y37332134D01*
X20954187Y37317116D01*
X20942400Y37309679D01*
X20856219Y37212097D01*
X20800890Y37094249D01*
X20780860Y36965610D01*
X20781543Y36960387D01*
X20781543Y36960384D01*
X20793148Y36871643D01*
X20797741Y36836519D01*
X20799864Y36831694D01*
X20846533Y36725631D01*
X20850174Y36717355D01*
X20853566Y36713320D01*
X20930556Y36621729D01*
X20930559Y36621726D01*
X20933946Y36617697D01*
X20954593Y36603953D01*
X21037931Y36548477D01*
X21037934Y36548475D01*
X21042320Y36545556D01*
X21166587Y36506733D01*
X21171855Y36506636D01*
X21171858Y36506636D01*
X21226432Y36505636D01*
X21296755Y36504347D01*
X21301838Y36505733D01*
X21301840Y36505733D01*
X21417270Y36537203D01*
X21417272Y36537204D01*
X21422360Y36538591D01*
X21533306Y36606712D01*
X21620672Y36703233D01*
X21677437Y36820396D01*
X21685578Y36868781D01*
X21698562Y36945959D01*
X21699037Y36948781D01*
X21699174Y36960000D01*
X21680718Y37088875D01*
X21672069Y37107897D01*
X21629014Y37202592D01*
X21629012Y37202594D01*
X21626832Y37207390D01*
X21622777Y37212097D01*
X21545290Y37302025D01*
X21545289Y37302026D01*
X21541850Y37306017D01*
X21537432Y37308881D01*
X21537427Y37308885D01*
X21525050Y37316907D01*
X21494552Y37357307D01*
X21491300Y37379003D01*
X21491300Y37660850D01*
X21508613Y37708416D01*
X21552450Y37733726D01*
X21587365Y37731483D01*
X21666587Y37706733D01*
X21671855Y37706636D01*
X21671858Y37706636D01*
X21726432Y37705636D01*
X21796755Y37704347D01*
X21801838Y37705733D01*
X21801840Y37705733D01*
X21917270Y37737203D01*
X21917272Y37737204D01*
X21922360Y37738591D01*
X21966365Y37765610D01*
X23780860Y37765610D01*
X23781543Y37760387D01*
X23781543Y37760384D01*
X23789382Y37700443D01*
X23797741Y37636519D01*
X23850174Y37517355D01*
X23861440Y37503953D01*
X23930556Y37421729D01*
X23930559Y37421726D01*
X23933946Y37417697D01*
X23954001Y37404347D01*
X24037931Y37348477D01*
X24037934Y37348475D01*
X24042320Y37345556D01*
X24166587Y37306733D01*
X24171855Y37306636D01*
X24171858Y37306636D01*
X24226432Y37305636D01*
X24296755Y37304347D01*
X24301838Y37305733D01*
X24301840Y37305733D01*
X24417270Y37337203D01*
X24417272Y37337204D01*
X24422360Y37338591D01*
X24477833Y37372651D01*
X24528813Y37403953D01*
X24528814Y37403954D01*
X24533306Y37406712D01*
X24620672Y37503233D01*
X24677437Y37620396D01*
X24683414Y37655918D01*
X24696585Y37734207D01*
X24699037Y37748781D01*
X24699174Y37760000D01*
X24680718Y37888875D01*
X24678536Y37893675D01*
X24677097Y37898595D01*
X24680364Y37949109D01*
X24715336Y37985704D01*
X24765649Y37991259D01*
X24789128Y37980964D01*
X24837931Y37948477D01*
X24837934Y37948475D01*
X24842320Y37945556D01*
X24966587Y37906733D01*
X24971855Y37906636D01*
X24971858Y37906636D01*
X25026432Y37905636D01*
X25096755Y37904347D01*
X25101838Y37905733D01*
X25101840Y37905733D01*
X25217270Y37937203D01*
X25217272Y37937204D01*
X25222360Y37938591D01*
X25304523Y37989039D01*
X25328813Y38003953D01*
X25328814Y38003954D01*
X25333306Y38006712D01*
X25420672Y38103233D01*
X25477437Y38220396D01*
X25478484Y38226615D01*
X25497279Y38338330D01*
X25499037Y38348781D01*
X25499174Y38360000D01*
X25480718Y38488875D01*
X25471620Y38508885D01*
X25429014Y38602592D01*
X25429012Y38602594D01*
X25426832Y38607390D01*
X25422777Y38612097D01*
X25345290Y38702025D01*
X25345289Y38702026D01*
X25341850Y38706017D01*
X25337431Y38708881D01*
X25337429Y38708883D01*
X25237024Y38773961D01*
X25237025Y38773961D01*
X25232601Y38776828D01*
X25107870Y38814130D01*
X25040340Y38814543D01*
X24982952Y38814894D01*
X24982950Y38814894D01*
X24977683Y38814926D01*
X24852505Y38779150D01*
X24742400Y38709679D01*
X24656219Y38612097D01*
X24600890Y38494249D01*
X24580860Y38365610D01*
X24581543Y38360387D01*
X24581543Y38360384D01*
X24597030Y38241957D01*
X24597741Y38236519D01*
X24599863Y38231697D01*
X24600721Y38229747D01*
X24600817Y38228280D01*
X24601282Y38226615D01*
X24600933Y38226517D01*
X24604029Y38179236D01*
X24574095Y38138416D01*
X24524926Y38126387D01*
X24492737Y38137850D01*
X24480226Y38145959D01*
X24432601Y38176828D01*
X24307870Y38214130D01*
X24240340Y38214543D01*
X24182952Y38214894D01*
X24182950Y38214894D01*
X24177683Y38214926D01*
X24052505Y38179150D01*
X23942400Y38109679D01*
X23856219Y38012097D01*
X23800890Y37894249D01*
X23780860Y37765610D01*
X21966365Y37765610D01*
X21998173Y37785140D01*
X22028813Y37803953D01*
X22028814Y37803954D01*
X22033306Y37806712D01*
X22120672Y37903233D01*
X22177437Y38020396D01*
X22182006Y38047550D01*
X22193750Y38117355D01*
X22199037Y38148781D01*
X22199174Y38160000D01*
X22180718Y38288875D01*
X22173053Y38305733D01*
X22129014Y38402592D01*
X22129012Y38402594D01*
X22126832Y38407390D01*
X22120509Y38414729D01*
X22045290Y38502025D01*
X22045289Y38502026D01*
X22041850Y38506017D01*
X22037432Y38508881D01*
X22037427Y38508885D01*
X22025050Y38516907D01*
X21994552Y38557307D01*
X21991300Y38579003D01*
X21991300Y40465610D01*
X24180860Y40465610D01*
X24181543Y40460387D01*
X24181543Y40460384D01*
X24190192Y40394249D01*
X24197741Y40336519D01*
X24199864Y40331694D01*
X24230166Y40262828D01*
X24250174Y40217355D01*
X24260383Y40205210D01*
X24330556Y40121729D01*
X24330559Y40121726D01*
X24333946Y40117697D01*
X24354593Y40103953D01*
X24437931Y40048477D01*
X24437934Y40048475D01*
X24442320Y40045556D01*
X24566587Y40006733D01*
X24571855Y40006636D01*
X24571858Y40006636D01*
X24626432Y40005636D01*
X24696755Y40004347D01*
X24701838Y40005733D01*
X24701840Y40005733D01*
X24817270Y40037203D01*
X24817272Y40037204D01*
X24822360Y40038591D01*
X24933306Y40106712D01*
X25020672Y40203233D01*
X25077437Y40320396D01*
X25078510Y40326769D01*
X25098562Y40445959D01*
X25099037Y40448781D01*
X25099174Y40460000D01*
X25080718Y40588875D01*
X25064920Y40623621D01*
X25029014Y40702592D01*
X25029012Y40702594D01*
X25026832Y40707390D01*
X25022777Y40712097D01*
X24945290Y40802025D01*
X24945289Y40802026D01*
X24941850Y40806017D01*
X24937431Y40808881D01*
X24937429Y40808883D01*
X24837024Y40873961D01*
X24837025Y40873961D01*
X24832601Y40876828D01*
X24707870Y40914130D01*
X24640340Y40914543D01*
X24582952Y40914894D01*
X24582950Y40914894D01*
X24577683Y40914926D01*
X24452505Y40879150D01*
X24342400Y40809679D01*
X24256219Y40712097D01*
X24200890Y40594249D01*
X24180860Y40465610D01*
X21991300Y40465610D01*
X21991300Y44122254D01*
X22008613Y44169820D01*
X22026580Y44185316D01*
X22042451Y44195061D01*
X22071036Y44212612D01*
X22158402Y44309133D01*
X22215167Y44426296D01*
X22216340Y44433265D01*
X22236292Y44551859D01*
X22236767Y44554681D01*
X22236904Y44565900D01*
X22218448Y44694775D01*
X22204208Y44726094D01*
X22166744Y44808492D01*
X22166742Y44808494D01*
X22164562Y44813290D01*
X22160507Y44817997D01*
X22083020Y44907925D01*
X22083019Y44907926D01*
X22079580Y44911917D01*
X22075161Y44914781D01*
X22075159Y44914783D01*
X21974754Y44979861D01*
X21974755Y44979861D01*
X21970331Y44982728D01*
X21845600Y45020030D01*
X21778070Y45020443D01*
X21720682Y45020794D01*
X21720680Y45020794D01*
X21715413Y45020826D01*
X21590235Y44985050D01*
X21480130Y44915579D01*
X21422994Y44850884D01*
X21405949Y44831584D01*
X21393949Y44817997D01*
X21338620Y44700149D01*
X21318590Y44571510D01*
X21319273Y44566287D01*
X21319273Y44566284D01*
X21334302Y44451361D01*
X21335471Y44442419D01*
X21337594Y44437594D01*
X21382198Y44336224D01*
X21387904Y44323255D01*
X21391296Y44319220D01*
X21391299Y44319215D01*
X21471345Y44223990D01*
X21488700Y44176374D01*
X21488700Y43545344D01*
X21471387Y43497778D01*
X21427550Y43472468D01*
X21377700Y43481258D01*
X21362374Y43493018D01*
X21040350Y43815042D01*
X21031150Y43826252D01*
X21021177Y43841177D01*
X20938052Y43896719D01*
X20930907Y43898140D01*
X20930905Y43898141D01*
X20864749Y43911300D01*
X20847149Y43914801D01*
X20840000Y43916223D01*
X20832851Y43914801D01*
X20822400Y43912722D01*
X20807963Y43911300D01*
X19457382Y43911300D01*
X19409816Y43928613D01*
X19401322Y43936996D01*
X19345290Y44002025D01*
X19345289Y44002026D01*
X19341850Y44006017D01*
X19337432Y44008881D01*
X19337427Y44008885D01*
X19325050Y44016907D01*
X19294552Y44057307D01*
X19291300Y44079003D01*
X19291300Y45325256D01*
X19308613Y45372822D01*
X19312974Y45377582D01*
X19322418Y45387026D01*
X19368294Y45408418D01*
X19374744Y45408700D01*
X22448634Y45408700D01*
X22497958Y45389864D01*
X22499112Y45388832D01*
X22502504Y45384797D01*
X22523151Y45371053D01*
X22606489Y45315577D01*
X22606492Y45315575D01*
X22610878Y45312656D01*
X22735145Y45273833D01*
X22740413Y45273736D01*
X22740416Y45273736D01*
X22794990Y45272736D01*
X22865313Y45271447D01*
X22870396Y45272833D01*
X22870398Y45272833D01*
X22985828Y45304303D01*
X22985830Y45304304D01*
X22990918Y45305691D01*
X23065099Y45351238D01*
X23097371Y45371053D01*
X23097372Y45371054D01*
X23101864Y45373812D01*
X23189230Y45470333D01*
X23245995Y45587496D01*
X23246935Y45593080D01*
X23267120Y45713059D01*
X23267595Y45715881D01*
X23267732Y45727100D01*
X23265698Y45741301D01*
X23250417Y45848010D01*
X23260812Y45897550D01*
X23300619Y45928818D01*
X23323670Y45932500D01*
X23920666Y45932500D01*
X23968232Y45915187D01*
X23977312Y45906116D01*
X23984513Y45897550D01*
X23995146Y45884900D01*
X24012500Y45837284D01*
X24012500Y44626307D01*
X23995187Y44578741D01*
X23990826Y44573981D01*
X22920823Y43503977D01*
X22916063Y43499616D01*
X22890213Y43477925D01*
X22890211Y43477923D01*
X22885250Y43473760D01*
X22882011Y43468150D01*
X22865139Y43438927D01*
X22861670Y43433481D01*
X22842320Y43405848D01*
X22842319Y43405845D01*
X22838606Y43400543D01*
X22836930Y43394288D01*
X22834928Y43389995D01*
X22832363Y43383804D01*
X22830741Y43379348D01*
X22827503Y43373739D01*
X22820613Y43334666D01*
X22820520Y43334137D01*
X22819122Y43327834D01*
X22810389Y43295243D01*
X22810388Y43295237D01*
X22808713Y43288984D01*
X22809278Y43282532D01*
X22812218Y43248926D01*
X22812500Y43242476D01*
X22812500Y41855028D01*
X22805485Y41823579D01*
X22754050Y41714027D01*
X22751810Y41709255D01*
X22729542Y41566237D01*
X22730225Y41561014D01*
X22730225Y41561011D01*
X22733897Y41532931D01*
X22748309Y41422718D01*
X22750432Y41417893D01*
X22795422Y41315646D01*
X22806603Y41290234D01*
X22899738Y41179437D01*
X23020226Y41099234D01*
X23025258Y41097662D01*
X23025260Y41097661D01*
X23049455Y41090102D01*
X23158381Y41056071D01*
X23163648Y41055974D01*
X23163651Y41055974D01*
X23227465Y41054805D01*
X23303098Y41053419D01*
X23308181Y41054805D01*
X23308183Y41054805D01*
X23437653Y41090102D01*
X23437657Y41090104D01*
X23442742Y41091490D01*
X23566088Y41167225D01*
X23607812Y41213320D01*
X23659680Y41270623D01*
X23663220Y41274534D01*
X23726330Y41404792D01*
X23750344Y41547527D01*
X23750379Y41550388D01*
X23750380Y41550401D01*
X23750490Y41559404D01*
X23768382Y41606755D01*
X23812525Y41631527D01*
X23824484Y41632500D01*
X25938500Y41632500D01*
X25986066Y41615187D01*
X26011376Y41571350D01*
X26012500Y41558500D01*
X26012500Y38777524D01*
X26012218Y38771074D01*
X26008713Y38731016D01*
X26010388Y38724763D01*
X26010389Y38724757D01*
X26019122Y38692166D01*
X26020519Y38685867D01*
X26027503Y38646261D01*
X26030741Y38640652D01*
X26032363Y38636196D01*
X26034928Y38630005D01*
X26036930Y38625712D01*
X26038606Y38619457D01*
X26042319Y38614155D01*
X26042320Y38614152D01*
X26061670Y38586519D01*
X26065139Y38581073D01*
X26082011Y38551850D01*
X26085250Y38546240D01*
X26090211Y38542077D01*
X26090213Y38542075D01*
X26116063Y38520384D01*
X26120823Y38516023D01*
X26796034Y37840811D01*
X26800395Y37836051D01*
X26822079Y37810208D01*
X26822082Y37810206D01*
X26826240Y37805250D01*
X26831842Y37802016D01*
X26831844Y37802014D01*
X26861072Y37785140D01*
X26866515Y37781673D01*
X26899457Y37758606D01*
X26905709Y37756931D01*
X26909994Y37754932D01*
X26916224Y37752352D01*
X26920656Y37750739D01*
X26926261Y37747503D01*
X26932632Y37746380D01*
X26932634Y37746379D01*
X26956143Y37742234D01*
X26965876Y37740518D01*
X26972175Y37739122D01*
X27011015Y37728714D01*
X27017463Y37729278D01*
X27017464Y37729278D01*
X27051066Y37732218D01*
X27057516Y37732500D01*
X27393206Y37732500D01*
X27440772Y37715187D01*
X27466082Y37671350D01*
X27457292Y37621500D01*
X27448199Y37608985D01*
X27440402Y37600325D01*
X27440399Y37600321D01*
X27437805Y37597440D01*
X27345786Y37438059D01*
X27288915Y37263029D01*
X27288510Y37259180D01*
X27288510Y37259178D01*
X27284605Y37222025D01*
X27269678Y37080000D01*
X27270083Y37076147D01*
X27283470Y36948781D01*
X27288915Y36896971D01*
X27345786Y36721941D01*
X27437805Y36562560D01*
X27560950Y36425793D01*
X27564082Y36423517D01*
X27564087Y36423513D01*
X27706702Y36319898D01*
X27709839Y36317619D01*
X27713379Y36316043D01*
X27713384Y36316040D01*
X27855669Y36252691D01*
X27892082Y36217529D01*
X27897373Y36167187D01*
X27869067Y36125222D01*
X27851183Y36115663D01*
X27688398Y36055609D01*
X27682307Y36052704D01*
X27518336Y35955151D01*
X27512877Y35951185D01*
X27369433Y35825388D01*
X27364780Y35820484D01*
X27246671Y35670664D01*
X27242985Y35664988D01*
X27154159Y35496159D01*
X27151566Y35489896D01*
X27105786Y35342463D01*
X27106296Y35331836D01*
X27107196Y35330863D01*
X27110755Y35330000D01*
X28326000Y35330000D01*
X28373566Y35312687D01*
X28398876Y35268850D01*
X28400000Y35256000D01*
X28400000Y34042979D01*
X28403638Y34032983D01*
X28406051Y34031590D01*
X28585903Y34092642D01*
X28592073Y34095389D01*
X28758535Y34188611D01*
X28764105Y34192439D01*
X28910788Y34314435D01*
X28915565Y34319212D01*
X29037561Y34465895D01*
X29041389Y34471465D01*
X29134611Y34637927D01*
X29137357Y34644094D01*
X29185166Y34784935D01*
X29216850Y34824411D01*
X29266496Y34834287D01*
X29310875Y34809940D01*
X29325617Y34784016D01*
X29329113Y34773255D01*
X29344299Y34726519D01*
X29345786Y34721941D01*
X29437805Y34562560D01*
X29560950Y34425793D01*
X29564082Y34423517D01*
X29564087Y34423513D01*
X29706702Y34319898D01*
X29709839Y34317619D01*
X29713381Y34316042D01*
X29874419Y34244343D01*
X29874421Y34244342D01*
X29877966Y34242764D01*
X29881761Y34241957D01*
X29881762Y34241957D01*
X29895189Y34239103D01*
X30057981Y34204500D01*
X30242019Y34204500D01*
X30404811Y34239103D01*
X30418238Y34241957D01*
X30418239Y34241957D01*
X30422034Y34242764D01*
X30425579Y34244342D01*
X30425581Y34244343D01*
X30586619Y34316042D01*
X30590161Y34317619D01*
X30593298Y34319898D01*
X30735913Y34423513D01*
X30735918Y34423517D01*
X30739050Y34425793D01*
X30862195Y34562560D01*
X30954214Y34721941D01*
X30955702Y34726519D01*
X30970887Y34773255D01*
X31011085Y34896971D01*
X31011657Y34902407D01*
X31029917Y35076147D01*
X31030322Y35080000D01*
X31027242Y35109308D01*
X31011490Y35259178D01*
X31011490Y35259180D01*
X31011085Y35263029D01*
X30954214Y35438059D01*
X30862195Y35597440D01*
X30739050Y35734207D01*
X30735918Y35736483D01*
X30735913Y35736487D01*
X30593298Y35840102D01*
X30593297Y35840103D01*
X30590161Y35842381D01*
X30526295Y35870816D01*
X30425581Y35915657D01*
X30425579Y35915658D01*
X30422034Y35917236D01*
X30418239Y35918043D01*
X30418238Y35918043D01*
X30342221Y35934201D01*
X30242019Y35955500D01*
X30057981Y35955500D01*
X29957779Y35934201D01*
X29881762Y35918043D01*
X29881761Y35918043D01*
X29877966Y35917236D01*
X29874421Y35915658D01*
X29874419Y35915657D01*
X29773705Y35870816D01*
X29709839Y35842381D01*
X29706703Y35840103D01*
X29706702Y35840102D01*
X29564087Y35736487D01*
X29564082Y35736483D01*
X29560950Y35734207D01*
X29437805Y35597440D01*
X29345786Y35438059D01*
X29344587Y35434369D01*
X29324941Y35373904D01*
X29293777Y35334016D01*
X29244264Y35323491D01*
X29199570Y35347255D01*
X29183341Y35376684D01*
X29158819Y35463631D01*
X29156397Y35469939D01*
X29072013Y35641053D01*
X29068488Y35646807D01*
X28954335Y35799676D01*
X28949809Y35804703D01*
X28809718Y35934201D01*
X28804347Y35938322D01*
X28642999Y36040125D01*
X28636979Y36043192D01*
X28459773Y36113891D01*
X28455620Y36115121D01*
X28414930Y36145232D01*
X28403115Y36194452D01*
X28425702Y36239752D01*
X28446541Y36253675D01*
X28586616Y36316040D01*
X28586621Y36316043D01*
X28590161Y36317619D01*
X28593298Y36319898D01*
X28735913Y36423513D01*
X28735918Y36423517D01*
X28739050Y36425793D01*
X28862195Y36562560D01*
X28954214Y36721941D01*
X29011085Y36896971D01*
X29016531Y36948781D01*
X29029917Y37076147D01*
X29030322Y37080000D01*
X29015395Y37222025D01*
X29011490Y37259178D01*
X29011490Y37259180D01*
X29011085Y37263029D01*
X28954214Y37438059D01*
X28862195Y37597440D01*
X28859601Y37600321D01*
X28859598Y37600325D01*
X28851801Y37608985D01*
X28832839Y37655918D01*
X28848482Y37704060D01*
X28891409Y37730883D01*
X28906794Y37732500D01*
X29003694Y37732500D01*
X29051260Y37715187D01*
X29056020Y37710826D01*
X29309552Y37457293D01*
X29330944Y37411416D01*
X29327604Y37382102D01*
X29288915Y37263029D01*
X29288510Y37259180D01*
X29288510Y37259178D01*
X29284605Y37222025D01*
X29269678Y37080000D01*
X29270083Y37076147D01*
X29283470Y36948781D01*
X29288915Y36896971D01*
X29345786Y36721941D01*
X29437805Y36562560D01*
X29560950Y36425793D01*
X29564082Y36423517D01*
X29564087Y36423513D01*
X29706702Y36319898D01*
X29709839Y36317619D01*
X29713381Y36316042D01*
X29874419Y36244343D01*
X29874421Y36244342D01*
X29877966Y36242764D01*
X29881761Y36241957D01*
X29881762Y36241957D01*
X29892136Y36239752D01*
X30057981Y36204500D01*
X30242019Y36204500D01*
X30407864Y36239752D01*
X30418238Y36241957D01*
X30418239Y36241957D01*
X30422034Y36242764D01*
X30425579Y36244342D01*
X30425581Y36244343D01*
X30586619Y36316042D01*
X30590161Y36317619D01*
X30593298Y36319898D01*
X30735913Y36423513D01*
X30735918Y36423517D01*
X30739050Y36425793D01*
X30862195Y36562560D01*
X30954214Y36721941D01*
X31011085Y36896971D01*
X31016531Y36948781D01*
X31029917Y37076147D01*
X31030322Y37080000D01*
X31015395Y37222025D01*
X31011490Y37259178D01*
X31011490Y37259180D01*
X31011085Y37263029D01*
X30954214Y37438059D01*
X30862195Y37597440D01*
X30739050Y37734207D01*
X30735918Y37736483D01*
X30735913Y37736487D01*
X30593298Y37840102D01*
X30593297Y37840103D01*
X30590161Y37842381D01*
X30485734Y37888875D01*
X30425581Y37915657D01*
X30425579Y37915658D01*
X30422034Y37917236D01*
X30418239Y37918043D01*
X30418238Y37918043D01*
X30308588Y37941350D01*
X30242019Y37955500D01*
X30057981Y37955500D01*
X29991412Y37941350D01*
X29881762Y37918043D01*
X29881761Y37918043D01*
X29877966Y37917236D01*
X29854376Y37906733D01*
X29853817Y37906484D01*
X29803321Y37902954D01*
X29771393Y37921761D01*
X29413977Y38279177D01*
X29409616Y38283937D01*
X29387925Y38309787D01*
X29387923Y38309789D01*
X29383760Y38314750D01*
X29378150Y38317989D01*
X29348927Y38334861D01*
X29343481Y38338330D01*
X29343109Y38338591D01*
X29324469Y38351643D01*
X29315848Y38357680D01*
X29315845Y38357681D01*
X29310543Y38361394D01*
X29304288Y38363070D01*
X29299995Y38365072D01*
X29293804Y38367637D01*
X29289348Y38369259D01*
X29283739Y38372497D01*
X29244133Y38379481D01*
X29237834Y38380878D01*
X29205243Y38389611D01*
X29205237Y38389612D01*
X29198984Y38391287D01*
X29158926Y38387782D01*
X29152476Y38387500D01*
X28870778Y38387500D01*
X28823212Y38404813D01*
X28797902Y38448650D01*
X28806692Y38498500D01*
X28815785Y38511015D01*
X28859599Y38559675D01*
X28859606Y38559685D01*
X28862195Y38562560D01*
X28954214Y38721941D01*
X29011085Y38896971D01*
X29013491Y38919856D01*
X29029917Y39076147D01*
X29030322Y39080000D01*
X29269678Y39080000D01*
X29270083Y39076147D01*
X29286510Y38919856D01*
X29288915Y38896971D01*
X29345786Y38721941D01*
X29437805Y38562560D01*
X29560950Y38425793D01*
X29564082Y38423517D01*
X29564087Y38423513D01*
X29686107Y38334861D01*
X29709839Y38317619D01*
X29713381Y38316042D01*
X29874419Y38244343D01*
X29874421Y38244342D01*
X29877966Y38242764D01*
X29881761Y38241957D01*
X29881762Y38241957D01*
X29882755Y38241746D01*
X30057981Y38204500D01*
X30242019Y38204500D01*
X30417245Y38241746D01*
X30418238Y38241957D01*
X30418239Y38241957D01*
X30422034Y38242764D01*
X30425579Y38244342D01*
X30425581Y38244343D01*
X30586619Y38316042D01*
X30590161Y38317619D01*
X30613893Y38334861D01*
X30735913Y38423513D01*
X30735918Y38423517D01*
X30739050Y38425793D01*
X30862195Y38562560D01*
X30954214Y38721941D01*
X31011085Y38896971D01*
X31013491Y38919856D01*
X31029917Y39076147D01*
X31030322Y39080000D01*
X31021118Y39167570D01*
X31011490Y39259178D01*
X31011490Y39259180D01*
X31011085Y39263029D01*
X30954214Y39438059D01*
X30862195Y39597440D01*
X30739050Y39734207D01*
X30735918Y39736483D01*
X30735913Y39736487D01*
X30593298Y39840102D01*
X30593297Y39840103D01*
X30590161Y39842381D01*
X30582262Y39845898D01*
X30425581Y39915657D01*
X30425579Y39915658D01*
X30422034Y39917236D01*
X30418239Y39918043D01*
X30418238Y39918043D01*
X30372164Y39927836D01*
X30242019Y39955500D01*
X30057981Y39955500D01*
X29927836Y39927836D01*
X29881762Y39918043D01*
X29881761Y39918043D01*
X29877966Y39917236D01*
X29874421Y39915658D01*
X29874419Y39915657D01*
X29717738Y39845898D01*
X29709839Y39842381D01*
X29706703Y39840103D01*
X29706702Y39840102D01*
X29564087Y39736487D01*
X29564082Y39736483D01*
X29560950Y39734207D01*
X29437805Y39597440D01*
X29345786Y39438059D01*
X29288915Y39263029D01*
X29288510Y39259180D01*
X29288510Y39259178D01*
X29278882Y39167570D01*
X29269678Y39080000D01*
X29030322Y39080000D01*
X29021118Y39167570D01*
X29011490Y39259178D01*
X29011490Y39259180D01*
X29011085Y39263029D01*
X28954214Y39438059D01*
X28862195Y39597440D01*
X28739050Y39734207D01*
X28735918Y39736483D01*
X28735913Y39736487D01*
X28593298Y39840102D01*
X28593297Y39840103D01*
X28590161Y39842381D01*
X28582262Y39845898D01*
X28425581Y39915657D01*
X28425579Y39915658D01*
X28422034Y39917236D01*
X28418239Y39918043D01*
X28418238Y39918043D01*
X28372164Y39927836D01*
X28242019Y39955500D01*
X28057981Y39955500D01*
X27927836Y39927836D01*
X27881762Y39918043D01*
X27881761Y39918043D01*
X27877966Y39917236D01*
X27874421Y39915658D01*
X27874419Y39915657D01*
X27717738Y39845898D01*
X27709839Y39842381D01*
X27706703Y39840103D01*
X27706702Y39840102D01*
X27564087Y39736487D01*
X27564082Y39736483D01*
X27560950Y39734207D01*
X27437805Y39597440D01*
X27345786Y39438059D01*
X27288915Y39263029D01*
X27288510Y39259180D01*
X27288510Y39259178D01*
X27278882Y39167570D01*
X27269678Y39080000D01*
X27270083Y39076147D01*
X27286510Y38919856D01*
X27288915Y38896971D01*
X27345786Y38721941D01*
X27437805Y38562560D01*
X27440394Y38559685D01*
X27440401Y38559675D01*
X27484215Y38511015D01*
X27503177Y38464082D01*
X27487535Y38415941D01*
X27444607Y38389117D01*
X27429222Y38387500D01*
X27206307Y38387500D01*
X27158741Y38404813D01*
X27153981Y38409174D01*
X26689174Y38873980D01*
X26667782Y38919856D01*
X26667500Y38926306D01*
X26667500Y40385252D01*
X27274500Y40385252D01*
X27286133Y40326769D01*
X27290184Y40320707D01*
X27290184Y40320706D01*
X27293565Y40315646D01*
X27330448Y40260448D01*
X27336509Y40256398D01*
X27356914Y40242764D01*
X27396769Y40216133D01*
X27437772Y40207977D01*
X27451682Y40205210D01*
X27451683Y40205210D01*
X27455252Y40204500D01*
X28844748Y40204500D01*
X28848317Y40205210D01*
X28848318Y40205210D01*
X28862228Y40207977D01*
X28903231Y40216133D01*
X28943087Y40242764D01*
X28963491Y40256398D01*
X28969552Y40260448D01*
X29006435Y40315646D01*
X29009816Y40320706D01*
X29009816Y40320707D01*
X29013867Y40326769D01*
X29025500Y40385252D01*
X29025500Y41080000D01*
X29269678Y41080000D01*
X29270083Y41076147D01*
X29287112Y40914130D01*
X29288915Y40896971D01*
X29345786Y40721941D01*
X29437805Y40562560D01*
X29560950Y40425793D01*
X29564082Y40423517D01*
X29564087Y40423513D01*
X29690466Y40331694D01*
X29709839Y40317619D01*
X29713381Y40316042D01*
X29874419Y40244343D01*
X29874421Y40244342D01*
X29877966Y40242764D01*
X29881761Y40241957D01*
X29881762Y40241957D01*
X29927836Y40232164D01*
X30057981Y40204500D01*
X30242019Y40204500D01*
X30372164Y40232164D01*
X30418238Y40241957D01*
X30418239Y40241957D01*
X30422034Y40242764D01*
X30425579Y40244342D01*
X30425581Y40244343D01*
X30586619Y40316042D01*
X30590161Y40317619D01*
X30609534Y40331694D01*
X30735913Y40423513D01*
X30735918Y40423517D01*
X30739050Y40425793D01*
X30862195Y40562560D01*
X30954214Y40721941D01*
X31011085Y40896971D01*
X31012889Y40914130D01*
X31029917Y41076147D01*
X31030322Y41080000D01*
X31022461Y41154792D01*
X31011490Y41259178D01*
X31011490Y41259180D01*
X31011085Y41263029D01*
X30954214Y41438059D01*
X30862195Y41597440D01*
X30739050Y41734207D01*
X30735918Y41736483D01*
X30735913Y41736487D01*
X30593298Y41840102D01*
X30593297Y41840103D01*
X30590161Y41842381D01*
X30519730Y41873739D01*
X30425581Y41915657D01*
X30425579Y41915658D01*
X30422034Y41917236D01*
X30418239Y41918043D01*
X30418238Y41918043D01*
X30372164Y41927836D01*
X30242019Y41955500D01*
X30057981Y41955500D01*
X29927836Y41927836D01*
X29881762Y41918043D01*
X29881761Y41918043D01*
X29877966Y41917236D01*
X29874421Y41915658D01*
X29874419Y41915657D01*
X29780270Y41873739D01*
X29709839Y41842381D01*
X29706703Y41840103D01*
X29706702Y41840102D01*
X29564087Y41736487D01*
X29564082Y41736483D01*
X29560950Y41734207D01*
X29437805Y41597440D01*
X29345786Y41438059D01*
X29288915Y41263029D01*
X29288510Y41259180D01*
X29288510Y41259178D01*
X29277539Y41154792D01*
X29269678Y41080000D01*
X29025500Y41080000D01*
X29025500Y41774748D01*
X29013867Y41833231D01*
X29006700Y41843958D01*
X28973602Y41893491D01*
X28969552Y41899552D01*
X28945450Y41915657D01*
X28909294Y41939816D01*
X28909293Y41939816D01*
X28903231Y41943867D01*
X28858705Y41952724D01*
X28848318Y41954790D01*
X28848317Y41954790D01*
X28844748Y41955500D01*
X27455252Y41955500D01*
X27451683Y41954790D01*
X27451682Y41954790D01*
X27441295Y41952724D01*
X27396769Y41943867D01*
X27390707Y41939816D01*
X27390706Y41939816D01*
X27354550Y41915657D01*
X27330448Y41899552D01*
X27326398Y41893491D01*
X27293301Y41843958D01*
X27286133Y41833231D01*
X27274500Y41774748D01*
X27274500Y40385252D01*
X26667500Y40385252D01*
X26667500Y41742476D01*
X26667782Y41748926D01*
X26669723Y41771108D01*
X26671287Y41788984D01*
X26668753Y41798442D01*
X26660877Y41827837D01*
X26659480Y41834138D01*
X26653621Y41867365D01*
X26652497Y41873739D01*
X26649261Y41879343D01*
X26647636Y41883808D01*
X26645077Y41889985D01*
X26643071Y41894287D01*
X26641395Y41900543D01*
X26618316Y41933504D01*
X26614866Y41938918D01*
X26604347Y41957138D01*
X26597986Y41968156D01*
X26597984Y41968158D01*
X26594750Y41973760D01*
X26589794Y41977918D01*
X26589792Y41977921D01*
X26563949Y41999605D01*
X26559189Y42003966D01*
X26383976Y42179178D01*
X26379614Y42183938D01*
X26357922Y42209790D01*
X26353760Y42214750D01*
X26339029Y42223255D01*
X26318927Y42234861D01*
X26313481Y42238330D01*
X26285848Y42257680D01*
X26285845Y42257681D01*
X26280543Y42261394D01*
X26274288Y42263070D01*
X26269995Y42265072D01*
X26263804Y42267637D01*
X26259348Y42269259D01*
X26253739Y42272497D01*
X26214133Y42279481D01*
X26207834Y42280878D01*
X26175243Y42289611D01*
X26175237Y42289612D01*
X26168984Y42291287D01*
X26128926Y42287782D01*
X26122476Y42287500D01*
X23541500Y42287500D01*
X23493934Y42304813D01*
X23468624Y42348650D01*
X23467500Y42361500D01*
X23467500Y43093694D01*
X23484813Y43141260D01*
X23489174Y43146020D01*
X24559190Y44216035D01*
X24563936Y44220385D01*
X24594750Y44246240D01*
X24597984Y44251842D01*
X24597986Y44251844D01*
X24614860Y44281072D01*
X24618329Y44286517D01*
X24641394Y44319457D01*
X24643069Y44325709D01*
X24645068Y44329994D01*
X24647648Y44336224D01*
X24649261Y44340656D01*
X24652497Y44346261D01*
X24659482Y44385876D01*
X24660879Y44392178D01*
X24667632Y44417380D01*
X24671286Y44431015D01*
X24670711Y44437594D01*
X24668493Y44462946D01*
X27646169Y44462946D01*
X27665994Y44236341D01*
X27666832Y44233215D01*
X27666832Y44233213D01*
X27679666Y44185316D01*
X27724868Y44016621D01*
X27821001Y43810463D01*
X27951473Y43624130D01*
X28112319Y43463284D01*
X28298652Y43332812D01*
X28504810Y43236679D01*
X28573722Y43218214D01*
X28721402Y43178643D01*
X28721404Y43178643D01*
X28724530Y43177805D01*
X28951135Y43157980D01*
X29177740Y43177805D01*
X29180866Y43178643D01*
X29180868Y43178643D01*
X29328548Y43218214D01*
X29397460Y43236679D01*
X29603618Y43332812D01*
X29789951Y43463284D01*
X29950797Y43624130D01*
X30081269Y43810463D01*
X30177402Y44016621D01*
X30222604Y44185316D01*
X30235438Y44233213D01*
X30235438Y44233215D01*
X30236276Y44236341D01*
X30256101Y44462946D01*
X30236276Y44689551D01*
X30177402Y44909271D01*
X30081269Y45115429D01*
X30079218Y45118359D01*
X29992384Y45242369D01*
X29950797Y45301762D01*
X29789951Y45462608D01*
X29620956Y45580940D01*
X29606266Y45591226D01*
X29606265Y45591227D01*
X29603618Y45593080D01*
X29397460Y45689213D01*
X29203066Y45741301D01*
X29180868Y45747249D01*
X29180866Y45747249D01*
X29177740Y45748087D01*
X28951135Y45767912D01*
X28724530Y45748087D01*
X28721404Y45747249D01*
X28721402Y45747249D01*
X28699204Y45741301D01*
X28504810Y45689213D01*
X28298652Y45593080D01*
X28296005Y45591227D01*
X28296004Y45591226D01*
X28281314Y45580940D01*
X28112319Y45462608D01*
X27951473Y45301762D01*
X27909886Y45242369D01*
X27823053Y45118359D01*
X27821001Y45115429D01*
X27724868Y44909271D01*
X27665994Y44689551D01*
X27646169Y44462946D01*
X24668493Y44462946D01*
X24667782Y44471066D01*
X24667500Y44477516D01*
X24667500Y45840267D01*
X24686637Y45889927D01*
X24759680Y45970623D01*
X24763220Y45974534D01*
X24826330Y46104792D01*
X24850344Y46247527D01*
X24850496Y46260000D01*
X24829977Y46403279D01*
X24770069Y46535040D01*
X24715230Y46598684D01*
X24697295Y46646019D01*
X24713984Y46693808D01*
X24757486Y46719689D01*
X24771306Y46720988D01*
X26915418Y46720507D01*
X28919998Y46720058D01*
X28936563Y46718176D01*
X28950775Y46714908D01*
X28958903Y46716747D01*
X28959648Y46716746D01*
X28979295Y46718341D01*
X29112583Y46710245D01*
X29219823Y46703731D01*
X29228729Y46702645D01*
X29489047Y46654740D01*
X29497757Y46652584D01*
X29750361Y46573526D01*
X29758746Y46570332D01*
X29999935Y46461278D01*
X30007871Y46457092D01*
X30234079Y46319655D01*
X30241439Y46314548D01*
X30449368Y46150729D01*
X30456058Y46144767D01*
X30549956Y46050262D01*
X30642618Y45957000D01*
X30648545Y45950263D01*
X30711344Y45869489D01*
X30811010Y45741295D01*
X30816070Y45733903D01*
X30842328Y45690051D01*
X30952056Y45506798D01*
X30956190Y45498835D01*
X31063686Y45256951D01*
X31066823Y45248554D01*
X31144250Y44995446D01*
X31146350Y44986723D01*
X31192578Y44726094D01*
X31193606Y44717183D01*
X31196930Y44655925D01*
X31206638Y44477043D01*
X31204986Y44458557D01*
X31204972Y44456895D01*
X31203053Y44448787D01*
X31204840Y44440646D01*
X31204840Y44440645D01*
X31206460Y44433265D01*
X31208181Y44417381D01*
X31204491Y30438591D01*
X31197113Y2491141D01*
X31195231Y2474578D01*
X31194963Y2473412D01*
X31191962Y2460360D01*
X31193801Y2452232D01*
X31193800Y2451487D01*
X31195395Y2431840D01*
X31189099Y2328183D01*
X31180785Y2191312D01*
X31179699Y2182406D01*
X31131794Y1922088D01*
X31129638Y1913378D01*
X31050580Y1660774D01*
X31047386Y1652389D01*
X30938332Y1411200D01*
X30934146Y1403264D01*
X30910641Y1364577D01*
X30797358Y1178123D01*
X30796713Y1177062D01*
X30791602Y1169696D01*
X30627787Y961771D01*
X30621817Y955073D01*
X30434054Y768517D01*
X30427317Y762590D01*
X30379454Y725378D01*
X30218349Y600125D01*
X30210957Y595065D01*
X30192478Y584000D01*
X29983852Y459079D01*
X29975889Y454945D01*
X29734005Y347449D01*
X29725611Y344313D01*
X29630248Y315141D01*
X29472500Y266885D01*
X29463777Y264785D01*
X29284776Y233035D01*
X29203146Y218557D01*
X29194237Y217529D01*
X29070065Y210790D01*
X28954097Y204497D01*
X28935611Y206149D01*
X28933949Y206163D01*
X28925841Y208082D01*
X28910520Y204719D01*
X28910288Y204668D01*
X28894420Y202948D01*
X20215402Y203544D01*
X20167837Y220860D01*
X20142530Y264699D01*
X20151324Y314548D01*
X20185309Y345147D01*
X20262934Y379707D01*
X20269622Y383568D01*
X20416396Y490206D01*
X20422127Y495366D01*
X20543534Y630201D01*
X20548064Y636437D01*
X20638781Y793564D01*
X20641917Y800607D01*
X20697983Y973158D01*
X20699588Y980707D01*
X20713798Y1115910D01*
X20714000Y1119776D01*
X20714000Y1201952D01*
X20710362Y1211948D01*
X20705075Y1215000D01*
X18963589Y1215000D01*
X18916023Y1232313D01*
X18890713Y1276150D01*
X18890500Y1277703D01*
X18890500Y1279748D01*
X18878867Y1338231D01*
X18874322Y1345034D01*
X18838602Y1398491D01*
X18834552Y1404552D01*
X18824603Y1411200D01*
X18774294Y1444816D01*
X18774293Y1444816D01*
X18768231Y1448867D01*
X18722884Y1457887D01*
X18713318Y1459790D01*
X18713317Y1459790D01*
X18709748Y1460500D01*
X17170252Y1460500D01*
X17166683Y1459790D01*
X17166682Y1459790D01*
X17157116Y1457887D01*
X17111769Y1448867D01*
X17105707Y1444816D01*
X17105706Y1444816D01*
X17055397Y1411200D01*
X17045448Y1404552D01*
X17041398Y1398491D01*
X17005679Y1345034D01*
X17001133Y1338231D01*
X16989500Y1279748D01*
X16989500Y277770D01*
X16972187Y230204D01*
X16928350Y204894D01*
X16915495Y203770D01*
X14263995Y203952D01*
X14216430Y221268D01*
X14191123Y265107D01*
X14190000Y277952D01*
X14190000Y496952D01*
X14186362Y506948D01*
X14181075Y510000D01*
X12864000Y510000D01*
X12816434Y527313D01*
X12791124Y571150D01*
X12790000Y584000D01*
X12790000Y1023048D01*
X13290000Y1023048D01*
X13293638Y1013052D01*
X13298925Y1010000D01*
X14176951Y1010000D01*
X14186947Y1013638D01*
X14189999Y1018925D01*
X14189999Y1288571D01*
X14189544Y1294354D01*
X14176076Y1379394D01*
X14172519Y1390340D01*
X14120287Y1492853D01*
X14113522Y1502164D01*
X14032164Y1583522D01*
X14022853Y1590287D01*
X13920342Y1642519D01*
X13909393Y1646077D01*
X13824354Y1659545D01*
X13818572Y1660000D01*
X13303048Y1660000D01*
X13293052Y1656362D01*
X13290000Y1651075D01*
X13290000Y1023048D01*
X12790000Y1023048D01*
X12790000Y1646951D01*
X12786362Y1656947D01*
X12781075Y1659999D01*
X12261429Y1659999D01*
X12255646Y1659544D01*
X12164852Y1645165D01*
X12164660Y1646376D01*
X12120272Y1647931D01*
X12082658Y1681806D01*
X12074000Y1716540D01*
X12074000Y1728048D01*
X18914000Y1728048D01*
X18917638Y1718052D01*
X18922925Y1715000D01*
X19550952Y1715000D01*
X19560948Y1718638D01*
X19564000Y1723925D01*
X19564000Y1728048D01*
X20064000Y1728048D01*
X20067638Y1718052D01*
X20072925Y1715000D01*
X20700952Y1715000D01*
X20710948Y1718638D01*
X20714000Y1723925D01*
X20714000Y1810224D01*
X20713798Y1814090D01*
X20699588Y1949293D01*
X20697983Y1956842D01*
X20641917Y2129393D01*
X20638781Y2136436D01*
X20548064Y2293563D01*
X20543534Y2299799D01*
X20422127Y2434634D01*
X20416396Y2439794D01*
X20269623Y2546432D01*
X20262928Y2550297D01*
X20097193Y2624086D01*
X20089853Y2626471D01*
X20076763Y2629254D01*
X20066230Y2627774D01*
X20064113Y2625422D01*
X20064000Y2624842D01*
X20064000Y1728048D01*
X19564000Y1728048D01*
X19564000Y2618919D01*
X19560362Y2628915D01*
X19557623Y2630496D01*
X19557030Y2630485D01*
X19538147Y2626471D01*
X19530807Y2624086D01*
X19365073Y2550297D01*
X19358378Y2546432D01*
X19211604Y2439794D01*
X19205873Y2434634D01*
X19084466Y2299799D01*
X19079936Y2293563D01*
X18989219Y2136436D01*
X18986083Y2129393D01*
X18930017Y1956842D01*
X18928412Y1949293D01*
X18914202Y1814090D01*
X18914000Y1810224D01*
X18914000Y1728048D01*
X12074000Y1728048D01*
X12074000Y1810224D01*
X12073798Y1814090D01*
X12059588Y1949293D01*
X12057983Y1956842D01*
X12001917Y2129393D01*
X11998781Y2136436D01*
X11908064Y2293563D01*
X11903534Y2299799D01*
X11782127Y2434634D01*
X11776396Y2439794D01*
X11629623Y2546432D01*
X11622928Y2550297D01*
X11457193Y2624086D01*
X11449853Y2626471D01*
X11436763Y2629254D01*
X11426230Y2627774D01*
X11424113Y2625422D01*
X11424000Y2624842D01*
X11424000Y1289000D01*
X11406687Y1241434D01*
X11362850Y1216124D01*
X11350000Y1215000D01*
X10287048Y1215000D01*
X10277052Y1211362D01*
X10274000Y1206075D01*
X10274000Y1119776D01*
X10274202Y1115910D01*
X10288412Y980707D01*
X10290017Y973158D01*
X10346083Y800607D01*
X10349219Y793564D01*
X10439936Y636437D01*
X10444466Y630201D01*
X10565873Y495366D01*
X10571604Y490206D01*
X10718377Y383568D01*
X10725072Y379703D01*
X10801236Y345793D01*
X10837649Y310631D01*
X10842940Y260289D01*
X10814634Y218324D01*
X10771133Y204191D01*
X3071128Y204719D01*
X3054551Y206602D01*
X3048484Y207997D01*
X3048483Y207997D01*
X3040360Y209865D01*
X3032232Y208026D01*
X3031487Y208027D01*
X3011840Y206432D01*
X2878148Y214553D01*
X2771312Y221042D01*
X2762406Y222128D01*
X2502088Y270033D01*
X2493378Y272189D01*
X2240774Y351247D01*
X2232389Y354441D01*
X1991200Y463495D01*
X1983264Y467681D01*
X1788384Y586084D01*
X1757056Y605118D01*
X1749696Y610225D01*
X1541767Y774044D01*
X1535073Y780010D01*
X1521607Y793564D01*
X1361135Y955073D01*
X1348517Y967773D01*
X1342590Y974510D01*
X1229651Y1119776D01*
X1180125Y1183478D01*
X1175061Y1190876D01*
X1165961Y1206075D01*
X1086828Y1338231D01*
X1039079Y1417975D01*
X1034945Y1425938D01*
X986625Y1534666D01*
X927449Y1667822D01*
X924312Y1676219D01*
X914567Y1708077D01*
X883319Y1810224D01*
X846885Y1929327D01*
X844785Y1938050D01*
X809597Y2136436D01*
X798557Y2198681D01*
X797529Y2207593D01*
X797315Y2211548D01*
X785818Y2423395D01*
X784497Y2447730D01*
X786149Y2466216D01*
X786163Y2467878D01*
X788082Y2475986D01*
X786295Y2484127D01*
X786295Y2484130D01*
X784667Y2491547D01*
X782946Y2507409D01*
X782942Y2650000D01*
X1832008Y2650000D01*
X1851833Y2423395D01*
X1910707Y2203675D01*
X2006840Y1997517D01*
X2137312Y1811184D01*
X2298158Y1650338D01*
X2484491Y1519866D01*
X2690649Y1423733D01*
X2749686Y1407914D01*
X2907241Y1365697D01*
X2907243Y1365697D01*
X2910369Y1364859D01*
X3136974Y1345034D01*
X3363579Y1364859D01*
X3366705Y1365697D01*
X3366707Y1365697D01*
X3524262Y1407914D01*
X3583299Y1423733D01*
X3789457Y1519866D01*
X3975790Y1650338D01*
X4053500Y1728048D01*
X10274000Y1728048D01*
X10277638Y1718052D01*
X10282925Y1715000D01*
X10910952Y1715000D01*
X10920948Y1718638D01*
X10924000Y1723925D01*
X10924000Y2618919D01*
X10920362Y2628915D01*
X10917623Y2630496D01*
X10917030Y2630485D01*
X10898147Y2626471D01*
X10890807Y2624086D01*
X10725073Y2550297D01*
X10718378Y2546432D01*
X10571604Y2439794D01*
X10565873Y2434634D01*
X10444466Y2299799D01*
X10439936Y2293563D01*
X10349219Y2136436D01*
X10346083Y2129393D01*
X10290017Y1956842D01*
X10288412Y1949293D01*
X10274202Y1814090D01*
X10274000Y1810224D01*
X10274000Y1728048D01*
X4053500Y1728048D01*
X4136636Y1811184D01*
X4267108Y1997517D01*
X4363241Y2203675D01*
X4422115Y2423395D01*
X4441940Y2650000D01*
X4422115Y2876605D01*
X4406878Y2933472D01*
X4364079Y3093197D01*
X4363241Y3096325D01*
X4267108Y3302483D01*
X4136636Y3488816D01*
X3975790Y3649662D01*
X3789457Y3780134D01*
X3583299Y3876267D01*
X3473439Y3905704D01*
X3366707Y3934303D01*
X3366705Y3934303D01*
X3363579Y3935141D01*
X3136974Y3954966D01*
X2910369Y3935141D01*
X2907243Y3934303D01*
X2907241Y3934303D01*
X2800509Y3905704D01*
X2690649Y3876267D01*
X2484491Y3780134D01*
X2298158Y3649662D01*
X2137312Y3488816D01*
X2006840Y3302483D01*
X1910707Y3096325D01*
X1909869Y3093197D01*
X1867071Y2933472D01*
X1851833Y2876605D01*
X1832008Y2650000D01*
X782942Y2650000D01*
X782871Y5049776D01*
X10274000Y5049776D01*
X10274202Y5045910D01*
X10288412Y4910707D01*
X10290017Y4903158D01*
X10346083Y4730607D01*
X10349219Y4723564D01*
X10439936Y4566437D01*
X10444466Y4560201D01*
X10565873Y4425366D01*
X10571604Y4420206D01*
X10718377Y4313568D01*
X10725072Y4309703D01*
X10890807Y4235914D01*
X10898147Y4233529D01*
X10911237Y4230746D01*
X10921770Y4232226D01*
X10923887Y4234578D01*
X10924000Y4235158D01*
X10924000Y4241081D01*
X11424000Y4241081D01*
X11427638Y4231085D01*
X11430377Y4229504D01*
X11430970Y4229515D01*
X11449853Y4233529D01*
X11457193Y4235914D01*
X11541420Y4273414D01*
X11591915Y4276945D01*
X11632867Y4247192D01*
X11645113Y4198077D01*
X11638503Y4174363D01*
X11600890Y4094249D01*
X11580860Y3965610D01*
X11581543Y3960387D01*
X11581543Y3960384D01*
X11592434Y3877105D01*
X11597741Y3836519D01*
X11650174Y3717355D01*
X11664819Y3699933D01*
X11730556Y3621729D01*
X11730559Y3621726D01*
X11733946Y3617697D01*
X11738333Y3614777D01*
X11837931Y3548477D01*
X11837934Y3548475D01*
X11842320Y3545556D01*
X11966587Y3506733D01*
X11971855Y3506636D01*
X11971858Y3506636D01*
X12017689Y3505796D01*
X12064930Y3487614D01*
X12089373Y3440227D01*
X12089500Y3440252D01*
X12101133Y3381769D01*
X12105184Y3375707D01*
X12105184Y3375706D01*
X12123569Y3348192D01*
X12145448Y3315448D01*
X12151509Y3311398D01*
X12191847Y3284445D01*
X12211769Y3271133D01*
X12256295Y3262276D01*
X12266682Y3260210D01*
X12266683Y3260210D01*
X12270252Y3259500D01*
X13809748Y3259500D01*
X13813317Y3260210D01*
X13813318Y3260210D01*
X13823705Y3262276D01*
X13868231Y3271133D01*
X13888154Y3284445D01*
X13928491Y3311398D01*
X13934552Y3315448D01*
X13956431Y3348192D01*
X13974816Y3375706D01*
X13974816Y3375707D01*
X13978867Y3381769D01*
X13990500Y3440252D01*
X16989500Y3440252D01*
X17001133Y3381769D01*
X17005184Y3375707D01*
X17005184Y3375706D01*
X17023569Y3348192D01*
X17045448Y3315448D01*
X17051509Y3311398D01*
X17091847Y3284445D01*
X17111769Y3271133D01*
X17156295Y3262276D01*
X17166682Y3260210D01*
X17166683Y3260210D01*
X17170252Y3259500D01*
X18709748Y3259500D01*
X18713317Y3260210D01*
X18713318Y3260210D01*
X18723705Y3262276D01*
X18768231Y3271133D01*
X18788154Y3284445D01*
X18828491Y3311398D01*
X18834552Y3315448D01*
X18856431Y3348192D01*
X18874816Y3375706D01*
X18874816Y3375707D01*
X18878867Y3381769D01*
X18890500Y3440252D01*
X18890500Y4479748D01*
X18878867Y4538231D01*
X18834552Y4604552D01*
X18768231Y4648867D01*
X18769283Y4650441D01*
X18739031Y4678161D01*
X18732424Y4728347D01*
X18752342Y4764655D01*
X18754943Y4767256D01*
X18758791Y4770209D01*
X18823806Y4854938D01*
X18866498Y4882136D01*
X18916683Y4875529D01*
X18950881Y4838208D01*
X18952892Y4832758D01*
X18986083Y4730607D01*
X18989219Y4723564D01*
X19079936Y4566437D01*
X19084466Y4560201D01*
X19205873Y4425366D01*
X19211604Y4420206D01*
X19358377Y4313568D01*
X19365072Y4309703D01*
X19530807Y4235914D01*
X19538147Y4233529D01*
X19551237Y4230746D01*
X19561770Y4232226D01*
X19563887Y4234578D01*
X19564000Y4235158D01*
X19564000Y4241081D01*
X20064000Y4241081D01*
X20067638Y4231085D01*
X20070377Y4229504D01*
X20070970Y4229515D01*
X20089853Y4233529D01*
X20097193Y4235914D01*
X20262927Y4309703D01*
X20269622Y4313568D01*
X20416396Y4420206D01*
X20422127Y4425366D01*
X20543534Y4560201D01*
X20548064Y4566437D01*
X20638781Y4723564D01*
X20641917Y4730607D01*
X20697983Y4903158D01*
X20699588Y4910707D01*
X20713798Y5045910D01*
X20714000Y5049776D01*
X20714000Y5381952D01*
X20710362Y5391948D01*
X20705075Y5395000D01*
X20077048Y5395000D01*
X20067052Y5391362D01*
X20064000Y5386075D01*
X20064000Y4241081D01*
X19564000Y4241081D01*
X19564000Y5381952D01*
X19560362Y5391948D01*
X19555075Y5395000D01*
X18927050Y5395000D01*
X18921363Y5392930D01*
X18870744Y5392929D01*
X18837344Y5417419D01*
X18758791Y5519791D01*
X18748430Y5527742D01*
X18652865Y5601072D01*
X18649018Y5604024D01*
X18644539Y5605879D01*
X18644536Y5605881D01*
X18525664Y5655118D01*
X18521183Y5656974D01*
X18384000Y5675035D01*
X18246817Y5656974D01*
X18242336Y5655118D01*
X18241795Y5654894D01*
X18118983Y5604024D01*
X18009209Y5519791D01*
X17950207Y5442898D01*
X17907516Y5415702D01*
X17857330Y5422309D01*
X17823133Y5459630D01*
X17817500Y5487948D01*
X17817500Y5908048D01*
X18914000Y5908048D01*
X18917638Y5898052D01*
X18922925Y5895000D01*
X19550952Y5895000D01*
X19560948Y5898638D01*
X19564000Y5903925D01*
X19564000Y5908048D01*
X20064000Y5908048D01*
X20067638Y5898052D01*
X20072925Y5895000D01*
X20700952Y5895000D01*
X20710948Y5898638D01*
X20714000Y5903925D01*
X20714000Y6240224D01*
X20713798Y6244090D01*
X20699588Y6379293D01*
X20697983Y6386842D01*
X20641917Y6559393D01*
X20638781Y6566436D01*
X20548064Y6723563D01*
X20543534Y6729799D01*
X20422127Y6864634D01*
X20416396Y6869794D01*
X20269623Y6976432D01*
X20262928Y6980297D01*
X20097193Y7054086D01*
X20089853Y7056471D01*
X20076763Y7059254D01*
X20066230Y7057774D01*
X20064113Y7055422D01*
X20064000Y7054842D01*
X20064000Y5908048D01*
X19564000Y5908048D01*
X19564000Y7048919D01*
X19560362Y7058915D01*
X19557623Y7060496D01*
X19557030Y7060485D01*
X19538147Y7056471D01*
X19530807Y7054086D01*
X19365073Y6980297D01*
X19358378Y6976432D01*
X19211604Y6869794D01*
X19205873Y6864634D01*
X19084466Y6729799D01*
X19079936Y6723563D01*
X18989219Y6566436D01*
X18986083Y6559393D01*
X18930017Y6386842D01*
X18928412Y6379293D01*
X18914202Y6244090D01*
X18914000Y6240224D01*
X18914000Y5908048D01*
X17817500Y5908048D01*
X17817500Y7153694D01*
X17834813Y7201260D01*
X17839174Y7206020D01*
X18004776Y7371621D01*
X18050653Y7393013D01*
X18099278Y7379984D01*
X18099738Y7379437D01*
X18220226Y7299234D01*
X18225258Y7297662D01*
X18225260Y7297661D01*
X18249455Y7290102D01*
X18358381Y7256071D01*
X18363648Y7255974D01*
X18363651Y7255974D01*
X18427465Y7254805D01*
X18503098Y7253419D01*
X18508181Y7254805D01*
X18508183Y7254805D01*
X18637653Y7290102D01*
X18637657Y7290104D01*
X18642742Y7291490D01*
X18766088Y7367225D01*
X18775609Y7377743D01*
X18859680Y7470623D01*
X18863220Y7474534D01*
X18926330Y7604792D01*
X18950344Y7747527D01*
X18950496Y7760000D01*
X18948996Y7770478D01*
X18930724Y7898063D01*
X18929977Y7903279D01*
X18870069Y8035040D01*
X18775587Y8144691D01*
X18714858Y8184054D01*
X18658551Y8220551D01*
X18658550Y8220552D01*
X18654129Y8223417D01*
X18649081Y8224927D01*
X18649078Y8224928D01*
X18520509Y8263378D01*
X18520508Y8263378D01*
X18515456Y8264889D01*
X18442008Y8265338D01*
X18375988Y8265741D01*
X18375987Y8265741D01*
X18370718Y8265773D01*
X18231549Y8225998D01*
X18109137Y8148762D01*
X18077125Y8112515D01*
X18032661Y8088322D01*
X18021659Y8087500D01*
X17947524Y8087500D01*
X17941074Y8087782D01*
X17901016Y8091287D01*
X17894763Y8089612D01*
X17894757Y8089611D01*
X17862166Y8080878D01*
X17855867Y8079481D01*
X17816261Y8072497D01*
X17810652Y8069259D01*
X17806196Y8067637D01*
X17799995Y8065068D01*
X17795709Y8063069D01*
X17789457Y8061394D01*
X17784156Y8057682D01*
X17756512Y8038326D01*
X17751068Y8034858D01*
X17721844Y8017986D01*
X17721842Y8017984D01*
X17716240Y8014750D01*
X17712082Y8009794D01*
X17712079Y8009792D01*
X17690395Y7983949D01*
X17686034Y7979189D01*
X17270823Y7563977D01*
X17266063Y7559616D01*
X17240213Y7537925D01*
X17240211Y7537923D01*
X17235250Y7533760D01*
X17232011Y7528150D01*
X17215139Y7498927D01*
X17211670Y7493481D01*
X17192320Y7465848D01*
X17192319Y7465845D01*
X17188606Y7460543D01*
X17186930Y7454288D01*
X17184928Y7449995D01*
X17182363Y7443804D01*
X17180741Y7439348D01*
X17177503Y7433739D01*
X17176379Y7427362D01*
X17170520Y7394137D01*
X17169122Y7387834D01*
X17160389Y7355243D01*
X17160388Y7355237D01*
X17158713Y7348984D01*
X17159278Y7342532D01*
X17162218Y7308926D01*
X17162500Y7302476D01*
X17162500Y4717787D01*
X17145187Y4670221D01*
X17117665Y4650040D01*
X17111769Y4648867D01*
X17045448Y4604552D01*
X17001133Y4538231D01*
X16989500Y4479748D01*
X16989500Y3440252D01*
X13990500Y3440252D01*
X13990500Y4479748D01*
X13978867Y4538231D01*
X13934552Y4604552D01*
X13868231Y4648867D01*
X13823705Y4657724D01*
X13813318Y4659790D01*
X13813317Y4659790D01*
X13809748Y4660500D01*
X13044665Y4660500D01*
X12997099Y4677813D01*
X12971789Y4721650D01*
X12980579Y4771500D01*
X12985951Y4779540D01*
X13063024Y4879983D01*
X13115974Y5007817D01*
X13134035Y5145000D01*
X13127372Y5195610D01*
X14790860Y5195610D01*
X14791543Y5190387D01*
X14791543Y5190384D01*
X14798107Y5140192D01*
X14807741Y5066519D01*
X14860174Y4947355D01*
X14863566Y4943320D01*
X14940556Y4851729D01*
X14940559Y4851726D01*
X14943946Y4847697D01*
X14964593Y4833953D01*
X15047931Y4778477D01*
X15047934Y4778475D01*
X15052320Y4775556D01*
X15176587Y4736733D01*
X15181855Y4736636D01*
X15181858Y4736636D01*
X15236432Y4735636D01*
X15306755Y4734347D01*
X15311838Y4735733D01*
X15311840Y4735733D01*
X15427270Y4767203D01*
X15427272Y4767204D01*
X15432360Y4768591D01*
X15487833Y4802651D01*
X15538813Y4833953D01*
X15538814Y4833954D01*
X15543306Y4836712D01*
X15584422Y4882136D01*
X15622640Y4924359D01*
X15667396Y4948007D01*
X15677503Y4948700D01*
X15842982Y4948700D01*
X15890548Y4931387D01*
X15899627Y4922316D01*
X15950551Y4861735D01*
X15950554Y4861733D01*
X15953946Y4857697D01*
X15958337Y4854774D01*
X16057931Y4788477D01*
X16057934Y4788475D01*
X16062320Y4785556D01*
X16186587Y4746733D01*
X16191855Y4746636D01*
X16191858Y4746636D01*
X16246432Y4745636D01*
X16316755Y4744347D01*
X16321838Y4745733D01*
X16321840Y4745733D01*
X16437270Y4777203D01*
X16437272Y4777204D01*
X16442360Y4778591D01*
X16532526Y4833953D01*
X16548813Y4843953D01*
X16548814Y4843954D01*
X16553306Y4846712D01*
X16640672Y4943233D01*
X16697437Y5060396D01*
X16698468Y5066519D01*
X16712480Y5149808D01*
X16719037Y5188781D01*
X16719174Y5200000D01*
X16700718Y5328875D01*
X16686317Y5360548D01*
X16649014Y5442592D01*
X16649012Y5442594D01*
X16646832Y5447390D01*
X16642777Y5452097D01*
X16565290Y5542025D01*
X16565289Y5542026D01*
X16561850Y5546017D01*
X16557431Y5548881D01*
X16557429Y5548883D01*
X16476910Y5601072D01*
X16452601Y5616828D01*
X16327870Y5654130D01*
X16260340Y5654543D01*
X16202952Y5654894D01*
X16202950Y5654894D01*
X16197683Y5654926D01*
X16072505Y5619150D01*
X15962400Y5549679D01*
X15958913Y5545731D01*
X15958911Y5545729D01*
X15897606Y5476314D01*
X15853143Y5452122D01*
X15842141Y5451300D01*
X15658765Y5451300D01*
X15611199Y5468613D01*
X15602705Y5476996D01*
X15585883Y5496519D01*
X15551850Y5536017D01*
X15547431Y5538881D01*
X15547429Y5538883D01*
X15451486Y5601069D01*
X15442601Y5606828D01*
X15317870Y5644130D01*
X15250340Y5644543D01*
X15192952Y5644894D01*
X15192950Y5644894D01*
X15187683Y5644926D01*
X15062505Y5609150D01*
X14952400Y5539679D01*
X14923508Y5506965D01*
X14870894Y5447390D01*
X14866219Y5442097D01*
X14810890Y5324249D01*
X14790860Y5195610D01*
X13127372Y5195610D01*
X13115974Y5282183D01*
X13063024Y5410017D01*
X12978791Y5519791D01*
X12968430Y5527742D01*
X12872865Y5601072D01*
X12869018Y5604024D01*
X12864539Y5605879D01*
X12864536Y5605881D01*
X12745664Y5655118D01*
X12741183Y5656974D01*
X12604000Y5675035D01*
X12466817Y5656974D01*
X12462336Y5655118D01*
X12461795Y5654894D01*
X12338983Y5604024D01*
X12229209Y5519791D01*
X12151966Y5419126D01*
X12109275Y5391930D01*
X12080593Y5396344D01*
X12080402Y5394157D01*
X12070764Y5395000D01*
X11437048Y5395000D01*
X11427052Y5391362D01*
X11424000Y5386075D01*
X11424000Y4241081D01*
X10924000Y4241081D01*
X10924000Y5381952D01*
X10920362Y5391948D01*
X10915075Y5395000D01*
X10287048Y5395000D01*
X10277052Y5391362D01*
X10274000Y5386075D01*
X10274000Y5049776D01*
X782871Y5049776D01*
X782845Y5908048D01*
X10274000Y5908048D01*
X10277638Y5898052D01*
X10282925Y5895000D01*
X10910952Y5895000D01*
X10920948Y5898638D01*
X10924000Y5903925D01*
X10924000Y5908048D01*
X11424000Y5908048D01*
X11427638Y5898052D01*
X11432925Y5895000D01*
X12060952Y5895000D01*
X12070948Y5898638D01*
X12074000Y5903925D01*
X12074000Y6240224D01*
X12073798Y6244090D01*
X12059588Y6379293D01*
X12057983Y6386842D01*
X12001917Y6559393D01*
X11998781Y6566436D01*
X11908064Y6723563D01*
X11903534Y6729799D01*
X11782127Y6864634D01*
X11776396Y6869794D01*
X11629623Y6976432D01*
X11622928Y6980297D01*
X11457193Y7054086D01*
X11449853Y7056471D01*
X11436763Y7059254D01*
X11426230Y7057774D01*
X11424113Y7055422D01*
X11424000Y7054842D01*
X11424000Y5908048D01*
X10924000Y5908048D01*
X10924000Y7048919D01*
X10920362Y7058915D01*
X10917623Y7060496D01*
X10917030Y7060485D01*
X10898147Y7056471D01*
X10890807Y7054086D01*
X10725073Y6980297D01*
X10718378Y6976432D01*
X10571604Y6869794D01*
X10565873Y6864634D01*
X10444466Y6729799D01*
X10439936Y6723563D01*
X10349219Y6566436D01*
X10346083Y6559393D01*
X10290017Y6386842D01*
X10288412Y6379293D01*
X10274202Y6244090D01*
X10274000Y6240224D01*
X10274000Y5908048D01*
X782845Y5908048D01*
X782822Y6665610D01*
X7780860Y6665610D01*
X7781543Y6660387D01*
X7781543Y6660384D01*
X7794750Y6559393D01*
X7797741Y6536519D01*
X7850174Y6417355D01*
X7853566Y6413320D01*
X7930556Y6321729D01*
X7930559Y6321726D01*
X7933946Y6317697D01*
X7954593Y6303953D01*
X8037931Y6248477D01*
X8037934Y6248475D01*
X8042320Y6245556D01*
X8166587Y6206733D01*
X8171855Y6206636D01*
X8171858Y6206636D01*
X8226432Y6205636D01*
X8296755Y6204347D01*
X8301838Y6205733D01*
X8301840Y6205733D01*
X8417270Y6237203D01*
X8417272Y6237204D01*
X8422360Y6238591D01*
X8533306Y6306712D01*
X8620672Y6403233D01*
X8677437Y6520396D01*
X8699037Y6648781D01*
X8699174Y6660000D01*
X8680718Y6788875D01*
X8626832Y6907390D01*
X8622777Y6912097D01*
X8545290Y7002025D01*
X8545289Y7002026D01*
X8541850Y7006017D01*
X8537431Y7008881D01*
X8537429Y7008883D01*
X8437024Y7073961D01*
X8437025Y7073961D01*
X8432601Y7076828D01*
X8307870Y7114130D01*
X8240340Y7114543D01*
X8182952Y7114894D01*
X8182950Y7114894D01*
X8177683Y7114926D01*
X8052505Y7079150D01*
X7942400Y7009679D01*
X7856219Y6912097D01*
X7800890Y6794249D01*
X7780860Y6665610D01*
X782822Y6665610D01*
X782727Y9866237D01*
X11629542Y9866237D01*
X11630225Y9861014D01*
X11630225Y9861011D01*
X11632358Y9844700D01*
X11648309Y9722718D01*
X11650432Y9717893D01*
X11682084Y9645959D01*
X11706603Y9590234D01*
X11799738Y9479437D01*
X11920226Y9399234D01*
X11925258Y9397662D01*
X11925260Y9397661D01*
X11949455Y9390102D01*
X12058381Y9356071D01*
X12063648Y9355974D01*
X12063651Y9355974D01*
X12127465Y9354805D01*
X12203098Y9353419D01*
X12208181Y9354805D01*
X12208183Y9354805D01*
X12337653Y9390102D01*
X12337657Y9390104D01*
X12342742Y9391490D01*
X12466088Y9467225D01*
X12514217Y9520396D01*
X12559680Y9570623D01*
X12563220Y9574534D01*
X12626330Y9704792D01*
X12650344Y9847527D01*
X12650496Y9860000D01*
X12648858Y9871443D01*
X12630724Y9998063D01*
X12629977Y10003279D01*
X12570069Y10135040D01*
X12475587Y10244691D01*
X12376668Y10308808D01*
X12358551Y10320551D01*
X12358550Y10320552D01*
X12354129Y10323417D01*
X12349081Y10324927D01*
X12349078Y10324928D01*
X12220509Y10363378D01*
X12220508Y10363378D01*
X12215456Y10364889D01*
X12142008Y10365338D01*
X12075988Y10365741D01*
X12075987Y10365741D01*
X12070718Y10365773D01*
X11931549Y10325998D01*
X11809137Y10248762D01*
X11713324Y10140274D01*
X11701423Y10114926D01*
X11654874Y10015780D01*
X11651810Y10009255D01*
X11650999Y10004048D01*
X11650999Y10004047D01*
X11650010Y9997697D01*
X11629542Y9866237D01*
X782727Y9866237D01*
X782673Y11674753D01*
X990003Y11674753D01*
X990686Y11669530D01*
X990686Y11669527D01*
X1002433Y11579700D01*
X1006884Y11545662D01*
X1009007Y11540837D01*
X1016980Y11522718D01*
X1059317Y11426498D01*
X1072022Y11411384D01*
X1139699Y11330872D01*
X1139702Y11330869D01*
X1143089Y11326840D01*
X1163736Y11313096D01*
X1247074Y11257620D01*
X1247077Y11257618D01*
X1251463Y11254699D01*
X1375730Y11215876D01*
X1380998Y11215779D01*
X1381001Y11215779D01*
X1435575Y11214779D01*
X1505898Y11213490D01*
X1510981Y11214876D01*
X1510983Y11214876D01*
X1626413Y11246346D01*
X1626415Y11246347D01*
X1631503Y11247734D01*
X1742449Y11315855D01*
X1829815Y11412376D01*
X1886580Y11529539D01*
X1888136Y11538782D01*
X1907705Y11655102D01*
X1908180Y11657924D01*
X1908317Y11669143D01*
X1889861Y11798018D01*
X1885943Y11806636D01*
X1838157Y11911735D01*
X1838155Y11911737D01*
X1835975Y11916533D01*
X1831920Y11921240D01*
X1754433Y12011168D01*
X1754432Y12011169D01*
X1750993Y12015160D01*
X1746574Y12018024D01*
X1746572Y12018026D01*
X1646167Y12083104D01*
X1646168Y12083104D01*
X1641744Y12085971D01*
X1542516Y12115646D01*
X1522066Y12121762D01*
X1522065Y12121762D01*
X1517013Y12123273D01*
X1449483Y12123686D01*
X1392095Y12124037D01*
X1392093Y12124037D01*
X1386826Y12124069D01*
X1261648Y12088293D01*
X1151543Y12018822D01*
X1065362Y11921240D01*
X1010033Y11803392D01*
X990003Y11674753D01*
X782673Y11674753D01*
X782655Y12265610D01*
X5780860Y12265610D01*
X5781543Y12260387D01*
X5781543Y12260384D01*
X5797020Y12142035D01*
X5797741Y12136519D01*
X5850174Y12017355D01*
X5853566Y12013320D01*
X5930556Y11921729D01*
X5930559Y11921726D01*
X5933946Y11917697D01*
X5954593Y11903953D01*
X6037931Y11848477D01*
X6037934Y11848475D01*
X6042320Y11845556D01*
X6166587Y11806733D01*
X6171855Y11806636D01*
X6171858Y11806636D01*
X6226432Y11805636D01*
X6296755Y11804347D01*
X6301838Y11805733D01*
X6301840Y11805733D01*
X6417270Y11837203D01*
X6417272Y11837204D01*
X6422360Y11838591D01*
X6502179Y11887600D01*
X6528813Y11903953D01*
X6528814Y11903954D01*
X6533306Y11906712D01*
X6620672Y12003233D01*
X6677437Y12120396D01*
X6678624Y12127447D01*
X6698562Y12245959D01*
X6699037Y12248781D01*
X6699174Y12260000D01*
X6680718Y12388875D01*
X6652241Y12451506D01*
X6629014Y12502592D01*
X6629012Y12502594D01*
X6626832Y12507390D01*
X6622777Y12512097D01*
X6545290Y12602025D01*
X6545289Y12602026D01*
X6541850Y12606017D01*
X6537431Y12608881D01*
X6537429Y12608883D01*
X6437024Y12673961D01*
X6437025Y12673961D01*
X6432601Y12676828D01*
X6307870Y12714130D01*
X6240340Y12714543D01*
X6182952Y12714894D01*
X6182950Y12714894D01*
X6177683Y12714926D01*
X6052505Y12679150D01*
X5942400Y12609679D01*
X5856219Y12512097D01*
X5800890Y12394249D01*
X5780860Y12265610D01*
X782655Y12265610D01*
X782318Y23589926D01*
X781904Y37458730D01*
X7699950Y37458730D01*
X7700633Y37453507D01*
X7700633Y37453504D01*
X7716140Y37334926D01*
X7716831Y37329639D01*
X7718954Y37324814D01*
X7725614Y37309679D01*
X7769264Y37210475D01*
X7777147Y37201097D01*
X7849646Y37114849D01*
X7849649Y37114846D01*
X7853036Y37110817D01*
X7870755Y37099022D01*
X7957021Y37041597D01*
X7957024Y37041595D01*
X7961410Y37038676D01*
X8085677Y36999853D01*
X8090945Y36999756D01*
X8090948Y36999756D01*
X8145522Y36998756D01*
X8215845Y36997467D01*
X8220928Y36998853D01*
X8220930Y36998853D01*
X8336360Y37030323D01*
X8336362Y37030324D01*
X8341450Y37031711D01*
X8413821Y37076147D01*
X8447903Y37097073D01*
X8447904Y37097074D01*
X8452396Y37099832D01*
X8539762Y37196353D01*
X8596527Y37313516D01*
X8599421Y37330714D01*
X8612998Y37411416D01*
X8618127Y37441901D01*
X8618264Y37453120D01*
X8599808Y37581995D01*
X8566197Y37655918D01*
X8548104Y37695712D01*
X8548102Y37695714D01*
X8545922Y37700510D01*
X8541867Y37705217D01*
X8464380Y37795145D01*
X8464379Y37795146D01*
X8460940Y37799137D01*
X8456521Y37802001D01*
X8456519Y37802003D01*
X8379932Y37851643D01*
X8351691Y37869948D01*
X8226960Y37907250D01*
X8159430Y37907663D01*
X8102042Y37908014D01*
X8102040Y37908014D01*
X8096773Y37908046D01*
X7971595Y37872270D01*
X7967135Y37869456D01*
X7956630Y37862828D01*
X7861490Y37802799D01*
X7805991Y37739958D01*
X7784520Y37715646D01*
X7775309Y37705217D01*
X7719980Y37587369D01*
X7699950Y37458730D01*
X781904Y37458730D01*
X781696Y44437677D01*
X783579Y44454263D01*
X784971Y44460317D01*
X784971Y44460318D01*
X786839Y44468441D01*
X785000Y44476569D01*
X785001Y44477314D01*
X783406Y44496961D01*
X792706Y44650067D01*
X798016Y44737490D01*
X799102Y44746396D01*
X847006Y45006714D01*
X849162Y45015424D01*
X928221Y45268031D01*
X931415Y45276416D01*
X942876Y45301762D01*
X1040468Y45517604D01*
X1044652Y45525535D01*
X1090079Y45600303D01*
X1182091Y45751746D01*
X1187198Y45759106D01*
X1351017Y45967034D01*
X1356983Y45973728D01*
X1356995Y45973739D01*
X1483685Y46099616D01*
X1544746Y46160285D01*
X1551483Y46166212D01*
X1742272Y46314544D01*
X1760451Y46328677D01*
X1767843Y46333737D01*
X1994948Y46469724D01*
X2002911Y46473857D01*
X2083771Y46509792D01*
X2244790Y46581350D01*
X2253189Y46584488D01*
X2454330Y46646019D01*
X2506300Y46661917D01*
X2515023Y46664017D01*
X2738928Y46703731D01*
X2775655Y46710245D01*
X2784564Y46711273D01*
X2911776Y46718176D01*
X3024703Y46724304D01*
X3043189Y46722652D01*
X3044851Y46722638D01*
X3052959Y46720719D01*
X3061100Y46722506D01*
X3061101Y46722506D01*
X3068486Y46724127D01*
X3084368Y46725848D01*
X3328006Y46725794D01*
G37*
%TD.AperFunction*%
%TA.AperFunction,Conductor*%
G36*
X12902149Y20664857D02*
G01*
X12911229Y20655786D01*
X12933655Y20629107D01*
X12938041Y20626187D01*
X12938046Y20626183D01*
X12982883Y20596337D01*
X13012885Y20555568D01*
X13009663Y20505052D01*
X12974723Y20468426D01*
X12941425Y20460738D01*
X12939838Y20460748D01*
X12928872Y20460815D01*
X12928870Y20460815D01*
X12923603Y20460847D01*
X12798425Y20425071D01*
X12688320Y20355600D01*
X12602139Y20258018D01*
X12546810Y20140170D01*
X12526780Y20011531D01*
X12527463Y20006308D01*
X12527463Y20006305D01*
X12538729Y19920157D01*
X12543661Y19882440D01*
X12596094Y19763276D01*
X12606512Y19750882D01*
X12676476Y19667650D01*
X12676479Y19667647D01*
X12679866Y19663618D01*
X12770688Y19603161D01*
X12800689Y19562393D01*
X12797467Y19511877D01*
X12791772Y19501377D01*
X12788479Y19497648D01*
X12733150Y19379800D01*
X12713120Y19251161D01*
X12713803Y19245938D01*
X12713803Y19245935D01*
X12728873Y19130699D01*
X12730001Y19122070D01*
X12732124Y19117245D01*
X12778422Y19012025D01*
X12782434Y19002906D01*
X12788271Y18995962D01*
X12862816Y18907280D01*
X12862819Y18907277D01*
X12866206Y18903248D01*
X12878543Y18895036D01*
X12908545Y18854268D01*
X12904523Y18801987D01*
X12900890Y18794249D01*
X12880860Y18665610D01*
X12881543Y18660387D01*
X12881543Y18660384D01*
X12890742Y18590045D01*
X12897741Y18536519D01*
X12950174Y18417355D01*
X12953566Y18413320D01*
X13030556Y18321729D01*
X13030559Y18321726D01*
X13033946Y18317697D01*
X13054593Y18303953D01*
X13137931Y18248477D01*
X13137934Y18248475D01*
X13142320Y18245556D01*
X13147352Y18243984D01*
X13185285Y18232133D01*
X13225524Y18201424D01*
X13236610Y18152034D01*
X13213355Y18107073D01*
X13163218Y18087500D01*
X13157524Y18087500D01*
X13151074Y18087782D01*
X13117466Y18090723D01*
X13117464Y18090723D01*
X13111016Y18091287D01*
X13104764Y18089612D01*
X13100034Y18089198D01*
X13087142Y18087500D01*
X8941500Y18087500D01*
X8893934Y18104813D01*
X8868624Y18148650D01*
X8867500Y18161500D01*
X8867500Y18993694D01*
X8884813Y19041260D01*
X8889174Y19046020D01*
X10503651Y20660496D01*
X10549527Y20681888D01*
X10555977Y20682170D01*
X12854583Y20682170D01*
X12902149Y20664857D01*
G37*
%TD.AperFunction*%
%TA.AperFunction,Conductor*%
G36*
X17004078Y31610775D02*
G01*
X17035138Y31570805D01*
X17038700Y31548122D01*
X17038700Y27876807D01*
X17021387Y27829241D01*
X16977550Y27803931D01*
X16927700Y27812721D01*
X16908640Y27828503D01*
X16845290Y27902025D01*
X16845289Y27902026D01*
X16841850Y27906017D01*
X16837431Y27908881D01*
X16837429Y27908883D01*
X16737024Y27973961D01*
X16737025Y27973961D01*
X16732601Y27976828D01*
X16607870Y28014130D01*
X16540340Y28014543D01*
X16482952Y28014894D01*
X16482950Y28014894D01*
X16477683Y28014926D01*
X16352505Y27979150D01*
X16348045Y27976336D01*
X16254787Y27917495D01*
X16205321Y27906755D01*
X16160524Y27930324D01*
X16141300Y27980079D01*
X16141300Y31081156D01*
X16158613Y31128722D01*
X16162974Y31133482D01*
X16414427Y31384935D01*
X16460303Y31406327D01*
X16468108Y31406597D01*
X16590855Y31404347D01*
X16595938Y31405733D01*
X16595940Y31405733D01*
X16711370Y31437203D01*
X16711372Y31437204D01*
X16716460Y31438591D01*
X16827406Y31506712D01*
X16909837Y31597781D01*
X16954593Y31621429D01*
X17004078Y31610775D01*
G37*
%TD.AperFunction*%
%TA.AperFunction,Conductor*%
G36*
X16892384Y39336737D02*
G01*
X16923116Y39302455D01*
X16944274Y39254370D01*
X16947666Y39250335D01*
X16947669Y39250330D01*
X17021345Y39162683D01*
X17038700Y39115067D01*
X17038700Y35042691D01*
X17021387Y34995125D01*
X16977550Y34969815D01*
X16934870Y34975357D01*
X16932601Y34976828D01*
X16826057Y35008691D01*
X16812923Y35012619D01*
X16812922Y35012619D01*
X16807870Y35014130D01*
X16740340Y35014543D01*
X16682952Y35014894D01*
X16682950Y35014894D01*
X16677683Y35014926D01*
X16552505Y34979150D01*
X16548045Y34976336D01*
X16474778Y34930108D01*
X16425312Y34919368D01*
X16395042Y34930595D01*
X16334532Y34969815D01*
X16323499Y34976966D01*
X16228134Y35005486D01*
X16203821Y35012757D01*
X16203820Y35012757D01*
X16198768Y35014268D01*
X16131238Y35014681D01*
X16073850Y35015032D01*
X16073848Y35015032D01*
X16068581Y35015064D01*
X15943403Y34979288D01*
X15938943Y34976474D01*
X15937422Y34975514D01*
X15833298Y34909817D01*
X15747117Y34812235D01*
X15691788Y34694387D01*
X15671758Y34565748D01*
X15672441Y34560525D01*
X15672441Y34560522D01*
X15686982Y34449330D01*
X15688639Y34436657D01*
X15690762Y34431832D01*
X15715116Y34376484D01*
X15741072Y34317493D01*
X15744464Y34313458D01*
X15821454Y34221867D01*
X15821457Y34221864D01*
X15824844Y34217835D01*
X15841554Y34206712D01*
X15928829Y34148615D01*
X15928832Y34148613D01*
X15933218Y34145694D01*
X16057485Y34106871D01*
X16062753Y34106774D01*
X16062756Y34106774D01*
X16117330Y34105774D01*
X16187653Y34104485D01*
X16192736Y34105871D01*
X16192738Y34105871D01*
X16308168Y34137341D01*
X16308170Y34137342D01*
X16313258Y34138729D01*
X16397419Y34190404D01*
X16447013Y34200539D01*
X16477142Y34188943D01*
X16542320Y34145556D01*
X16666587Y34106733D01*
X16671855Y34106636D01*
X16671858Y34106636D01*
X16726432Y34105636D01*
X16796755Y34104347D01*
X16801838Y34105733D01*
X16801840Y34105733D01*
X16917270Y34137203D01*
X16917272Y34137204D01*
X16922360Y34138591D01*
X16926853Y34141350D01*
X16931693Y34143444D01*
X16932275Y34142099D01*
X16975569Y34150949D01*
X17020077Y34126838D01*
X17038700Y34077752D01*
X17038700Y32169960D01*
X17021387Y32122394D01*
X16977550Y32097084D01*
X16927700Y32105874D01*
X16908640Y32121656D01*
X16839390Y32202025D01*
X16839389Y32202026D01*
X16835950Y32206017D01*
X16831531Y32208881D01*
X16831529Y32208883D01*
X16749775Y32261872D01*
X16726701Y32276828D01*
X16627029Y32306636D01*
X16607023Y32312619D01*
X16607022Y32312619D01*
X16601970Y32314130D01*
X16534440Y32314543D01*
X16477052Y32314894D01*
X16477050Y32314894D01*
X16471783Y32314926D01*
X16346605Y32279150D01*
X16342145Y32276336D01*
X16342143Y32276335D01*
X16336240Y32272611D01*
X16286773Y32261872D01*
X16241977Y32285443D01*
X16229391Y32304568D01*
X16172251Y32430241D01*
X16170069Y32435040D01*
X16086786Y32531694D01*
X16079027Y32540699D01*
X16079026Y32540700D01*
X16075587Y32544691D01*
X15989195Y32600688D01*
X15958551Y32620551D01*
X15958550Y32620552D01*
X15954129Y32623417D01*
X15949081Y32624927D01*
X15949078Y32624928D01*
X15820509Y32663378D01*
X15820508Y32663378D01*
X15815456Y32664889D01*
X15727932Y32665423D01*
X15680473Y32683026D01*
X15676058Y32687096D01*
X15522075Y32841079D01*
X15500683Y32886955D01*
X15500401Y32893405D01*
X15500401Y39258500D01*
X15517714Y39306066D01*
X15561551Y39331376D01*
X15574401Y39332500D01*
X16722476Y39332500D01*
X16728926Y39332218D01*
X16768984Y39328713D01*
X16775237Y39330388D01*
X16775243Y39330389D01*
X16807834Y39339122D01*
X16814133Y39340519D01*
X16829342Y39343201D01*
X16842534Y39345527D01*
X16892384Y39336737D01*
G37*
%TD.AperFunction*%
%TD*%
M02*
