%TF.GenerationSoftware,KiCad,Pcbnew,(6.0.0-rc1-323-gb9e66d8b98)*%
%TF.CreationDate,2021-12-20T00:28:19+08:00*%
%TF.ProjectId,XSense,5853656e-7365-42e6-9b69-6361645f7063,rev?*%
%TF.SameCoordinates,PXb340ac0PY76b1be0*%
%TF.FileFunction,Paste,Top*%
%TF.FilePolarity,Positive*%
%FSLAX46Y46*%
G04 Gerber Fmt 4.6, Leading zero omitted, Abs format (unit mm)*
G04 Created by KiCad (PCBNEW (6.0.0-rc1-323-gb9e66d8b98)) date 2021-12-20 00:28:19*
%MOMM*%
%LPD*%
G01*
G04 APERTURE LIST*
G04 Aperture macros list*
%AMRoundRect*
0 Rectangle with rounded corners*
0 $1 Rounding radius*
0 $2 $3 $4 $5 $6 $7 $8 $9 X,Y pos of 4 corners*
0 Add a 4 corners polygon primitive as box body*
4,1,4,$2,$3,$4,$5,$6,$7,$8,$9,$2,$3,0*
0 Add four circle primitives for the rounded corners*
1,1,$1+$1,$2,$3*
1,1,$1+$1,$4,$5*
1,1,$1+$1,$6,$7*
1,1,$1+$1,$8,$9*
0 Add four rect primitives between the rounded corners*
20,1,$1+$1,$2,$3,$4,$5,0*
20,1,$1+$1,$4,$5,$6,$7,0*
20,1,$1+$1,$6,$7,$8,$9,0*
20,1,$1+$1,$8,$9,$2,$3,0*%
%AMRotRect*
0 Rectangle, with rotation*
0 The origin of the aperture is its center*
0 $1 length*
0 $2 width*
0 $3 Rotation angle, in degrees counterclockwise*
0 Add horizontal line*
21,1,$1,$2,0,0,$3*%
G04 Aperture macros list end*
%TA.AperFunction,Profile*%
%ADD10C,0.500000*%
%TD*%
%TA.AperFunction,Profile*%
%ADD11C,0.100000*%
%TD*%
%ADD12RoundRect,0.150000X-0.512500X-0.150000X0.512500X-0.150000X0.512500X0.150000X-0.512500X0.150000X0*%
%ADD13RoundRect,0.150000X0.587500X0.150000X-0.587500X0.150000X-0.587500X-0.150000X0.587500X-0.150000X0*%
%ADD14RoundRect,0.155000X0.212500X0.155000X-0.212500X0.155000X-0.212500X-0.155000X0.212500X-0.155000X0*%
%ADD15RoundRect,0.155000X0.155000X-0.212500X0.155000X0.212500X-0.155000X0.212500X-0.155000X-0.212500X0*%
%ADD16RoundRect,0.160000X-0.160000X0.197500X-0.160000X-0.197500X0.160000X-0.197500X0.160000X0.197500X0*%
%ADD17R,0.600000X0.450000*%
%ADD18RoundRect,0.160000X-0.197500X-0.160000X0.197500X-0.160000X0.197500X0.160000X-0.197500X0.160000X0*%
%ADD19R,1.000000X1.550000*%
%ADD20RoundRect,0.155000X-0.212500X-0.155000X0.212500X-0.155000X0.212500X0.155000X-0.212500X0.155000X0*%
%ADD21RoundRect,0.160000X0.197500X0.160000X-0.197500X0.160000X-0.197500X-0.160000X0.197500X-0.160000X0*%
%ADD22RoundRect,0.150000X-0.150000X0.587500X-0.150000X-0.587500X0.150000X-0.587500X0.150000X0.587500X0*%
%ADD23RoundRect,0.160000X0.160000X-0.197500X0.160000X0.197500X-0.160000X0.197500X-0.160000X-0.197500X0*%
%ADD24R,1.300000X1.200000*%
%ADD25RotRect,0.850000X1.200000X135.000000*%
%ADD26RotRect,0.850000X1.200000X225.000000*%
%ADD27R,1.400000X1.300000*%
%ADD28RoundRect,0.217500X0.217500X-0.217500X0.217500X0.217500X-0.217500X0.217500X-0.217500X-0.217500X0*%
%ADD29RoundRect,0.062500X0.062500X-0.375000X0.062500X0.375000X-0.062500X0.375000X-0.062500X-0.375000X0*%
%ADD30RoundRect,0.062500X0.375000X-0.062500X0.375000X0.062500X-0.375000X0.062500X-0.375000X-0.062500X0*%
%ADD31R,0.400000X0.650000*%
%ADD32RoundRect,0.155000X-0.155000X0.212500X-0.155000X-0.212500X0.155000X-0.212500X0.155000X0.212500X0*%
%ADD33RoundRect,0.087500X-0.187500X-0.087500X0.187500X-0.087500X0.187500X0.087500X-0.187500X0.087500X0*%
%ADD34RoundRect,0.087500X-0.087500X-0.187500X0.087500X-0.187500X0.087500X0.187500X-0.087500X0.187500X0*%
%ADD35R,0.300000X1.150000*%
%ADD36R,0.800000X1.000000*%
%ADD37R,1.500000X0.700000*%
%ADD38R,0.450000X0.600000*%
%ADD39RoundRect,0.250000X0.350000X0.850000X-0.350000X0.850000X-0.350000X-0.850000X0.350000X-0.850000X0*%
%ADD40RoundRect,0.250000X-0.250000X-0.450000X0.250000X-0.450000X0.250000X0.450000X-0.250000X0.450000X0*%
%ADD41R,0.500000X0.350000*%
%ADD42RoundRect,0.150000X0.150000X-0.512500X0.150000X0.512500X-0.150000X0.512500X-0.150000X-0.512500X0*%
%ADD43RoundRect,0.150000X-0.587500X-0.150000X0.587500X-0.150000X0.587500X0.150000X-0.587500X0.150000X0*%
%ADD44RoundRect,0.150000X-0.335000X0.150000X-0.335000X-0.150000X0.335000X-0.150000X0.335000X0.150000X0*%
%ADD45RoundRect,0.100000X-0.100000X0.300000X-0.100000X-0.300000X0.100000X-0.300000X0.100000X0.300000X0*%
%ADD46RoundRect,0.250000X-0.270000X-0.270000X0.270000X-0.270000X0.270000X0.270000X-0.270000X0.270000X0*%
%ADD47RoundRect,0.062500X-0.375000X-0.062500X0.375000X-0.062500X0.375000X0.062500X-0.375000X0.062500X0*%
%ADD48RoundRect,0.062500X-0.062500X-0.375000X0.062500X-0.375000X0.062500X0.375000X-0.062500X0.375000X0*%
G04 APERTURE END LIST*
D10*
X582946Y2477666D02*
G75*
G03*
X3040002Y4722I2457054J-15839D01*
G01*
X3054640Y46925855D02*
X28951133Y46920051D01*
X31408189Y44447107D02*
X31397105Y2460002D01*
D11*
X4236974Y2650000D02*
G75*
G03*
X4236974Y2650000I-1100000J0D01*
G01*
D10*
X28924161Y2946D02*
G75*
G03*
X31397105Y2460002I15839J2457054D01*
G01*
X3054640Y46925855D02*
G75*
G03*
X581696Y44468799I-15842J-2457051D01*
G01*
D11*
X30051135Y44462946D02*
G75*
G03*
X30051135Y44462946I-1100000J0D01*
G01*
X30040000Y2662946D02*
G75*
G03*
X30040000Y2662946I-1100000J0D01*
G01*
X4138798Y44468804D02*
G75*
G03*
X4138798Y44468804I-1100000J0D01*
G01*
D10*
X582946Y2490000D02*
X581696Y44468799D01*
X31408189Y44447107D02*
G75*
G03*
X28951133Y46920051I-2457054J15839D01*
G01*
X28924161Y2946D02*
X3030000Y4722D01*
D12*
%TO.C,U5*%
X6828215Y11817500D03*
X6828215Y10867500D03*
X6828215Y9917500D03*
X9103215Y9917500D03*
X9103215Y11817500D03*
%TD*%
D13*
%TO.C,Q6*%
X8277500Y6210000D03*
X8277500Y8110000D03*
X6402500Y7160000D03*
%TD*%
D14*
%TO.C,C1*%
X22037500Y40883750D03*
X20902500Y40883750D03*
%TD*%
D15*
%TO.C,C16*%
X19740000Y8925000D03*
X19740000Y10060000D03*
%TD*%
D16*
%TO.C,R7*%
X24840000Y15757500D03*
X24840000Y14562500D03*
%TD*%
D17*
%TO.C,D2*%
X21490000Y17260000D03*
X23590000Y17260000D03*
%TD*%
%TO.C,D1*%
X1125500Y37912000D03*
X3225500Y37912000D03*
%TD*%
D18*
%TO.C,R22*%
X23415000Y38445000D03*
X24610000Y38445000D03*
%TD*%
D15*
%TO.C,C2*%
X16714000Y24106000D03*
X16714000Y25241000D03*
%TD*%
D19*
%TO.C,SW4*%
X30720000Y25705000D03*
X30720000Y30955000D03*
X29020000Y25705000D03*
X29020000Y30955000D03*
%TD*%
D20*
%TO.C,C12*%
X2092500Y6135250D03*
X3227500Y6135250D03*
%TD*%
D21*
%TO.C,R20*%
X3237500Y10374750D03*
X2042500Y10374750D03*
%TD*%
D22*
%TO.C,Q3*%
X23790000Y7497500D03*
X21890000Y7497500D03*
X22840000Y5622500D03*
%TD*%
D23*
%TO.C,R8*%
X7420000Y13642500D03*
X7420000Y14837500D03*
%TD*%
%TO.C,R10*%
X16486000Y8882500D03*
X16486000Y10077500D03*
%TD*%
D16*
%TO.C,R16*%
X20540000Y29557500D03*
X20540000Y28362500D03*
%TD*%
D24*
%TO.C,U8*%
X5250000Y18525000D03*
D25*
X1122000Y21097000D03*
D26*
X1122000Y26753000D03*
D24*
X5250000Y29325000D03*
D27*
X11650000Y19925000D03*
X11650000Y27925000D03*
X11650000Y25400000D03*
X11650000Y22450000D03*
%TD*%
D28*
%TO.C,U6*%
X16470000Y15070000D03*
X15390000Y15070000D03*
X15390000Y13990000D03*
X16470000Y13990000D03*
D29*
X14680000Y12592500D03*
X15180000Y12592500D03*
X15680000Y12592500D03*
X16180000Y12592500D03*
X16680000Y12592500D03*
X17180000Y12592500D03*
D30*
X17867500Y13280000D03*
X17867500Y13780000D03*
X17867500Y14280000D03*
X17867500Y14780000D03*
X17867500Y15280000D03*
X17867500Y15780000D03*
D29*
X17180000Y16467500D03*
X16680000Y16467500D03*
X16180000Y16467500D03*
X15680000Y16467500D03*
X15180000Y16467500D03*
X14680000Y16467500D03*
D30*
X13992500Y15780000D03*
X13992500Y15280000D03*
X13992500Y14780000D03*
X13992500Y14280000D03*
X13992500Y13780000D03*
X13992500Y13280000D03*
%TD*%
D21*
%TO.C,R28*%
X15040000Y23437500D03*
X13845000Y23437500D03*
%TD*%
D31*
%TO.C,Q5*%
X17846500Y27510000D03*
X18496500Y27510000D03*
X19146500Y27510000D03*
X19146500Y29410000D03*
X18496500Y29410000D03*
X17846500Y29410000D03*
%TD*%
D15*
%TO.C,C15*%
X15382822Y44387500D03*
X15382822Y45522500D03*
%TD*%
D18*
%TO.C,R3*%
X13845000Y20924168D03*
X15040000Y20924168D03*
%TD*%
D32*
%TO.C,C14*%
X10660000Y14830000D03*
X10660000Y13695000D03*
%TD*%
D21*
%TO.C,R1*%
X3270500Y39560000D03*
X2075500Y39560000D03*
%TD*%
D23*
%TO.C,R11*%
X26940000Y1962500D03*
X26940000Y3157500D03*
%TD*%
D22*
%TO.C,Q4*%
X24000000Y3359500D03*
X22100000Y3359500D03*
X23050000Y1484500D03*
%TD*%
D33*
%TO.C,U2*%
X16975000Y21997500D03*
X16975000Y21497500D03*
X16975000Y20997500D03*
X16975000Y20497500D03*
X16975000Y19997500D03*
D34*
X17700000Y19772500D03*
X18200000Y19772500D03*
X18700000Y19772500D03*
D33*
X19425000Y19997500D03*
X19425000Y20497500D03*
X19425000Y20997500D03*
X19425000Y21497500D03*
X19425000Y21997500D03*
D34*
X18700000Y22222500D03*
X18200000Y22222500D03*
X17700000Y22222500D03*
%TD*%
D14*
%TO.C,C11*%
X3175000Y13840857D03*
X2040000Y13840857D03*
%TD*%
D21*
%TO.C,R14*%
X3225000Y11669143D03*
X2030000Y11669143D03*
%TD*%
D32*
%TO.C,D4*%
X6329143Y14827500D03*
X6329143Y13692500D03*
%TD*%
D35*
%TO.C,U3*%
X12144000Y6210000D03*
X12944000Y6210000D03*
X14244000Y6210000D03*
X15244000Y6210000D03*
X15744000Y6210000D03*
X16744000Y6210000D03*
X18044000Y6210000D03*
X18844000Y6210000D03*
X18544000Y6210000D03*
X17744000Y6210000D03*
X17244000Y6210000D03*
X16244000Y6210000D03*
X14744000Y6210000D03*
X13744000Y6210000D03*
X13244000Y6210000D03*
X12444000Y6210000D03*
%TD*%
D36*
%TO.C,SW1*%
X28745000Y5460000D03*
X28745000Y12760000D03*
X30955000Y12760000D03*
X30955000Y5460000D03*
D37*
X28095000Y6860000D03*
X28095000Y9860000D03*
X28095000Y11360000D03*
%TD*%
D15*
%TO.C,C13*%
X17980000Y8962500D03*
X17980000Y10097500D03*
%TD*%
D21*
%TO.C,R27*%
X15040000Y19667500D03*
X13845000Y19667500D03*
%TD*%
D18*
%TO.C,R25*%
X23415000Y39648750D03*
X24610000Y39648750D03*
%TD*%
D38*
%TO.C,D5*%
X25840000Y7310000D03*
X25840000Y5210000D03*
%TD*%
D18*
%TO.C,R19*%
X2042500Y8260000D03*
X3237500Y8260000D03*
%TD*%
D39*
%TO.C,AE1*%
X11640000Y45360000D03*
X5940000Y45360000D03*
%TD*%
D40*
%TO.C,BZ1*%
X1901500Y34624000D03*
X6501500Y34624000D03*
%TD*%
D16*
%TO.C,R6*%
X9621715Y14837500D03*
X9621715Y13642500D03*
%TD*%
%TO.C,R9*%
X8520857Y14837500D03*
X8520857Y13642500D03*
%TD*%
D15*
%TO.C,C4*%
X18746000Y24106000D03*
X18746000Y25241000D03*
%TD*%
D21*
%TO.C,R4*%
X22087500Y39690000D03*
X20892500Y39690000D03*
%TD*%
D19*
%TO.C,SW5*%
X30720000Y15825000D03*
X30720000Y21075000D03*
X29020000Y15825000D03*
X29020000Y21075000D03*
%TD*%
D15*
%TO.C,C3*%
X17730000Y24106000D03*
X17730000Y25241000D03*
%TD*%
D41*
%TO.C,U9*%
X18372822Y45710000D03*
X18372822Y45060000D03*
X18372822Y44410000D03*
X18372822Y43760000D03*
X16772822Y43760000D03*
X16772822Y44410000D03*
X16772822Y45060000D03*
X16772822Y45710000D03*
%TD*%
D15*
%TO.C,C8*%
X24040000Y24042500D03*
X24040000Y25177500D03*
%TD*%
D42*
%TO.C,U4*%
X21740000Y19917500D03*
X22690000Y19917500D03*
X23640000Y19917500D03*
X23640000Y22192500D03*
X21740000Y22192500D03*
%TD*%
D18*
%TO.C,R15*%
X2042500Y7192625D03*
X3237500Y7192625D03*
%TD*%
%TO.C,R21*%
X23415000Y36037500D03*
X24610000Y36037500D03*
%TD*%
D43*
%TO.C,Q1*%
X5304000Y39624000D03*
X5304000Y37724000D03*
X7179000Y38674000D03*
%TD*%
D32*
%TO.C,C6*%
X15349500Y29547500D03*
X15349500Y28412500D03*
%TD*%
D15*
%TO.C,C5*%
X19762000Y24106000D03*
X19762000Y25241000D03*
%TD*%
D44*
%TO.C,U10*%
X24940000Y44710000D03*
X23740000Y44710000D03*
X24940000Y43960000D03*
X23740000Y43960000D03*
D45*
X25340000Y45785000D03*
X24340000Y45785000D03*
X23340000Y45785000D03*
X23340000Y42885000D03*
X24340000Y42885000D03*
X25340000Y42885000D03*
%TD*%
D15*
%TO.C,C9*%
X21840000Y24092500D03*
X21840000Y25227500D03*
%TD*%
D21*
%TO.C,R2*%
X15040000Y22180834D03*
X13845000Y22180834D03*
%TD*%
D18*
%TO.C,R24*%
X23415000Y40852500D03*
X24610000Y40852500D03*
%TD*%
D23*
%TO.C,R5*%
X14246000Y28362500D03*
X14246000Y29557500D03*
%TD*%
D16*
%TO.C,R17*%
X16453000Y29557500D03*
X16453000Y28362500D03*
%TD*%
%TO.C,R12*%
X25640000Y3157500D03*
X25640000Y1962500D03*
%TD*%
D23*
%TO.C,R26*%
X22940000Y24032500D03*
X22940000Y25227500D03*
%TD*%
D38*
%TO.C,D6*%
X23940000Y9710000D03*
X23940000Y11810000D03*
%TD*%
D23*
%TO.C,R13*%
X14100000Y8922500D03*
X14100000Y10117500D03*
%TD*%
D18*
%TO.C,R29*%
X23415000Y34833750D03*
X24610000Y34833750D03*
%TD*%
D14*
%TO.C,C10*%
X3175000Y12760000D03*
X2040000Y12760000D03*
%TD*%
D46*
%TO.C,U1*%
X16050000Y36480000D03*
X16050000Y37770000D03*
X14760000Y37770000D03*
X14760000Y36480000D03*
D47*
X11967500Y39875000D03*
X11967500Y39375000D03*
X11967500Y38875000D03*
X11967500Y38375000D03*
X11967500Y37875000D03*
X11967500Y37375000D03*
X11967500Y36875000D03*
X11967500Y36375000D03*
X11967500Y35875000D03*
X11967500Y35375000D03*
X11967500Y34875000D03*
X11967500Y34375000D03*
D48*
X12655000Y33687500D03*
X13155000Y33687500D03*
X13655000Y33687500D03*
X14155000Y33687500D03*
X14655000Y33687500D03*
X15155000Y33687500D03*
X15655000Y33687500D03*
X16155000Y33687500D03*
X16655000Y33687500D03*
X17155000Y33687500D03*
X17655000Y33687500D03*
X18155000Y33687500D03*
D47*
X18842500Y34375000D03*
X18842500Y34875000D03*
X18842500Y35375000D03*
X18842500Y35875000D03*
X18842500Y36375000D03*
X18842500Y36875000D03*
X18842500Y37375000D03*
X18842500Y37875000D03*
X18842500Y38375000D03*
X18842500Y38875000D03*
X18842500Y39375000D03*
X18842500Y39875000D03*
D48*
X18155000Y40562500D03*
X17655000Y40562500D03*
X17155000Y40562500D03*
X16655000Y40562500D03*
X16155000Y40562500D03*
X15655000Y40562500D03*
X15155000Y40562500D03*
X14655000Y40562500D03*
X14155000Y40562500D03*
X13655000Y40562500D03*
X13155000Y40562500D03*
X12655000Y40562500D03*
%TD*%
D22*
%TO.C,Q2*%
X23590000Y15260000D03*
X21690000Y15260000D03*
X22640000Y13385000D03*
%TD*%
D18*
%TO.C,R30*%
X23415000Y33630000D03*
X24610000Y33630000D03*
%TD*%
D38*
%TO.C,D3*%
X21940000Y9710000D03*
X21940000Y11810000D03*
%TD*%
D18*
%TO.C,R23*%
X23415000Y37241250D03*
X24610000Y37241250D03*
%TD*%
D32*
%TO.C,C7*%
X5248286Y14827500D03*
X5248286Y13692500D03*
%TD*%
M02*
