%TF.GenerationSoftware,KiCad,Pcbnew,(6.0.0-rc1-323-gb9e66d8b98)*%
%TF.CreationDate,2021-12-20T00:28:19+08:00*%
%TF.ProjectId,XSense,5853656e-7365-42e6-9b69-6361645f7063,rev?*%
%TF.SameCoordinates,PXb340ac0PY76b1be0*%
%TF.FileFunction,Legend,Top*%
%TF.FilePolarity,Positive*%
%FSLAX46Y46*%
G04 Gerber Fmt 4.6, Leading zero omitted, Abs format (unit mm)*
G04 Created by KiCad (PCBNEW (6.0.0-rc1-323-gb9e66d8b98)) date 2021-12-20 00:28:19*
%MOMM*%
%LPD*%
G01*
G04 APERTURE LIST*
%TA.AperFunction,Profile*%
%ADD10C,0.500000*%
%TD*%
%TA.AperFunction,Profile*%
%ADD11C,0.100000*%
%TD*%
%ADD12C,0.127000*%
%ADD13C,0.200000*%
%ADD14C,0.101600*%
%ADD15C,0.150000*%
%ADD16C,0.076200*%
%ADD17C,0.120000*%
%ADD18C,0.254000*%
%ADD19C,0.100000*%
G04 APERTURE END LIST*
D10*
X582946Y2477666D02*
G75*
G03*
X3040002Y4722I2457054J-15839D01*
G01*
X3054640Y46925855D02*
X28951133Y46920051D01*
X31408189Y44447107D02*
X31397105Y2460002D01*
D11*
X4236974Y2650000D02*
G75*
G03*
X4236974Y2650000I-1100000J0D01*
G01*
D10*
X28924161Y2946D02*
G75*
G03*
X31397105Y2460002I15839J2457054D01*
G01*
X3054640Y46925855D02*
G75*
G03*
X581696Y44468799I-15842J-2457051D01*
G01*
D11*
X30051135Y44462946D02*
G75*
G03*
X30051135Y44462946I-1100000J0D01*
G01*
X30040000Y2662946D02*
G75*
G03*
X30040000Y2662946I-1100000J0D01*
G01*
X4138798Y44468804D02*
G75*
G03*
X4138798Y44468804I-1100000J0D01*
G01*
D10*
X582946Y2490000D02*
X581696Y44468799D01*
X31408189Y44447107D02*
G75*
G03*
X28951133Y46920051I-2457054J15839D01*
G01*
X28924161Y2946D02*
X3030000Y4722D01*
D12*
X27790857Y24188191D02*
X27790857Y23776953D01*
X27815047Y23728572D01*
X27839238Y23704381D01*
X27887619Y23680191D01*
X27984380Y23680191D01*
X28032761Y23704381D01*
X28056952Y23728572D01*
X28081142Y23776953D01*
X28081142Y24188191D01*
X28323047Y23680191D02*
X28323047Y24188191D01*
X28516571Y24188191D01*
X28564952Y24164000D01*
X28589142Y24139810D01*
X28613333Y24091429D01*
X28613333Y24018858D01*
X28589142Y23970477D01*
X28564952Y23946286D01*
X28516571Y23922096D01*
X28323047Y23922096D01*
X27664476Y13760191D02*
X27664476Y14268191D01*
X27785428Y14268191D01*
X27858000Y14244000D01*
X27906380Y14195620D01*
X27930571Y14147239D01*
X27954761Y14050477D01*
X27954761Y13977905D01*
X27930571Y13881143D01*
X27906380Y13832762D01*
X27858000Y13784381D01*
X27785428Y13760191D01*
X27664476Y13760191D01*
X28269238Y14268191D02*
X28366000Y14268191D01*
X28414380Y14244000D01*
X28462761Y14195620D01*
X28486952Y14098858D01*
X28486952Y13929524D01*
X28462761Y13832762D01*
X28414380Y13784381D01*
X28366000Y13760191D01*
X28269238Y13760191D01*
X28220857Y13784381D01*
X28172476Y13832762D01*
X28148285Y13929524D01*
X28148285Y14098858D01*
X28172476Y14195620D01*
X28220857Y14244000D01*
X28269238Y14268191D01*
X28656285Y14268191D02*
X28777238Y13760191D01*
X28874000Y14123048D01*
X28970761Y13760191D01*
X29091714Y14268191D01*
X29285238Y13760191D02*
X29285238Y14268191D01*
X29575523Y13760191D01*
X29575523Y14268191D01*
D13*
X27211428Y17898096D02*
X27211428Y18660000D01*
X27592380Y18279048D02*
X26830476Y18279048D01*
X27211428Y20660000D02*
X27211428Y21421905D01*
D14*
X13011936Y31935358D02*
X13223603Y31935358D01*
X13272740Y31602739D02*
X12970359Y31602739D01*
X13049734Y32237739D01*
X13352115Y32237739D01*
X13518424Y31632977D02*
X13605359Y31602739D01*
X13756549Y31602739D01*
X13820805Y31632977D01*
X13854823Y31663215D01*
X13892620Y31723691D01*
X13900180Y31784167D01*
X13877501Y31844643D01*
X13851043Y31874881D01*
X13794347Y31905120D01*
X13677174Y31935358D01*
X13620478Y31965596D01*
X13594019Y31995834D01*
X13571341Y32056310D01*
X13578900Y32116786D01*
X13616698Y32177262D01*
X13650716Y32207500D01*
X13714972Y32237739D01*
X13866162Y32237739D01*
X13953097Y32207500D01*
X14149644Y31602739D02*
X14229019Y32237739D01*
X14470924Y32237739D01*
X14527620Y32207500D01*
X14554079Y32177262D01*
X14576757Y32116786D01*
X14565418Y32026072D01*
X14527620Y31965596D01*
X14493603Y31935358D01*
X14429347Y31905120D01*
X14187442Y31905120D01*
X14803543Y32237739D02*
X15196638Y32237739D01*
X14954734Y31995834D01*
X15045448Y31995834D01*
X15102144Y31965596D01*
X15128603Y31935358D01*
X15151281Y31874881D01*
X15132382Y31723691D01*
X15094585Y31663215D01*
X15060567Y31632977D01*
X14996311Y31602739D01*
X14814882Y31602739D01*
X14758186Y31632977D01*
X14731728Y31663215D01*
X15430984Y32177262D02*
X15465001Y32207500D01*
X15529257Y32237739D01*
X15680448Y32237739D01*
X15737144Y32207500D01*
X15763603Y32177262D01*
X15786281Y32116786D01*
X15778722Y32056310D01*
X15737144Y31965596D01*
X15328930Y31602739D01*
X15722025Y31602739D01*
X15994168Y31602739D02*
X16073543Y32237739D01*
X16315448Y32237739D01*
X16372144Y32207500D01*
X16398603Y32177262D01*
X16421281Y32116786D01*
X16409942Y32026072D01*
X16372144Y31965596D01*
X16338126Y31935358D01*
X16273870Y31905120D01*
X16031966Y31905120D01*
X16629168Y31602739D02*
X16708543Y32237739D01*
X17301966Y31663215D02*
X17267948Y31632977D01*
X17173454Y31602739D01*
X17112978Y31602739D01*
X17026043Y31632977D01*
X16973126Y31693453D01*
X16950448Y31753929D01*
X16935329Y31874881D01*
X16946668Y31965596D01*
X16992025Y32086548D01*
X17029823Y32147024D01*
X17097859Y32207500D01*
X17192353Y32237739D01*
X17252829Y32237739D01*
X17339763Y32207500D01*
X17366222Y32177262D01*
X17766876Y32237739D02*
X17887829Y32237739D01*
X17944525Y32207500D01*
X17997442Y32147024D01*
X18012561Y32026072D01*
X17986103Y31814405D01*
X17940745Y31693453D01*
X17872710Y31632977D01*
X17808454Y31602739D01*
X17687501Y31602739D01*
X17630805Y31632977D01*
X17577888Y31693453D01*
X17562769Y31814405D01*
X17589228Y32026072D01*
X17634585Y32147024D01*
X17702620Y32207500D01*
X17766876Y32237739D01*
X16069305Y42595362D02*
X16156239Y42565124D01*
X16182698Y42534885D01*
X16205376Y42474409D01*
X16194037Y42383695D01*
X16156239Y42323219D01*
X16122222Y42292981D01*
X16057966Y42262743D01*
X15816061Y42262743D01*
X15895436Y42897743D01*
X16107103Y42897743D01*
X16163799Y42867504D01*
X16190257Y42837266D01*
X16212936Y42776790D01*
X16205376Y42716314D01*
X16167579Y42655838D01*
X16133561Y42625600D01*
X16069305Y42595362D01*
X15857638Y42595362D01*
X16451061Y42262743D02*
X16530436Y42897743D01*
X16685406Y42444171D01*
X16953769Y42897743D01*
X16874394Y42262743D01*
X17176775Y42262743D02*
X17256150Y42897743D01*
X17498055Y42897743D01*
X17554751Y42867504D01*
X17581210Y42837266D01*
X17603888Y42776790D01*
X17592549Y42686076D01*
X17554751Y42625600D01*
X17520733Y42595362D01*
X17456478Y42565124D01*
X17214573Y42565124D01*
X17853353Y42837266D02*
X17887370Y42867504D01*
X17951626Y42897743D01*
X18102817Y42897743D01*
X18159513Y42867504D01*
X18185972Y42837266D01*
X18208650Y42776790D01*
X18201091Y42716314D01*
X18159513Y42625600D01*
X17751299Y42262743D01*
X18144394Y42262743D01*
X18552608Y42625600D02*
X18495912Y42655838D01*
X18469454Y42686076D01*
X18446775Y42746552D01*
X18450555Y42776790D01*
X18488353Y42837266D01*
X18522370Y42867504D01*
X18586626Y42897743D01*
X18707579Y42897743D01*
X18764275Y42867504D01*
X18790733Y42837266D01*
X18813412Y42776790D01*
X18809632Y42746552D01*
X18771835Y42686076D01*
X18737817Y42655838D01*
X18673561Y42625600D01*
X18552608Y42625600D01*
X18488353Y42595362D01*
X18454335Y42565124D01*
X18416537Y42504647D01*
X18401418Y42383695D01*
X18424097Y42323219D01*
X18450555Y42292981D01*
X18507251Y42262743D01*
X18628204Y42262743D01*
X18692460Y42292981D01*
X18726478Y42323219D01*
X18764275Y42383695D01*
X18779394Y42504647D01*
X18756716Y42565124D01*
X18730257Y42595362D01*
X18673561Y42625600D01*
X19221626Y42897743D02*
X19282103Y42897743D01*
X19338799Y42867504D01*
X19365257Y42837266D01*
X19387936Y42776790D01*
X19403055Y42655838D01*
X19384156Y42504647D01*
X19338799Y42383695D01*
X19301001Y42323219D01*
X19266983Y42292981D01*
X19202728Y42262743D01*
X19142251Y42262743D01*
X19085555Y42292981D01*
X19059097Y42323219D01*
X19036418Y42383695D01*
X19021299Y42504647D01*
X19040198Y42655838D01*
X19085555Y42776790D01*
X19123353Y42837266D01*
X19157370Y42867504D01*
X19221626Y42897743D01*
X22525047Y30276286D02*
X22694380Y30276286D01*
X22766952Y30010191D02*
X22525047Y30010191D01*
X22525047Y30518191D01*
X22766952Y30518191D01*
X22984666Y30010191D02*
X22984666Y30518191D01*
X23274952Y30010191D01*
X23274952Y30518191D01*
X14521856Y11093208D02*
X14487838Y11062970D01*
X14393344Y11032732D01*
X14332868Y11032732D01*
X14245933Y11062970D01*
X14193016Y11123446D01*
X14170338Y11183922D01*
X14155219Y11304874D01*
X14166558Y11395589D01*
X14211915Y11516541D01*
X14249713Y11577017D01*
X14317749Y11637493D01*
X14412243Y11667732D01*
X14472719Y11667732D01*
X14559653Y11637493D01*
X14586112Y11607255D01*
X14786439Y11032732D02*
X14865814Y11667732D01*
X14828016Y11365351D02*
X15190874Y11365351D01*
X15149296Y11032732D02*
X15228671Y11667732D01*
X15481915Y11032732D02*
X15602868Y11032732D01*
X15667124Y11062970D01*
X15701141Y11093208D01*
X15772957Y11183922D01*
X15818314Y11304874D01*
X15848552Y11546779D01*
X15825874Y11607255D01*
X15799415Y11637493D01*
X15742719Y11667732D01*
X15621766Y11667732D01*
X15557510Y11637493D01*
X15523493Y11607255D01*
X15485695Y11546779D01*
X15466796Y11395589D01*
X15489475Y11335113D01*
X15515933Y11304874D01*
X15572629Y11274636D01*
X15693582Y11274636D01*
X15757838Y11304874D01*
X15791856Y11335113D01*
X15829653Y11395589D01*
X16389058Y11032732D02*
X16026201Y11032732D01*
X16207629Y11032732D02*
X16287004Y11667732D01*
X16215189Y11577017D01*
X16147153Y11516541D01*
X16082897Y11486303D01*
X16861528Y11667732D02*
X16922004Y11667732D01*
X16978701Y11637493D01*
X17005159Y11607255D01*
X17027838Y11546779D01*
X17042957Y11425827D01*
X17024058Y11274636D01*
X16978701Y11153684D01*
X16940903Y11093208D01*
X16906885Y11062970D01*
X16842629Y11032732D01*
X16782153Y11032732D01*
X16725457Y11062970D01*
X16698999Y11093208D01*
X16676320Y11153684D01*
X16661201Y11274636D01*
X16680100Y11425827D01*
X16725457Y11546779D01*
X16763254Y11607255D01*
X16797272Y11637493D01*
X16861528Y11667732D01*
X17307540Y11607255D02*
X17341558Y11637493D01*
X17405814Y11667732D01*
X17557004Y11667732D01*
X17613701Y11637493D01*
X17640159Y11607255D01*
X17662838Y11546779D01*
X17655278Y11486303D01*
X17613701Y11395589D01*
X17205487Y11032732D01*
X17598582Y11032732D01*
X16137626Y18042751D02*
X16217001Y18677751D01*
X16810424Y18103227D02*
X16776406Y18072989D01*
X16681912Y18042751D01*
X16621436Y18042751D01*
X16534501Y18072989D01*
X16481585Y18133465D01*
X16458906Y18193941D01*
X16443787Y18314893D01*
X16455126Y18405608D01*
X16500484Y18526560D01*
X16538281Y18587036D01*
X16606317Y18647512D01*
X16700811Y18677751D01*
X16761287Y18677751D01*
X16848222Y18647512D01*
X16874680Y18617274D01*
X17075007Y18042751D02*
X17154382Y18677751D01*
X17309353Y18224179D01*
X17577716Y18677751D01*
X17498341Y18042751D01*
X17842299Y18617274D02*
X17876317Y18647512D01*
X17940573Y18677751D01*
X18091763Y18677751D01*
X18148460Y18647512D01*
X18174918Y18617274D01*
X18197597Y18556798D01*
X18190037Y18496322D01*
X18148460Y18405608D01*
X17740246Y18042751D01*
X18133341Y18042751D01*
X18605811Y18677751D02*
X18666287Y18677751D01*
X18722984Y18647512D01*
X18749442Y18617274D01*
X18772121Y18556798D01*
X18787240Y18435846D01*
X18768341Y18284655D01*
X18722984Y18163703D01*
X18685186Y18103227D01*
X18651168Y18072989D01*
X18586912Y18042751D01*
X18526436Y18042751D01*
X18469740Y18072989D01*
X18443281Y18103227D01*
X18420603Y18163703D01*
X18405484Y18284655D01*
X18424382Y18435846D01*
X18469740Y18556798D01*
X18507537Y18617274D01*
X18541555Y18647512D01*
X18605811Y18677751D01*
X19361763Y18677751D02*
X19240811Y18677751D01*
X19176555Y18647512D01*
X19142537Y18617274D01*
X19070722Y18526560D01*
X19025365Y18405608D01*
X18995126Y18163703D01*
X19017805Y18103227D01*
X19044263Y18072989D01*
X19100960Y18042751D01*
X19221912Y18042751D01*
X19286168Y18072989D01*
X19320186Y18103227D01*
X19357984Y18163703D01*
X19376882Y18314893D01*
X19354204Y18375370D01*
X19327746Y18405608D01*
X19271049Y18435846D01*
X19150097Y18435846D01*
X19085841Y18405608D01*
X19051823Y18375370D01*
X19014025Y18314893D01*
X19815335Y18677751D02*
X19875811Y18677751D01*
X19932507Y18647512D01*
X19958966Y18617274D01*
X19981644Y18556798D01*
X19996763Y18435846D01*
X19977865Y18284655D01*
X19932507Y18163703D01*
X19894710Y18103227D01*
X19860692Y18072989D01*
X19796436Y18042751D01*
X19735960Y18042751D01*
X19679263Y18072989D01*
X19652805Y18103227D01*
X19630126Y18163703D01*
X19615007Y18284655D01*
X19633906Y18435846D01*
X19679263Y18556798D01*
X19717061Y18617274D01*
X19751079Y18647512D01*
X19815335Y18677751D01*
X20261347Y18617274D02*
X20295365Y18647512D01*
X20359621Y18677751D01*
X20510811Y18677751D01*
X20567507Y18647512D01*
X20593966Y18617274D01*
X20616644Y18556798D01*
X20609085Y18496322D01*
X20567507Y18405608D01*
X20159293Y18042751D01*
X20552388Y18042751D01*
X23052077Y41724157D02*
X23354458Y41724157D01*
X22968922Y41542729D02*
X23259964Y42177729D01*
X23392255Y41542729D01*
X23603922Y41542729D02*
X23683297Y42177729D01*
X23645499Y41875348D02*
X24008357Y41875348D01*
X23966779Y41542729D02*
X24046154Y42177729D01*
X24257821Y42177729D02*
X24620678Y42177729D01*
X24359874Y41542729D02*
X24439249Y42177729D01*
X24794547Y42117252D02*
X24828565Y42147490D01*
X24892821Y42177729D01*
X25044011Y42177729D01*
X25100708Y42147490D01*
X25127166Y42117252D01*
X25149845Y42056776D01*
X25142285Y41996300D01*
X25100708Y41905586D01*
X24692493Y41542729D01*
X25085589Y41542729D01*
X25558059Y42177729D02*
X25618535Y42177729D01*
X25675232Y42147490D01*
X25701690Y42117252D01*
X25724368Y42056776D01*
X25739487Y41935824D01*
X25720589Y41784633D01*
X25675232Y41663681D01*
X25637434Y41603205D01*
X25603416Y41572967D01*
X25539160Y41542729D01*
X25478684Y41542729D01*
X25421987Y41572967D01*
X25395529Y41603205D01*
X25372851Y41663681D01*
X25357732Y41784633D01*
X25376630Y41935824D01*
X25421987Y42056776D01*
X25459785Y42117252D01*
X25493803Y42147490D01*
X25558059Y42177729D01*
X24860571Y30286286D02*
X24933142Y30262096D01*
X24957333Y30237905D01*
X24981523Y30189524D01*
X24981523Y30116953D01*
X24957333Y30068572D01*
X24933142Y30044381D01*
X24884761Y30020191D01*
X24691238Y30020191D01*
X24691238Y30528191D01*
X24860571Y30528191D01*
X24908952Y30504000D01*
X24933142Y30479810D01*
X24957333Y30431429D01*
X24957333Y30383048D01*
X24933142Y30334667D01*
X24908952Y30310477D01*
X24860571Y30286286D01*
X24691238Y30286286D01*
X25296000Y30528191D02*
X25392761Y30528191D01*
X25441142Y30504000D01*
X25489523Y30455620D01*
X25513714Y30358858D01*
X25513714Y30189524D01*
X25489523Y30092762D01*
X25441142Y30044381D01*
X25392761Y30020191D01*
X25296000Y30020191D01*
X25247619Y30044381D01*
X25199238Y30092762D01*
X25175047Y30189524D01*
X25175047Y30358858D01*
X25199238Y30455620D01*
X25247619Y30504000D01*
X25296000Y30528191D01*
X25828190Y30528191D02*
X25924952Y30528191D01*
X25973333Y30504000D01*
X26021714Y30455620D01*
X26045904Y30358858D01*
X26045904Y30189524D01*
X26021714Y30092762D01*
X25973333Y30044381D01*
X25924952Y30020191D01*
X25828190Y30020191D01*
X25779809Y30044381D01*
X25731428Y30092762D01*
X25707238Y30189524D01*
X25707238Y30358858D01*
X25731428Y30455620D01*
X25779809Y30504000D01*
X25828190Y30528191D01*
X26191047Y30528191D02*
X26481333Y30528191D01*
X26336190Y30020191D02*
X26336190Y30528191D01*
D15*
%TO.C,C16*%
X18937142Y8849643D02*
X18984761Y8802024D01*
X19032380Y8659167D01*
X19032380Y8563929D01*
X18984761Y8421072D01*
X18889523Y8325834D01*
X18794285Y8278215D01*
X18603809Y8230596D01*
X18460952Y8230596D01*
X18270476Y8278215D01*
X18175238Y8325834D01*
X18080000Y8421072D01*
X18032380Y8563929D01*
X18032380Y8659167D01*
X18080000Y8802024D01*
X18127619Y8849643D01*
X19032380Y9802024D02*
X19032380Y9230596D01*
X19032380Y9516310D02*
X18032380Y9516310D01*
X18175238Y9421072D01*
X18270476Y9325834D01*
X18318095Y9230596D01*
X18032380Y10659167D02*
X18032380Y10468691D01*
X18080000Y10373453D01*
X18127619Y10325834D01*
X18270476Y10230596D01*
X18460952Y10182977D01*
X18841904Y10182977D01*
X18937142Y10230596D01*
X18984761Y10278215D01*
X19032380Y10373453D01*
X19032380Y10563929D01*
X18984761Y10659167D01*
X18937142Y10706786D01*
X18841904Y10754405D01*
X18603809Y10754405D01*
X18508571Y10706786D01*
X18460952Y10659167D01*
X18413333Y10563929D01*
X18413333Y10373453D01*
X18460952Y10278215D01*
X18508571Y10230596D01*
X18603809Y10182977D01*
D16*
%TO.C,U5*%
X7965715Y9307500D02*
X7165715Y9307500D01*
X7965715Y9307500D02*
X8765715Y9307500D01*
X7965715Y12427500D02*
X8765715Y12427500D01*
X7965715Y12427500D02*
X6165715Y12427500D01*
%TO.C,Q6*%
X7340000Y5600000D02*
X9015000Y5600000D01*
X7340000Y5600000D02*
X6690000Y5600000D01*
X7340000Y8720000D02*
X7990000Y8720000D01*
X7340000Y8720000D02*
X6690000Y8720000D01*
%TO.C,C1*%
X21585835Y40523750D02*
X21354165Y40523750D01*
X21585835Y41243750D02*
X21354165Y41243750D01*
D17*
%TO.C,J2*%
X29150000Y42140000D02*
X31210000Y42140000D01*
X27090000Y40080000D02*
X29150000Y40080000D01*
X27090000Y34020000D02*
X31210000Y34020000D01*
X29150000Y40080000D02*
X29150000Y42140000D01*
X31210000Y42140000D02*
X31210000Y34020000D01*
X27090000Y40080000D02*
X27090000Y34020000D01*
X27090000Y41080000D02*
X27090000Y42140000D01*
X27090000Y42140000D02*
X28150000Y42140000D01*
%TO.C,C16*%
X19380000Y9376665D02*
X19380000Y9608335D01*
X20100000Y9376665D02*
X20100000Y9608335D01*
D16*
%TO.C,R7*%
X25220000Y15327621D02*
X25220000Y14992379D01*
X24460000Y15327621D02*
X24460000Y14992379D01*
%TO.C,D2*%
X21040000Y16410000D02*
X23590000Y16410000D01*
X21040000Y18110000D02*
X23590000Y18110000D01*
X21040000Y18110000D02*
X21040000Y16410000D01*
%TO.C,D1*%
X675500Y37062000D02*
X3225500Y37062000D01*
X675500Y38762000D02*
X675500Y37062000D01*
X675500Y38762000D02*
X3225500Y38762000D01*
D17*
%TO.C,R22*%
X23844879Y38825000D02*
X24180121Y38825000D01*
X23844879Y38065000D02*
X24180121Y38065000D01*
%TO.C,TP3*%
X26540000Y18210000D02*
G75*
G03*
X26540000Y18210000I-700000J0D01*
G01*
D16*
%TO.C,C2*%
X17074000Y24557665D02*
X17074000Y24789335D01*
X16354000Y24557665D02*
X16354000Y24789335D01*
%TO.C,SW4*%
X31720000Y25980000D02*
X31720000Y26905000D01*
X28020000Y25980000D02*
X28020000Y30680000D01*
X29595000Y30780000D02*
X30145000Y30780000D01*
X31720000Y29755000D02*
X31720000Y30680000D01*
X29595000Y25880000D02*
X30145000Y25880000D01*
%TO.C,C12*%
X2544165Y6495250D02*
X2775835Y6495250D01*
X2544165Y5775250D02*
X2775835Y5775250D01*
%TO.C,R20*%
X2807621Y10754750D02*
X2472379Y10754750D01*
X2807621Y9994750D02*
X2472379Y9994750D01*
%TO.C,Q3*%
X24400000Y6560000D02*
X24400000Y8235000D01*
X21280000Y6560000D02*
X21280000Y7210000D01*
X24400000Y6560000D02*
X24400000Y5910000D01*
X21280000Y6560000D02*
X21280000Y5910000D01*
%TO.C,R8*%
X7040000Y14072379D02*
X7040000Y14407621D01*
X7800000Y14072379D02*
X7800000Y14407621D01*
D17*
%TO.C,TP4*%
X9170500Y35460000D02*
G75*
G03*
X9170500Y35460000I-700000J0D01*
G01*
D16*
%TO.C,R10*%
X16106000Y9312379D02*
X16106000Y9647621D01*
X16866000Y9312379D02*
X16866000Y9647621D01*
%TO.C,R16*%
X20160000Y29127621D02*
X20160000Y28792379D01*
X20920000Y29127621D02*
X20920000Y28792379D01*
D18*
%TO.C,U8*%
X11146000Y24519000D02*
X11146000Y23331000D01*
X-3300000Y23988000D02*
X-3300000Y23925000D01*
X11146000Y27044000D02*
X11146000Y26281000D01*
X-3300000Y23925000D02*
X-3300000Y23868000D01*
X347000Y21674000D02*
X556000Y21465000D01*
X11146000Y19044000D02*
X11146000Y18885000D01*
X4006000Y29025000D02*
X4006000Y29095000D01*
X4326000Y18785000D02*
X3993000Y18785000D01*
X11146000Y21569000D02*
X11146000Y20806000D01*
X11146000Y18885000D02*
X11146000Y18785000D01*
X3986000Y18785000D02*
X4006000Y29025000D01*
X4006000Y29095000D02*
X4369000Y29095000D01*
X10231000Y18785000D02*
X6131000Y18785000D01*
X10231000Y29095000D02*
X11146000Y29095000D01*
X3883000Y31171000D02*
X4050000Y31171000D01*
X6131000Y29095000D02*
X10454000Y29095000D01*
X396000Y26295000D02*
X446000Y26345000D01*
X11146000Y18785000D02*
X10231000Y18785000D01*
X100000Y22270000D02*
X100000Y25580000D01*
X11146000Y29095000D02*
X11146000Y28806000D01*
X8445000Y29575000D02*
G75*
G03*
X3905959Y31164515I-4539001J-5686003D01*
G01*
X3955806Y28125503D02*
G75*
G03*
X1488000Y27324000I197J-4200512D01*
G01*
X1483000Y20526000D02*
G75*
G03*
X3950641Y19725085I2467001J3399005D01*
G01*
X3869950Y16671485D02*
G75*
G03*
X8409000Y18261000I50J7275514D01*
G01*
X-3301000Y23868000D02*
G75*
G03*
X3896000Y16671000I7196998J-2D01*
G01*
X3883000Y31171000D02*
G75*
G03*
X-3300000Y23988000I0J-7183000D01*
G01*
X99836Y22269293D02*
G75*
G03*
X347000Y21674000I842157J704D01*
G01*
X10832000Y26162000D02*
G75*
G03*
X9565431Y28539427I-6782000J-2087001D01*
G01*
X576000Y26438000D02*
G75*
G03*
X99868Y25580843I534999J-857999D01*
G01*
X9635790Y19245483D02*
G75*
G03*
X10902000Y21623000I-5515808J4463526D01*
G01*
D16*
%TO.C,U6*%
X18040000Y16165000D02*
X18040000Y16640000D01*
X18040000Y12895000D02*
X18040000Y12420000D01*
X13820000Y12895000D02*
X13820000Y12420000D01*
X13820000Y16640000D02*
X14295000Y16640000D01*
X13820000Y16165000D02*
X13820000Y16640000D01*
X18040000Y16640000D02*
X17565000Y16640000D01*
X18040000Y12420000D02*
X17565000Y12420000D01*
D17*
%TO.C,R28*%
X14610121Y23057500D02*
X14274879Y23057500D01*
X14610121Y23817500D02*
X14274879Y23817500D01*
D16*
%TO.C,Q5*%
X19656500Y27760000D02*
X19656500Y29160000D01*
X17336500Y29160000D02*
X17336500Y27260000D01*
D17*
%TO.C,C15*%
X15022822Y44839165D02*
X15022822Y45070835D01*
X15742822Y44839165D02*
X15742822Y45070835D01*
D16*
%TO.C,TP2*%
X26210000Y28744000D02*
G75*
G03*
X26210000Y28744000I-700000J0D01*
G01*
%TO.C,R3*%
X14274879Y20544168D02*
X14610121Y20544168D01*
X14274879Y21304168D02*
X14610121Y21304168D01*
%TO.C,C14*%
X11020000Y14378335D02*
X11020000Y14146665D01*
X10300000Y14378335D02*
X10300000Y14146665D01*
%TO.C,R1*%
X2840621Y39180000D02*
X2505379Y39180000D01*
X2840621Y39940000D02*
X2505379Y39940000D01*
%TO.C,R11*%
X26560000Y2392379D02*
X26560000Y2727621D01*
X27320000Y2392379D02*
X27320000Y2727621D01*
%TO.C,Q4*%
X24610000Y2422000D02*
X24610000Y4097000D01*
X21490000Y2422000D02*
X21490000Y1772000D01*
X24610000Y2422000D02*
X24610000Y1772000D01*
X21490000Y2422000D02*
X21490000Y3072000D01*
%TO.C,U2*%
X19135000Y22607500D02*
X19810000Y22607500D01*
X17265000Y19387500D02*
X16590000Y19387500D01*
X19135000Y19387500D02*
X19810000Y19387500D01*
X17265000Y22607500D02*
X16590000Y22607500D01*
X16590000Y19387500D02*
X16590000Y19562500D01*
X19810000Y22607500D02*
X19810000Y22432500D01*
X19810000Y19387500D02*
X19810000Y19562500D01*
%TO.C,C11*%
X2723335Y14200857D02*
X2491665Y14200857D01*
X2723335Y13480857D02*
X2491665Y13480857D01*
%TO.C,R14*%
X2795121Y12049143D02*
X2459879Y12049143D01*
X2795121Y11289143D02*
X2459879Y11289143D01*
%TO.C,D4*%
X6689143Y14375835D02*
X6689143Y14144165D01*
X5969143Y14375835D02*
X5969143Y14144165D01*
%TO.C,U3*%
X20074000Y-1245000D02*
X10914000Y-1245000D01*
X20074000Y460000D02*
X20074000Y-1245000D01*
X10914000Y4390000D02*
X10914000Y2470000D01*
X20074000Y2470000D02*
X20074000Y4390000D01*
X10914000Y-1245000D02*
X10914000Y460000D01*
D17*
%TO.C,SW1*%
X30245000Y12560000D02*
X29455000Y12560000D01*
X28405000Y10510000D02*
X28405000Y10710000D01*
X32545000Y9010000D02*
X32755000Y8810000D01*
X28405000Y7510000D02*
X28405000Y9210000D01*
X29455000Y5660000D02*
X30245000Y5660000D01*
X32755000Y7910000D02*
X32755000Y8810000D01*
X32545000Y9010000D02*
X31255000Y9010000D01*
X32545000Y7710000D02*
X32755000Y7910000D01*
X31255000Y7710000D02*
X32545000Y7710000D01*
X31255000Y6260000D02*
X31255000Y11960000D01*
D16*
%TO.C,C13*%
X17620000Y9414165D02*
X17620000Y9645835D01*
X18340000Y9414165D02*
X18340000Y9645835D01*
D17*
%TO.C,R27*%
X14610121Y19287500D02*
X14274879Y19287500D01*
X14610121Y20047500D02*
X14274879Y20047500D01*
%TO.C,R25*%
X23844879Y39268750D02*
X24180121Y39268750D01*
X23844879Y40028750D02*
X24180121Y40028750D01*
D16*
%TO.C,D5*%
X26690000Y7760000D02*
X26690000Y5210000D01*
X24990000Y7760000D02*
X24990000Y5210000D01*
X26690000Y7760000D02*
X24990000Y7760000D01*
%TO.C,R19*%
X2472379Y7880000D02*
X2807621Y7880000D01*
X2472379Y8640000D02*
X2807621Y8640000D01*
%TO.C,AE1*%
X12500000Y44000000D02*
X12500000Y46720000D01*
X12500000Y46720000D02*
X5790000Y46720000D01*
X5790000Y44000000D02*
X12500000Y44000000D01*
%TO.C,BZ1*%
X2201500Y35424000D02*
X6201500Y35424000D01*
X6201500Y33824000D02*
X2201500Y33824000D01*
%TO.C,R6*%
X9241715Y14407621D02*
X9241715Y14072379D01*
X10001715Y14407621D02*
X10001715Y14072379D01*
%TO.C,R9*%
X8900857Y14407621D02*
X8900857Y14072379D01*
X8140857Y14407621D02*
X8140857Y14072379D01*
%TO.C,C4*%
X19106000Y24557665D02*
X19106000Y24789335D01*
X18386000Y24557665D02*
X18386000Y24789335D01*
%TO.C,R4*%
X21657621Y40070000D02*
X21322379Y40070000D01*
X21657621Y39310000D02*
X21322379Y39310000D01*
%TO.C,SW5*%
X28020000Y16100000D02*
X28020000Y20800000D01*
X31720000Y16100000D02*
X31720000Y17025000D01*
X31720000Y19875000D02*
X31720000Y20800000D01*
X29595000Y20900000D02*
X30145000Y20900000D01*
X29595000Y16000000D02*
X30145000Y16000000D01*
%TO.C,C3*%
X17370000Y24557665D02*
X17370000Y24789335D01*
X18090000Y24557665D02*
X18090000Y24789335D01*
D19*
%TO.C,U9*%
X16472822Y46085000D02*
X17112822Y46085000D01*
X16472822Y46085000D02*
X16472822Y45605000D01*
X18032822Y46085000D02*
X18672822Y46085000D01*
X16472822Y43385000D02*
X17112822Y43385000D01*
X18672822Y43865000D02*
X18672822Y43385000D01*
X16472822Y43865000D02*
X16472822Y43385000D01*
X18032822Y43385000D02*
X18672822Y43385000D01*
D16*
%TO.C,C8*%
X23680000Y24494165D02*
X23680000Y24725835D01*
X24400000Y24494165D02*
X24400000Y24725835D01*
D17*
%TO.C,TP5*%
X26540000Y21260000D02*
G75*
G03*
X26540000Y21260000I-700000J0D01*
G01*
D16*
%TO.C,U4*%
X24250000Y21055000D02*
X24250000Y21855000D01*
X21130000Y21055000D02*
X21130000Y19255000D01*
X21130000Y21055000D02*
X21130000Y21855000D01*
X24250000Y21055000D02*
X24250000Y20255000D01*
%TO.C,R15*%
X2472379Y6812625D02*
X2807621Y6812625D01*
X2472379Y7572625D02*
X2807621Y7572625D01*
D17*
%TO.C,R21*%
X23844879Y36417500D02*
X24180121Y36417500D01*
X23844879Y35657500D02*
X24180121Y35657500D01*
D16*
%TO.C,Q1*%
X6241500Y40234000D02*
X4566500Y40234000D01*
X6241500Y37114000D02*
X6891500Y37114000D01*
X6241500Y40234000D02*
X6891500Y40234000D01*
X6241500Y37114000D02*
X5591500Y37114000D01*
%TO.C,C6*%
X15709500Y29095835D02*
X15709500Y28864165D01*
X14989500Y29095835D02*
X14989500Y28864165D01*
%TO.C,C5*%
X20122000Y24557665D02*
X20122000Y24789335D01*
X19402000Y24557665D02*
X19402000Y24789335D01*
D17*
%TO.C,U10*%
X25950000Y44335000D02*
X25950000Y42835000D01*
X22730000Y45835000D02*
X22730000Y42835000D01*
D16*
%TO.C,C9*%
X22200000Y24544165D02*
X22200000Y24775835D01*
X21480000Y24544165D02*
X21480000Y24775835D01*
%TO.C,R2*%
X14610121Y22560834D02*
X14274879Y22560834D01*
X14610121Y21800834D02*
X14274879Y21800834D01*
D17*
%TO.C,R24*%
X23844879Y40472500D02*
X24180121Y40472500D01*
X23844879Y41232500D02*
X24180121Y41232500D01*
D16*
%TO.C,R5*%
X14626000Y28792379D02*
X14626000Y29127621D01*
X13866000Y28792379D02*
X13866000Y29127621D01*
%TO.C,R17*%
X16833000Y29127621D02*
X16833000Y28792379D01*
X16073000Y29127621D02*
X16073000Y28792379D01*
%TO.C,R12*%
X25260000Y2727621D02*
X25260000Y2392379D01*
X26020000Y2727621D02*
X26020000Y2392379D01*
%TO.C,TP1*%
X23650000Y28744000D02*
G75*
G03*
X23650000Y28744000I-700000J0D01*
G01*
D17*
%TO.C,R26*%
X23320000Y24462379D02*
X23320000Y24797621D01*
X22560000Y24462379D02*
X22560000Y24797621D01*
D16*
%TO.C,D6*%
X23090000Y9260000D02*
X24790000Y9260000D01*
X23090000Y9260000D02*
X23090000Y11810000D01*
X24790000Y9260000D02*
X24790000Y11810000D01*
%TO.C,R13*%
X13720000Y9352379D02*
X13720000Y9687621D01*
X14480000Y9352379D02*
X14480000Y9687621D01*
D17*
%TO.C,R29*%
X23844879Y35213750D02*
X24180121Y35213750D01*
X23844879Y34453750D02*
X24180121Y34453750D01*
D16*
%TO.C,C10*%
X2723335Y12400000D02*
X2491665Y12400000D01*
X2723335Y13120000D02*
X2491665Y13120000D01*
D17*
%TO.C,U1*%
X18540000Y40735000D02*
X19015000Y40735000D01*
X19015000Y33515000D02*
X19015000Y33990000D01*
X11795000Y33515000D02*
X11795000Y33990000D01*
X18540000Y33515000D02*
X19015000Y33515000D01*
X12270000Y33515000D02*
X11795000Y33515000D01*
X12270000Y40735000D02*
X11795000Y40735000D01*
X19015000Y40735000D02*
X19015000Y40260000D01*
D16*
%TO.C,Q2*%
X24200000Y14322500D02*
X24200000Y15997500D01*
X21080000Y14322500D02*
X21080000Y14972500D01*
X21080000Y14322500D02*
X21080000Y13672500D01*
X24200000Y14322500D02*
X24200000Y13672500D01*
D17*
%TO.C,R30*%
X23844879Y33250000D02*
X24180121Y33250000D01*
X23844879Y34010000D02*
X24180121Y34010000D01*
D16*
%TO.C,D3*%
X21090000Y9260000D02*
X21090000Y11810000D01*
X21090000Y9260000D02*
X22790000Y9260000D01*
X22790000Y9260000D02*
X22790000Y11810000D01*
D17*
%TO.C,R23*%
X23844879Y36861250D02*
X24180121Y36861250D01*
X23844879Y37621250D02*
X24180121Y37621250D01*
D16*
%TO.C,C7*%
X4888286Y14375835D02*
X4888286Y14144165D01*
X5608286Y14375835D02*
X5608286Y14144165D01*
%TD*%
M02*
