M48
; DRILL file {KiCad (6.0.0-rc1-323-gb9e66d8b98)} date Mon Dec 20 00:28:23 2021
; FORMAT={-:-/ absolute / inch / decimal}
; #@! TF.CreationDate,2021-12-20T00:28:23+08:00
; #@! TF.GenerationSoftware,Kicad,Pcbnew,(6.0.0-rc1-323-gb9e66d8b98)
; #@! TF.FileFunction,Plated,1,4,PTH
FMAT,2
INCH
; #@! TA.AperFunction,Plated,PTH,ViaDrill
T1C0.0100
; #@! TA.AperFunction,Plated,PTH,ViaDrill
T2C0.0120
; #@! TA.AperFunction,Plated,PTH,ComponentDrill
T3C0.0236
; #@! TA.AperFunction,Plated,PTH,ComponentDrill
T4C0.0315
%
G90
G05
T1
X0.0346Y0.9413
X0.035Y0.1094
X0.0354Y0.7346
X0.037Y0.6075
X0.0437Y1.1634
X0.0449Y0.1862
X0.0457Y1.2819
X0.0571Y0.4594
X0.0575Y0.4071
X0.0823Y1.5992
X0.0913Y1.4921
X0.0972Y0.611
X0.1012Y0.3697
X0.1161Y0.1929
X0.1256Y1.428
X0.1354Y1.602
X0.1461Y1.2835
X0.148Y1.1827
X0.1575Y0.6862
X0.1591Y1.6902
X0.1634Y1.3693
X0.1724Y0.189
X0.1858Y1.6894
X0.1886Y1.4291
X0.1898Y1.5996
X0.2087Y0.0976
X0.2087Y0.0441
X0.2161Y1.6902
X0.2343Y0.1827
X0.2445Y1.6894
X0.2457Y0.4827
X0.2488Y0.0433
X0.2496Y1.5575
X0.2535Y0.0976
X0.2626Y0.8098
X0.265Y0.8626
X0.2661Y0.9213
X0.2661Y0.7535
X0.2661Y0.6972
X0.2661Y0.6421
X0.2665Y0.9693
X0.2673Y1.0209
X0.2689Y1.0764
X0.2701Y1.1213
X0.2724Y1.6882
X0.3004Y1.2484
X0.3051Y1.6902
X0.3102Y0.0949
X0.3102Y0.039
X0.3118Y1.5614
X0.3181Y1.2984
X0.3212Y1.4745
X0.3244Y0.2622
X0.326Y0.4957
X0.3268Y0.8803
X0.3272Y0.9224
X0.3295Y1.002
X0.3295Y0.9642
X0.3319Y1.6909
X0.3437Y0.1953
X0.3445Y1.2484
X0.3508Y1.1287
X0.3579Y0.0378
X0.3594Y1.6906
X0.3598Y1.4906
X0.3602Y1.6358
X0.3602Y1.452
X0.3606Y1.663
X0.3622Y1.6079
X0.3642Y0.0902
X0.3665Y0.6547
X0.3693Y1.5831
X0.3854Y1.5594
X0.3874Y1.3724
X0.3874Y0.8843
X0.3988Y1.6382
X0.3998Y0.3158
X0.4008Y1.6657
X0.4008Y1.6098
X0.4031Y1.4118
X0.4083Y1.5421
X0.4126Y1.5874
X0.4154Y0.8839
X0.4291Y1.6917
X0.4331Y1.3469
X0.4335Y1.5736
X0.4335Y1.5335
X0.4386Y1.2071
X0.439Y0.4728
X0.4535Y1.1421
X0.4567Y1.6921
X0.4583Y0.7213
X0.4583Y0.5567
X0.474Y0.1559
X0.4846Y1.6917
X0.5113Y0.7876
X0.5154Y1.6909
X0.5157Y0.874
X0.5173Y1.2858
X0.5186Y0.7577
X0.5252Y0.7346
X0.5331Y1.1638
X0.5362Y1.822
X0.5366Y1.7965
X0.5366Y1.7138
X0.537Y1.7669
X0.537Y1.7394
X0.537Y1.3606
X0.5417Y1.2429
X0.5543Y0.735
X0.5587Y1.4252
X0.5591Y1.4992
X0.5591Y1.4618
X0.5606Y1.2898
X0.5764Y1.3606
X0.5787Y0.1051
X0.5795Y0.0693
X0.5854Y0.7035
X0.5882Y1.215
X0.5976Y0.5441
X0.6004Y0.2043
X0.6106Y0.0331
X0.6207Y1.6719
X0.628Y0.5441
X0.6319Y1.4618
X0.6327Y1.498
X0.6327Y0.1047
X0.6327Y0.0685
X0.6351Y1.3606
X0.6394Y1.6559
X0.6402Y0.2047
X0.65Y1.2094
X0.6509Y1.2543
X0.6512Y1.085
X0.652Y0.3035
X0.6535Y0.7461
X0.6551Y1.6323
X0.6563Y0.6965
X0.6575Y0.5441
X0.6591Y1.3606
X0.6787Y1.652
X0.6824Y1.555
X0.6886Y1.7669
X0.7173Y1.2701
X0.7185Y0.8272
X0.7417Y1.585
X0.7492Y0.6969
X0.7494Y1.1795
X0.7496Y1.7189
X0.7524Y1.2894
X0.7575Y0.7476
X0.7874Y0.2996
X0.7983Y0.8961
X0.7983Y0.4692
X0.8047Y1.4858
X0.8079Y1.6996
X0.8087Y1.526
X0.8362Y1.4551
X0.8559Y1.5024
X0.8574Y1.7546
X0.8673Y1.2339
X0.8685Y1.2646
X0.8685Y1.0583
X0.8701Y1.4681
X0.898Y1.8003
X0.9031Y1.022
X0.9193Y0.2213
X0.925Y0.3803
X0.9311Y1.2362
X0.9425Y0.4394
X0.9512Y1.0795
X0.952Y0.0264
X0.9543Y1.4866
X0.9661Y1.3409
X0.9701Y1.5929
X0.9701Y1.4
X0.9732Y1.2374
X0.9756Y0.6705
X0.9831Y0.7823
X0.9858Y1.5102
X0.9984Y1.372
X1.0114Y1.2354
X1.0161Y0.2272
X1.0272Y0.5634
X1.028Y1.3559
X1.0283Y1.4264
X1.0319Y1.0772
X1.0335Y1.0299
X1.0343Y0.9783
X1.0402Y0.9236
X1.0673Y1.8157
X1.0673Y1.7815
X1.0748Y0.7642
X1.0776Y0.8953
X1.0776Y0.8343
X1.0831Y0.3307
X1.089Y1.3043
X1.1012Y0.163
X1.1059Y0.0319
X1.1217Y1.8157
X1.1378Y0.3295
X1.1425Y1.3063
X1.148Y0.5539
X1.1819Y0.3654
X1.1835Y1.6839
X1.198Y1.0917
X1.1988Y0.0539
X1.2004Y0.7421
X1.2012Y1.1358
X1.2028Y0.9224
X1.2039Y0.7063
X1.2047Y1.3063
X1.211Y0.1598
X1.2122Y0.5528
X1.2201Y0.3122
X1.2213Y0.4248
X1.2224Y0.3634
T2
X0.1065Y1.3631
X0.1591Y0.4591
X0.3244Y0.4236
X0.3362Y0.6087
X0.422Y0.602
X0.478Y0.3882
X0.5226Y0.8272
X0.5606Y1.0929
X0.5764Y1.7504
X0.5791Y0.4488
X0.5835Y1.0724
X0.5961Y1.5614
X0.5961Y0.9433
X0.6057Y1.0234
X0.6197Y1.2661
X0.724Y1.6264
X0.726Y0.3055
X0.7508Y0.5272
X0.8063Y0.9937
X0.8173Y0.3909
X0.8323Y0.9472
X0.8531Y0.7382
X0.8689Y0.6043
X0.8795Y0.0614
X0.887Y0.1303
X0.915Y1.6362
X0.9189Y1.3055
X0.9583Y1.8213
X1.0134Y0.4161
X1.0606Y0.0578
T4
X1.1083Y1.6173
X1.1083Y1.5386
X1.1083Y1.4598
X1.1083Y1.3811
X1.187Y1.6173
X1.187Y1.5386
X1.187Y1.4598
X1.187Y1.3811
T3
G00X0.4399Y0.2439
M15
G01X0.4399Y0.2006
M16
G05
G00X0.4399Y0.0695
M15
G01X0.4399Y0.0459
M16
G05
G00X0.7801Y0.2439
M15
G01X0.7801Y0.2006
M16
G05
G00X0.7801Y0.0695
M15
G01X0.7801Y0.0459
M16
G05
T0
M30
