M48
; DRILL file {KiCad (6.0.0-rc1-323-gb9e66d8b98)} date Wed Dec 29 00:01:48 2021
; FORMAT={-:-/ absolute / inch / decimal}
; #@! TF.CreationDate,2021-12-29T00:01:48+08:00
; #@! TF.GenerationSoftware,Kicad,Pcbnew,(6.0.0-rc1-323-gb9e66d8b98)
; #@! TF.FileFunction,Plated,1,2,PTH
FMAT,2
INCH
; #@! TA.AperFunction,Plated,PTH,ViaDrill
T1C0.0120
; #@! TA.AperFunction,Plated,PTH,ViaDrill
T2C0.0157
; #@! TA.AperFunction,Plated,PTH,ComponentDrill
T3C0.0315
%
G90
G05
T1
X6.55Y-4.16
X6.55Y-4.24
X6.55Y-4.32
X6.66Y-4.33
X6.66Y-4.39
X6.66Y-4.45
X6.67Y-4.63
X6.7Y-3.18
X6.7Y-3.24
X6.81Y-3.88
X6.81Y-3.95
X6.81Y-4.01
X6.8209Y-4.7394
X6.8224Y-4.7772
X6.8319Y-4.8169
X6.8555Y-4.8516
X6.887Y-4.874
X6.9016Y-4.7417
X6.9091Y-4.7791
X6.9287Y-4.889
X6.9374Y-4.7929
X6.95Y-4.51
X6.96Y-4.22
X6.9717Y-4.8913
X6.9772Y-4.7953
X7.01Y-4.63
X7.02Y-4.34
X7.02Y-4.39
X7.07Y-4.34
X7.07Y-4.39
X7.36Y-4.13
X7.36Y-4.2
X7.36Y-4.27
X7.37Y-4.87
X7.42Y-4.87
X7.47Y-4.87
X7.53Y-4.7
X7.58Y-4.7
X7.63Y-3.34
X7.63Y-3.4
X7.63Y-4.7
T2
X6.5496Y-4.4878
X6.5496Y-4.5665
X6.5496Y-4.6453
X6.6551Y-4.2461
X6.6614Y-4.9252
X6.6839Y-3.8677
X6.7161Y-3.9083
X6.7402Y-4.9252
X6.7599Y-4.4522
X6.7673Y-4.5543
X6.8189Y-4.9252
X6.8362Y-3.25
X6.8496Y-4.4395
X6.8819Y-3.2642
X6.8839Y-4.4803
X6.9094Y-4.4488
X6.9323Y-3.2638
X6.9957Y-3.5343
X6.9957Y-3.613
X7.0449Y-3.6984
X7.0744Y-3.5343
X7.0744Y-3.613
X7.1531Y-3.5343
X7.1531Y-3.613
X7.1583Y-4.0969
X7.1634Y-3.4882
X7.165Y-3.4488
X7.1661Y-3.2476
X7.1673Y-3.3713
X7.1727Y-3.4102
X7.3165Y-3.4535
X7.3575Y-3.4882
X7.3921Y-3.3728
X7.422Y-3.4114
X7.4598Y-3.3748
X7.4913Y-3.5035
X7.5343Y-3.5858
X7.5583Y-3.8559
X7.5583Y-3.9346
X7.5583Y-4.0134
X7.5583Y-4.0921
X7.5701Y-3.5035
X7.613Y-3.5858
X7.637Y-3.8559
X7.637Y-3.9346
X7.637Y-4.0134
X7.637Y-4.0921
X7.6488Y-3.5035
T3
X6.5646Y-3.3669
X6.5646Y-3.4457
X6.5646Y-3.5244
X6.5646Y-3.6031
X6.5752Y-3.7551
X6.5752Y-3.8339
X6.5752Y-3.9126
X6.5752Y-3.9913
X6.6433Y-3.3669
X6.6433Y-3.4457
X6.6433Y-3.5244
X6.6433Y-3.6031
T0
M30
